<svg width="64" height="64" viewBox="0 0 64 64" fill="none" xmlns="http://www.w3.org/2000/svg">
<path d="M13.5401 42.4167C11.9054 41.8501 10.3784 40.9709 9.05058 39.8101C6.33895 37.4397 4.68002 34.0892 4.43874 30.4956C4.19745 26.9021 5.39359 23.3599 7.764 20.6482C8.9377 19.3055 10.3644 18.2072 11.9626 17.4159C13.5608 16.6246 15.2991 16.1558 17.0785 16.0363C17.2632 16.0404 17.4451 15.9915 17.6029 15.8955C17.7607 15.7994 17.8876 15.6603 17.9689 15.4944C19.1964 11.9368 21.6064 8.90759 24.7969 6.9118C27.9876 4.91607 31.7659 4.07444 35.5019 4.52729C39.238 4.98015 42.7058 6.7001 45.327 9.40034C47.9487 12.1006 49.5652 15.6179 49.907 19.3657C49.9358 19.563 50.0199 19.748 50.1506 19.899C50.2809 20.0499 50.4516 20.1603 50.6426 20.2174C53.4091 20.8691 55.8402 22.5126 57.4762 24.8366C59.1122 27.1606 59.839 30.0038 59.5193 32.8278C59.1997 35.6518 57.8557 38.2607 55.7417 40.1602C54.4427 41.3277 52.9082 42.1775 51.2586 42.6631" stroke="#C87A3C" stroke-width="4.57" stroke-linecap="round" stroke-linejoin="round"/>
<path d="M21.3887 57.4704V46.8578C21.3887 45.6858 22.339 44.7354 23.5112 44.7354H40.4912C41.6634 44.7354 42.6137 45.6858 42.6137 46.8578V57.4704C42.6137 58.6424 41.6634 59.5928 40.4912 59.5928H23.5112C22.339 59.5928 21.3887 58.6424 21.3887 57.4704Z" stroke="#343932" stroke-width="4.57" stroke-linecap="round" stroke-linejoin="round"/>
<path d="M24.5723 44.735V39.4287C24.5723 35.326 27.8982 32 32.001 32C36.1038 32 39.4298 35.326 39.4298 39.4287V44.735" stroke="#343932" stroke-width="4.57" stroke-linecap="round" stroke-linejoin="round"/>
</svg>
