<svg width="64" height="64" viewBox="0 0 64 64" fill="none" xmlns="http://www.w3.org/2000/svg">
<path d="M4.4082 13.4071V42.1033C4.4082 47.0734 14.8612 51.1027 27.7557 51.1027C28.2882 51.1027 28.8166 51.0959 29.3402 51.0823" stroke="#C87A3C" stroke-width="4.57" stroke-linecap="round" stroke-linejoin="round"/>
<path d="M51.1035 23.5103V13.4072" stroke="#C87A3C" stroke-width="4.57" stroke-linecap="round" stroke-linejoin="round"/>
<path d="M4.4082 27.7552C4.4082 32.7254 14.8612 36.7546 27.7557 36.7546C29.7745 36.7546 31.7334 36.6558 33.6017 36.4702" stroke="#C87A3C" stroke-width="4.57" stroke-linecap="round" stroke-linejoin="round"/>
<path d="M27.7557 22.4065C40.6502 22.4065 51.1032 18.3773 51.1032 13.4071C51.1032 8.4369 40.6502 4.40771 27.7557 4.40771C14.8612 4.40771 4.4082 8.4369 4.4082 13.4071C4.4082 18.3773 14.8612 22.4065 27.7557 22.4065Z" stroke="#343932" stroke-width="4.57" stroke-linecap="round" stroke-linejoin="round"/>
<path d="M38.3691 57.4704V46.8578C38.3691 45.6858 39.3194 44.7354 40.4916 44.7354H57.4716C58.6437 44.7354 59.5941 45.6858 59.5941 46.8578V57.4704C59.5941 58.6424 58.6437 59.5928 57.4716 59.5928H40.4916C39.3194 59.5928 38.3691 58.6424 38.3691 57.4704Z" stroke="#343932" stroke-width="4.57" stroke-linecap="round" stroke-linejoin="round"/>
<path d="M41.5527 44.735V39.4287C41.5527 35.326 44.8787 32 48.9815 32C53.0843 32 56.4102 35.326 56.4102 39.4287V44.735" stroke="#343932" stroke-width="4.57" stroke-linecap="round" stroke-linejoin="round"/>
</svg>
