<svg width="64" height="64" viewBox="0 0 64 64" fill="none" xmlns="http://www.w3.org/2000/svg">
<path d="M4.4082 25.3161V38.6844" stroke="#C87A3C" stroke-width="4.57" stroke-linecap="round" stroke-linejoin="round"/>
<path d="M4.4082 4.40771V17.7761" stroke="#C87A3C" stroke-width="4.57" stroke-linecap="round" stroke-linejoin="round"/>
<path d="M4.4082 46.2239V59.5923" stroke="#C87A3C" stroke-width="4.57" stroke-linecap="round" stroke-linejoin="round"/>
<path d="M34.6758 4.40771V17.7761" stroke="#C87A3C" stroke-width="4.57" stroke-linecap="round" stroke-linejoin="round"/>
<path d="M44.7695 4.40771V17.7761" stroke="#C87A3C" stroke-width="4.57" stroke-linecap="round" stroke-linejoin="round"/>
<path d="M14.9082 25.3159V38.6842" stroke="#C87A3C" stroke-width="4.57" stroke-linecap="round" stroke-linejoin="round"/>
<path d="M14.9802 9.39309C14.9802 6.63974 17.2122 4.40771 19.9656 4.40771C22.7189 4.40771 24.951 6.63974 24.951 9.39309V12.7148C24.951 15.4681 22.7189 17.7001 19.9656 17.7001C17.2122 17.7001 14.9802 15.4681 14.9802 12.7148V9.39309Z" stroke="#C87A3C" stroke-width="4.57" stroke-linecap="round" stroke-linejoin="round"/>
<path d="M24.6504 30.3012C24.6504 27.5479 26.8825 25.3159 29.6358 25.3159C32.3891 25.3159 34.6211 27.5479 34.6211 30.3012V33.6229C34.6211 36.3763 32.3891 38.6083 29.6358 38.6083C26.8825 38.6083 24.6504 36.3763 24.6504 33.6229V30.3012Z" stroke="#C87A3C" stroke-width="4.57" stroke-linecap="round" stroke-linejoin="round"/>
<path d="M14.9802 51.2857C14.9802 48.5324 17.2122 46.3004 19.9656 46.3004C22.7189 46.3004 24.951 48.5324 24.951 51.2857V54.607C24.951 57.3607 22.7189 59.5927 19.9656 59.5927C17.2122 59.5927 14.9802 57.3607 14.9802 54.607V51.2857Z" stroke="#C87A3C" stroke-width="4.57" stroke-linecap="round" stroke-linejoin="round"/>
<path d="M38.3691 57.4704V46.8578C38.3691 45.6858 39.3194 44.7354 40.4916 44.7354H57.4716C58.6437 44.7354 59.5941 45.6858 59.5941 46.8578V57.4704C59.5941 58.6424 58.6437 59.5928 57.4716 59.5928H40.4916C39.3194 59.5928 38.3691 58.6424 38.3691 57.4704Z" stroke="#343932" stroke-width="4.57" stroke-linecap="round" stroke-linejoin="round"/>
<path d="M41.5527 44.735V39.4287C41.5527 35.326 44.8787 32 48.9815 32C53.0843 32 56.4102 35.326 56.4102 39.4287V44.735" stroke="#343932" stroke-width="4.57" stroke-linecap="round" stroke-linejoin="round"/>
</svg>
