<svg width="241" height="240" viewBox="0 0 241 240" fill="none" xmlns="http://www.w3.org/2000/svg">
<path d="M29.9911 114.749C27.657 95.2442 28.7071 75.6579 32.975 56.3752C33.5951 53.5745 36.162 56.1224 54.2576 52.0696C55.642 51.7601 57.0146 51.4364 58.3742 51.1021C58.9837 49.974 59.6594 48.8506 60.4107 47.745C44.654 51.486 32.2887 52.757 31.8481 53.1409C31.0661 53.8213 30.8227 54.1096 30.2758 56.4532C25.0098 79.0269 24.8728 102.944 29.1028 125.868C29.3119 122.222 29.6096 118.477 29.9911 114.749Z" fill="black"/>
<path d="M206.538 68.0829C203.443 65.1203 198.225 61.9439 196.009 61.1561C192.924 60.0575 165.521 57.4304 126.726 34.3192C112.23 25.6843 114.036 24.1581 108.645 28.0149C106.757 29.3651 104.781 30.6444 102.736 31.8551C103.627 31.991 104.511 32.1493 105.388 32.3312C112.483 27.9369 111.4 27.0274 113.07 28.2795C129.971 40.9543 160.171 55.9562 189.45 61.9156C192.608 62.5582 194.383 61.6593 193.885 64.6195C193.148 69.0055 191.414 95.5434 178.7 126.428C162.072 166.824 127.747 203.949 95.2627 221.166C92.7974 222.472 90.312 224.265 86.9467 221.637C79.2638 215.636 73.8336 210.92 66.7378 202.462C54.4044 187.761 50.3315 180.61 44.9107 167.811C44.0496 167.483 43.1353 167.131 42.0982 166.742C41.9777 166.697 41.8584 166.652 41.7402 166.607C50.0799 185.207 61.5356 201.861 75.5653 214.897C78.1877 217.334 96.5077 233.232 100.16 232.169C111.128 228.977 141.978 208.404 163.415 181.885C202.139 133.98 208.718 70.1702 206.538 68.0829ZM204.983 69.6894C199.858 131.606 166.587 191.446 110.621 224.835C98.4579 232.091 99.2707 230.993 96.7841 229.145C96.1533 228.676 92.6627 226.043 92.5753 225.955C91.5146 224.887 91.1519 226.237 99.6073 221.545C128.329 205.609 152.838 178.283 168.82 151.887C182.168 129.841 188.162 111.373 192.487 89.91C198.383 60.6493 194.347 62.394 198.515 64.7093C200.599 65.8669 202.489 67.321 204.47 68.6357C205.001 68.9877 204.997 68.9996 204.983 69.6894Z" fill="black"/>
<path d="M77.0232 72.5726C116.687 73.5897 116.195 78.5167 116.679 73.8625C118.258 58.6728 109.912 50.1395 96.4264 49.3599C89.6295 52.7123 82.7226 55.2484 76.2505 57.1821C74.5365 59.5328 73.2479 62.3784 72.3029 65.68C71.6143 68.0874 71.4133 69.8451 71.418 71.9962C71.4192 72.7699 71.3674 72.4273 77.0232 72.5726Z" fill="url(#paint0_linear_1845_13622)"/>
<path d="M51.048 73.4214C52.8293 73.3883 52.2552 72.5071 52.3379 72.0818C52.6592 70.4293 53.0148 66.7119 54.1618 62.1641C48.2543 63.1232 44.4306 63.4953 44.016 63.8048C43.5553 64.1474 43.1537 64.5703 43.0297 65.1845C42.2501 69.0212 41.6145 72.787 41.1113 76.4796C44.0337 74.6711 48.0925 73.4769 51.048 73.4214Z" fill="url(#paint1_linear_1845_13622)"/>
<path d="M177.544 70.9655C176.043 70.4445 158.296 68.1222 135.194 56.6369C134.886 56.4845 134.583 56.3321 134.283 56.1821C134.697 57.4945 135.033 58.8565 135.287 60.2669C137.749 73.9328 133.45 78.4487 135.476 79.0027C145.505 81.7491 150.366 83.5576 152.202 94.8539C154.36 108.137 149.261 142.295 144.57 161.081C159.78 139.555 174.805 103.303 178.803 73.0846C178.823 71.5715 178.669 71.3553 177.544 70.9655Z" fill="url(#paint2_linear_1845_13622)"/>
<path d="M116.403 178.249C102.429 178.249 91.5368 179.403 59.9277 172.224C74.0649 195.57 90.808 207.556 93.2862 206.8C99.398 204.936 107.896 198.153 111.405 195.486C120.596 188.502 126.44 183.05 131.924 176.881C126.949 177.94 121.085 177.989 116.403 178.249Z" fill="url(#paint3_linear_1845_13622)"/>
<path d="M152.202 94.8539C150.366 83.5576 145.505 81.7491 135.476 79.0027C133.451 78.4475 137.749 73.9328 135.287 60.2669C130.62 34.3562 98.1538 25.029 75.0013 35.4914C54.5078 44.7524 53.2734 67.2505 52.3355 72.0841C52.2528 72.5094 52.8269 73.3894 51.0455 73.4225C46.6005 73.5064 39.6583 76.1642 37.8451 79.6134C29.6011 95.2981 26.5263 144.01 30.3855 155.76C31.4734 159.073 30.9501 162.573 42.0952 166.742C47.7853 168.871 49.791 169.913 59.4253 172.112C91.4195 179.417 102.352 178.251 116.399 178.251C125.433 177.75 138.88 178.03 141.819 170.335C146.886 157.063 154.799 110.839 152.202 94.8539ZM54.9377 72.7563C55.0086 69.5055 57.5897 58.0509 61.2893 51.6426C65.1166 45.0122 68.9438 41.778 74.1342 38.8438C80.6134 35.1819 92.6432 33.7549 94.0785 33.7266C102.359 33.5624 110.46 36.0407 116.86 39.4344C126.095 44.3307 129.914 50.1282 131.786 57.5418C133.477 64.2359 133.423 72.2294 132.511 77.2178C132.167 79.1019 132.444 78.1877 119.631 76.3449C119.178 76.2799 119.068 76.1642 119.136 75.6527C123.786 40.9617 81.4981 39.6813 71.6973 59.8854C68.9237 65.6026 69.0596 72.3428 69.0549 72.3747C68.9379 73.035 63.6034 72.5555 63.6034 72.7362C54.5716 72.7362 54.9271 73.2772 54.9377 72.7563ZM116.677 73.8619C116.193 78.516 116.685 73.589 77.0212 72.572C71.3654 72.4267 71.4162 72.7704 71.415 71.9955C71.4115 69.8445 71.6111 68.0856 72.2998 65.6794C75.3722 54.9395 82.0911 49.012 95.1947 49.3096C109.399 49.6321 118.304 58.2174 116.677 73.8619ZM141.683 161.055C139.388 171.102 139.514 172.037 130.247 174.152C125.188 175.308 102.215 175.863 97.0682 175.208C93.3071 174.73 93.1157 176.644 66.5589 171.121C27.2292 162.945 34.3108 159.714 31.5348 146.561C29.9342 111.016 37.3324 84.5038 39.539 81.4715C41.3345 79.0051 42.8429 78.6826 44.3242 77.6207C44.7896 77.2875 44.5983 77.5013 46.9643 76.7158C48.6724 76.1488 51.3338 76.0614 51.3621 76.0614C75.7337 74.0592 96.2484 76.111 120.477 79.4091C132.455 81.0392 146.614 82.1945 148.809 91.4035C152.447 106.67 144.994 146.563 141.683 161.055Z" fill="black"/>
<path d="M73.293 102.833C69.5862 109.665 70.8136 118.762 77.5975 124.684C77.8845 124.934 77.9967 125.214 77.9436 125.577C77.4167 129.207 76.5875 137.755 76.6076 142.275C76.6418 149.825 76.9596 154 83.3454 156.697C87.8661 158.607 92.5816 156.837 94.4764 150.963C95.269 148.504 95.3198 146.693 96.26 138.168C97.4378 127.497 96.5164 127.829 97.5842 127.366C102.684 125.155 107.626 118.809 107.501 111.305C108.226 94.3882 82.2398 86.3451 73.293 102.833ZM83.6372 132.626C81.3539 154.185 84.5846 156.42 80.9333 153.502C78.4527 151.518 78.3452 146.79 78.383 143.334C78.5366 129.334 81.1129 125.259 79.5619 123.899C73.8777 118.922 70.9825 110.777 75.9697 102.712C77.1309 100.835 79.8005 98.8333 79.9801 98.6632C81.9835 96.7696 85.0252 96.5653 83.8569 97.8564C76.1859 106.342 79.1343 115.722 84.6484 119.989C85.7138 120.814 84.9177 120.543 83.6372 132.626Z" fill="black"/>
<path d="M135.851 95.986C135.476 111.25 129.963 171.984 127.446 164.894C126.808 163.099 134.135 97.5878 134.088 94.93C133.987 89.2978 132.601 88.6422 133.433 88.1886C134.038 87.859 134.737 88.8525 134.956 89.4289C135.75 91.5244 135.907 93.744 135.851 95.986Z" fill="black"/>
<path d="M24.6913 204.346C24.0133 204.116 30.2893 197.652 30.1747 196.452C30.079 195.448 28.8847 194.868 28.0756 195.587C26.9747 196.567 24.9157 198.735 23.314 200.369C22.6383 201.058 22.9927 195.377 20.6562 191.011C20.0998 189.971 18.7366 190.219 18.6976 191.482C18.6185 194.055 19.9143 200.878 20.3538 202.935C18.133 202.373 11.7508 200.615 11.6976 202.935C11.6858 203.454 11.9823 203.76 12.3816 203.957C17.1656 206.314 18.4508 205.776 17.9499 206.443C15.2827 209.992 14.4357 210.924 13.9774 212.29C13.6502 213.262 13.9077 214.345 14.9814 214.353C16.1568 214.363 16.5466 213.39 19.1583 210.234C22.6159 206.058 20.7873 207.155 23.0789 213.495C23.6494 215.073 23.7924 215.469 24.5342 215.358C25.8147 215.166 24.9642 210.936 24.6972 208.628C24.5685 207.516 31.0145 211.19 31.9336 208.841C32.7002 206.882 29.2651 205.9 24.6913 204.346Z" fill="black"/>
<path d="M183.873 21.2106C182.954 20.9307 186.129 19.5226 188.431 16.3238C189.095 15.4012 188.262 14.4232 185.998 15.8324C181.332 18.7359 181.274 19.8144 181.135 19.0985C180.627 16.5022 180.353 14.5141 179.536 13.0529C178.675 11.5102 176.407 11.053 177.097 15.9458C177.95 21.9879 178.946 19.6455 173.922 19.9018C171.631 20.0187 170.81 21.3984 171.506 22.3056C171.916 22.8407 172.601 22.9459 174.009 23.2459C176.755 23.8306 176.223 22.8029 171.823 27.1228C171.36 27.5776 170.77 28.5923 171.392 29.288C172.476 30.5012 174.339 28.643 178.395 25.4489C178.942 25.0178 178.489 25.4371 179.827 29.236C180.276 30.5082 180.555 31.3694 181.481 31.3753C182.26 31.3812 183.067 30.5425 182.86 28.9998C181.752 20.7499 181.091 26.3361 188.362 23.9618C190.867 23.1431 186.228 21.9288 183.873 21.2106Z" fill="black"/>
<path d="M181.678 219.199C180.717 222.84 186.413 222.986 186.093 219.815C186.308 217.565 182.487 216.127 181.678 219.199Z" fill="black"/>
<path d="M52.4483 7.78941C50.8241 7.69019 45.9928 9.51758 47.7186 13.1251C49.0522 15.9129 52.9267 16.624 55.1817 14.1032C57.7179 11.2682 55.1357 7.59805 52.4483 7.78941ZM51.8731 13.3661C49.3664 13.5433 48.953 10.6374 49.8295 10.3385C50.6446 10.061 51.4277 9.63925 52.3302 9.69831C54.903 9.86723 54.1493 13.5634 51.8731 13.3661Z" fill="black"/>
<path d="M228.966 141.466C227.043 137.147 220.603 138.828 218.685 140.977C214.845 145.278 220.646 153.646 226.582 148.577C228.59 146.862 229.951 143.678 228.966 141.466ZM222.574 147.718C221.747 147.831 219.736 145.891 220.246 143.609C220.58 142.11 222.047 140.945 222.743 141.07C223.192 141.152 223.663 141.084 224.123 141.116C228.503 141.42 226.178 147.552 222.574 147.718Z" fill="black"/>
<defs>
<linearGradient id="paint0_linear_1845_13622" x1="19.6272" y1="62.0521" x2="117.835" y2="62.7724" gradientUnits="userSpaceOnUse">
<stop stop-color="#CADBC9"/>
<stop offset="0.317308" stop-color="#D29E51"/>
<stop offset="0.521158" stop-color="#D3CF99"/>
<stop offset="0.723031" stop-color="#DBC269"/>
<stop offset="1" stop-color="#C87A39"/>
</linearGradient>
<linearGradient id="paint1_linear_1845_13622" x1="26.2408" y1="69.0281" x2="54.44" y2="69.1379" gradientUnits="userSpaceOnUse">
<stop stop-color="#CADBC9"/>
<stop offset="0.317308" stop-color="#D29E51"/>
<stop offset="0.521158" stop-color="#D3CF99"/>
<stop offset="0.723031" stop-color="#DBC269"/>
<stop offset="1" stop-color="#C87A39"/>
</linearGradient>
<linearGradient id="paint2_linear_1845_13622" x1="83.5522" y1="106.479" x2="179.755" y2="106.654" gradientUnits="userSpaceOnUse">
<stop stop-color="#CADBC9"/>
<stop offset="0.317308" stop-color="#D29E51"/>
<stop offset="0.521158" stop-color="#D3CF99"/>
<stop offset="0.723031" stop-color="#DBC269"/>
<stop offset="1" stop-color="#C87A39"/>
</linearGradient>
<linearGradient id="paint3_linear_1845_13622" x1="-22.1093" y1="188.819" x2="133.449" y2="190.201" gradientUnits="userSpaceOnUse">
<stop stop-color="#CADBC9"/>
<stop offset="0.317308" stop-color="#D29E51"/>
<stop offset="0.521158" stop-color="#D3CF99"/>
<stop offset="0.723031" stop-color="#DBC269"/>
<stop offset="1" stop-color="#C87A39"/>
</linearGradient>
</defs>
</svg>
