<svg width="240" height="240" viewBox="0 0 240 240" fill="none" xmlns="http://www.w3.org/2000/svg">
<path d="M194.984 91.8934C194.594 91.8878 194.208 91.959 193.846 92.103C193.484 92.247 193.154 92.4609 192.874 92.7326C192.595 93.0042 192.372 93.3283 192.218 93.6861C192.065 94.044 191.983 94.4287 191.978 94.8182C191.684 121.67 191.704 120.151 192.023 120.879C192.177 121.269 192.409 121.624 192.704 121.923C192.999 122.222 193.352 122.458 193.74 122.617C194.574 122.964 193.598 122.867 211.754 122.865C212.588 122.869 213.391 122.547 213.992 121.968C214.593 121.389 214.943 120.598 214.969 119.764C215.782 92.9223 215.955 94.6257 215.601 93.6748C215.45 93.2761 215.22 92.9119 214.925 92.6042C214.63 92.2965 214.276 92.0516 213.884 91.884C212.992 91.5119 213.945 91.578 194.984 91.8556V91.8934ZM194.984 92.7817C213.794 93.057 212.761 92.9093 213.336 93.1503C213.559 93.2452 213.76 93.3845 213.927 93.5598C214.094 93.7351 214.224 93.9426 214.308 94.1697C214.503 94.654 214.632 93.1786 213.539 119.713C213.523 120.176 213.328 120.615 212.995 120.936C212.662 121.258 212.217 121.438 211.754 121.438C193.475 121.438 194.767 121.496 194.283 121.305C193.849 121.116 193.503 120.77 193.311 120.337C193.054 119.721 193.259 121.076 192.972 94.8218C192.964 94.2805 193.171 93.7582 193.548 93.3692C193.924 92.9802 194.439 92.7562 194.98 92.7463L194.984 92.7817Z" fill="#191919"/>
<path d="M116.042 104.671C116.083 104.566 116.514 102.97 116.632 102.508C117.086 100.674 117.23 98.1019 118.011 98.1657C118.578 98.2106 118.508 99.5041 118.508 100.108C118.291 101.837 117.897 103.539 117.333 105.187C117.288 105.305 117.215 105.423 117.175 105.541C117.123 105.691 117.02 105.818 116.883 105.897C116.746 105.977 116.585 106.005 116.429 105.975L115.435 105.58C115.373 105.572 115.314 105.551 115.261 105.519C115.207 105.487 115.161 105.445 115.124 105.395C115.088 105.345 115.061 105.288 115.047 105.227C115.033 105.167 115.031 105.104 115.042 105.043C115.053 104.981 115.075 104.923 115.109 104.871C115.143 104.818 115.187 104.774 115.238 104.739C115.29 104.704 115.347 104.68 115.408 104.668C115.469 104.655 115.532 104.656 115.593 104.668L116.042 104.671Z" fill="#191919"/>
<path d="M122.129 96.3471C122.664 96.3837 123.685 96.7617 123.982 96.2703C124.155 95.9289 123.763 95.0359 122.174 94.913C120.854 94.8067 120.166 95.4859 120.231 95.8462C120.344 96.4522 121.964 96.3352 122.129 96.3471Z" fill="#191919"/>
<path d="M110.728 113.515C112.873 113.463 114.161 111.317 114.88 109.287C112.912 108.481 111.028 107.547 109.1 106.668C107.646 109.487 107.571 113.585 110.728 113.515Z" fill="url(#paint0_linear_1845_13480)"/>
<path d="M115.185 109.756C114.735 111.692 113.405 113.761 111.478 114.14C107.268 114.983 106.467 110.124 108.473 106.338C108.559 106.178 108.702 106.057 108.874 105.999C109.046 105.941 109.234 105.95 109.399 106.025C113.959 108.152 112.973 107.848 115.162 108.908C115.249 108.938 115.324 108.995 115.378 109.069C115.432 109.143 115.462 109.232 115.464 109.324C115.467 109.416 115.441 109.506 115.391 109.583C115.342 109.66 115.269 109.72 115.185 109.756ZM109.444 107.596C108.586 109.765 108.393 112.849 110.71 112.802C111.028 112.805 111.343 112.744 111.636 112.624C112.804 111.902 113.719 110.837 114.259 109.575C112.612 109.022 111.004 108.361 109.444 107.596Z" fill="#191919"/>
<path d="M81.1682 163.913C75.4306 158.183 68.5439 153.733 60.9617 150.858C58.3169 149.815 55.6567 148.362 52.9162 147.918C52.8084 147.899 52.7064 147.855 52.6188 147.789C52.5311 147.724 52.4602 147.638 52.4117 147.54C52.3632 147.442 52.3386 147.334 52.3399 147.224C52.3411 147.115 52.3682 147.007 52.4189 146.91C59.4615 133.952 65.7434 125.231 79.857 120.561C85.3191 118.754 93.3162 117.145 98.7972 118.896C99.2 119.023 99.8012 119.209 99.9489 119.572C101.141 122.093 102.184 125.189 104.514 126.626C107.902 128.713 110.112 126.183 109.736 122.52C109.721 122.407 109.735 122.293 109.774 122.187C109.814 122.081 109.879 121.986 109.964 121.911C110.048 121.836 110.15 121.782 110.26 121.755C110.369 121.727 110.484 121.727 110.594 121.754C114.256 122.607 118.231 122.249 121.782 123.869C129.77 127.513 138.918 135.637 144.768 142.139C144.864 142.246 144.918 142.383 144.923 142.526C144.927 142.669 144.88 142.809 144.79 142.921C141.955 146.493 137.37 150.826 133.648 154.734C133.563 154.818 133.449 154.865 133.329 154.867C133.21 154.869 133.094 154.825 133.007 154.744C132.919 154.662 132.867 154.551 132.86 154.431C132.853 154.312 132.892 154.195 132.97 154.104C137.497 149.261 140.602 146.167 143.524 142.561C137.987 136.499 128.378 128.412 121.198 125.14C118.225 123.786 114.538 123.924 111.186 123.317C111.186 127.527 107.98 130.423 103.773 127.833C101.119 126.2 99.9855 123.032 98.7783 120.391C93.8052 118.467 85.4845 120.191 80.3118 121.907C67.2353 126.242 60.488 134.656 54.0727 146.722C56.6043 147.491 59.0749 148.447 61.4638 149.584C69.2734 152.636 76.311 157.378 82.0718 163.47C82.1299 163.534 82.1691 163.614 82.1851 163.699C82.2011 163.784 82.1934 163.872 82.1628 163.953L80.6933 167.767C80.6573 167.875 80.5799 167.965 80.4781 168.015C80.3763 168.066 80.2585 168.075 80.1505 168.039C80.0426 168.002 79.9534 167.925 79.9026 167.823C79.8517 167.721 79.8434 167.604 79.8794 167.496L81.1682 163.913Z" fill="url(#paint1_linear_1845_13480)"/>
<path d="M126.868 142.769C126.939 143.077 127.132 144.123 127.252 144.501C127.262 144.543 127.976 146.901 128.315 148.412C128.605 149.711 128.787 151.036 128.993 152.387C129.08 152.96 129.218 153.517 129.309 154.106C129.313 154.228 129.365 154.345 129.455 154.429C129.544 154.513 129.664 154.558 129.787 154.554C129.909 154.551 130.026 154.498 130.11 154.409C130.194 154.319 130.239 154.2 130.235 154.077C130.447 152.068 130.271 150.036 129.716 148.093C129.359 146.118 128.671 144.217 127.682 142.471C127.638 142.365 127.554 142.28 127.449 142.234C127.344 142.188 127.225 142.184 127.117 142.223C127.016 142.268 126.934 142.348 126.888 142.449C126.842 142.549 126.835 142.663 126.868 142.769Z" fill="url(#paint2_linear_1845_13480)"/>
<path d="M81.9129 164.34C82.6689 162.972 83.1462 162.118 83.7439 160.847C84.2235 159.825 89.2296 148.833 90.0943 146.497C90.1492 146.388 90.1587 146.261 90.1206 146.145C90.0826 146.028 90.0001 145.932 89.8911 145.876C89.7787 145.822 89.6499 145.814 89.5319 145.854C89.4138 145.893 89.3156 145.977 89.258 146.087C87.5712 148.906 86.0984 151.848 84.8519 154.888C83.3608 157.815 82.1207 160.864 81.1451 164.001C81.1002 164.103 81.0975 164.218 81.1377 164.322C81.1779 164.426 81.2577 164.509 81.3595 164.554C81.4613 164.599 81.5769 164.602 81.6806 164.562C81.7844 164.522 81.868 164.442 81.9129 164.34Z" fill="url(#paint3_linear_1845_13480)"/>
<path d="M53.9565 149.5C50.1529 155.081 47.0486 160.259 45.0286 167.014C44.0529 170.283 43.1587 173.974 44.712 177.189C44.7714 177.285 44.8632 177.356 44.9708 177.391C45.0784 177.425 45.1948 177.42 45.2988 177.375C45.4028 177.331 45.4875 177.251 45.5377 177.15C45.5878 177.049 45.6 176.933 45.572 176.824C44.5809 174.141 45.546 170.167 46.3847 167.428C48.6397 160.07 50.8203 157.614 54.6806 149.932C54.712 149.886 54.7334 149.833 54.7435 149.778C54.7536 149.723 54.7522 149.666 54.7393 149.612C54.7264 149.557 54.7024 149.506 54.6687 149.461C54.635 149.416 54.5924 149.379 54.5436 149.351C54.4459 149.294 54.3294 149.277 54.2194 149.305C54.1094 149.333 54.0149 149.403 53.9565 149.5Z" fill="#191919"/>
<path d="M102.661 177.781C107.668 172.199 114.504 168.407 117.285 175.104C117.337 175.218 117.343 175.348 117.299 175.465C117.256 175.583 117.167 175.679 117.053 175.731C116.94 175.784 116.81 175.789 116.692 175.745C116.574 175.702 116.479 175.614 116.426 175.5C115.152 172.927 113.285 172.486 111.363 173.057C108.473 173.914 105.328 176.872 103.362 179.141C103.255 179.265 103.109 179.348 102.949 179.377C102.788 179.405 102.623 179.378 102.48 179.299C96.3556 175.924 89.7548 173.341 83.4729 170.203C80.7576 168.848 78.1307 167.322 75.6081 165.635C75.5184 165.572 75.4562 165.478 75.4343 165.37C75.4125 165.263 75.4328 165.152 75.4909 165.059C75.549 164.966 75.6406 164.899 75.7466 164.872C75.8527 164.845 75.9651 164.86 76.0606 164.913C81.7625 168.256 95.8678 174.101 102.661 177.781Z" fill="#191919"/>
<path d="M109.349 179.417C109.467 179.361 110.007 179.154 110.275 179.01C111.19 178.372 112.315 178.11 113.417 178.278C113.675 178.298 113.927 178.362 114.163 178.467C114.256 178.543 114.376 178.579 114.496 178.569C114.616 178.558 114.727 178.501 114.806 178.41C114.886 178.32 114.926 178.202 114.92 178.081C114.914 177.961 114.861 177.848 114.773 177.765C114.614 177.534 114.414 177.334 114.183 177.175C113.566 176.804 112.834 176.673 112.126 176.806C111.057 176.928 110.053 177.383 109.256 178.105C109.065 178.319 108.898 178.552 108.759 178.802C108.683 178.884 108.641 178.991 108.641 179.102C108.641 179.214 108.683 179.321 108.759 179.402C108.796 179.443 108.841 179.476 108.891 179.499C108.941 179.521 108.996 179.534 109.051 179.535C109.106 179.536 109.161 179.527 109.212 179.506C109.263 179.486 109.31 179.455 109.349 179.417Z" fill="#191919"/>
<path d="M109.531 183.56C109.769 183.513 110.004 183.448 110.232 183.366C110.906 182.961 111.684 182.763 112.469 182.797C112.657 182.771 112.846 182.762 113.035 182.771C113.143 182.831 113.27 182.846 113.388 182.812C113.507 182.778 113.607 182.698 113.667 182.59C113.727 182.483 113.741 182.356 113.707 182.237C113.674 182.118 113.594 182.018 113.486 181.958C113.292 181.75 113.052 181.588 112.786 181.486C112.14 181.345 111.468 181.372 110.835 181.564C110.202 181.756 109.629 182.106 109.17 182.582C109.093 182.689 109.025 182.801 108.967 182.919C108.922 182.955 108.885 183 108.858 183.051C108.831 183.102 108.815 183.158 108.81 183.215C108.805 183.272 108.812 183.33 108.83 183.385C108.848 183.44 108.877 183.49 108.915 183.533C108.953 183.577 109 183.612 109.052 183.637C109.104 183.661 109.16 183.676 109.218 183.678C109.275 183.681 109.333 183.671 109.387 183.651C109.44 183.631 109.49 183.6 109.531 183.56Z" fill="#191919"/>
<path d="M26.2268 90.6063C28.2306 87.0173 30.489 83.5766 32.9847 80.3106C33.7325 79.4081 34.544 78.6025 35.3342 77.7413C35.4045 77.6434 35.4934 77.5602 35.5958 77.4966C35.6982 77.433 35.8121 77.3902 35.9311 77.3706C36.0501 77.351 36.1717 77.3551 36.2891 77.3825C36.4065 77.4099 36.5173 77.4602 36.6153 77.5305C36.7133 77.6008 36.7964 77.6896 36.86 77.792C36.9237 77.8944 36.9665 78.0084 36.986 78.1273C37.0056 78.2463 37.0016 78.368 36.9742 78.4853C36.9467 78.6027 36.8964 78.7136 36.8262 78.8115C36.2615 79.8345 35.763 80.8705 35.1535 81.8663C33.573 84.439 29.9477 89.2762 27.8758 93.3787C27.7811 93.5649 27.6451 93.727 27.4781 93.8525C27.3111 93.9781 27.1177 94.0638 26.9125 94.1031C26.7073 94.1424 26.4959 94.1343 26.2943 94.0794C26.0928 94.0245 25.9064 93.9242 25.7496 93.7862C24.5704 92.6774 23.4751 91.4827 22.4728 90.2118C22.299 90.0726 22.1872 89.8703 22.1618 89.6491C22.1363 89.4279 22.1993 89.2056 22.3369 89.0305C22.4798 88.8562 22.6854 88.745 22.9095 88.7209C23.1336 88.6968 23.3581 88.7618 23.5347 88.9018C24.4631 89.4194 25.3618 89.9885 26.2268 90.6063Z" fill="url(#paint4_linear_1845_13480)"/>
<path d="M26.2227 70.7154C27.9773 67.8215 29.9812 65.0864 32.2116 62.5411C32.9204 61.8324 33.6811 61.2205 34.4265 60.5826C34.5068 60.4921 34.6042 60.4183 34.7131 60.3654C34.822 60.3125 34.9402 60.2816 35.061 60.2745C35.1818 60.2673 35.3029 60.284 35.4173 60.3236C35.5316 60.3632 35.6371 60.4249 35.7276 60.5052C35.8181 60.5856 35.8919 60.683 35.9448 60.7919C35.9977 60.9007 36.0286 61.019 36.0358 61.1398C36.0429 61.2606 36.0263 61.3817 35.9867 61.496C35.9471 61.6104 35.8853 61.7159 35.805 61.8064C35.2403 62.6463 34.7678 63.5216 34.1772 64.3591C32.462 66.7972 29.9436 69.8082 27.7595 73.5468C27.6552 73.7242 27.5131 73.8764 27.3433 73.9925C27.1735 74.1086 26.9801 74.1857 26.777 74.2185C26.5739 74.2512 26.366 74.2387 26.1683 74.1818C25.9706 74.1249 25.7879 74.0251 25.6332 73.8894C24.5039 72.8583 23.5093 71.6886 22.673 70.4082C22.4974 70.2687 22.3845 70.0651 22.359 69.8422C22.3335 69.6194 22.3976 69.3955 22.5372 69.2199C22.6812 69.0466 22.8876 68.9371 23.1118 68.915C23.336 68.8928 23.5599 68.96 23.735 69.1018C24.6076 69.5695 25.4398 70.1093 26.2227 70.7154Z" fill="url(#paint5_linear_1845_13480)"/>
<path d="M38.9226 66.195C57.4328 65.6587 56.2515 66.2836 64.0324 65.6988C64.1517 65.6907 64.2632 65.6368 64.3438 65.5484C64.4243 65.46 64.4677 65.344 64.4648 65.2245C64.4619 65.1049 64.413 64.9911 64.3283 64.9068C64.2435 64.8224 64.1295 64.774 64.01 64.7716C61.8672 64.6853 61.82 64.6156 58.7452 64.5707C54.7584 64.514 46.8606 64.4125 42.5845 64.807C41.721 64.8873 40.4358 65.0586 38.8328 65.3539C38.7732 65.354 38.7143 65.3666 38.6599 65.3909C38.6055 65.4153 38.5568 65.4507 38.517 65.4951C38.4772 65.5394 38.4471 65.5917 38.4288 65.6484C38.4105 65.7051 38.4043 65.765 38.4106 65.8243C38.4169 65.8836 38.4356 65.9408 38.4655 65.9924C38.4954 66.044 38.5358 66.0887 38.5841 66.1236C38.6324 66.1586 38.6874 66.183 38.7458 66.1953C38.8041 66.2076 38.8643 66.2075 38.9226 66.195Z" fill="url(#paint6_linear_1845_13480)"/>
<path d="M39.0586 72.7352C39.4169 72.81 39.7794 72.862 40.1442 72.8911C40.6687 72.9089 43.6348 72.7116 44.6861 72.6076C45.186 72.5593 45.6789 72.4551 46.1556 72.297C46.2169 72.2949 46.2772 72.2806 46.333 72.255C46.3887 72.2294 46.4388 72.1929 46.4804 72.1478C46.5219 72.1026 46.5541 72.0497 46.575 71.992C46.5959 71.9343 46.6052 71.873 46.6022 71.8117C46.5992 71.7505 46.5841 71.6904 46.5577 71.635C46.5313 71.5796 46.4942 71.53 46.4484 71.4891C46.4027 71.4482 46.3493 71.4168 46.2913 71.3967C46.2333 71.3766 46.1719 71.3682 46.1107 71.372C44.932 71.149 43.7234 71.1347 42.5398 71.3295C41.3332 71.2816 40.129 71.4718 38.996 71.8894C38.8839 71.8984 38.7799 71.9515 38.7069 72.0371C38.6339 72.1227 38.5979 72.2338 38.6068 72.346C38.6157 72.4581 38.6689 72.5622 38.7545 72.6352C38.8401 72.7081 38.9512 72.7441 39.0634 72.7352H39.0586Z" fill="url(#paint7_linear_1845_13480)"/>
<path d="M39.0857 84.5801C39.9398 84.462 44.4782 84.1289 44.5998 84.1218C48.3928 83.8737 51.8799 83.9505 55.1992 83.6268C58.4441 83.3091 58.9957 83.1626 60.262 83.1106C60.3246 83.1149 60.3873 83.1065 60.4465 83.0859C60.5057 83.0652 60.5601 83.0328 60.6065 82.9906C60.6528 82.9484 60.6901 82.8972 60.7161 82.8401C60.7422 82.7831 60.7564 82.7214 60.7579 82.6587C60.7594 82.596 60.7482 82.5337 60.725 82.4755C60.7017 82.4172 60.667 82.3643 60.6227 82.3199C60.5785 82.2755 60.5257 82.2405 60.4676 82.217C60.4094 82.1935 60.3471 82.1821 60.2845 82.1833C57.8201 82.0407 55.348 82.1059 52.8946 82.3782C46.9387 82.6405 43.454 82.3487 38.9038 83.7509C38.7939 83.775 38.698 83.8418 38.6373 83.9366C38.5766 84.0314 38.5561 84.1465 38.5802 84.2564C38.6043 84.3664 38.6711 84.4623 38.7659 84.523C38.8607 84.5837 38.9758 84.6042 39.0857 84.5801Z" fill="url(#paint8_linear_1845_13480)"/>
<path d="M38.7871 93.7118C39.1473 93.7502 39.5094 93.7672 39.8715 93.7626C39.9896 93.7556 43.9362 93.3551 44.098 93.3327C44.5541 93.2634 45.0013 93.1446 45.4317 92.9783C45.4922 92.9705 45.5507 92.9509 45.6037 92.9206C45.6567 92.8902 45.7032 92.8497 45.7405 92.8014C45.7779 92.7531 45.8053 92.6979 45.8214 92.639C45.8374 92.58 45.8416 92.5185 45.8339 92.4579C45.8261 92.3974 45.8065 92.3389 45.7762 92.2859C45.7458 92.2329 45.7053 92.1864 45.657 92.1491C45.6087 92.1117 45.5535 92.0843 45.4945 92.0682C45.4356 92.0522 45.3741 92.048 45.3135 92.0557C44.9101 91.9889 44.5022 91.953 44.0933 91.9482C42.5995 92.0017 41.1116 92.1632 39.6412 92.4314C39.2811 92.5484 38.933 92.6995 38.6017 92.8826C38.4917 92.9072 38.396 92.9745 38.3356 93.0696C38.2753 93.1648 38.2552 93.28 38.2798 93.39C38.3044 93.4999 38.3716 93.5956 38.4668 93.656C38.5619 93.7163 38.6772 93.7364 38.7871 93.7118Z" fill="url(#paint9_linear_1845_13480)"/>
<path d="M30.6337 126.462C28.6889 126.737 26.7059 126.484 24.8928 125.728C20.3639 124.044 18.0759 116.96 21.4117 112.006C23.0424 109.82 25.345 108.229 27.9665 107.478C29.6398 107.094 31.3895 107.214 32.9945 107.824C34.5995 108.434 35.9878 109.505 36.9841 110.904C37.9195 112.596 38.3307 114.529 38.1654 116.455C38.1612 117.55 38.0552 118.642 37.8488 119.717C37.8269 119.834 37.8511 119.956 37.9164 120.056C37.9816 120.156 38.083 120.227 38.1993 120.255C38.3157 120.282 38.4382 120.264 38.5414 120.204C38.6446 120.143 38.7206 120.046 38.7536 119.931C39.3549 117.675 39.5082 115.322 39.2049 113.007C38.5091 107.975 32.3536 104.794 27.5885 106.096C24.6355 106.934 22.0439 108.728 20.2198 111.196C16.3607 116.9 19.0705 125.208 24.4912 126.907C26.5235 127.626 28.7173 127.756 30.8204 127.283C30.9159 127.246 30.9951 127.176 31.0433 127.086C31.0916 126.996 31.1056 126.891 31.0829 126.791C31.0603 126.692 31.0023 126.603 30.9198 126.543C30.8373 126.482 30.7357 126.453 30.6337 126.462Z" fill="#191919"/>
<path d="M29.7588 118.2L29.9856 114.42C29.9964 114.275 30.052 114.136 30.1449 114.022C30.2377 113.909 30.3633 113.828 30.5044 113.789C30.6455 113.75 30.7951 113.756 30.9328 113.806C31.0704 113.855 31.1893 113.946 31.2732 114.066C31.5803 114.539 34.0243 117.694 35.5446 119.994C35.5963 120.093 35.611 120.207 35.5862 120.316C35.5614 120.426 35.4987 120.522 35.4092 120.589C35.3198 120.657 35.2093 120.69 35.0976 120.683C34.9859 120.677 34.8802 120.631 34.7992 120.554C33.729 119.238 32.4533 118.03 31.2956 116.472L31.1374 118.804C31.1334 118.954 31.0805 119.098 30.9866 119.215C30.8927 119.332 30.7631 119.414 30.6176 119.45C29.6726 119.696 28.7193 120.007 27.7696 120.266C29.3738 121.162 30.5456 122.128 32.3127 123.153C32.3646 123.175 32.4117 123.207 32.4511 123.248C32.4906 123.288 32.5217 123.335 32.5427 123.388C32.5637 123.44 32.5741 123.496 32.5734 123.552C32.5726 123.608 32.5607 123.664 32.5383 123.716C32.4896 123.817 32.4037 123.895 32.2985 123.935C32.1933 123.974 32.0769 123.971 31.9737 123.927C31.4049 123.726 30.8467 123.496 30.301 123.239C29.3218 122.766 26.123 120.994 25.4874 120.522C25.3797 120.436 25.299 120.321 25.2548 120.191C25.2106 120.06 25.2048 119.92 25.2382 119.787C25.2716 119.653 25.3427 119.532 25.443 119.438C25.5433 119.344 25.6687 119.28 25.804 119.255C27.1707 119.018 28.5362 118.544 29.7588 118.2Z" fill="url(#paint10_linear_1845_13480)"/>
<path d="M32.8474 125.907C33.5598 124.807 34.3447 123.756 35.1969 122.76C35.7354 121.995 36.3828 121.313 37.1188 120.736C38.4394 119.877 39.6821 120.888 39.8534 122.324C40.1491 122.331 40.438 122.414 40.6923 122.565C40.9467 122.716 41.1578 122.93 41.3053 123.186C41.4529 123.443 41.5319 123.733 41.5348 124.028C41.5377 124.324 41.4643 124.616 41.3217 124.875C40.268 126.772 38.8469 128.441 37.1412 129.784C35.9411 130.853 34.6984 130.362 34.3618 129.216C34.0532 129.312 33.7219 129.307 33.4167 129.2C33.1115 129.094 32.8485 128.892 32.6667 128.625C32.4224 128.206 32.3091 127.723 32.3413 127.238C32.3735 126.754 32.5497 126.291 32.8474 125.907ZM33.4569 126.569C33.3388 126.971 33.3329 127.807 33.7062 127.997C33.9129 128.115 34.3417 127.838 34.5425 127.674C34.6483 127.591 34.7764 127.542 34.9105 127.532C35.0447 127.523 35.1786 127.553 35.2951 127.62C35.4117 127.687 35.5055 127.788 35.5646 127.908C35.6238 128.029 35.6454 128.165 35.6269 128.298C35.5842 128.531 35.6328 128.773 35.7627 128.971C36.0191 129.17 38.4217 126.599 38.769 126.189C39.0927 125.805 40.3814 124.146 40.0117 123.835C39.6089 123.522 39.1541 124.158 38.6332 123.675C38.5319 123.584 38.459 123.466 38.4229 123.335C38.3869 123.204 38.3894 123.065 38.43 122.935C38.4694 122.78 38.4777 122.619 38.4544 122.461C38.4311 122.303 38.3766 122.151 38.2941 122.014C38.176 121.886 38.1146 121.738 37.8866 121.922C37.2635 122.429 36.7021 123.007 36.214 123.645C35.3304 124.589 34.572 125.288 33.4569 126.569Z" fill="#191919"/>
<path d="M39.0827 130.647C40.2935 130.001 42.6265 127.277 41.6579 126.758C41.5512 126.708 41.4294 126.699 41.3166 126.734C41.2038 126.769 41.1081 126.844 41.0483 126.946C40.9527 127.071 39.2977 129.03 38.5169 130.017C38.2063 130.402 38.5205 130.947 39.0827 130.647Z" fill="#191919"/>
<path d="M31.3273 76.2823C31.3273 75.0361 31.4607 71.9625 31.5304 68.8121C31.5304 68.6868 31.5802 68.5666 31.6688 68.478C31.7574 68.3894 31.8776 68.3396 32.0029 68.3396C32.1283 68.3396 32.2484 68.3894 32.337 68.478C32.4257 68.5666 32.4754 68.6868 32.4754 68.8121L32.6798 76.9485C32.68 77.1252 32.6118 77.2952 32.4897 77.4228C32.3675 77.5505 32.2007 77.626 32.0242 77.6337C16.7589 78.1487 17.7949 78.216 17.4948 77.9148C17.1948 77.6136 17.281 78.5302 17.281 63.839C17.2841 63.6531 17.3602 63.4759 17.4927 63.3455C17.6253 63.2151 17.8038 63.1421 17.9898 63.1421C21.6351 63.1421 23.6834 63.3216 28.3848 63.415C28.4424 63.4119 28.5001 63.4206 28.5543 63.4406C28.6084 63.4606 28.658 63.4914 28.6998 63.5311C28.7417 63.5708 28.7751 63.6187 28.7979 63.6717C28.8207 63.7248 28.8324 63.7819 28.8324 63.8396C28.8324 63.8974 28.8207 63.9545 28.7979 64.0075C28.7751 64.0606 28.7417 64.1084 28.6998 64.1481C28.658 64.1879 28.6084 64.2187 28.5543 64.2386C28.5001 64.2586 28.4424 64.2673 28.3848 64.2643C23.231 64.3659 21.9517 64.5194 18.6985 64.5348V76.6627L31.3273 76.2823Z" fill="#191919"/>
<path d="M31.7822 96.1685C31.7822 95.4999 31.9866 87.7981 31.9866 87.7981C31.9866 87.6728 32.0364 87.5527 32.125 87.464C32.2136 87.3754 32.3338 87.3256 32.4591 87.3256C32.5844 87.3256 32.7046 87.3754 32.7932 87.464C32.8818 87.5527 32.9316 87.6728 32.9316 87.7981L33.1572 96.8383C33.1526 97.0177 33.08 97.1888 32.9542 97.3168C32.8283 97.4449 32.6586 97.5204 32.4792 97.5281L18.4672 98.0065C18.3714 98.01 18.2758 97.9941 18.1863 97.9596C18.0968 97.9251 18.0153 97.8728 17.9466 97.8059C17.8779 97.739 17.8235 97.6588 17.7867 97.5702C17.7499 97.4817 17.7314 97.3866 17.7325 97.2907V83.7358C17.736 83.5535 17.8097 83.3797 17.9382 83.2503C18.0667 83.121 18.2401 83.0461 18.4223 83.0413C21.5703 82.8983 25.2381 82.9231 28.3661 82.8593C28.4795 82.8542 28.5905 82.8937 28.6751 82.9695C28.7597 83.0452 28.8112 83.1512 28.8185 83.2645C28.8189 83.3761 28.7771 83.4837 28.7015 83.5658C28.626 83.648 28.5222 83.6985 28.411 83.7075C24.2435 83.9981 21.3601 84.2851 19.1559 84.3973V96.5512L31.7822 96.1685Z" fill="#191919"/>
<path d="M176.161 152.625C177.859 152.448 179.751 152.98 180.343 154.623C180.677 155.55 180.606 156.96 179.551 159.082C179.218 159.753 165.99 187.441 165.99 187.562C165.512 188.407 164.857 189.139 164.07 189.708C163.262 190.286 162.304 190.618 161.312 190.662C159.978 190.722 89.4396 194.485 89.4396 194.485C89.3381 194.489 89.2387 194.456 89.1598 194.392C89.0809 194.328 89.0279 194.238 89.0108 194.138C88.9137 193.681 88.9591 193.206 89.141 192.776C89.3229 192.346 89.6325 191.982 90.0279 191.734C91.0685 191.105 92.2702 190.793 93.4854 190.838C97.3445 190.711 108.179 189.733 112.042 189.375C112.675 187.824 123.891 160.224 124.02 159.869C124.715 158.104 125.909 156.58 127.456 155.483C129.034 154.405 130.926 153.88 132.834 153.99C138.435 154.2 170.626 152.864 176.161 152.625ZM164.724 186.926C164.905 186.531 177.163 160.703 178.285 158.446C179.081 156.848 179.238 155.8 178.987 155.102C178.609 154.057 177.021 153.966 176.297 154.051C176.163 154.066 134.702 155.476 132.789 155.402C131.187 155.305 129.597 155.742 128.27 156.644C126.957 157.574 125.938 158.859 125.332 160.349C125.332 160.468 125.848 159.547 113.037 190.187C112.996 190.293 112.925 190.386 112.833 190.453C112.74 190.521 112.631 190.561 112.516 190.568C91.9627 192.233 92.0348 191.43 90.5263 192.458C90.3403 192.576 90.1817 192.733 90.0609 192.917C89.9401 193.102 89.86 193.309 89.8259 193.527C92.6739 193.342 159.912 189.305 161.268 189.243C161.993 189.18 162.69 188.934 163.294 188.529C163.898 188.124 164.39 187.573 164.724 186.926Z" fill="#191919"/>
<path d="M13.5709 133.646C14.6043 132.746 15.5435 131.744 16.374 130.655C17.4591 129.613 18.3945 128.426 19.1535 127.127C19.2292 127.032 19.2666 126.913 19.2583 126.791C19.25 126.67 19.1966 126.557 19.1086 126.473C19.0625 126.433 19.0089 126.402 18.951 126.383C18.8931 126.364 18.8319 126.356 18.771 126.361C18.7101 126.365 18.6507 126.381 18.5961 126.409C18.5415 126.436 18.4929 126.474 18.453 126.52C18.0314 126.831 17.6312 127.169 17.2552 127.534C15.9353 128.915 14.6904 130.365 13.526 131.88C13.3193 132.181 12.9696 132.943 12.8704 133.141C12.8035 133.234 12.7763 133.35 12.7947 133.463C12.8131 133.576 12.8756 133.677 12.9685 133.744C13.0613 133.81 13.177 133.838 13.29 133.819C13.403 133.801 13.504 133.738 13.5709 133.646Z" fill="url(#paint11_linear_1845_13480)"/>
<path d="M8.23721 120.701C8.55994 120.803 8.89323 120.868 9.23064 120.895C10.5718 120.845 11.9083 120.708 13.2315 120.484C13.5955 120.397 13.9512 120.278 14.2947 120.129C14.4168 120.114 14.5278 120.05 14.6031 119.953C14.6784 119.855 14.7119 119.732 14.6963 119.61C14.6806 119.487 14.6171 119.376 14.5196 119.301C14.4221 119.226 14.2987 119.192 14.1765 119.208C13.5739 119.082 12.9529 119.073 12.3468 119.181C8.2124 119.605 9.18693 119.535 8.1876 119.847C8.12992 119.847 8.07289 119.859 8.01996 119.882C7.96703 119.905 7.91932 119.938 7.87972 119.98C7.84013 120.022 7.80947 120.072 7.78963 120.126C7.76979 120.18 7.76117 120.238 7.7643 120.295C7.76743 120.353 7.78224 120.409 7.80783 120.461C7.83342 120.513 7.86926 120.559 7.91316 120.596C7.95707 120.633 8.00812 120.661 8.06322 120.679C8.11832 120.696 8.17631 120.701 8.23367 120.695L8.23721 120.701Z" fill="url(#paint12_linear_1845_13480)"/>
<path d="M12.0316 104.281C12.1906 104.655 12.3885 105.012 12.6222 105.344C13.6791 106.561 14.8114 107.711 16.0124 108.785C16.3601 109.054 16.7226 109.303 17.098 109.531C17.1867 109.611 17.3028 109.653 17.4221 109.65C17.5415 109.647 17.655 109.598 17.7392 109.513C17.8234 109.428 17.8719 109.315 17.8745 109.195C17.8772 109.076 17.8339 108.96 17.7535 108.872C17.0535 107.814 16.2 106.867 15.2209 106.06C13.0841 103.94 14.3256 104.964 12.712 103.742C12.6404 103.651 12.5359 103.593 12.4215 103.58C12.3071 103.567 12.1921 103.6 12.1019 103.671C12.0116 103.743 11.9535 103.847 11.9404 103.962C11.9272 104.076 11.96 104.191 12.0316 104.281Z" fill="url(#paint13_linear_1845_13480)"/>
<path d="M26.1524 100.455C26.0645 100.626 26.0107 100.813 25.9941 101.004C26.0816 101.712 26.2399 102.409 26.4666 103.086C26.5511 103.308 26.6734 103.514 26.8281 103.695C26.8529 103.818 26.9254 103.926 27.0299 103.996C27.1343 104.065 27.2621 104.09 27.3851 104.066C27.508 104.041 27.6161 103.968 27.6856 103.864C27.755 103.759 27.7801 103.632 27.7554 103.509C27.7965 103.33 27.8265 103.15 27.8452 102.968C27.7957 102.58 27.7127 102.198 27.5971 101.825C27.3904 100.644 27.1919 100.565 26.9864 100.314C26.9643 100.204 26.9002 100.105 26.8076 100.04C26.715 99.9756 26.6009 99.9489 26.4891 99.966C26.4347 99.9756 26.3828 99.996 26.3363 100.026C26.2899 100.056 26.2498 100.095 26.2185 100.14C26.1872 100.186 26.1652 100.237 26.1539 100.291C26.1425 100.345 26.142 100.401 26.1524 100.455Z" fill="url(#paint14_linear_1845_13480)"/>
<path d="M39.8526 107.344C40.7997 106.525 41.6339 105.584 42.3332 104.545C43.3011 103.565 44.1233 102.451 44.7748 101.237C44.8507 101.143 44.8881 101.023 44.8798 100.903C44.8715 100.782 44.818 100.668 44.73 100.585C44.6342 100.508 44.5121 100.472 44.3897 100.483C44.2673 100.494 44.1542 100.553 44.0744 100.647C43.6862 100.93 43.323 101.246 42.9888 101.592C41.8129 102.89 40.7114 104.255 39.6896 105.678C39.4722 106.056 39.2907 106.455 39.1474 106.867C39.0841 106.961 39.0605 107.076 39.0819 107.186C39.1033 107.297 39.1678 107.395 39.2614 107.458C39.3549 107.522 39.4697 107.545 39.5806 107.524C39.6915 107.502 39.7893 107.438 39.8526 107.344Z" fill="url(#paint15_linear_1845_13480)"/>
<path d="M204.07 164.888C209.655 164.888 222.094 164.341 222.217 164.332C223.055 164.266 223.89 164.166 224.698 164.078C224.821 164.075 224.937 164.023 225.022 163.934C225.107 163.845 225.153 163.726 225.15 163.603C225.147 163.481 225.095 163.364 225.006 163.279C224.917 163.195 224.798 163.149 224.676 163.152C220.533 162.957 216.384 162.992 212.245 163.257C209.471 163.272 206.704 163.535 203.976 164.042C203.921 164.048 203.867 164.065 203.818 164.092C203.769 164.119 203.726 164.156 203.691 164.199C203.656 164.243 203.63 164.293 203.615 164.346C203.599 164.4 203.594 164.456 203.6 164.512C203.606 164.567 203.623 164.621 203.65 164.67C203.677 164.719 203.713 164.762 203.757 164.797C203.801 164.832 203.851 164.858 203.904 164.874C203.958 164.889 204.014 164.894 204.07 164.888Z" fill="#191919"/>
<path d="M180.881 158.909C182.37 158.559 183.894 158.373 185.424 158.352C188.339 158.024 191.299 157.687 194.238 157.575C192.204 158.081 187.741 159.404 187.978 162.3C188.192 163.196 188.741 163.976 189.513 164.478C191.122 165.745 193.014 166.603 195.027 166.978C190.033 167.296 184.902 167.654 179.907 167.703C178.981 167.713 178.076 167.896 177.15 167.939L180.881 158.909Z" fill="url(#paint16_linear_1845_13480)"/>
<path d="M172.886 180.217C175.552 179.952 178.31 180.335 180.976 180.217C187.44 179.914 193.928 179.332 200.369 179.459C199.483 179.839 198.695 180.415 198.063 181.143C196.301 183.421 199.509 184.669 201.318 185.041C191.689 185.47 182.084 185.317 172.479 185.349L172.886 180.217Z" fill="url(#paint17_linear_1845_13480)"/>
<path d="M227.082 159.796C226.293 159.862 218.032 160.175 212.233 160.188C202.76 160.212 201.456 160.117 196.028 160.749C195.972 160.754 195.918 160.769 195.868 160.795C195.819 160.82 195.774 160.855 195.738 160.898C195.702 160.94 195.674 160.99 195.657 161.043C195.64 161.096 195.634 161.152 195.638 161.208C195.643 161.263 195.658 161.318 195.683 161.367C195.709 161.417 195.744 161.461 195.787 161.497C195.829 161.534 195.878 161.561 195.932 161.578C195.985 161.595 196.041 161.602 196.096 161.597C196.215 161.597 211.026 161.737 217.839 161.542C220.966 161.509 224.086 161.232 227.17 160.715C227.285 160.695 227.388 160.632 227.459 160.539C227.529 160.446 227.562 160.331 227.551 160.215C227.54 160.098 227.485 159.991 227.398 159.913C227.311 159.836 227.198 159.794 227.082 159.796Z" fill="#191919"/>
<path d="M231.667 181.071C227.201 181.71 221.331 182.025 212.524 182.912C210.151 183.16 207.642 183.621 205.179 183.804C203.272 183.941 198.186 184.05 198.305 182.15C198.825 181.226 199.649 180.51 200.636 180.123C201.016 179.988 201.406 179.883 201.803 179.809C206.803 179.786 211.877 178.933 216.773 178.57C222.478 178.133 223.142 178.57 231.103 177.644C231.227 177.633 231.341 177.573 231.421 177.478C231.502 177.383 231.541 177.26 231.531 177.136C231.512 177.015 231.448 176.905 231.352 176.828C231.256 176.751 231.134 176.713 231.012 176.721C228.085 176.978 222.013 176.777 216.683 177.157C211.741 177.518 201.075 179.136 197.02 178.005C195.295 177.52 195.366 175.916 196.387 174.671C197.213 173.753 198.313 173.128 199.524 172.887C209.286 172.552 221.569 170.692 230.538 170.288C230.657 170.28 230.769 170.226 230.849 170.138C230.93 170.049 230.973 169.933 230.97 169.814C230.967 169.694 230.919 169.581 230.834 169.496C230.749 169.412 230.635 169.363 230.516 169.361C215.445 169.08 194.31 173.759 190.624 170.227C190.318 169.934 190.494 169.691 190.804 169.4C191.744 168.641 192.826 168.078 193.988 167.746C197.915 167.497 207.427 169.32 226.221 166.664C226.281 166.657 226.339 166.638 226.392 166.608C226.445 166.578 226.492 166.538 226.529 166.49C226.567 166.442 226.595 166.387 226.611 166.328C226.627 166.27 226.632 166.208 226.624 166.148C226.617 166.088 226.598 166.029 226.568 165.976C226.538 165.923 226.498 165.877 226.45 165.839C226.402 165.802 226.347 165.774 226.289 165.758C226.23 165.741 226.169 165.737 226.108 165.744C216.032 166.81 205.882 166.977 195.776 166.242C193.581 166 191.502 165.131 189.787 163.739C189.541 163.554 189.341 163.314 189.202 163.038C189.064 162.763 188.99 162.459 188.988 162.15C188.986 161.842 189.055 161.537 189.19 161.259C189.324 160.982 189.521 160.739 189.765 160.55C191.698 158.291 196.682 158.197 199.596 158.002C214.099 157.022 215.703 157.342 222.65 156.983C224.903 156.865 223.604 156.844 226.289 156.719C226.408 156.711 226.52 156.657 226.6 156.568C226.681 156.48 226.724 156.364 226.721 156.244C226.718 156.125 226.669 156.011 226.584 155.927C226.499 155.842 226.385 155.794 226.265 155.792C220.47 155.842 211.587 155.729 198.85 156.509C196.868 156.627 191.762 157.193 191.212 155.246C191.087 154.58 192.603 153.981 193.246 153.764C200.097 151.446 216.989 151.854 227.464 151.348C227.522 151.349 227.579 151.338 227.632 151.317C227.685 151.295 227.733 151.263 227.774 151.222C227.814 151.181 227.846 151.133 227.867 151.079C227.888 151.026 227.898 150.968 227.897 150.911C227.895 150.854 227.882 150.797 227.858 150.745C227.834 150.693 227.799 150.646 227.757 150.607C227.714 150.569 227.664 150.539 227.61 150.521C227.556 150.502 227.498 150.495 227.441 150.499C221.265 150.476 204.692 149.737 194.802 151.87C191.443 151.878 188.092 152.199 184.793 152.832C184.007 152.962 183.257 153.186 182.487 153.381C182.427 153.39 182.369 153.411 182.316 153.442C182.264 153.473 182.218 153.515 182.182 153.564C182.146 153.613 182.119 153.668 182.104 153.727C182.09 153.787 182.087 153.848 182.096 153.908C182.104 153.969 182.125 154.027 182.156 154.079C182.188 154.131 182.229 154.177 182.278 154.213C182.327 154.25 182.383 154.276 182.442 154.291C182.501 154.306 182.563 154.309 182.623 154.3C185.325 154.168 188.018 153.888 190.69 153.46C190.399 153.671 190.165 153.95 190.009 154.274C189.853 154.597 189.779 154.954 189.795 155.313C189.81 155.672 189.915 156.021 190.099 156.33C190.282 156.638 190.54 156.896 190.848 157.081C188.904 157.257 187.338 157.487 185.358 157.749C183.799 157.823 182.253 158.074 180.751 158.497C180.644 158.533 180.557 158.61 180.507 158.711C180.457 158.811 180.449 158.928 180.485 159.034C180.521 159.14 180.598 159.228 180.699 159.278C180.8 159.327 180.916 159.335 181.022 159.299C182.498 159.029 183.997 158.906 185.497 158.934C186.514 158.844 189.271 158.612 189.61 158.58C188.899 158.917 188.3 159.451 187.883 160.119C187.466 160.787 187.25 161.56 187.259 162.347C187.422 164.094 189.827 165.749 191.372 166.491C190.062 166.574 179.324 167.174 179.033 167.211C178.4 167.291 177.767 167.412 177.135 167.464C177.017 167.476 176.907 167.533 176.83 167.623C176.752 167.713 176.712 167.829 176.718 167.948C176.724 168.067 176.775 168.179 176.861 168.261C176.947 168.343 177.061 168.39 177.18 168.39C177.834 168.368 178.49 168.299 179.123 168.26C180.63 168.17 182.017 168.474 190.802 167.94C188.692 169.15 188.623 170.69 190.593 171.813C188.309 171.836 181.164 172.156 179.281 172.404C177.155 172.694 176.469 172.899 175.371 172.966C175.262 172.968 175.157 173.012 175.08 173.09C175.002 173.167 174.957 173.271 174.954 173.38C174.951 173.489 174.991 173.596 175.064 173.677C175.138 173.758 175.24 173.808 175.349 173.815C177.792 174.081 177.688 173.784 186.943 173.35C188.684 173.269 192.864 173.152 193.227 173.134C193.925 173.097 196.395 172.935 196.588 172.935C194.316 174.334 193.462 177.29 195.442 178.754C191.155 178.872 187.398 179.174 180.954 179.56C178.021 179.771 176.278 179.4 172.862 179.78C172.75 179.789 172.646 179.842 172.573 179.928C172.5 180.013 172.465 180.125 172.474 180.237C172.483 180.349 172.536 180.453 172.622 180.526C172.707 180.599 172.819 180.634 172.931 180.625C175.423 180.451 178.378 180.894 180.999 180.837C185.091 180.697 192.523 180.163 198.018 180.139C197.648 180.426 197.35 180.795 197.146 181.217C196.942 181.639 196.838 182.102 196.843 182.571C196.891 182.948 197.021 183.311 197.224 183.632C197.427 183.954 197.698 184.227 198.018 184.433C196.232 184.49 175.846 184.787 172.456 184.865C172.337 184.873 172.225 184.927 172.145 185.015C172.064 185.104 172.021 185.22 172.024 185.339C172.026 185.459 172.075 185.573 172.16 185.657C172.245 185.741 172.359 185.79 172.478 185.792C183.068 185.991 190.755 186.191 201.363 185.734C201.51 185.728 201.651 185.677 201.767 185.588C201.883 185.498 201.969 185.375 202.012 185.235C205.595 185.471 209.254 184.674 212.686 184.322C220.246 183.524 224.464 183.555 231.852 181.968C231.953 181.928 232.037 181.853 232.089 181.757C232.141 181.661 232.158 181.549 232.136 181.442C232.114 181.335 232.055 181.239 231.969 181.171C231.883 181.103 231.777 181.068 231.667 181.071Z" fill="#191919"/>
<path d="M49.2761 186.444C49.8111 187.116 50.4255 187.72 51.1059 188.244C54.0103 190.191 57.2773 191.533 60.7118 192.189C61.6379 192.36 62.5743 192.471 63.5149 192.521C63.6368 192.541 63.7618 192.513 63.8631 192.442C63.9645 192.371 64.0341 192.264 64.0571 192.143C64.0753 192.021 64.0452 191.897 63.9733 191.797C63.9014 191.697 63.7933 191.629 63.672 191.607C62.87 191.388 61.8872 191.068 61.0284 190.849C57.7824 190.159 54.6837 188.902 51.8749 187.135C51.5205 186.911 50.429 186.259 49.8668 185.828C49.8263 185.789 49.7785 185.758 49.7263 185.738C49.6741 185.718 49.6183 185.708 49.5623 185.709C49.5062 185.71 49.4509 185.723 49.3996 185.745C49.3483 185.768 49.3019 185.8 49.2631 185.841C49.2244 185.881 49.1939 185.929 49.1736 185.981C49.1533 186.033 49.1434 186.089 49.1446 186.145C49.1458 186.201 49.1581 186.256 49.1806 186.308C49.2032 186.359 49.2356 186.405 49.2761 186.444Z" fill="#191919"/>
<path d="M82.9949 195.729C84.6723 195.431 85.8417 194.924 85.889 193.2C85.967 189.877 82.109 185.769 77.684 185.685C75.7993 185.657 73.9268 185.993 72.1688 186.673C65.8739 189.105 63.9626 194.599 67.2879 195.64C69.4117 196.298 80.2296 196.218 82.9949 195.729ZM68.214 194.969V194.943L78.9952 194.682C80.0583 194.644 83.178 194.477 84.1029 193.94C84.8117 193.528 84.3203 191.919 83.9222 191.185C83.3099 190.026 82.4111 189.043 81.3112 188.329C80.2114 187.616 78.9472 187.196 77.6391 187.11C70.1016 186.949 65.2124 193.099 67.2441 194.579C67.5393 194.77 67.8686 194.902 68.214 194.969Z" fill="#191919"/>
<path d="M47.6695 180.22C47.6695 180.17 47.692 180.116 47.692 180.06C47.6924 179.977 47.669 179.895 47.6246 179.824C47.6283 179.73 47.6003 179.636 47.5453 179.56C47.4902 179.483 47.4111 179.426 47.3205 179.399C47.2299 179.372 47.1328 179.376 47.0446 179.41C46.9564 179.444 46.882 179.507 46.8332 179.588C31.7817 179.243 29.483 179.178 27.3508 179.588C27.1896 179.617 27.0431 179.7 26.9357 179.823C26.8282 179.947 26.7663 180.103 26.7602 180.267C26.7425 180.657 26.7331 181.06 26.7118 181.471C25.535 181.278 24.3273 181.456 23.2566 181.981C19.3514 184.099 20.287 190.486 26.1046 190.625C26.6596 190.63 27.2142 190.6 27.7655 190.536C30.9548 196.076 40.6883 196.483 44.9314 191.873C47.6731 188.815 48.0416 184.321 47.6695 180.22ZM23.4185 188.309C23.0329 187.979 22.7334 187.56 22.5457 187.088C22.3581 186.616 22.2879 186.106 22.3413 185.601C22.3946 185.097 22.5699 184.612 22.852 184.19C23.1341 183.768 23.5146 183.421 23.9607 183.179C24.8121 182.766 25.7262 182.497 26.6657 182.383C26.3711 184.768 26.5787 187.189 27.2752 189.489C25.9039 189.468 24.5666 189.059 23.4185 188.309ZM43.9179 190.928C40.4308 194.683 32.2046 194.549 29.2503 190.204C27.5316 187.66 28.0478 183.943 28.1647 180.88C30.7186 180.517 30.6229 180.959 46.7883 180.535C46.8651 184.052 46.3276 188.368 43.9179 190.928Z" fill="#191919"/>
<path d="M22.627 195.417C22.6494 195.438 22.6955 195.459 22.7179 195.479L23.1904 195.765C24.9139 196.561 28.2509 196.457 30.0417 196.465C31.7616 196.476 45.4854 195.972 47.8786 195.368C48.5977 195.22 49.2717 194.905 49.8454 194.447C49.8932 194.403 49.9251 194.345 49.9363 194.281C49.9587 194.08 49.7768 193.909 49.4839 193.706C48.5292 193.176 47.4561 192.896 46.3642 192.892C46.2399 192.886 46.1228 192.832 46.0383 192.741C45.9538 192.649 45.9088 192.528 45.913 192.404C45.9251 192.282 45.983 192.169 46.075 192.088C46.1671 192.006 46.2864 191.963 46.4091 191.966C47.688 191.879 48.9671 192.133 50.1159 192.702C51.7602 193.686 51.7318 195.445 49.009 196.455C47.0966 197.199 43.7714 197.23 41.0758 197.389C36.9674 197.632 27.3284 198.452 23.4751 197.329C20.939 196.548 20.6921 195.003 21.9832 194.305C22.7906 193.976 23.6321 193.738 24.4922 193.596C25.5866 193.386 26.7053 193.331 27.815 193.434C27.9242 193.442 28.0261 193.492 28.0996 193.573C28.173 193.654 28.2124 193.76 28.2095 193.87C28.2066 193.979 28.1617 194.083 28.084 194.16C28.0064 194.237 27.902 194.281 27.7926 194.284C26.0147 194.333 24.262 194.717 22.627 195.417ZM22.5597 195.445C22.4923 195.479 22.4699 195.513 22.4923 195.542C22.5372 195.564 22.5597 195.507 22.5597 195.445ZM22.5821 195.383C22.5821 195.334 22.5597 195.295 22.5372 195.311C22.4923 195.325 22.5372 195.351 22.5821 195.383Z" fill="#191919"/>
<path d="M35.0591 147.116C33.5282 148.451 32.2892 150.088 31.4197 151.924C29.447 156.391 31.4421 159.553 33.7479 163.618C35.0379 165.892 36.518 168.48 36.166 171.027C35.8883 172.74 34.9668 174.283 33.5897 175.34C33.5105 175.423 33.4644 175.532 33.4599 175.647C33.4554 175.761 33.4928 175.874 33.5652 175.963C33.6376 176.052 33.7399 176.112 33.8531 176.131C33.9663 176.15 34.0826 176.128 34.1803 176.067C42.0403 170.161 34.1378 163.233 32.3954 157.701C32.0706 156.592 31.9869 155.427 32.1499 154.283C32.3129 153.139 32.7188 152.044 33.3404 151.07C35.1123 147.88 36.2215 147.599 35.645 147.094C35.6055 147.056 35.5587 147.026 35.5076 147.007C35.4565 146.988 35.402 146.979 35.3473 146.981C35.2927 146.983 35.239 146.996 35.1895 147.019C35.14 147.042 35.0957 147.075 35.0591 147.116Z" fill="#191919"/>
<path d="M38.9491 162.429C38.9881 162.529 39.3673 163.603 39.4464 163.799C39.9313 164.788 40.3098 165.825 40.5757 166.894C40.8656 168.405 40.9419 169.95 40.8025 171.483C40.7835 171.54 40.7761 171.6 40.7806 171.66C40.785 171.72 40.8014 171.779 40.8286 171.833C40.8558 171.886 40.8935 171.934 40.9393 171.973C40.9851 172.012 41.0381 172.042 41.0955 172.061C41.2147 172.098 41.3437 172.086 41.4544 172.028C41.565 171.97 41.6483 171.871 41.6861 171.752C41.9219 171.271 42.0965 170.762 42.2058 170.237C42.4332 168.148 42.0646 166.037 41.1427 164.149C40.794 163.339 40.2964 162.603 39.6756 161.977C39.6158 161.881 39.5201 161.812 39.4097 161.787C39.2992 161.761 39.1831 161.78 39.0867 161.84C38.9904 161.9 38.9218 161.995 38.896 162.106C38.8702 162.216 38.8893 162.332 38.9491 162.429Z" fill="#191919"/>
<path d="M151.138 172C151.099 171.876 151.026 171.765 150.928 171.679C150.83 171.593 150.71 171.536 150.581 171.514C150.453 171.492 150.321 171.506 150.2 171.554C150.079 171.603 149.973 171.683 149.895 171.787C149.288 172.627 148.623 172.559 148.133 171.941C147.985 171.799 147.874 171.624 147.807 171.431C147.74 171.238 147.721 171.031 147.749 170.829C147.778 170.626 147.854 170.434 147.972 170.266C148.089 170.099 148.245 169.962 148.426 169.867C148.515 169.824 148.589 169.754 148.637 169.668C148.686 169.582 148.707 169.483 148.697 169.385C148.731 169.326 148.75 169.259 148.753 169.191C148.756 169.123 148.742 169.056 148.714 168.994C148.685 168.932 148.641 168.879 148.587 168.837C148.533 168.796 148.47 168.768 148.403 168.756C147.372 168.554 146.305 168.655 145.33 169.047C144.356 169.439 143.515 170.106 142.912 170.965C139.368 175.47 144.743 180.21 149.014 177.54C149.934 176.984 150.642 176.138 151.027 175.135C151.411 174.131 151.451 173.028 151.138 172Z" fill="url(#paint18_linear_1845_13480)"/>
<path d="M154.869 163.038C151.656 162.263 149.162 164.132 148.813 166.7C148.743 166.733 148.682 166.783 148.637 166.846C148.592 166.909 148.563 166.982 148.554 167.059C148.545 167.136 148.555 167.214 148.585 167.286C148.614 167.358 148.662 167.421 148.722 167.469C151.563 170.22 155.364 167.292 155.413 163.739C155.412 163.579 155.358 163.423 155.26 163.296C155.162 163.17 155.024 163.079 154.869 163.038Z" fill="url(#paint19_linear_1845_13480)"/>
<path d="M195.619 89.6063C195.586 89.227 195.648 88.8456 195.798 88.4959C195.893 88.2777 196.033 88.0818 196.208 87.9207C196.383 87.7596 196.59 87.6369 196.816 87.5604C197.429 87.3182 196.784 87.5604 217.293 87.6076C217.501 87.607 217.708 87.6477 217.9 87.7274C218.093 87.8071 218.268 87.9242 218.415 88.0719C218.562 88.2197 218.679 88.3951 218.758 88.5881C218.837 88.7811 218.877 88.9879 218.875 89.1964C218.957 116.572 219.302 114.876 218.559 115.681C218.342 115.898 218.079 116.063 217.789 116.164C217.5 116.265 217.191 116.3 216.886 116.265C216.823 116.262 216.76 116.271 216.701 116.293C216.642 116.315 216.588 116.349 216.543 116.392C216.497 116.435 216.461 116.487 216.436 116.545C216.411 116.603 216.399 116.665 216.399 116.728C216.399 116.791 216.411 116.854 216.436 116.911C216.461 116.969 216.497 117.021 216.543 117.065C216.588 117.108 216.642 117.142 216.701 117.164C216.76 117.186 216.823 117.195 216.886 117.192L217.293 117.203C217.664 117.213 218.035 117.149 218.382 117.014C218.728 116.88 219.045 116.677 219.312 116.418C219.58 116.159 219.793 115.85 219.939 115.508C220.085 115.166 220.161 114.798 220.163 114.426C220.35 104.661 220.226 120.971 220.321 89.1964C220.319 88.395 219.999 87.6272 219.431 87.0618C218.863 86.4963 218.094 86.1794 217.293 86.1807C214.152 86.1878 198.983 86.2988 197.494 86.3342C197.125 86.3405 196.762 86.4198 196.425 86.5675C196.087 86.7152 195.783 86.9284 195.528 87.1947C195.274 87.4611 195.075 87.7752 194.943 88.119C194.811 88.4629 194.748 88.8294 194.759 89.1976V89.6063C194.759 89.7203 194.804 89.8297 194.885 89.9103C194.966 89.991 195.075 90.0363 195.189 90.0363C195.303 90.0363 195.412 89.991 195.493 89.9103C195.574 89.8297 195.619 89.7203 195.619 89.6063Z" fill="#191919"/>
<path d="M197.877 99.974C198.21 100.02 199.089 100.187 199.617 100.239C200.798 100.351 201.945 100.413 203.121 100.539C205.016 100.864 206.94 100.991 208.862 100.92C208.922 100.926 208.983 100.92 209.042 100.902C209.1 100.885 209.154 100.856 209.201 100.817C209.248 100.778 209.287 100.731 209.316 100.677C209.344 100.623 209.362 100.564 209.368 100.504C209.374 100.443 209.368 100.382 209.35 100.324C209.332 100.266 209.303 100.212 209.264 100.165C209.226 100.118 209.178 100.079 209.125 100.05C209.071 100.021 209.012 100.004 208.951 99.9977C208.283 99.8441 207.676 99.6669 207.008 99.57C204.576 99.1963 202.123 98.9691 199.663 98.8896C199.062 98.9172 198.465 98.9962 197.877 99.1259C197.765 99.1259 197.657 99.1706 197.577 99.2501C197.498 99.3296 197.453 99.4375 197.453 99.55C197.453 99.6624 197.498 99.7703 197.577 99.8498C197.657 99.9294 197.765 99.974 197.877 99.974Z" fill="url(#paint20_linear_1845_13480)"/>
<path d="M198.013 105.247C198.383 105.385 198.771 105.47 199.165 105.499C203.22 105.768 202.728 105.666 203.55 105.522C203.612 105.53 203.675 105.525 203.735 105.507C203.796 105.489 203.852 105.46 203.9 105.42C203.949 105.38 203.989 105.331 204.018 105.275C204.047 105.219 204.064 105.158 204.068 105.096C204.073 105.033 204.065 104.97 204.045 104.911C204.024 104.851 203.992 104.797 203.95 104.75C203.908 104.704 203.857 104.666 203.8 104.64C203.743 104.613 203.681 104.599 203.618 104.597C203.393 104.518 203.188 104.431 202.94 104.361C202.059 104.211 201.167 104.132 200.273 104.125C199.501 104.009 198.713 104.105 197.991 104.401C197.884 104.412 197.785 104.462 197.714 104.542C197.643 104.623 197.605 104.727 197.608 104.835C197.61 104.942 197.654 105.044 197.729 105.121C197.804 105.197 197.906 105.242 198.013 105.247Z" fill="url(#paint21_linear_1845_13480)"/>
<path d="M197.221 110.711C197.519 110.711 198.474 110.724 198.984 110.702C199.467 110.682 200.907 110.54 203.075 110.522C204.453 110.511 205.832 110.611 207.166 110.635C207.775 110.645 208.363 110.602 208.95 110.603C209.011 110.609 209.072 110.603 209.13 110.585C209.188 110.568 209.242 110.539 209.289 110.5C209.336 110.462 209.375 110.414 209.404 110.361C209.432 110.307 209.45 110.249 209.456 110.188C209.462 110.128 209.456 110.067 209.438 110.009C209.421 109.95 209.392 109.896 209.353 109.849C209.315 109.803 209.267 109.764 209.214 109.735C209.16 109.706 209.102 109.689 209.041 109.683C207.09 109.166 205.067 108.967 203.052 109.092C201.023 108.953 198.987 109.22 197.062 109.877C196.957 109.904 196.867 109.97 196.809 110.061C196.751 110.153 196.729 110.263 196.75 110.369C196.77 110.475 196.83 110.57 196.917 110.633C197.005 110.697 197.113 110.725 197.221 110.711Z" fill="url(#paint22_linear_1845_13480)"/>
<path d="M196.663 115.262C196.994 115.352 197.336 115.394 197.68 115.388C198.222 115.373 198.764 115.332 199.306 115.322C199.849 115.311 200.392 115.362 200.934 115.315C201.227 115.289 201.476 115.204 201.77 115.152C201.893 115.159 202.013 115.118 202.106 115.038C202.199 114.958 202.257 114.845 202.268 114.723C202.274 114.601 202.233 114.481 202.153 114.388C202.073 114.295 201.96 114.238 201.838 114.227C201.581 114.123 201.317 114.038 201.047 113.973C199.981 113.852 198.904 113.852 197.837 113.973C197.36 113.999 196.899 114.155 196.504 114.424C196.397 114.448 196.302 114.514 196.242 114.606C196.181 114.698 196.159 114.811 196.179 114.919C196.2 115.028 196.262 115.124 196.352 115.188C196.442 115.252 196.553 115.278 196.663 115.262Z" fill="url(#paint23_linear_1845_13480)"/>
<path d="M181.88 122.481H160.007C159.466 122.489 158.95 122.71 158.57 123.095C158.19 123.48 157.977 124 157.977 124.541C157.977 125.669 158.148 134.557 158.182 136.165C158.192 136.641 158.389 137.094 158.731 137.425C159.072 137.757 159.531 137.941 160.007 137.936C160.007 138.055 181.759 138.216 181.88 138.218C182.426 138.215 182.949 137.997 183.335 137.612C183.722 137.226 183.941 136.704 183.945 136.159V124.535C183.942 123.989 183.724 123.467 183.337 123.082C182.95 122.697 182.426 122.481 181.88 122.481ZM165.128 131.695C164.973 132.016 164.778 132.316 164.548 132.589C164.055 133.158 162.268 134.942 161.831 135.283C161.574 135.47 161.3 135.63 161.011 135.762C160.929 135.841 160.819 135.886 160.704 135.886C160.589 135.886 160.479 135.841 160.397 135.762C160.323 135.679 160.282 135.572 160.282 135.462C160.282 135.351 160.323 135.244 160.397 135.162C160.529 134.871 160.689 134.594 160.875 134.335C161.175 133.971 162.971 132.145 163.571 131.618C163.852 131.395 164.155 131.201 164.475 131.038C164.561 130.952 164.677 130.904 164.799 130.904C164.92 130.904 165.037 130.952 165.123 131.038C165.168 131.08 165.203 131.131 165.227 131.187C165.252 131.243 165.265 131.304 165.265 131.365C165.266 131.427 165.254 131.487 165.23 131.544C165.206 131.601 165.172 131.652 165.128 131.695ZM170.571 131.981C167.081 130.061 163.713 127.926 160.488 125.589C160.391 125.53 160.322 125.435 160.295 125.325C160.268 125.216 160.286 125.1 160.345 125.003C160.404 124.906 160.498 124.837 160.608 124.81C160.718 124.783 160.834 124.801 160.931 124.86C164.371 126.565 167.714 128.458 170.947 130.53C173.884 128.727 177.979 126.265 180.945 124.829C181.05 124.774 181.172 124.761 181.286 124.794C181.4 124.826 181.497 124.901 181.558 125.003C181.619 125.105 181.638 125.226 181.612 125.342C181.585 125.457 181.516 125.558 181.417 125.624C178.663 127.632 174.274 130.278 171.316 131.983C171.204 132.051 171.074 132.087 170.943 132.087C170.811 132.087 170.682 132.052 170.569 131.984L170.571 131.981ZM181.508 135.789C181.466 135.832 181.415 135.865 181.359 135.888C181.304 135.911 181.244 135.923 181.184 135.923C181.124 135.923 181.064 135.911 181.008 135.888C180.953 135.865 180.902 135.832 180.86 135.789C179.856 135.183 178.962 134.412 178.215 133.509C177.612 133.003 177.124 132.375 176.782 131.666C176.708 131.584 176.667 131.477 176.667 131.366C176.667 131.256 176.708 131.149 176.782 131.066C176.864 130.987 176.975 130.942 177.089 130.942C177.204 130.942 177.314 130.987 177.396 131.066C178.801 132.022 180.059 133.176 181.133 134.492C181.271 134.699 181.397 134.914 181.508 135.137C181.552 135.18 181.587 135.231 181.61 135.287C181.634 135.343 181.646 135.404 181.646 135.465C181.645 135.526 181.633 135.587 181.609 135.643C181.585 135.699 181.55 135.75 181.506 135.792L181.508 135.789Z" fill="url(#paint24_linear_1845_13480)"/>
<path d="M90.3764 93.4524C88.399 87.1333 88.1239 80.4043 89.5791 73.9449C91.0342 67.4854 94.1681 61.5243 98.6641 56.6636C101.922 53.136 105.844 50.2849 110.204 48.2732C114.564 46.2615 119.278 45.1286 124.077 44.9393C128.875 44.75 133.664 45.5079 138.169 47.1697C142.674 48.8316 146.808 51.3648 150.334 54.6247C169.764 72.5502 163.988 103.914 141.372 114.987C141.261 115.036 141.16 115.107 141.077 115.196C140.994 115.285 140.929 115.389 140.886 115.503C140.844 115.618 140.825 115.739 140.831 115.861C140.836 115.983 140.866 116.102 140.919 116.212C140.971 116.322 141.045 116.42 141.136 116.501C141.227 116.582 141.334 116.643 141.449 116.682C141.565 116.721 141.687 116.737 141.808 116.728C141.93 116.719 142.048 116.685 142.157 116.63C148.009 113.97 153.11 109.899 157.002 104.782C160.894 99.6656 163.455 93.6628 164.456 87.3124C165.456 80.962 164.865 74.4625 162.735 68.3969C160.605 62.3313 157.003 56.8892 152.251 52.5587C148.455 49.0493 144.005 46.3227 139.154 44.5346C134.303 42.7466 129.148 41.9322 123.982 42.1382C118.817 42.3441 113.742 43.5662 109.049 45.7347C104.356 47.9032 100.137 50.9755 96.6323 54.7759C91.8294 59.9501 88.5537 66.3536 87.1685 73.2761C85.7834 80.1987 86.343 87.3696 88.7853 93.9934C88.8576 94.2033 89.0099 94.3761 89.2091 94.4741C89.4082 94.5721 89.638 94.5874 89.8484 94.5167C89.954 94.483 90.0518 94.4285 90.1359 94.3563C90.2199 94.2841 90.2886 94.1957 90.3379 94.0964C90.3872 93.9971 90.416 93.889 90.4226 93.7783C90.4292 93.6677 90.4135 93.5569 90.3764 93.4524Z" fill="url(#paint25_linear_1845_13480)"/>
<path d="M124.429 54.7952C123.998 62.0207 123.983 69.2651 124.384 76.4924C124.39 76.6082 124.44 76.7174 124.524 76.7973C124.608 76.8771 124.72 76.9217 124.836 76.9217C124.952 76.9217 125.063 76.8771 125.147 76.7973C125.232 76.7174 125.282 76.6082 125.288 76.4924C125.693 69.2652 125.678 62.0206 125.243 54.7952C125.246 54.7399 125.237 54.6846 125.218 54.6326C125.199 54.5807 125.17 54.5331 125.132 54.4929C125.094 54.4528 125.048 54.4207 124.997 54.3989C124.946 54.377 124.891 54.3657 124.836 54.3657C124.78 54.3657 124.726 54.377 124.675 54.3989C124.624 54.4207 124.578 54.4528 124.54 54.4929C124.502 54.5331 124.472 54.5807 124.453 54.6326C124.434 54.6846 124.426 54.7399 124.429 54.7952Z" fill="#191919"/>
<path d="M135.337 79.9557C136.951 79.0107 140.692 76.9352 139.88 75.5851C139.019 74.1593 135.309 76.6813 133.89 77.553C133.107 78.0362 130.167 79.7513 130.908 80.9787C131.648 82.206 134.873 80.2286 135.337 79.9557Z" fill="#191919"/>
<path d="M112.616 100.363C112.927 100.804 113.341 101.145 113.769 101.31C114.197 101.476 114.602 101.452 114.896 101.245C115.19 101.038 115.349 100.664 115.337 100.205C115.325 99.7471 115.144 99.2419 114.833 98.801C114.522 98.36 114.107 98.0194 113.68 97.8541C113.252 97.6888 112.847 97.7123 112.553 97.9195C112.259 98.1267 112.1 98.5006 112.112 98.9589C112.124 99.4172 112.305 99.9224 112.616 100.363Z" fill="#191919"/>
<path d="M119.263 102.343C119.358 102.69 119.656 102.966 120.091 103.11C120.526 103.255 121.063 103.256 121.583 103.113C122.103 102.97 122.565 102.696 122.865 102.35C123.166 102.004 123.282 101.614 123.186 101.267C123.091 100.921 122.794 100.645 122.358 100.5C121.923 100.356 121.387 100.355 120.866 100.497C120.346 100.64 119.885 100.915 119.584 101.261C119.283 101.607 119.168 101.996 119.263 102.343Z" fill="#191919"/>
<path d="M143.483 146.532C143.615 146.943 143.789 147.339 144.003 147.714C144.368 148.313 146.196 150.969 147.008 151.966C147.324 152.331 147.664 152.674 148.025 152.995C148.059 153.044 148.103 153.086 148.153 153.118C148.204 153.15 148.26 153.171 148.319 153.181C148.378 153.191 148.438 153.189 148.496 153.176C148.555 153.162 148.61 153.137 148.658 153.103C148.755 153.031 148.822 152.926 148.844 152.807C148.866 152.689 148.842 152.566 148.776 152.465C148.573 152.069 148.441 151.705 148.256 151.38C147.81 150.601 145.268 147.151 145.047 146.883C144.768 146.592 144.474 146.316 144.166 146.056C144.135 146.012 144.095 145.973 144.049 145.944C144.003 145.914 143.951 145.894 143.897 145.885C143.789 145.865 143.677 145.89 143.586 145.953C143.496 146.016 143.434 146.113 143.415 146.221C143.395 146.33 143.42 146.442 143.483 146.532Z" fill="#191919"/>
<path d="M81.2105 163.788C81.0335 163.947 80.8814 164.131 80.7593 164.336C80.3901 165.176 80.0745 166.039 79.8143 166.919C79.7577 167.175 79.7426 167.438 79.7694 167.699C79.732 167.811 79.7398 167.934 79.7912 168.041C79.8426 168.148 79.9335 168.231 80.0449 168.273C80.1562 168.314 80.2792 168.311 80.388 168.263C80.4968 168.215 80.5829 168.127 80.6282 168.018C80.7753 167.854 80.9111 167.681 81.0345 167.499C81.2553 167.062 81.4367 166.605 81.5767 166.136C82.2087 164.437 82.0067 164.685 82.0067 164.063C82.0432 163.957 82.0363 163.841 81.9874 163.741C81.9386 163.641 81.8518 163.564 81.7462 163.527C81.6407 163.491 81.5249 163.498 81.4244 163.546C81.324 163.595 81.247 163.682 81.2105 163.788Z" fill="#191919"/>
<path d="M138.506 101.407C137.625 98.0676 135.567 90.0469 131.906 84.6545C129.262 80.7564 125.804 78.2403 121.465 79.4027C114.187 76.9729 106.864 80.1114 101.304 85.5913C89.9142 96.8131 88.3195 114.468 98.2751 118.02C99.3264 118.449 100.468 118.608 101.597 118.482C101.529 118.763 101.463 119.043 101.395 119.323C101.377 119.381 101.372 119.442 101.378 119.502C101.384 119.562 101.402 119.62 101.43 119.673C101.488 119.781 101.586 119.861 101.703 119.896C101.82 119.931 101.946 119.918 102.053 119.86C102.161 119.803 102.241 119.704 102.276 119.588C104.124 114.387 105.575 109.054 106.616 103.634C106.657 103.453 106.626 103.263 106.528 103.105C106.431 102.947 106.276 102.834 106.096 102.789C105.318 102.611 104.571 102.315 103.881 101.911C102.046 100.754 101.991 98.9453 102.936 98.1373C106.423 97.3778 107.501 100.173 115.812 94.2687C116.103 94.6763 116.882 95.4311 117.326 95.1417C117.563 94.9893 117.742 94.3597 117.146 93.6344C117.088 93.56 117.027 93.4879 116.966 93.4206C119.327 91.6891 121.421 89.6194 123.179 87.2781C124.18 90.4479 124.702 93.7492 124.729 97.073C123.566 104.878 118.313 117.965 110.343 117.702C110.191 117.694 110.042 117.741 109.922 117.833C109.801 117.926 109.718 118.058 109.687 118.207C109.46 119.601 109.244 120.971 108.896 122.341C108.877 122.399 108.871 122.46 108.876 122.52C108.881 122.581 108.899 122.64 108.927 122.693C108.955 122.747 108.993 122.795 109.039 122.834C109.086 122.873 109.14 122.902 109.198 122.921C109.255 122.939 109.316 122.945 109.377 122.94C109.437 122.935 109.496 122.918 109.55 122.89C109.604 122.862 109.651 122.823 109.69 122.777C109.729 122.73 109.759 122.677 109.777 122.619C109.876 122.323 109.764 122.542 110.162 122.587C115.386 123.157 126.14 125.259 131.452 123.454C139.596 120.676 140.702 109.751 138.506 101.407ZM104.108 88.4133C102.176 90.3416 100.472 92.485 99.0287 94.8015C98.0627 96.4351 97.3397 98.2007 96.8824 100.043C96.6473 100.823 96.4588 101.616 96.3178 102.418C96.3097 102.527 96.2597 102.628 96.1783 102.7C96.097 102.773 95.9906 102.811 95.8819 102.806C95.7731 102.801 95.6703 102.755 95.5954 102.676C95.5204 102.597 95.4792 102.492 95.4803 102.383C95.4148 101.506 95.4545 100.624 95.5984 99.7568C96.0071 97.7563 96.7563 95.8409 97.8132 94.0939C99.1713 91.5227 101.143 89.3267 103.554 87.701C103.6 87.6634 103.653 87.6352 103.709 87.6182C103.766 87.6012 103.826 87.5957 103.885 87.602C103.944 87.6082 104.001 87.6262 104.053 87.6547C104.105 87.6833 104.15 87.7219 104.187 87.7683C104.225 87.8156 104.254 87.87 104.27 87.9284C104.287 87.9867 104.292 88.0479 104.284 88.1081C104.277 88.1684 104.258 88.2265 104.227 88.2792C104.197 88.3318 104.156 88.3766 104.108 88.4133ZM109.713 84.3427C109.123 84.7998 107.536 86.1807 107.047 85.648C106.715 85.2936 107.401 84.4336 107.861 84.0249C108.607 83.3599 111.177 81.3801 111.635 82.2637C112.024 82.8921 110.304 83.9092 109.713 84.3427Z" fill="#191919"/>
<defs>
<linearGradient id="paint0_linear_1845_13480" x1="100.449" y1="109.951" x2="115.024" y2="110.013" gradientUnits="userSpaceOnUse">
<stop stop-color="#CADBC9"/>
<stop offset="0.317308" stop-color="#D29E51"/>
<stop offset="0.521158" stop-color="#D3CF99"/>
<stop offset="0.723031" stop-color="#DBC269"/>
<stop offset="1" stop-color="#C87A39"/>
</linearGradient>
<linearGradient id="paint1_linear_1845_13480" x1="-53.1553" y1="142.077" x2="146.887" y2="143.662" gradientUnits="userSpaceOnUse">
<stop stop-color="#CADBC9"/>
<stop offset="0.317308" stop-color="#D29E51"/>
<stop offset="0.521158" stop-color="#D3CF99"/>
<stop offset="0.723031" stop-color="#DBC269"/>
<stop offset="1" stop-color="#C87A39"/>
</linearGradient>
<linearGradient id="paint2_linear_1845_13480" x1="122.889" y1="148.122" x2="130.396" y2="148.131" gradientUnits="userSpaceOnUse">
<stop stop-color="#CADBC9"/>
<stop offset="0.317308" stop-color="#D29E51"/>
<stop offset="0.521158" stop-color="#D3CF99"/>
<stop offset="0.723031" stop-color="#DBC269"/>
<stop offset="1" stop-color="#C87A39"/>
</linearGradient>
<linearGradient id="paint3_linear_1845_13480" x1="70.8152" y1="154.825" x2="90.3364" y2="154.865" gradientUnits="userSpaceOnUse">
<stop stop-color="#CADBC9"/>
<stop offset="0.317308" stop-color="#D29E51"/>
<stop offset="0.521158" stop-color="#D3CF99"/>
<stop offset="0.723031" stop-color="#DBC269"/>
<stop offset="1" stop-color="#C87A39"/>
</linearGradient>
<linearGradient id="paint4_linear_1845_13480" x1="5.24431" y1="85.3989" x2="37.3147" y2="85.5202" gradientUnits="userSpaceOnUse">
<stop stop-color="#CADBC9"/>
<stop offset="0.317308" stop-color="#D29E51"/>
<stop offset="0.521158" stop-color="#D3CF99"/>
<stop offset="0.723031" stop-color="#DBC269"/>
<stop offset="1" stop-color="#C87A39"/>
</linearGradient>
<linearGradient id="paint5_linear_1845_13480" x1="6.7612" y1="66.968" x2="36.3291" y2="67.0918" gradientUnits="userSpaceOnUse">
<stop stop-color="#CADBC9"/>
<stop offset="0.317308" stop-color="#D29E51"/>
<stop offset="0.521158" stop-color="#D3CF99"/>
<stop offset="0.723031" stop-color="#DBC269"/>
<stop offset="1" stop-color="#C87A39"/>
</linearGradient>
<linearGradient id="paint6_linear_1845_13480" x1="8.71748" y1="65.3254" x2="64.7778" y2="69.0199" gradientUnits="userSpaceOnUse">
<stop stop-color="#CADBC9"/>
<stop offset="0.317308" stop-color="#D29E51"/>
<stop offset="0.521158" stop-color="#D3CF99"/>
<stop offset="0.723031" stop-color="#DBC269"/>
<stop offset="1" stop-color="#C87A39"/>
</linearGradient>
<linearGradient id="paint7_linear_1845_13480" x1="29.4929" y1="72.0079" x2="46.7665" y2="72.3553" gradientUnits="userSpaceOnUse">
<stop stop-color="#CADBC9"/>
<stop offset="0.317308" stop-color="#D29E51"/>
<stop offset="0.521158" stop-color="#D3CF99"/>
<stop offset="0.723031" stop-color="#DBC269"/>
<stop offset="1" stop-color="#C87A39"/>
</linearGradient>
<linearGradient id="paint8_linear_1845_13480" x1="13.2882" y1="83.299" x2="61.1619" y2="85.1284" gradientUnits="userSpaceOnUse">
<stop stop-color="#CADBC9"/>
<stop offset="0.317308" stop-color="#D29E51"/>
<stop offset="0.521158" stop-color="#D3CF99"/>
<stop offset="0.723031" stop-color="#DBC269"/>
<stop offset="1" stop-color="#C87A39"/>
</linearGradient>
<linearGradient id="paint9_linear_1845_13480" x1="29.6459" y1="92.8186" x2="45.9941" y2="93.1097" gradientUnits="userSpaceOnUse">
<stop stop-color="#CADBC9"/>
<stop offset="0.317308" stop-color="#D29E51"/>
<stop offset="0.521158" stop-color="#D3CF99"/>
<stop offset="0.723031" stop-color="#DBC269"/>
<stop offset="1" stop-color="#C87A39"/>
</linearGradient>
<linearGradient id="paint10_linear_1845_13480" x1="13.3878" y1="118.654" x2="35.8192" y2="118.751" gradientUnits="userSpaceOnUse">
<stop stop-color="#CADBC9"/>
<stop offset="0.317308" stop-color="#D29E51"/>
<stop offset="0.521158" stop-color="#D3CF99"/>
<stop offset="0.723031" stop-color="#DBC269"/>
<stop offset="1" stop-color="#C87A39"/>
</linearGradient>
<linearGradient id="paint11_linear_1845_13480" x1="5.41632" y1="129.939" x2="19.3974" y2="129.991" gradientUnits="userSpaceOnUse">
<stop stop-color="#CADBC9"/>
<stop offset="0.317308" stop-color="#D29E51"/>
<stop offset="0.521158" stop-color="#D3CF99"/>
<stop offset="0.723031" stop-color="#DBC269"/>
<stop offset="1" stop-color="#C87A39"/>
</linearGradient>
<linearGradient id="paint12_linear_1845_13480" x1="-0.140104" y1="119.964" x2="14.8441" y2="120.212" gradientUnits="userSpaceOnUse">
<stop stop-color="#CADBC9"/>
<stop offset="0.317308" stop-color="#D29E51"/>
<stop offset="0.521158" stop-color="#D3CF99"/>
<stop offset="0.723031" stop-color="#DBC269"/>
<stop offset="1" stop-color="#C87A39"/>
</linearGradient>
<linearGradient id="paint13_linear_1845_13480" x1="5.17232" y1="106.489" x2="18.0012" y2="106.543" gradientUnits="userSpaceOnUse">
<stop stop-color="#CADBC9"/>
<stop offset="0.317308" stop-color="#D29E51"/>
<stop offset="0.521158" stop-color="#D3CF99"/>
<stop offset="0.723031" stop-color="#DBC269"/>
<stop offset="1" stop-color="#C87A39"/>
</linearGradient>
<linearGradient id="paint14_linear_1845_13480" x1="23.885" y1="101.933" x2="27.8847" y2="101.941" gradientUnits="userSpaceOnUse">
<stop stop-color="#CADBC9"/>
<stop offset="0.317308" stop-color="#D29E51"/>
<stop offset="0.521158" stop-color="#D3CF99"/>
<stop offset="0.723031" stop-color="#DBC269"/>
<stop offset="1" stop-color="#C87A39"/>
</linearGradient>
<linearGradient id="paint15_linear_1845_13480" x1="32.4576" y1="103.862" x2="45.0048" y2="103.906" gradientUnits="userSpaceOnUse">
<stop stop-color="#CADBC9"/>
<stop offset="0.317308" stop-color="#D29E51"/>
<stop offset="0.521158" stop-color="#D3CF99"/>
<stop offset="0.723031" stop-color="#DBC269"/>
<stop offset="1" stop-color="#C87A39"/>
</linearGradient>
<linearGradient id="paint16_linear_1845_13480" x1="156.78" y1="162.545" x2="195.407" y2="162.829" gradientUnits="userSpaceOnUse">
<stop stop-color="#CADBC9"/>
<stop offset="0.317308" stop-color="#D29E51"/>
<stop offset="0.521158" stop-color="#D3CF99"/>
<stop offset="0.723031" stop-color="#DBC269"/>
<stop offset="1" stop-color="#C87A39"/>
</linearGradient>
<linearGradient id="paint17_linear_1845_13480" x1="139.617" y1="182.275" x2="201.906" y2="183.573" gradientUnits="userSpaceOnUse">
<stop stop-color="#CADBC9"/>
<stop offset="0.317308" stop-color="#D29E51"/>
<stop offset="0.521158" stop-color="#D3CF99"/>
<stop offset="0.723031" stop-color="#DBC269"/>
<stop offset="1" stop-color="#C87A39"/>
</linearGradient>
<linearGradient id="paint18_linear_1845_13480" x1="130.836" y1="173.286" x2="151.551" y2="173.374" gradientUnits="userSpaceOnUse">
<stop stop-color="#CADBC9"/>
<stop offset="0.317308" stop-color="#D29E51"/>
<stop offset="0.521158" stop-color="#D3CF99"/>
<stop offset="0.723031" stop-color="#DBC269"/>
<stop offset="1" stop-color="#C87A39"/>
</linearGradient>
<linearGradient id="paint19_linear_1845_13480" x1="140.732" y1="165.592" x2="155.559" y2="165.668" gradientUnits="userSpaceOnUse">
<stop stop-color="#CADBC9"/>
<stop offset="0.317308" stop-color="#D29E51"/>
<stop offset="0.521158" stop-color="#D3CF99"/>
<stop offset="0.723031" stop-color="#DBC269"/>
<stop offset="1" stop-color="#C87A39"/>
</linearGradient>
<linearGradient id="paint20_linear_1845_13480" x1="183.874" y1="99.8724" x2="209.609" y2="100.512" gradientUnits="userSpaceOnUse">
<stop stop-color="#CADBC9"/>
<stop offset="0.317308" stop-color="#D29E51"/>
<stop offset="0.521158" stop-color="#D3CF99"/>
<stop offset="0.723031" stop-color="#DBC269"/>
<stop offset="1" stop-color="#C87A39"/>
</linearGradient>
<linearGradient id="paint21_linear_1845_13480" x1="190.244" y1="104.839" x2="204.204" y2="105.082" gradientUnits="userSpaceOnUse">
<stop stop-color="#CADBC9"/>
<stop offset="0.317308" stop-color="#D29E51"/>
<stop offset="0.521158" stop-color="#D3CF99"/>
<stop offset="0.723031" stop-color="#DBC269"/>
<stop offset="1" stop-color="#C87A39"/>
</linearGradient>
<linearGradient id="paint22_linear_1845_13480" x1="182.253" y1="109.851" x2="209.7" y2="110.75" gradientUnits="userSpaceOnUse">
<stop stop-color="#CADBC9"/>
<stop offset="0.317308" stop-color="#D29E51"/>
<stop offset="0.521158" stop-color="#D3CF99"/>
<stop offset="0.723031" stop-color="#DBC269"/>
<stop offset="1" stop-color="#C87A39"/>
</linearGradient>
<linearGradient id="paint23_linear_1845_13480" x1="189.225" y1="114.605" x2="202.395" y2="114.832" gradientUnits="userSpaceOnUse">
<stop stop-color="#CADBC9"/>
<stop offset="0.317308" stop-color="#D29E51"/>
<stop offset="0.521158" stop-color="#D3CF99"/>
<stop offset="0.723031" stop-color="#DBC269"/>
<stop offset="1" stop-color="#C87A39"/>
</linearGradient>
<linearGradient id="paint24_linear_1845_13480" x1="128.386" y1="130.026" x2="184.497" y2="130.422" gradientUnits="userSpaceOnUse">
<stop stop-color="#CADBC9"/>
<stop offset="0.317308" stop-color="#D29E51"/>
<stop offset="0.521158" stop-color="#D3CF99"/>
<stop offset="0.723031" stop-color="#DBC269"/>
<stop offset="1" stop-color="#C87A39"/>
</linearGradient>
<linearGradient id="paint25_linear_1845_13480" x1="-3.0263" y1="77.8875" x2="166.602" y2="78.6497" gradientUnits="userSpaceOnUse">
<stop stop-color="#CADBC9"/>
<stop offset="0.317308" stop-color="#D29E51"/>
<stop offset="0.521158" stop-color="#D3CF99"/>
<stop offset="0.723031" stop-color="#DBC269"/>
<stop offset="1" stop-color="#C87A39"/>
</linearGradient>
</defs>
</svg>
