<svg width="240" height="240" viewBox="0 0 240 240" fill="none" xmlns="http://www.w3.org/2000/svg">
<path d="M67.8177 54.408C67.8884 55.5595 66.2726 59.4628 60.2688 44.172C59.6089 42.4914 59.9341 41.0339 61.4132 41.8387C63.4777 42.9627 67.8788 53.4687 67.8177 54.408Z" fill="url(#paint0_linear_1845_13540)"/>
<path d="M93.0382 47.322C92.3016 49.5352 89.9373 49.5029 90.4434 46.2461C92.9098 30.3673 98.988 29.4317 93.0382 47.322Z" fill="url(#paint1_linear_1845_13540)"/>
<path d="M34.7714 62.5022C36.5096 62.7049 39.2266 63.8888 43.1049 65.5635C46.0054 66.8158 45.1417 69.2053 43.2692 68.5048C40.3074 67.3976 37.2761 66.4571 34.4763 64.9493C32.5223 63.8972 32.3158 62.4494 34.7714 62.5022Z" fill="url(#paint2_linear_1845_13540)"/>
<path fill-rule="evenodd" clip-rule="evenodd" d="M34.3875 89.1014C10.2831 103.116 7.08711 105.084 7.31768 106.489C7.35402 106.711 7.47569 106.918 7.61392 107.157L64.237 203.685C65.0618 205.083 65.406 205.734 65.883 205.854C66.3595 205.972 66.9683 205.563 68.3204 204.844C76.5026 200.489 84.6057 195.987 92.68 191.436C111.059 181.078 122.852 174.608 130.369 170.483C132.351 169.396 134.036 168.471 135.466 167.682C132.588 168.692 129.36 169.829 125.744 171.113C125.744 171.113 125.663 171.142 125.513 171.196C125.035 171.367 123.833 171.797 122.074 172.424C109.508 179.392 94.1832 187.904 88.9972 190.785C87.8339 191.43 87.1836 191.791 87.1836 191.791C69.5814 201.442 67.1241 203.738 66.1966 203.231C66.0125 203.132 65.8887 202.921 65.7185 202.634C65.6969 202.597 9.58721 107.312 9.604 107.341C9.14423 106.563 9.29637 106.475 14.0345 103.747C15.3913 102.965 17.1242 101.967 19.3264 100.675C19.3264 100.675 26.108 96.7279 35.2605 91.3842L34.3875 89.1014Z" fill="#191919"/>
<path d="M97.1129 76.6079C97.1008 77.6011 97.3996 77.2688 84.8593 82.3346C77.4508 85.3276 59.4141 92.5753 51.8701 95.2143C50.325 95.7553 50.5864 95.4699 46.953 86.4971C46.3783 85.0792 46.5344 84.8428 47.9918 84.2527C57.7504 80.3001 79.0222 71.5038 91.3561 67.0869C92.9744 66.5075 93.0763 66.6046 93.7086 68.1965C95.3411 72.3038 96.284 74.2411 97.1129 76.6079ZM91.6105 68.8047C88.6499 69.8448 84.5342 71.9343 48.9347 85.6286C47.9366 86.0125 48.4225 85.793 51.2331 92.9112C51.6026 93.848 51.8005 93.4234 53.9297 92.5718C97.0961 75.3052 95.2751 76.765 94.9057 75.9097C91.8036 68.7159 92.0484 68.6512 91.6105 68.8047Z" fill="#191919"/>
<path d="M56.1753 104.792C55.116 104.707 55.1677 103.824 55.9677 103.443C59.4981 101.76 57.5056 102.541 77.8947 94.2074C94.5686 87.3926 94.3071 87.1875 94.8997 88.3162C95.5811 89.6154 94.2435 89.6766 74.0656 97.8432C62.9985 102.322 58.2445 104.401 56.1753 104.792Z" fill="#191919"/>
<path d="M61.9122 117.087C60.655 117.132 60.553 115.921 61.3567 115.488C62.4987 114.874 61.3556 115.331 91.7129 103.785C95.0706 102.508 95.8742 102.225 96.2006 103.198C96.54 104.211 96.0818 104.309 85.769 108.226C85.0721 108.491 62.6571 117.06 61.9122 117.087Z" fill="#191919"/>
<path d="M79.0174 167.388C77.8383 167.296 77.8538 166.501 78.6551 166.08C82.1591 164.242 94.1956 160.118 98.2669 158.766C101.467 157.702 102.164 157.556 102.446 158.408C102.819 159.541 102.124 159.741 89.6552 164.084C87.1265 164.964 81.6385 166.84 79.0174 167.388Z" fill="#191919"/>
<path d="M59.3769 110.593C58.2157 110.671 58.0526 109.745 58.6164 109.322C59.3577 108.765 58.5935 109.148 75.8781 102.081C76.6194 101.778 77.3596 101.538 77.6931 102.343C78.1597 103.473 76.6903 103.739 74.6366 104.568C59.4273 110.706 61.277 110.007 59.3769 110.593Z" fill="#191919"/>
<path d="M82.3703 172.716C80.9452 172.679 80.8708 171.435 81.9564 170.993C85.8345 169.412 87.5679 168.878 93.1459 166.99C94.5782 166.505 95.2296 168.093 93.6941 168.713C91.1834 169.728 84.2943 172.274 82.3703 172.716Z" fill="#191919"/>
<path fill-rule="evenodd" clip-rule="evenodd" d="M108.509 135.571C106.794 138.33 105.803 141.583 105.803 145.064C105.803 155.01 113.895 163.098 123.837 163.098C133.783 163.098 141.871 155.01 141.871 145.064C141.871 143.254 141.604 141.505 141.105 139.856C140.601 140.117 140.078 140.362 139.536 140.59C139.942 142.012 140.16 143.514 140.16 145.067C140.16 154.068 132.839 161.389 123.837 161.389C114.836 161.389 107.515 154.068 107.515 145.067C107.515 141.986 108.372 139.102 109.862 136.641C109.398 136.296 108.946 135.939 108.509 135.571Z" fill="url(#paint3_linear_1845_13540)"/>
<path fill-rule="evenodd" clip-rule="evenodd" d="M157.045 157.348L147.983 133.883C147.587 134.46 147.152 135.018 146.681 135.553C149.165 141.99 151.843 148.909 154.727 156.349C154.936 156.891 154.839 157.023 154.321 157.194C152.451 157.812 114.022 171.484 101.239 176.031L101.225 176.036C98.6678 176.945 97.141 177.489 97.145 177.487C88.6569 180.455 83.407 182.468 80.1231 183.727C76.0787 185.279 75.0164 185.686 74.5601 185.325C74.3976 185.197 74.3118 184.971 74.1955 184.665L74.1912 184.655C74.1768 184.615 34.4843 81.4042 34.4964 81.4366C34.1856 80.637 34.3337 80.5812 38.7312 78.9264C40.2908 78.3396 42.3847 77.5517 45.1821 76.4584L45.4181 76.3688C49.3572 74.8764 101.419 55.1498 113.037 50.4325C113.061 50.4225 113.085 50.4124 113.108 50.4025C113.209 50.3599 113.299 50.3218 113.39 50.3181C113.757 50.3031 114.147 50.8432 115.384 53.8629C115.805 53.4462 116.232 53.0897 116.663 52.7868L115.153 48.8767L115.133 48.8399C115.003 48.5923 114.895 48.389 114.732 48.2508C113.983 47.6152 112.064 48.359 101.314 52.5243C96.608 54.348 90.2088 56.8276 81.4738 60.1346C76.5893 61.984 72.1843 63.649 68.2126 65.1504C36.4088 77.1721 32.3886 78.6917 32.3848 80.2216C32.3842 80.4428 32.4678 80.6644 32.5634 80.918L32.5675 80.9292L72.5598 185.451C72.6092 185.58 72.656 185.702 72.7007 185.818C73.1841 187.081 73.4137 187.681 73.8264 187.861C74.1997 188.024 74.7229 187.843 75.7193 187.498C75.9247 187.427 76.1501 187.349 76.3984 187.266C85.1853 184.318 93.9169 181.206 102.632 178.043C122.521 170.822 135.231 166.373 143.322 163.542C155.148 159.403 157.102 158.719 157.166 157.888C157.18 157.723 157.119 157.552 157.045 157.348Z" fill="#191919"/>
<path fill-rule="evenodd" clip-rule="evenodd" d="M112.569 137.041C93.6516 124.99 100.779 102.083 118.75 99.7407C119.538 100.33 120.392 100.937 121.322 101.573C119.377 101.644 117.435 101.993 115.538 102.666C94.9136 109.98 102.119 135.373 123.536 138.92C123.286 139.62 123.049 140.299 122.827 140.952C119.187 140.305 115.65 139.004 112.569 137.041ZM133.594 140.971C142.457 139.37 149.76 133.655 149.801 123.988C149.803 123.553 149.789 123.119 149.76 122.688C149.027 122.316 148.325 121.942 147.651 121.563C148.968 128.151 145.999 134.68 135.936 138.172C135.345 138.377 134.715 138.54 134.065 138.671C133.907 139.443 133.749 140.211 133.594 140.971ZM134.831 134.911C140.544 133.1 144.892 128.852 144.921 122.255C144.925 121.419 144.855 120.594 144.717 119.783C144.017 119.325 143.342 118.861 142.685 118.389C144.672 123.91 143.099 129.72 135.235 132.919C135.101 133.58 134.966 134.245 134.831 134.911ZM131.775 120.002C124.478 121.473 113.259 115.952 119.974 105.029C101.844 108.879 106.372 131.802 125.364 134.092C125.151 134.63 124.943 135.162 124.741 135.688C121.559 135.25 118.442 134.182 115.763 132.476C100.596 122.815 106.872 104.407 121.341 103.182C121.653 102.843 121.976 102.533 122.302 102.243C122.832 102.608 123.347 102.968 123.848 103.324C122.863 104.206 121.601 105.94 120.02 109.559C117.385 115.588 128.052 120.139 133.145 117.531C132.693 118.31 132.234 119.137 131.775 120.002ZM136.251 113.236C136.197 113.19 136.141 113.143 136.086 113.096C136.063 113.193 136.038 113.29 136.013 113.386C136.092 113.329 136.171 113.279 136.251 113.236Z" fill="#191919"/>
<path d="M140.371 115.137C131.232 107.804 134.135 108.78 122.278 100.739C114.949 95.7702 112.475 92.6694 109.513 86.5852C108.084 83.651 106.808 80.6281 106.155 77.3905C105.864 75.9426 106.353 74.7778 107.686 74.1744C116.04 70.3946 122.73 86.8898 131.944 87.895C135.081 88.2369 133.171 84.8122 131.282 82.3471C124.361 73.3215 122.574 68.7224 117.295 67.428C116.407 67.2109 115.879 67.1174 115.92 66.6867C116.016 65.6839 118.972 65.2581 122.332 67.9271C124.01 69.2599 124.63 70.0467 133.345 82.1372C137.612 88.0571 134.428 90.1695 131.956 89.6741C126.603 88.6004 122.887 85.1793 115.577 77.7335C111.21 73.2856 106.66 75.2049 107.479 77.43C115.431 99.0774 120.037 94.5167 135.719 108.018C139.592 111.353 145.989 117.937 159.221 122.869C165.307 125.137 171.545 125.529 173.365 126.603C177.175 128.852 157.12 128.579 140.371 115.137Z" fill="#191919"/>
<path d="M193.028 99.8921C197.118 100.577 227.571 123.622 230.886 126.115C233.642 128.187 233.718 130.414 227.91 126.582C218.249 120.208 208.37 112.033 194.507 102.372C192.24 100.792 194.735 104.969 186.301 118.359C182.836 123.859 175.392 131.091 174.106 132.063C173.336 132.644 171.67 131.621 205.494 171.921C207.983 174.887 207.354 176.418 203.765 172.684C197.82 166.497 180.744 145.536 178.129 141.943C171.034 132.198 171.515 132.566 173.138 130.776C180.796 122.331 183.513 119.704 187.831 110.644C192.369 101.124 191.453 100.08 193.028 99.8921Z" fill="#191919"/>
<path d="M130.853 55.9295C138.341 60.8718 142.474 63.1448 145.33 67.5833C146.983 70.1527 145.873 71.1904 143.54 68.1182C140.709 64.3912 128.837 55.4136 121.467 54.231C117.93 53.6635 113.126 60.9389 111.519 64.1394C109.722 67.7188 112.348 72.0205 111.26 72.2208C110.984 72.2712 110.877 72.0553 110.782 71.849C107.685 65.1242 110.154 61.4763 115.824 55.1618C121.494 48.8485 128.146 55.4688 129.566 54.8391C139.565 50.4067 155.09 63.6859 154.027 64.8483C152.964 66.0106 146.671 57.0895 135.321 55.2062C133.79 54.9519 132.382 55.3285 130.853 55.9295Z" fill="#191919"/>
<path d="M161.423 59.4121C170.601 59.6376 175.578 69.5929 178.636 78.2478C181.535 86.4539 183.709 91.3951 188.888 99.7789C190.826 102.913 189.279 103.815 186.774 99.3266C174.672 77.6516 175.358 63.709 161.807 60.5901C160.469 60.2818 160.18 60.1523 160.196 59.8055C160.218 59.3234 160.803 59.3965 161.423 59.4121Z" fill="#191919"/>
<path d="M147.757 55.4449C155.129 55.3406 162.902 62.8594 162.294 63.6727C161.588 64.6192 159.153 60.7254 152.43 57.6305C148.865 55.9896 144.453 56.9599 144.453 56.0195C144.453 55.3718 145.126 55.4821 147.757 55.4449Z" fill="#191919"/>
<path d="M137.452 115.242C136.892 119.457 129.321 155.359 129.314 155.398C128.052 161.84 122.955 155.57 108.913 141.854C105.734 138.748 108.023 139.277 112.16 140.896C122.505 144.942 122.103 147.608 122.765 145.248C125.715 134.745 137.021 109.463 137.452 115.242Z" fill="url(#paint4_linear_1845_13540)"/>
<defs>
<linearGradient id="paint0_linear_1845_13540" x1="50.9684" y1="48.3708" x2="67.9879" y2="48.4114" gradientUnits="userSpaceOnUse">
<stop stop-color="#CADBC9"/>
<stop offset="0.317308" stop-color="#D29E51"/>
<stop offset="0.521158" stop-color="#D3CF99"/>
<stop offset="0.723031" stop-color="#DBC269"/>
<stop offset="1" stop-color="#C87A39"/>
</linearGradient>
<linearGradient id="paint1_linear_1845_13540" x1="84.4515" y1="41.1862" x2="95.6807" y2="41.2031" gradientUnits="userSpaceOnUse">
<stop stop-color="#CADBC9"/>
<stop offset="0.317308" stop-color="#D29E51"/>
<stop offset="0.521158" stop-color="#D3CF99"/>
<stop offset="0.723031" stop-color="#DBC269"/>
<stop offset="1" stop-color="#C87A39"/>
</linearGradient>
<linearGradient id="paint2_linear_1845_13540" x1="19.2792" y1="65.4394" x2="45.2412" y2="65.6567" gradientUnits="userSpaceOnUse">
<stop stop-color="#CADBC9"/>
<stop offset="0.317308" stop-color="#D29E51"/>
<stop offset="0.521158" stop-color="#D3CF99"/>
<stop offset="0.723031" stop-color="#DBC269"/>
<stop offset="1" stop-color="#C87A39"/>
</linearGradient>
<linearGradient id="paint3_linear_1845_13540" x1="64.7038" y1="148.77" x2="142.639" y2="149.206" gradientUnits="userSpaceOnUse">
<stop stop-color="#CADBC9"/>
<stop offset="0.317308" stop-color="#D29E51"/>
<stop offset="0.521158" stop-color="#D3CF99"/>
<stop offset="0.723031" stop-color="#DBC269"/>
<stop offset="1" stop-color="#C87A39"/>
</linearGradient>
<linearGradient id="paint4_linear_1845_13540" x1="73.2038" y1="135.273" x2="138.092" y2="135.465" gradientUnits="userSpaceOnUse">
<stop stop-color="#CADBC9"/>
<stop offset="0.317308" stop-color="#D29E51"/>
<stop offset="0.521158" stop-color="#D3CF99"/>
<stop offset="0.723031" stop-color="#DBC269"/>
<stop offset="1" stop-color="#C87A39"/>
</linearGradient>
</defs>
</svg>
