<svg width="240" height="240" viewBox="0 0 240 240" fill="none" xmlns="http://www.w3.org/2000/svg">
<path d="M205.454 58.6973C213.841 58.6973 220.456 65.4305 220.456 73.6992C220.456 82.913 212.66 89.0555 204.745 89.0555C196.24 89.0555 189.389 82.2044 189.507 73.9357C189.625 65.3126 196.713 58.5792 205.454 58.6973ZM204.982 87.7562C213.014 87.6381 219.275 81.4955 219.275 73.6992C219.157 66.0211 212.542 59.5243 204.627 59.6425C197.185 59.7606 190.689 66.4938 190.807 73.9357C190.925 81.7319 197.185 87.8743 204.982 87.7562Z" fill="#191919"/>
<path d="M204.275 74.2893C203.212 73.3443 204.629 71.6907 205.692 72.6357C206.637 73.4626 213.371 72.0451 213.489 72.8719C213.607 74.2894 205.338 71.9268 205.338 75.4706V86.1018C205.338 86.9287 204.511 86.8106 204.511 86.1018C204.511 77.2425 205.22 74.9981 204.275 74.2893Z" fill="#191919"/>
<path d="M28.3847 59.761C36.8897 59.8791 43.5048 66.6121 43.2686 75.2352C43.1505 83.2677 35.7087 90.2372 27.4399 90.1191C18.9349 90.001 12.2018 83.1495 12.3199 74.8807C12.5561 66.3757 19.6435 59.6428 28.3847 59.761ZM27.7941 88.8196C35.7085 88.8196 42.0873 82.6772 42.0873 75.1172C42.0873 67.321 35.5905 60.706 27.558 60.9422C19.998 61.0603 13.7372 67.321 13.6191 75.1172C13.6191 82.6772 19.8797 88.8196 27.7941 88.8196Z" fill="#191919"/>
<path d="M26.6126 75.8267C26.9669 74.8817 22.1239 69.6844 22.8327 69.2119C23.8958 68.2669 26.3765 76.5355 29.2115 74.7637C38.6615 68.9755 38.6615 68.8573 38.8978 69.3298C39.4884 70.3929 29.0934 74.7637 28.8572 76.1812C28.739 77.7168 26.6126 77.4804 26.6126 75.8267Z" fill="#191919"/>
<path d="M165.528 169.498C166.355 169.262 167.418 168.553 168.481 169.144C169.071 169.498 168.835 170.089 168.245 170.089C167.536 169.971 166.473 169.971 166.118 170.561C165.882 171.034 166.236 171.743 166.591 172.215C167.063 171.979 167.418 171.625 167.89 171.388C168.835 170.916 170.253 170.916 170.253 171.625C170.253 172.215 169.544 172.097 168.953 172.215C166 172.924 167.3 173.751 169.071 180.956C169.544 182.61 175.096 180.72 184.073 181.901C184.664 182.02 185.136 182.256 185.136 182.965C185.018 184.264 144.029 184.736 133.516 185.327C131.271 185.445 129.854 184.5 128.673 182.61C124.066 175.523 119.695 160.875 119.223 155.323C118.986 152.37 119.104 151.898 130.563 150.598C137.296 149.771 150.644 148.826 157.377 149.535C158.676 149.653 158.676 150.008 161.748 158.749C162.338 160.403 162.575 158.513 166.709 158.04C167.181 158.04 169.071 157.922 168.953 158.513C168.953 158.985 167.654 158.749 164.937 159.458C161.511 160.403 162.456 160.048 164.346 166.073C164.819 167.726 165.528 165.718 167.536 166.9C167.772 167.018 168.126 167.254 168.008 167.608C167.89 168.081 167.536 167.845 167.181 167.726C164.228 166.9 165.055 168.081 165.528 169.498ZM137.178 168.553C137.178 173.042 143.32 175.286 144.738 170.443C144.856 169.971 144.974 169.735 144.265 169.735C142.493 169.616 141.548 167.845 142.493 166.309C143.793 164.419 137.178 163.356 137.178 168.553ZM141.785 160.048C141.548 159.576 142.139 158.513 140.958 158.749C139.422 158.985 138.123 161.111 138.477 162.647C139.068 164.891 141.548 163.474 141.785 160.048Z" fill="#191919"/>
<path d="M173.207 106.301C172.026 106.892 171.081 106.892 170.491 105.71C170.254 105.356 169.9 105.474 169.664 105.592C167.419 105.71 168.246 102.757 169.664 103.23C170.609 103.584 171.436 102.875 172.262 102.994C172.617 102.994 172.381 102.403 172.499 102.167C172.617 101.812 172.735 101.576 172.262 101.34C171.554 101.104 170.963 100.749 170.136 100.749C168.128 100.631 168.364 97.6781 170.018 98.3868C170.254 98.505 170.372 98.623 170.609 98.623C171.554 98.1505 172.499 98.8593 173.444 98.7412C174.271 98.7412 174.507 97.9142 174.861 97.4417C175.097 97.0873 174.861 96.6148 174.271 96.4967C174.034 96.4967 173.68 96.2605 173.68 95.9061C173.68 94.9611 173.207 94.1341 173.444 93.1891C173.68 92.3622 174.507 92.1261 175.216 92.7167C176.161 93.6617 176.869 93.5437 176.751 94.0162C176.515 94.9612 177.578 94.9611 177.814 95.6698C177.932 96.0242 178.169 95.6697 178.759 95.5516C179.232 95.4335 179.941 95.4336 180.177 95.0792C180.649 94.7248 179.941 94.1343 179.941 93.6618C180.177 92.7168 179.941 89.9998 182.067 90.5905C183.721 91.063 182.421 92.126 182.776 92.5985C183.248 93.071 183.484 93.5437 183.13 94.2525C183.012 94.6068 183.248 94.961 183.721 94.961C185.02 94.961 185.729 95.4336 185.965 95.0792C186.319 94.2523 186.792 93.4256 186.91 92.4806C186.91 89.8818 190.454 90.9448 189.981 92.7167C189.745 93.7798 190.099 95.1975 189.036 96.0243L188.918 96.1422C189.509 96.6147 190.099 97.2056 190.808 97.56C191.044 97.6781 191.399 97.0873 191.517 96.4967C191.753 93.898 194.352 94.1342 195.061 95.6698C195.769 97.0873 194.116 97.4417 194.116 98.0323C193.997 98.8592 193.525 99.3316 192.816 99.686L193.879 101.458C194.706 99.8041 197.541 98.8593 198.368 100.513C199.077 102.049 197.069 103.702 195.651 103.939C194.706 104.057 194.706 104.411 194.942 105.947C199.786 104.765 199.431 109.372 197.777 109.254C196.951 109.136 196.242 109.609 195.415 109.49C194.47 109.372 194.352 109.727 194.116 110.317C193.997 111.026 193.052 111.262 194.942 112.207C197.777 113.507 196.006 116.46 193.407 115.16C192.816 114.924 192.226 114.688 191.871 114.097C191.753 113.861 191.517 113.979 191.399 114.097C191.044 114.452 190.336 114.57 190.454 115.397C191.162 118.822 191.989 119.413 193.643 122.248C195.297 125.202 188.327 120.24 189.509 111.735C189.627 110.672 190.336 109.845 190.926 109.018C192.107 107.246 189.981 105.474 188.682 107.128C188.327 107.6 188.091 108.073 187.382 107.955C185.492 107.718 186.792 101.34 180.295 100.749C177.578 100.513 175.57 101.694 173.916 103.82C173.326 104.647 173.916 122.721 182.776 120.949C184.547 120.595 185.729 119.059 187.146 117.523C188.564 119.885 180.886 125.32 176.633 119.177C174.507 116.105 173.207 110.317 173.207 106.301Z" fill="#191919"/>
<path d="M196.122 125.2C196.358 124.491 196.831 124.492 197.303 124.374C238.292 122.838 224.826 197.02 179.112 179.183C172.969 176.82 168.835 171.032 171.906 173.513C179.821 179.892 191.987 181.545 200.02 179.537C225.181 173.04 229.906 127.68 199.547 125.2C198.366 125.2 197.303 124.845 196.122 125.2Z" fill="#191919"/>
<path d="M165.173 151.899C162.22 137.369 174.151 125.793 176.986 126.265C168.717 132.999 165.173 141.622 166 151.78C166.118 154.261 166.236 157.332 165.173 151.899Z" fill="#191919"/>
<path d="M203.566 165.009C202.975 165.835 195.179 161.23 168.955 167.49C169.9 164.301 200.376 161.347 203.566 165.009Z" fill="#191919"/>
<path d="M172.85 160.637C173.204 163.472 173.795 164.417 173.086 164.535C171.55 164.89 170.487 148.707 172.85 141.029C174.503 135.831 171.786 151.542 172.85 160.637Z" fill="#191919"/>
<path d="M202.977 163.355C200.024 161.229 199.787 139.14 201.559 139.494C201.796 139.494 201.796 139.848 201.796 140.085C200.732 155.677 202.859 159.339 202.977 163.355Z" fill="#191919"/>
<path d="M185.021 131.107C186.557 131.226 186.32 133.824 184.785 133.824C183.131 133.824 183.013 131.107 185.021 131.107Z" fill="url(#paint0_linear_1845_13569)"/>
<path d="M195.414 125.32C195.414 127.092 192.934 127.21 192.934 125.556C193.052 123.903 195.414 123.43 195.414 125.32Z" fill="url(#paint1_linear_1845_13569)"/>
<path d="M182.301 126.972C182.301 128.626 179.938 128.862 179.82 127.208C179.702 125.673 182.301 125.2 182.301 126.972Z" fill="url(#paint2_linear_1845_13569)"/>
<path d="M188.091 131.58C189.508 131.816 189.39 133.942 187.854 134.06C186.319 134.178 186.201 131.58 188.091 131.58Z" fill="url(#paint3_linear_1845_13569)"/>
<path d="M189.74 131.344C189.74 129.572 192.103 129.572 191.985 131.225C191.866 132.879 189.858 132.997 189.74 131.344Z" fill="url(#paint4_linear_1845_13569)"/>
<path d="M194.114 128.863C193.996 130.399 191.87 130.399 191.87 128.863C191.751 127.327 194.114 127.091 194.114 128.863Z" fill="url(#paint5_linear_1845_13569)"/>
<path d="M182.656 129.1C184.31 129.1 184.191 131.463 182.892 131.463C181.238 131.463 181.12 129.1 182.656 129.1Z" fill="url(#paint6_linear_1845_13569)"/>
<path d="M184.072 113.507C184.309 117.287 179.82 116.46 181.71 115.87C182.773 115.515 183.245 114.57 184.072 113.507Z" fill="#191919"/>
<path d="M178.17 111.262C179.351 112.68 177.107 114.688 179.942 113.743C179.706 114.452 179.115 114.688 178.524 114.57C177.579 114.334 177.934 113.507 178.17 111.262Z" fill="#191919"/>
<path d="M183.605 105.592C182.66 105.356 181.951 105.001 181.006 105.001C180.888 105.001 180.77 104.765 180.77 104.765C180.888 103.82 183.132 104.056 183.605 105.592Z" fill="#191919"/>
<path d="M174.621 106.537C174.503 104.883 177.22 104.056 177.102 105.001C177.102 105.592 175.92 105.119 174.621 106.537Z" fill="#191919"/>
<path d="M183.247 109.372C183.01 110.553 181.947 110.199 181.947 109.372C181.947 108.427 183.01 108.309 183.247 109.372Z" fill="#191919"/>
<path d="M175.806 111.381C174.743 111.263 175.333 109.136 176.16 110.081C176.633 110.672 176.396 111.381 175.806 111.381Z" fill="#191919"/>
<path d="M83.0751 162.528C82.957 167.253 82.2483 179.183 80.2402 183.2C78.9408 185.798 77.9957 185.326 64.7657 185.916C53.4257 186.507 49.2913 186.625 41.1407 186.153C37.4788 185.916 36.652 180.719 35.8251 176.585C34.1713 168.08 33.9351 157.33 34.0532 156.621C34.1713 154.731 34.8802 153.786 36.7702 153.314C39.6052 152.605 42.5583 152.369 45.3933 152.369C71.2627 151.778 75.7515 151.424 80.2402 152.487C84.2565 153.432 82.8388 157.094 83.0751 162.528ZM61.6947 174.576C61.9309 174.34 62.0491 174.222 61.6947 173.868C59.8047 172.45 59.9227 170.915 61.9308 169.733C62.6396 169.379 62.2852 169.143 61.9308 168.788C58.9777 166.071 54.3707 168.906 55.3157 172.686C55.9063 174.813 59.3322 176.821 61.6947 174.576ZM61.3402 163.355C61.3402 163 61.4584 162.646 61.1041 162.528C60.5134 162.173 57.6782 164.418 58.5051 166.308C59.0957 167.371 61.3402 165.599 61.3402 163.355Z" fill="#191919"/>
<path d="M79.531 137.723C77.9954 139.731 76.8143 146.582 76.6961 149.181C76.6961 150.362 76.6963 149.417 64.0569 149.417C62.4031 149.417 62.4029 149.417 62.4029 147.763C61.1035 125.083 60.3948 125.319 63.2298 124.729C65.2379 124.256 65.0018 122.721 66.8918 122.721C70.5536 122.839 73.7429 124.374 76.2235 125.319C78.4679 126.146 72.9161 127.328 71.0261 136.778C70.908 137.368 70.1991 140.912 70.6716 141.148C72.0891 136.305 72.7979 132.525 77.4048 126.619C77.641 126.264 77.8773 126.028 78.3498 126.264C110.598 140.085 97.9586 166.663 85.2011 170.325C83.4293 170.798 85.7916 166.073 84.4923 154.496C84.1379 151.425 80.8306 150.48 78.2319 150.008C76.46 149.653 80.3579 139.494 79.531 137.723Z" fill="url(#paint7_linear_1845_13569)"/>
<path d="M41.9691 138.312C41.4966 139.847 41.6147 140.319 43.1503 149.06C43.6228 151.541 42.5597 149.533 36.4172 151.541C31.1016 153.313 31.8103 157.447 32.2828 165.007C30.9834 165.716 13.7372 141.737 44.3316 125.909C45.7491 125.2 45.7492 125.199 46.8123 126.262C50.0017 129.215 53.4272 139.61 54.3722 139.964C54.6084 139.019 54.2542 138.074 53.8998 137.248C48.7023 124.254 45.7492 125.081 47.4029 124.372C49.1748 123.663 50.8286 122.954 52.7186 122.6C55.3173 122.009 55.7897 125.789 59.4516 125.671C60.3966 125.671 60.0424 139.964 61.1055 148.588C61.2237 149.296 60.9873 149.533 60.1604 149.651C58.9792 149.651 46.6942 150.123 45.0404 150.359C43.5048 150.359 45.1584 146.344 41.9691 138.312Z" fill="url(#paint8_linear_1845_13569)"/>
<path d="M68.4274 104.056C68.1911 104.174 67.9548 104.292 68.073 104.528C68.073 104.882 68.4274 104.764 68.6636 104.764C70.908 104.764 70.1991 108.662 68.5454 109.371C67.4822 109.726 67.1279 108.662 66.7735 110.198C66.0647 113.269 65.1197 119.057 58.5047 118.348C50.5904 117.522 52.2442 109.253 51.2992 109.253C48.9367 109.371 47.9917 106.654 48.9367 105.119C49.2911 104.528 48.8186 104.174 48.3461 104.646C46.8105 106.418 47.9916 109.371 49.9997 109.962C51.7716 110.434 50.118 114.923 53.6617 117.049C56.4967 118.821 55.0791 122.128 55.906 122.246C56.7329 122.246 56.1423 119.53 56.2605 118.585C59.3317 119.53 62.0487 119.175 64.6475 117.167C64.6475 121.419 64.5291 121.42 65.0016 121.42C65.4741 121.42 65.356 120.829 65.356 120.474V119.766C65.0016 114.214 67.8367 114.096 67.2461 109.725C69.2542 110.552 70.4355 108.899 71.0261 106.89C71.3805 105.827 69.963 103.347 68.4274 104.056Z" fill="#191919"/>
<path d="M51.8904 109.962C50.9454 108.663 51.2998 106.182 52.481 105.119C53.8985 103.702 56.261 103.938 57.206 106.182C57.4423 106.773 57.6785 106.891 58.3873 106.891C59.5685 106.891 60.0409 106.419 60.6315 105.474C62.5215 102.284 67.2466 105.119 65.8291 109.254C64.766 112.443 60.5135 112.207 59.9229 108.545C59.9229 108.19 60.1589 107.718 59.6864 107.6C59.0958 107.482 58.387 107.482 57.9145 107.6C57.5602 107.718 57.7965 108.191 57.6784 108.427C57.2059 111.38 53.8985 112.797 51.8904 109.962ZM65.4748 107.718C65.4748 103.938 60.7498 103.466 60.5135 107.482C60.3954 109.254 61.5765 110.907 62.994 110.907C64.2934 111.025 65.4748 109.49 65.4748 107.718ZM52.1265 107.836C52.1265 109.608 53.3078 111.144 54.7253 111.026C56.1428 111.026 57.2059 109.49 57.0878 107.718C56.8515 103.82 52.1265 103.702 52.1265 107.836Z" fill="#191919"/>
<path d="M65.7127 92.1251C63.7046 92.1251 55.1996 86.8095 50.9471 98.0313C49.7659 101.221 50.711 103.938 49.8841 103.938C49.5297 103.938 49.6476 103.583 49.6476 103.347C48.9389 88.5813 62.6415 87.6363 65.7127 92.1251Z" fill="#191919"/>
<path d="M67.1323 95.6692C63.3523 94.488 58.5093 92.4799 54.6112 98.6224C54.493 98.8586 54.3749 99.3311 54.0205 99.213C53.548 98.9767 54.0205 98.6224 54.0205 98.3861C56.6193 92.1255 65.2423 92.598 67.1323 95.6692Z" fill="#191919"/>
<path d="M67.2439 100.395C65.5902 98.5046 63.5819 96.0238 60.0382 98.2682C59.5657 98.6226 59.3294 98.8589 59.0932 98.6227C58.975 98.5046 59.0934 98.2683 59.3297 98.0321C61.8103 95.1971 66.7714 96.4964 67.2439 100.395Z" fill="#191919"/>
<path d="M60.9867 114.924C60.1598 114.924 60.0418 114.452 60.7506 114.097C62.2862 113.507 62.2861 112.325 62.7586 112.561C63.2311 112.916 62.5223 114.806 60.9867 114.924Z" fill="#191919"/>
<path d="M58.3908 109.609C58.6271 110.554 58.1547 111.853 59.336 111.498C59.8085 111.38 59.9265 111.735 59.454 112.089C58.6271 112.68 57.564 112.207 58.0365 109.49C58.1546 109.254 58.1546 108.664 58.3908 109.609Z" fill="#191919"/>
<path d="M64.8842 102.638C64.1754 102.756 63.5847 101.457 62.1672 102.166C62.049 102.284 61.8129 102.402 61.6948 102.166C61.5767 101.93 61.6948 101.693 61.931 101.575C62.7579 100.394 64.8842 101.575 64.8842 102.638Z" fill="#191919"/>
<path d="M52.6016 103.583C52.9559 100.63 55.7909 101.575 55.5547 102.402C55.4366 102.875 55.2003 102.52 54.9641 102.52C53.9009 102.048 53.4284 102.875 52.6016 103.583Z" fill="#191919"/>
<path d="M63.4669 108.189C63.3488 109.253 62.1675 109.016 62.2856 108.189C62.2856 107.835 62.4038 107.481 62.8763 107.481C63.3488 107.481 63.4669 107.953 63.4669 108.189Z" fill="#191919"/>
<path d="M55.1969 108.544C54.9606 109.607 54.0156 109.371 54.0156 108.544C54.0156 107.599 55.0788 107.481 55.1969 108.544Z" fill="#191919"/>
<path fill-rule="evenodd" clip-rule="evenodd" d="M118.038 120.055V120.064L118.038 120.189C118.04 121.356 118.041 122.077 118.041 122.249C107.594 122.274 99.5843 122.321 93.4025 122.357C75.284 122.463 72.8721 122.477 70.8603 121.588C70.5516 121.451 70.2521 121.292 69.9067 121.11C69.6762 120.989 69.425 120.856 69.1371 120.712C67.3652 119.768 66.5384 117.642 67.3652 115.87C68.2512 113.685 68.3693 112.71 68.4284 112.223C68.4874 111.735 68.4874 111.735 69.1371 111.499C73.0352 109.963 73.744 105.711 71.2634 103.112C71.2961 103.112 71.0122 102.995 70.5896 102.82C69.4845 102.362 67.4308 101.511 67.6017 101.34C69.1344 100.086 68.5304 98.8735 68.0194 97.847C67.6639 97.1331 67.3533 96.5094 67.8379 96.0248C69.3735 94.4892 67.8377 92.3627 66.5384 90.8271C62.8765 86.3384 54.9622 87.0472 51.5366 91.536C50.6142 92.8043 50.7048 55.0214 50.7096 52.9929L50.7097 52.9092C50.7097 50.4291 50.7097 50.4285 53.1902 50.4285L54.1958 50.4092C59.3488 50.3095 60.0136 50.2966 109.89 50.074C111.512 50.074 112.82 50.0646 113.874 50.0572C118.121 50.0268 118.254 50.0259 118.159 50.7829C117.945 52.494 118.022 108.138 118.038 120.055ZM67.9559 62.4772C66.5384 62.5954 66.6565 64.4856 67.9559 64.4856C69.3734 64.4856 69.3734 62.5954 67.9559 62.4772ZM63.4672 71.5732C63.3491 72.5182 64.7666 72.5182 64.8847 71.5732C64.8847 70.6282 63.5854 70.5101 63.4672 71.5732ZM81.3039 87.756C82.6033 87.6378 82.4851 85.9841 81.3039 85.9841C80.1226 85.866 80.1226 87.6378 81.3039 87.756ZM74.3347 54.0904C73.626 54.2085 73.626 55.1534 74.3347 55.1534C75.1616 55.0352 75.0435 53.9722 74.3347 54.0904ZM57.4427 83.1491C57.4427 82.5585 56.6159 82.5586 56.6159 83.0311C56.4977 83.5036 57.3246 83.7397 57.4427 83.1491ZM110.953 62.4772C111.78 62.3591 111.898 61.06 110.835 61.1781C110.008 61.1781 110.008 62.5954 110.953 62.4772ZM106.937 56.5711C106.937 57.8705 108.591 57.8707 108.709 56.8076C108.709 55.5082 106.937 55.6261 106.937 56.5711ZM79.4141 62.5955C78.2329 62.7136 78.2329 64.4855 79.4141 64.3673C80.4772 64.4855 80.7135 62.8317 79.4141 62.5955ZM109.063 88.8191C111.78 91.2997 117.096 96.1429 115.206 92.9535C114.669 92.094 113.35 90.9413 110.271 88.2512C109.965 87.9837 109.641 87.7008 109.3 87.4017C108.591 86.8111 107.646 86.8112 106.701 87.52C97.9595 94.0168 90.0454 100.159 90.0454 100.277C88.9876 101.282 87.7404 100.251 86.2615 99.0275C84.437 97.5185 82.2599 95.7178 79.6502 97.0878L78.9769 97.4611C71.9581 101.352 70.7246 102.036 69.5216 101.986C69.2653 101.975 69.0103 101.931 68.7009 101.878C68.58 101.857 68.4509 101.835 68.3101 101.813C69.3733 102.285 71.1454 102.994 71.1454 102.994C73.2763 101.83 74.9603 100.878 76.3096 100.116C81.3921 97.2438 81.7251 97.0557 83.312 98.2691C85.9108 100.277 92.8802 105.593 96.1877 106.42C95.1754 105.118 93.8532 104.215 92.5193 103.304C91.6741 102.726 90.8242 102.146 90.0454 101.458C93.1296 99.514 95.9855 97.3033 98.8506 95.0853C101.033 93.3957 103.221 91.7019 105.52 90.1186C106.151 89.6867 106.614 89.3015 106.98 88.9971C107.914 88.2196 108.214 87.9701 109.063 88.8191ZM92.8804 62.4771C88.0372 58.8152 102.921 59.8785 103.039 68.856C103.157 81.4954 87.4465 79.7236 87.8009 77.4792C87.882 77.0738 88.5195 76.891 89.4461 76.6252C89.8696 76.5037 90.3536 76.3649 90.8722 76.1797C96.8966 73.8172 98.7866 66.9659 92.8804 62.4771ZM97.1329 85.9843C97.1329 86.8112 98.196 86.9292 98.3141 86.1023C98.3141 85.3936 97.1329 85.2756 97.1329 85.9843ZM80.477 75.353C81.5401 75.4711 81.6583 74.0535 80.477 73.6991C79.532 73.9354 79.532 75.2348 80.477 75.353ZM112.016 56.5709C111.898 55.744 110.717 55.6261 110.717 56.453C110.717 57.2798 111.898 57.5159 112.016 56.5709ZM112.371 78.0698C112.371 76.6523 110.245 76.298 110.008 78.0698C110.126 79.8417 112.371 79.6055 112.371 78.0698Z" fill="#191919"/>
<path fill-rule="evenodd" clip-rule="evenodd" d="M179.938 50.9004V89.1728C179.938 90.2315 179.642 90.4007 179.194 90.6561C178.843 90.8566 178.398 91.1104 177.93 91.8898C177.458 92.8348 177.103 92.8345 176.395 92.0076C175.213 90.5901 173.087 90.7085 172.26 92.2441C171.804 93.0051 171.979 94.0492 172.132 94.9556C172.334 96.1596 172.494 97.1205 171.079 96.8509C169.071 96.4965 164.937 98.859 168.953 101.812C168.916 101.96 168.717 102.085 168.469 102.241C167.923 102.583 167.137 103.075 167.299 104.293C167.514 105.797 168.164 106.042 168.826 106.291C169.255 106.453 169.691 106.616 170.016 107.128C170.288 107.534 170.61 107.63 170.933 107.725C171.452 107.879 171.969 108.032 172.26 109.49C172.451 110.494 172.609 111.398 172.754 112.221C173.511 116.527 173.877 118.606 176.158 121.185C176.221 121.246 176.307 121.309 176.397 121.374C176.649 121.554 176.924 121.751 176.749 122.012C176.513 122.602 118.632 122.366 118.041 122.248C118.041 116.569 118.045 111.341 118.051 106.528C118.336 106.256 118.632 105.969 118.941 105.669C121.32 103.361 124.474 100.302 129.381 97.7959C131.862 96.4965 134.342 95.6695 140.13 98.5045C143.239 100.059 146.144 101.818 148.744 103.393C152.072 105.408 154.901 107.122 157.022 107.718L157.002 107.687L156.969 107.637C156.764 107.325 156.603 107.081 155.841 106.537C148.008 100.783 143.47 98.7722 141.344 97.83C139.847 97.1669 139.544 97.0333 140.13 96.4964C158.085 80.5495 160.212 79.6046 170.252 83.2665C172.8 84.1822 174.504 84.843 175.678 85.2986C177.986 86.1946 178.249 86.2967 178.875 85.9834C174.623 83.1484 171.197 81.8489 165.882 80.5495C160.566 79.2501 156.195 81.7308 151.234 85.2745C145.627 89.3314 142.88 92.3638 141.186 94.2348C139.527 96.0683 138.877 96.7864 137.532 96.2603C130.4 93.3375 123.732 99.4398 118.213 104.49L118.054 104.636C118.077 88.5847 118.129 77.3023 118.165 69.3579C118.246 51.7071 118.251 50.5355 117.705 50.1545C117.666 50.1275 117.625 50.1045 117.58 50.0797L117.569 50.0733C127.958 49.9749 136.616 49.8831 143.834 49.8066C179.938 49.4237 179.938 49.4237 179.938 50.9004ZM129.972 75.3523C129.145 77.1241 128.908 79.0143 129.145 81.0224C129.2 80.8734 129.242 80.7714 129.277 80.684C129.466 80.2168 129.486 80.1656 130.68 75.5885C130.798 75.116 130.208 74.7616 129.972 75.3523ZM120.64 74.9978C125.955 71.8084 125.128 70.6271 124.42 71.0996C123.002 72.1628 121.585 73.2259 120.64 74.9978ZM160.093 66.8475C160.212 67.4381 162.928 67.438 164.11 67.3199C166.59 66.9656 169.071 66.6111 171.552 66.9655C174.859 67.438 182.537 64.6031 160.093 66.8475ZM150.289 55.2711C141.43 59.9961 142.138 57.8698 143.202 57.5154C144.044 57.1827 144.768 56.8922 145.398 56.6401C148.564 55.3702 149.304 55.074 150.289 55.2711ZM148.163 74.6435C148.045 73.4623 144.383 71.4543 143.438 70.9818C143.083 70.7455 140.367 70.8635 148.163 74.6435ZM133.515 55.6255C122.412 55.3893 121.467 73.5803 133.161 73.4621C144.383 73.344 146.863 55.9799 133.515 55.6255ZM133.043 72.2809C129.263 72.399 125.719 69.3279 125.719 64.9573C125.719 60.2323 129.263 56.4523 133.515 56.4523C138.24 56.4523 141.312 60.114 141.43 63.6578C141.548 68.3828 137.295 72.5171 133.043 72.2809ZM136.986 76.9308C136.893 76.6786 136.8 76.4273 136.705 76.1793C135.76 73.5805 137.886 73.6987 138.949 80.6681C137.959 79.5787 137.467 78.2399 136.986 76.9308ZM151.825 65.5479C150.762 65.1935 145.092 63.776 145.21 64.8391C145.328 65.7841 150.998 65.666 151.825 65.5479ZM171.921 69.4284C170.96 69.222 170.076 69.0325 167.181 69.446C168.179 68.3858 169.572 68.5767 171.343 68.8194C172.925 69.0364 174.811 69.2947 176.985 68.7371C177.93 68.5009 177.222 69.564 174.859 69.6821C173.334 69.7314 172.608 69.5756 171.921 69.4284ZM161.747 54.6804C160.093 54.326 156.786 54.5623 155.841 55.8616C155.867 55.8616 155.892 55.8672 155.921 55.8733C156.026 55.896 156.179 55.9289 156.55 55.7434C158.18 54.9827 160.56 55.1469 163.012 55.316C165.89 55.5146 168.865 55.7199 170.843 54.4443C170.222 54.311 169.449 54.445 168.476 54.6139C166.862 54.8941 164.696 55.2701 161.747 54.6804ZM166.14 64.6532C165.605 64.7319 165.094 64.8071 164.582 64.839C163.873 64.839 160.448 64.4848 163.165 64.3666C163.608 64.3223 164.051 64.2744 164.494 64.2264C167.594 63.8906 170.695 63.5546 173.796 64.4849C173.178 65.0001 172.469 64.886 171.75 64.7702C171.645 64.7531 171.54 64.7361 171.433 64.7211C169.194 64.2042 167.583 64.4412 166.14 64.6532Z" fill="url(#paint9_linear_1845_13569)"/>
<path d="M12.2012 190.407C6.05874 190.407 6.5314 189.698 12.0833 189.462C42.2052 188.28 216.44 185.445 230.733 185.209C232.151 185.209 233.214 186.272 230.851 186.627C227.426 186.981 15.2725 190.407 12.2012 190.407Z" fill="#191919"/>
<defs>
<linearGradient id="paint0_linear_1845_13569" x1="180.644" y1="132.41" x2="186.115" y2="132.432" gradientUnits="userSpaceOnUse">
<stop stop-color="#CADBC9"/>
<stop offset="0.317308" stop-color="#D29E51"/>
<stop offset="0.521158" stop-color="#D3CF99"/>
<stop offset="0.723031" stop-color="#DBC269"/>
<stop offset="1" stop-color="#C87A39"/>
</linearGradient>
<linearGradient id="paint1_linear_1845_13569" x1="190.107" y1="125.357" x2="195.467" y2="125.379" gradientUnits="userSpaceOnUse">
<stop stop-color="#CADBC9"/>
<stop offset="0.317308" stop-color="#D29E51"/>
<stop offset="0.521158" stop-color="#D3CF99"/>
<stop offset="0.723031" stop-color="#DBC269"/>
<stop offset="1" stop-color="#C87A39"/>
</linearGradient>
<linearGradient id="paint2_linear_1845_13569" x1="176.985" y1="127.035" x2="182.354" y2="127.058" gradientUnits="userSpaceOnUse">
<stop stop-color="#CADBC9"/>
<stop offset="0.317308" stop-color="#D29E51"/>
<stop offset="0.521158" stop-color="#D3CF99"/>
<stop offset="0.723031" stop-color="#DBC269"/>
<stop offset="1" stop-color="#C87A39"/>
</linearGradient>
<linearGradient id="paint3_linear_1845_13569" x1="183.957" y1="132.771" x2="189.135" y2="132.792" gradientUnits="userSpaceOnUse">
<stop stop-color="#CADBC9"/>
<stop offset="0.317308" stop-color="#D29E51"/>
<stop offset="0.521158" stop-color="#D3CF99"/>
<stop offset="0.723031" stop-color="#DBC269"/>
<stop offset="1" stop-color="#C87A39"/>
</linearGradient>
<linearGradient id="paint4_linear_1845_13569" x1="187.178" y1="131.211" x2="192.037" y2="131.23" gradientUnits="userSpaceOnUse">
<stop stop-color="#CADBC9"/>
<stop offset="0.317308" stop-color="#D29E51"/>
<stop offset="0.521158" stop-color="#D3CF99"/>
<stop offset="0.723031" stop-color="#DBC269"/>
<stop offset="1" stop-color="#C87A39"/>
</linearGradient>
<linearGradient id="paint5_linear_1845_13569" x1="189.303" y1="128.769" x2="194.162" y2="128.788" gradientUnits="userSpaceOnUse">
<stop stop-color="#CADBC9"/>
<stop offset="0.317308" stop-color="#D29E51"/>
<stop offset="0.521158" stop-color="#D3CF99"/>
<stop offset="0.723031" stop-color="#DBC269"/>
<stop offset="1" stop-color="#C87A39"/>
</linearGradient>
<linearGradient id="paint6_linear_1845_13569" x1="178.945" y1="130.233" x2="183.931" y2="130.254" gradientUnits="userSpaceOnUse">
<stop stop-color="#CADBC9"/>
<stop offset="0.317308" stop-color="#D29E51"/>
<stop offset="0.521158" stop-color="#D3CF99"/>
<stop offset="0.723031" stop-color="#DBC269"/>
<stop offset="1" stop-color="#C87A39"/>
</linearGradient>
<linearGradient id="paint7_linear_1845_13569" x1="18.5866" y1="145.562" x2="99.5198" y2="145.833" gradientUnits="userSpaceOnUse">
<stop stop-color="#CADBC9"/>
<stop offset="0.317308" stop-color="#D29E51"/>
<stop offset="0.521158" stop-color="#D3CF99"/>
<stop offset="0.723031" stop-color="#DBC269"/>
<stop offset="1" stop-color="#C87A39"/>
</linearGradient>
<linearGradient id="paint8_linear_1845_13569" x1="-13.4532" y1="142.908" x2="61.8776" y2="143.172" gradientUnits="userSpaceOnUse">
<stop stop-color="#CADBC9"/>
<stop offset="0.317308" stop-color="#D29E51"/>
<stop offset="0.521158" stop-color="#D3CF99"/>
<stop offset="0.723031" stop-color="#DBC269"/>
<stop offset="1" stop-color="#C87A39"/>
</linearGradient>
<linearGradient id="paint9_linear_1845_13569" x1="46.5002" y1="84.5" x2="181.268" y2="84.9931" gradientUnits="userSpaceOnUse">
<stop stop-color="#CADBC9"/>
<stop offset="0.317308" stop-color="#D29E51"/>
<stop offset="0.521158" stop-color="#D3CF99"/>
<stop offset="0.723031" stop-color="#DBC269"/>
<stop offset="1" stop-color="#C87A39"/>
</linearGradient>
</defs>
</svg>
