<svg width="120" height="120" viewBox="0 0 120 120" fill="none" xmlns="http://www.w3.org/2000/svg">
<g clip-path="url(#clip0_867_36741)">
<rect width="120" height="120" rx="40" fill="white"/>
<path d="M42.3287 64.7924L41.131 52.6463C39.5885 44.8802 45.6471 40.7744 50.9441 40.7744H69.2934C74.9128 40.7744 81.6055 44.8492 78.7562 53.6018L77.1173 66.8373L42.3287 64.7924Z" fill="#1A1A1A"/>
<path d="M75.8816 71.4515C79.5182 74.1369 85.8093 61.9233 82.2658 59.0301C78.7223 56.1379 76.3786 61.4413 76.3786 61.4413L76.2908 65.9317L75.7701 70.1382L75.5698 71.4333L75.8816 71.4515Z" fill="#F3A396"/>
<path d="M81.2839 62.7117C81.2839 62.7117 78.6477 61.8323 76.7764 65.7142" stroke="#D26665" stroke-width="0.6735" stroke-miterlimit="10" stroke-linecap="round" stroke-linejoin="round"/>
<path d="M78.0571 63.8145C78.0571 63.8145 80.9257 65.3484 79.0308 67.6546" stroke="#D26665" stroke-width="0.6735" stroke-miterlimit="10" stroke-linecap="round" stroke-linejoin="round"/>
<path d="M44.1183 71.4524C40.4817 74.1378 34.1906 61.9243 37.7341 59.031C41.2775 56.1388 43.5024 61.4969 43.5024 61.4969L43.7091 65.9326L44.2286 70.1391L44.43 71.4342L44.1183 71.4524Z" fill="#F3A396"/>
<path d="M38.7148 62.7134C38.7148 62.7134 41.351 61.834 43.2224 65.7159" stroke="#D26665" stroke-width="0.6735" stroke-miterlimit="10" stroke-linecap="round" stroke-linejoin="round"/>
<path d="M41.9428 63.8162C41.9428 63.8162 39.0742 65.3501 40.9691 67.6563" stroke="#D26665" stroke-width="0.6735" stroke-miterlimit="10" stroke-linecap="round" stroke-linejoin="round"/>
<path d="M77.071 55.692C77.071 63.2567 76.0652 69.7845 75.0615 74.4173C74.0782 78.9527 71.3124 82.9139 67.4036 85.4654L66.6913 85.9303C62.5555 88.6297 57.2125 88.6929 53.0135 86.091C48.778 83.4677 45.813 79.2172 44.9003 74.3498C43.2411 65.4965 43.059 55.692 43.059 55.692C43.059 55.692 41.48 36.5961 59.8218 36.9668C78.1657 37.3385 77.071 55.692 77.071 55.692Z" fill="#F3A396"/>
<path d="M77.3196 34.0559C71.4913 29.9329 59.9761 32.8176 53.7 35.6927C53.8318 33.8181 52.6782 34.0238 52.6782 34.0238C41.6397 36.9888 44.5372 45.6878 44.5372 45.6878C44.5372 45.6878 44.58 45.7093 44.6443 45.7403C43.4907 48.2426 41.9932 53.5749 43.4082 63.2294C43.4082 63.2294 46.3346 52.7844 46.415 46.5544C51.3113 48.7139 64.7353 53.9638 73.489 51.0277C74.3534 56.3461 76.649 63.2305 76.649 63.2305C77.5659 56.9748 77.1803 52.5134 76.559 49.4937C77.0967 49.1135 77.6109 48.6957 78.0747 48.2083C78.0747 48.2083 85.5784 39.897 77.3196 34.0559Z" fill="#1A1A1A"/>
<path d="M58.459 63.0002V69.1606C58.459 69.3673 58.4987 69.5666 58.5715 69.7487C58.8575 70.4631 59.6802 70.8059 60.4246 70.6078L62.0239 70.1825" stroke="#D26665" stroke-width="0.6735" stroke-miterlimit="10" stroke-linecap="round" stroke-linejoin="round"/>
<path d="M53.944 61.2818C53.944 62.1612 53.2306 62.8746 52.3511 62.8746C51.4717 62.8746 50.7583 62.1612 50.7583 61.2818C50.7583 60.4024 51.4717 59.689 52.3511 59.689C53.2306 59.689 53.944 60.4024 53.944 61.2818Z" fill="#1A1A1A"/>
<path d="M68.6896 61.2818C68.6896 62.1612 67.9762 62.8746 67.0967 62.8746C66.2173 62.8746 65.5039 62.1612 65.5039 61.2818C65.5039 60.4024 66.2173 59.689 67.0967 59.689C67.9762 59.689 68.6896 60.4024 68.6896 61.2818Z" fill="#1A1A1A"/>
<path d="M55.2361 63.0269L51.2749 65.6405" stroke="#D26665" stroke-width="0.5051" stroke-miterlimit="10" stroke-linecap="round" stroke-linejoin="round"/>
<path d="M64.5874 63.0134L68.0912 65.6539" stroke="#D26665" stroke-width="0.5051" stroke-miterlimit="10" stroke-linecap="round" stroke-linejoin="round"/>
<path d="M59.896 82.238V83.9626" stroke="#D26665" stroke-width="0.5051" stroke-miterlimit="10" stroke-linecap="round" stroke-linejoin="round"/>
<path d="M56.3884 56.2368L56.4473 53.1326L50.6897 53.2365C49.9624 53.2493 49.2629 53.5118 48.7059 53.9788L46.4136 56.6182L50.228 56.0505L56.3884 56.2368Z" fill="#1A1A1A"/>
<path d="M63.1307 56.2368L63.0718 53.1326L68.8294 53.2365C69.5567 53.2493 70.2573 53.5118 70.8143 53.9788L73.1066 56.6182L69.2921 56.0505L63.1307 56.2368Z" fill="#1A1A1A"/>
<path d="M53.2549 72.6531H66.1454C66.1454 72.6531 65.4695 77.0535 59.5491 77.0535C53.6298 77.0535 53.2549 72.6531 53.2549 72.6531Z" fill="white"/>
<path opacity="0.19" d="M75.4055 62.9149C75.4055 66.7208 72.3205 69.8069 68.5135 69.8069C64.7076 69.8069 61.6216 66.7219 61.6216 62.9149C61.6216 59.1079 64.7065 56.0229 68.5135 56.0229C72.3205 56.024 75.4055 59.109 75.4055 62.9149Z" fill="white"/>
<path opacity="0.19" d="M58.4759 62.9149C58.4759 66.7208 55.3908 69.8069 51.5839 69.8069C47.778 69.8069 44.6919 66.7219 44.6919 62.9149C44.6919 59.1079 47.7769 56.0229 51.5839 56.0229C55.3908 56.024 58.4759 59.109 58.4759 62.9149Z" fill="white"/>
<path d="M58.4759 62.9149C58.4759 66.7208 55.3908 69.8069 51.5839 69.8069C47.778 69.8069 44.6919 66.7219 44.6919 62.9149C44.6919 59.1079 47.7769 56.0229 51.5839 56.0229C55.3908 56.024 58.4759 59.109 58.4759 62.9149Z" stroke="#1A1A1A" stroke-width="0.4282" stroke-miterlimit="10" stroke-linecap="round" stroke-linejoin="round"/>
<path d="M75.4055 62.9149C75.4055 66.7208 72.3205 69.8069 68.5135 69.8069C64.7076 69.8069 61.6216 66.7219 61.6216 62.9149C61.6216 59.1079 64.7065 56.0229 68.5135 56.0229C72.3205 56.024 75.4055 59.109 75.4055 62.9149Z" stroke="#1A1A1A" stroke-width="0.4282" stroke-miterlimit="10" stroke-linecap="round" stroke-linejoin="round"/>
<path d="M58.48 62.915C58.48 62.915 60.1124 61.3918 61.6271 62.915" stroke="#1A1A1A" stroke-width="0.4282" stroke-miterlimit="10" stroke-linecap="round" stroke-linejoin="round"/>
<path d="M44.6944 62.915H43.5493" stroke="#1A1A1A" stroke-width="0.4282" stroke-miterlimit="10"/>
<path d="M76.7623 62.915H75.6172" stroke="#1A1A1A" stroke-width="0.4282" stroke-miterlimit="10"/>
</g>
<defs>
<clipPath id="clip0_867_36741">
<rect width="120" height="120" rx="40" fill="white"/>
</clipPath>
</defs>
</svg>
