<svg width="120" height="120" viewBox="0 0 120 120" fill="none" xmlns="http://www.w3.org/2000/svg">
<g clip-path="url(#clip0_867_36788)">
<rect width="120" height="120" rx="60" fill="white"/>
<path d="M69.8987 69.1577C68.3507 67.6255 66.5307 66.5286 64.5908 65.8652L69.8934 60.6212C75.3606 55.218 75.3606 46.4569 69.8934 41.0537C64.4279 35.6488 55.5658 35.6488 50.1004 41.0537C44.6332 46.4569 44.6332 55.218 50.1004 60.6212C51.6073 62.1127 53.3736 63.1919 55.2562 63.8589L50.8503 68.473C50.5961 68.6924 50.3492 68.9188 50.1076 69.1577C49.3094 69.9467 48.6258 70.8083 48.0639 71.7195L52.0726 73.5064L55.3761 74.9766L55.8772 75.2013C55.9327 75.1412 55.9882 75.0828 56.0455 75.0261C58.2306 72.8659 61.7757 72.8659 63.9626 75.0261C65.2046 76.254 65.7397 77.917 65.5697 79.5182L73.3849 83C74.8541 78.262 73.6909 72.8996 69.9005 69.1541L69.8987 69.1577ZM56.0365 54.751C53.8514 52.5908 53.8514 49.0859 56.0365 46.924C58.2216 44.7602 61.7668 44.7602 63.9537 46.924C66.1424 49.0842 66.1424 52.589 63.9537 54.751L59.9969 58.8945V56.3716C58.5634 56.3716 57.13 55.832 56.0383 54.751H56.0365Z" fill="#C87A3C"/>
</g>
<defs>
<clipPath id="clip0_867_36788">
<rect width="120" height="120" rx="60" fill="white"/>
</clipPath>
</defs>
</svg>
