<svg width="400" height="102" viewBox="0 0 400 102" fill="none" xmlns="http://www.w3.org/2000/svg">
<path d="M386.939 101.561C387.525 102.146 388.475 102.146 389.061 101.561L398.607 92.0147C399.192 91.4289 399.192 90.4792 398.607 89.8934C398.021 89.3076 397.071 89.3076 396.485 89.8934L388 98.3787L379.515 89.8934C378.929 89.3076 377.979 89.3076 377.393 89.8934C376.808 90.4792 376.808 91.4289 377.393 92.0147L386.939 101.561ZM0.5 0V5.5H3.5V0H0.5ZM0.5 16.5V27.5H3.5V16.5H0.5ZM0.5 38.5V44H3.5V38.5H0.5ZM0.5 44C0.5 47.0376 2.96243 49.5 6 49.5V46.5C4.61929 46.5 3.5 45.3807 3.5 44H0.5ZM6 49.5H11.9062V46.5H6V49.5ZM23.7188 49.5H35.5312V46.5H23.7188V49.5ZM47.3438 49.5H59.1562V46.5H47.3438V49.5ZM70.9688 49.5H82.7812V46.5H70.9688V49.5ZM94.5938 49.5H106.406V46.5H94.5938V49.5ZM118.219 49.5H130.031V46.5H118.219V49.5ZM141.844 49.5H153.656V46.5H141.844V49.5ZM165.469 49.5H177.281V46.5H165.469V49.5ZM189.094 49.5H200.906V46.5H189.094V49.5ZM212.719 49.5H224.531V46.5H212.719V49.5ZM236.344 49.5H248.156V46.5H236.344V49.5ZM259.969 49.5H271.781V46.5H259.969V49.5ZM283.594 49.5H295.406V46.5H283.594V49.5ZM307.219 49.5H319.031V46.5H307.219V49.5ZM330.844 49.5H342.656V46.5H330.844V49.5ZM354.469 49.5H366.281V46.5H354.469V49.5ZM378.094 49.5H384V46.5H378.094V49.5ZM384 49.5C385.381 49.5 386.5 50.6193 386.5 52H389.5C389.5 48.9624 387.038 46.5 384 46.5V49.5ZM386.5 52V58.0625H389.5V52H386.5ZM386.5 70.1875V82.3125H389.5V70.1875H386.5ZM386.5 94.4375V100.5H389.5V94.4375H386.5Z" fill="#C1773A"/>
</svg>
