<svg width="207" height="102" viewBox="0 0 207 102" fill="none" xmlns="http://www.w3.org/2000/svg">
<path d="M10.9393 101.561C11.5251 102.146 12.4749 102.146 13.0607 101.561L22.6066 92.0147C23.1924 91.4289 23.1924 90.4792 22.6066 89.8934C22.0208 89.3076 21.0711 89.3076 20.4853 89.8934L12 98.3787L3.51472 89.8934C2.92893 89.3076 1.97919 89.3076 1.3934 89.8934C0.807611 90.4792 0.807611 91.4289 1.3934 92.0147L10.9393 101.561ZM13.5 100.5V94.4375H10.5V100.5H13.5ZM13.5 82.3125V70.1875H10.5V82.3125H13.5ZM13.5 58.0625V52H10.5V58.0625H13.5ZM13.5 52C13.5 50.6193 14.6193 49.5 16 49.5V46.5C12.9624 46.5 10.5 48.9624 10.5 52H13.5ZM16 49.5H21.7812V46.5H16V49.5ZM33.3438 49.5H44.9062V46.5H33.3438V49.5ZM56.4688 49.5H68.0312V46.5H56.4688V49.5ZM79.5938 49.5H91.1562V46.5H79.5938V49.5ZM102.719 49.5H114.281V46.5H102.719V49.5ZM125.844 49.5H137.406V46.5H125.844V49.5ZM148.969 49.5H160.531V46.5H148.969V49.5ZM172.094 49.5H183.656V46.5H172.094V49.5ZM195.219 49.5H201V46.5H195.219V49.5ZM201 49.5C204.038 49.5 206.5 47.0376 206.5 44H203.5C203.5 45.3807 202.381 46.5 201 46.5V49.5ZM206.5 44V38.5H203.5V44H206.5ZM206.5 27.5V16.5H203.5V27.5H206.5ZM206.5 5.5V0H203.5V5.5H206.5Z" fill="#C1773A"/>
</svg>
