<svg width="207" height="102" viewBox="0 0 207 102" fill="none" xmlns="http://www.w3.org/2000/svg">
<path d="M193.939 101.561C194.525 102.146 195.475 102.146 196.061 101.561L205.607 92.0147C206.192 91.4289 206.192 90.4792 205.607 89.8934C205.021 89.3076 204.071 89.3076 203.485 89.8934L195 98.3787L186.515 89.8934C185.929 89.3076 184.979 89.3076 184.393 89.8934C183.808 90.4792 183.808 91.4289 184.393 92.0147L193.939 101.561ZM0.5 0V5.5H3.5V0H0.5ZM0.5 16.5V27.5H3.5V16.5H0.5ZM0.5 38.5V44H3.5V38.5H0.5ZM0.5 44C0.5 47.0376 2.96243 49.5 6 49.5V46.5C4.61929 46.5 3.5 45.3807 3.5 44H0.5ZM6 49.5H11.7812V46.5H6V49.5ZM23.3438 49.5H34.9062V46.5H23.3438V49.5ZM46.4688 49.5H58.0312V46.5H46.4688V49.5ZM69.5938 49.5H81.1562V46.5H69.5938V49.5ZM92.7188 49.5H104.281V46.5H92.7188V49.5ZM115.844 49.5H127.406V46.5H115.844V49.5ZM138.969 49.5H150.531V46.5H138.969V49.5ZM162.094 49.5H173.656V46.5H162.094V49.5ZM185.219 49.5H191V46.5H185.219V49.5ZM191 49.5C192.381 49.5 193.5 50.6193 193.5 52H196.5C196.5 48.9624 194.038 46.5 191 46.5V49.5ZM193.5 52V58.0625H196.5V52H193.5ZM193.5 70.1875V82.3125H196.5V70.1875H193.5ZM193.5 94.4375V100.5H196.5V94.4375H193.5Z" fill="#C1773A"/>
</svg>
