<svg width="405" height="106" viewBox="0 0 405 106" fill="none" xmlns="http://www.w3.org/2000/svg">
<path d="M391.939 105.463C392.525 106.049 393.475 106.049 394.061 105.463L403.607 95.9174C404.192 95.3316 404.192 94.3818 403.607 93.796C403.021 93.2103 402.071 93.2103 401.485 93.796L393 102.281L384.515 93.796C383.929 93.2103 382.979 93.2103 382.393 93.796C381.808 94.3818 381.808 95.3316 382.393 95.9174L391.939 105.463ZM0.438477 0.167969V6.01464H3.43848V0.167969H0.438477ZM0.438477 17.708V29.4013H3.43848V17.708H0.438477ZM0.438477 41.0946V46.9413H3.43848V41.0946H0.438477ZM0.438477 46.9413C0.438477 49.9789 2.90091 52.4413 5.93848 52.4413V49.4413C4.55777 49.4413 3.43848 48.322 3.43848 46.9413H0.438477ZM5.93848 52.4413H11.9238V49.4413H5.93848V52.4413ZM23.8945 52.4413H35.8652V49.4413H23.8945V52.4413ZM47.8358 52.4413H59.8065V49.4413H47.8358V52.4413ZM71.7772 52.4413H83.7478V49.4413H71.7772V52.4413ZM95.7185 52.4413H107.689V49.4413H95.7185V52.4413ZM119.66 52.4413H131.631V49.4413H119.66V52.4413ZM143.601 52.4413H155.572V49.4413H143.601V52.4413ZM167.543 52.4413H179.513V49.4413H167.543V52.4413ZM191.484 52.4413H203.455V49.4413H191.484V52.4413ZM215.425 52.4413H227.396V49.4413H215.425V52.4413ZM239.367 52.4413H251.337V49.4413H239.367V52.4413ZM263.308 52.4413H275.279V49.4413H263.308V52.4413ZM287.249 52.4413H299.22V49.4413H287.249V52.4413ZM311.191 52.4413H323.161V49.4413H311.191V52.4413ZM335.132 52.4413H347.103V49.4413H335.132V52.4413ZM359.073 52.4413H371.044V49.4413H359.073V52.4413ZM383.015 52.4413H389V49.4413H383.015V52.4413ZM389 52.4413C390.381 52.4413 391.5 53.5606 391.5 54.9413H394.5C394.5 51.9037 392.037 49.4413 389 49.4413V52.4413ZM391.5 54.9413V61.124H394.5V54.9413H391.5ZM391.5 73.4893V85.8546H394.5V73.4893H391.5ZM391.5 98.22V104.403H394.5V98.22H391.5Z" fill="#C1773A"/>
</svg>
