<svg width="24" height="102" viewBox="0 0 24 102" fill="none" xmlns="http://www.w3.org/2000/svg">
<path d="M10.9393 101.561C11.5251 102.146 12.4749 102.146 13.0607 101.561L22.6066 92.0147C23.1924 91.4289 23.1924 90.4792 22.6066 89.8934C22.0208 89.3076 21.0711 89.3076 20.4853 89.8934L12 98.3787L3.51472 89.8934C2.92893 89.3076 1.97919 89.3076 1.3934 89.8934C0.807611 90.4792 0.807611 91.4289 1.3934 92.0147L10.9393 101.561ZM10.5 0V6.28125H13.5V0H10.5ZM10.5 18.8438V31.4062H13.5V18.8438H10.5ZM10.5 43.9688V56.5312H13.5V43.9688H10.5ZM10.5 69.0938V81.6562H13.5V69.0938H10.5ZM10.5 94.2188V100.5H13.5V94.2188H10.5Z" fill="#C1773A"/>
</svg>
