<svg width="406" height="116" viewBox="0 0 406 116" fill="none" xmlns="http://www.w3.org/2000/svg">
<path d="M10.9393 115.561C11.5251 116.146 12.4749 116.146 13.0607 115.561L22.6066 106.015C23.1924 105.429 23.1924 104.479 22.6066 103.893C22.0208 103.308 21.0711 103.308 20.4853 103.893L12 112.379L3.51472 103.893C2.92893 103.308 1.97919 103.308 1.3934 103.893C0.807611 104.479 0.807611 105.429 1.3934 106.015L10.9393 115.561ZM13.5 114.5V108.438H10.5V114.5H13.5ZM13.5 96.3125V84.1875H10.5V96.3125H13.5ZM13.5 72.0625V66H10.5V72.0625H13.5ZM13.5 66C13.5 64.6193 14.6193 63.5 16 63.5V60.5C12.9624 60.5 10.5 62.9624 10.5 66H13.5ZM16 63.5H21.9062V60.5H16V63.5ZM33.7188 63.5H45.5312V60.5H33.7188V63.5ZM57.3438 63.5H69.1562V60.5H57.3438V63.5ZM80.9688 63.5H92.7812V60.5H80.9688V63.5ZM104.594 63.5H116.406V60.5H104.594V63.5ZM128.219 63.5H140.031V60.5H128.219V63.5ZM151.844 63.5H163.656V60.5H151.844V63.5ZM175.469 63.5H187.281V60.5H175.469V63.5ZM199.094 63.5H210.906V60.5H199.094V63.5ZM222.719 63.5H234.531V60.5H222.719V63.5ZM246.344 63.5H258.156V60.5H246.344V63.5ZM269.969 63.5H281.781V60.5H269.969V63.5ZM293.594 63.5H305.406V60.5H293.594V63.5ZM317.219 63.5H329.031V60.5H317.219V63.5ZM340.844 63.5H352.656V60.5H340.844V63.5ZM364.469 63.5H376.281V60.5H364.469V63.5ZM388.094 63.5H394V60.5H388.094V63.5ZM394 63.5C397.038 63.5 399.5 61.0376 399.5 58H396.5C396.5 59.3807 395.381 60.5 394 60.5V63.5ZM399.5 58V52.5H396.5V58H399.5ZM399.5 41.5V30.5H396.5V41.5H399.5ZM399.5 19.5V14H396.5V19.5H399.5Z" fill="#C1773A"/>
<circle cx="398" cy="8" r="6" stroke="#C1773A" stroke-width="3"/>
</svg>
