<svg width="161" height="106" viewBox="0 0 161 106" fill="none" xmlns="http://www.w3.org/2000/svg">
<path d="M147.939 105.463C148.525 106.049 149.475 106.049 150.061 105.463L159.607 95.9174C160.192 95.3316 160.192 94.3818 159.607 93.796C159.021 93.2103 158.071 93.2103 157.485 93.796L149 102.281L140.515 93.796C139.929 93.2103 138.979 93.2103 138.393 93.796C137.808 94.3818 137.808 95.3316 138.393 95.9174L147.939 105.463ZM0.852051 0.167969V6.01464H3.85205V0.167969H0.852051ZM0.852051 17.708V29.4013H3.85205V17.708H0.852051ZM0.852051 41.0946V46.9413H3.85205V41.0946H0.852051ZM0.852051 46.9413C0.852051 49.9789 3.31448 52.4413 6.35205 52.4413V49.4413C4.97134 49.4413 3.85205 48.322 3.85205 46.9413H0.852051ZM6.35205 52.4413H12.1291V49.4413H6.35205V52.4413ZM23.6831 52.4413H35.2371V49.4413H23.6831V52.4413ZM46.7911 52.4413H58.3451V49.4413H46.7911V52.4413ZM69.8991 52.4413H81.4531V49.4413H69.8991V52.4413ZM93.0071 52.4413H104.561V49.4413H93.0071V52.4413ZM116.115 52.4413H127.669V49.4413H116.115V52.4413ZM139.223 52.4413H145V49.4413H139.223V52.4413ZM145 52.4413C146.381 52.4413 147.5 53.5606 147.5 54.9413H150.5C150.5 51.9037 148.038 49.4413 145 49.4413V52.4413ZM147.5 54.9413V61.124H150.5V54.9413H147.5ZM147.5 73.4893V85.8546H150.5V73.4893H147.5ZM147.5 98.22V104.403H150.5V98.22H147.5Z" fill="#C1773A"/>
</svg>
