<svg width="147" height="107" viewBox="0 0 147 107" fill="none" xmlns="http://www.w3.org/2000/svg">
<path d="M10.9393 106.061C11.5251 106.646 12.4749 106.646 13.0607 106.061L22.6066 96.5147C23.1924 95.9289 23.1924 94.9791 22.6066 94.3934C22.0208 93.8076 21.0711 93.8076 20.4853 94.3934L12 102.879L3.51472 94.3934C2.92893 93.8076 1.97919 93.8076 1.3934 94.3934C0.807611 94.9791 0.807611 95.9289 1.3934 96.5147L10.9393 106.061ZM13.5 105V98.78H10.5V105H13.5ZM13.5 86.34V73.9H10.5V86.34H13.5ZM13.5 61.46V55.24H10.5V61.46H13.5ZM13.5 55.24C13.5 53.8593 14.6193 52.74 16 52.74V49.74C12.9624 49.74 10.5 52.2024 10.5 55.24H13.5ZM16 52.74H22.2532V49.74H16V52.74ZM34.7597 52.74H47.2662V49.74H34.7597V52.74ZM59.7727 52.74H72.2791V49.74H59.7727V52.74ZM84.7856 52.74H97.2921V49.74H84.7856V52.74ZM109.799 52.74H122.305V49.74H109.799V52.74ZM134.812 52.74H141.065V49.74H134.812V52.74ZM141.065 52.74C144.102 52.74 146.565 50.2775 146.565 47.24H143.565C143.565 48.6207 142.445 49.74 141.065 49.74V52.74ZM146.565 47.24V41.356H143.565V47.24H146.565ZM146.565 29.588V17.82H143.565V29.588H146.565ZM146.565 6.05197V0.167969H143.565V6.05197H146.565Z" fill="#C1773A"/>
</svg>
