<svg width="395" height="107" viewBox="0 0 395 107" fill="none" xmlns="http://www.w3.org/2000/svg">
<path d="M10.9393 106.061C11.5251 106.646 12.4749 106.646 13.0607 106.061L22.6066 96.5147C23.1924 95.9289 23.1924 94.9792 22.6066 94.3934C22.0208 93.8076 21.0711 93.8076 20.4853 94.3934L12 102.879L3.51472 94.3934C2.92893 93.8076 1.97919 93.8076 1.3934 94.3934C0.807611 94.9792 0.807611 95.9289 1.3934 96.5147L10.9393 106.061ZM13.5 105V98.78H10.5V105H13.5ZM13.5 86.34V73.9H10.5V86.34H13.5ZM13.5 61.46V55.24H10.5V61.46H13.5ZM13.5 55.24C13.5 53.8593 14.6193 52.74 16 52.74V49.74C12.9624 49.74 10.5 52.2024 10.5 55.24H13.5ZM16 52.74H21.8219V49.74H16V52.74ZM33.4658 52.74H45.1097V49.74H33.4658V52.74ZM56.7536 52.74H68.3975V49.74H56.7536V52.74ZM80.0414 52.74H91.6852V49.74H80.0414V52.74ZM103.329 52.74H114.973V49.74H103.329V52.74ZM126.617 52.74H138.261V49.74H126.617V52.74ZM149.905 52.74H161.549V49.74H149.905V52.74ZM173.192 52.74H184.836V49.74H173.192V52.74ZM196.48 52.74H208.124V49.74H196.48V52.74ZM219.768 52.74H231.412V49.74H219.768V52.74ZM243.056 52.74H254.7V49.74H243.056V52.74ZM266.344 52.74H277.987V49.74H266.344V52.74ZM289.631 52.74H301.275V49.74H289.631V52.74ZM312.919 52.74H324.563V49.74H312.919V52.74ZM336.207 52.74H347.851V49.74H336.207V52.74ZM359.495 52.74H371.139V49.74H359.495V52.74ZM382.782 52.74H388.604V49.74H382.782V52.74ZM388.604 52.74C391.642 52.74 394.104 50.2775 394.104 47.24H391.104C391.104 48.6207 389.985 49.74 388.604 49.74V52.74ZM394.104 47.24V41.356H391.104V47.24H394.104ZM394.104 29.588V17.82H391.104V29.588H394.104ZM394.104 6.05197V0.167969H391.104V6.05197H394.104Z" fill="#C1773A"/>
</svg>
