<svg width="28" height="46" viewBox="0 0 28 46" fill="none" xmlns="http://www.w3.org/2000/svg">
<path d="M23.8987 32.1577C22.3507 30.6255 20.5307 29.5286 18.5908 28.8652L23.8934 23.6212C29.3606 18.218 29.3606 9.45689 23.8934 4.05371C18.4279 -1.35124 9.56584 -1.35124 4.10041 4.05371C-1.3668 9.45689 -1.3668 18.218 4.10041 23.6212C5.60725 25.1127 7.37359 26.1919 9.25624 26.8589L4.85026 31.473C4.59613 31.6924 4.34917 31.9188 4.10757 32.1577C3.30941 32.9467 2.62579 33.8083 2.06385 34.7195L6.07255 36.5064L9.37615 37.9766L9.87723 38.2013C9.93271 38.1412 9.98819 38.0828 10.0455 38.0261C12.2306 35.8659 15.7757 35.8659 17.9626 38.0261C19.2046 39.254 19.7397 40.917 19.5697 42.5182L27.3849 46C28.8541 41.262 27.6909 35.8996 23.9005 32.1541L23.8987 32.1577ZM10.0365 17.751C7.85141 15.5908 7.85141 12.0859 10.0365 9.92396C12.2216 7.76021 15.7668 7.76021 17.9537 9.92396C20.1424 12.0842 20.1424 15.589 17.9537 17.751L13.9969 21.8945V19.3716C12.5634 19.3716 11.13 18.832 10.0383 17.751H10.0365Z" fill="#C87A3C"/>
</svg>
