<svg width="243" height="164" viewBox="0 0 243 164" fill="none" xmlns="http://www.w3.org/2000/svg">
<g filter="url(#filter0_d_867_37314)">
<rect x="54.5" y="45" width="134" height="56" rx="28" fill="white" shape-rendering="crispEdges"/>
<g clip-path="url(#clip0_867_37314)">
<path d="M83.3433 73.6504C81.9513 73.6504 80.8223 74.7794 80.8223 76.1714V82.4774C80.8223 83.8694 81.9513 84.9984 83.3433 84.9984C84.7353 84.9984 85.8643 83.8694 85.8643 82.4774V76.1714C85.8633 74.7794 84.7343 73.6504 83.3433 73.6504Z" fill="#E91E63"/>
<path d="M74.5176 76.1719C74.5176 77.5649 75.6476 78.6949 77.0406 78.6949C78.4336 78.6949 79.5636 77.5649 79.5636 76.1719V73.6489H77.0426C77.0416 73.6489 77.0416 73.6489 77.0406 73.6489C75.6476 73.6489 74.5176 74.7789 74.5176 76.1719Z" fill="#E91E63"/>
<path d="M83.3453 60.9985C83.3443 60.9985 83.3433 60.9985 83.3423 60.9985C81.9493 60.9985 80.8193 62.1285 80.8193 63.5215C80.8193 64.9145 81.9493 66.0445 83.3423 66.0445H85.8633V63.5215C85.8633 63.5205 85.8633 63.5185 85.8633 63.5165C85.8623 62.1255 84.7353 60.9985 83.3453 60.9985Z" fill="#00BCD4"/>
<path d="M77.0259 72.3697H83.3439C84.7369 72.3697 85.8669 71.2397 85.8669 69.8467C85.8669 68.4537 84.7369 67.3237 83.3439 67.3237H77.0259C75.6329 67.3237 74.5029 68.4537 74.5029 69.8467C74.5029 71.2397 75.6329 72.3697 77.0259 72.3697Z" fill="#00BCD4"/>
<path d="M95.9584 67.3237C94.5674 67.3237 93.4404 68.4507 93.4404 69.8417V69.8467V72.3697H95.9614C97.3544 72.3697 98.4844 71.2397 98.4844 69.8467C98.4844 68.4537 97.3544 67.3237 95.9614 67.3237C95.9604 67.3237 95.9594 67.3237 95.9584 67.3237Z" fill="#4CAF50"/>
<path d="M87.1416 63.5225V69.8475C87.1416 71.2395 88.2706 72.3685 89.6626 72.3685C91.0546 72.3685 92.1836 71.2395 92.1836 69.8475V63.5225C92.1836 62.1305 91.0546 61.0015 89.6626 61.0015C88.2706 61.0015 87.1416 62.1305 87.1416 63.5225Z" fill="#4CAF50"/>
<path d="M92.1836 82.4761C92.1836 81.0841 91.0546 79.9551 89.6626 79.9551H87.1416V82.4781C87.1426 83.8691 88.2706 84.9971 89.6626 84.9971C91.0546 84.9971 92.1836 83.8681 92.1836 82.4761Z" fill="#FF9800"/>
<path d="M95.9797 73.6489H89.6617C88.2687 73.6489 87.1387 74.7789 87.1387 76.1719C87.1387 77.5649 88.2687 78.6949 89.6617 78.6949H95.9797C97.3727 78.6949 98.5027 77.5649 98.5027 76.1719C98.5027 74.7789 97.3727 73.6489 95.9797 73.6489Z" fill="#FF9800"/>
</g>
<path d="M116.68 80.16C115.613 80.16 114.593 80 113.62 79.68C112.647 79.3467 111.88 78.92 111.32 78.4L112.06 76.84C112.593 77.3067 113.273 77.6933 114.1 78C114.927 78.3067 115.787 78.46 116.68 78.46C117.493 78.46 118.153 78.3667 118.66 78.18C119.167 77.9933 119.54 77.74 119.78 77.42C120.02 77.0867 120.14 76.7133 120.14 76.3C120.14 75.82 119.98 75.4333 119.66 75.14C119.353 74.8467 118.947 74.6133 118.44 74.44C117.947 74.2533 117.4 74.0933 116.8 73.96C116.2 73.8267 115.593 73.6733 114.98 73.5C114.38 73.3133 113.827 73.08 113.32 72.8C112.827 72.52 112.427 72.1467 112.12 71.68C111.813 71.2 111.66 70.5867 111.66 69.84C111.66 69.12 111.847 68.46 112.22 67.86C112.607 67.2467 113.193 66.76 113.98 66.4C114.78 66.0267 115.793 65.84 117.02 65.84C117.833 65.84 118.64 65.9467 119.44 66.16C120.24 66.3733 120.933 66.68 121.52 67.08L120.86 68.68C120.26 68.28 119.627 67.9933 118.96 67.82C118.293 67.6333 117.647 67.54 117.02 67.54C116.233 67.54 115.587 67.64 115.08 67.84C114.573 68.04 114.2 68.3067 113.96 68.64C113.733 68.9733 113.62 69.3467 113.62 69.76C113.62 70.2533 113.773 70.6467 114.08 70.94C114.4 71.2333 114.807 71.4667 115.3 71.64C115.807 71.8133 116.36 71.9733 116.96 72.12C117.56 72.2533 118.16 72.4067 118.76 72.58C119.373 72.7533 119.927 72.98 120.42 73.26C120.927 73.54 121.333 73.9133 121.64 74.38C121.947 74.8467 122.1 75.4467 122.1 76.18C122.1 76.8867 121.907 77.5467 121.52 78.16C121.133 78.76 120.533 79.2467 119.72 79.62C118.92 79.98 117.907 80.16 116.68 80.16ZM124.742 80V65.16H126.662V80H124.742ZM136.908 80V77.76L136.808 77.34V73.52C136.808 72.7067 136.568 72.08 136.088 71.64C135.621 71.1867 134.914 70.96 133.968 70.96C133.341 70.96 132.728 71.0667 132.128 71.28C131.528 71.48 131.021 71.7533 130.608 72.1L129.808 70.66C130.354 70.22 131.008 69.8867 131.768 69.66C132.541 69.42 133.348 69.3 134.188 69.3C135.641 69.3 136.761 69.6533 137.548 70.36C138.334 71.0667 138.728 72.1467 138.728 73.6V80H136.908ZM133.428 80.12C132.641 80.12 131.948 79.9867 131.348 79.72C130.761 79.4533 130.308 79.0867 129.988 78.62C129.668 78.14 129.508 77.6 129.508 77C129.508 76.4267 129.641 75.9067 129.908 75.44C130.188 74.9733 130.634 74.6 131.248 74.32C131.874 74.04 132.714 73.9 133.768 73.9H137.128V75.28H133.848C132.888 75.28 132.241 75.44 131.908 75.76C131.574 76.08 131.408 76.4667 131.408 76.92C131.408 77.44 131.614 77.86 132.028 78.18C132.441 78.4867 133.014 78.64 133.748 78.64C134.468 78.64 135.094 78.48 135.628 78.16C136.174 77.84 136.568 77.3733 136.808 76.76L137.188 78.08C136.934 78.7067 136.488 79.2067 135.848 79.58C135.208 79.94 134.401 80.12 133.428 80.12ZM146.901 80.12C145.821 80.12 144.854 79.8867 144.001 79.42C143.161 78.9533 142.501 78.3133 142.021 77.5C141.541 76.6867 141.301 75.7533 141.301 74.7C141.301 73.6467 141.541 72.7133 142.021 71.9C142.501 71.0867 143.161 70.4533 144.001 70C144.854 69.5333 145.821 69.3 146.901 69.3C147.861 69.3 148.714 69.4933 149.461 69.88C150.221 70.2533 150.808 70.8133 151.221 71.56L149.761 72.5C149.414 71.98 148.988 71.6 148.481 71.36C147.988 71.1067 147.454 70.98 146.881 70.98C146.188 70.98 145.568 71.1333 145.021 71.44C144.474 71.7467 144.041 72.18 143.721 72.74C143.401 73.2867 143.241 73.94 143.241 74.7C143.241 75.46 143.401 76.12 143.721 76.68C144.041 77.24 144.474 77.6733 145.021 77.98C145.568 78.2867 146.188 78.44 146.881 78.44C147.454 78.44 147.988 78.32 148.481 78.08C148.988 77.8267 149.414 77.44 149.761 76.92L151.221 77.84C150.808 78.5733 150.221 79.14 149.461 79.54C148.714 79.9267 147.861 80.12 146.901 80.12ZM155.13 77.44L155.17 74.98L161.27 69.4H163.59L158.91 74L157.87 74.88L155.13 77.44ZM153.57 80V65.16H155.49V80H153.57ZM161.67 80L157.51 74.84L158.75 73.3L164.03 80H161.67Z" fill="black"/>
</g>
<defs>
<filter id="filter0_d_867_37314" x="0.5" y="0" width="242" height="164" filterUnits="userSpaceOnUse" color-interpolation-filters="sRGB">
<feFlood flood-opacity="0" result="BackgroundImageFix"/>
<feColorMatrix in="SourceAlpha" type="matrix" values="0 0 0 0 0 0 0 0 0 0 0 0 0 0 0 0 0 0 127 0" result="hardAlpha"/>
<feMorphology radius="8" operator="dilate" in="SourceAlpha" result="effect1_dropShadow_867_37314"/>
<feOffset dy="9"/>
<feGaussianBlur stdDeviation="23"/>
<feComposite in2="hardAlpha" operator="out"/>
<feColorMatrix type="matrix" values="0 0 0 0 0.784314 0 0 0 0 0.478431 0 0 0 0 0.235294 0 0 0 0.4 0"/>
<feBlend mode="normal" in2="BackgroundImageFix" result="effect1_dropShadow_867_37314"/>
<feBlend mode="normal" in="SourceGraphic" in2="effect1_dropShadow_867_37314" result="shape"/>
</filter>
<clipPath id="clip0_867_37314">
<rect width="24" height="24" fill="white" transform="translate(74.5 61)"/>
</clipPath>
</defs>
</svg>
