<svg width="98" height="98" viewBox="0 0 98 98" fill="none" xmlns="http://www.w3.org/2000/svg">
<rect y="20.7051" width="80" height="80" rx="20" transform="rotate(-15 0 20.7051)" fill="white"/>
<g clip-path="url(#clip0_867_36926)">
<path d="M31.0796 68.6963L32.736 74.8782C33.1935 76.5853 34.9481 77.5984 36.6552 77.141L73.7467 67.2023C75.4538 66.7449 76.4669 64.9903 76.0095 63.2832L74.353 57.1012L31.0796 68.6963Z" fill="#B5DBFF"/>
<path d="M72.2075 57.6762L73.864 63.8583C74.3214 65.5653 73.3084 67.3199 71.6014 67.7773L73.747 67.2024C75.4541 66.7449 76.4671 64.9903 76.0097 63.2833L74.3533 57.1013L72.2075 57.6762Z" fill="#97D0FF"/>
<path d="M24.4541 43.9685L31.9081 71.7872C32.3655 73.4942 34.1201 74.5072 35.8271 74.0498L72.9188 64.1111C74.6258 63.6537 75.6389 61.8991 75.1815 60.1921L67.7275 32.3734L24.4541 43.9685Z" fill="#EDF5FF"/>
<path d="M65.5817 32.9484L73.0356 60.7671C73.493 62.4741 72.48 64.2287 70.7729 64.6861L72.9185 64.1112C74.6256 63.6538 75.6387 61.8991 75.1813 60.1921L67.7273 32.3735L65.5817 32.9484Z" fill="#D5E8FE"/>
<path d="M68.1413 33.9191L66.0707 26.1916C65.6133 24.4845 63.8587 23.4715 62.1516 23.929L25.0601 33.8676C23.353 34.325 22.34 36.0796 22.7974 37.7866L24.868 45.5141L68.1413 33.9191Z" fill="#FF435B"/>
<path d="M32.2578 36.0016L30.7123 36.4157C30.3259 36.5192 29.9287 36.2899 29.8252 35.9035C29.7216 35.5171 29.951 35.1199 30.3374 35.0164L31.8829 34.6023C32.2693 34.4987 32.6665 34.7281 32.77 35.1145C32.8735 35.5009 32.6442 35.8981 32.2578 36.0016Z" fill="#E3374E"/>
<path d="M36.8944 34.7594L35.349 35.1735C34.9626 35.2771 34.5654 35.0477 34.4619 34.6613C34.3584 34.2749 34.5877 33.8777 34.9741 33.7742L36.5195 33.3601C36.9059 33.2566 37.3031 33.4859 37.4066 33.8723C37.5102 34.2587 37.2809 34.6559 36.8944 34.7594Z" fill="#E3374E"/>
<path d="M53.8944 30.2043L52.349 30.6183C51.9626 30.7219 51.5654 30.4926 51.4619 30.1062C51.3584 29.7198 51.5877 29.3226 51.9741 29.219L53.5195 28.8049C53.9059 28.7014 54.3031 28.9307 54.4066 29.3171C54.5102 29.7035 54.2808 30.1007 53.8944 30.2043Z" fill="#E3374E"/>
<path d="M58.5313 28.9618L56.9857 29.3759C56.5993 29.4795 56.2021 29.2501 56.0986 28.8637C55.9951 28.4773 56.2244 28.0801 56.6108 27.9766L58.1563 27.5625C58.5427 27.4589 58.9399 27.6883 59.0435 28.0747C59.147 28.4611 58.9177 28.8583 58.5313 28.9618Z" fill="#E3374E"/>
<path d="M32.0706 35.302C32.2993 36.1555 33.1766 36.6622 34.0302 36.4334C34.8838 36.2047 35.3903 35.3274 35.1616 34.4738L33.9193 29.8374C33.6905 28.9838 32.8132 28.4773 31.9596 28.706C31.106 28.9347 30.5995 29.812 30.8282 30.6656L32.0706 35.302Z" fill="#596C76"/>
<path d="M53.7072 29.5045C53.9359 30.358 54.8133 30.8646 55.6669 30.6359C56.5205 30.4071 57.027 29.5298 56.7983 28.6762L55.5559 24.0398C55.3272 23.1862 54.4499 22.6797 53.5963 22.9084C52.7427 23.1371 52.2362 24.0144 52.4649 24.868L53.7072 29.5045Z" fill="#596C76"/>
<path d="M62.1515 23.9287L60.0059 24.5037C61.7129 24.0462 63.4676 25.0593 63.925 26.7663L65.9956 34.4939L68.1412 33.9189L66.0706 26.1915C65.6132 24.4844 63.8586 23.4713 62.1515 23.9287Z" fill="#E3374E"/>
<path d="M23.8525 41.7234L67.126 30.1283L67.5009 31.5276L24.2275 43.1227L23.8525 41.7234Z" fill="#E3374E"/>
<path d="M47.0323 55.3112C47.8919 53.9455 48.204 52.2404 47.7544 50.5625C46.8981 47.3668 43.6016 45.4636 40.4059 46.3199C37.2102 47.1762 35.307 50.4727 36.1633 53.6684C36.392 54.5219 37.2693 55.0285 38.1229 54.7998C38.9764 54.5711 39.483 53.6937 39.2543 52.8401C38.8547 51.3488 39.7428 49.8104 41.2342 49.4108C42.7255 49.0112 44.2639 49.8993 44.6635 51.3907C45.0632 52.8821 44.175 54.4204 42.6836 54.82C41.8301 55.0487 41.3235 55.9261 41.5522 56.7797C41.7809 57.6333 42.6583 58.1398 43.5119 57.9111C45.0032 57.5115 46.5416 58.3996 46.9412 59.891C47.3408 61.3823 46.4527 62.9207 44.9613 63.3203C43.4699 63.7199 41.9316 62.8318 41.5319 61.3404C41.3032 60.4868 40.4259 59.9803 39.5723 60.209C38.7188 60.4377 38.2122 61.315 38.4409 62.1686C39.2972 65.3643 42.5937 67.2676 45.7894 66.4113C48.9851 65.555 50.8883 62.2585 50.032 59.0628C49.5824 57.3848 48.4596 56.0642 47.0323 55.3112Z" fill="#596C76"/>
<path d="M60.4715 62.4771C57.2758 63.3334 53.9793 61.4301 53.123 58.2345L50.8454 49.7343C49.9891 46.5386 51.8923 43.2421 55.088 42.3858C58.2837 41.5295 61.5802 43.4328 62.4365 46.6284L64.7141 55.1286C65.5704 58.3242 63.6671 61.6208 60.4715 62.4771ZM55.9162 45.4767C54.4249 45.8763 53.5367 47.4147 53.9363 48.9061L56.2139 57.4062C56.6135 58.8976 58.1519 59.7858 59.6433 59.3862C61.1346 58.9866 62.0228 57.4482 61.6232 55.9568L59.3456 47.4567C58.9459 45.9654 57.4076 45.0771 55.9162 45.4767Z" fill="#596C76"/>
</g>
<defs>
<clipPath id="clip0_867_36926">
<rect width="48" height="48" fill="white" transform="translate(19.5957 32.0188) rotate(-15)"/>
</clipPath>
</defs>
</svg>
