<svg width="98" height="99" viewBox="0 0 98 99" fill="none" xmlns="http://www.w3.org/2000/svg">
<rect y="20.7637" width="80" height="80" rx="20" transform="rotate(-15 0 20.7637)" fill="white"/>
<g clip-path="url(#clip0_867_36885)">
<path d="M63.4057 28.412L54.5987 23.3272C54.1223 23.0522 53.556 22.9776 53.0247 23.12C52.4347 23.2781 35.781 27.7404 34.8952 27.9778C34.1262 28.1838 33.6699 28.9741 33.8759 29.7428L35.2388 34.8291L45.0191 32.2085C45.5501 32.0662 46.1164 32.1408 46.5927 32.4158L54.8085 37.1589C55.2848 37.4339 55.6322 37.8871 55.7746 38.4184L62.5782 63.8097L71.3943 61.4475C72.1633 61.2414 72.6195 60.4511 72.4135 59.6821C71.9284 57.8717 64.865 31.5108 64.3721 29.6711C64.2297 29.1398 63.882 28.687 63.4057 28.412Z" fill="#8BCAFF"/>
<path d="M57.6073 36.4096L49.3917 31.6661C48.915 31.3912 48.3491 31.3165 47.8178 31.4588C47.6749 31.4971 46.5917 31.7873 45.019 32.2087C45.5503 32.0664 46.1167 32.141 46.593 32.416L54.8085 37.1595C55.2849 37.4345 55.6325 37.8873 55.7749 38.4186L62.5785 63.8099L65.3772 63.06C63.2034 54.9471 58.9521 39.0812 58.5736 37.6687C58.4312 37.1374 58.0836 36.6846 57.6073 36.4096Z" fill="#60B8FF"/>
<path d="M37.6936 27.2279C36.1704 27.6361 35.1022 27.9223 34.8952 27.9778C34.1262 28.1838 33.6699 28.9741 33.8759 29.7428L35.2388 34.8291L38.0375 34.0792L36.6746 28.9928C36.4687 28.2242 36.9249 27.4339 37.6936 27.2279Z" fill="#60B8FF"/>
<path d="M59.358 35.4987L54.2861 36.8577L54.8083 37.1594C55.2846 37.4344 55.6323 37.8872 55.7746 38.4185L55.8376 38.6534L59.9108 37.562C60.4803 37.4094 60.8185 36.8236 60.6659 36.2541C60.5132 35.6843 59.9275 35.3461 59.358 35.4987Z" fill="#22A7FF"/>
<path d="M60.6055 40.1554L56.5322 41.2468L57.0851 43.3101L61.1583 42.2187C61.7278 42.0661 62.066 41.4804 61.9133 40.9105C61.7607 40.341 61.175 40.0028 60.6055 40.1554Z" fill="#22A7FF"/>
<path d="M61.853 44.8119L57.7798 45.9033L58.3327 47.9666L62.4059 46.8752C62.9754 46.7226 63.3136 46.1369 63.1609 45.567C63.0083 44.9975 62.4225 44.6593 61.853 44.8119Z" fill="#22A7FF"/>
<path d="M63.1011 49.4684L59.0278 50.5598L59.5807 52.6231L63.6539 51.5317C64.2234 51.3791 64.5616 50.7934 64.409 50.2238C64.2563 49.654 63.6706 49.3158 63.1011 49.4684Z" fill="#22A7FF"/>
<path d="M64.3486 54.1249L60.2754 55.2163L60.8283 57.2796L64.9015 56.1882C65.471 56.0356 65.8092 55.4499 65.6566 54.8803C65.5039 54.3105 64.9181 53.9723 64.3486 54.1249Z" fill="#22A7FF"/>
<path d="M53.0245 23.1201C53.5558 22.9778 54.1222 23.0524 54.5985 23.3274L63.4055 28.4121C63.8818 28.6871 64.2295 29.1399 64.3719 29.6712L64.3822 29.7098L56.4996 31.8219C55.8894 31.9854 55.262 31.6231 55.0985 31.0129L52.9863 23.1304L53.0245 23.1201Z" fill="#22A7FF"/>
<path d="M57.8977 30.263L56.3029 24.3111L54.599 23.3274C54.1226 23.0524 53.5563 22.9778 53.025 23.1201C53.0165 23.1224 53.0034 23.1259 52.9868 23.1304L55.0989 31.0129C55.2624 31.6231 55.8899 31.9854 56.5001 31.8219L59.2985 31.0721C58.6887 31.2355 58.0612 30.8732 57.8977 30.263Z" fill="#0094FD"/>
<path d="M60.1029 35.5717C59.9637 35.7781 59.7532 35.9376 59.4943 36.007L54.9216 37.2323C55.339 37.5109 55.6441 37.9308 55.7748 38.4185L55.8377 38.6534L59.9109 37.562C60.4804 37.4094 60.8186 36.8236 60.6659 36.2538C60.5828 35.9436 60.3704 35.7025 60.1029 35.5717Z" fill="#0094FD"/>
<path d="M61.3505 40.2282C61.2113 40.4346 61.0008 40.5942 60.7419 40.6635L56.6686 41.755L57.0853 43.31L61.1585 42.2185C61.728 42.0659 62.0662 41.4802 61.9136 40.9107C61.8304 40.6001 61.618 40.359 61.3505 40.2282Z" fill="#0094FD"/>
<path d="M62.5981 44.8847C62.4589 45.0911 62.2484 45.2507 61.9894 45.32L57.9162 46.4115L58.3329 47.9665L62.4061 46.875C62.9756 46.7224 63.3138 46.1367 63.1612 45.5672C63.0779 45.2562 62.8655 45.0155 62.5981 44.8847Z" fill="#0094FD"/>
<path d="M63.8461 49.5412C63.7069 49.7476 63.4964 49.9071 63.2375 49.9765L59.1642 51.0679L59.5809 52.623L63.6541 51.5315C64.2236 51.3789 64.5618 50.7932 64.4092 50.2237C64.326 49.9131 64.1137 49.6724 63.8461 49.5412Z" fill="#0094FD"/>
<path d="M65.0937 54.1977C64.9545 54.4041 64.7441 54.564 64.4851 54.6334L60.4119 55.7248L60.8285 57.2794L64.9017 56.188C65.4712 56.0354 65.8094 55.4497 65.6568 54.8802C65.5736 54.5696 65.3612 54.3289 65.0937 54.1977Z" fill="#0094FD"/>
<path d="M37.5764 76.9528L63.2634 70.07C64.0324 69.864 64.4887 69.0737 64.2827 68.305C63.7975 66.4943 56.7343 40.1337 56.2412 38.2936C56.0988 37.7623 55.7512 37.3095 55.2748 37.0345L46.4677 31.9494C45.9914 31.6744 45.4252 31.6002 44.8942 31.7424C44.3038 31.9006 27.6501 36.363 26.7644 36.6003C25.9953 36.8064 25.5391 37.5967 25.745 38.3653L35.8114 75.9335C36.0175 76.7025 36.8077 77.1588 37.5764 76.9528Z" fill="#D9EDFF"/>
<path d="M38.6102 75.1839L28.5438 37.6154C28.3378 36.8467 28.7941 36.0565 29.5627 35.8505C28.0396 36.2586 26.9713 36.5449 26.764 36.6004C25.9953 36.8064 25.5391 37.5967 25.745 38.3653L35.8114 75.9335C36.0175 76.7025 36.8077 77.1588 37.5764 76.9528L40.3751 76.2029C39.6065 76.4089 38.8162 75.9526 38.6102 75.1839Z" fill="#B4DBFF"/>
<path d="M44.8942 31.7424C45.4255 31.6001 45.9918 31.6747 46.468 31.9493L55.2751 37.0344C55.7515 37.3094 56.0991 37.7622 56.2415 38.2935L56.2517 38.3317L48.3692 40.4439C47.759 40.6074 47.1316 40.2455 46.968 39.6349L44.856 31.7527L44.8942 31.7424Z" fill="#B4DBFF"/>
<path d="M49.7667 38.885L48.1719 32.9331L46.468 31.9493C45.9917 31.6743 45.4255 31.6001 44.8942 31.7424C44.8857 31.7447 44.8726 31.7482 44.856 31.7527L46.968 39.6349C47.1316 40.2455 47.7586 40.6075 48.3692 40.4439L51.1675 39.694C50.5573 39.8575 49.9303 39.4955 49.7667 38.885Z" fill="#8BCAFF"/>
<path d="M51.7795 46.1842L35.5789 50.5251C35.009 50.6778 34.4237 50.3399 34.271 49.77C34.1184 49.2005 34.4562 48.6148 35.0261 48.4621L51.2271 44.1211C51.7966 43.9685 52.3823 44.3067 52.5349 44.8762C52.6876 45.4461 52.3493 46.0315 51.7795 46.1842Z" fill="#B4DBFF"/>
<path d="M53.0276 50.841L36.827 55.182C36.2572 55.3347 35.6718 54.9964 35.5191 54.4265C35.3665 53.857 35.7043 53.2713 36.2742 53.1186L52.4751 48.7776C53.0446 48.625 53.6304 48.9632 53.783 49.5327C53.9357 50.1026 53.5975 50.6883 53.0276 50.841Z" fill="#B4DBFF"/>
<path d="M54.2751 55.4972L38.0745 59.8381C37.5046 59.9908 36.9193 59.6529 36.7666 59.083C36.614 58.5135 36.9519 57.9278 37.5217 57.7751L53.7227 53.4341C54.2922 53.2815 54.8779 53.6197 55.0305 54.1892C55.1832 54.7591 54.845 55.3445 54.2751 55.4972Z" fill="#B4DBFF"/>
<path d="M55.5227 60.154L39.3221 64.4949C38.7523 64.6476 38.1669 64.3094 38.0142 63.7395C37.8616 63.17 38.1994 62.5843 38.7693 62.4316L54.9702 58.0906C55.5397 57.938 56.1255 58.2762 56.2781 58.8457C56.4308 59.4156 56.0926 60.0013 55.5227 60.154Z" fill="#B4DBFF"/>
<path d="M56.7703 64.8105L40.5697 69.1514C39.9998 69.3041 39.4144 68.9658 39.2617 68.396C39.1091 67.8265 39.447 67.2408 40.0168 67.0881L56.2178 62.7471C56.7873 62.5945 57.3731 62.9327 57.5257 63.5022C57.6784 64.072 57.3402 64.6578 56.7703 64.8105Z" fill="#B4DBFF"/>
<path d="M51.9721 44.1937C51.833 44.4004 51.6225 44.56 51.3632 44.6294L35.1626 48.9704C34.9033 49.0399 34.6413 49.007 34.4178 48.8974C34.2513 49.1448 34.1881 49.4594 34.2713 49.7699C34.424 50.3398 35.0093 50.6777 35.5792 50.525L51.7801 46.184C52.3497 46.0314 52.6879 45.446 52.5352 44.8761C52.452 44.5656 52.2397 44.3248 51.9721 44.1937Z" fill="#8BCAFF"/>
<path d="M53.2197 48.8507C53.0805 49.0571 52.87 49.2166 52.6107 49.2861L36.4101 53.627C36.1508 53.6965 35.8887 53.6636 35.6653 53.5543C35.4988 53.8014 35.4357 54.1163 35.5188 54.4266C35.6715 54.9964 36.2569 55.3347 36.8267 55.182L53.0277 50.841C53.5972 50.6884 53.9354 50.1026 53.7827 49.5328C53.6996 49.2225 53.4871 48.9815 53.2197 48.8507Z" fill="#8BCAFF"/>
<path d="M54.4672 53.5072C54.328 53.7136 54.1175 53.8731 53.8582 53.9426L37.6576 58.2835C37.3984 58.353 37.1363 58.3201 36.9129 58.2108C36.7463 58.4579 36.6832 58.7728 36.7663 59.0831C36.919 59.6529 37.5044 59.9912 38.0743 59.8385L54.2753 55.4975C54.8448 55.3449 55.183 54.7591 55.0303 54.1893C54.9471 53.879 54.7347 53.638 54.4672 53.5072Z" fill="#8BCAFF"/>
<path d="M55.7153 58.1637C55.5761 58.3701 55.3656 58.5296 55.1063 58.5991L38.9057 62.94C38.6464 63.0095 38.3843 62.9766 38.1609 62.8673C37.9944 63.1144 37.9312 63.429 38.0144 63.7396C38.1671 64.3094 38.7525 64.6477 39.3224 64.495L55.5233 60.154C56.0928 60.0014 56.431 59.4156 56.2783 58.8457C56.1951 58.5352 55.9827 58.2945 55.7153 58.1637Z" fill="#8BCAFF"/>
<path d="M56.9628 62.8202C56.8236 63.0265 56.6131 63.1861 56.3538 63.2556L40.1532 67.5965C39.894 67.666 39.6319 67.6331 39.4085 67.5238C39.2419 67.7709 39.1787 68.0855 39.2619 68.396C39.4146 68.9659 40 69.3042 40.5699 69.1515L56.7709 64.8105C57.3404 64.6579 57.6786 64.0721 57.5259 63.5022C57.4427 63.1917 57.2303 62.951 56.9628 62.8202Z" fill="#8BCAFF"/>
</g>
<defs>
<clipPath id="clip0_867_36885">
<rect width="48" height="48" fill="white" transform="translate(19.5957 32.0774) rotate(-15)"/>
</clipPath>
</defs>
</svg>
