<svg width="271" height="164" viewBox="0 0 271 164" fill="none" xmlns="http://www.w3.org/2000/svg">
<g filter="url(#filter0_d_867_37326)">
<rect x="54" y="45" width="163" height="56" rx="28" fill="white" shape-rendering="crispEdges"/>
<g clip-path="url(#clip0_867_37326)">
<path d="M76.8975 65.1814C82.4759 58.6894 92.8199 59.9704 96.6853 67.5543C93.9629 67.5558 89.7014 67.5528 87.3929 67.5543C85.7189 67.5543 84.6374 67.5168 83.4674 68.1333C82.0919 68.8578 81.0524 70.2003 80.6909 71.7783L76.8975 65.1814Z" fill="#F44336"/>
<path d="M82.0083 73.0008C82.0083 75.2013 83.7978 76.9908 85.9968 76.9908C88.1958 76.9908 89.9853 75.2013 89.9853 73.0008C89.9853 70.8004 88.1958 69.0109 85.9968 69.0109C83.7963 69.0094 82.0083 70.8004 82.0083 73.0008Z" fill="#2196F3"/>
<path d="M87.5431 78.2238C85.3051 78.8883 82.6846 78.1518 81.2507 75.6738C80.1557 73.7838 77.2607 68.7423 75.9467 66.4489C71.3387 73.5108 75.3092 83.1333 83.6731 84.7757L87.5431 78.2238Z" fill="#4CAF50"/>
<path d="M89.7 69.0094C91.5645 70.7434 91.971 73.5514 90.708 75.7279C89.757 77.3689 86.7195 82.4944 85.248 84.9753C93.8655 85.5063 100.147 77.0614 97.3095 69.0079L89.7 69.0094Z" fill="#FFC107"/>
</g>
<path d="M118.36 80.16C117.293 80.16 116.307 79.9867 115.4 79.64C114.507 79.28 113.727 78.78 113.06 78.14C112.407 77.4867 111.893 76.7267 111.52 75.86C111.147 74.9933 110.96 74.04 110.96 73C110.96 71.96 111.147 71.0067 111.52 70.14C111.893 69.2733 112.413 68.52 113.08 67.88C113.747 67.2267 114.527 66.7267 115.42 66.38C116.327 66.02 117.313 65.84 118.38 65.84C119.46 65.84 120.453 66.0267 121.36 66.4C122.28 66.76 123.06 67.3 123.7 68.02L122.4 69.28C121.867 68.72 121.267 68.3067 120.6 68.04C119.933 67.76 119.22 67.62 118.46 67.62C117.673 67.62 116.94 67.7533 116.26 68.02C115.593 68.2867 115.013 68.66 114.52 69.14C114.027 69.62 113.64 70.1933 113.36 70.86C113.093 71.5133 112.96 72.2267 112.96 73C112.96 73.7733 113.093 74.4933 113.36 75.16C113.64 75.8133 114.027 76.38 114.52 76.86C115.013 77.34 115.593 77.7133 116.26 77.98C116.94 78.2467 117.673 78.38 118.46 78.38C119.22 78.38 119.933 78.2467 120.6 77.98C121.267 77.7 121.867 77.2733 122.4 76.7L123.7 77.96C123.06 78.68 122.28 79.2267 121.36 79.6C120.453 79.9733 119.453 80.16 118.36 80.16ZM131.933 69.3C132.8 69.3 133.56 69.4667 134.213 69.8C134.88 70.1333 135.4 70.64 135.773 71.32C136.146 72 136.333 72.86 136.333 73.9V80H134.413V74.12C134.413 73.0933 134.16 72.32 133.653 71.8C133.16 71.28 132.46 71.02 131.553 71.02C130.873 71.02 130.28 71.1533 129.773 71.42C129.266 71.6867 128.873 72.08 128.593 72.6C128.326 73.12 128.193 73.7667 128.193 74.54V80H126.273V65.16H128.193V72.26L127.813 71.5C128.16 70.8067 128.693 70.2667 129.413 69.88C130.133 69.4933 130.973 69.3 131.933 69.3ZM139.886 80V69.4H141.726V72.28L141.546 71.56C141.84 70.8267 142.333 70.2667 143.026 69.88C143.72 69.4933 144.573 69.3 145.586 69.3V71.16C145.506 71.1467 145.426 71.14 145.346 71.14C145.28 71.14 145.213 71.14 145.146 71.14C144.12 71.14 143.306 71.4467 142.706 72.06C142.106 72.6733 141.806 73.56 141.806 74.72V80H139.886ZM152.395 80.12C151.328 80.12 150.382 79.8867 149.555 79.42C148.728 78.9533 148.075 78.3133 147.595 77.5C147.115 76.6733 146.875 75.74 146.875 74.7C146.875 73.6467 147.115 72.7133 147.595 71.9C148.075 71.0867 148.728 70.4533 149.555 70C150.382 69.5333 151.328 69.3 152.395 69.3C153.448 69.3 154.388 69.5333 155.215 70C156.055 70.4533 156.708 71.0867 157.175 71.9C157.655 72.7 157.895 73.6333 157.895 74.7C157.895 75.7533 157.655 76.6867 157.175 77.5C156.708 78.3133 156.055 78.9533 155.215 79.42C154.388 79.8867 153.448 80.12 152.395 80.12ZM152.395 78.44C153.075 78.44 153.682 78.2867 154.215 77.98C154.762 77.6733 155.188 77.24 155.495 76.68C155.802 76.1067 155.955 75.4467 155.955 74.7C155.955 73.94 155.802 73.2867 155.495 72.74C155.188 72.18 154.762 71.7467 154.215 71.44C153.682 71.1333 153.075 70.98 152.395 70.98C151.715 70.98 151.108 71.1333 150.575 71.44C150.042 71.7467 149.615 72.18 149.295 72.74C148.975 73.2867 148.815 73.94 148.815 74.7C148.815 75.4467 148.975 76.1067 149.295 76.68C149.615 77.24 150.042 77.6733 150.575 77.98C151.108 78.2867 151.715 78.44 152.395 78.44ZM173.81 69.3C174.664 69.3 175.417 69.4667 176.07 69.8C176.724 70.1333 177.23 70.64 177.59 71.32C177.964 72 178.15 72.86 178.15 73.9V80H176.23V74.12C176.23 73.0933 175.99 72.32 175.51 71.8C175.03 71.28 174.357 71.02 173.49 71.02C172.85 71.02 172.29 71.1533 171.81 71.42C171.33 71.6867 170.957 72.08 170.69 72.6C170.437 73.12 170.31 73.7667 170.31 74.54V80H168.39V74.12C168.39 73.0933 168.15 72.32 167.67 71.8C167.204 71.28 166.53 71.02 165.65 71.02C165.024 71.02 164.47 71.1533 163.99 71.42C163.51 71.6867 163.137 72.08 162.87 72.6C162.604 73.12 162.47 73.7667 162.47 74.54V80H160.55V69.4H162.39V72.22L162.09 71.5C162.424 70.8067 162.937 70.2667 163.63 69.88C164.324 69.4933 165.13 69.3 166.05 69.3C167.064 69.3 167.937 69.5533 168.67 70.06C169.404 70.5533 169.884 71.3067 170.11 72.32L169.33 72C169.65 71.1867 170.21 70.5333 171.01 70.04C171.81 69.5467 172.744 69.3 173.81 69.3ZM186.403 80.12C185.27 80.12 184.27 79.8867 183.403 79.42C182.55 78.9533 181.883 78.3133 181.403 77.5C180.937 76.6867 180.703 75.7533 180.703 74.7C180.703 73.6467 180.93 72.7133 181.383 71.9C181.85 71.0867 182.483 70.4533 183.283 70C184.097 69.5333 185.01 69.3 186.023 69.3C187.05 69.3 187.957 69.5267 188.743 69.98C189.53 70.4333 190.143 71.0733 190.583 71.9C191.037 72.7133 191.263 73.6667 191.263 74.76C191.263 74.84 191.257 74.9333 191.243 75.04C191.243 75.1467 191.237 75.2467 191.223 75.34H182.203V73.96H190.223L189.443 74.44C189.457 73.76 189.317 73.1533 189.023 72.62C188.73 72.0867 188.323 71.6733 187.803 71.38C187.297 71.0733 186.703 70.92 186.023 70.92C185.357 70.92 184.763 71.0733 184.243 71.38C183.723 71.6733 183.317 72.0933 183.023 72.64C182.73 73.1733 182.583 73.7867 182.583 74.48V74.8C182.583 75.5067 182.743 76.14 183.063 76.7C183.397 77.2467 183.857 77.6733 184.443 77.98C185.03 78.2867 185.703 78.44 186.463 78.44C187.09 78.44 187.657 78.3333 188.163 78.12C188.683 77.9067 189.137 77.5867 189.523 77.16L190.583 78.4C190.103 78.96 189.503 79.3867 188.783 79.68C188.077 79.9733 187.283 80.12 186.403 80.12Z" fill="black"/>
</g>
<defs>
<filter id="filter0_d_867_37326" x="0" y="0" width="271" height="164" filterUnits="userSpaceOnUse" color-interpolation-filters="sRGB">
<feFlood flood-opacity="0" result="BackgroundImageFix"/>
<feColorMatrix in="SourceAlpha" type="matrix" values="0 0 0 0 0 0 0 0 0 0 0 0 0 0 0 0 0 0 127 0" result="hardAlpha"/>
<feMorphology radius="8" operator="dilate" in="SourceAlpha" result="effect1_dropShadow_867_37326"/>
<feOffset dy="9"/>
<feGaussianBlur stdDeviation="23"/>
<feComposite in2="hardAlpha" operator="out"/>
<feColorMatrix type="matrix" values="0 0 0 0 0.784314 0 0 0 0 0.478431 0 0 0 0 0.235294 0 0 0 0.4 0"/>
<feBlend mode="normal" in2="BackgroundImageFix" result="effect1_dropShadow_867_37326"/>
<feBlend mode="normal" in="SourceGraphic" in2="effect1_dropShadow_867_37326" result="shape"/>
</filter>
<clipPath id="clip0_867_37326">
<rect width="24" height="24" fill="white" transform="translate(74 61)"/>
</clipPath>
</defs>
</svg>
