<svg width="237" height="164" viewBox="0 0 237 164" fill="none" xmlns="http://www.w3.org/2000/svg">
<g filter="url(#filter0_d_867_37348)">
<rect x="54" y="45" width="129" height="56" rx="28" fill="white" shape-rendering="crispEdges"/>
<path d="M79.8 80.16C78.8533 80.16 78.0133 80.0067 77.28 79.7C76.5467 79.3933 75.9667 78.9667 75.54 78.42C75.1133 77.8733 74.9 77.24 74.9 76.52C74.9 75.8933 75.04 75.32 75.32 74.8C75.6 74.28 76.0467 73.78 76.66 73.3C77.2733 72.8067 78.08 72.3 79.08 71.78C79.8933 71.3533 80.5267 70.98 80.98 70.66C81.4467 70.34 81.7733 70.04 81.96 69.76C82.16 69.4667 82.26 69.1533 82.26 68.82C82.26 68.3667 82.1 68 81.78 67.72C81.46 67.4267 81 67.28 80.4 67.28C79.7733 67.28 79.28 67.44 78.92 67.76C78.5733 68.0667 78.4 68.4733 78.4 68.98C78.4 69.2333 78.44 69.48 78.52 69.72C78.6133 69.9467 78.7733 70.2067 79 70.5C79.24 70.78 79.58 71.14 80.02 71.58L87.42 78.94L86.34 80.22L78.48 72.4C78.0133 71.9333 77.6467 71.52 77.38 71.16C77.1133 70.7867 76.92 70.4267 76.8 70.08C76.68 69.7333 76.62 69.38 76.62 69.02C76.62 68.3933 76.7733 67.8467 77.08 67.38C77.4 66.9 77.84 66.5333 78.4 66.28C78.9733 66.0133 79.64 65.88 80.4 65.88C81.1067 65.88 81.72 66 82.24 66.24C82.76 66.4667 83.16 66.8 83.44 67.24C83.7333 67.6667 83.88 68.1867 83.88 68.8C83.88 69.3333 83.7467 69.8267 83.48 70.28C83.2267 70.7333 82.8133 71.1733 82.24 71.6C81.6667 72.0267 80.8933 72.4867 79.92 72.98C79.12 73.3933 78.4933 73.78 78.04 74.14C77.5867 74.4867 77.26 74.8333 77.06 75.18C76.8733 75.5267 76.78 75.9067 76.78 76.32C76.78 76.76 76.9067 77.1533 77.16 77.5C77.4267 77.8333 77.7933 78.0933 78.26 78.28C78.74 78.4667 79.2933 78.56 79.92 78.56C80.8133 78.56 81.62 78.3667 82.34 77.98C83.06 77.5933 83.66 77.0133 84.14 76.24C84.6333 75.4667 84.9933 74.5067 85.22 73.36L86.76 73.86C86.4933 75.2067 86.0333 76.3467 85.38 77.28C84.74 78.2133 83.9467 78.9267 83 79.42C82.0533 79.9133 80.9867 80.16 79.8 80.16ZM101.502 80.16C100.435 80.16 99.442 79.98 98.522 79.62C97.6154 79.26 96.8287 78.76 96.162 78.12C95.4954 77.4667 94.9754 76.7067 94.602 75.84C94.2287 74.9733 94.042 74.0267 94.042 73C94.042 71.9733 94.2287 71.0267 94.602 70.16C94.9754 69.2933 95.4954 68.54 96.162 67.9C96.8287 67.2467 97.6154 66.74 98.522 66.38C99.4287 66.02 100.422 65.84 101.502 65.84C102.569 65.84 103.549 66.02 104.442 66.38C105.349 66.7267 106.135 67.2267 106.802 67.88C107.482 68.52 108.002 69.2733 108.362 70.14C108.735 71.0067 108.922 71.96 108.922 73C108.922 74.04 108.735 74.9933 108.362 75.86C108.002 76.7267 107.482 77.4867 106.802 78.14C106.135 78.78 105.349 79.28 104.442 79.64C103.549 79.9867 102.569 80.16 101.502 80.16ZM101.502 78.38C102.275 78.38 102.989 78.2467 103.642 77.98C104.309 77.7133 104.882 77.34 105.362 76.86C105.855 76.3667 106.235 75.7933 106.502 75.14C106.782 74.4867 106.922 73.7733 106.922 73C106.922 72.2267 106.782 71.5133 106.502 70.86C106.235 70.2067 105.855 69.64 105.362 69.16C104.882 68.6667 104.309 68.2867 103.642 68.02C102.989 67.7533 102.275 67.62 101.502 67.62C100.715 67.62 99.9887 67.7533 99.322 68.02C98.6687 68.2867 98.0954 68.6667 97.602 69.16C97.1087 69.64 96.722 70.2067 96.442 70.86C96.1754 71.5133 96.042 72.2267 96.042 73C96.042 73.7733 96.1754 74.4867 96.442 75.14C96.722 75.7933 97.1087 76.3667 97.602 76.86C98.0954 77.34 98.6687 77.7133 99.322 77.98C99.9887 78.2467 100.715 78.38 101.502 78.38ZM115.437 80.12C114.37 80.12 113.543 79.8333 112.957 79.26C112.37 78.6867 112.077 77.8667 112.077 76.8V67.08H113.997V76.72C113.997 77.2933 114.137 77.7333 114.417 78.04C114.71 78.3467 115.123 78.5 115.657 78.5C116.257 78.5 116.757 78.3333 117.157 78L117.757 79.38C117.463 79.6333 117.11 79.82 116.697 79.94C116.297 80.06 115.877 80.12 115.437 80.12ZM110.277 70.98V69.4H117.037V70.98H110.277ZM125.738 69.3C126.604 69.3 127.364 69.4667 128.018 69.8C128.684 70.1333 129.204 70.64 129.578 71.32C129.951 72 130.138 72.86 130.138 73.9V80H128.218V74.12C128.218 73.0933 127.964 72.32 127.458 71.8C126.964 71.28 126.264 71.02 125.358 71.02C124.678 71.02 124.084 71.1533 123.578 71.42C123.071 71.6867 122.678 72.08 122.398 72.6C122.131 73.12 121.998 73.7667 121.998 74.54V80H120.078V65.16H121.998V72.26L121.618 71.5C121.964 70.8067 122.498 70.2667 123.218 69.88C123.938 69.4933 124.778 69.3 125.738 69.3ZM138.411 80.12C137.278 80.12 136.278 79.8867 135.411 79.42C134.558 78.9533 133.891 78.3133 133.411 77.5C132.944 76.6867 132.711 75.7533 132.711 74.7C132.711 73.6467 132.938 72.7133 133.391 71.9C133.858 71.0867 134.491 70.4533 135.291 70C136.104 69.5333 137.018 69.3 138.031 69.3C139.058 69.3 139.964 69.5267 140.751 69.98C141.538 70.4333 142.151 71.0733 142.591 71.9C143.044 72.7133 143.271 73.6667 143.271 74.76C143.271 74.84 143.264 74.9333 143.251 75.04C143.251 75.1467 143.244 75.2467 143.231 75.34H134.211V73.96H142.231L141.451 74.44C141.464 73.76 141.324 73.1533 141.031 72.62C140.738 72.0867 140.331 71.6733 139.811 71.38C139.304 71.0733 138.711 70.92 138.031 70.92C137.364 70.92 136.771 71.0733 136.251 71.38C135.731 71.6733 135.324 72.0933 135.031 72.64C134.738 73.1733 134.591 73.7867 134.591 74.48V74.8C134.591 75.5067 134.751 76.14 135.071 76.7C135.404 77.2467 135.864 77.6733 136.451 77.98C137.038 78.2867 137.711 78.44 138.471 78.44C139.098 78.44 139.664 78.3333 140.171 78.12C140.691 77.9067 141.144 77.5867 141.531 77.16L142.591 78.4C142.111 78.96 141.511 79.3867 140.791 79.68C140.084 79.9733 139.291 80.12 138.411 80.12ZM145.937 80V69.4H147.777V72.28L147.597 71.56C147.891 70.8267 148.384 70.2667 149.077 69.88C149.771 69.4933 150.624 69.3 151.637 69.3V71.16C151.557 71.1467 151.477 71.14 151.397 71.14C151.331 71.14 151.264 71.14 151.197 71.14C150.171 71.14 149.357 71.4467 148.757 72.06C148.157 72.6733 147.857 73.56 147.857 74.72V80H145.937ZM157.161 80.12C156.281 80.12 155.441 80 154.641 79.76C153.854 79.52 153.234 79.2267 152.781 78.88L153.581 77.36C154.034 77.6667 154.594 77.9267 155.261 78.14C155.927 78.3533 156.607 78.46 157.301 78.46C158.194 78.46 158.834 78.3333 159.221 78.08C159.621 77.8267 159.821 77.4733 159.821 77.02C159.821 76.6867 159.701 76.4267 159.461 76.24C159.221 76.0533 158.901 75.9133 158.501 75.82C158.114 75.7267 157.681 75.6467 157.201 75.58C156.721 75.5 156.241 75.4067 155.761 75.3C155.281 75.18 154.841 75.02 154.441 74.82C154.041 74.6067 153.721 74.32 153.481 73.96C153.241 73.5867 153.121 73.0933 153.121 72.48C153.121 71.84 153.301 71.28 153.661 70.8C154.021 70.32 154.527 69.9533 155.181 69.7C155.847 69.4333 156.634 69.3 157.541 69.3C158.234 69.3 158.934 69.3867 159.641 69.56C160.361 69.72 160.947 69.9533 161.401 70.26L160.581 71.78C160.101 71.46 159.601 71.24 159.081 71.12C158.561 71 158.041 70.94 157.521 70.94C156.681 70.94 156.054 71.08 155.641 71.36C155.227 71.6267 155.021 71.9733 155.021 72.4C155.021 72.76 155.141 73.04 155.381 73.24C155.634 73.4267 155.954 73.5733 156.341 73.68C156.741 73.7867 157.181 73.88 157.661 73.96C158.141 74.0267 158.621 74.12 159.101 74.24C159.581 74.3467 160.014 74.5 160.401 74.7C160.801 74.9 161.121 75.18 161.361 75.54C161.614 75.9 161.741 76.38 161.741 76.98C161.741 77.62 161.554 78.1733 161.181 78.64C160.807 79.1067 160.281 79.4733 159.601 79.74C158.921 79.9933 158.107 80.12 157.161 80.12Z" fill="black"/>
</g>
<defs>
<filter id="filter0_d_867_37348" x="0" y="0" width="237" height="164" filterUnits="userSpaceOnUse" color-interpolation-filters="sRGB">
<feFlood flood-opacity="0" result="BackgroundImageFix"/>
<feColorMatrix in="SourceAlpha" type="matrix" values="0 0 0 0 0 0 0 0 0 0 0 0 0 0 0 0 0 0 127 0" result="hardAlpha"/>
<feMorphology radius="8" operator="dilate" in="SourceAlpha" result="effect1_dropShadow_867_37348"/>
<feOffset dy="9"/>
<feGaussianBlur stdDeviation="23"/>
<feComposite in2="hardAlpha" operator="out"/>
<feColorMatrix type="matrix" values="0 0 0 0 0.784314 0 0 0 0 0.478431 0 0 0 0 0.235294 0 0 0 0.4 0"/>
<feBlend mode="normal" in2="BackgroundImageFix" result="effect1_dropShadow_867_37348"/>
<feBlend mode="normal" in="SourceGraphic" in2="effect1_dropShadow_867_37348" result="shape"/>
</filter>
</defs>
</svg>
