<svg width="54" height="72" viewBox="0 0 54 72" fill="none" xmlns="http://www.w3.org/2000/svg">
<path fill-rule="evenodd" clip-rule="evenodd" d="M5.40156 0C2.7506 0 0.601562 2.14904 0.601562 4.8V67.2C0.601562 69.851 2.75059 72 5.40156 72H48.6016C51.2525 72 53.4016 69.851 53.4016 67.2V16.8L36.6016 0H5.40156Z" fill="#D9EDFF"/>
<rect x="11.4014" y="24" width="31.2" height="3.6" rx="1.8" fill="#8BCAFF"/>
<rect x="11.4014" y="34.7998" width="31.2" height="3.6" rx="1.8" fill="#8BCAFF"/>
<rect x="11.4014" y="45.6001" width="31.2" height="3.6" rx="1.8" fill="#8BCAFF"/>
<rect x="11.4014" y="56.3999" width="31.2" height="3.6" rx="1.8" fill="#8BCAFF"/>
<path d="M36.6016 0L53.4016 16.8H42.6016C39.2879 16.8 36.6016 14.1137 36.6016 10.8V0Z" fill="#B4DBFF"/>
</svg>
