<svg width="72" height="72" viewBox="0 0 72 72" fill="none" xmlns="http://www.w3.org/2000/svg">
<g clip-path="url(#clip0_867_38188)">
<path d="M64.4062 0.84375H7.59375C3.86583 0.84375 0.84375 3.86583 0.84375 7.59375V64.4062C0.84375 68.1342 3.86583 71.1562 7.59375 71.1562H64.4062C68.1342 71.1562 71.1562 68.1342 71.1562 64.4062V7.59375C71.1562 3.86583 68.1342 0.84375 64.4062 0.84375Z" fill="#E0F1FF"/>
<path d="M23.625 0.84375H25.3125V71.1562H23.625V0.84375Z" fill="#E0E0E0"/>
<path d="M47.25 0.84375H48.9375V71.1562H47.25V0.84375Z" fill="#E0E0E0"/>
<path d="M23.625 0.84375H25.3125V71.1562H23.625V0.84375Z" fill="#A8D6FF"/>
<path d="M47.25 0.84375H48.9375V71.1562H47.25V0.84375Z" fill="#A8D6FF"/>
<path d="M71.1562 7.59375V17.7188H0.84375V7.59375C0.84375 5.80354 1.55491 4.08665 2.82078 2.82078C4.08665 1.55491 5.80354 0.84375 7.59375 0.84375H64.4062C66.1965 0.84375 67.9134 1.55491 69.1792 2.82078C70.4451 4.08665 71.1562 5.80354 71.1562 7.59375Z" fill="#99CFFF"/>
<path d="M14.9062 4.78125H9.84375C8.91177 4.78125 8.15625 5.53677 8.15625 6.46875V11.5312C8.15625 12.4632 8.91177 13.2188 9.84375 13.2188H14.9062C15.8382 13.2188 16.5938 12.4632 16.5938 11.5312V6.46875C16.5938 5.53677 15.8382 4.78125 14.9062 4.78125Z" fill="#33A3FF"/>
<path d="M59.625 13.2188C61.955 13.2188 63.8438 11.33 63.8438 9C63.8438 6.67005 61.955 4.78125 59.625 4.78125C57.295 4.78125 55.4062 6.67005 55.4062 9C55.4062 11.33 57.295 13.2188 59.625 13.2188Z" fill="#33A3FF"/>
<path d="M39.798 13.2196H32.1632C32.0419 13.2197 31.9227 13.1879 31.8174 13.1276C31.7122 13.0672 31.6246 12.9803 31.5635 12.8755C31.5023 12.7707 31.4696 12.6518 31.4688 12.5304C31.4679 12.4091 31.4989 12.2897 31.5585 12.1841L35.3762 5.42507C35.4367 5.31799 35.5245 5.22891 35.6307 5.16692C35.7369 5.10493 35.8577 5.07227 35.9806 5.07227C36.1036 5.07227 36.2243 5.10493 36.3305 5.16692C36.4367 5.22891 36.5246 5.31799 36.585 5.42507L40.4027 12.1841C40.4624 12.2897 40.4933 12.4091 40.4925 12.5304C40.4916 12.6518 40.459 12.7707 40.3978 12.8755C40.3366 12.9803 40.249 13.0672 40.1438 13.1276C40.0386 13.1879 39.9194 13.2197 39.798 13.2196Z" fill="#33A3FF"/>
<path d="M19.9688 27.5625V33.5379C19.9688 33.765 19.9229 33.9898 19.834 34.1988C19.7451 34.4077 19.6149 34.5966 19.4513 34.7541L14.5524 39.4661C14.238 39.7686 13.8187 39.9375 13.3824 39.9375H7.03125C6.5837 39.9375 6.15447 39.7597 5.83801 39.4432C5.52154 39.1268 5.34375 38.6976 5.34375 38.25V27.5625C5.34375 27.1149 5.52154 26.6857 5.83801 26.3693C6.15447 26.0528 6.5837 25.875 7.03125 25.875H18.2812C18.7288 25.875 19.158 26.0528 19.4745 26.3693C19.791 26.6857 19.9688 27.1149 19.9688 27.5625Z" fill="#FFC107"/>
<path d="M15.75 34.2559C15.3024 34.2559 14.8732 34.4336 14.5568 34.7501C14.2403 35.0666 14.0625 35.4958 14.0625 35.9434V39.7892C14.2436 39.7111 14.4095 39.6016 14.5524 39.4657L16.1438 37.9363L19.4524 34.7537C19.5976 34.6103 19.7154 34.4416 19.8 34.2559H15.75Z" fill="#FFAD1D"/>
<path d="M12.6562 31.5C13.5106 31.5 14.2031 30.8074 14.2031 29.9531C14.2031 29.0988 13.5106 28.4062 12.6562 28.4062C11.8019 28.4062 11.1094 29.0988 11.1094 29.9531C11.1094 30.8074 11.8019 31.5 12.6562 31.5Z" fill="white"/>
<path d="M43.3125 27.5625V33.5379C43.3125 33.765 43.2667 33.9898 43.1778 34.1988C43.0888 34.4077 42.9587 34.5966 42.795 34.7541L37.8962 39.4661C37.5818 39.7686 37.1625 39.9375 36.7262 39.9375H30.375C29.9274 39.9375 29.4982 39.7597 29.1818 39.4432C28.8653 39.1268 28.6875 38.6976 28.6875 38.25V27.5625C28.6875 27.1149 28.8653 26.6857 29.1818 26.3693C29.4982 26.0528 29.9274 25.875 30.375 25.875H41.625C42.0726 25.875 42.5018 26.0528 42.8182 26.3693C43.1347 26.6857 43.3125 27.1149 43.3125 27.5625Z" fill="#E91E63"/>
<path d="M39.0938 34.2559C38.6462 34.2559 38.217 34.4336 37.9005 34.7501C37.584 35.0666 37.4062 35.4958 37.4062 35.9434V39.7892C37.5874 39.7111 37.7532 39.6016 37.8962 39.4657L39.4875 37.9363L42.7961 34.7537C42.9413 34.6103 43.0591 34.4416 43.1437 34.2559H39.0938Z" fill="#C2185B"/>
<path d="M36 31.5C36.8543 31.5 37.5469 30.8074 37.5469 29.9531C37.5469 29.0988 36.8543 28.4062 36 28.4062C35.1457 28.4062 34.4531 29.0988 34.4531 29.9531C34.4531 30.8074 35.1457 31.5 36 31.5Z" fill="white"/>
<path d="M43.3125 51.4688V57.4442C43.3125 57.6713 43.2667 57.8961 43.1778 58.105C43.0888 58.314 42.9587 58.5029 42.795 58.6603L37.8962 63.3724C37.5818 63.6748 37.1625 63.8438 36.7262 63.8438H30.375C29.9274 63.8438 29.4982 63.666 29.1818 63.3495C28.8653 63.033 28.6875 62.6038 28.6875 62.1562V51.4688C28.6875 51.0212 28.8653 50.592 29.1818 50.2755C29.4982 49.959 29.9274 49.7812 30.375 49.7812H41.625C42.0726 49.7812 42.5018 49.959 42.8182 50.2755C43.1347 50.592 43.3125 51.0212 43.3125 51.4688Z" fill="#E91E63"/>
<path d="M39.0938 58.1621C38.6462 58.1621 38.217 58.3399 37.9005 58.6564C37.584 58.9728 37.4062 59.4021 37.4062 59.8496V63.6954C37.5874 63.6174 37.7532 63.5079 37.8962 63.372L39.4864 61.8425L42.795 58.6599C42.9414 58.5168 43.0604 58.3481 43.146 58.1621H39.0938Z" fill="#C2185B"/>
<path d="M36 55.4062C36.8543 55.4062 37.5469 54.7137 37.5469 53.8594C37.5469 53.0051 36.8543 52.3125 36 52.3125C35.1457 52.3125 34.4531 53.0051 34.4531 53.8594C34.4531 54.7137 35.1457 55.4062 36 55.4062Z" fill="white"/>
<path d="M66.9375 51.4688V57.4442C66.9375 57.6713 66.8917 57.8961 66.8028 58.105C66.7138 58.314 66.5837 58.5029 66.42 58.6603L61.5212 63.3724C61.2068 63.6748 60.7875 63.8438 60.3512 63.8438H54C53.5524 63.8438 53.1232 63.666 52.8068 63.3495C52.4903 63.033 52.3125 62.6038 52.3125 62.1562V51.4688C52.3125 51.0212 52.4903 50.592 52.8068 50.2755C53.1232 49.959 53.5524 49.7812 54 49.7812H65.25C65.6976 49.7812 66.1268 49.959 66.4432 50.2755C66.7597 50.592 66.9375 51.0212 66.9375 51.4688Z" fill="#00BCD4"/>
<path d="M62.7188 58.1621C62.2712 58.1621 61.842 58.3399 61.5255 58.6564C61.209 58.9728 61.0312 59.4021 61.0312 59.8496V63.6954C61.2124 63.6174 61.3782 63.5079 61.5212 63.372L63.1114 61.8425L66.42 58.6599C66.5664 58.5168 66.6854 58.3481 66.771 58.1621H62.7188Z" fill="#0097A7"/>
<path d="M59.625 55.4062C60.4793 55.4062 61.1719 54.7137 61.1719 53.8594C61.1719 53.0051 60.4793 52.3125 59.625 52.3125C58.7707 52.3125 58.0781 53.0051 58.0781 53.8594C58.0781 54.7137 58.7707 55.4062 59.625 55.4062Z" fill="white"/>
<path d="M23.625 0.84375H25.3125V17.7188H23.625V0.84375Z" fill="#37474F"/>
<path d="M47.25 0.84375H48.9375V17.7188H47.25V0.84375Z" fill="#37474F"/>
<path d="M23.625 0.84375H25.3125V17.7188H23.625V0.84375Z" fill="#66B7FF"/>
<path d="M47.25 0.84375H48.9375V17.7188H47.25V0.84375Z" fill="#66B7FF"/>
</g>
<defs>
<clipPath id="clip0_867_38188">
<rect width="72" height="72" fill="white"/>
</clipPath>
</defs>
</svg>
