<svg width="98" height="99" viewBox="0 0 98 99" fill="none" xmlns="http://www.w3.org/2000/svg">
<rect x="20.707" y="0.0585938" width="80" height="80" rx="20" transform="rotate(15 20.707 0.0585938)" fill="white"/>
<g clip-path="url(#clip0_867_36917)">
<path d="M25.3492 58.5205L26.4403 62.6022C26.6644 63.46 27.1173 64.2086 27.7193 64.8266L36.4202 61.6017L38.4278 54.1625L32.012 48.9199L23.8298 50.2229C23.6078 51.0457 23.598 51.9258 23.8222 52.7836L25.3492 58.5205Z" fill="#0066DD"/>
<path d="M51.0122 41.6125L53.9915 32.0195L47.1227 27.0088C46.2914 27.2401 45.5234 27.6593 44.8981 28.2878L25.1117 48.006C24.4865 48.6347 24.052 49.4001 23.83 50.2229L38.4281 54.1624L51.0122 41.6125Z" fill="#00AD3C"/>
<path d="M51.012 41.6125L59.042 39.7175L61.7204 30.9483C61.1184 30.3303 60.3529 29.8959 59.5036 29.6667L49.6831 27.0164C48.8337 26.7872 47.9465 26.804 47.1224 27.0088L51.012 41.6125Z" fill="#00831E"/>
<path d="M55.5737 58.7895L38.4276 54.1624L27.7192 64.8266C28.3212 65.4447 29.0868 65.879 29.936 66.1082L56.9026 73.3856C57.752 73.6148 58.6392 73.5979 59.4634 73.3932L61.7644 64.9194L55.5737 58.7895Z" fill="#0084FF"/>
<path d="M59.4635 73.3934C60.2947 73.1621 61.0627 72.7429 61.6879 72.1143L62.9312 70.8838L68.8903 64.9461C69.5155 64.3175 69.9499 63.5521 70.172 62.7292L62.9205 56.0254L55.6005 58.797L59.4635 73.3934Z" fill="#FF4131"/>
<path d="M66.5898 46.6708L62.9997 33.1729C62.7756 32.3151 62.3227 31.5664 61.7206 30.9484L51.0121 41.6126L55.574 58.7896L70.1455 62.722C70.3675 61.8993 70.3772 61.0191 70.1531 60.1613L66.5898 46.6708Z" fill="#FFBA00"/>
</g>
<defs>
<clipPath id="clip0_867_36917">
<rect width="48" height="48" fill="white" transform="translate(32.0205 19.6545) rotate(15)"/>
</clipPath>
</defs>
</svg>
