<svg width="254" height="164" viewBox="0 0 254 164" fill="none" xmlns="http://www.w3.org/2000/svg">
<g filter="url(#filter0_d_867_37333)">
<rect x="54" y="45" width="146" height="56" rx="28" fill="white" shape-rendering="crispEdges"/>
<path d="M94.1657 69.6116C95.557 69.6116 96.6888 68.4766 96.6888 67.082C96.5503 63.7261 91.7808 63.727 91.6426 67.082C91.6426 68.4766 92.7747 69.6116 94.1657 69.6116Z" fill="#464EB8"/>
<path d="M95.8302 70.2902H91.3266H91.318C91.3168 70.2902 91.3173 70.2902 91.3158 70.2902C91.0463 70.2902 87.5226 70.2902 86.3867 70.2902V69.407C86.5749 69.4403 86.7719 69.4627 86.9788 69.4713C87.0011 69.4715 87.0234 69.4699 87.0457 69.4696C87.1317 69.4682 87.2169 69.4641 87.3009 69.4569C87.3297 69.4543 87.3582 69.4519 87.3865 69.4485C87.4833 69.4377 87.5788 69.4235 87.6729 69.4051C87.6786 69.4039 87.6849 69.4031 87.6906 69.4022C88.1365 69.3112 88.557 69.1334 88.9307 68.8814C89.2763 68.6483 89.5756 68.3527 89.817 68.0138C89.8794 67.9319 89.9363 67.8465 89.9893 67.7591C89.9944 67.7505 89.9999 67.7423 90.0049 67.7335C90.0457 67.6646 90.0817 67.5933 90.1168 67.5213C90.1321 67.4901 90.148 67.4589 90.1624 67.4272C90.1993 67.3444 90.2334 67.2602 90.2634 67.1745C90.2661 67.1673 90.2687 67.1603 90.2711 67.1534C90.6136 66.1435 90.4569 64.9559 89.8689 64.0679C89.7133 63.8402 89.5288 63.6345 89.3245 63.4502C89.2823 63.4135 89.242 63.3748 89.1976 63.3405C89.0262 63.1994 88.8412 63.0743 88.6446 62.968C88.5462 62.9147 88.4452 62.866 88.3415 62.8223C88.2373 62.7763 88.1286 62.7383 88.0182 62.704C87.9549 62.6846 87.8891 62.6702 87.8243 62.6543C87.7669 62.6404 87.7103 62.6253 87.6522 62.6145C87.6042 62.6054 87.555 62.5996 87.5065 62.5924C87.4221 62.5804 87.3376 62.5694 87.2521 62.5634C87.2229 62.5612 87.1933 62.5605 87.1638 62.5591C87.0769 62.5547 86.9898 62.555 86.9027 62.5574C86.4035 62.5864 85.9605 62.6913 85.5724 62.855C85.4932 62.8907 85.413 62.9255 85.3384 62.9678C84.5603 63.3916 83.9651 64.1131 83.6903 64.9581C83.4997 65.5891 83.4834 66.2704 83.6454 66.9091C83.6471 66.9151 83.6485 66.9213 83.6502 66.9273C83.6579 66.9549 83.6658 66.9825 83.6735 67.0101C83.6829 67.043 83.6939 67.0756 83.7042 67.1083C83.7136 67.1347 83.7234 67.1608 83.7333 67.1872H76.1061C75.423 67.1872 74.8672 67.7431 74.8672 68.4261V77.4674C74.8672 78.1507 75.423 78.7063 76.1061 78.7063H80.9353C80.9416 78.7346 80.9495 78.7619 80.9562 78.79C81.621 81.4058 83.9473 83.2557 86.6963 83.3224C88.977 83.267 90.9361 81.9494 91.917 80.0603C91.9317 80.0656 91.9468 80.0695 91.9614 80.0745C94.4051 80.9987 97.1819 79.0595 97.1325 76.4431V71.5891C97.1327 70.8729 96.5483 70.2902 95.8302 70.2902Z" fill="#464EB8"/>
<path d="M92.5869 71.6152C92.6035 70.9022 92.038 70.3077 91.3267 70.2902C91.3238 70.2902 86.183 70.2902 86.183 70.2902C85.9936 70.2902 85.84 70.444 85.84 70.6341V77.6169C85.84 77.939 85.5787 78.2008 85.2573 78.2008H81.2481C81.1451 78.2008 81.0475 78.2474 80.9824 78.3273C80.9174 78.4074 80.8915 78.5126 80.9123 78.6138C81.4804 81.3885 83.8519 83.3747 86.6963 83.4441C90.0218 83.3625 92.6642 80.5847 92.5869 77.26V71.6152Z" fill="#7B83EB"/>
<path d="M86.9795 69.4711C87.0019 69.4713 87.0242 69.4697 87.0465 69.4694C87.1324 69.4682 87.2176 69.4639 87.3019 69.4567C87.3307 69.4541 87.3592 69.4517 87.3875 69.4483C87.484 69.4375 87.5798 69.4233 87.6739 69.4049C87.6796 69.4037 87.6859 69.4029 87.6916 69.4017C88.1375 69.3108 88.558 69.1329 88.9317 68.8809C89.2775 68.6479 89.5766 68.3522 89.8183 68.0133C89.8807 67.9315 89.9375 67.8461 89.9906 67.7587C89.9956 67.7501 90.0011 67.7419 90.0062 67.733C90.047 67.6641 90.083 67.5926 90.118 67.5209C90.1334 67.4897 90.1492 67.4587 90.1636 67.4268C90.2006 67.344 90.2349 67.2597 90.2647 67.1741C90.2673 67.1669 90.2699 67.1599 90.2723 67.1529C90.6148 66.143 90.4581 64.9553 89.8701 64.0675C89.7146 63.8397 89.53 63.6341 89.3258 63.4497C89.2835 63.413 89.2432 63.3744 89.1988 63.3401C89.0275 63.1989 88.8424 63.0739 88.6459 62.9676C88.5475 62.9143 88.4464 62.8656 88.3427 62.8219C88.2386 62.7758 88.1299 62.7379 88.0195 62.7036C87.9561 62.6841 87.8903 62.67 87.8255 62.6539C87.7682 62.64 87.7115 62.6249 87.6535 62.6141C87.6055 62.6049 87.5565 62.5992 87.5078 62.592C87.4233 62.58 87.3388 62.5689 87.2534 62.5629C87.2241 62.5608 87.1946 62.5601 87.1653 62.5586C87.0784 62.5548 86.9913 62.555 86.9042 62.5574C86.405 62.5865 85.9619 62.6911 85.5739 62.855C85.4947 62.8908 85.4145 62.9256 85.3399 62.9678C84.5618 63.3919 83.9663 64.1133 83.6918 64.9584C83.5012 65.5893 83.4849 66.2707 83.6469 66.9093C83.6486 66.9153 83.65 66.9216 83.6517 66.9276C83.6594 66.9552 83.6673 66.9828 83.675 67.0104C83.6843 67.0433 83.6954 67.0759 83.7057 67.1085C83.7201 67.1496 83.7352 67.1901 83.7506 67.2309H83.7441C84.1701 68.4254 85.2484 69.3979 86.9795 69.4711Z" fill="#7B83EB"/>
<path d="M85.1478 67.1875H76.1061C75.423 67.1875 74.8672 67.7433 74.8672 68.4264V77.4677C74.8672 78.1509 75.423 78.7065 76.1061 78.7065H85.1478C85.8309 78.7065 86.3865 78.1507 86.3865 77.4677V68.4264C86.3867 67.7433 85.8311 67.1875 85.1478 67.1875Z" fill="#464EB8"/>
<path d="M82.9054 69.7041H78.2782C78.0931 69.7041 77.9434 69.8541 77.9434 70.0391V70.8825C77.9434 71.0675 78.0931 71.2175 78.2782 71.2175H79.771V75.9155C79.771 76.1006 79.9207 76.2506 80.1058 76.2506H81.0979C81.283 76.2506 81.4327 76.1006 81.4327 75.9155V71.2175H82.9054C83.0904 71.2175 83.2402 71.0675 83.2402 70.8825V70.0391C83.2402 69.8541 83.0904 69.7041 82.9054 69.7041Z" fill="white"/>
<path d="M114.88 80V67.74H110.08V66H121.66V67.74H116.86V80H114.88ZM127.185 80.12C126.051 80.12 125.051 79.8867 124.185 79.42C123.331 78.9533 122.665 78.3133 122.185 77.5C121.718 76.6867 121.485 75.7533 121.485 74.7C121.485 73.6467 121.711 72.7133 122.165 71.9C122.631 71.0867 123.265 70.4533 124.065 70C124.878 69.5333 125.791 69.3 126.805 69.3C127.831 69.3 128.738 69.5267 129.525 69.98C130.311 70.4333 130.925 71.0733 131.365 71.9C131.818 72.7133 132.045 73.6667 132.045 74.76C132.045 74.84 132.038 74.9333 132.025 75.04C132.025 75.1467 132.018 75.2467 132.005 75.34H122.985V73.96H131.005L130.225 74.44C130.238 73.76 130.098 73.1533 129.805 72.62C129.511 72.0867 129.105 71.6733 128.585 71.38C128.078 71.0733 127.485 70.92 126.805 70.92C126.138 70.92 125.545 71.0733 125.025 71.38C124.505 71.6733 124.098 72.0933 123.805 72.64C123.511 73.1733 123.365 73.7867 123.365 74.48V74.8C123.365 75.5067 123.525 76.14 123.845 76.7C124.178 77.2467 124.638 77.6733 125.225 77.98C125.811 78.2867 126.485 78.44 127.245 78.44C127.871 78.44 128.438 78.3333 128.945 78.12C129.465 77.9067 129.918 77.5867 130.305 77.16L131.365 78.4C130.885 78.96 130.285 79.3867 129.565 79.68C128.858 79.9733 128.065 80.12 127.185 80.12ZM140.998 80V77.76L140.898 77.34V73.52C140.898 72.7067 140.658 72.08 140.178 71.64C139.711 71.1867 139.004 70.96 138.058 70.96C137.431 70.96 136.818 71.0667 136.218 71.28C135.618 71.48 135.111 71.7533 134.698 72.1L133.898 70.66C134.444 70.22 135.098 69.8867 135.858 69.66C136.631 69.42 137.438 69.3 138.278 69.3C139.731 69.3 140.851 69.6533 141.638 70.36C142.424 71.0667 142.818 72.1467 142.818 73.6V80H140.998ZM137.518 80.12C136.731 80.12 136.038 79.9867 135.438 79.72C134.851 79.4533 134.398 79.0867 134.078 78.62C133.758 78.14 133.598 77.6 133.598 77C133.598 76.4267 133.731 75.9067 133.998 75.44C134.278 74.9733 134.724 74.6 135.338 74.32C135.964 74.04 136.804 73.9 137.858 73.9H141.218V75.28H137.938C136.978 75.28 136.331 75.44 135.998 75.76C135.664 76.08 135.498 76.4667 135.498 76.92C135.498 77.44 135.704 77.86 136.118 78.18C136.531 78.4867 137.104 78.64 137.838 78.64C138.558 78.64 139.184 78.48 139.718 78.16C140.264 77.84 140.658 77.3733 140.898 76.76L141.278 78.08C141.024 78.7067 140.578 79.2067 139.938 79.58C139.298 79.94 138.491 80.12 137.518 80.12ZM159.631 69.3C160.484 69.3 161.237 69.4667 161.891 69.8C162.544 70.1333 163.051 70.64 163.411 71.32C163.784 72 163.971 72.86 163.971 73.9V80H162.051V74.12C162.051 73.0933 161.811 72.32 161.331 71.8C160.851 71.28 160.177 71.02 159.311 71.02C158.671 71.02 158.111 71.1533 157.631 71.42C157.151 71.6867 156.777 72.08 156.511 72.6C156.257 73.12 156.131 73.7667 156.131 74.54V80H154.211V74.12C154.211 73.0933 153.971 72.32 153.491 71.8C153.024 71.28 152.351 71.02 151.471 71.02C150.844 71.02 150.291 71.1533 149.811 71.42C149.331 71.6867 148.957 72.08 148.691 72.6C148.424 73.12 148.291 73.7667 148.291 74.54V80H146.371V69.4H148.211V72.22L147.911 71.5C148.244 70.8067 148.757 70.2667 149.451 69.88C150.144 69.4933 150.951 69.3 151.871 69.3C152.884 69.3 153.757 69.5533 154.491 70.06C155.224 70.5533 155.704 71.3067 155.931 72.32L155.151 72C155.471 71.1867 156.031 70.5333 156.831 70.04C157.631 69.5467 158.564 69.3 159.631 69.3ZM170.544 80.12C169.664 80.12 168.824 80 168.024 79.76C167.237 79.52 166.617 79.2267 166.164 78.88L166.964 77.36C167.417 77.6667 167.977 77.9267 168.644 78.14C169.31 78.3533 169.99 78.46 170.684 78.46C171.577 78.46 172.217 78.3333 172.604 78.08C173.004 77.8267 173.204 77.4733 173.204 77.02C173.204 76.6867 173.084 76.4267 172.844 76.24C172.604 76.0533 172.284 75.9133 171.884 75.82C171.497 75.7267 171.064 75.6467 170.584 75.58C170.104 75.5 169.624 75.4067 169.144 75.3C168.664 75.18 168.224 75.02 167.824 74.82C167.424 74.6067 167.104 74.32 166.864 73.96C166.624 73.5867 166.504 73.0933 166.504 72.48C166.504 71.84 166.684 71.28 167.044 70.8C167.404 70.32 167.91 69.9533 168.564 69.7C169.23 69.4333 170.017 69.3 170.924 69.3C171.617 69.3 172.317 69.3867 173.024 69.56C173.744 69.72 174.33 69.9533 174.784 70.26L173.964 71.78C173.484 71.46 172.984 71.24 172.464 71.12C171.944 71 171.424 70.94 170.904 70.94C170.064 70.94 169.437 71.08 169.024 71.36C168.61 71.6267 168.404 71.9733 168.404 72.4C168.404 72.76 168.524 73.04 168.764 73.24C169.017 73.4267 169.337 73.5733 169.724 73.68C170.124 73.7867 170.564 73.88 171.044 73.96C171.524 74.0267 172.004 74.12 172.484 74.24C172.964 74.3467 173.397 74.5 173.784 74.7C174.184 74.9 174.504 75.18 174.744 75.54C174.997 75.9 175.124 76.38 175.124 76.98C175.124 77.62 174.937 78.1733 174.564 78.64C174.19 79.1067 173.664 79.4733 172.984 79.74C172.304 79.9933 171.49 80.12 170.544 80.12Z" fill="black"/>
</g>
<defs>
<filter id="filter0_d_867_37333" x="0" y="0" width="254" height="164" filterUnits="userSpaceOnUse" color-interpolation-filters="sRGB">
<feFlood flood-opacity="0" result="BackgroundImageFix"/>
<feColorMatrix in="SourceAlpha" type="matrix" values="0 0 0 0 0 0 0 0 0 0 0 0 0 0 0 0 0 0 127 0" result="hardAlpha"/>
<feMorphology radius="8" operator="dilate" in="SourceAlpha" result="effect1_dropShadow_867_37333"/>
<feOffset dy="9"/>
<feGaussianBlur stdDeviation="23"/>
<feComposite in2="hardAlpha" operator="out"/>
<feColorMatrix type="matrix" values="0 0 0 0 0.784314 0 0 0 0 0.478431 0 0 0 0 0.235294 0 0 0 0.4 0"/>
<feBlend mode="normal" in2="BackgroundImageFix" result="effect1_dropShadow_867_37333"/>
<feBlend mode="normal" in="SourceGraphic" in2="effect1_dropShadow_867_37333" result="shape"/>
</filter>
</defs>
</svg>
