<svg width="72" height="72" viewBox="0 0 72 72" fill="none" xmlns="http://www.w3.org/2000/svg">
<rect x="1" width="70" height="72" rx="6" fill="#E0F1FF"/>
<rect x="36.8008" y="11.1992" width="20" height="4" rx="2" fill="#8BCAFF"/>
<rect x="36.8008" y="19.1992" width="20" height="4" rx="2" fill="#8BCAFF"/>
<path d="M21.6608 16.8645V10.9961C17.525 10.9961 14.1908 14.4272 14.3492 18.5983C14.4932 22.3907 17.5834 25.4809 21.3758 25.6249C25.5467 25.7832 28.978 22.449 28.978 18.3132H23.1095C22.3094 18.3132 21.6608 17.6645 21.6608 16.8645Z" fill="#E49542"/>
<path d="M21.6602 10.9961V16.8645C21.6602 17.6647 22.3087 18.3132 23.1089 18.3132H28.9773C28.9773 14.2721 25.7013 10.9961 21.6602 10.9961Z" fill="#C8EA73"/>
<path d="M14.9297 60.3028V63.2473C14.9297 63.7274 15.3188 64.1165 15.7989 64.1165H21.0848C21.5649 64.1165 21.954 63.7274 21.954 63.2473V60.3028C21.954 59.8227 21.5649 59.4336 21.0848 59.4336H15.7989C15.3189 59.4336 14.9297 59.8228 14.9297 60.3028Z" fill="#4073C8"/>
<path d="M26.6367 53.2794V63.2483C26.6367 63.7284 27.0258 64.1175 27.5059 64.1175H32.7919C33.272 64.1175 33.6611 63.7284 33.6611 63.2483V53.2794C33.6611 52.7993 33.272 52.4102 32.7919 52.4102H27.5059C27.026 52.4102 26.6367 52.7994 26.6367 53.2794Z" fill="#E49542"/>
<path d="M27.5055 64.117H32.7914C33.2715 64.117 33.6606 63.7278 33.6606 63.2478V60.7188C31.3978 61.8705 29.1307 62.9108 26.8711 63.8408C27.0299 64.0104 27.255 64.117 27.5055 64.117Z" fill="#E28424"/>
<path d="M38.3438 44.4981V63.2475C38.3438 63.7276 38.7329 64.1167 39.213 64.1167H44.4989C44.979 64.1167 45.3681 63.7276 45.3681 63.2475V44.4981C45.3681 44.018 44.979 43.6289 44.4989 43.6289H39.213C38.733 43.6289 38.3438 44.018 38.3438 44.4981Z" fill="#DD5790"/>
<path d="M45.3681 53.6992C44.73 54.1432 44.0866 54.5837 43.4324 55.0167C41.7477 56.132 40.0495 57.1831 38.3438 58.1719V63.2482C38.3438 63.7283 38.7329 64.1174 39.213 64.1174H44.4989C44.979 64.1174 45.3681 63.7283 45.3681 63.2482V53.6992Z" fill="#DA387D"/>
<path d="M50.0508 38.6446V63.2476C50.0508 63.7277 50.4399 64.1168 50.92 64.1168H56.2059C56.686 64.1168 57.0751 63.7277 57.0751 63.2476V38.6446C57.0751 38.1645 56.686 37.7754 56.2059 37.7754H50.92C50.44 37.7754 50.0508 38.1645 50.0508 38.6446Z" fill="#C8EA73"/>
<path d="M57.0751 44.1426C54.8881 46.2394 52.5439 48.2788 50.0508 50.2385V63.2472C50.0508 63.7273 50.4399 64.1164 50.92 64.1164H56.2059C56.686 64.1164 57.0751 63.7273 57.0751 63.2472V44.1426Z" fill="#B7E445"/>
<rect x="16" y="32" width="20" height="4" rx="2" fill="#8BCAFF"/>
<rect x="16" y="40" width="10.4" height="4" rx="2" fill="#8BCAFF"/>
</svg>
