<svg width="98" height="99" viewBox="0 0 98 99" fill="none" xmlns="http://www.w3.org/2000/svg">
<rect x="20.707" y="0.0585938" width="80" height="80" rx="20" transform="rotate(15 20.707 0.0585938)" fill="white"/>
<g clip-path="url(#clip0_867_36951)">
<path d="M75.1696 36.4888L70.9511 52.2323C70.4341 54.1618 68.4543 55.3048 66.5247 54.7878L66.2998 54.7275C65.8633 54.6106 65.4137 54.8701 65.295 55.3134L64.5569 58.0679C64.3669 58.777 63.4196 58.9032 63.0484 58.2703L60.1489 53.3279C60.039 53.1377 59.8633 53.0029 59.6519 52.9463L43.6561 48.6602C41.7266 48.1432 40.5836 46.1634 41.1006 44.2339L45.3172 28.4972C45.8342 26.5676 47.8158 25.4179 49.7522 25.9367L72.6139 32.0625C74.5435 32.5796 75.6866 34.5592 75.1696 36.4888Z" fill="#CCE7FF"/>
<path d="M65.2541 42.3088L60.1777 61.2541C59.5554 63.5764 57.1739 64.9514 54.8516 64.3292L35.5946 59.1693C35.3374 59.1004 35.0687 59.1369 34.8435 59.2602L28.8426 62.6723C28.0817 63.1116 27.1678 62.4073 27.3954 61.5577L28.2849 58.238C28.427 57.7079 28.1131 57.1646 27.5832 57.0226L27.3182 56.9516C24.9958 56.3293 23.621 53.9478 24.2433 51.6255L29.3218 32.6724C29.944 30.35 32.3254 28.9752 34.6477 29.5974L62.1733 36.9729C64.4957 37.5952 65.8784 39.9786 65.2541 42.3088Z" fill="#488FF7"/>
<path d="M53.4997 44.6928L51.311 52.8612C50.9822 54.0885 49.7114 54.8222 48.484 54.4933L36.2316 51.2103C35.0043 50.8815 34.2705 49.6106 34.5994 48.3833L36.7881 40.215C37.1151 38.9945 38.3842 38.2676 39.6114 38.5964L51.8639 41.8795C53.0912 42.2083 53.8268 43.4723 53.4997 44.6928Z" fill="#D9EDFF"/>
<path d="M56.9434 47.1137L55.502 52.4934C55.3449 53.0797 54.6208 53.273 54.1911 52.8583L51.9017 50.6297L52.8937 46.9274L55.9907 46.1422C56.5702 45.9977 57.1005 46.5274 56.9434 47.1137Z" fill="#D9EDFF"/>
<path d="M45.979 48.2955L42.5613 49.381C41.6978 49.6624 40.8612 48.8629 41.0958 47.9877L42.0963 44.2535C42.3308 43.3783 43.4551 43.1039 44.0622 43.7796L46.4793 46.4283C47.0402 47.0415 46.7713 48.0449 45.979 48.2955Z" fill="#488FF7"/>
</g>
<defs>
<clipPath id="clip0_867_36951">
<rect width="48" height="48" fill="white" transform="translate(32.0205 19.6545) rotate(15)"/>
</clipPath>
</defs>
</svg>
