<svg xmlns="http://www.w3.org/2000/svg" width="24" height="24" viewBox="0 0 24 24" fill="none">
<mask id="mask0_152_15832" style="mask-type:alpha" maskUnits="userSpaceOnUse" x="0" y="0" width="24" height="24">
<rect width="24" height="24" fill="#D9D9D9"/>
</mask>
<g mask="url(#mask0_152_15832)">
<path d="M3.54922 12.0001L10.8992 19.3501C11.1492 19.6001 11.2701 19.8918 11.2617 20.2251C11.2534 20.5584 11.1242 20.8501 10.8742 21.1001C10.6242 21.3501 10.3326 21.4751 9.99922 21.4751C9.66589 21.4751 9.37422 21.3501 9.12422 21.1001L1.42422 13.4251C1.22422 13.2251 1.07422 13.0001 0.974219 12.7501C0.874219 12.5001 0.824219 12.2501 0.824219 12.0001C0.824219 11.7501 0.874219 11.5001 0.974219 11.2501C1.07422 11.0001 1.22422 10.7751 1.42422 10.5751L9.12422 2.87511C9.37422 2.62511 9.67005 2.50428 10.0117 2.51261C10.3534 2.52094 10.6492 2.65011 10.8992 2.90011C11.1492 3.15011 11.2742 3.44178 11.2742 3.77511C11.2742 4.10844 11.1492 4.40011 10.8992 4.65011L3.54922 12.0001Z" fill="#1C1B1F"/>
</g>
</svg>