<svg width="72" height="73" viewBox="0 0 72 73" fill="none" xmlns="http://www.w3.org/2000/svg">
<rect y="0.180664" width="72" height="72" rx="16" fill="#E8E1DB"/>
<path d="M36 17.1807C30.9609 17.1807 26.1282 19.1824 22.565 22.7456C19.0018 26.3088 17 31.1415 17 36.1807C17 41.2198 19.0018 46.0525 22.565 49.6157C26.1282 53.1789 30.9609 55.1807 36 55.1807L36 36.1807V17.1807Z" fill="#343932"/>
<path d="M36 55.1807C41.0391 55.1807 45.8718 53.1789 49.435 49.6157C52.9982 46.0525 55 41.2198 55 36.1807C55 31.1416 52.9982 26.3088 49.435 22.7456C45.8718 19.1824 41.0391 17.1807 36 17.1807L36 36.1807L36 55.1807Z" fill="#C87A3C"/>
</svg>
