<svg width="113" height="112" viewBox="0 0 113 112" fill="none" xmlns="http://www.w3.org/2000/svg">
<g clip-path="url(#clip0_21_10430)">
<path d="M92.8357 93.7164H96.8143C105.081 84.2861 110.094 71.9322 110.094 58.4062C110.094 28.8072 86.0991 4.8125 56.5 4.8125C26.9009 4.8125 2.90625 28.8072 2.90625 58.4062C2.90625 88.0053 26.9009 112 56.5 112C70.026 112 82.3799 106.987 91.8104 98.7206L92.8357 93.7164Z" fill="#2A428C"/>
<path d="M56.5 105.438C80.6625 105.438 100.25 85.85 100.25 61.6875C100.25 37.525 80.6625 17.9375 56.5 17.9375C32.3375 17.9375 12.75 37.525 12.75 61.6875C12.75 85.85 32.3375 105.438 56.5 105.438Z" fill="#1C2E7A"/>
<path d="M96.8143 93.7167L95.0735 90.3685C94.06 88.4194 94.0397 86.1166 94.967 84.1249C96.5192 80.7905 97.392 77.0759 97.406 73.1588C97.4581 58.6933 85.6471 46.8263 71.1816 46.8125C56.6643 46.7989 44.8927 58.5703 44.9063 73.0877C44.9198 87.5534 56.7866 99.3644 71.2521 99.3125C75.1694 99.2985 78.884 98.4257 82.2187 96.8735C84.2102 95.9464 86.513 95.9667 88.4622 96.98L91.8104 98.7208C93.586 97.1642 95.2577 95.4925 96.8143 93.7167Z" fill="#73C3F9"/>
<path d="M61.3125 73.0625C61.3125 61.4377 68.8719 51.5845 79.3406 48.1333C76.7696 47.283 74.0284 46.8151 71.1816 46.8125C56.6643 46.7987 44.8927 58.5701 44.9063 73.0875C44.9198 87.5532 56.7866 99.3641 71.2521 99.3123C74.0851 99.302 76.8114 98.8407 79.3653 98C68.8837 94.5564 61.3125 84.6965 61.3125 73.0625Z" fill="#4FABF7"/>
<path d="M85.375 74.375H56.9375C55.7293 74.375 54.75 75.3543 54.75 76.5625C54.75 77.7707 55.7293 78.75 56.9375 78.75H85.375C86.5832 78.75 87.5625 77.7707 87.5625 76.5625C87.5625 75.3543 86.5832 74.375 85.375 74.375Z" fill="#4FABF7"/>
<path d="M65.6875 76.5625C65.6875 75.3543 66.6668 74.375 67.875 74.375H56.9375C55.7293 74.375 54.75 75.3543 54.75 76.5625C54.75 77.7707 55.7293 78.75 56.9375 78.75H67.875C66.6668 78.75 65.6875 77.7707 65.6875 76.5625Z" fill="#1E9EF4"/>
<path d="M81 83.125H61.3125C60.1043 83.125 59.125 84.1043 59.125 85.3125C59.125 86.5207 60.1043 87.5 61.3125 87.5H81C82.2082 87.5 83.1875 86.5207 83.1875 85.3125C83.1875 84.1043 82.2082 83.125 81 83.125Z" fill="#4FABF7"/>
<path d="M70.0625 85.3125C70.0625 84.1043 71.0418 83.125 72.25 83.125H61.3125C60.1043 83.125 59.125 84.1043 59.125 85.3125C59.125 86.5207 60.1043 87.5 61.3125 87.5H72.25C71.0418 87.5 70.0625 86.5207 70.0625 85.3125Z" fill="#1E9EF4"/>
<path d="M16.1323 63.0208L18.7039 58.0744C20.0552 55.4757 20.0823 52.4053 18.8461 49.7499C16.7763 45.304 15.6128 40.3513 15.594 35.1284C15.5246 15.841 31.2724 0.0183911 50.5599 1.61179e-05C69.9164 -0.0183589 85.6117 15.6767 85.5938 35.0333C85.5758 54.3209 69.7532 70.0687 50.4658 69.9998C45.2427 69.981 40.29 68.8175 35.8439 66.7476C33.1885 65.5115 30.1181 65.5386 27.5191 66.8898L22.5728 69.4614C20.7241 70.4226 18.4657 70.0744 16.9924 68.6011C15.5194 67.1278 15.1714 64.8695 16.1323 63.0208Z" fill="#E9EFFF"/>
<path d="M37.4688 35.0333C37.4544 19.5099 47.5499 6.35033 61.5313 1.75286C58.0788 0.617548 54.3931 -0.00370215 50.5599 1.65987e-05C31.2725 0.0183916 15.5249 15.841 15.5941 35.1282C15.6129 40.3511 16.7766 45.3038 18.8462 49.7499C20.0824 52.4053 20.0553 55.4757 18.704 58.0744L16.1324 63.0208C15.1712 64.8695 15.5195 67.1278 16.9928 68.6011C18.466 70.0744 20.7244 70.4226 22.5731 69.4614L27.5194 66.8898C30.1182 65.5386 33.1886 65.5115 35.844 66.7476C40.2901 68.8175 45.2428 69.9812 50.4659 69.9998C54.3277 70.0136 58.0464 69.384 61.5313 68.2281C47.611 63.6112 37.4833 50.4591 37.4688 35.0333Z" fill="#D3DCFB"/>
<path d="M73.5625 32.8125H27.625C26.4168 32.8125 25.4375 33.7918 25.4375 35C25.4375 36.2082 26.4168 37.1875 27.625 37.1875H73.5625C74.7707 37.1875 75.75 36.2082 75.75 35C75.75 33.7918 74.7707 32.8125 73.5625 32.8125Z" fill="#D3DCFB"/>
<path d="M36.375 35C36.375 33.7918 37.3543 32.8125 38.5625 32.8125H27.625C26.4168 32.8125 25.4375 33.7918 25.4375 35C25.4375 36.2082 26.4168 37.1875 27.625 37.1875H38.5625C37.3543 37.1875 36.375 36.2082 36.375 35Z" fill="#BEC8F7"/>
<path d="M64.8125 41.5625H36.375C35.1668 41.5625 34.1875 42.5418 34.1875 43.75C34.1875 44.9582 35.1668 45.9375 36.375 45.9375H64.8125C66.0207 45.9375 67 44.9582 67 43.75C67 42.5418 66.0207 41.5625 64.8125 41.5625Z" fill="#D3DCFB"/>
<path d="M45.125 43.75C45.125 42.5418 46.1043 41.5625 47.3125 41.5625H36.375C35.1668 41.5625 34.1875 42.5418 34.1875 43.75C34.1875 44.9582 35.1668 45.9375 36.375 45.9375H47.3125C46.1043 45.9375 45.125 44.9582 45.125 43.75Z" fill="#BEC8F7"/>
<path d="M64.8125 24.0625H36.375C35.1668 24.0625 34.1875 25.0418 34.1875 26.25C34.1875 27.4582 35.1668 28.4375 36.375 28.4375H64.8125C66.0207 28.4375 67 27.4582 67 26.25C67 25.0418 66.0207 24.0625 64.8125 24.0625Z" fill="#D3DCFB"/>
<path d="M45.125 26.25C45.125 25.0418 46.1043 24.0625 47.3125 24.0625H36.375C35.1668 24.0625 34.1875 25.0418 34.1875 26.25C34.1875 27.4582 35.1668 28.4375 36.375 28.4375H47.3125C46.1043 28.4375 45.125 27.4582 45.125 26.25Z" fill="#BEC8F7"/>
<path d="M93.793 46.375C102.25 46.375 109.105 39.5194 109.105 31.0625C109.105 22.6056 102.25 15.75 93.793 15.75C85.3361 15.75 78.4805 22.6056 78.4805 31.0625C78.4805 39.5194 85.3361 46.375 93.793 46.375Z" fill="#49D88B"/>
<path d="M91.6055 31.0625C91.6055 24.9546 95.1827 19.6833 100.355 17.2257C98.3662 16.2805 96.1419 15.75 93.793 15.75C85.3361 15.75 78.4805 22.6056 78.4805 31.0625C78.4805 39.5194 85.3361 46.375 93.793 46.375C96.1419 46.375 98.3662 45.8445 100.355 44.8993C95.1825 42.4417 91.6055 37.1704 91.6055 31.0625Z" fill="#38C674"/>
<path d="M100.355 27.7812H97.0742V24.5C97.0742 22.6879 95.6051 21.2188 93.793 21.2188C91.9808 21.2188 90.5117 22.6879 90.5117 24.5V27.7812H87.2305C85.4183 27.7812 83.9492 29.2504 83.9492 31.0625C83.9492 32.8746 85.4183 34.3438 87.2305 34.3438H90.5117V37.625C90.5117 39.4371 91.9808 40.9062 93.793 40.9062C95.6051 40.9062 97.0742 39.4371 97.0742 37.625V34.3438H100.355C102.168 34.3438 103.637 32.8746 103.637 31.0625C103.637 29.2504 102.168 27.7812 100.355 27.7812Z" fill="white"/>
<path d="M93.793 31.0625C93.793 29.2504 95.2621 27.7812 97.0742 27.7812V24.5C97.0742 22.6879 95.6051 21.2188 93.793 21.2188C91.9808 21.2188 90.5117 22.6879 90.5117 24.5V27.7812H87.2305C85.4183 27.7812 83.9492 29.2504 83.9492 31.0625C83.9492 32.8746 85.4183 34.3438 87.2305 34.3438H90.5117V37.625C90.5117 39.4371 91.9808 40.9062 93.793 40.9062C95.6051 40.9062 97.0742 39.4371 97.0742 37.625V34.3438C95.2619 34.3438 93.793 32.8746 93.793 31.0625Z" fill="#E9EFFF"/>
<path d="M17.5469 26.25C24.7956 26.25 30.6719 20.3737 30.6719 13.125C30.6719 5.87626 24.7956 0 17.5469 0C10.2981 0 4.42188 5.87626 4.42188 13.125C4.42188 20.3737 10.2981 26.25 17.5469 26.25Z" fill="#49D88B"/>
<path d="M15.6717 13.125C15.6717 7.88966 18.738 3.37138 23.1718 1.26481C21.4669 0.454563 19.56 0 17.5469 0C10.2982 0 4.42188 5.87628 4.42188 13.125C4.42188 20.3737 10.2982 26.25 17.5469 26.25C19.5603 26.25 21.4669 25.7954 23.1718 24.9852C18.738 22.8786 15.6717 18.3603 15.6717 13.125Z" fill="#38C674"/>
<path d="M23.1719 10.3124H20.3595V7.49997C20.3595 5.94662 19.1003 4.6875 17.547 4.6875C15.9937 4.6875 14.7345 5.94662 14.7345 7.49997V10.3124H11.9218C10.3685 10.3124 9.10938 11.5716 9.10938 13.1249C9.10938 14.6783 10.3685 15.9374 11.9218 15.9374H14.7343V18.7498C14.7343 20.3032 15.9934 21.5623 17.5468 21.5623C19.1001 21.5623 20.3592 20.3032 20.3592 18.7498V15.9374H23.1717C24.7251 15.9374 25.9842 14.6783 25.9842 13.1249C25.9844 11.5716 24.7253 10.3124 23.1719 10.3124Z" fill="white"/>
<path d="M17.547 13.1249C17.547 11.5716 18.8061 10.3124 20.3595 10.3124V7.49997C20.3595 5.94662 19.1003 4.6875 17.547 4.6875C15.9937 4.6875 14.7345 5.94662 14.7345 7.49997V10.3124H11.9218C10.3685 10.3124 9.10938 11.5716 9.10938 13.1249C9.10938 14.6783 10.3685 15.9374 11.9218 15.9374H14.7343V18.7498C14.7343 20.3032 15.9934 21.5623 17.5468 21.5623C19.1001 21.5623 20.3592 20.3032 20.3592 18.7498V15.9374C18.8061 15.9374 17.547 14.6783 17.547 13.1249Z" fill="#E9EFFF"/>
<path d="M29.5039 96.25C35.5445 96.25 40.4414 91.3531 40.4414 85.3125C40.4414 79.2719 35.5445 74.375 29.5039 74.375C23.4633 74.375 18.5664 79.2719 18.5664 85.3125C18.5664 91.3531 23.4633 96.25 29.5039 96.25Z" fill="#49D88B"/>
<path d="M27.9416 85.3125C27.9416 80.9495 30.4968 77.1846 34.1915 75.4289C32.7707 74.7539 31.1817 74.375 29.5039 74.375C23.4633 74.375 18.5664 79.2719 18.5664 85.3125C18.5664 91.3531 23.4633 96.25 29.5039 96.25C31.1817 96.25 32.7705 95.8711 34.1915 95.1961C30.4966 93.4404 27.9416 89.6753 27.9416 85.3125Z" fill="#38C674"/>
<path d="M34.1911 82.9686H31.8474V80.6249C31.8474 79.3306 30.7981 78.2812 29.5037 78.2812C28.2094 78.2812 27.16 79.3306 27.16 80.6249V82.9686H24.8163C23.522 82.9686 22.4727 84.018 22.4727 85.3123C22.4727 86.6067 23.522 87.656 24.8163 87.656H27.16V89.9997C27.16 91.294 28.2094 92.3434 29.5037 92.3434C30.7981 92.3434 31.8474 91.294 31.8474 89.9997V87.656H34.1911C35.4854 87.656 36.5348 86.6067 36.5348 85.3123C36.5348 84.018 35.4854 82.9686 34.1911 82.9686Z" fill="white"/>
<path d="M29.5037 85.3123C29.5037 84.018 30.5531 82.9686 31.8474 82.9686V80.6249C31.8474 79.3306 30.7981 78.2812 29.5037 78.2812C28.2094 78.2812 27.16 79.3306 27.16 80.6249V82.9686H24.8163C23.522 82.9686 22.4727 84.018 22.4727 85.3123C22.4727 86.6067 23.522 87.656 24.8163 87.656H27.16V89.9997C27.16 91.294 28.2094 92.3434 29.5037 92.3434C30.7981 92.3434 31.8474 91.294 31.8474 89.9997V87.656C30.5531 87.656 29.5037 86.6067 29.5037 85.3123Z" fill="#E9EFFF"/>
</g>
<defs>
<clipPath id="clip0_21_10430">
<rect width="112" height="112" fill="white" transform="translate(0.5)"/>
</clipPath>
</defs>
</svg>
