<svg width="361" height="217" viewBox="0 0 361 217" fill="none" xmlns="http://www.w3.org/2000/svg">
<g clip-path="url(#clip0_2613_83529)">
<rect x="0.806335" width="359.387" height="216.675" rx="7.58601" fill="#343932"/>
<g opacity="0.3" filter="url(#filter0_f_2613_83529)">
<circle cx="518.306" cy="268.5" r="330.5" fill="#D0CAFB"/>
</g>
<g filter="url(#filter1_bdi_2613_83529)">
<rect x="49.0852" y="37.3007" width="262.748" height="141.632" fill="white" fill-opacity="0.1"/>
<rect x="165.497" y="48.0553" width="30.0069" height="30.0069" rx="15.0034" stroke="white" stroke-opacity="0.3" stroke-width="0.337156"/>
<path fill-rule="evenodd" clip-rule="evenodd" d="M176.394 61.3621H177.047L177.046 59.5297C177.046 56.4051 180.753 54.776 182.939 57.0225C183.565 57.6659 183.953 58.5532 183.953 59.5297V61.3621C184.602 61.3621 185.131 61.2841 185.635 61.8015C185.899 62.0725 186.063 62.4467 186.063 62.859L186.063 68.6414C186.063 69.0538 185.899 69.428 185.636 69.699L185.634 69.6978C185.369 69.9694 185.005 70.1384 184.606 70.1384L176.394 70.139C175.592 70.139 174.938 69.4661 174.938 68.6421L174.937 62.859C174.937 62.035 175.592 61.3621 176.394 61.3621ZM183.035 59.5297C183.035 57.2432 180.32 56.037 178.71 57.6906C178.251 58.1632 177.965 58.8145 177.965 59.5297V61.3621H183.035L183.035 59.5297Z" fill="white"/>
<g filter="url(#filter2_dd_2613_83529)">
<rect x="111.752" y="88.1874" width="137.022" height="31.7664" rx="5.70452" fill="white" shape-rendering="crispEdges"/>
<rect x="119.358" y="94.5883" width="18.965" height="18.9644" rx="3.44808" fill="#CDE0FF"/>
<path d="M125.905 99.1035C125.531 99.1035 125.228 99.4068 125.228 99.7808V108.36C125.228 108.734 125.531 109.038 125.905 109.038H131.775C132.149 109.038 132.453 108.734 132.453 108.36V101.813L129.743 99.1035H125.905Z" fill="#4E8DF5"/>
<path d="M125.905 109.038C125.531 109.038 125.228 108.734 125.228 108.36V108.247C125.228 108.621 125.531 108.925 125.905 108.925H131.775C132.149 108.925 132.453 108.621 132.453 108.247V108.36C132.453 108.734 132.149 109.038 131.775 109.038H125.905Z" fill="#417EE9"/>
<path d="M125.905 99.1035C125.531 99.1035 125.228 99.4068 125.228 99.7808V99.8937C125.228 99.5197 125.531 99.2164 125.905 99.2164H129.856L129.743 99.1035H125.905Z" fill="#639AF6"/>
<path d="M132.453 104.127V101.813L132.058 101.418H130.152C130.001 101.418 129.926 101.6 130.032 101.707L132.453 104.127Z" fill="url(#paint0_linear_2613_83529)"/>
<path d="M129.743 99.1035L132.453 101.813H130.421C130.047 101.813 129.743 101.51 129.743 101.135V99.1035Z" fill="#A6C5FA"/>
<path d="M130.647 104.071H127.034V104.522H130.647V104.071Z" fill="white"/>
<path d="M130.647 104.974H127.034V105.425H130.647V104.974Z" fill="white"/>
<path d="M127.034 105.877H130.647V106.328H127.034V105.877Z" fill="white"/>
<path d="M129.743 106.78H127.034V107.231H129.743V106.78Z" fill="white"/>
<path d="M146.363 102.794V101.101L144.978 98.6972H145.672L146.665 100.418L147.658 98.6972H148.352L146.967 101.101V102.794H146.363ZM149.502 102.879C149.195 102.879 148.929 102.81 148.703 102.671C148.477 102.533 148.303 102.342 148.18 102.099C148.058 101.855 147.997 101.573 147.997 101.255C147.997 100.934 148.06 100.652 148.185 100.41C148.31 100.165 148.486 99.9754 148.712 99.8408C148.937 99.7042 149.201 99.6359 149.502 99.6359C149.81 99.6359 150.076 99.7052 150.302 99.8436C150.527 99.982 150.702 100.173 150.825 100.415C150.948 100.658 151.01 100.938 151.01 101.255C151.01 101.575 150.947 101.858 150.822 102.102C150.699 102.345 150.525 102.536 150.299 102.674C150.073 102.811 149.808 102.879 149.502 102.879ZM149.502 102.319C149.796 102.319 150.015 102.22 150.159 102.023C150.306 101.824 150.379 101.568 150.379 101.255C150.379 100.934 150.305 100.678 150.157 100.487C150.011 100.293 149.793 100.196 149.502 100.196C149.303 100.196 149.139 100.242 149.01 100.333C148.881 100.422 148.785 100.546 148.723 100.706C148.66 100.863 148.629 101.046 148.629 101.255C148.629 101.577 148.703 101.835 148.851 102.028C148.999 102.222 149.216 102.319 149.502 102.319ZM152.668 102.876C152.455 102.876 152.277 102.842 152.133 102.774C151.989 102.705 151.871 102.616 151.78 102.506C151.691 102.394 151.623 102.273 151.575 102.142C151.528 102.011 151.496 101.883 151.479 101.758C151.462 101.633 151.453 101.523 151.453 101.428V99.7213H152.056V101.232C152.056 101.351 152.066 101.475 152.085 101.602C152.106 101.727 152.143 101.843 152.198 101.952C152.255 102.06 152.334 102.147 152.435 102.213C152.537 102.28 152.67 102.313 152.833 102.313C152.939 102.313 153.04 102.296 153.134 102.262C153.229 102.226 153.312 102.169 153.382 102.091C153.454 102.013 153.51 101.911 153.55 101.784C153.591 101.657 153.612 101.502 153.612 101.32L153.982 101.459C153.982 101.738 153.93 101.985 153.826 102.199C153.721 102.411 153.572 102.577 153.376 102.697C153.181 102.816 152.945 102.876 152.668 102.876ZM153.683 102.794V101.906H153.612V99.7213H154.213V102.794H153.683ZM154.885 102.794V99.7213H155.414V100.467L155.34 100.37C155.378 100.271 155.428 100.181 155.488 100.1C155.549 100.016 155.619 99.9479 155.699 99.8948C155.777 99.8379 155.863 99.7943 155.958 99.7639C156.054 99.7317 156.153 99.7127 156.254 99.7071C156.354 99.6995 156.451 99.7042 156.544 99.7213V100.279C156.443 100.252 156.331 100.245 156.208 100.256C156.087 100.267 155.975 100.306 155.872 100.373C155.776 100.435 155.699 100.511 155.642 100.6C155.587 100.689 155.547 100.789 155.522 100.899C155.498 101.007 155.485 101.122 155.485 101.243V102.794H154.885ZM159.195 102.879C158.908 102.879 158.661 102.808 158.452 102.666C158.245 102.523 158.085 102.33 157.971 102.085C157.859 101.839 157.803 101.562 157.803 101.255C157.803 100.945 157.86 100.67 157.974 100.427C158.088 100.182 158.249 99.9896 158.458 99.8493C158.668 99.7071 158.918 99.6359 159.206 99.6359C159.496 99.6359 159.74 99.7071 159.937 99.8493C160.136 99.9896 160.286 100.182 160.387 100.427C160.489 100.671 160.54 100.947 160.54 101.255C160.54 101.562 160.489 101.838 160.387 102.082C160.284 102.327 160.133 102.521 159.934 102.666C159.735 102.808 159.489 102.879 159.195 102.879ZM159.277 102.341C159.472 102.341 159.632 102.295 159.755 102.202C159.878 102.109 159.968 101.981 160.025 101.818C160.082 101.655 160.111 101.467 160.111 101.255C160.111 101.042 160.081 100.854 160.022 100.691C159.965 100.528 159.876 100.401 159.755 100.31C159.636 100.219 159.483 100.174 159.297 100.174C159.1 100.174 158.938 100.222 158.811 100.319C158.683 100.415 158.589 100.545 158.526 100.708C158.465 100.872 158.435 101.054 158.435 101.255C158.435 101.458 158.465 101.641 158.526 101.806C158.589 101.97 158.682 102.099 158.805 102.196C158.93 102.293 159.087 102.341 159.277 102.341ZM160.111 102.794V100.583H160.042V98.6972H160.64V102.794H160.111ZM162.645 102.879C162.337 102.879 162.071 102.81 161.845 102.671C161.62 102.533 161.445 102.342 161.322 102.099C161.2 101.855 161.14 101.573 161.14 101.255C161.14 100.934 161.202 100.652 161.328 100.41C161.453 100.165 161.628 99.9754 161.854 99.8408C162.08 99.7042 162.343 99.6359 162.645 99.6359C162.952 99.6359 163.218 99.7052 163.444 99.8436C163.67 99.982 163.844 100.173 163.967 100.415C164.091 100.658 164.152 100.938 164.152 101.255C164.152 101.575 164.09 101.858 163.965 102.102C163.841 102.345 163.667 102.536 163.441 102.674C163.216 102.811 162.95 102.879 162.645 102.879ZM162.645 102.319C162.939 102.319 163.158 102.22 163.302 102.023C163.448 101.824 163.521 101.568 163.521 101.255C163.521 100.934 163.447 100.678 163.299 100.487C163.153 100.293 162.935 100.196 162.645 100.196C162.446 100.196 162.281 100.242 162.153 100.333C162.024 100.422 161.928 100.546 161.865 100.706C161.803 100.863 161.771 101.046 161.771 101.255C161.771 101.577 161.845 101.835 161.993 102.028C162.141 102.222 162.358 102.319 162.645 102.319ZM165.967 102.879C165.652 102.879 165.384 102.809 165.164 102.668C164.944 102.528 164.776 102.336 164.658 102.091C164.542 101.846 164.484 101.568 164.482 101.257C164.484 100.941 164.544 100.661 164.664 100.418C164.783 100.174 164.954 99.982 165.176 99.8436C165.398 99.7052 165.664 99.6359 165.975 99.6359C166.311 99.6359 166.597 99.7194 166.834 99.8863C167.073 100.053 167.231 100.282 167.307 100.572L166.715 100.743C166.656 100.57 166.559 100.436 166.425 100.341C166.292 100.245 166.139 100.196 165.967 100.196C165.771 100.196 165.611 100.243 165.486 100.336C165.361 100.427 165.268 100.552 165.207 100.711C165.146 100.871 165.115 101.053 165.113 101.257C165.115 101.574 165.187 101.83 165.329 102.026C165.474 102.221 165.686 102.319 165.967 102.319C166.158 102.319 166.313 102.275 166.43 102.188C166.55 102.099 166.641 101.971 166.703 101.806L167.307 101.949C167.206 102.248 167.04 102.479 166.809 102.64C166.577 102.799 166.297 102.879 165.967 102.879ZM168.919 102.876C168.706 102.876 168.528 102.842 168.384 102.774C168.24 102.705 168.122 102.616 168.031 102.506C167.942 102.394 167.874 102.273 167.826 102.142C167.779 102.011 167.747 101.883 167.73 101.758C167.713 101.633 167.704 101.523 167.704 101.428V99.7213H168.307V101.232C168.307 101.351 168.317 101.475 168.336 101.602C168.356 101.727 168.394 101.843 168.449 101.952C168.506 102.06 168.585 102.147 168.685 102.213C168.788 102.28 168.921 102.313 169.084 102.313C169.19 102.313 169.29 102.296 169.385 102.262C169.48 102.226 169.563 102.169 169.633 102.091C169.705 102.013 169.761 101.911 169.801 101.784C169.842 101.657 169.863 101.502 169.863 101.32L170.233 101.459C170.233 101.738 170.181 101.985 170.077 102.199C169.972 102.411 169.822 102.577 169.627 102.697C169.432 102.816 169.196 102.876 168.919 102.876ZM169.934 102.794V101.906H169.863V99.7213H170.463V102.794H169.934ZM174.817 102.794L174.82 100.879C174.82 100.657 174.763 100.485 174.649 100.361C174.536 100.236 174.386 100.174 174.2 100.174C174.086 100.174 173.982 100.2 173.887 100.253C173.794 100.304 173.718 100.382 173.659 100.487C173.602 100.589 173.574 100.718 173.574 100.873L173.287 100.728C173.283 100.512 173.328 100.322 173.423 100.159C173.52 99.9963 173.651 99.8702 173.816 99.781C173.981 99.69 174.166 99.6445 174.371 99.6445C174.702 99.6445 174.959 99.744 175.142 99.9432C175.324 100.142 175.415 100.407 175.415 100.737L175.412 102.794H174.817ZM171.133 102.794V99.7213H171.662V100.609H171.731V102.794H171.133ZM172.977 102.794L172.979 100.89C172.979 100.667 172.923 100.491 172.809 100.364C172.697 100.237 172.546 100.174 172.356 100.174C172.169 100.174 172.017 100.238 171.901 100.367C171.788 100.496 171.731 100.665 171.731 100.873L171.446 100.691C171.446 100.49 171.495 100.311 171.591 100.154C171.688 99.9963 171.819 99.872 171.984 99.781C172.149 99.69 172.336 99.6445 172.544 99.6445C172.762 99.6445 172.948 99.6909 173.102 99.7839C173.255 99.8749 173.372 100.003 173.452 100.168C173.533 100.333 173.574 100.524 173.574 100.743L173.571 102.794H172.977ZM177.352 102.879C177.047 102.879 176.778 102.813 176.547 102.68C176.317 102.545 176.138 102.358 176.009 102.119C175.882 101.879 175.819 101.6 175.819 101.283C175.819 100.947 175.881 100.656 176.006 100.41C176.133 100.163 176.31 99.9726 176.535 99.8379C176.761 99.7033 177.024 99.6359 177.323 99.6359C177.636 99.6359 177.903 99.7089 178.123 99.855C178.343 99.9991 178.507 100.205 178.615 100.472C178.725 100.74 178.769 101.057 178.746 101.425H178.151V101.209C178.147 100.853 178.079 100.589 177.946 100.418C177.816 100.248 177.615 100.162 177.346 100.162C177.048 100.162 176.825 100.256 176.675 100.444C176.525 100.632 176.45 100.903 176.45 101.257C176.45 101.595 176.525 101.857 176.675 102.043C176.825 102.227 177.041 102.319 177.323 102.319C177.509 102.319 177.67 102.277 177.804 102.193C177.941 102.108 178.047 101.987 178.123 101.829L178.706 102.014C178.587 102.289 178.405 102.502 178.163 102.654C177.92 102.804 177.65 102.879 177.352 102.879ZM176.257 101.425V100.962H178.45V101.425H176.257ZM181.332 102.794V101.283C181.332 101.164 181.321 101.041 181.301 100.916C181.282 100.789 181.244 100.671 181.187 100.563C181.132 100.455 181.053 100.368 180.951 100.302C180.85 100.235 180.718 100.202 180.555 100.202C180.449 100.202 180.349 100.22 180.254 100.256C180.159 100.29 180.075 100.346 180.003 100.424C179.933 100.502 179.877 100.604 179.836 100.731C179.796 100.858 179.776 101.013 179.776 101.195L179.406 101.055C179.406 100.777 179.458 100.531 179.562 100.319C179.667 100.104 179.817 99.9375 180.012 99.818C180.207 99.6985 180.443 99.6388 180.72 99.6388C180.933 99.6388 181.111 99.6729 181.255 99.7412C181.399 99.8095 181.516 99.8995 181.605 100.011C181.696 100.121 181.765 100.242 181.813 100.373C181.86 100.504 181.892 100.632 181.909 100.757C181.926 100.882 181.935 100.992 181.935 101.087V102.794H181.332ZM179.173 102.794V99.7213H179.705V100.609H179.776V102.794H179.173ZM184.309 102.794C184.115 102.832 183.926 102.848 183.74 102.842C183.554 102.836 183.388 102.8 183.242 102.734C183.096 102.667 182.986 102.563 182.912 102.421C182.846 102.294 182.81 102.165 182.804 102.034C182.8 101.901 182.798 101.751 182.798 101.585V98.8678H183.396V101.556C183.396 101.679 183.397 101.787 183.398 101.878C183.402 101.969 183.422 102.045 183.458 102.108C183.527 102.226 183.635 102.293 183.783 102.31C183.932 102.325 184.108 102.319 184.309 102.29V102.794ZM182.209 100.199V99.7213H184.309V100.199H182.209ZM186.006 102.876C185.633 102.876 185.328 102.794 185.093 102.629C184.858 102.464 184.714 102.231 184.661 101.932L185.27 101.838C185.307 101.997 185.395 102.123 185.531 102.216C185.67 102.307 185.841 102.353 186.046 102.353C186.232 102.353 186.377 102.315 186.481 102.239C186.588 102.163 186.641 102.059 186.641 101.926C186.641 101.848 186.622 101.786 186.584 101.738C186.548 101.689 186.471 101.642 186.353 101.599C186.236 101.555 186.057 101.501 185.816 101.437C185.552 101.368 185.343 101.295 185.187 101.218C185.033 101.138 184.923 101.046 184.857 100.942C184.793 100.835 184.76 100.707 184.76 100.558C184.76 100.372 184.81 100.21 184.908 100.071C185.007 99.9327 185.145 99.8256 185.324 99.7497C185.504 99.6739 185.714 99.6359 185.955 99.6359C186.19 99.6359 186.4 99.6729 186.584 99.7469C186.768 99.8208 186.917 99.9261 187.03 100.063C187.144 100.197 187.212 100.356 187.235 100.538L186.626 100.649C186.606 100.501 186.536 100.384 186.419 100.299C186.301 100.213 186.149 100.167 185.961 100.159C185.781 100.152 185.635 100.182 185.523 100.25C185.411 100.317 185.355 100.409 185.355 100.526C185.355 100.595 185.376 100.652 185.417 100.7C185.461 100.747 185.544 100.793 185.668 100.836C185.791 100.88 185.973 100.932 186.214 100.993C186.472 101.059 186.677 101.133 186.828 101.215C186.98 101.294 187.088 101.39 187.153 101.502C187.219 101.612 187.252 101.746 187.252 101.903C187.252 102.207 187.141 102.445 186.919 102.617C186.699 102.79 186.395 102.876 186.006 102.876Z" fill="#343932"/>
<rect x="144.978" y="105.749" width="31.8502" height="3.80301" rx="1.90151" fill="#F2F2F2"/>
</g>
<g filter="url(#filter3_dd_2613_83529)">
<rect x="111.752" y="127.54" width="137.022" height="31.7664" rx="5.70452" fill="white" shape-rendering="crispEdges"/>
<rect x="119.358" y="133.941" width="18.965" height="18.9644" rx="3.44808" fill="#FFF8EE"/>
<path d="M134.038 140.19C134.038 140.194 134.038 140.196 134.037 140.199C134.037 140.203 134.037 140.208 134.036 140.213C134.036 140.218 134.036 140.223 134.036 140.227C134.036 140.234 134.036 140.24 134.036 140.246C134.031 140.265 134.026 140.283 134.021 140.302C134.01 140.322 133.998 140.342 133.985 140.363C133.979 140.374 133.972 140.383 133.964 140.394C133.933 140.43 133.899 140.464 133.864 140.497C133.845 140.514 133.824 140.533 133.803 140.549C133.8 140.551 133.799 140.553 133.796 140.555C133.608 140.689 133.406 140.797 133.195 140.89C132.497 141.177 131.743 141.33 130.998 141.433C129.861 141.58 128.706 141.605 127.562 141.522C127.261 141.501 126.96 141.471 126.661 141.432C126.684 141.434 126.706 141.438 126.729 141.441C126.699 141.437 126.668 141.433 126.638 141.429C126.644 141.429 126.65 141.43 126.656 141.432C125.916 141.329 125.169 141.176 124.476 140.892C124.265 140.8 124.063 140.691 123.875 140.558C123.873 140.555 123.87 140.553 123.867 140.551C123.848 140.535 123.829 140.518 123.812 140.502C123.775 140.468 123.74 140.432 123.707 140.394C123.701 140.383 123.694 140.374 123.687 140.363C123.675 140.342 123.663 140.322 123.652 140.302C123.657 140.317 123.663 140.332 123.668 140.345C123.659 140.322 123.648 140.298 123.638 140.275C123.638 140.283 123.64 140.292 123.641 140.3C123.64 140.291 123.638 140.282 123.637 140.272C123.637 140.271 123.637 140.271 123.636 140.269C123.633 140.263 123.63 140.257 123.628 140.25C123.626 140.256 123.626 140.26 123.625 140.265C123.625 140.26 123.626 140.254 123.628 140.25C123.629 140.242 123.629 140.236 123.63 140.227C123.629 140.215 123.628 140.204 123.626 140.192C123.628 140.203 123.629 140.213 123.632 140.223C123.633 140.215 123.634 140.207 123.634 140.199C123.634 140.196 123.634 140.194 123.633 140.19C123.632 140.192 123.63 140.195 123.629 140.198C123.63 140.195 123.632 140.191 123.633 140.188C123.634 140.185 123.636 140.183 123.636 140.18C123.637 140.172 123.638 140.164 123.638 140.156C123.637 140.162 123.637 140.171 123.636 140.177C123.647 140.152 123.657 140.126 123.668 140.1C123.661 140.116 123.655 140.134 123.649 140.152C123.66 140.129 123.674 140.107 123.687 140.085C123.683 140.089 123.679 140.092 123.676 140.095C123.679 140.093 123.739 140.008 123.71 140.051C123.703 140.062 123.695 140.073 123.689 140.084C123.689 140.084 123.689 140.085 123.687 140.085C123.699 140.073 123.712 140.051 123.72 140.043C123.753 140.005 123.79 139.97 123.828 139.936C123.848 139.919 123.867 139.903 123.887 139.885C123.891 139.882 123.896 139.88 123.9 139.877C124.077 139.75 124.272 139.65 124.472 139.563C125.163 139.279 125.908 139.126 126.646 139.023C126.634 139.025 126.623 139.026 126.611 139.027C126.648 139.022 126.683 139.018 126.719 139.012C126.698 139.015 126.676 139.018 126.654 139.022C127.796 138.872 128.959 138.847 130.108 138.93C130.412 138.951 130.716 138.983 131.02 139.023C130.995 139.019 130.971 139.016 130.946 139.014C130.983 139.019 131.018 139.023 131.055 139.029C131.044 139.027 131.033 139.026 131.021 139.025C131.758 139.127 132.502 139.28 133.194 139.563C133.394 139.651 133.589 139.751 133.766 139.877C133.773 139.881 133.78 139.886 133.787 139.892C133.801 139.904 133.818 139.918 133.831 139.93C133.869 139.964 133.907 139.999 133.941 140.037C133.949 140.046 133.957 140.054 133.964 140.064C133.968 140.068 133.971 140.073 133.973 140.077C133.988 140.102 134.003 140.126 134.017 140.15C134.011 140.133 134.004 140.116 133.998 140.1C134.008 140.126 134.019 140.152 134.03 140.177C134.03 140.171 134.029 140.162 134.027 140.156C134.029 140.164 134.03 140.172 134.03 140.18C134.037 140.185 134.037 140.187 134.038 140.19Z" fill="#FFE0B3"/>
<path d="M134.037 143.463V143.467C134.04 143.46 134.042 143.453 134.046 143.447C134.044 143.453 134.041 143.46 134.037 143.468C134.037 143.468 134.036 143.475 134.036 143.478C134.034 143.484 133.999 143.543 133.987 143.562C133.98 143.572 133.973 143.582 133.965 143.593C133.934 143.629 133.9 143.663 133.865 143.696C133.846 143.713 133.826 143.732 133.804 143.748C133.802 143.75 133.8 143.752 133.798 143.754C133.608 143.889 133.405 143.997 133.193 144.091C132.496 144.376 131.744 144.528 131.001 144.631C129.864 144.778 128.709 144.802 127.565 144.72C127.264 144.698 126.963 144.668 126.664 144.629C126.687 144.632 126.709 144.636 126.732 144.639C126.695 144.633 126.66 144.629 126.624 144.624C126.636 144.625 126.647 144.626 126.659 144.628C125.92 144.525 125.174 144.373 124.483 144.089C124.271 143.996 124.068 143.888 123.878 143.752C123.875 143.751 123.873 143.748 123.87 143.747C123.851 143.731 123.832 143.715 123.815 143.698C123.778 143.664 123.743 143.629 123.71 143.59C123.704 143.579 123.697 143.57 123.69 143.559C123.678 143.539 123.666 143.518 123.655 143.498C123.66 143.513 123.666 143.528 123.671 143.541C123.662 143.518 123.651 143.494 123.641 143.471C123.641 143.474 123.641 143.476 123.641 143.478C123.641 143.484 123.643 143.49 123.643 143.497C123.641 143.487 123.64 143.478 123.639 143.468C123.639 143.467 123.639 143.467 123.637 143.466C123.635 143.459 123.632 143.452 123.628 143.444C123.631 143.451 123.633 143.457 123.637 143.464V143.46C123.636 143.448 123.633 143.434 123.632 143.422C123.631 143.41 123.629 143.399 123.628 143.387C123.629 143.399 123.632 143.41 123.633 143.422H123.636C123.635 143.409 123.635 143.395 123.635 143.38C123.633 143.305 123.637 143.229 123.637 143.156V141.368C123.804 141.47 123.98 141.554 124.161 141.632C125.004 141.984 125.908 142.157 126.813 142.263C126.871 142.269 126.929 142.276 126.987 142.283C127.025 142.287 127.063 142.291 127.103 142.295C127.14 142.299 127.178 142.303 127.218 142.306C127.255 142.31 127.293 142.313 127.333 142.317C127.523 142.333 127.715 142.347 127.906 142.357C128.629 142.397 129.355 142.389 130.078 142.337C130.102 142.336 130.127 142.333 130.151 142.332C130.171 142.33 130.192 142.329 130.212 142.328C130.238 142.326 130.263 142.324 130.289 142.321C130.591 142.295 130.895 142.264 131.198 142.223C131.22 142.221 131.242 142.218 131.263 142.214C131.294 142.21 131.324 142.204 131.355 142.2C131.937 142.114 132.513 141.989 133.067 141.801C133.089 141.793 133.112 141.786 133.133 141.778C133.141 141.776 133.149 141.773 133.158 141.77C133.187 141.759 133.217 141.749 133.247 141.738C133.493 141.646 133.739 141.543 133.969 141.41C133.992 141.397 134.014 141.385 134.036 141.371V143.083C134.037 143.177 134.04 143.438 134.037 143.463Z" fill="#F99709"/>
<path d="M134.037 146.664C134.039 146.657 134.042 146.65 134.046 146.644C134.042 146.65 134.039 146.659 134.037 146.664C134.037 146.665 134.037 146.667 134.035 146.667C134.034 146.676 134.033 146.686 134.031 146.695C134.033 146.688 134.033 146.682 134.034 146.673C134.034 146.672 134.034 146.671 134.034 146.669C134.025 146.692 134.014 146.717 134.004 146.74C134.01 146.725 134.015 146.711 134.02 146.696C134.01 146.717 133.997 146.737 133.985 146.757C133.979 146.768 133.972 146.778 133.964 146.788C133.933 146.825 133.899 146.859 133.863 146.891C133.845 146.91 133.824 146.928 133.803 146.944C133.8 146.945 133.799 146.948 133.796 146.95C133.608 147.083 133.405 147.193 133.194 147.285C132.496 147.571 131.743 147.723 130.999 147.826C129.862 147.974 128.707 147.999 127.564 147.916C127.262 147.894 126.961 147.864 126.662 147.825C126.685 147.828 126.707 147.832 126.73 147.834C126.7 147.83 126.669 147.826 126.639 147.822C126.645 147.824 126.652 147.824 126.657 147.825C125.917 147.722 125.171 147.569 124.479 147.285C124.267 147.193 124.065 147.083 123.876 146.95C123.874 146.948 123.871 146.945 123.868 146.943C123.849 146.927 123.83 146.91 123.813 146.894C123.776 146.86 123.741 146.825 123.709 146.786C123.702 146.775 123.695 146.765 123.688 146.755C123.676 146.734 123.664 146.714 123.653 146.694C123.648 146.676 123.642 146.657 123.638 146.638V146.637C123.638 146.636 123.638 146.636 123.638 146.634C123.638 146.629 123.638 146.625 123.637 146.619C123.636 146.606 123.636 146.592 123.636 146.577C123.634 146.502 123.638 146.426 123.638 146.353V144.567C123.667 144.584 123.696 144.601 123.726 144.618C123.733 144.622 123.74 144.626 123.747 144.63C123.761 144.638 123.775 144.647 123.79 144.653C123.816 144.667 123.84 144.679 123.864 144.693C123.889 144.705 123.914 144.717 123.939 144.729C123.947 144.733 123.956 144.737 123.964 144.741C123.973 144.745 123.981 144.749 123.99 144.753C124.004 144.76 124.017 144.766 124.032 144.772C124.042 144.776 124.05 144.781 124.059 144.785C124.069 144.789 124.077 144.793 124.086 144.797C124.488 144.97 124.905 145.103 125.33 145.204L125.342 145.207C125.362 145.212 125.382 145.216 125.403 145.222C125.416 145.224 125.43 145.228 125.445 145.231C125.478 145.239 125.512 145.246 125.546 145.254C125.565 145.258 125.584 145.262 125.603 145.266C125.618 145.269 125.633 145.273 125.648 145.276C125.649 145.276 125.65 145.276 125.652 145.276C125.676 145.281 125.699 145.285 125.723 145.291C125.725 145.291 125.727 145.292 125.73 145.292C125.756 145.297 125.782 145.303 125.807 145.307C125.864 145.318 125.921 145.329 125.979 145.338C125.991 145.341 126.003 145.342 126.014 145.345C126.04 145.349 126.066 145.354 126.093 145.358C126.118 145.362 126.144 145.366 126.171 145.37C126.24 145.381 126.311 145.392 126.38 145.402C126.405 145.406 126.432 145.41 126.458 145.412C126.472 145.414 126.485 145.416 126.499 145.418C126.501 145.418 126.504 145.419 126.507 145.419C126.528 145.422 126.551 145.426 126.573 145.429H126.574C126.585 145.43 126.596 145.431 126.608 145.433C126.637 145.437 126.664 145.439 126.692 145.444C126.727 145.448 126.761 145.452 126.796 145.456C126.818 145.458 126.841 145.461 126.863 145.464C126.865 145.464 126.869 145.464 126.872 145.465C126.886 145.467 126.899 145.468 126.913 145.469C126.944 145.473 126.974 145.476 127.005 145.48C127.289 145.511 127.576 145.534 127.863 145.55C128.048 145.56 128.233 145.567 128.417 145.571C128.775 145.579 129.132 145.577 129.489 145.565C129.757 145.556 130.023 145.54 130.289 145.517C130.451 145.503 130.613 145.488 130.777 145.471C131.14 145.43 131.5 145.376 131.858 145.308C131.884 145.303 131.908 145.299 131.934 145.293C131.95 145.291 131.966 145.287 131.983 145.284C132.017 145.277 132.05 145.27 132.084 145.264C132.102 145.26 132.119 145.257 132.137 145.253C132.15 145.25 132.164 145.247 132.179 145.243C132.192 145.241 132.207 145.237 132.222 145.234C132.232 145.232 132.24 145.23 132.249 145.227C132.27 145.223 132.289 145.218 132.309 145.214C132.385 145.196 132.46 145.177 132.535 145.158C132.583 145.146 132.632 145.132 132.681 145.119C132.705 145.112 132.73 145.105 132.754 145.099C132.778 145.092 132.803 145.085 132.827 145.077C132.851 145.07 132.876 145.062 132.9 145.055C132.933 145.044 132.966 145.035 132.999 145.024C133.012 145.02 133.026 145.016 133.038 145.011C133.039 145.011 133.039 145.011 133.041 145.009C133.075 144.998 133.108 144.986 133.142 144.974C133.146 144.973 133.15 144.971 133.154 144.97C133.168 144.965 133.183 144.96 133.196 144.955C133.21 144.95 133.225 144.944 133.238 144.94C133.244 144.937 133.251 144.936 133.256 144.933C133.275 144.927 133.294 144.92 133.311 144.912C133.563 144.817 133.815 144.707 134.045 144.567V146.278C134.045 146.372 134.05 146.469 134.049 146.564V146.568C134.049 146.59 134.048 146.611 134.046 146.633C134.05 146.617 134.053 146.6 134.056 146.584C134.053 146.609 134.049 146.633 134.046 146.657V146.664H134.037Z" fill="#F99709"/>
<path d="M146.363 142.146V140.453L144.978 138.05H145.672L146.665 139.771L147.658 138.05H148.352L146.967 140.453V142.146H146.363ZM149.502 142.231C149.195 142.231 148.929 142.162 148.703 142.024C148.477 141.885 148.303 141.695 148.18 141.452C148.058 141.207 147.997 140.926 147.997 140.607C147.997 140.286 148.06 140.005 148.185 139.762C148.31 139.517 148.486 139.328 148.712 139.193C148.937 139.057 149.201 138.988 149.502 138.988C149.81 138.988 150.076 139.058 150.302 139.196C150.527 139.334 150.702 139.525 150.825 139.768C150.948 140.011 151.01 140.29 151.01 140.607C151.01 140.927 150.947 141.21 150.822 141.455C150.699 141.697 150.525 141.888 150.299 142.027C150.073 142.163 149.808 142.231 149.502 142.231ZM149.502 141.671C149.796 141.671 150.015 141.572 150.159 141.375C150.306 141.176 150.379 140.92 150.379 140.607C150.379 140.286 150.305 140.03 150.157 139.839C150.011 139.645 149.793 139.549 149.502 139.549C149.303 139.549 149.139 139.594 149.01 139.685C148.881 139.774 148.785 139.899 148.723 140.058C148.66 140.215 148.629 140.398 148.629 140.607C148.629 140.929 148.703 141.187 148.851 141.381C148.999 141.574 149.216 141.671 149.502 141.671ZM152.668 142.228C152.455 142.228 152.277 142.194 152.133 142.126C151.989 142.058 151.871 141.969 151.78 141.859C151.691 141.747 151.623 141.625 151.575 141.495C151.528 141.364 151.496 141.236 151.479 141.111C151.462 140.985 151.453 140.875 151.453 140.781V139.074H152.056V140.584C152.056 140.704 152.066 140.827 152.085 140.954C152.106 141.079 152.143 141.196 152.198 141.304C152.255 141.412 152.334 141.499 152.435 141.566C152.537 141.632 152.67 141.665 152.833 141.665C152.939 141.665 153.04 141.648 153.134 141.614C153.229 141.578 153.312 141.521 153.382 141.443C153.454 141.366 153.51 141.263 153.55 141.136C153.591 141.009 153.612 140.854 153.612 140.672L153.982 140.812C153.982 141.091 153.93 141.337 153.826 141.551C153.721 141.764 153.572 141.93 153.376 142.049C153.181 142.169 152.945 142.228 152.668 142.228ZM153.683 142.146V141.258H153.612V139.074H154.213V142.146H153.683ZM154.885 142.146V139.074H155.414V139.819L155.34 139.722C155.378 139.624 155.428 139.534 155.488 139.452C155.549 139.369 155.619 139.3 155.699 139.247C155.777 139.19 155.863 139.147 155.958 139.116C156.054 139.084 156.153 139.065 156.254 139.059C156.354 139.052 156.451 139.057 156.544 139.074V139.631C156.443 139.605 156.331 139.597 156.208 139.608C156.087 139.62 155.975 139.659 155.872 139.725C155.776 139.788 155.699 139.864 155.642 139.953C155.587 140.042 155.547 140.141 155.522 140.251C155.498 140.359 155.485 140.474 155.485 140.596V142.146H154.885ZM159.195 142.231C158.908 142.231 158.661 142.16 158.452 142.018C158.245 141.876 158.085 141.682 157.971 141.438C157.859 141.191 157.803 140.914 157.803 140.607C157.803 140.298 157.86 140.022 157.974 139.779C158.088 139.535 158.249 139.342 158.458 139.202C158.668 139.059 158.918 138.988 159.206 138.988C159.496 138.988 159.74 139.059 159.937 139.202C160.136 139.342 160.286 139.535 160.387 139.779C160.489 140.024 160.54 140.3 160.54 140.607C160.54 140.914 160.489 141.19 160.387 141.435C160.284 141.679 160.133 141.874 159.934 142.018C159.735 142.16 159.489 142.231 159.195 142.231ZM159.277 141.694C159.472 141.694 159.632 141.647 159.755 141.554C159.878 141.461 159.968 141.333 160.025 141.17C160.082 141.007 160.111 140.819 160.111 140.607C160.111 140.395 160.081 140.207 160.022 140.044C159.965 139.881 159.876 139.754 159.755 139.663C159.636 139.571 159.483 139.526 159.297 139.526C159.1 139.526 158.938 139.574 158.811 139.671C158.683 139.768 158.589 139.898 158.526 140.061C158.465 140.224 158.435 140.406 158.435 140.607C158.435 140.81 158.465 140.994 158.526 141.159C158.589 141.322 158.682 141.452 158.805 141.549C158.93 141.645 159.087 141.694 159.277 141.694ZM160.111 142.146V139.936H160.042V138.05H160.64V142.146H160.111ZM162.178 142.231C161.951 142.231 161.76 142.19 161.606 142.106C161.453 142.021 161.336 141.909 161.256 141.77C161.179 141.63 161.14 141.477 161.14 141.31C161.14 141.154 161.167 141.018 161.222 140.9C161.277 140.782 161.359 140.683 161.467 140.601C161.575 140.518 161.708 140.451 161.865 140.399C162.002 140.359 162.156 140.324 162.329 140.294C162.501 140.264 162.683 140.235 162.872 140.209C163.064 140.182 163.253 140.156 163.441 140.129L163.225 140.249C163.229 140.008 163.178 139.829 163.071 139.714C162.967 139.596 162.787 139.537 162.531 139.537C162.37 139.537 162.222 139.575 162.087 139.651C161.952 139.725 161.859 139.848 161.805 140.021L161.251 139.85C161.327 139.587 161.471 139.377 161.683 139.222C161.897 139.066 162.182 138.988 162.537 138.988C162.812 138.988 163.051 139.036 163.253 139.131C163.458 139.223 163.608 139.371 163.703 139.574C163.752 139.675 163.783 139.781 163.794 139.893C163.805 140.005 163.811 140.125 163.811 140.254V142.146H163.285V141.443L163.387 141.534C163.26 141.77 163.098 141.945 162.901 142.061C162.705 142.174 162.465 142.231 162.178 142.231ZM162.283 141.745C162.452 141.745 162.597 141.715 162.719 141.657C162.84 141.596 162.938 141.519 163.012 141.426C163.086 141.333 163.134 141.237 163.157 141.136C163.189 141.045 163.207 140.943 163.211 140.829C163.216 140.715 163.219 140.624 163.219 140.556L163.413 140.627C163.225 140.655 163.054 140.681 162.901 140.704C162.747 140.726 162.608 140.749 162.483 140.772C162.359 140.793 162.249 140.818 162.153 140.849C162.071 140.877 161.998 140.911 161.933 140.951C161.871 140.991 161.821 141.039 161.783 141.096C161.747 141.153 161.729 141.222 161.729 141.304C161.729 141.384 161.749 141.458 161.788 141.526C161.828 141.592 161.889 141.645 161.97 141.685C162.052 141.725 162.156 141.745 162.283 141.745ZM166.183 142.146C165.989 142.184 165.8 142.2 165.614 142.194C165.428 142.189 165.262 142.153 165.116 142.086C164.97 142.02 164.86 141.916 164.786 141.773C164.719 141.646 164.683 141.517 164.678 141.386C164.674 141.254 164.672 141.104 164.672 140.937V138.22H165.269V140.909C165.269 141.032 165.27 141.139 165.272 141.23C165.276 141.321 165.296 141.398 165.332 141.46C165.4 141.578 165.508 141.645 165.656 141.662C165.806 141.678 165.982 141.671 166.183 141.642V142.146ZM164.083 139.552V139.074H166.183V139.552H164.083ZM167.573 142.231C167.345 142.231 167.155 142.19 167.001 142.106C166.847 142.021 166.731 141.909 166.651 141.77C166.573 141.63 166.535 141.477 166.535 141.31C166.535 141.154 166.562 141.018 166.617 140.9C166.672 140.782 166.754 140.683 166.862 140.601C166.97 140.518 167.103 140.451 167.26 140.399C167.396 140.359 167.551 140.324 167.724 140.294C167.896 140.264 168.077 140.235 168.267 140.209C168.459 140.182 168.648 140.156 168.836 140.129L168.62 140.249C168.624 140.008 168.572 139.829 168.466 139.714C168.362 139.596 168.182 139.537 167.926 139.537C167.764 139.537 167.616 139.575 167.482 139.651C167.347 139.725 167.253 139.848 167.2 140.021L166.645 139.85C166.721 139.587 166.865 139.377 167.078 139.222C167.292 139.066 167.577 138.988 167.931 138.988C168.206 138.988 168.445 139.036 168.648 139.131C168.853 139.223 169.003 139.371 169.098 139.574C169.147 139.675 169.177 139.781 169.189 139.893C169.2 140.005 169.206 140.125 169.206 140.254V142.146H168.679V141.443L168.782 141.534C168.655 141.77 168.493 141.945 168.295 142.061C168.1 142.174 167.859 142.231 167.573 142.231ZM167.678 141.745C167.847 141.745 167.992 141.715 168.113 141.657C168.235 141.596 168.332 141.519 168.406 141.426C168.48 141.333 168.529 141.237 168.551 141.136C168.584 141.045 168.602 140.943 168.606 140.829C168.611 140.715 168.614 140.624 168.614 140.556L168.807 140.627C168.62 140.655 168.449 140.681 168.295 140.704C168.142 140.726 168.002 140.749 167.877 140.772C167.754 140.793 167.644 140.818 167.547 140.849C167.466 140.877 167.393 140.911 167.328 140.951C167.266 140.991 167.215 141.039 167.177 141.096C167.141 141.153 167.123 141.222 167.123 141.304C167.123 141.384 167.143 141.458 167.183 141.526C167.223 141.592 167.284 141.645 167.365 141.685C167.447 141.725 167.551 141.745 167.678 141.745Z" fill="#343932"/>
<rect x="144.978" y="145.101" width="31.8502" height="3.80301" rx="1.90151" fill="#F2F2F2"/>
</g>
<g filter="url(#filter4_dd_2613_83529)">
<rect x="111.752" y="166.892" width="137.022" height="31.7664" rx="5.70452" fill="white" shape-rendering="crispEdges"/>
<rect x="119.358" y="173.293" width="18.965" height="18.9644" rx="3.44808" fill="#F7F5F3"/>
<path d="M124.099 186.105C124.099 186.455 124.379 186.739 124.724 186.739H124.733C124.383 186.739 124.099 186.455 124.099 186.105Z" fill="#FBBC05"/>
<path d="M129.473 181.189V182.846L131.658 181.045V179.445C131.658 179.095 131.378 178.811 131.033 178.811H126.299L126.295 181.189H129.473Z" fill="#FBBC05"/>
<path d="M129.473 184.502H126.29L126.286 186.74H131.032C131.378 186.74 131.658 186.456 131.658 186.105V184.661L129.473 182.846V184.502Z" fill="#34A853"/>
<path d="M126.299 178.811L124.099 181.189H126.295L126.299 178.811Z" fill="#EA4335"/>
<path d="M124.099 184.503V186.106C124.099 186.456 124.383 186.74 124.733 186.74H126.286L126.29 184.503H124.099Z" fill="#1967D2"/>
<path d="M126.295 181.189H124.099V184.502H126.29L126.295 181.189Z" fill="#4285F4"/>
<path d="M133.579 185.541V180.097C133.455 179.374 132.68 180.202 132.68 180.202L131.658 181.044V184.661L133.121 185.876C133.649 185.947 133.579 185.541 133.579 185.541Z" fill="#34A853"/>
<path d="M129.473 182.846L131.658 184.661V181.045L129.473 182.846Z" fill="#188038"/>
<path d="M146.363 181.499V179.806L144.978 177.402H145.672L146.665 179.123L147.658 177.402H148.352L146.967 179.806V181.499H146.363ZM149.502 181.584C149.195 181.584 148.929 181.515 148.703 181.376C148.477 181.238 148.303 181.047 148.18 180.805C148.058 180.56 147.997 180.278 147.997 179.96C147.997 179.639 148.06 179.358 148.185 179.115C148.31 178.87 148.486 178.681 148.712 178.546C148.937 178.409 149.201 178.341 149.502 178.341C149.81 178.341 150.076 178.41 150.302 178.549C150.527 178.687 150.702 178.878 150.825 179.121C150.948 179.363 151.01 179.643 151.01 179.96C151.01 180.28 150.947 180.563 150.822 180.807C150.699 181.05 150.525 181.241 150.299 181.379C150.073 181.516 149.808 181.584 149.502 181.584ZM149.502 181.024C149.796 181.024 150.015 180.925 150.159 180.728C150.306 180.529 150.379 180.273 150.379 179.96C150.379 179.639 150.305 179.383 150.157 179.192C150.011 178.998 149.793 178.901 149.502 178.901C149.303 178.901 149.139 178.947 149.01 179.038C148.881 179.127 148.785 179.251 148.723 179.411C148.66 179.568 148.629 179.751 148.629 179.96C148.629 180.282 148.703 180.54 148.851 180.733C148.999 180.927 149.216 181.024 149.502 181.024ZM152.668 181.581C152.455 181.581 152.277 181.547 152.133 181.479C151.989 181.411 151.871 181.321 151.78 181.211C151.691 181.1 151.623 180.978 151.575 180.847C151.528 180.716 151.496 180.588 151.479 180.463C151.462 180.338 151.453 180.228 151.453 180.133V178.426H152.056V179.937C152.056 180.056 152.066 180.18 152.085 180.307C152.106 180.432 152.143 180.549 152.198 180.657C152.255 180.765 152.334 180.852 152.435 180.918C152.537 180.985 152.67 181.018 152.833 181.018C152.939 181.018 153.04 181.001 153.134 180.967C153.229 180.931 153.312 180.874 153.382 180.796C153.454 180.718 153.51 180.616 153.55 180.489C153.591 180.362 153.612 180.207 153.612 180.025L153.982 180.165C153.982 180.443 153.93 180.69 153.826 180.904C153.721 181.117 153.572 181.283 153.376 181.402C153.181 181.521 152.945 181.581 152.668 181.581ZM153.683 181.499V180.611H153.612V178.426H154.213V181.499H153.683ZM154.885 181.499V178.426H155.414V179.172L155.34 179.075C155.378 178.976 155.428 178.886 155.488 178.805C155.549 178.721 155.619 178.653 155.699 178.6C155.777 178.543 155.863 178.499 155.958 178.469C156.054 178.437 156.153 178.418 156.254 178.412C156.354 178.405 156.451 178.409 156.544 178.426V178.984C156.443 178.957 156.331 178.95 156.208 178.961C156.087 178.973 155.975 179.011 155.872 179.078C155.776 179.14 155.699 179.216 155.642 179.305C155.587 179.395 155.547 179.494 155.522 179.604C155.498 179.712 155.485 179.827 155.485 179.948V181.499H154.885ZM161.655 181.499L161.658 179.584C161.658 179.362 161.601 179.19 161.487 179.066C161.374 178.941 161.224 178.879 161.038 178.879C160.924 178.879 160.82 178.905 160.725 178.958C160.632 179.01 160.556 179.087 160.497 179.192C160.441 179.294 160.412 179.423 160.412 179.579L160.125 179.433C160.121 179.217 160.167 179.028 160.261 178.864C160.358 178.701 160.489 178.575 160.654 178.486C160.819 178.395 161.004 178.35 161.209 178.35C161.541 178.35 161.798 178.449 161.98 178.648C162.162 178.847 162.253 179.112 162.253 179.442L162.25 181.499H161.655ZM157.971 181.499V178.426H158.5V179.314H158.569V181.499H157.971ZM159.815 181.499L159.818 179.596C159.818 179.372 159.761 179.196 159.647 179.069C159.535 178.942 159.384 178.879 159.195 178.879C159.007 178.879 158.855 178.943 158.739 179.072C158.626 179.201 158.569 179.37 158.569 179.579L158.284 179.396C158.284 179.195 158.333 179.016 158.429 178.859C158.526 178.701 158.657 178.577 158.822 178.486C158.987 178.395 159.174 178.35 159.382 178.35C159.6 178.35 159.786 178.396 159.94 178.489C160.094 178.58 160.21 178.708 160.29 178.873C160.371 179.038 160.412 179.23 160.412 179.448L160.409 181.499H159.815ZM164.19 181.584C163.885 181.584 163.616 181.518 163.385 181.385C163.155 181.25 162.976 181.063 162.847 180.825C162.72 180.584 162.657 180.305 162.657 179.988C162.657 179.652 162.719 179.361 162.844 179.115C162.971 178.868 163.148 178.678 163.374 178.543C163.599 178.408 163.862 178.341 164.162 178.341C164.474 178.341 164.741 178.414 164.961 178.56C165.181 178.704 165.345 178.91 165.453 179.177C165.563 179.445 165.607 179.762 165.584 180.13H164.989V179.914C164.986 179.558 164.917 179.294 164.785 179.123C164.654 178.953 164.454 178.867 164.184 178.867C163.887 178.867 163.663 178.961 163.513 179.149C163.363 179.337 163.288 179.608 163.288 179.963C163.288 180.3 163.363 180.562 163.513 180.748C163.663 180.932 163.879 181.024 164.162 181.024C164.347 181.024 164.508 180.982 164.642 180.898C164.779 180.813 164.885 180.692 164.961 180.534L165.544 180.719C165.425 180.994 165.243 181.208 165.001 181.359C164.758 181.509 164.488 181.584 164.19 181.584ZM163.095 180.13V179.667H165.288V180.13H163.095ZM167.46 181.584C167.154 181.584 166.886 181.518 166.655 181.385C166.425 181.25 166.246 181.063 166.117 180.825C165.99 180.584 165.926 180.305 165.926 179.988C165.926 179.652 165.989 179.361 166.114 179.115C166.241 178.868 166.417 178.678 166.643 178.543C166.869 178.408 167.132 178.341 167.431 178.341C167.744 178.341 168.011 178.414 168.231 178.56C168.451 178.704 168.615 178.91 168.723 179.177C168.833 179.445 168.876 179.762 168.854 180.13H168.259V179.914C168.255 179.558 168.187 179.294 168.054 179.123C167.923 178.953 167.723 178.867 167.454 178.867C167.156 178.867 166.932 178.961 166.783 179.149C166.633 179.337 166.558 179.608 166.558 179.963C166.558 180.3 166.633 180.562 166.783 180.748C166.932 180.932 167.149 181.024 167.431 181.024C167.617 181.024 167.777 180.982 167.912 180.898C168.048 180.813 168.155 180.692 168.231 180.534L168.814 180.719C168.694 180.994 168.513 181.208 168.27 181.359C168.028 181.509 167.757 181.584 167.46 181.584ZM166.364 180.13V179.667H168.558V180.13H166.364ZM171.125 181.499C170.931 181.537 170.742 181.553 170.556 181.547C170.37 181.541 170.204 181.505 170.058 181.439C169.912 181.373 169.802 181.268 169.728 181.126C169.662 180.999 169.625 180.87 169.62 180.739C169.616 180.606 169.614 180.457 169.614 180.29V177.573H170.212V180.261C170.212 180.385 170.212 180.492 170.214 180.583C170.218 180.674 170.238 180.751 170.274 180.813C170.342 180.931 170.45 180.998 170.598 181.015C170.748 181.03 170.924 181.024 171.125 180.995V181.499ZM169.025 178.904V178.426H171.125V178.904H169.025ZM171.704 177.923V177.345H172.299V177.923H171.704ZM171.704 181.499V178.426H172.299V181.499H171.704ZM175.184 181.499V179.988C175.184 179.869 175.174 179.746 175.153 179.621C175.134 179.494 175.096 179.377 175.039 179.268C174.984 179.16 174.905 179.073 174.803 179.007C174.702 178.94 174.571 178.907 174.408 178.907C174.301 178.907 174.201 178.925 174.106 178.961C174.011 178.995 173.928 179.051 173.856 179.129C173.785 179.207 173.73 179.309 173.688 179.436C173.648 179.563 173.628 179.718 173.628 179.9L173.258 179.761C173.258 179.482 173.31 179.236 173.415 179.024C173.519 178.809 173.669 178.643 173.864 178.523C174.06 178.404 174.296 178.344 174.573 178.344C174.785 178.344 174.963 178.378 175.107 178.446C175.251 178.515 175.368 178.605 175.457 178.717C175.548 178.827 175.617 178.947 175.665 179.078C175.712 179.209 175.745 179.337 175.762 179.462C175.779 179.587 175.787 179.697 175.787 179.792V181.499H175.184ZM173.025 181.499V178.426H173.557V179.314H173.628V181.499H173.025ZM177.669 182.95C177.504 182.95 177.344 182.924 177.188 182.873C177.035 182.822 176.894 182.746 176.767 182.645C176.64 182.547 176.535 182.424 176.451 182.278L177 181.999C177.067 182.13 177.162 182.226 177.285 182.287C177.408 182.347 177.538 182.378 177.675 182.378C177.843 182.378 177.988 182.347 178.107 182.287C178.227 182.228 178.317 182.139 178.377 182.019C178.44 181.9 178.47 181.752 178.468 181.576V180.716H178.539V178.426H179.066V181.581C179.066 181.663 179.063 181.741 179.057 181.814C179.051 181.888 179.041 181.962 179.026 182.036C178.982 182.243 178.899 182.414 178.776 182.548C178.654 182.683 178.499 182.784 178.309 182.85C178.121 182.916 177.908 182.95 177.669 182.95ZM177.623 181.584C177.337 181.584 177.09 181.513 176.881 181.371C176.674 181.228 176.514 181.035 176.4 180.79C176.288 180.544 176.232 180.267 176.232 179.96C176.232 179.651 176.289 179.375 176.403 179.132C176.517 178.887 176.678 178.695 176.887 178.554C177.097 178.412 177.347 178.341 177.635 178.341C177.925 178.341 178.169 178.412 178.366 178.554C178.565 178.695 178.715 178.887 178.815 179.132C178.918 179.377 178.969 179.652 178.969 179.96C178.969 180.267 178.918 180.543 178.815 180.788C178.713 181.032 178.562 181.227 178.363 181.371C178.164 181.513 177.917 181.584 177.623 181.584ZM177.706 181.046C177.901 181.046 178.061 181 178.184 180.907C178.307 180.814 178.397 180.686 178.454 180.523C178.511 180.36 178.539 180.172 178.539 179.96C178.539 179.747 178.51 179.56 178.451 179.396C178.394 179.233 178.305 179.106 178.184 179.015C178.064 178.924 177.912 178.879 177.726 178.879C177.529 178.879 177.366 178.927 177.239 179.024C177.112 179.121 177.017 179.25 176.955 179.414C176.894 179.577 176.864 179.759 176.864 179.96C176.864 180.163 176.894 180.347 176.955 180.512C177.017 180.675 177.11 180.805 177.234 180.901C177.359 180.998 177.516 181.046 177.706 181.046ZM180.914 181.581C180.541 181.581 180.236 181.499 180.001 181.334C179.766 181.169 179.622 180.936 179.569 180.637L180.177 180.543C180.215 180.702 180.303 180.828 180.439 180.921C180.578 181.012 180.749 181.058 180.954 181.058C181.14 181.058 181.285 181.02 181.389 180.944C181.496 180.868 181.549 180.764 181.549 180.631C181.549 180.553 181.53 180.491 181.492 180.443C181.456 180.394 181.379 180.348 181.261 180.304C181.144 180.26 180.964 180.206 180.724 180.142C180.46 180.073 180.25 180 180.095 179.923C179.941 179.843 179.831 179.751 179.765 179.647C179.7 179.541 179.668 179.413 179.668 179.263C179.668 179.077 179.718 178.915 179.816 178.776C179.915 178.638 180.053 178.531 180.231 178.455C180.412 178.379 180.622 178.341 180.863 178.341C181.098 178.341 181.308 178.378 181.492 178.452C181.676 178.526 181.825 178.631 181.938 178.768C182.052 178.902 182.12 179.061 182.143 179.243L181.534 179.354C181.514 179.206 181.444 179.089 181.327 179.004C181.209 178.919 181.056 178.872 180.869 178.864C180.689 178.857 180.543 178.887 180.431 178.956C180.319 179.022 180.263 179.114 180.263 179.231C180.263 179.3 180.284 179.358 180.325 179.405C180.369 179.452 180.452 179.498 180.576 179.542C180.699 179.585 180.881 179.637 181.122 179.698C181.38 179.764 181.585 179.838 181.736 179.92C181.888 180 181.996 180.095 182.061 180.207C182.127 180.317 182.16 180.451 182.16 180.608C182.16 180.912 182.049 181.15 181.827 181.322C181.607 181.495 181.303 181.581 180.914 181.581Z" fill="#343932"/>
<rect x="144.978" y="184.453" width="31.8502" height="3.80301" rx="1.90151" fill="#F2F2F2"/>
</g>
</g>
<rect x="268.687" y="92.9286" width="68.2741" height="40.7748" rx="4.40478" fill="#201335"/>
<rect x="268.687" y="130.369" width="68.2741" height="23.6757" rx="4.40478" fill="#201335"/>
<rect x="268.687" y="150.741" width="68.2741" height="23.6757" rx="4.40478" fill="#201335"/>
<rect x="268.687" y="171.114" width="68.2741" height="23.6757" rx="4.40478" fill="#201335"/>
<rect opacity="0.4" x="271.991" y="113.301" width="61.6669" height="17.0685" rx="4.40478" fill="#4F4789"/>
<rect opacity="0.4" x="271.991" y="133.673" width="61.6669" height="17.0685" rx="4.40478" fill="#4F4789"/>
<rect opacity="0.4" x="271.991" y="154.045" width="61.6669" height="17.0685" rx="4.40478" fill="#4F4789"/>
<rect opacity="0.4" x="271.991" y="174.417" width="61.6669" height="17.0685" rx="4.40478" fill="#4F4789"/>
<circle opacity="0.8" cx="279.7" cy="121.759" r="2.75299" fill="#EFAF35"/>
<circle opacity="0.8" cx="288.983" cy="121.759" r="2.75299" fill="#FEFEFE"/>
<circle opacity="0.8" cx="281.351" cy="142.482" r="4.40478" fill="#E259A7"/>
<circle opacity="0.8" cx="279.7" cy="162.855" r="2.75299" fill="#FEFEFE"/>
<circle opacity="0.8" cx="279.7" cy="182.921" r="2.75299" fill="#FEFEFE"/>
<circle opacity="0.8" cx="288.999" cy="182.921" r="2.75299" fill="#FEFEFE"/>
<rect opacity="0.2" x="295.713" y="119.006" width="34.1371" height="5.68951" rx="2.84475" fill="#FEFEFE"/>
<rect opacity="0.2" x="291.92" y="139.393" width="34.1371" height="5.68951" rx="2.84475" fill="#FEFEFE"/>
<rect opacity="0.2" x="290.039" y="159.78" width="34.1371" height="5.68951" rx="2.84475" fill="#FEFEFE"/>
<rect opacity="0.2" x="295.545" y="180.168" width="34.1371" height="5.68951" rx="2.84475" fill="#FEFEFE"/>
<g filter="url(#filter5_dd_2613_83529)">
<rect x="28.7797" y="21.8098" width="68.2741" height="40.7748" rx="4.40478" fill="#C87A3C"/>
<rect x="28.7797" y="59.2504" width="68.2741" height="23.6757" rx="4.40478" fill="#C87A3C"/>
<rect x="28.7797" y="79.6226" width="68.2741" height="23.6757" rx="4.40478" fill="#C87A3C"/>
<rect x="28.7797" y="99.9947" width="68.2741" height="23.6757" rx="4.40478" fill="#C87A3C"/>
<rect opacity="0.4" x="32.0829" y="42.1819" width="61.6669" height="17.0685" rx="4.40478" fill="#E8E1DB"/>
<rect opacity="0.4" x="32.0829" y="62.554" width="61.6669" height="17.0685" rx="4.40478" fill="#EFAF35"/>
<rect opacity="0.4" x="32.0829" y="82.9262" width="61.6669" height="17.0685" rx="4.40478" fill="#EFAF35"/>
<rect opacity="0.4" x="32.0829" y="103.298" width="61.6669" height="17.0685" rx="4.40478" fill="#E8E1DB"/>
<circle cx="39.5929" cy="71.0271" r="2.75299" fill="#201335"/>
<circle cx="41.2447" cy="50.8691" r="4.40478" fill="#201335"/>
<circle cx="48.8763" cy="71.0271" r="2.75299" fill="#FEFEFE"/>
<circle cx="39.5929" cy="112.123" r="2.75299" fill="#FEFEFE"/>
<circle cx="39.5929" cy="91.4145" r="2.75299" fill="#FEFEFE"/>
<circle cx="48.892" cy="91.4145" r="2.75299" fill="#FEFEFE"/>
<rect opacity="0.3" x="51.8128" y="47.7797" width="34.1371" height="5.68951" rx="2.84475" fill="#FEFEFE"/>
<rect opacity="0.3" x="55.6058" y="68.2741" width="34.1371" height="5.68951" rx="2.84475" fill="#FEFEFE"/>
<rect opacity="0.3" x="49.9321" y="109.049" width="34.1371" height="5.68951" rx="2.84475" fill="#FEFEFE"/>
<rect opacity="0.3" x="55.4382" y="88.6615" width="34.1371" height="5.68951" rx="2.84475" fill="#FEFEFE"/>
</g>
<path d="M60.6033 25.0437C60.5456 22.2209 58.2556 19.921 55.4169 19.921C54.8079 19.921 54.2 20.0369 53.6782 20.212C52.5485 18.3203 50.4906 17.0685 48.1429 17.0685C44.5783 17.0685 41.7101 19.9493 41.7101 23.5292C41.7101 24.1408 41.7972 24.7229 41.9421 25.2754C39.7971 25.9745 38.2327 28.0118 38.2327 30.4275C38.2327 33.3958 40.6381 35.8116 43.5936 35.8116H60.4007C63.3561 35.8116 65.7616 33.3958 65.7616 30.4275C65.7616 27.5172 63.4728 25.1604 60.6033 25.0434L60.6033 25.0437Z" fill="#E8E1DB"/>
<path d="M50.736 22.3204C52.1439 22.1543 53.4653 22.5637 54.5909 23.3884C55.8312 24.2973 56.5059 25.5882 56.702 27.0728C56.8942 28.5291 56.5482 29.9579 55.6102 31.1221C54.6511 32.3124 53.3483 32.9848 51.8141 33.1574C50.5898 33.3145 49.1884 32.8667 48.209 32.1636C46.9193 31.2378 46.1406 29.892 45.9049 28.3597C45.6919 26.9758 46.0888 25.5876 46.9463 24.4699C47.8948 23.2338 49.182 22.5466 50.736 22.3204Z" fill="#343932"/>
<path d="M52.5752 29.2928C52.3541 29.0717 52.0961 28.915 51.8196 28.8183L52.5752 28.0627C53.3538 27.2841 53.3538 26.0171 52.5752 25.2385C51.7966 24.4599 50.5296 24.4599 49.751 25.2385C48.9724 26.0171 48.9724 27.2841 49.751 28.0627C49.9675 28.2792 50.2163 28.4359 50.4882 28.528L49.857 29.196C49.8201 29.2283 49.7833 29.2605 49.751 29.2928C49.6358 29.408 49.5391 29.5324 49.4608 29.6614L50.032 29.9194L50.502 30.1313L50.5757 30.1635C50.5757 30.1635 50.5895 30.1451 50.5987 30.1405C50.912 29.8272 51.4188 29.8272 51.7275 30.1405C51.9026 30.3156 51.9809 30.5598 51.9578 30.7901L53.0728 31.2923C53.2847 30.6104 53.1188 29.8318 52.5752 29.2928ZM50.5941 27.215C50.2808 26.9017 50.2808 26.3949 50.5941 26.0862C50.9074 25.7729 51.4142 25.7729 51.7229 26.0862C52.0362 26.3995 52.0362 26.9063 51.7229 27.215L51.1562 27.8139V27.4499C50.9535 27.4499 50.7462 27.3716 50.5895 27.215H50.5941Z" fill="#C87A3C"/>
<path fill-rule="evenodd" clip-rule="evenodd" d="M324.075 93.7509C324.095 93.6054 324.105 93.4598 324.105 93.3143C324.105 91.3059 322.475 89.6758 320.466 89.6758C320.321 89.6758 320.185 89.6758 320.049 89.6949C319.078 87.8902 317.215 86.765 315.129 86.765C312.287 86.765 309.929 88.909 309.589 91.6652C307.377 91.9954 305.669 93.9165 305.669 96.2251C305.669 98.7675 307.736 100.834 310.278 100.834H315.366V103.385C314.748 103.604 314.258 104.094 314.038 104.713H309.911C309.61 103.866 308.803 103.259 307.852 103.259C306.647 103.259 305.669 104.236 305.669 105.442C305.669 106.648 306.647 107.626 307.852 107.626C308.804 107.626 309.613 107.017 309.912 106.168H314.037C314.336 107.017 315.146 107.626 316.097 107.626C317.047 107.626 317.857 107.017 318.156 106.168H322.294C322.593 107.017 323.402 107.626 324.354 107.626C325.559 107.626 326.537 106.648 326.537 105.442C326.537 104.236 325.559 103.259 324.354 103.259C323.403 103.259 322.595 103.866 322.295 104.713H318.155C317.935 104.092 317.442 103.601 316.822 103.383V100.834H322.892C324.9 100.834 326.531 99.2041 326.531 97.1957C326.531 95.6048 325.522 94.2458 324.075 93.7509ZM318.031 96.7591C317.73 97.031 317.274 97.0019 317.002 96.7008C317.002 96.7008 316.721 96.4489 316.1 96.4489C315.536 96.4489 315.213 96.6884 315.143 96.7404L315.143 96.7404C315.136 96.7457 315.131 96.749 315.129 96.75C314.984 96.8855 314.809 96.9537 314.624 96.9537C314.44 96.9537 314.246 96.8855 314.111 96.74C313.829 96.4589 313.829 96.0123 314.101 95.7312C314.178 95.6539 314.847 94.9935 316.099 94.9935C317.351 94.9935 318.02 95.663 318.088 95.7403C318.36 96.0414 318.331 96.4971 318.03 96.7691L318.031 96.7591ZM319.593 94.4886C319.447 94.6824 319.234 94.7797 319.011 94.7797C318.855 94.7797 318.71 94.7315 318.574 94.6342C317.138 93.5572 315.062 93.5572 313.626 94.6342C313.306 94.8771 312.85 94.8088 312.607 94.4886C312.364 94.1684 312.432 93.7127 312.752 93.4699C314.693 92.0145 317.507 92.0145 319.447 93.4699C319.767 93.7127 319.836 94.1684 319.593 94.4886Z" fill="#FEFEFE"/>
<path d="M72.8735 123.747V187.28C72.8735 191.469 76.2698 194.866 80.4595 194.866H162.957C167.147 194.866 170.543 191.469 170.543 187.28V181.59" stroke="white" stroke-width="0.948251" stroke-linecap="round" stroke-linejoin="round" stroke-dasharray="0.47 3.79"/>
<path d="M290.023 91.0322L290.023 27.4993C290.023 23.3097 286.627 19.9133 282.437 19.9133L199.939 19.9133C195.75 19.9133 192.353 23.3097 192.353 27.4993L192.353 33.1888" stroke="white" stroke-width="0.948251" stroke-linecap="round" stroke-linejoin="round" stroke-dasharray="0.47 3.79"/>
</g>
<defs>
<filter id="filter0_f_2613_83529" x="98.8863" y="-150.92" width="838.84" height="838.84" filterUnits="userSpaceOnUse" color-interpolation-filters="sRGB">
<feFlood flood-opacity="0" result="BackgroundImageFix"/>
<feBlend mode="normal" in="SourceGraphic" in2="BackgroundImageFix" result="shape"/>
<feGaussianBlur stdDeviation="44.46" result="effect1_foregroundBlur_2613_83529"/>
</filter>
<filter id="filter1_bdi_2613_83529" x="17.5104" y="5.7259" width="325.897" height="224.508" filterUnits="userSpaceOnUse" color-interpolation-filters="sRGB">
<feFlood flood-opacity="0" result="BackgroundImageFix"/>
<feGaussianBlur in="BackgroundImageFix" stdDeviation="15.7874"/>
<feComposite in2="SourceAlpha" operator="in" result="effect1_backgroundBlur_2613_83529"/>
<feColorMatrix in="SourceAlpha" type="matrix" values="0 0 0 0 0 0 0 0 0 0 0 0 0 0 0 0 0 0 127 0" result="hardAlpha"/>
<feOffset dy="3.8663"/>
<feGaussianBlur stdDeviation="2.41644"/>
<feComposite in2="hardAlpha" operator="out"/>
<feColorMatrix type="matrix" values="0 0 0 0 0 0 0 0 0 0 0 0 0 0 0 0 0 0 0.05 0"/>
<feBlend mode="normal" in2="effect1_backgroundBlur_2613_83529" result="effect2_dropShadow_2613_83529"/>
<feBlend mode="normal" in="SourceGraphic" in2="effect2_dropShadow_2613_83529" result="shape"/>
<feColorMatrix in="SourceAlpha" type="matrix" values="0 0 0 0 0 0 0 0 0 0 0 0 0 0 0 0 0 0 127 0" result="hardAlpha"/>
<feMorphology radius="0.322192" operator="dilate" in="SourceAlpha" result="effect3_innerShadow_2613_83529"/>
<feOffset dx="-0.161096" dy="0.161096"/>
<feGaussianBlur stdDeviation="0.080548"/>
<feComposite in2="hardAlpha" operator="arithmetic" k2="-1" k3="1"/>
<feColorMatrix type="matrix" values="0 0 0 0 1 0 0 0 0 1 0 0 0 0 1 0 0 0 0.35 0"/>
<feBlend mode="normal" in2="shape" result="effect3_innerShadow_2613_83529"/>
</filter>
<filter id="filter2_dd_2613_83529" x="107.752" y="85.1874" width="145.022" height="39.7664" filterUnits="userSpaceOnUse" color-interpolation-filters="sRGB">
<feFlood flood-opacity="0" result="BackgroundImageFix"/>
<feColorMatrix in="SourceAlpha" type="matrix" values="0 0 0 0 0 0 0 0 0 0 0 0 0 0 0 0 0 0 127 0" result="hardAlpha"/>
<feOffset dy="1"/>
<feGaussianBlur stdDeviation="2"/>
<feComposite in2="hardAlpha" operator="out"/>
<feColorMatrix type="matrix" values="0 0 0 0 0.0470588 0 0 0 0 0.0470588 0 0 0 0 0.0509804 0 0 0 0.05 0"/>
<feBlend mode="normal" in2="BackgroundImageFix" result="effect1_dropShadow_2613_83529"/>
<feColorMatrix in="SourceAlpha" type="matrix" values="0 0 0 0 0 0 0 0 0 0 0 0 0 0 0 0 0 0 127 0" result="hardAlpha"/>
<feOffset dy="1"/>
<feGaussianBlur stdDeviation="2"/>
<feComposite in2="hardAlpha" operator="out"/>
<feColorMatrix type="matrix" values="0 0 0 0 0.0470588 0 0 0 0 0.0470588 0 0 0 0 0.0509804 0 0 0 0.1 0"/>
<feBlend mode="normal" in2="effect1_dropShadow_2613_83529" result="effect2_dropShadow_2613_83529"/>
<feBlend mode="normal" in="SourceGraphic" in2="effect2_dropShadow_2613_83529" result="shape"/>
</filter>
<filter id="filter3_dd_2613_83529" x="107.752" y="124.54" width="145.022" height="39.7664" filterUnits="userSpaceOnUse" color-interpolation-filters="sRGB">
<feFlood flood-opacity="0" result="BackgroundImageFix"/>
<feColorMatrix in="SourceAlpha" type="matrix" values="0 0 0 0 0 0 0 0 0 0 0 0 0 0 0 0 0 0 127 0" result="hardAlpha"/>
<feOffset dy="1"/>
<feGaussianBlur stdDeviation="2"/>
<feComposite in2="hardAlpha" operator="out"/>
<feColorMatrix type="matrix" values="0 0 0 0 0.0470588 0 0 0 0 0.0470588 0 0 0 0 0.0509804 0 0 0 0.05 0"/>
<feBlend mode="normal" in2="BackgroundImageFix" result="effect1_dropShadow_2613_83529"/>
<feColorMatrix in="SourceAlpha" type="matrix" values="0 0 0 0 0 0 0 0 0 0 0 0 0 0 0 0 0 0 127 0" result="hardAlpha"/>
<feOffset dy="1"/>
<feGaussianBlur stdDeviation="2"/>
<feComposite in2="hardAlpha" operator="out"/>
<feColorMatrix type="matrix" values="0 0 0 0 0.0470588 0 0 0 0 0.0470588 0 0 0 0 0.0509804 0 0 0 0.1 0"/>
<feBlend mode="normal" in2="effect1_dropShadow_2613_83529" result="effect2_dropShadow_2613_83529"/>
<feBlend mode="normal" in="SourceGraphic" in2="effect2_dropShadow_2613_83529" result="shape"/>
</filter>
<filter id="filter4_dd_2613_83529" x="107.752" y="163.892" width="145.022" height="39.7664" filterUnits="userSpaceOnUse" color-interpolation-filters="sRGB">
<feFlood flood-opacity="0" result="BackgroundImageFix"/>
<feColorMatrix in="SourceAlpha" type="matrix" values="0 0 0 0 0 0 0 0 0 0 0 0 0 0 0 0 0 0 127 0" result="hardAlpha"/>
<feOffset dy="1"/>
<feGaussianBlur stdDeviation="2"/>
<feComposite in2="hardAlpha" operator="out"/>
<feColorMatrix type="matrix" values="0 0 0 0 0.0470588 0 0 0 0 0.0470588 0 0 0 0 0.0509804 0 0 0 0.05 0"/>
<feBlend mode="normal" in2="BackgroundImageFix" result="effect1_dropShadow_2613_83529"/>
<feColorMatrix in="SourceAlpha" type="matrix" values="0 0 0 0 0 0 0 0 0 0 0 0 0 0 0 0 0 0 127 0" result="hardAlpha"/>
<feOffset dy="1"/>
<feGaussianBlur stdDeviation="2"/>
<feComposite in2="hardAlpha" operator="out"/>
<feColorMatrix type="matrix" values="0 0 0 0 0.0470588 0 0 0 0 0.0470588 0 0 0 0 0.0509804 0 0 0 0.1 0"/>
<feBlend mode="normal" in2="effect1_dropShadow_2613_83529" result="effect2_dropShadow_2613_83529"/>
<feBlend mode="normal" in="SourceGraphic" in2="effect2_dropShadow_2613_83529" result="shape"/>
</filter>
<filter id="filter5_dd_2613_83529" x="0.779724" y="9.80975" width="124.274" height="157.861" filterUnits="userSpaceOnUse" color-interpolation-filters="sRGB">
<feFlood flood-opacity="0" result="BackgroundImageFix"/>
<feColorMatrix in="SourceAlpha" type="matrix" values="0 0 0 0 0 0 0 0 0 0 0 0 0 0 0 0 0 0 127 0" result="hardAlpha"/>
<feMorphology radius="4" operator="erode" in="SourceAlpha" result="effect1_dropShadow_2613_83529"/>
<feOffset dy="4"/>
<feGaussianBlur stdDeviation="2"/>
<feComposite in2="hardAlpha" operator="out"/>
<feColorMatrix type="matrix" values="0 0 0 0 0.0470588 0 0 0 0 0.0470588 0 0 0 0 0.0509804 0 0 0 0.05 0"/>
<feBlend mode="normal" in2="BackgroundImageFix" result="effect1_dropShadow_2613_83529"/>
<feColorMatrix in="SourceAlpha" type="matrix" values="0 0 0 0 0 0 0 0 0 0 0 0 0 0 0 0 0 0 127 0" result="hardAlpha"/>
<feMorphology radius="4" operator="erode" in="SourceAlpha" result="effect2_dropShadow_2613_83529"/>
<feOffset dy="16"/>
<feGaussianBlur stdDeviation="16"/>
<feComposite in2="hardAlpha" operator="out"/>
<feColorMatrix type="matrix" values="0 0 0 0 0.0470588 0 0 0 0 0.0470588 0 0 0 0 0.0509804 0 0 0 0.1 0"/>
<feBlend mode="normal" in2="effect1_dropShadow_2613_83529" result="effect2_dropShadow_2613_83529"/>
<feBlend mode="normal" in="SourceGraphic" in2="effect2_dropShadow_2613_83529" result="shape"/>
</filter>
<linearGradient id="paint0_linear_2613_83529" x1="131.098" y1="104.127" x2="131.098" y2="101.361" gradientUnits="userSpaceOnUse">
<stop stop-color="#4E8DF5"/>
<stop offset="1" stop-color="#3D6ACD"/>
</linearGradient>
<clipPath id="clip0_2613_83529">
<rect x="0.806335" width="359.387" height="216.675" rx="7.58601" fill="white"/>
</clipPath>
</defs>
</svg>
