<svg width="758" height="457" viewBox="0 0 758 457" fill="none" xmlns="http://www.w3.org/2000/svg">
<g clip-path="url(#clip0_2613_83232)">
<rect width="758" height="457" rx="16" fill="#343932"/>
<g opacity="0.3" filter="url(#filter0_f_2613_83232)">
<circle cx="517.5" cy="268.5" r="330.5" fill="#D0CAFB"/>
</g>
<g filter="url(#filter1_bdi_2613_83232)">
<rect x="101.827" y="78.6726" width="554.173" height="298.723" fill="white" fill-opacity="0.1"/>
<rect x="347.356" y="101.356" width="63.2889" height="63.2889" rx="31.6444" stroke="white" stroke-opacity="0.3" stroke-width="0.711111"/>
<path fill-rule="evenodd" clip-rule="evenodd" d="M370.34 129.422H371.717L371.716 125.557C371.716 118.967 379.533 115.531 384.144 120.269C385.464 121.626 386.283 123.497 386.283 125.557V129.422C387.652 129.422 388.767 129.257 389.83 130.348C390.386 130.92 390.732 131.709 390.732 132.579L390.733 144.775C390.733 145.644 390.388 146.434 389.832 147.005L389.829 147.003C389.27 147.576 388.502 147.932 387.66 147.932L370.34 147.933C368.648 147.933 367.268 146.514 367.268 144.776L367.267 132.579C367.267 130.841 368.648 129.422 370.34 129.422ZM384.347 125.557C384.347 120.734 378.619 118.19 375.226 121.678C374.256 122.675 373.654 124.048 373.654 125.557V129.422H384.347L384.347 125.557Z" fill="white"/>
<g filter="url(#filter2_dd_2613_83232)">
<rect x="234" y="186" width="289" height="67" rx="12.0317" fill="white" shape-rendering="crispEdges"/>
<rect x="250.042" y="199.501" width="40" height="39.9987" rx="7.27249" fill="#CDE0FF"/>
<path d="M263.852 209.024C263.063 209.024 262.423 209.663 262.423 210.452V228.548C262.423 229.337 263.063 229.976 263.852 229.976H276.233C277.022 229.976 277.661 229.337 277.661 228.548V214.738L271.947 209.024H263.852Z" fill="#4E8DF5"/>
<path d="M263.852 229.976C263.063 229.976 262.423 229.337 262.423 228.548V228.31C262.423 229.099 263.063 229.738 263.852 229.738H276.233C277.022 229.738 277.661 229.099 277.661 228.31V228.548C277.661 229.337 277.022 229.976 276.233 229.976H263.852Z" fill="#417EE9"/>
<path d="M263.852 209.024C263.063 209.024 262.423 209.663 262.423 210.452V210.69C262.423 209.901 263.063 209.262 263.852 209.262H272.185L271.947 209.024H263.852Z" fill="#639AF6"/>
<path d="M277.661 219.619V214.738L276.828 213.905H272.809C272.491 213.905 272.332 214.289 272.557 214.514L277.661 219.619Z" fill="url(#paint0_linear_2613_83232)"/>
<path d="M271.947 209.024L277.661 214.738H273.376C272.587 214.738 271.947 214.098 271.947 213.31V209.024Z" fill="#A6C5FA"/>
<path d="M273.852 219.5H266.233V220.452H273.852V219.5Z" fill="white"/>
<path d="M273.852 221.405H266.233V222.357H273.852V221.405Z" fill="white"/>
<path d="M266.233 223.31H273.852V224.262H266.233V223.31Z" fill="white"/>
<path d="M271.947 225.214H266.233V226.167H271.947V225.214Z" fill="white"/>
<path d="M307.001 216.043V212.473L304.079 207.403H305.543L307.637 211.033L309.731 207.403H311.195L308.273 212.473V216.043H307.001ZM313.621 216.223C312.973 216.223 312.411 216.077 311.935 215.785C311.459 215.493 311.091 215.091 310.831 214.579C310.575 214.063 310.447 213.469 310.447 212.797C310.447 212.121 310.579 211.527 310.843 211.015C311.107 210.499 311.477 210.099 311.953 209.815C312.429 209.527 312.985 209.383 313.621 209.383C314.269 209.383 314.831 209.529 315.307 209.821C315.783 210.113 316.151 210.515 316.411 211.027C316.671 211.539 316.801 212.129 316.801 212.797C316.801 213.473 316.669 214.069 316.405 214.585C316.145 215.097 315.777 215.499 315.301 215.791C314.825 216.079 314.265 216.223 313.621 216.223ZM313.621 215.041C314.241 215.041 314.703 214.833 315.007 214.417C315.315 213.997 315.469 213.457 315.469 212.797C315.469 212.121 315.313 211.581 315.001 211.177C314.693 210.769 314.233 210.565 313.621 210.565C313.201 210.565 312.855 210.661 312.583 210.853C312.311 211.041 312.109 211.303 311.977 211.639C311.845 211.971 311.779 212.357 311.779 212.797C311.779 213.477 311.935 214.021 312.247 214.429C312.559 214.837 313.017 215.041 313.621 215.041ZM320.298 216.217C319.85 216.217 319.474 216.145 319.17 216.001C318.866 215.857 318.618 215.669 318.426 215.437C318.238 215.201 318.094 214.945 317.994 214.669C317.894 214.393 317.826 214.123 317.79 213.859C317.754 213.595 317.736 213.363 317.736 213.163V209.563H319.008V212.749C319.008 213.001 319.028 213.261 319.068 213.529C319.112 213.793 319.192 214.039 319.308 214.267C319.428 214.495 319.594 214.679 319.806 214.819C320.022 214.959 320.302 215.029 320.646 215.029C320.87 215.029 321.082 214.993 321.282 214.921C321.482 214.845 321.656 214.725 321.804 214.561C321.956 214.397 322.074 214.181 322.158 213.913C322.246 213.645 322.29 213.319 322.29 212.935L323.07 213.229C323.07 213.817 322.96 214.337 322.74 214.789C322.52 215.237 322.204 215.587 321.792 215.839C321.38 216.091 320.882 216.217 320.298 216.217ZM322.44 216.043V214.171H322.29V209.563H323.556V216.043H322.44ZM324.975 216.043V209.563H326.091V211.135L325.935 210.931C326.015 210.723 326.119 210.533 326.247 210.361C326.375 210.185 326.523 210.041 326.691 209.929C326.855 209.809 327.037 209.717 327.237 209.653C327.441 209.585 327.649 209.545 327.861 209.533C328.073 209.517 328.277 209.527 328.473 209.563V210.739C328.261 210.683 328.025 210.667 327.765 210.691C327.509 210.715 327.273 210.797 327.057 210.937C326.853 211.069 326.691 211.229 326.571 211.417C326.455 211.605 326.371 211.815 326.319 212.047C326.267 212.275 326.241 212.517 326.241 212.773V216.043H324.975ZM334.064 216.223C333.46 216.223 332.938 216.073 332.498 215.773C332.062 215.473 331.724 215.065 331.484 214.549C331.248 214.029 331.13 213.445 331.13 212.797C331.13 212.145 331.25 211.563 331.49 211.051C331.73 210.535 332.07 210.129 332.51 209.833C332.954 209.533 333.48 209.383 334.088 209.383C334.7 209.383 335.214 209.533 335.63 209.833C336.05 210.129 336.366 210.535 336.578 211.051C336.794 211.567 336.902 212.149 336.902 212.797C336.902 213.445 336.794 214.027 336.578 214.543C336.362 215.059 336.044 215.469 335.624 215.773C335.204 216.073 334.684 216.223 334.064 216.223ZM334.238 215.089C334.65 215.089 334.986 214.991 335.246 214.795C335.506 214.599 335.696 214.329 335.816 213.985C335.936 213.641 335.996 213.245 335.996 212.797C335.996 212.349 335.934 211.953 335.81 211.609C335.69 211.265 335.502 210.997 335.246 210.805C334.994 210.613 334.672 210.517 334.28 210.517C333.864 210.517 333.522 210.619 333.254 210.823C332.986 211.027 332.786 211.301 332.654 211.645C332.526 211.989 332.462 212.373 332.462 212.797C332.462 213.225 332.526 213.613 332.654 213.961C332.786 214.305 332.982 214.579 333.242 214.783C333.506 214.987 333.838 215.089 334.238 215.089ZM335.996 216.043V211.381H335.852V207.403H337.112V216.043H335.996ZM341.341 216.223C340.693 216.223 340.131 216.077 339.655 215.785C339.179 215.493 338.811 215.091 338.551 214.579C338.295 214.063 338.167 213.469 338.167 212.797C338.167 212.121 338.299 211.527 338.563 211.015C338.827 210.499 339.197 210.099 339.673 209.815C340.149 209.527 340.705 209.383 341.341 209.383C341.989 209.383 342.551 209.529 343.027 209.821C343.503 210.113 343.871 210.515 344.131 211.027C344.391 211.539 344.521 212.129 344.521 212.797C344.521 213.473 344.389 214.069 344.125 214.585C343.865 215.097 343.497 215.499 343.021 215.791C342.545 216.079 341.985 216.223 341.341 216.223ZM341.341 215.041C341.961 215.041 342.423 214.833 342.727 214.417C343.035 213.997 343.189 213.457 343.189 212.797C343.189 212.121 343.033 211.581 342.721 211.177C342.413 210.769 341.953 210.565 341.341 210.565C340.921 210.565 340.575 210.661 340.303 210.853C340.031 211.041 339.829 211.303 339.697 211.639C339.565 211.971 339.499 212.357 339.499 212.797C339.499 213.477 339.655 214.021 339.967 214.429C340.279 214.837 340.737 215.041 341.341 215.041ZM348.347 216.223C347.683 216.223 347.119 216.075 346.655 215.779C346.191 215.483 345.835 215.077 345.587 214.561C345.343 214.045 345.219 213.459 345.215 212.803C345.219 212.135 345.347 211.545 345.599 211.033C345.851 210.517 346.211 210.113 346.679 209.821C347.147 209.529 347.709 209.383 348.365 209.383C349.073 209.383 349.677 209.559 350.177 209.911C350.681 210.263 351.013 210.745 351.173 211.357L349.925 211.717C349.801 211.353 349.597 211.071 349.313 210.871C349.033 210.667 348.711 210.565 348.347 210.565C347.935 210.565 347.597 210.663 347.333 210.859C347.069 211.051 346.873 211.315 346.745 211.651C346.617 211.987 346.551 212.371 346.547 212.803C346.551 213.471 346.703 214.011 347.003 214.423C347.307 214.835 347.755 215.041 348.347 215.041C348.751 215.041 349.077 214.949 349.325 214.765C349.577 214.577 349.769 214.309 349.901 213.961L351.173 214.261C350.961 214.893 350.611 215.379 350.123 215.719C349.635 216.055 349.043 216.223 348.347 216.223ZM354.573 216.217C354.125 216.217 353.749 216.145 353.445 216.001C353.141 215.857 352.893 215.669 352.701 215.437C352.513 215.201 352.369 214.945 352.269 214.669C352.169 214.393 352.101 214.123 352.065 213.859C352.029 213.595 352.011 213.363 352.011 213.163V209.563H353.283V212.749C353.283 213.001 353.303 213.261 353.343 213.529C353.387 213.793 353.467 214.039 353.583 214.267C353.703 214.495 353.869 214.679 354.081 214.819C354.297 214.959 354.577 215.029 354.921 215.029C355.145 215.029 355.357 214.993 355.557 214.921C355.757 214.845 355.931 214.725 356.079 214.561C356.231 214.397 356.349 214.181 356.433 213.913C356.521 213.645 356.565 213.319 356.565 212.935L357.345 213.229C357.345 213.817 357.235 214.337 357.015 214.789C356.795 215.237 356.479 215.587 356.067 215.839C355.655 216.091 355.157 216.217 354.573 216.217ZM356.715 216.043V214.171H356.565V209.563H357.831V216.043H356.715ZM367.014 216.043L367.02 212.005C367.02 211.537 366.9 211.173 366.66 210.913C366.42 210.649 366.104 210.517 365.712 210.517C365.472 210.517 365.252 210.573 365.052 210.685C364.856 210.793 364.696 210.957 364.572 211.177C364.452 211.393 364.392 211.665 364.392 211.993L363.786 211.687C363.778 211.231 363.874 210.831 364.074 210.487C364.278 210.143 364.554 209.877 364.902 209.689C365.25 209.497 365.64 209.401 366.072 209.401C366.772 209.401 367.314 209.611 367.698 210.031C368.082 210.451 368.274 211.009 368.274 211.705L368.268 216.043H367.014ZM359.244 216.043V209.563H360.36V211.435H360.504V216.043H359.244ZM363.132 216.043L363.138 212.029C363.138 211.557 363.018 211.187 362.778 210.919C362.542 210.651 362.224 210.517 361.824 210.517C361.428 210.517 361.108 210.653 360.864 210.925C360.624 211.197 360.504 211.553 360.504 211.993L359.904 211.609C359.904 211.185 360.006 210.807 360.21 210.475C360.414 210.143 360.69 209.881 361.038 209.689C361.386 209.497 361.78 209.401 362.22 209.401C362.68 209.401 363.072 209.499 363.396 209.695C363.72 209.887 363.966 210.157 364.134 210.505C364.306 210.853 364.392 211.257 364.392 211.717L364.386 216.043H363.132ZM372.36 216.223C371.716 216.223 371.15 216.083 370.662 215.803C370.178 215.519 369.8 215.125 369.528 214.621C369.26 214.113 369.126 213.525 369.126 212.857C369.126 212.149 369.258 211.535 369.522 211.015C369.79 210.495 370.162 210.093 370.638 209.809C371.114 209.525 371.668 209.383 372.3 209.383C372.96 209.383 373.522 209.537 373.986 209.845C374.45 210.149 374.796 210.583 375.024 211.147C375.256 211.711 375.348 212.381 375.3 213.157H374.046V212.701C374.038 211.949 373.894 211.393 373.614 211.033C373.338 210.673 372.916 210.493 372.348 210.493C371.72 210.493 371.248 210.691 370.932 211.087C370.616 211.483 370.458 212.055 370.458 212.803C370.458 213.515 370.616 214.067 370.932 214.459C371.248 214.847 371.704 215.041 372.3 215.041C372.692 215.041 373.03 214.953 373.314 214.777C373.602 214.597 373.826 214.341 373.986 214.009L375.216 214.399C374.964 214.979 374.582 215.429 374.07 215.749C373.558 216.065 372.988 216.223 372.36 216.223ZM370.05 213.157V212.179H374.676V213.157H370.05ZM380.755 216.043V212.857C380.755 212.605 380.733 212.347 380.689 212.083C380.649 211.815 380.569 211.567 380.449 211.339C380.333 211.111 380.167 210.927 379.951 210.787C379.739 210.647 379.461 210.577 379.117 210.577C378.893 210.577 378.681 210.615 378.481 210.691C378.281 210.763 378.105 210.881 377.953 211.045C377.805 211.209 377.687 211.425 377.599 211.693C377.515 211.961 377.473 212.287 377.473 212.671L376.693 212.377C376.693 211.789 376.803 211.271 377.023 210.823C377.243 210.371 377.559 210.019 377.971 209.767C378.383 209.515 378.881 209.389 379.465 209.389C379.913 209.389 380.289 209.461 380.593 209.605C380.897 209.749 381.143 209.939 381.331 210.175C381.523 210.407 381.669 210.661 381.769 210.937C381.869 211.213 381.937 211.483 381.973 211.747C382.009 212.011 382.027 212.243 382.027 212.443V216.043H380.755ZM376.201 216.043V209.563H377.323V211.435H377.473V216.043H376.201ZM387.033 216.043C386.625 216.123 386.225 216.157 385.833 216.145C385.441 216.133 385.091 216.057 384.783 215.917C384.475 215.777 384.243 215.557 384.087 215.257C383.947 214.989 383.871 214.717 383.859 214.441C383.851 214.161 383.847 213.845 383.847 213.493V207.763H385.107V213.433C385.107 213.693 385.109 213.919 385.113 214.111C385.121 214.303 385.163 214.465 385.239 214.597C385.383 214.845 385.611 214.987 385.923 215.023C386.239 215.055 386.609 215.041 387.033 214.981V216.043ZM382.605 210.571V209.563H387.033V210.571H382.605ZM390.614 216.217C389.826 216.217 389.184 216.043 388.688 215.695C388.192 215.347 387.888 214.857 387.776 214.225L389.06 214.027C389.14 214.363 389.324 214.629 389.612 214.825C389.904 215.017 390.266 215.113 390.698 215.113C391.09 215.113 391.396 215.033 391.616 214.873C391.84 214.713 391.952 214.493 391.952 214.213C391.952 214.049 391.912 213.917 391.832 213.817C391.756 213.713 391.594 213.615 391.346 213.523C391.098 213.431 390.72 213.317 390.212 213.181C389.656 213.037 389.214 212.883 388.886 212.719C388.562 212.551 388.33 212.357 388.19 212.137C388.054 211.913 387.986 211.643 387.986 211.327C387.986 210.935 388.09 210.593 388.298 210.301C388.506 210.009 388.798 209.783 389.174 209.623C389.554 209.463 389.998 209.383 390.506 209.383C391.002 209.383 391.444 209.461 391.832 209.617C392.22 209.773 392.534 209.995 392.774 210.283C393.014 210.567 393.158 210.901 393.206 211.285L391.922 211.519C391.878 211.207 391.732 210.961 391.484 210.781C391.236 210.601 390.914 210.503 390.518 210.487C390.138 210.471 389.83 210.535 389.594 210.679C389.358 210.819 389.24 211.013 389.24 211.261C389.24 211.405 389.284 211.527 389.372 211.627C389.464 211.727 389.64 211.823 389.9 211.915C390.16 212.007 390.544 212.117 391.052 212.245C391.596 212.385 392.028 212.541 392.348 212.713C392.668 212.881 392.896 213.083 393.032 213.319C393.172 213.551 393.242 213.833 393.242 214.165C393.242 214.805 393.008 215.307 392.54 215.671C392.076 216.035 391.434 216.217 390.614 216.217Z" fill="#343932"/>
<rect x="304.079" y="223.039" width="67.1768" height="8.02111" rx="4.01055" fill="#F2F2F2"/>
</g>
<g filter="url(#filter3_dd_2613_83232)">
<rect x="234" y="269" width="289" height="67" rx="12.0317" fill="white" shape-rendering="crispEdges"/>
<rect x="250.042" y="282.501" width="40" height="39.9987" rx="7.27249" fill="#FFF8EE"/>
<path d="M281.005 295.68C281.005 295.689 281.005 295.694 281.002 295.7C281.002 295.709 281.002 295.72 281 295.728C281 295.74 281 295.751 281 295.76C281 295.774 281 295.786 281 295.8C280.991 295.84 280.98 295.877 280.968 295.917C280.945 295.96 280.92 296.002 280.894 296.045C280.88 296.068 280.866 296.088 280.848 296.111C280.783 296.188 280.711 296.259 280.637 296.328C280.597 296.365 280.554 296.405 280.509 296.439C280.503 296.442 280.5 296.448 280.495 296.451C280.098 296.733 279.673 296.961 279.227 297.158C277.755 297.763 276.165 298.086 274.593 298.303C272.196 298.614 269.758 298.665 267.347 298.491C266.71 298.445 266.077 298.383 265.446 298.3C265.495 298.306 265.54 298.314 265.589 298.32C265.526 298.311 265.461 298.303 265.398 298.294C265.409 298.294 265.423 298.297 265.435 298.3C263.874 298.083 262.298 297.76 260.837 297.161C260.392 296.967 259.967 296.739 259.57 296.456C259.564 296.451 259.559 296.448 259.553 296.442C259.513 296.408 259.473 296.373 259.436 296.339C259.359 296.268 259.285 296.191 259.216 296.111C259.202 296.088 259.188 296.068 259.174 296.045C259.148 296.002 259.122 295.96 259.099 295.917C259.111 295.948 259.122 295.98 259.134 296.008C259.114 295.96 259.091 295.908 259.071 295.86C259.071 295.877 259.074 295.897 259.076 295.914C259.074 295.894 259.071 295.874 259.068 295.854C259.068 295.851 259.068 295.851 259.065 295.848C259.059 295.834 259.054 295.823 259.048 295.808C259.045 295.82 259.045 295.828 259.042 295.84C259.042 295.828 259.045 295.817 259.048 295.808C259.051 295.791 259.051 295.777 259.054 295.76C259.051 295.734 259.048 295.711 259.045 295.686C259.048 295.709 259.051 295.728 259.057 295.751C259.059 295.734 259.062 295.717 259.062 295.7C259.062 295.694 259.062 295.689 259.059 295.68C259.057 295.686 259.054 295.691 259.051 295.697C259.054 295.691 259.057 295.683 259.059 295.677C259.062 295.671 259.065 295.666 259.065 295.66C259.068 295.643 259.071 295.626 259.071 295.609C259.068 295.623 259.068 295.64 259.065 295.654C259.088 295.6 259.111 295.546 259.134 295.492C259.119 295.526 259.105 295.563 259.094 295.6C259.116 295.552 259.145 295.506 259.174 295.46C259.165 295.469 259.156 295.475 259.151 295.48C259.156 295.477 259.282 295.298 259.222 295.389C259.208 295.412 259.191 295.435 259.176 295.457C259.176 295.457 259.176 295.46 259.174 295.46C259.199 295.435 259.225 295.389 259.242 295.372C259.313 295.292 259.39 295.218 259.47 295.146C259.513 295.109 259.553 295.075 259.596 295.038C259.604 295.032 259.613 295.026 259.622 295.021C259.995 294.752 260.406 294.541 260.829 294.359C262.287 293.759 263.857 293.437 265.415 293.22C265.389 293.223 265.366 293.226 265.341 293.229C265.418 293.217 265.492 293.209 265.569 293.197C265.523 293.203 265.478 293.209 265.432 293.217C267.841 292.9 270.292 292.849 272.715 293.023C273.357 293.069 273.999 293.134 274.638 293.22C274.587 293.211 274.536 293.206 274.484 293.2C274.561 293.211 274.636 293.22 274.713 293.231C274.69 293.229 274.667 293.226 274.641 293.223C276.197 293.44 277.766 293.762 279.225 294.359C279.647 294.544 280.058 294.755 280.432 295.021C280.446 295.029 280.46 295.041 280.475 295.052C280.506 295.078 280.54 295.106 280.569 295.132C280.649 295.203 280.729 295.278 280.8 295.358C280.817 295.377 280.834 295.395 280.848 295.415C280.857 295.423 280.863 295.435 280.868 295.443C280.9 295.494 280.931 295.546 280.96 295.597C280.948 295.56 280.934 295.526 280.92 295.492C280.943 295.546 280.965 295.6 280.988 295.654C280.988 295.64 280.985 295.623 280.983 295.609C280.985 295.626 280.988 295.643 280.988 295.66C281.002 295.671 281.002 295.674 281.005 295.68Z" fill="#FFE0B3"/>
<path d="M281.003 302.584V302.593C281.009 302.578 281.014 302.564 281.023 302.55C281.017 302.564 281.011 302.578 281.003 302.595C281.003 302.595 281 302.61 281 302.615C280.997 302.63 280.923 302.752 280.897 302.792C280.883 302.815 280.869 302.835 280.852 302.858C280.786 302.935 280.715 303.006 280.64 303.075C280.6 303.112 280.558 303.152 280.512 303.186C280.506 303.189 280.503 303.195 280.498 303.198C280.098 303.483 279.67 303.711 279.222 303.908C277.752 304.51 276.166 304.83 274.599 305.047C272.202 305.358 269.764 305.409 267.353 305.235C266.717 305.19 266.083 305.127 265.452 305.044C265.501 305.05 265.547 305.058 265.595 305.064C265.518 305.053 265.444 305.044 265.367 305.033C265.392 305.035 265.415 305.038 265.441 305.041C263.883 304.824 262.31 304.505 260.852 303.905C260.404 303.708 259.976 303.48 259.576 303.195C259.571 303.192 259.565 303.186 259.559 303.183C259.519 303.149 259.479 303.115 259.442 303.081C259.365 303.009 259.291 302.935 259.222 302.852C259.208 302.829 259.194 302.809 259.18 302.787C259.154 302.744 259.128 302.701 259.105 302.658C259.117 302.69 259.128 302.721 259.14 302.75C259.12 302.701 259.097 302.65 259.077 302.601C259.077 302.607 259.077 302.613 259.077 302.615C259.077 302.63 259.08 302.641 259.08 302.655C259.077 302.635 259.074 302.615 259.071 302.595C259.071 302.593 259.071 302.593 259.068 302.59C259.063 302.575 259.057 302.561 259.048 302.544C259.054 302.558 259.06 302.573 259.068 302.587V302.578C259.065 302.553 259.06 302.524 259.057 302.498C259.054 302.473 259.051 302.45 259.048 302.424C259.051 302.45 259.057 302.473 259.06 302.498H259.065C259.063 302.47 259.063 302.441 259.063 302.41C259.06 302.25 259.068 302.09 259.068 301.936V298.166C259.419 298.38 259.79 298.557 260.173 298.723C261.951 299.465 263.857 299.83 265.766 300.053C265.889 300.067 266.012 300.081 266.134 300.095C266.214 300.104 266.294 300.113 266.377 300.121C266.457 300.13 266.537 300.138 266.62 300.144C266.699 300.153 266.779 300.158 266.862 300.167C267.265 300.201 267.67 300.23 268.072 300.252C269.596 300.335 271.129 300.318 272.653 300.21C272.704 300.207 272.755 300.201 272.807 300.198C272.849 300.195 272.892 300.192 272.935 300.19C272.989 300.187 273.044 300.181 273.098 300.175C273.734 300.121 274.376 300.055 275.016 299.97C275.061 299.964 275.107 299.958 275.153 299.95C275.218 299.941 275.281 299.93 275.347 299.921C276.574 299.739 277.789 299.476 278.957 299.079C279.002 299.062 279.051 299.048 279.097 299.031C279.114 299.025 279.131 299.02 279.148 299.014C279.211 298.991 279.273 298.968 279.336 298.945C279.856 298.751 280.375 298.534 280.86 298.255C280.909 298.226 280.954 298.201 281 298.172V301.782C281.003 301.982 281.009 302.533 281.003 302.584Z" fill="#F99709"/>
<path d="M281.002 309.336C281.008 309.321 281.014 309.307 281.022 309.293C281.014 309.307 281.008 309.324 281.002 309.336C281.002 309.339 281.002 309.341 280.999 309.341C280.997 309.361 280.994 309.381 280.991 309.401C280.994 309.387 280.994 309.373 280.997 309.356C280.997 309.353 280.997 309.35 280.997 309.347C280.977 309.396 280.954 309.447 280.934 309.495C280.945 309.464 280.957 309.436 280.968 309.404C280.945 309.447 280.919 309.49 280.894 309.533C280.88 309.555 280.865 309.575 280.848 309.598C280.782 309.675 280.711 309.747 280.637 309.815C280.597 309.855 280.554 309.892 280.509 309.926C280.503 309.929 280.5 309.935 280.494 309.938C280.098 310.22 279.669 310.452 279.224 310.646C277.752 311.248 276.165 311.57 274.595 311.787C272.198 312.098 269.761 312.152 267.349 311.975C266.713 311.93 266.08 311.867 265.449 311.784C265.497 311.79 265.543 311.799 265.592 311.804C265.529 311.796 265.463 311.787 265.4 311.779C265.412 311.781 265.426 311.781 265.437 311.784C263.876 311.567 262.304 311.245 260.843 310.646C260.398 310.452 259.969 310.22 259.573 309.938C259.567 309.935 259.561 309.929 259.556 309.924C259.516 309.889 259.476 309.855 259.439 309.821C259.362 309.749 259.287 309.675 259.219 309.593C259.205 309.57 259.19 309.55 259.176 309.527C259.15 309.484 259.125 309.441 259.102 309.398C259.09 309.361 259.079 309.321 259.07 309.281V309.279C259.07 309.276 259.07 309.276 259.07 309.273C259.07 309.261 259.07 309.253 259.068 309.241C259.065 309.213 259.065 309.184 259.065 309.153C259.062 308.993 259.07 308.833 259.07 308.679V304.912C259.13 304.949 259.193 304.984 259.256 305.021C259.27 305.029 259.285 305.038 259.299 305.046C259.33 305.063 259.359 305.081 259.39 305.095C259.444 305.123 259.496 305.149 259.547 305.178C259.598 305.203 259.653 305.229 259.704 305.255C259.721 305.263 259.741 305.272 259.758 305.28C259.775 305.289 259.793 305.297 259.812 305.306C259.841 305.32 259.87 305.332 259.901 305.346C259.921 305.355 259.938 305.363 259.958 305.372C259.978 305.38 259.995 305.389 260.015 305.397C260.863 305.763 261.742 306.042 262.638 306.256L262.663 306.262C262.706 306.274 262.749 306.282 262.792 306.293C262.82 306.299 262.849 306.308 262.88 306.313C262.952 306.331 263.023 306.345 263.094 306.362C263.134 306.371 263.174 306.379 263.214 306.388C263.246 306.393 263.277 306.402 263.308 306.408C263.311 306.408 263.314 306.408 263.317 306.408C263.368 306.419 263.417 306.428 263.468 306.439C263.471 306.439 263.477 306.442 263.483 306.442C263.537 306.453 263.591 306.465 263.645 306.473C263.765 306.496 263.885 306.519 264.008 306.539C264.033 306.545 264.059 306.547 264.082 306.553C264.136 306.562 264.19 306.573 264.247 306.582C264.302 306.59 264.356 306.599 264.413 306.607C264.558 306.63 264.707 306.653 264.852 306.673C264.907 306.682 264.964 306.69 265.018 306.696C265.046 306.699 265.075 306.704 265.104 306.707C265.109 306.707 265.115 306.71 265.121 306.71C265.166 306.716 265.215 306.724 265.26 306.73H265.263C265.286 306.733 265.309 306.736 265.335 306.739C265.395 306.747 265.452 306.753 265.512 306.762C265.586 306.77 265.657 306.779 265.731 306.787C265.777 306.793 265.826 306.799 265.871 306.804C265.877 306.804 265.885 306.804 265.891 306.807C265.92 306.81 265.948 306.813 265.977 306.816C266.042 306.824 266.105 306.83 266.171 306.839C266.77 306.904 267.375 306.953 267.98 306.987C268.371 307.007 268.762 307.021 269.15 307.03C269.904 307.047 270.657 307.044 271.41 307.018C271.976 306.998 272.538 306.964 273.097 306.916C273.44 306.887 273.782 306.856 274.127 306.819C274.892 306.733 275.651 306.619 276.408 306.476C276.462 306.465 276.513 306.456 276.567 306.445C276.602 306.439 276.636 306.43 276.67 306.425C276.741 306.41 276.813 306.396 276.884 306.382C276.921 306.373 276.958 306.368 276.995 306.359C277.024 306.353 277.053 306.348 277.084 306.339C277.112 306.333 277.144 306.325 277.175 306.319C277.195 306.316 277.212 306.311 277.232 306.305C277.275 306.296 277.315 306.285 277.358 306.276C277.518 306.239 277.677 306.199 277.834 306.159C277.937 306.134 278.04 306.105 278.143 306.077C278.194 306.062 278.245 306.048 278.297 306.034C278.348 306.02 278.4 306.005 278.451 305.988C278.502 305.974 278.554 305.957 278.605 305.942C278.673 305.92 278.745 305.9 278.813 305.877C278.842 305.868 278.87 305.86 278.896 305.848C278.899 305.848 278.899 305.848 278.902 305.845C278.973 305.823 279.044 305.797 279.116 305.771C279.124 305.768 279.133 305.766 279.142 305.763C279.17 305.751 279.201 305.743 279.23 305.731C279.259 305.72 279.29 305.708 279.318 305.7C279.33 305.694 279.344 305.691 279.356 305.686C279.396 305.671 279.435 305.657 279.473 305.64C280.003 305.44 280.534 305.209 281.019 304.912V308.522C281.019 308.719 281.031 308.925 281.028 309.124V309.133C281.028 309.179 281.025 309.224 281.022 309.27C281.031 309.236 281.036 309.202 281.042 309.167C281.036 309.219 281.028 309.27 281.022 309.321V309.336H281.002Z" fill="#F99709"/>
<path d="M307.001 299.043V295.473L304.079 290.403H305.543L307.637 294.033L309.731 290.403H311.195L308.273 295.473V299.043H307.001ZM313.621 299.223C312.973 299.223 312.411 299.077 311.935 298.785C311.459 298.493 311.091 298.091 310.831 297.579C310.575 297.063 310.447 296.469 310.447 295.797C310.447 295.121 310.579 294.527 310.843 294.015C311.107 293.499 311.477 293.099 311.953 292.815C312.429 292.527 312.985 292.383 313.621 292.383C314.269 292.383 314.831 292.529 315.307 292.821C315.783 293.113 316.151 293.515 316.411 294.027C316.671 294.539 316.801 295.129 316.801 295.797C316.801 296.473 316.669 297.069 316.405 297.585C316.145 298.097 315.777 298.499 315.301 298.791C314.825 299.079 314.265 299.223 313.621 299.223ZM313.621 298.041C314.241 298.041 314.703 297.833 315.007 297.417C315.315 296.997 315.469 296.457 315.469 295.797C315.469 295.121 315.313 294.581 315.001 294.177C314.693 293.769 314.233 293.565 313.621 293.565C313.201 293.565 312.855 293.661 312.583 293.853C312.311 294.041 312.109 294.303 311.977 294.639C311.845 294.971 311.779 295.357 311.779 295.797C311.779 296.477 311.935 297.021 312.247 297.429C312.559 297.837 313.017 298.041 313.621 298.041ZM320.298 299.217C319.85 299.217 319.474 299.145 319.17 299.001C318.866 298.857 318.618 298.669 318.426 298.437C318.238 298.201 318.094 297.945 317.994 297.669C317.894 297.393 317.826 297.123 317.79 296.859C317.754 296.595 317.736 296.363 317.736 296.163V292.563H319.008V295.749C319.008 296.001 319.028 296.261 319.068 296.529C319.112 296.793 319.192 297.039 319.308 297.267C319.428 297.495 319.594 297.679 319.806 297.819C320.022 297.959 320.302 298.029 320.646 298.029C320.87 298.029 321.082 297.993 321.282 297.921C321.482 297.845 321.656 297.725 321.804 297.561C321.956 297.397 322.074 297.181 322.158 296.913C322.246 296.645 322.29 296.319 322.29 295.935L323.07 296.229C323.07 296.817 322.96 297.337 322.74 297.789C322.52 298.237 322.204 298.587 321.792 298.839C321.38 299.091 320.882 299.217 320.298 299.217ZM322.44 299.043V297.171H322.29V292.563H323.556V299.043H322.44ZM324.975 299.043V292.563H326.091V294.135L325.935 293.931C326.015 293.723 326.119 293.533 326.247 293.361C326.375 293.185 326.523 293.041 326.691 292.929C326.855 292.809 327.037 292.717 327.237 292.653C327.441 292.585 327.649 292.545 327.861 292.533C328.073 292.517 328.277 292.527 328.473 292.563V293.739C328.261 293.683 328.025 293.667 327.765 293.691C327.509 293.715 327.273 293.797 327.057 293.937C326.853 294.069 326.691 294.229 326.571 294.417C326.455 294.605 326.371 294.815 326.319 295.047C326.267 295.275 326.241 295.517 326.241 295.773V299.043H324.975ZM334.064 299.223C333.46 299.223 332.938 299.073 332.498 298.773C332.062 298.473 331.724 298.065 331.484 297.549C331.248 297.029 331.13 296.445 331.13 295.797C331.13 295.145 331.25 294.563 331.49 294.051C331.73 293.535 332.07 293.129 332.51 292.833C332.954 292.533 333.48 292.383 334.088 292.383C334.7 292.383 335.214 292.533 335.63 292.833C336.05 293.129 336.366 293.535 336.578 294.051C336.794 294.567 336.902 295.149 336.902 295.797C336.902 296.445 336.794 297.027 336.578 297.543C336.362 298.059 336.044 298.469 335.624 298.773C335.204 299.073 334.684 299.223 334.064 299.223ZM334.238 298.089C334.65 298.089 334.986 297.991 335.246 297.795C335.506 297.599 335.696 297.329 335.816 296.985C335.936 296.641 335.996 296.245 335.996 295.797C335.996 295.349 335.934 294.953 335.81 294.609C335.69 294.265 335.502 293.997 335.246 293.805C334.994 293.613 334.672 293.517 334.28 293.517C333.864 293.517 333.522 293.619 333.254 293.823C332.986 294.027 332.786 294.301 332.654 294.645C332.526 294.989 332.462 295.373 332.462 295.797C332.462 296.225 332.526 296.613 332.654 296.961C332.786 297.305 332.982 297.579 333.242 297.783C333.506 297.987 333.838 298.089 334.238 298.089ZM335.996 299.043V294.381H335.852V290.403H337.112V299.043H335.996ZM340.357 299.223C339.877 299.223 339.475 299.135 339.151 298.959C338.827 298.779 338.581 298.543 338.413 298.251C338.249 297.955 338.167 297.631 338.167 297.279C338.167 296.951 338.225 296.663 338.341 296.415C338.457 296.167 338.629 295.957 338.857 295.785C339.085 295.609 339.365 295.467 339.697 295.359C339.985 295.275 340.311 295.201 340.675 295.137C341.039 295.073 341.421 295.013 341.821 294.957C342.225 294.901 342.625 294.845 343.021 294.789L342.565 295.041C342.573 294.533 342.465 294.157 342.241 293.913C342.021 293.665 341.641 293.541 341.101 293.541C340.761 293.541 340.449 293.621 340.165 293.781C339.881 293.937 339.683 294.197 339.571 294.561L338.401 294.201C338.561 293.645 338.865 293.203 339.313 292.875C339.765 292.547 340.365 292.383 341.113 292.383C341.693 292.383 342.197 292.483 342.625 292.683C343.057 292.879 343.373 293.191 343.573 293.619C343.677 293.831 343.741 294.055 343.765 294.291C343.789 294.527 343.801 294.781 343.801 295.053V299.043H342.691V297.561L342.907 297.753C342.639 298.249 342.297 298.619 341.881 298.863C341.469 299.103 340.961 299.223 340.357 299.223ZM340.579 298.197C340.935 298.197 341.241 298.135 341.497 298.011C341.753 297.883 341.959 297.721 342.115 297.525C342.271 297.329 342.373 297.125 342.421 296.913C342.489 296.721 342.527 296.505 342.535 296.265C342.547 296.025 342.553 295.833 342.553 295.689L342.961 295.839C342.565 295.899 342.205 295.953 341.881 296.001C341.557 296.049 341.263 296.097 340.999 296.145C340.739 296.189 340.507 296.243 340.303 296.307C340.131 296.367 339.977 296.439 339.841 296.523C339.709 296.607 339.603 296.709 339.523 296.829C339.447 296.949 339.409 297.095 339.409 297.267C339.409 297.435 339.451 297.591 339.535 297.735C339.619 297.875 339.747 297.987 339.919 298.071C340.091 298.155 340.311 298.197 340.579 298.197ZM348.803 299.043C348.395 299.123 347.995 299.157 347.603 299.145C347.211 299.133 346.861 299.057 346.553 298.917C346.245 298.777 346.013 298.557 345.857 298.257C345.717 297.989 345.641 297.717 345.629 297.441C345.621 297.161 345.617 296.845 345.617 296.493V290.763H346.877V296.433C346.877 296.693 346.879 296.919 346.883 297.111C346.891 297.303 346.933 297.465 347.009 297.597C347.153 297.845 347.381 297.987 347.693 298.023C348.009 298.055 348.379 298.041 348.803 297.981V299.043ZM344.375 293.571V292.563H348.803V293.571H344.375ZM351.735 299.223C351.255 299.223 350.853 299.135 350.529 298.959C350.205 298.779 349.959 298.543 349.791 298.251C349.627 297.955 349.545 297.631 349.545 297.279C349.545 296.951 349.603 296.663 349.719 296.415C349.835 296.167 350.007 295.957 350.235 295.785C350.463 295.609 350.743 295.467 351.075 295.359C351.363 295.275 351.689 295.201 352.053 295.137C352.417 295.073 352.799 295.013 353.199 294.957C353.603 294.901 354.003 294.845 354.399 294.789L353.943 295.041C353.951 294.533 353.843 294.157 353.619 293.913C353.399 293.665 353.019 293.541 352.479 293.541C352.139 293.541 351.827 293.621 351.543 293.781C351.259 293.937 351.061 294.197 350.949 294.561L349.779 294.201C349.939 293.645 350.243 293.203 350.691 292.875C351.143 292.547 351.743 292.383 352.491 292.383C353.071 292.383 353.575 292.483 354.003 292.683C354.435 292.879 354.751 293.191 354.951 293.619C355.055 293.831 355.119 294.055 355.143 294.291C355.167 294.527 355.179 294.781 355.179 295.053V299.043H354.069V297.561L354.285 297.753C354.017 298.249 353.675 298.619 353.259 298.863C352.847 299.103 352.339 299.223 351.735 299.223ZM351.957 298.197C352.313 298.197 352.619 298.135 352.875 298.011C353.131 297.883 353.337 297.721 353.493 297.525C353.649 297.329 353.751 297.125 353.799 296.913C353.867 296.721 353.905 296.505 353.913 296.265C353.925 296.025 353.931 295.833 353.931 295.689L354.339 295.839C353.943 295.899 353.583 295.953 353.259 296.001C352.935 296.049 352.641 296.097 352.377 296.145C352.117 296.189 351.885 296.243 351.681 296.307C351.509 296.367 351.355 296.439 351.219 296.523C351.087 296.607 350.981 296.709 350.901 296.829C350.825 296.949 350.787 297.095 350.787 297.267C350.787 297.435 350.829 297.591 350.913 297.735C350.997 297.875 351.125 297.987 351.297 298.071C351.469 298.155 351.689 298.197 351.957 298.197Z" fill="#343932"/>
<rect x="304.079" y="306.039" width="67.1768" height="8.02111" rx="4.01055" fill="#F2F2F2"/>
</g>
<g filter="url(#filter4_dd_2613_83232)">
<rect x="234" y="352" width="289" height="67" rx="12.0317" fill="white" shape-rendering="crispEdges"/>
<rect x="250.042" y="365.501" width="40" height="39.9987" rx="7.27249" fill="#F7F5F3"/>
<path d="M260.042 392.521C260.042 393.261 260.633 393.859 261.361 393.859H261.38C260.641 393.859 260.042 393.261 260.042 392.521Z" fill="#FBBC05"/>
<path d="M271.377 382.155V385.648L275.985 381.849V378.476C275.985 377.736 275.394 377.138 274.666 377.138H264.683L264.674 382.155H271.377Z" fill="#FBBC05"/>
<path d="M271.377 389.142H264.663L264.655 393.861H274.666C275.395 393.861 275.985 393.263 275.985 392.523V389.477L271.377 385.649V389.142Z" fill="#34A853"/>
<path d="M264.682 377.138L260.042 382.155H264.674L264.682 377.138Z" fill="#EA4335"/>
<path d="M260.042 389.143V392.524C260.042 393.263 260.641 393.862 261.38 393.862H264.654L264.662 389.143H260.042Z" fill="#1967D2"/>
<path d="M264.674 382.155H260.042V389.142H264.662L264.674 382.155Z" fill="#4285F4"/>
<path d="M280.036 391.334V379.85C279.776 378.326 278.141 380.073 278.141 380.073L275.986 381.849V389.476L279.071 392.039C280.184 392.189 280.036 391.334 280.036 391.334Z" fill="#34A853"/>
<path d="M271.376 385.648L275.985 389.477V381.85L271.376 385.648Z" fill="#188038"/>
<path d="M307.001 382.043V378.473L304.079 373.403H305.543L307.637 377.033L309.731 373.403H311.195L308.273 378.473V382.043H307.001ZM313.621 382.223C312.973 382.223 312.411 382.077 311.935 381.785C311.459 381.493 311.091 381.091 310.831 380.579C310.575 380.063 310.447 379.469 310.447 378.797C310.447 378.121 310.579 377.527 310.843 377.015C311.107 376.499 311.477 376.099 311.953 375.815C312.429 375.527 312.985 375.383 313.621 375.383C314.269 375.383 314.831 375.529 315.307 375.821C315.783 376.113 316.151 376.515 316.411 377.027C316.671 377.539 316.801 378.129 316.801 378.797C316.801 379.473 316.669 380.069 316.405 380.585C316.145 381.097 315.777 381.499 315.301 381.791C314.825 382.079 314.265 382.223 313.621 382.223ZM313.621 381.041C314.241 381.041 314.703 380.833 315.007 380.417C315.315 379.997 315.469 379.457 315.469 378.797C315.469 378.121 315.313 377.581 315.001 377.177C314.693 376.769 314.233 376.565 313.621 376.565C313.201 376.565 312.855 376.661 312.583 376.853C312.311 377.041 312.109 377.303 311.977 377.639C311.845 377.971 311.779 378.357 311.779 378.797C311.779 379.477 311.935 380.021 312.247 380.429C312.559 380.837 313.017 381.041 313.621 381.041ZM320.298 382.217C319.85 382.217 319.474 382.145 319.17 382.001C318.866 381.857 318.618 381.669 318.426 381.437C318.238 381.201 318.094 380.945 317.994 380.669C317.894 380.393 317.826 380.123 317.79 379.859C317.754 379.595 317.736 379.363 317.736 379.163V375.563H319.008V378.749C319.008 379.001 319.028 379.261 319.068 379.529C319.112 379.793 319.192 380.039 319.308 380.267C319.428 380.495 319.594 380.679 319.806 380.819C320.022 380.959 320.302 381.029 320.646 381.029C320.87 381.029 321.082 380.993 321.282 380.921C321.482 380.845 321.656 380.725 321.804 380.561C321.956 380.397 322.074 380.181 322.158 379.913C322.246 379.645 322.29 379.319 322.29 378.935L323.07 379.229C323.07 379.817 322.96 380.337 322.74 380.789C322.52 381.237 322.204 381.587 321.792 381.839C321.38 382.091 320.882 382.217 320.298 382.217ZM322.44 382.043V380.171H322.29V375.563H323.556V382.043H322.44ZM324.975 382.043V375.563H326.091V377.135L325.935 376.931C326.015 376.723 326.119 376.533 326.247 376.361C326.375 376.185 326.523 376.041 326.691 375.929C326.855 375.809 327.037 375.717 327.237 375.653C327.441 375.585 327.649 375.545 327.861 375.533C328.073 375.517 328.277 375.527 328.473 375.563V376.739C328.261 376.683 328.025 376.667 327.765 376.691C327.509 376.715 327.273 376.797 327.057 376.937C326.853 377.069 326.691 377.229 326.571 377.417C326.455 377.605 326.371 377.815 326.319 378.047C326.267 378.275 326.241 378.517 326.241 378.773V382.043H324.975ZM339.254 382.043L339.26 378.005C339.26 377.537 339.14 377.173 338.9 376.913C338.66 376.649 338.344 376.517 337.952 376.517C337.712 376.517 337.492 376.573 337.292 376.685C337.096 376.793 336.936 376.957 336.812 377.177C336.692 377.393 336.632 377.665 336.632 377.993L336.026 377.687C336.018 377.231 336.114 376.831 336.314 376.487C336.518 376.143 336.794 375.877 337.142 375.689C337.49 375.497 337.88 375.401 338.312 375.401C339.012 375.401 339.554 375.611 339.938 376.031C340.322 376.451 340.514 377.009 340.514 377.705L340.508 382.043H339.254ZM331.484 382.043V375.563H332.6V377.435H332.744V382.043H331.484ZM335.372 382.043L335.378 378.029C335.378 377.557 335.258 377.187 335.018 376.919C334.782 376.651 334.464 376.517 334.064 376.517C333.668 376.517 333.348 376.653 333.104 376.925C332.864 377.197 332.744 377.553 332.744 377.993L332.144 377.609C332.144 377.185 332.246 376.807 332.45 376.475C332.654 376.143 332.93 375.881 333.278 375.689C333.626 375.497 334.02 375.401 334.46 375.401C334.92 375.401 335.312 375.499 335.636 375.695C335.96 375.887 336.206 376.157 336.374 376.505C336.546 376.853 336.632 377.257 336.632 377.717L336.626 382.043H335.372ZM344.6 382.223C343.956 382.223 343.39 382.083 342.902 381.803C342.418 381.519 342.04 381.125 341.768 380.621C341.5 380.113 341.366 379.525 341.366 378.857C341.366 378.149 341.498 377.535 341.762 377.015C342.03 376.495 342.402 376.093 342.878 375.809C343.354 375.525 343.908 375.383 344.54 375.383C345.2 375.383 345.762 375.537 346.226 375.845C346.69 376.149 347.036 376.583 347.264 377.147C347.496 377.711 347.588 378.381 347.54 379.157H346.286V378.701C346.278 377.949 346.134 377.393 345.854 377.033C345.578 376.673 345.156 376.493 344.588 376.493C343.96 376.493 343.488 376.691 343.172 377.087C342.856 377.483 342.698 378.055 342.698 378.803C342.698 379.515 342.856 380.067 343.172 380.459C343.488 380.847 343.944 381.041 344.54 381.041C344.932 381.041 345.27 380.953 345.554 380.777C345.842 380.597 346.066 380.341 346.226 380.009L347.456 380.399C347.204 380.979 346.822 381.429 346.31 381.749C345.798 382.065 345.228 382.223 344.6 382.223ZM342.29 379.157V378.179H346.916V379.157H342.29ZM351.496 382.223C350.852 382.223 350.286 382.083 349.798 381.803C349.314 381.519 348.936 381.125 348.664 380.621C348.396 380.113 348.262 379.525 348.262 378.857C348.262 378.149 348.394 377.535 348.658 377.015C348.926 376.495 349.298 376.093 349.774 375.809C350.25 375.525 350.804 375.383 351.436 375.383C352.096 375.383 352.658 375.537 353.122 375.845C353.586 376.149 353.932 376.583 354.16 377.147C354.392 377.711 354.484 378.381 354.436 379.157H353.182V378.701C353.174 377.949 353.03 377.393 352.75 377.033C352.474 376.673 352.052 376.493 351.484 376.493C350.856 376.493 350.384 376.691 350.068 377.087C349.752 377.483 349.594 378.055 349.594 378.803C349.594 379.515 349.752 380.067 350.068 380.459C350.384 380.847 350.84 381.041 351.436 381.041C351.828 381.041 352.166 380.953 352.45 380.777C352.738 380.597 352.962 380.341 353.122 380.009L354.352 380.399C354.1 380.979 353.718 381.429 353.206 381.749C352.694 382.065 352.124 382.223 351.496 382.223ZM349.186 379.157V378.179H353.812V379.157H349.186ZM359.226 382.043C358.818 382.123 358.418 382.157 358.026 382.145C357.634 382.133 357.284 382.057 356.976 381.917C356.668 381.777 356.436 381.557 356.28 381.257C356.14 380.989 356.064 380.717 356.052 380.441C356.044 380.161 356.04 379.845 356.04 379.493V373.763H357.3V379.433C357.3 379.693 357.302 379.919 357.306 380.111C357.314 380.303 357.356 380.465 357.432 380.597C357.576 380.845 357.804 380.987 358.116 381.023C358.432 381.055 358.802 381.041 359.226 380.981V382.043ZM354.798 376.571V375.563H359.226V376.571H354.798ZM360.448 374.501V373.283H361.702V374.501H360.448ZM360.448 382.043V375.563H361.702V382.043H360.448ZM367.788 382.043V378.857C367.788 378.605 367.766 378.347 367.722 378.083C367.682 377.815 367.602 377.567 367.482 377.339C367.366 377.111 367.2 376.927 366.984 376.787C366.772 376.647 366.494 376.577 366.15 376.577C365.926 376.577 365.714 376.615 365.514 376.691C365.314 376.763 365.138 376.881 364.986 377.045C364.838 377.209 364.72 377.425 364.632 377.693C364.548 377.961 364.506 378.287 364.506 378.671L363.726 378.377C363.726 377.789 363.836 377.271 364.056 376.823C364.276 376.371 364.592 376.019 365.004 375.767C365.416 375.515 365.914 375.389 366.498 375.389C366.946 375.389 367.322 375.461 367.626 375.605C367.93 375.749 368.176 375.939 368.364 376.175C368.556 376.407 368.702 376.661 368.802 376.937C368.902 377.213 368.97 377.483 369.006 377.747C369.042 378.011 369.06 378.243 369.06 378.443V382.043H367.788ZM363.234 382.043V375.563H364.356V377.435H364.506V382.043H363.234ZM373.029 385.103C372.681 385.103 372.343 385.049 372.015 384.941C371.691 384.833 371.395 384.673 371.127 384.461C370.859 384.253 370.637 383.995 370.461 383.687L371.619 383.099C371.759 383.375 371.959 383.577 372.219 383.705C372.479 383.833 372.753 383.897 373.041 383.897C373.397 383.897 373.701 383.833 373.953 383.705C374.205 383.581 374.395 383.393 374.523 383.141C374.655 382.889 374.719 382.577 374.715 382.205V380.393H374.865V375.563H375.975V382.217C375.975 382.389 375.969 382.553 375.957 382.709C375.945 382.865 375.923 383.021 375.891 383.177C375.799 383.613 375.623 383.973 375.363 384.257C375.107 384.541 374.779 384.753 374.379 384.893C373.983 385.033 373.533 385.103 373.029 385.103ZM372.933 382.223C372.329 382.223 371.807 382.073 371.367 381.773C370.931 381.473 370.593 381.065 370.353 380.549C370.117 380.029 369.999 379.445 369.999 378.797C369.999 378.145 370.119 377.563 370.359 377.051C370.599 376.535 370.939 376.129 371.379 375.833C371.823 375.533 372.349 375.383 372.957 375.383C373.569 375.383 374.083 375.533 374.499 375.833C374.919 376.129 375.235 376.535 375.447 377.051C375.663 377.567 375.771 378.149 375.771 378.797C375.771 379.445 375.663 380.027 375.447 380.543C375.231 381.059 374.913 381.469 374.493 381.773C374.073 382.073 373.553 382.223 372.933 382.223ZM373.107 381.089C373.519 381.089 373.855 380.991 374.115 380.795C374.375 380.599 374.565 380.329 374.685 379.985C374.805 379.641 374.865 379.245 374.865 378.797C374.865 378.349 374.803 377.953 374.679 377.609C374.559 377.265 374.371 376.997 374.115 376.805C373.863 376.613 373.541 376.517 373.149 376.517C372.733 376.517 372.391 376.619 372.123 376.823C371.855 377.027 371.655 377.301 371.523 377.645C371.395 377.989 371.331 378.373 371.331 378.797C371.331 379.225 371.395 379.613 371.523 379.961C371.655 380.305 371.851 380.579 372.111 380.783C372.375 380.987 372.707 381.089 373.107 381.089ZM379.874 382.217C379.086 382.217 378.444 382.043 377.948 381.695C377.452 381.347 377.148 380.857 377.036 380.225L378.32 380.027C378.4 380.363 378.584 380.629 378.872 380.825C379.164 381.017 379.526 381.113 379.958 381.113C380.35 381.113 380.656 381.033 380.876 380.873C381.1 380.713 381.212 380.493 381.212 380.213C381.212 380.049 381.172 379.917 381.092 379.817C381.016 379.713 380.854 379.615 380.606 379.523C380.358 379.431 379.98 379.317 379.472 379.181C378.916 379.037 378.474 378.883 378.146 378.719C377.822 378.551 377.59 378.357 377.45 378.137C377.314 377.913 377.246 377.643 377.246 377.327C377.246 376.935 377.35 376.593 377.558 376.301C377.766 376.009 378.058 375.783 378.434 375.623C378.814 375.463 379.258 375.383 379.766 375.383C380.262 375.383 380.704 375.461 381.092 375.617C381.48 375.773 381.794 375.995 382.034 376.283C382.274 376.567 382.418 376.901 382.466 377.285L381.182 377.519C381.138 377.207 380.992 376.961 380.744 376.781C380.496 376.601 380.174 376.503 379.778 376.487C379.398 376.471 379.09 376.535 378.854 376.679C378.618 376.819 378.5 377.013 378.5 377.261C378.5 377.405 378.544 377.527 378.632 377.627C378.724 377.727 378.9 377.823 379.16 377.915C379.42 378.007 379.804 378.117 380.312 378.245C380.856 378.385 381.288 378.541 381.608 378.713C381.928 378.881 382.156 379.083 382.292 379.319C382.432 379.551 382.502 379.833 382.502 380.165C382.502 380.805 382.268 381.307 381.8 381.671C381.336 382.035 380.694 382.217 379.874 382.217Z" fill="#343932"/>
<rect x="304.079" y="389.039" width="67.1768" height="8.02111" rx="4.01055" fill="#F2F2F2"/>
</g>
</g>
<rect x="565" y="196" width="144" height="86" rx="9.29032" fill="#201335"/>
<rect x="565" y="274.968" width="144" height="49.9355" rx="9.29032" fill="#201335"/>
<rect x="565" y="317.936" width="144" height="49.9355" rx="9.29032" fill="#201335"/>
<rect x="565" y="360.903" width="144" height="49.9355" rx="9.29032" fill="#201335"/>
<rect opacity="0.4" x="571.967" y="238.968" width="130.065" height="36" rx="9.29032" fill="#4F4789"/>
<rect opacity="0.4" x="571.967" y="281.936" width="130.065" height="36" rx="9.29032" fill="#4F4789"/>
<rect opacity="0.4" x="571.967" y="324.903" width="130.065" height="36" rx="9.29032" fill="#4F4789"/>
<rect opacity="0.4" x="571.967" y="367.871" width="130.065" height="36" rx="9.29032" fill="#4F4789"/>
<circle opacity="0.8" cx="588.226" cy="256.806" r="5.80645" fill="#EFAF35"/>
<circle opacity="0.8" cx="607.806" cy="256.806" r="5.80645" fill="#FEFEFE"/>
<circle opacity="0.8" cx="591.71" cy="300.516" r="9.29032" fill="#E259A7"/>
<circle opacity="0.8" cx="588.226" cy="343.484" r="5.80645" fill="#FEFEFE"/>
<circle opacity="0.8" cx="588.226" cy="385.806" r="5.80645" fill="#FEFEFE"/>
<circle opacity="0.8" cx="607.84" cy="385.806" r="5.80645" fill="#FEFEFE"/>
<rect opacity="0.2" x="622" y="251" width="72" height="12" rx="6" fill="#FEFEFE"/>
<rect opacity="0.2" x="614" y="294" width="72" height="12" rx="6" fill="#FEFEFE"/>
<rect opacity="0.2" x="610.033" y="337" width="72" height="12" rx="6" fill="#FEFEFE"/>
<rect opacity="0.2" x="621.646" y="380" width="72" height="12" rx="6" fill="#FEFEFE"/>
<g filter="url(#filter5_dd_2613_83232)">
<rect x="59" y="46" width="144" height="86" rx="9.29032" fill="#C87A3C"/>
<rect x="59" y="124.968" width="144" height="49.9355" rx="9.29032" fill="#C87A3C"/>
<rect x="59" y="167.936" width="144" height="49.9355" rx="9.29032" fill="#C87A3C"/>
<rect x="59" y="210.903" width="144" height="49.9355" rx="9.29032" fill="#C87A3C"/>
<rect opacity="0.4" x="65.9668" y="88.9678" width="130.065" height="36" rx="9.29032" fill="#E8E1DB"/>
<rect opacity="0.4" x="65.9668" y="131.936" width="130.065" height="36" rx="9.29032" fill="#EFAF35"/>
<rect opacity="0.4" x="65.9668" y="174.903" width="130.065" height="36" rx="9.29032" fill="#EFAF35"/>
<rect opacity="0.4" x="65.9668" y="217.871" width="130.065" height="36" rx="9.29032" fill="#E8E1DB"/>
<circle cx="81.8064" cy="149.806" r="5.80645" fill="#201335"/>
<circle cx="85.2903" cy="107.29" r="9.29032" fill="#201335"/>
<circle cx="101.387" cy="149.806" r="5.80645" fill="#FEFEFE"/>
<circle cx="81.8064" cy="236.484" r="5.80645" fill="#FEFEFE"/>
<circle cx="81.8064" cy="192.806" r="5.80645" fill="#FEFEFE"/>
<circle cx="101.42" cy="192.806" r="5.80645" fill="#FEFEFE"/>
<rect opacity="0.3" x="107.58" y="100.774" width="72" height="12" rx="6" fill="#FEFEFE"/>
<rect opacity="0.3" x="115.58" y="144" width="72" height="12" rx="6" fill="#FEFEFE"/>
<rect opacity="0.3" x="103.613" y="230" width="72" height="12" rx="6" fill="#FEFEFE"/>
<rect opacity="0.3" x="115.227" y="187" width="72" height="12" rx="6" fill="#FEFEFE"/>
</g>
<path d="M126.12 52.8208C125.999 46.8671 121.169 42.0162 115.181 42.0162C113.897 42.0162 112.615 42.2607 111.514 42.63C109.132 38.6401 104.791 36 99.8395 36C92.3213 36 86.2718 42.0759 86.2718 49.6264C86.2718 50.9164 86.4557 52.1441 86.7613 53.3094C82.2371 54.784 78.9375 59.0808 78.9375 64.176C78.9375 70.4365 84.0108 75.5319 90.2444 75.5319H125.693C131.927 75.5319 137 70.4366 137 64.176C137 58.0377 132.173 53.0669 126.12 52.8202L126.12 52.8208Z" fill="#E8E1DB"/>
<path d="M105.309 47.0768C108.278 46.7267 111.065 47.5901 113.439 49.3295C116.055 51.2464 117.479 53.9691 117.892 57.1003C118.298 60.1719 117.568 63.1856 115.589 65.641C113.567 68.1515 110.819 69.5696 107.583 69.9338C105.001 70.265 102.045 69.3205 99.9791 67.8376C97.259 65.8851 95.6166 63.0466 95.1194 59.8146C94.6702 56.8958 95.5073 53.9678 97.316 51.6106C99.3164 49.0034 102.031 47.5539 105.309 47.0768Z" fill="#343932"/>
<path d="M109.188 61.7828C108.722 61.3163 108.178 60.9859 107.595 60.7819L109.188 59.1883C110.83 57.5461 110.83 54.8739 109.188 53.2317C107.546 51.5894 104.874 51.5894 103.232 53.2317C101.589 54.8739 101.589 57.5461 103.232 59.1883C103.688 59.645 104.213 59.9754 104.786 60.1697L103.455 61.5787C103.377 61.6467 103.3 61.7147 103.232 61.7828C102.989 62.0257 102.785 62.288 102.619 62.5601L103.824 63.1043L104.816 63.5513L104.971 63.6193C104.971 63.6193 105 63.5804 105.02 63.5707C105.68 62.9099 106.749 62.9099 107.4 63.5707C107.77 63.94 107.935 64.455 107.886 64.9408L110.238 66C110.685 64.5619 110.335 62.9197 109.188 61.7828ZM105.01 57.4003C104.349 56.7395 104.349 55.6707 105.01 55.0196C105.671 54.3588 106.74 54.3588 107.391 55.0196C108.051 55.6804 108.051 56.7493 107.391 57.4003L106.195 58.6635V57.8959C105.768 57.8959 105.331 57.7307 105 57.4003H105.01Z" fill="#C87A3C"/>
<path fill-rule="evenodd" clip-rule="evenodd" d="M681.821 197.734C681.862 197.427 681.883 197.12 681.883 196.813C681.883 192.577 678.445 189.139 674.209 189.139H674.209C673.902 189.139 673.616 189.139 673.328 189.18C671.281 185.373 667.352 183 662.953 183C656.957 183 651.984 187.522 651.267 193.335C646.601 194.032 643 198.084 643 202.953C643 208.315 647.359 212.674 652.721 212.674H663.453V218.053C662.148 218.516 661.114 219.55 660.652 220.854H651.946C651.313 219.068 649.609 217.789 647.604 217.789C645.062 217.789 643 219.85 643 222.394C643 224.936 645.062 226.998 647.604 226.998C649.612 226.998 651.318 225.714 651.948 223.924H660.649C661.28 225.714 662.987 226.998 664.993 226.998C666.998 226.998 668.705 225.714 669.337 223.924H678.064C678.695 225.714 680.401 226.998 682.408 226.998C684.95 226.998 687.013 224.936 687.013 222.394C687.013 219.85 684.95 217.789 682.408 217.789C680.404 217.789 678.7 219.068 678.067 220.854H669.334C668.87 219.546 667.832 218.51 666.522 218.049V212.674H679.325C683.562 212.674 687 209.236 687 205C687 201.644 684.872 198.778 681.821 197.734ZM669.073 204.079C668.438 204.653 667.477 204.591 666.903 203.956C666.903 203.956 666.31 203.425 665 203.425C663.811 203.425 663.129 203.93 662.981 204.039L662.981 204.04C662.966 204.051 662.957 204.058 662.953 204.06C662.646 204.346 662.277 204.489 661.888 204.489C661.498 204.489 661.09 204.346 660.804 204.039C660.211 203.446 660.211 202.504 660.783 201.911C660.946 201.748 662.358 200.355 664.998 200.355C667.638 200.355 669.05 201.767 669.194 201.93C669.767 202.565 669.706 203.526 669.071 204.1L669.073 204.079ZM672.367 199.29C672.06 199.699 671.609 199.904 671.139 199.904C670.811 199.904 670.504 199.802 670.218 199.597C667.189 197.326 662.811 197.326 659.781 199.597C659.106 200.109 658.145 199.966 657.633 199.29C657.12 198.615 657.264 197.654 657.94 197.141C662.032 194.072 667.968 194.072 672.06 197.141C672.735 197.654 672.879 198.615 672.367 199.29Z" fill="#FEFEFE"/>
<path d="M152 261V395C152 403.837 159.163 411 168 411H342C350.837 411 358 403.837 358 395V383" stroke="white" stroke-width="2" stroke-linecap="round" stroke-linejoin="round" stroke-dasharray="1 8"/>
<path d="M610 192L610 58C610 49.1634 602.837 42 594 42L420 42C411.163 42 404 49.1635 404 58L404 70" stroke="white" stroke-width="2" stroke-linecap="round" stroke-linejoin="round" stroke-dasharray="1 8"/>
</g>
<defs>
<filter id="filter0_f_2613_83232" x="98.08" y="-150.92" width="838.84" height="838.84" filterUnits="userSpaceOnUse" color-interpolation-filters="sRGB">
<feFlood flood-opacity="0" result="BackgroundImageFix"/>
<feBlend mode="normal" in="SourceGraphic" in2="BackgroundImageFix" result="shape"/>
<feGaussianBlur stdDeviation="44.46" result="effect1_foregroundBlur_2613_83232"/>
</filter>
<filter id="filter1_bdi_2613_83232" x="35.2313" y="12.0767" width="687.365" height="473.519" filterUnits="userSpaceOnUse" color-interpolation-filters="sRGB">
<feFlood flood-opacity="0" result="BackgroundImageFix"/>
<feGaussianBlur in="BackgroundImageFix" stdDeviation="33.2979"/>
<feComposite in2="SourceAlpha" operator="in" result="effect1_backgroundBlur_2613_83232"/>
<feColorMatrix in="SourceAlpha" type="matrix" values="0 0 0 0 0 0 0 0 0 0 0 0 0 0 0 0 0 0 127 0" result="hardAlpha"/>
<feOffset dy="8.1546"/>
<feGaussianBlur stdDeviation="5.09662"/>
<feComposite in2="hardAlpha" operator="out"/>
<feColorMatrix type="matrix" values="0 0 0 0 0 0 0 0 0 0 0 0 0 0 0 0 0 0 0.05 0"/>
<feBlend mode="normal" in2="effect1_backgroundBlur_2613_83232" result="effect2_dropShadow_2613_83232"/>
<feBlend mode="normal" in="SourceGraphic" in2="effect2_dropShadow_2613_83232" result="shape"/>
<feColorMatrix in="SourceAlpha" type="matrix" values="0 0 0 0 0 0 0 0 0 0 0 0 0 0 0 0 0 0 127 0" result="hardAlpha"/>
<feMorphology radius="0.67955" operator="dilate" in="SourceAlpha" result="effect3_innerShadow_2613_83232"/>
<feOffset dx="-0.339775" dy="0.339775"/>
<feGaussianBlur stdDeviation="0.169887"/>
<feComposite in2="hardAlpha" operator="arithmetic" k2="-1" k3="1"/>
<feColorMatrix type="matrix" values="0 0 0 0 1 0 0 0 0 1 0 0 0 0 1 0 0 0 0.35 0"/>
<feBlend mode="normal" in2="shape" result="effect3_innerShadow_2613_83232"/>
</filter>
<filter id="filter2_dd_2613_83232" x="230" y="183" width="297" height="75" filterUnits="userSpaceOnUse" color-interpolation-filters="sRGB">
<feFlood flood-opacity="0" result="BackgroundImageFix"/>
<feColorMatrix in="SourceAlpha" type="matrix" values="0 0 0 0 0 0 0 0 0 0 0 0 0 0 0 0 0 0 127 0" result="hardAlpha"/>
<feOffset dy="1"/>
<feGaussianBlur stdDeviation="2"/>
<feComposite in2="hardAlpha" operator="out"/>
<feColorMatrix type="matrix" values="0 0 0 0 0.0470588 0 0 0 0 0.0470588 0 0 0 0 0.0509804 0 0 0 0.05 0"/>
<feBlend mode="normal" in2="BackgroundImageFix" result="effect1_dropShadow_2613_83232"/>
<feColorMatrix in="SourceAlpha" type="matrix" values="0 0 0 0 0 0 0 0 0 0 0 0 0 0 0 0 0 0 127 0" result="hardAlpha"/>
<feOffset dy="1"/>
<feGaussianBlur stdDeviation="2"/>
<feComposite in2="hardAlpha" operator="out"/>
<feColorMatrix type="matrix" values="0 0 0 0 0.0470588 0 0 0 0 0.0470588 0 0 0 0 0.0509804 0 0 0 0.1 0"/>
<feBlend mode="normal" in2="effect1_dropShadow_2613_83232" result="effect2_dropShadow_2613_83232"/>
<feBlend mode="normal" in="SourceGraphic" in2="effect2_dropShadow_2613_83232" result="shape"/>
</filter>
<filter id="filter3_dd_2613_83232" x="230" y="266" width="297" height="75" filterUnits="userSpaceOnUse" color-interpolation-filters="sRGB">
<feFlood flood-opacity="0" result="BackgroundImageFix"/>
<feColorMatrix in="SourceAlpha" type="matrix" values="0 0 0 0 0 0 0 0 0 0 0 0 0 0 0 0 0 0 127 0" result="hardAlpha"/>
<feOffset dy="1"/>
<feGaussianBlur stdDeviation="2"/>
<feComposite in2="hardAlpha" operator="out"/>
<feColorMatrix type="matrix" values="0 0 0 0 0.0470588 0 0 0 0 0.0470588 0 0 0 0 0.0509804 0 0 0 0.05 0"/>
<feBlend mode="normal" in2="BackgroundImageFix" result="effect1_dropShadow_2613_83232"/>
<feColorMatrix in="SourceAlpha" type="matrix" values="0 0 0 0 0 0 0 0 0 0 0 0 0 0 0 0 0 0 127 0" result="hardAlpha"/>
<feOffset dy="1"/>
<feGaussianBlur stdDeviation="2"/>
<feComposite in2="hardAlpha" operator="out"/>
<feColorMatrix type="matrix" values="0 0 0 0 0.0470588 0 0 0 0 0.0470588 0 0 0 0 0.0509804 0 0 0 0.1 0"/>
<feBlend mode="normal" in2="effect1_dropShadow_2613_83232" result="effect2_dropShadow_2613_83232"/>
<feBlend mode="normal" in="SourceGraphic" in2="effect2_dropShadow_2613_83232" result="shape"/>
</filter>
<filter id="filter4_dd_2613_83232" x="230" y="349" width="297" height="75" filterUnits="userSpaceOnUse" color-interpolation-filters="sRGB">
<feFlood flood-opacity="0" result="BackgroundImageFix"/>
<feColorMatrix in="SourceAlpha" type="matrix" values="0 0 0 0 0 0 0 0 0 0 0 0 0 0 0 0 0 0 127 0" result="hardAlpha"/>
<feOffset dy="1"/>
<feGaussianBlur stdDeviation="2"/>
<feComposite in2="hardAlpha" operator="out"/>
<feColorMatrix type="matrix" values="0 0 0 0 0.0470588 0 0 0 0 0.0470588 0 0 0 0 0.0509804 0 0 0 0.05 0"/>
<feBlend mode="normal" in2="BackgroundImageFix" result="effect1_dropShadow_2613_83232"/>
<feColorMatrix in="SourceAlpha" type="matrix" values="0 0 0 0 0 0 0 0 0 0 0 0 0 0 0 0 0 0 127 0" result="hardAlpha"/>
<feOffset dy="1"/>
<feGaussianBlur stdDeviation="2"/>
<feComposite in2="hardAlpha" operator="out"/>
<feColorMatrix type="matrix" values="0 0 0 0 0.0470588 0 0 0 0 0.0470588 0 0 0 0 0.0509804 0 0 0 0.1 0"/>
<feBlend mode="normal" in2="effect1_dropShadow_2613_83232" result="effect2_dropShadow_2613_83232"/>
<feBlend mode="normal" in="SourceGraphic" in2="effect2_dropShadow_2613_83232" result="shape"/>
</filter>
<filter id="filter5_dd_2613_83232" x="31" y="34" width="200" height="270.839" filterUnits="userSpaceOnUse" color-interpolation-filters="sRGB">
<feFlood flood-opacity="0" result="BackgroundImageFix"/>
<feColorMatrix in="SourceAlpha" type="matrix" values="0 0 0 0 0 0 0 0 0 0 0 0 0 0 0 0 0 0 127 0" result="hardAlpha"/>
<feMorphology radius="4" operator="erode" in="SourceAlpha" result="effect1_dropShadow_2613_83232"/>
<feOffset dy="4"/>
<feGaussianBlur stdDeviation="2"/>
<feComposite in2="hardAlpha" operator="out"/>
<feColorMatrix type="matrix" values="0 0 0 0 0.0470588 0 0 0 0 0.0470588 0 0 0 0 0.0509804 0 0 0 0.05 0"/>
<feBlend mode="normal" in2="BackgroundImageFix" result="effect1_dropShadow_2613_83232"/>
<feColorMatrix in="SourceAlpha" type="matrix" values="0 0 0 0 0 0 0 0 0 0 0 0 0 0 0 0 0 0 127 0" result="hardAlpha"/>
<feMorphology radius="4" operator="erode" in="SourceAlpha" result="effect2_dropShadow_2613_83232"/>
<feOffset dy="16"/>
<feGaussianBlur stdDeviation="16"/>
<feComposite in2="hardAlpha" operator="out"/>
<feColorMatrix type="matrix" values="0 0 0 0 0.0470588 0 0 0 0 0.0470588 0 0 0 0 0.0509804 0 0 0 0.1 0"/>
<feBlend mode="normal" in2="effect1_dropShadow_2613_83232" result="effect2_dropShadow_2613_83232"/>
<feBlend mode="normal" in="SourceGraphic" in2="effect2_dropShadow_2613_83232" result="shape"/>
</filter>
<linearGradient id="paint0_linear_2613_83232" x1="274.804" y1="219.619" x2="274.804" y2="213.786" gradientUnits="userSpaceOnUse">
<stop stop-color="#4E8DF5"/>
<stop offset="1" stop-color="#3D6ACD"/>
</linearGradient>
<clipPath id="clip0_2613_83232">
<rect width="758" height="457" rx="16" fill="white"/>
</clipPath>
</defs>
</svg>
