<svg width="113" height="112" viewBox="0 0 113 112" fill="none" xmlns="http://www.w3.org/2000/svg">
<path d="M111.353 57.0646C111.418 79.2472 98.2949 98.369 79.3816 107.04C78.4425 107.469 77.3735 106.784 77.3735 105.752C77.3735 95.7603 69.2738 87.6605 59.2822 87.6605H12.7295C11.6674 87.6605 10.6719 87.1222 10.1088 86.2207C4.85193 77.8125 1.8125 67.8765 1.8125 57.2295C1.8125 27.0198 26.2706 2.52234 56.4658 2.45911C86.7969 2.39587 111.264 26.7344 111.353 57.0646Z" fill="#0573CD"/>
<path d="M99.7292 77.4546H37.1343C35.2826 77.4546 33.7812 75.9532 33.7812 74.1016V3.35303C33.7812 1.50134 35.2826 0 37.1343 0H99.7292C101.581 0 103.082 1.50134 103.082 3.35303V74.1016C103.082 75.9532 101.581 77.4546 99.7292 77.4546Z" fill="#08E092"/>
<path d="M99.7288 77.4546H42.723C40.8705 77.4546 39.3691 75.9532 39.3691 74.1016V3.35303C39.3691 1.50134 40.8705 0 42.723 0H99.7288C101.58 0 103.082 1.50134 103.082 3.35303V74.1016C103.082 75.9532 101.58 77.4546 99.7288 77.4546Z" fill="#00F1A5"/>
<path d="M86.5396 14.5308V16.767C86.5396 17.3839 86.0388 17.8846 85.4219 17.8846H45.1821C44.5652 17.8846 44.0645 17.3839 44.0645 16.767V14.5308C44.0645 13.9138 44.5652 13.4131 45.1821 13.4131H85.4219C86.0388 13.4131 86.5396 13.9138 86.5396 14.5308ZM45.1821 26.826H72.0089C72.6259 26.826 73.1266 26.3262 73.1266 25.7084V23.473C73.1266 22.8561 72.6259 22.3553 72.0089 22.3553H45.1821C44.5652 22.3553 44.0645 22.8561 44.0645 23.473V25.7084C44.0645 26.3262 44.5652 26.826 45.1821 26.826ZM85.4219 35.7683H45.1821C44.5652 35.7683 44.0645 36.269 44.0645 36.886V39.1222C44.0645 39.7391 44.5652 40.2399 45.1821 40.2399H85.4219C86.0388 40.2399 86.5396 39.7391 86.5396 39.1222V36.886C86.5396 36.269 86.0388 35.7683 85.4219 35.7683ZM85.4219 44.7106H45.1821C44.5652 44.7106 44.0645 45.2113 44.0645 45.8282V48.0636C44.0645 48.6814 44.5652 49.1821 45.1821 49.1821H85.4219C86.0388 49.1821 86.5396 48.6814 86.5396 48.0636V45.8282C86.5396 45.2113 86.0388 44.7106 85.4219 44.7106ZM72.0089 53.6528H45.1821C44.5652 53.6528 44.0645 54.1536 44.0645 54.7705V57.0059C44.0645 57.6237 44.5652 58.1235 45.1821 58.1235H72.0089C72.6259 58.1235 73.1266 57.6237 73.1266 57.0059V54.7705C73.1266 54.1536 72.6259 53.6528 72.0089 53.6528Z" fill="#04D481"/>
<path d="M79.385 37.6753V107.04C72.4423 110.223 64.7211 112 56.5829 112C36.9629 112 19.7568 101.682 10.084 86.178V37.6753C10.084 35.8236 11.5853 34.3223 13.437 34.3223H76.032C77.8837 34.3214 79.385 35.8228 79.385 37.6753Z" fill="#D3F1F5"/>
<path d="M15.6724 93.6403C13.6071 91.3212 11.7357 88.8252 10.084 86.178V37.6753C10.084 35.8236 11.5853 34.3223 13.437 34.3223H19.0262C17.1746 34.3223 15.6724 35.8236 15.6724 37.6753V93.6403Z" fill="#ADE8F0"/>
<path d="M61.9478 45.8286V48.064C61.9478 48.6818 61.447 49.1825 60.8301 49.1825H20.5903C19.9734 49.1825 19.4727 48.6818 19.4727 48.064V45.8286C19.4727 45.2117 19.9734 44.7109 20.5903 44.7109H60.8301C61.447 44.7109 61.9478 45.2117 61.9478 45.8286ZM47.4171 53.6532H20.5903C19.9734 53.6532 19.4727 54.1539 19.4727 54.7709V57.0062C19.4727 57.624 19.9734 58.1239 20.5903 58.1239H47.4171C48.0341 58.1239 48.5348 57.624 48.5348 57.0062V54.7709C48.5348 54.1539 48.0341 53.6532 47.4171 53.6532Z" fill="#95BCC9"/>
<path d="M61.9478 68.1831V70.4193C61.9478 71.0363 61.447 71.537 60.8301 71.537H20.5903C19.9734 71.537 19.4727 71.0363 19.4727 70.4193V68.1831C19.4727 67.5662 19.9734 67.0654 20.5903 67.0654H60.8301C61.447 67.0654 61.9478 67.5662 61.9478 68.1831ZM60.8301 76.0077H20.5903C19.9734 76.0077 19.4727 76.5084 19.4727 77.1254V79.3607C19.4727 79.9785 19.9734 80.4784 20.5903 80.4784H60.8301C61.447 80.4784 61.9478 79.9785 61.9478 79.3607V77.1254C61.9478 76.5084 61.447 76.0077 60.8301 76.0077ZM47.4171 84.95H20.5903C19.9734 84.95 19.4727 85.4507 19.4727 86.0676V88.303C19.4727 88.9208 19.9734 89.4207 20.5903 89.4207H47.4171C48.0341 89.4207 48.5348 88.9208 48.5348 88.303V86.0676C48.5348 85.4507 48.0341 84.95 47.4171 84.95Z" fill="#84DEEA"/>
</svg>
