<svg width="24" height="41" viewBox="0 0 24 41" fill="none" xmlns="http://www.w3.org/2000/svg">
<path d="M20.4846 28.6623C19.1578 27.2967 17.5977 26.319 15.935 25.7276L20.48 21.0537C25.1662 16.2378 25.1662 8.42897 20.48 3.61309C15.7954 -1.20436 8.1993 -1.20436 3.51464 3.61309C-1.17155 8.42897 -1.17155 16.2378 3.51464 21.0537C4.80622 22.383 6.32022 23.3449 7.93392 23.9394L4.15736 28.052C3.93954 28.2475 3.72786 28.4494 3.52078 28.6623C2.83664 29.3656 2.25067 30.1335 1.76902 30.9456L5.20504 32.5383L8.0367 33.8487L8.4662 34.049C8.51375 33.9954 8.56131 33.9433 8.61039 33.8929C10.4833 31.9675 13.5221 31.9675 15.3965 33.8929C16.4611 34.9873 16.9197 36.4695 16.774 37.8966L23.4727 41C24.7321 36.777 23.735 31.9974 20.4862 28.6591L20.4846 28.6623ZM8.60272 15.8215C6.72978 13.8961 6.72978 10.7723 8.60272 8.84527C10.4757 6.91671 13.5144 6.91671 15.3889 8.84527C17.2649 10.7707 17.2649 13.8945 15.3889 15.8215L11.9973 19.5146V17.266C10.7686 17.266 9.53996 16.785 8.60425 15.8215H8.60272Z" fill="#C87A3C"/>
</svg>
