<svg width="1156" height="800" viewBox="0 0 1156 800" fill="none" xmlns="http://www.w3.org/2000/svg">
<path d="M196.939 458.061C197.525 458.646 198.475 458.646 199.061 458.061L208.607 448.515C209.192 447.929 209.192 446.979 208.607 446.393C208.021 445.808 207.071 445.808 206.485 446.393L198 454.879L189.515 446.393C188.929 445.808 187.979 445.808 187.393 446.393C186.808 446.979 186.808 447.929 187.393 448.515L196.939 458.061ZM199.5 457V450.78H196.5V457H199.5ZM199.5 438.34V425.9H196.5V438.34H199.5ZM199.5 413.46V407.24H196.5V413.46H199.5ZM199.5 407.24C199.5 405.859 200.619 404.74 202 404.74V401.74C198.962 401.74 196.5 404.202 196.5 407.24H199.5ZM202 404.74H207.822V401.74H202V404.74ZM219.466 404.74H231.11V401.74H219.466V404.74ZM242.754 404.74H254.397V401.74H242.754V404.74ZM266.041 404.74H277.685V401.74H266.041V404.74ZM289.329 404.74H300.973V401.74H289.329V404.74ZM312.617 404.74H324.261V401.74H312.617V404.74ZM335.905 404.74H347.549V401.74H335.905V404.74ZM359.192 404.74H370.836V401.74H359.192V404.74ZM382.48 404.74H394.124V401.74H382.48V404.74ZM405.768 404.74H417.412V401.74H405.768V404.74ZM429.056 404.74H440.7V401.74H429.056V404.74ZM452.344 404.74H463.987V401.74H452.344V404.74ZM475.631 404.74H487.275V401.74H475.631V404.74ZM498.919 404.74H510.563V401.74H498.919V404.74ZM522.207 404.74H533.851V401.74H522.207V404.74ZM545.495 404.74H557.139V401.74H545.495V404.74ZM568.782 404.74H574.604V401.74H568.782V404.74ZM574.604 404.74C577.642 404.74 580.104 402.278 580.104 399.24H577.104C577.104 400.621 575.985 401.74 574.604 401.74V404.74ZM580.104 399.24V393.356H577.104V399.24H580.104ZM580.104 381.588V369.82H577.104V381.588H580.104ZM580.104 358.052V352.168H577.104V358.052H580.104Z" fill="#C1773A"/>
<ellipse cx="578.603" cy="348.584" rx="8.39568" ry="3.584" stroke="#C1773A" stroke-width="3"/>
<path d="M967.938 457.463C968.524 458.049 969.474 458.049 970.06 457.463L979.606 447.917C980.191 447.332 980.191 446.382 979.606 445.796C979.02 445.21 978.07 445.21 977.484 445.796L968.999 454.281L960.514 445.796C959.928 445.21 958.978 445.21 958.392 445.796C957.807 446.382 957.807 447.332 958.392 447.917L967.938 457.463ZM576.438 352.168V358.015H579.438V352.168H576.438ZM576.438 369.708V381.401H579.438V369.708H576.438ZM576.438 393.095V398.941H579.438V393.095H576.438ZM576.438 398.941C576.438 401.979 578.9 404.441 581.938 404.441V401.441C580.557 401.441 579.438 400.322 579.438 398.941H576.438ZM581.938 404.441H587.923V401.441H581.938V404.441ZM599.894 404.441H611.864V401.441H599.894V404.441ZM623.835 404.441H635.806V401.441H623.835V404.441ZM647.776 404.441H659.747V401.441H647.776V404.441ZM671.718 404.441H683.688V401.441H671.718V404.441ZM695.659 404.441H707.63V401.441H695.659V404.441ZM719.6 404.441H731.571V401.441H719.6V404.441ZM743.542 404.441H755.512V401.441H743.542V404.441ZM767.483 404.441H779.454V401.441H767.483V404.441ZM791.424 404.441H803.395V401.441H791.424V404.441ZM815.366 404.441H827.336V401.441H815.366V404.441ZM839.307 404.441H851.278V401.441H839.307V404.441ZM863.248 404.441H875.219V401.441H863.248V404.441ZM887.19 404.441H899.16V401.441H887.19V404.441ZM911.131 404.441H923.102V401.441H911.131V404.441ZM935.072 404.441H947.043V401.441H935.072V404.441ZM959.014 404.441H964.999V401.441H959.014V404.441ZM964.999 404.441C966.38 404.441 967.499 405.561 967.499 406.941H970.499C970.499 403.904 968.036 401.441 964.999 401.441V404.441ZM967.499 406.941V413.124H970.499V406.941H967.499ZM967.499 425.489V437.855H970.499V425.489H967.499ZM967.499 450.22V456.403H970.499V450.22H967.499Z" fill="#C1773A"/>
<ellipse cx="577.939" cy="348.584" rx="8.93855" ry="3.584" stroke="#C1773A" stroke-width="3"/>
<path d="M443.939 458.061C444.525 458.646 445.475 458.646 446.061 458.061L455.607 448.515C456.192 447.929 456.192 446.979 455.607 446.393C455.021 445.808 454.071 445.808 453.485 446.393L445 454.879L436.515 446.393C435.929 445.808 434.979 445.808 434.393 446.393C433.808 446.979 433.808 447.929 434.393 448.515L443.939 458.061ZM446.5 457V450.78H443.5V457H446.5ZM446.5 438.34V425.9H443.5V438.34H446.5ZM446.5 413.46V407.24H443.5V413.46H446.5ZM446.5 407.24C446.5 405.859 447.619 404.74 449 404.74V401.74C445.962 401.74 443.5 404.202 443.5 407.24H446.5ZM449 404.74H455.253V401.74H449V404.74ZM467.76 404.74H480.266V401.74H467.76V404.74ZM492.773 404.74H505.279V401.74H492.773V404.74ZM517.786 404.74H530.292V401.74H517.786V404.74ZM542.799 404.74H555.305V401.74H542.799V404.74ZM567.812 404.74H574.065V401.74H567.812V404.74ZM574.065 404.74C577.102 404.74 579.565 402.278 579.565 399.24H576.565C576.565 400.621 575.445 401.74 574.065 401.74V404.74ZM579.565 399.24V393.356H576.565V399.24H579.565ZM579.565 381.588V369.82H576.565V381.588H579.565ZM579.565 358.052V352.168H576.565V358.052H579.565Z" fill="#C1773A"/>
<ellipse cx="578.064" cy="348.584" rx="2.93525" ry="3.584" stroke="#C1773A" stroke-width="3"/>
<path d="M723.939 457.463C724.525 458.049 725.474 458.049 726.06 457.463L735.606 447.917C736.192 447.332 736.192 446.382 735.606 445.796C735.02 445.21 734.071 445.21 733.485 445.796L725 454.281L716.514 445.796C715.929 445.21 714.979 445.21 714.393 445.796C713.807 446.382 713.807 447.332 714.393 447.917L723.939 457.463ZM576.852 352.168V358.015H579.852V352.168H576.852ZM576.852 369.708V381.401H579.852V369.708H576.852ZM576.852 393.095V398.941H579.852V393.095H576.852ZM576.852 398.941C576.852 401.979 579.314 404.441 582.352 404.441V401.441C580.971 401.441 579.852 400.322 579.852 398.941H576.852ZM582.352 404.441H588.129V401.441H582.352V404.441ZM599.683 404.441H611.237V401.441H599.683V404.441ZM622.791 404.441H634.345V401.441H622.791V404.441ZM645.899 404.441H657.453V401.441H645.899V404.441ZM669.007 404.441H680.561V401.441H669.007V404.441ZM692.115 404.441H703.669V401.441H692.115V404.441ZM715.223 404.441H721V401.441H715.223V404.441ZM721 404.441C722.38 404.441 723.5 405.561 723.5 406.941H726.5C726.5 403.904 724.037 401.441 721 401.441V404.441ZM723.5 406.941V413.124H726.5V406.941H723.5ZM723.5 425.489V437.855H726.5V425.489H723.5ZM723.5 450.22V456.403H726.5V450.22H723.5Z" fill="#C1773A"/>
<ellipse cx="578.352" cy="348.584" rx="3.35196" ry="3.584" stroke="#C1773A" stroke-width="3"/>
<path d="M576.939 614.061C577.525 614.646 578.475 614.646 579.061 614.061L588.607 604.515C589.192 603.929 589.192 602.979 588.607 602.393C588.021 601.808 587.071 601.808 586.485 602.393L578 610.879L569.515 602.393C568.929 601.808 567.979 601.808 567.393 602.393C566.808 602.979 566.808 603.929 567.393 604.515L576.939 614.061ZM198.5 512V517.53H201.5V512H198.5ZM198.5 528.59V539.649H201.5V528.59H198.5ZM198.5 550.709V556.239H201.5V550.709H198.5ZM198.5 556.239C198.5 559.276 200.962 561.739 204 561.739V558.739C202.619 558.739 201.5 557.62 201.5 556.239H198.5ZM204 561.739H210.167V558.739H204V561.739ZM222.5 561.739H234.833V558.739H222.5V561.739ZM247.167 561.739H259.5V558.739H247.167V561.739ZM271.833 561.739H284.167V558.739H271.833V561.739ZM296.5 561.739H308.833V558.739H296.5V561.739ZM321.167 561.739H333.5V558.739H321.167V561.739ZM345.833 561.739H358.167V558.739H345.833V561.739ZM370.5 561.739H382.833V558.739H370.5V561.739ZM395.167 561.739H407.5V558.739H395.167V561.739ZM419.833 561.739H432.167V558.739H419.833V561.739ZM444.5 561.739H456.833V558.739H444.5V561.739ZM469.167 561.739H481.5V558.739H469.167V561.739ZM493.833 561.739H506.167V558.739H493.833V561.739ZM518.5 561.739H530.833V558.739H518.5V561.739ZM543.167 561.739H555.5V558.739H543.167V561.739ZM567.833 561.739H574V558.739H567.833V561.739ZM574 561.739C575.381 561.739 576.5 562.858 576.5 564.239H579.5C579.5 561.201 577.038 558.739 574 558.739V561.739ZM576.5 564.239V570.334H579.5V564.239H576.5ZM576.5 582.524V594.715H579.5V582.524H576.5ZM576.5 606.905V613H579.5V606.905H576.5Z" fill="#C1773A"/>
<circle cx="200" cy="506" r="6" stroke="#C1773A" stroke-width="3"/>
<path d="M576.939 614.061C577.525 614.646 578.475 614.646 579.061 614.061L588.607 604.515C589.192 603.929 589.192 602.979 588.607 602.393C588.021 601.808 587.071 601.808 586.485 602.393L578 610.879L569.515 602.393C568.929 601.808 567.979 601.808 567.393 602.393C566.808 602.979 566.808 603.929 567.393 604.515L576.939 614.061ZM442.5 512V517.53H445.5V512H442.5ZM442.5 528.59V539.649H445.5V528.59H442.5ZM442.5 550.709V556.239H445.5V550.709H442.5ZM442.5 556.239C442.5 559.276 444.962 561.739 448 561.739V558.739C446.619 558.739 445.5 557.62 445.5 556.239H442.5ZM448 561.739H454.3V558.739H448V561.739ZM466.9 561.739H479.5V558.739H466.9V561.739ZM492.1 561.739H504.7V558.739H492.1V561.739ZM517.3 561.739H529.9V558.739H517.3V561.739ZM542.5 561.739H555.1V558.739H542.5V561.739ZM567.7 561.739H574V558.739H567.7V561.739ZM574 561.739C575.381 561.739 576.5 562.858 576.5 564.239H579.5C579.5 561.201 577.038 558.739 574 558.739V561.739ZM576.5 564.239V570.334H579.5V564.239H576.5ZM576.5 582.524V594.715H579.5V582.524H576.5ZM576.5 606.905V613H579.5V606.905H576.5Z" fill="#C1773A"/>
<circle cx="444" cy="506" r="6" stroke="#C1773A" stroke-width="3"/>
<path d="M576.939 614.061C577.525 614.646 578.475 614.646 579.061 614.061L588.607 604.515C589.192 603.929 589.192 602.979 588.607 602.393C588.021 601.808 587.071 601.808 586.485 602.393L578 610.879L569.515 602.393C568.929 601.808 567.979 601.808 567.393 602.393C566.808 602.979 566.808 603.929 567.393 604.515L576.939 614.061ZM579.5 613V606.905H576.5V613H579.5ZM579.5 594.715V582.524H576.5V594.715H579.5ZM579.5 570.334V564.239H576.5V570.334H579.5ZM579.5 564.239C579.5 562.858 580.619 561.739 582 561.739V558.739C578.962 558.739 576.5 561.201 576.5 564.239H579.5ZM582 561.739H587.958V558.739H582V561.739ZM599.875 561.739H611.792V558.739H599.875V561.739ZM623.708 561.739H635.625V558.739H623.708V561.739ZM647.542 561.739H659.458V558.739H647.542V561.739ZM671.375 561.739H683.292V558.739H671.375V561.739ZM695.208 561.739H707.125V558.739H695.208V561.739ZM719.042 561.739H725V558.739H719.042V561.739ZM725 561.739C728.038 561.739 730.5 559.276 730.5 556.239H727.5C727.5 557.62 726.381 558.739 725 558.739V561.739ZM730.5 556.239V550.709H727.5V556.239H730.5ZM730.5 539.649V528.59H727.5V539.649H730.5ZM730.5 517.53V512H727.5V517.53H730.5Z" fill="#C1773A"/>
<circle cx="729" cy="506" r="6" stroke="#C1773A" stroke-width="3"/>
<path d="M576.939 613.561C577.525 614.146 578.475 614.146 579.061 613.561L588.607 604.015C589.192 603.429 589.192 602.479 588.607 601.893C588.021 601.308 587.071 601.308 586.485 601.893L578 610.379L569.515 601.893C568.929 601.308 567.979 601.308 567.393 601.893C566.808 602.479 566.808 603.429 567.393 604.015L576.939 613.561ZM579.5 612.5V606.438H576.5V612.5H579.5ZM579.5 594.312V582.188H576.5V594.312H579.5ZM579.5 570.062V564H576.5V570.062H579.5ZM579.5 564C579.5 562.619 580.619 561.5 582 561.5V558.5C578.962 558.5 576.5 560.962 576.5 564H579.5ZM582 561.5H588.029V558.5H582V561.5ZM600.088 561.5H612.147V558.5H600.088V561.5ZM624.205 561.5H636.264V558.5H624.205V561.5ZM648.323 561.5H660.381V558.5H648.323V561.5ZM672.44 561.5H684.499V558.5H672.44V561.5ZM696.557 561.5H708.616V558.5H696.557V561.5ZM720.675 561.5H732.733V558.5H720.675V561.5ZM744.792 561.5H756.851V558.5H744.792V561.5ZM768.909 561.5H780.968V558.5H768.909V561.5ZM793.027 561.5H805.085V558.5H793.027V561.5ZM817.144 561.5H829.203V558.5H817.144V561.5ZM841.261 561.5H853.32V558.5H841.261V561.5ZM865.379 561.5H877.438V558.5H865.379V561.5ZM889.496 561.5H901.555V558.5H889.496V561.5ZM913.614 561.5H925.672V558.5H913.614V561.5ZM937.731 561.5H949.79V558.5H937.731V561.5ZM961.848 561.5H967.878V558.5H961.848V561.5ZM967.878 561.5C970.915 561.5 973.378 559.038 973.378 556H970.378C970.378 557.381 969.258 558.5 967.878 558.5V561.5ZM973.378 556V550.5H970.378V556H973.378ZM973.378 539.5V528.5H970.378V539.5H973.378ZM973.378 517.5V512H970.378V517.5H973.378Z" fill="#C1773A"/>
<ellipse cx="971.876" cy="506" rx="6.12245" ry="6" stroke="#C1773A" stroke-width="3"/>
<path d="M576.939 251.561C577.525 252.146 578.475 252.146 579.061 251.561L588.607 242.015C589.192 241.429 589.192 240.479 588.607 239.893C588.021 239.308 587.071 239.308 586.485 239.893L578 248.379L569.515 239.893C568.929 239.308 567.979 239.308 567.393 239.893C566.808 240.479 566.808 241.429 567.393 242.015L576.939 251.561ZM383.5 150V155.5H386.5V150H383.5ZM383.5 166.5V177.5H386.5V166.5H383.5ZM383.5 188.5V194H386.5V188.5H383.5ZM383.5 194C383.5 197.038 385.962 199.5 389 199.5V196.5C387.619 196.5 386.5 195.381 386.5 194H383.5ZM389 199.5H394.781V196.5H389V199.5ZM406.344 199.5H417.906V196.5H406.344V199.5ZM429.469 199.5H441.031V196.5H429.469V199.5ZM452.594 199.5H464.156V196.5H452.594V199.5ZM475.719 199.5H487.281V196.5H475.719V199.5ZM498.844 199.5H510.406V196.5H498.844V199.5ZM521.969 199.5H533.531V196.5H521.969V199.5ZM545.094 199.5H556.656V196.5H545.094V199.5ZM568.219 199.5H574V196.5H568.219V199.5ZM574 199.5C575.381 199.5 576.5 200.619 576.5 202H579.5C579.5 198.962 577.038 196.5 574 196.5V199.5ZM576.5 202V208.062H579.5V202H576.5ZM576.5 220.188V232.312H579.5V220.188H576.5ZM576.5 244.438V250.5H579.5V244.438H576.5Z" fill="#C1773A"/>
<circle cx="385" cy="144" r="6" stroke="#C1773A" stroke-width="3"/>
<g filter="url(#filter0_d_1_27451)">
<rect x="419" y="618" width="318" height="112" rx="20" fill="white"/>
<g clip-path="url(#clip0_1_27451)">
<path d="M503.406 638.844H446.594C442.866 638.844 439.844 641.866 439.844 645.594V702.406C439.844 706.134 442.866 709.156 446.594 709.156H503.406C507.134 709.156 510.156 706.134 510.156 702.406V645.594C510.156 641.866 507.134 638.844 503.406 638.844Z" fill="#E0F1FF"/>
<path d="M462.625 638.844H464.312V709.156H462.625V638.844Z" fill="#E0E0E0"/>
<path d="M486.25 638.844H487.938V709.156H486.25V638.844Z" fill="#E0E0E0"/>
<path d="M462.625 638.844H464.312V709.156H462.625V638.844Z" fill="#A8D6FF"/>
<path d="M486.25 638.844H487.938V709.156H486.25V638.844Z" fill="#A8D6FF"/>
<path d="M510.156 645.594V655.719H439.844V645.594C439.844 643.804 440.555 642.087 441.821 640.821C443.087 639.555 444.804 638.844 446.594 638.844H503.406C505.196 638.844 506.913 639.555 508.179 640.821C509.445 642.087 510.156 643.804 510.156 645.594Z" fill="#99CFFF"/>
<path d="M453.906 642.781H448.844C447.912 642.781 447.156 643.537 447.156 644.469V649.531C447.156 650.463 447.912 651.219 448.844 651.219H453.906C454.838 651.219 455.594 650.463 455.594 649.531V644.469C455.594 643.537 454.838 642.781 453.906 642.781Z" fill="#33A3FF"/>
<path d="M498.625 651.219C500.955 651.219 502.844 649.33 502.844 647C502.844 644.67 500.955 642.781 498.625 642.781C496.295 642.781 494.406 644.67 494.406 647C494.406 649.33 496.295 651.219 498.625 651.219Z" fill="#33A3FF"/>
<path d="M478.798 651.22H471.163C471.042 651.22 470.923 651.188 470.817 651.128C470.712 651.067 470.625 650.98 470.563 650.876C470.502 650.771 470.47 650.652 470.469 650.53C470.468 650.409 470.499 650.29 470.559 650.184L474.376 643.425C474.437 643.318 474.525 643.229 474.631 643.167C474.737 643.105 474.858 643.072 474.981 643.072C475.104 643.072 475.224 643.105 475.331 643.167C475.437 643.229 475.525 643.318 475.585 643.425L479.403 650.184C479.462 650.29 479.493 650.409 479.492 650.53C479.492 650.652 479.459 650.771 479.398 650.876C479.337 650.98 479.249 651.067 479.144 651.128C479.039 651.188 478.919 651.22 478.798 651.22Z" fill="#33A3FF"/>
<path d="M458.969 665.562V671.538C458.969 671.765 458.923 671.99 458.834 672.199C458.745 672.408 458.615 672.597 458.451 672.754L453.552 677.466C453.238 677.769 452.819 677.938 452.382 677.938H446.031C445.584 677.938 445.154 677.76 444.838 677.443C444.522 677.127 444.344 676.698 444.344 676.25V665.562C444.344 665.115 444.522 664.686 444.838 664.369C445.154 664.053 445.584 663.875 446.031 663.875H457.281C457.729 663.875 458.158 664.053 458.474 664.369C458.791 664.686 458.969 665.115 458.969 665.562Z" fill="#FFC107"/>
<path d="M454.75 672.256C454.302 672.256 453.873 672.434 453.557 672.75C453.24 673.067 453.062 673.496 453.062 673.943V677.789C453.244 677.711 453.409 677.602 453.552 677.466L455.144 675.936L458.452 672.754C458.598 672.61 458.715 672.442 458.8 672.256H454.75Z" fill="#FFAD1D"/>
<path d="M451.656 669.5C452.511 669.5 453.203 668.807 453.203 667.953C453.203 667.099 452.511 666.406 451.656 666.406C450.802 666.406 450.109 667.099 450.109 667.953C450.109 668.807 450.802 669.5 451.656 669.5Z" fill="white"/>
<path d="M482.312 665.562V671.538C482.313 671.765 482.267 671.99 482.178 672.199C482.089 672.408 481.959 672.597 481.795 672.754L476.896 677.466C476.582 677.769 476.162 677.938 475.726 677.938H469.375C468.927 677.938 468.498 677.76 468.182 677.443C467.865 677.127 467.688 676.698 467.688 676.25V665.562C467.688 665.115 467.865 664.686 468.182 664.369C468.498 664.053 468.927 663.875 469.375 663.875H480.625C481.073 663.875 481.502 664.053 481.818 664.369C482.135 664.686 482.312 665.115 482.312 665.562Z" fill="#E91E63"/>
<path d="M478.094 672.256C477.646 672.256 477.217 672.434 476.901 672.75C476.584 673.067 476.406 673.496 476.406 673.943V677.789C476.587 677.711 476.753 677.602 476.896 677.466L478.487 675.936L481.796 672.754C481.941 672.61 482.059 672.442 482.144 672.256H478.094Z" fill="#C2185B"/>
<path d="M475 669.5C475.854 669.5 476.547 668.807 476.547 667.953C476.547 667.099 475.854 666.406 475 666.406C474.146 666.406 473.453 667.099 473.453 667.953C473.453 668.807 474.146 669.5 475 669.5Z" fill="white"/>
<path d="M482.312 689.469V695.444C482.313 695.671 482.267 695.896 482.178 696.105C482.089 696.314 481.959 696.503 481.795 696.66L476.896 701.372C476.582 701.675 476.162 701.844 475.726 701.844H469.375C468.927 701.844 468.498 701.666 468.182 701.349C467.865 701.033 467.688 700.604 467.688 700.156V689.469C467.688 689.021 467.865 688.592 468.182 688.276C468.498 687.959 468.927 687.781 469.375 687.781H480.625C481.073 687.781 481.502 687.959 481.818 688.276C482.135 688.592 482.312 689.021 482.312 689.469Z" fill="#E91E63"/>
<path d="M478.094 696.162C477.646 696.162 477.217 696.34 476.901 696.656C476.584 696.973 476.406 697.402 476.406 697.85V701.695C476.587 701.617 476.753 701.508 476.896 701.372L478.486 699.843L481.795 696.66C481.941 696.517 482.06 696.348 482.146 696.162H478.094Z" fill="#C2185B"/>
<path d="M475 693.406C475.854 693.406 476.547 692.714 476.547 691.859C476.547 691.005 475.854 690.312 475 690.312C474.146 690.312 473.453 691.005 473.453 691.859C473.453 692.714 474.146 693.406 475 693.406Z" fill="white"/>
<path d="M505.938 689.469V695.444C505.938 695.671 505.892 695.896 505.803 696.105C505.714 696.314 505.584 696.503 505.42 696.66L500.521 701.372C500.207 701.675 499.787 701.844 499.351 701.844H493C492.552 701.844 492.123 701.666 491.807 701.349C491.49 701.033 491.312 700.604 491.312 700.156V689.469C491.312 689.021 491.49 688.592 491.807 688.276C492.123 687.959 492.552 687.781 493 687.781H504.25C504.698 687.781 505.127 687.959 505.443 688.276C505.76 688.592 505.938 689.021 505.938 689.469Z" fill="#00BCD4"/>
<path d="M501.719 696.162C501.271 696.162 500.842 696.34 500.526 696.656C500.209 696.973 500.031 697.402 500.031 697.85V701.695C500.212 701.617 500.378 701.508 500.521 701.372L502.111 699.843L505.42 696.66C505.566 696.517 505.685 696.348 505.771 696.162H501.719Z" fill="#0097A7"/>
<path d="M498.625 693.406C499.479 693.406 500.172 692.714 500.172 691.859C500.172 691.005 499.479 690.312 498.625 690.312C497.771 690.312 497.078 691.005 497.078 691.859C497.078 692.714 497.771 693.406 498.625 693.406Z" fill="white"/>
<path d="M462.625 638.844H464.312V655.719H462.625V638.844Z" fill="#37474F"/>
<path d="M486.25 638.844H487.938V655.719H486.25V638.844Z" fill="#37474F"/>
<path d="M462.625 638.844H464.312V655.719H462.625V638.844Z" fill="#66B7FF"/>
<path d="M486.25 638.844H487.938V655.719H486.25V638.844Z" fill="#66B7FF"/>
</g>
<rect x="546" y="638" width="70" height="72" rx="6" fill="#E0F1FF"/>
<rect x="581.801" y="649.199" width="20" height="4" rx="2" fill="#8BCAFF"/>
<rect x="581.801" y="657.199" width="20" height="4" rx="2" fill="#8BCAFF"/>
<path d="M566.661 654.865V648.996C562.525 648.996 559.191 652.427 559.349 656.598C559.493 660.391 562.583 663.481 566.376 663.625C570.547 663.783 573.978 660.449 573.978 656.313H568.11C567.309 656.313 566.661 655.665 566.661 654.865Z" fill="#E49542"/>
<path d="M566.66 648.996V654.865C566.66 655.665 567.309 656.313 568.109 656.313H573.977C573.977 652.272 570.701 648.996 566.66 648.996Z" fill="#C8EA73"/>
<path d="M559.93 698.303V701.247C559.93 701.727 560.319 702.117 560.799 702.117H566.085C566.565 702.117 566.954 701.727 566.954 701.247V698.303C566.954 697.823 566.565 697.434 566.085 697.434H560.799C560.319 697.434 559.93 697.823 559.93 698.303Z" fill="#4073C8"/>
<path d="M571.637 691.279V701.248C571.637 701.728 572.026 702.117 572.506 702.117H577.792C578.272 702.117 578.661 701.728 578.661 701.248V691.279C578.661 690.799 578.272 690.41 577.792 690.41H572.506C572.026 690.41 571.637 690.799 571.637 691.279Z" fill="#E49542"/>
<path d="M572.505 702.117H577.791C578.272 702.117 578.661 701.728 578.661 701.248V698.719C576.398 699.87 574.131 700.911 571.871 701.841C572.03 702.01 572.255 702.117 572.505 702.117Z" fill="#E28424"/>
<path d="M583.344 682.498V701.248C583.344 701.728 583.733 702.117 584.213 702.117H589.499C589.979 702.117 590.368 701.728 590.368 701.248V682.498C590.368 682.018 589.979 681.629 589.499 681.629H584.213C583.733 681.629 583.344 682.018 583.344 682.498Z" fill="#DD5790"/>
<path d="M590.368 691.699C589.73 692.143 589.087 692.584 588.432 693.017C586.748 694.132 585.05 695.183 583.344 696.172V701.248C583.344 701.728 583.733 702.117 584.213 702.117H589.499C589.979 702.117 590.368 701.728 590.368 701.248V691.699Z" fill="#DA387D"/>
<path d="M595.051 676.645V701.248C595.051 701.728 595.44 702.117 595.92 702.117H601.206C601.686 702.117 602.075 701.728 602.075 701.248V676.645C602.075 676.164 601.686 675.775 601.206 675.775H595.92C595.44 675.775 595.051 676.164 595.051 676.645Z" fill="#C8EA73"/>
<path d="M602.075 682.143C599.888 684.239 597.544 686.279 595.051 688.239V701.247C595.051 701.727 595.44 702.116 595.92 702.116H601.206C601.686 702.116 602.075 701.727 602.075 701.247V682.143Z" fill="#B7E445"/>
<rect x="561" y="670" width="20" height="4" rx="2" fill="#8BCAFF"/>
<rect x="561" y="678" width="10.4" height="4" rx="2" fill="#8BCAFF"/>
<path fill-rule="evenodd" clip-rule="evenodd" d="M662.402 638C659.751 638 657.602 640.149 657.602 642.8V705.2C657.602 707.851 659.751 710 662.402 710H705.602C708.253 710 710.402 707.851 710.402 705.2V654.8L693.602 638H662.402Z" fill="#D9EDFF"/>
<rect x="668.402" y="662" width="31.2" height="3.6" rx="1.8" fill="#8BCAFF"/>
<rect x="668.402" y="672.8" width="31.2" height="3.6" rx="1.8" fill="#8BCAFF"/>
<rect x="668.402" y="683.6" width="31.2" height="3.6" rx="1.8" fill="#8BCAFF"/>
<rect x="668.402" y="694.4" width="31.2" height="3.6" rx="1.8" fill="#8BCAFF"/>
<path d="M693.602 638L710.402 654.8H699.602C696.288 654.8 693.602 652.114 693.602 648.8V638Z" fill="#B4DBFF"/>
</g>
<rect x="345" y="72" width="80" height="80" rx="20" fill="white"/>
<g clip-path="url(#clip1_1_27451)">
<path d="M364.615 127.268L366.726 130.929C367.164 131.699 367.795 132.305 368.537 132.746L376.107 127.379L376.12 119.674L368.566 116.271L361 119.647C360.999 120.499 361.217 121.352 361.655 122.122L364.615 127.268Z" fill="#0066DD"/>
<path d="M385.027 104.295L385.422 94.2575L377.491 91.1953C376.748 91.6339 376.114 92.2375 375.673 93.0065L361.664 117.174C361.223 117.943 361.002 118.795 361 119.647L376.12 119.674L385.027 104.295Z" fill="#00AD3C"/>
<path d="M385.029 104.295L392.295 100.386L392.612 91.2225C391.871 90.7813 391.019 90.5598 390.139 90.5582L379.968 90.54C379.088 90.5385 378.235 90.7844 377.492 91.1955L385.029 104.295Z" fill="#00831E"/>
<path d="M393.878 119.706L376.119 119.674L368.535 132.746C369.277 133.187 370.129 133.409 371.008 133.41L398.939 133.46C399.819 133.462 400.672 133.216 401.415 132.805L401.444 124.024L393.878 119.706Z" fill="#0084FF"/>
<path d="M401.415 132.806C402.159 132.367 402.792 131.763 403.233 130.994L404.116 129.484L408.335 122.206C408.776 121.437 408.997 120.586 408.999 119.733L400.26 115.135L393.906 119.706L401.415 132.806Z" fill="#FF4131"/>
<path d="M401.383 105.149L394.422 93.0404C393.984 92.2697 393.352 91.6638 392.611 91.2227L385.027 104.295L393.88 119.706L408.972 119.733C408.974 118.881 408.755 118.028 408.317 117.258L401.383 105.149Z" fill="#FFBA00"/>
</g>
<path d="M576.939 251.561C577.525 252.146 578.475 252.146 579.061 251.561L588.607 242.015C589.192 241.429 589.192 240.479 588.607 239.893C588.021 239.308 587.071 239.308 586.485 239.893L578 248.379L569.515 239.893C568.929 239.308 567.979 239.308 567.393 239.893C566.808 240.479 566.808 241.429 567.393 242.015L576.939 251.561ZM579.5 250.5V244.438H576.5V250.5H579.5ZM579.5 232.312V220.188H576.5V232.312H579.5ZM579.5 208.062V202H576.5V208.062H579.5ZM579.5 202C579.5 200.619 580.619 199.5 582 199.5V196.5C578.962 196.5 576.5 198.962 576.5 202H579.5ZM582 199.5H587.781V196.5H582V199.5ZM599.344 199.5H610.906V196.5H599.344V199.5ZM622.469 199.5H634.031V196.5H622.469V199.5ZM645.594 199.5H657.156V196.5H645.594V199.5ZM668.719 199.5H680.281V196.5H668.719V199.5ZM691.844 199.5H703.406V196.5H691.844V199.5ZM714.969 199.5H726.531V196.5H714.969V199.5ZM738.094 199.5H749.656V196.5H738.094V199.5ZM761.219 199.5H767V196.5H761.219V199.5ZM767 199.5C770.038 199.5 772.5 197.038 772.5 194H769.5C769.5 195.381 768.381 196.5 767 196.5V199.5ZM772.5 194V188.5H769.5V194H772.5ZM772.5 177.5V166.5H769.5V177.5H772.5ZM772.5 155.5V150H769.5V155.5H772.5Z" fill="#C1773A"/>
<circle cx="771" cy="144" r="6" stroke="#C1773A" stroke-width="3"/>
<circle cx="578" cy="144" r="6" stroke="#C1773A" stroke-width="3"/>
<path d="M576.939 251.561C577.525 252.146 578.475 252.146 579.061 251.561L588.607 242.015C589.192 241.429 589.192 240.479 588.607 239.893C588.021 239.308 587.071 239.308 586.485 239.893L578 248.379L569.515 239.893C568.929 239.308 567.979 239.308 567.393 239.893C566.808 240.479 566.808 241.429 567.393 242.015L576.939 251.561ZM576.5 150V156.281H579.5V150H576.5ZM576.5 168.844V181.406H579.5V168.844H576.5ZM576.5 193.969V206.531H579.5V193.969H576.5ZM576.5 219.094V231.656H579.5V219.094H576.5ZM576.5 244.219V250.5H579.5V244.219H576.5Z" fill="#C1773A"/>
<path d="M576.939 251.561C577.525 252.146 578.475 252.146 579.061 251.561L588.607 242.015C589.192 241.429 589.192 240.479 588.607 239.893C588.021 239.308 587.071 239.308 586.485 239.893L578 248.379L569.515 239.893C568.929 239.308 567.979 239.308 567.393 239.893C566.808 240.479 566.808 241.429 567.393 242.015L576.939 251.561ZM190.5 150V155.5H193.5V150H190.5ZM190.5 166.5V177.5H193.5V166.5H190.5ZM190.5 188.5V194H193.5V188.5H190.5ZM190.5 194C190.5 197.038 192.962 199.5 196 199.5V196.5C194.619 196.5 193.5 195.381 193.5 194H190.5ZM196 199.5H201.906V196.5H196V199.5ZM213.719 199.5H225.531V196.5H213.719V199.5ZM237.344 199.5H249.156V196.5H237.344V199.5ZM260.969 199.5H272.781V196.5H260.969V199.5ZM284.594 199.5H296.406V196.5H284.594V199.5ZM308.219 199.5H320.031V196.5H308.219V199.5ZM331.844 199.5H343.656V196.5H331.844V199.5ZM355.469 199.5H367.281V196.5H355.469V199.5ZM379.094 199.5H390.906V196.5H379.094V199.5ZM402.719 199.5H414.531V196.5H402.719V199.5ZM426.344 199.5H438.156V196.5H426.344V199.5ZM449.969 199.5H461.781V196.5H449.969V199.5ZM473.594 199.5H485.406V196.5H473.594V199.5ZM497.219 199.5H509.031V196.5H497.219V199.5ZM520.844 199.5H532.656V196.5H520.844V199.5ZM544.469 199.5H556.281V196.5H544.469V199.5ZM568.094 199.5H574V196.5H568.094V199.5ZM574 199.5C575.381 199.5 576.5 200.619 576.5 202H579.5C579.5 198.962 577.038 196.5 574 196.5V199.5ZM576.5 202V208.062H579.5V202H576.5ZM576.5 220.188V232.312H579.5V220.188H576.5ZM576.5 244.438V250.5H579.5V244.438H576.5Z" fill="#C1773A"/>
<circle cx="192" cy="144" r="6" stroke="#C1773A" stroke-width="3"/>
<rect x="538" y="72" width="80" height="80" rx="20" fill="white"/>
<g clip-path="url(#clip2_1_27451)">
<path d="M555.602 126.4V132.8C555.602 134.568 557.034 136 558.802 136H597.202C598.969 136 600.402 134.568 600.402 132.8V126.4H555.602Z" fill="#B5DBFF"/>
<path d="M598.18 126.4V132.801C598.18 134.568 596.748 136 594.98 136H597.202C598.969 136 600.402 134.568 600.402 132.801V126.4H598.18Z" fill="#97D0FF"/>
<path d="M555.602 100.8V129.6C555.602 131.367 557.034 132.8 558.801 132.8H597.202C598.969 132.8 600.402 131.367 600.402 129.6V100.8H555.602Z" fill="#EDF5FF"/>
<path d="M598.18 100.8V129.6C598.18 131.367 596.748 132.8 594.98 132.8H597.202C598.969 132.8 600.402 131.367 600.402 129.6V100.8H598.18Z" fill="#D5E8FE"/>
<path d="M600.401 102.4V94.4001C600.401 92.6328 598.969 91.2002 597.201 91.2002H558.801C557.034 91.2002 555.602 92.6329 555.602 94.4001V102.4H600.401Z" fill="#FF435B"/>
<path d="M565.203 95.1245H563.603C563.203 95.1245 562.879 94.8002 562.879 94.4001C562.879 94.0001 563.203 93.6758 563.603 93.6758H565.203C565.603 93.6758 565.928 94.0001 565.928 94.4001C565.928 94.8002 565.603 95.1245 565.203 95.1245Z" fill="#E3374E"/>
<path d="M570 95.1245H568.4C568 95.1245 567.676 94.8002 567.676 94.4001C567.676 94.0001 568 93.6758 568.4 93.6758H570C570.4 93.6758 570.724 94.0001 570.724 94.4001C570.724 94.8002 570.4 95.1245 570 95.1245Z" fill="#E3374E"/>
<path d="M587.602 95.1245H586.002C585.602 95.1245 585.277 94.8002 585.277 94.4001C585.277 94.0001 585.602 93.6758 586.002 93.6758H587.602C588.002 93.6758 588.326 94.0001 588.326 94.4001C588.326 94.8002 588.002 95.1245 587.602 95.1245Z" fill="#E3374E"/>
<path d="M592.403 95.1245H590.802C590.402 95.1245 590.078 94.8002 590.078 94.4001C590.078 94.0001 590.402 93.6758 590.802 93.6758H592.403C592.803 93.6758 593.127 94.0001 593.127 94.4001C593.127 94.8002 592.803 95.1245 592.403 95.1245Z" fill="#E3374E"/>
<path d="M565.203 94.4C565.203 95.2836 565.92 96.0001 566.803 96.0001C567.687 96.0001 568.403 95.2837 568.403 94.4V89.6C568.403 88.7163 567.687 88 566.803 88C565.919 88 565.203 88.7163 565.203 89.6L565.203 94.4Z" fill="#596C76"/>
<path d="M587.602 94.4C587.602 95.2836 588.318 96.0001 589.202 96.0001C590.085 96.0001 590.802 95.2837 590.802 94.4V89.6C590.802 88.7163 590.085 88 589.202 88C588.318 88 587.602 88.7163 587.602 89.6V94.4Z" fill="#596C76"/>
<path d="M597.202 91.2002H594.98C596.748 91.2002 598.18 92.6329 598.18 94.4001V102.4H600.402V94.4002C600.402 92.6329 598.969 91.2002 597.202 91.2002Z" fill="#E3374E"/>
<path d="M555.602 98.4756H600.402V99.9243H555.602V98.4756Z" fill="#E3374E"/>
<path d="M574.476 117.6C575.66 116.504 576.402 114.937 576.402 113.2C576.402 109.892 573.711 107.2 570.402 107.2C567.094 107.2 564.402 109.892 564.402 113.2C564.402 114.084 565.119 114.8 566.002 114.8C566.886 114.8 567.602 114.084 567.602 113.2C567.602 111.656 568.858 110.4 570.402 110.4C571.946 110.4 573.202 111.656 573.202 113.2C573.202 114.744 571.946 116 570.402 116C569.519 116 568.802 116.717 568.802 117.6C568.802 118.484 569.519 119.2 570.402 119.2C571.946 119.2 573.202 120.456 573.202 122C573.202 123.544 571.946 124.8 570.402 124.8C568.859 124.8 567.602 123.544 567.602 122C567.602 121.117 566.886 120.4 566.002 120.4C565.119 120.4 564.402 121.117 564.402 122C564.402 125.309 567.094 128 570.402 128C573.711 128 576.402 125.309 576.402 122C576.402 120.263 575.66 118.697 574.476 117.6Z" fill="#596C76"/>
<path d="M585.602 128C582.293 128 579.602 125.309 579.602 122V113.2C579.602 109.892 582.293 107.2 585.602 107.2C588.91 107.2 591.602 109.892 591.602 113.2V122C591.602 125.309 588.91 128 585.602 128ZM585.602 110.4C584.058 110.4 582.802 111.656 582.802 113.2V122C582.802 123.544 584.058 124.8 585.602 124.8C587.145 124.8 588.402 123.544 588.402 122V113.2C588.401 111.656 587.145 110.4 585.602 110.4Z" fill="#596C76"/>
</g>
<path d="M576.939 251.561C577.525 252.146 578.475 252.146 579.061 251.561L588.607 242.015C589.192 241.429 589.192 240.479 588.607 239.893C588.021 239.308 587.071 239.308 586.485 239.893L578 248.379L569.515 239.893C568.929 239.308 567.979 239.308 567.393 239.893C566.808 240.479 566.808 241.429 567.393 242.015L576.939 251.561ZM579.5 250.5V244.438H576.5V250.5H579.5ZM579.5 232.312V220.188H576.5V232.312H579.5ZM579.5 208.062V202H576.5V208.062H579.5ZM579.5 202C579.5 200.619 580.619 199.5 582 199.5V196.5C578.962 196.5 576.5 198.962 576.5 202H579.5ZM582 199.5H587.906V196.5H582V199.5ZM599.719 199.5H611.531V196.5H599.719V199.5ZM623.344 199.5H635.156V196.5H623.344V199.5ZM646.969 199.5H658.781V196.5H646.969V199.5ZM670.594 199.5H682.406V196.5H670.594V199.5ZM694.219 199.5H706.031V196.5H694.219V199.5ZM717.844 199.5H729.656V196.5H717.844V199.5ZM741.469 199.5H753.281V196.5H741.469V199.5ZM765.094 199.5H776.906V196.5H765.094V199.5ZM788.719 199.5H800.531V196.5H788.719V199.5ZM812.344 199.5H824.156V196.5H812.344V199.5ZM835.969 199.5H847.781V196.5H835.969V199.5ZM859.594 199.5H871.406V196.5H859.594V199.5ZM883.219 199.5H895.031V196.5H883.219V199.5ZM906.844 199.5H918.656V196.5H906.844V199.5ZM930.469 199.5H942.281V196.5H930.469V199.5ZM954.094 199.5H960V196.5H954.094V199.5ZM960 199.5C963.038 199.5 965.5 197.038 965.5 194H962.5C962.5 195.381 961.381 196.5 960 196.5V199.5ZM965.5 194V188.5H962.5V194H965.5ZM965.5 177.5V166.5H962.5V177.5H965.5ZM965.5 155.5V150H962.5V155.5H965.5Z" fill="#C1773A"/>
<circle cx="964" cy="144" r="6" stroke="#C1773A" stroke-width="3"/>
<g filter="url(#filter1_d_1_27451)">
<rect x="130.5" y="458" width="134" height="56" rx="28" fill="white" shape-rendering="crispEdges"/>
<g clip-path="url(#clip3_1_27451)">
<path d="M159.341 486.65C157.949 486.65 156.82 487.779 156.82 489.171V495.477C156.82 496.869 157.949 497.998 159.341 497.998C160.733 497.998 161.862 496.869 161.862 495.477V489.171C161.861 487.779 160.732 486.65 159.341 486.65Z" fill="#E91E63"/>
<path d="M150.516 489.171C150.516 490.564 151.646 491.694 153.039 491.694C154.432 491.694 155.562 490.564 155.562 489.171V486.648H153.041C153.04 486.648 153.04 486.648 153.039 486.648C151.646 486.648 150.516 487.778 150.516 489.171Z" fill="#E91E63"/>
<path d="M159.346 473.998C159.345 473.998 159.344 473.998 159.343 473.998C157.95 473.998 156.82 475.128 156.82 476.521C156.82 477.914 157.95 479.044 159.343 479.044H161.864V476.521C161.864 476.52 161.864 476.518 161.864 476.516C161.863 475.125 160.736 473.998 159.346 473.998Z" fill="#00BCD4"/>
<path d="M153.027 485.37H159.345C160.738 485.37 161.868 484.24 161.868 482.847C161.868 481.454 160.738 480.324 159.345 480.324H153.027C151.634 480.324 150.504 481.454 150.504 482.847C150.504 484.24 151.634 485.37 153.027 485.37Z" fill="#00BCD4"/>
<path d="M171.959 480.324C170.568 480.324 169.441 481.451 169.441 482.842V482.847V485.37H171.962C173.355 485.37 174.485 484.24 174.485 482.847C174.485 481.454 173.355 480.324 171.962 480.324C171.961 480.324 171.96 480.324 171.959 480.324Z" fill="#4CAF50"/>
<path d="M163.141 476.523V482.848C163.141 484.24 164.27 485.369 165.662 485.369C167.054 485.369 168.183 484.24 168.183 482.848V476.523C168.183 475.131 167.054 474.002 165.662 474.002C164.27 474.002 163.141 475.131 163.141 476.523Z" fill="#4CAF50"/>
<path d="M168.187 495.476C168.187 494.084 167.058 492.955 165.666 492.955H163.145V495.478C163.146 496.869 164.274 497.997 165.666 497.997C167.058 497.997 168.187 496.868 168.187 495.476Z" fill="#FF9800"/>
<path d="M171.982 486.648H165.664C164.271 486.648 163.141 487.778 163.141 489.171C163.141 490.564 164.271 491.694 165.664 491.694H171.982C173.375 491.694 174.505 490.564 174.505 489.171C174.505 487.778 173.375 486.648 171.982 486.648Z" fill="#FF9800"/>
</g>
<path d="M192.68 493.16C191.613 493.16 190.593 493 189.62 492.68C188.647 492.347 187.88 491.92 187.32 491.4L188.06 489.84C188.593 490.307 189.273 490.693 190.1 491C190.927 491.307 191.787 491.46 192.68 491.46C193.493 491.46 194.153 491.367 194.66 491.18C195.167 490.993 195.54 490.74 195.78 490.42C196.02 490.087 196.14 489.713 196.14 489.3C196.14 488.82 195.98 488.433 195.66 488.14C195.353 487.847 194.947 487.613 194.44 487.44C193.947 487.253 193.4 487.093 192.8 486.96C192.2 486.827 191.593 486.673 190.98 486.5C190.38 486.313 189.827 486.08 189.32 485.8C188.827 485.52 188.427 485.147 188.12 484.68C187.813 484.2 187.66 483.587 187.66 482.84C187.66 482.12 187.847 481.46 188.22 480.86C188.607 480.247 189.193 479.76 189.98 479.4C190.78 479.027 191.793 478.84 193.02 478.84C193.833 478.84 194.64 478.947 195.44 479.16C196.24 479.373 196.933 479.68 197.52 480.08L196.86 481.68C196.26 481.28 195.627 480.993 194.96 480.82C194.293 480.633 193.647 480.54 193.02 480.54C192.233 480.54 191.587 480.64 191.08 480.84C190.573 481.04 190.2 481.307 189.96 481.64C189.733 481.973 189.62 482.347 189.62 482.76C189.62 483.253 189.773 483.647 190.08 483.94C190.4 484.233 190.807 484.467 191.3 484.64C191.807 484.813 192.36 484.973 192.96 485.12C193.56 485.253 194.16 485.407 194.76 485.58C195.373 485.753 195.927 485.98 196.42 486.26C196.927 486.54 197.333 486.913 197.64 487.38C197.947 487.847 198.1 488.447 198.1 489.18C198.1 489.887 197.907 490.547 197.52 491.16C197.133 491.76 196.533 492.247 195.72 492.62C194.92 492.98 193.907 493.16 192.68 493.16ZM200.742 493V478.16H202.662V493H200.742ZM212.908 493V490.76L212.808 490.34V486.52C212.808 485.707 212.568 485.08 212.088 484.64C211.621 484.187 210.914 483.96 209.968 483.96C209.341 483.96 208.728 484.067 208.128 484.28C207.528 484.48 207.021 484.753 206.608 485.1L205.808 483.66C206.354 483.22 207.008 482.887 207.768 482.66C208.541 482.42 209.348 482.3 210.188 482.3C211.641 482.3 212.761 482.653 213.548 483.36C214.334 484.067 214.728 485.147 214.728 486.6V493H212.908ZM209.428 493.12C208.641 493.12 207.948 492.987 207.348 492.72C206.761 492.453 206.308 492.087 205.988 491.62C205.668 491.14 205.508 490.6 205.508 490C205.508 489.427 205.641 488.907 205.908 488.44C206.188 487.973 206.634 487.6 207.248 487.32C207.874 487.04 208.714 486.9 209.768 486.9H213.128V488.28H209.848C208.888 488.28 208.241 488.44 207.908 488.76C207.574 489.08 207.408 489.467 207.408 489.92C207.408 490.44 207.614 490.86 208.028 491.18C208.441 491.487 209.014 491.64 209.748 491.64C210.468 491.64 211.094 491.48 211.628 491.16C212.174 490.84 212.568 490.373 212.808 489.76L213.188 491.08C212.934 491.707 212.488 492.207 211.848 492.58C211.208 492.94 210.401 493.12 209.428 493.12ZM222.901 493.12C221.821 493.12 220.854 492.887 220.001 492.42C219.161 491.953 218.501 491.313 218.021 490.5C217.541 489.687 217.301 488.753 217.301 487.7C217.301 486.647 217.541 485.713 218.021 484.9C218.501 484.087 219.161 483.453 220.001 483C220.854 482.533 221.821 482.3 222.901 482.3C223.861 482.3 224.714 482.493 225.461 482.88C226.221 483.253 226.808 483.813 227.221 484.56L225.761 485.5C225.414 484.98 224.988 484.6 224.481 484.36C223.988 484.107 223.454 483.98 222.881 483.98C222.188 483.98 221.568 484.133 221.021 484.44C220.474 484.747 220.041 485.18 219.721 485.74C219.401 486.287 219.241 486.94 219.241 487.7C219.241 488.46 219.401 489.12 219.721 489.68C220.041 490.24 220.474 490.673 221.021 490.98C221.568 491.287 222.188 491.44 222.881 491.44C223.454 491.44 223.988 491.32 224.481 491.08C224.988 490.827 225.414 490.44 225.761 489.92L227.221 490.84C226.808 491.573 226.221 492.14 225.461 492.54C224.714 492.927 223.861 493.12 222.901 493.12ZM231.13 490.44L231.17 487.98L237.27 482.4H239.59L234.91 487L233.87 487.88L231.13 490.44ZM229.57 493V478.16H231.49V493H229.57ZM237.67 493L233.51 487.84L234.75 486.3L240.03 493H237.67Z" fill="black"/>
</g>
<ellipse cx="578.212" cy="337.992" rx="6.21229" ry="2.992" stroke="#C1773A" stroke-width="3"/>
<g filter="url(#filter2_d_1_27451)">
<rect x="643" y="458" width="163" height="56" rx="28" fill="white" shape-rendering="crispEdges"/>
<g clip-path="url(#clip4_1_27451)">
<path d="M665.898 478.181C671.477 471.69 681.821 472.971 685.686 480.554C682.964 480.556 678.702 480.553 676.394 480.554C674.72 480.554 673.638 480.517 672.468 481.133C671.093 481.858 670.053 483.2 669.692 484.778L665.898 478.181Z" fill="#F44336"/>
<path d="M671.008 486.001C671.008 488.201 672.797 489.991 674.996 489.991C677.195 489.991 678.985 488.201 678.985 486.001C678.985 483.8 677.195 482.011 674.996 482.011C672.796 482.009 671.008 483.8 671.008 486.001Z" fill="#2196F3"/>
<path d="M676.543 491.224C674.305 491.889 671.685 491.152 670.251 488.674C669.156 486.784 666.261 481.743 664.947 479.449C660.339 486.511 664.309 496.134 672.673 497.776L676.543 491.224Z" fill="#4CAF50"/>
<path d="M678.702 482.009C680.566 483.743 680.973 486.551 679.71 488.728C678.759 490.369 675.721 495.494 674.25 497.975C682.867 498.506 689.149 490.061 686.311 482.008L678.702 482.009Z" fill="#FFC107"/>
</g>
<path d="M707.36 493.16C706.293 493.16 705.307 492.987 704.4 492.64C703.507 492.28 702.727 491.78 702.06 491.14C701.407 490.487 700.893 489.727 700.52 488.86C700.147 487.993 699.96 487.04 699.96 486C699.96 484.96 700.147 484.007 700.52 483.14C700.893 482.273 701.413 481.52 702.08 480.88C702.747 480.227 703.527 479.727 704.42 479.38C705.327 479.02 706.313 478.84 707.38 478.84C708.46 478.84 709.453 479.027 710.36 479.4C711.28 479.76 712.06 480.3 712.7 481.02L711.4 482.28C710.867 481.72 710.267 481.307 709.6 481.04C708.933 480.76 708.22 480.62 707.46 480.62C706.673 480.62 705.94 480.753 705.26 481.02C704.593 481.287 704.013 481.66 703.52 482.14C703.027 482.62 702.64 483.193 702.36 483.86C702.093 484.513 701.96 485.227 701.96 486C701.96 486.773 702.093 487.493 702.36 488.16C702.64 488.813 703.027 489.38 703.52 489.86C704.013 490.34 704.593 490.713 705.26 490.98C705.94 491.247 706.673 491.38 707.46 491.38C708.22 491.38 708.933 491.247 709.6 490.98C710.267 490.7 710.867 490.273 711.4 489.7L712.7 490.96C712.06 491.68 711.28 492.227 710.36 492.6C709.453 492.973 708.453 493.16 707.36 493.16ZM720.933 482.3C721.8 482.3 722.56 482.467 723.213 482.8C723.88 483.133 724.4 483.64 724.773 484.32C725.146 485 725.333 485.86 725.333 486.9V493H723.413V487.12C723.413 486.093 723.16 485.32 722.653 484.8C722.16 484.28 721.46 484.02 720.553 484.02C719.873 484.02 719.28 484.153 718.773 484.42C718.266 484.687 717.873 485.08 717.593 485.6C717.326 486.12 717.193 486.767 717.193 487.54V493H715.273V478.16H717.193V485.26L716.813 484.5C717.16 483.807 717.693 483.267 718.413 482.88C719.133 482.493 719.973 482.3 720.933 482.3ZM728.886 493V482.4H730.726V485.28L730.546 484.56C730.84 483.827 731.333 483.267 732.026 482.88C732.72 482.493 733.573 482.3 734.586 482.3V484.16C734.506 484.147 734.426 484.14 734.346 484.14C734.28 484.14 734.213 484.14 734.146 484.14C733.12 484.14 732.306 484.447 731.706 485.06C731.106 485.673 730.806 486.56 730.806 487.72V493H728.886ZM741.395 493.12C740.328 493.12 739.382 492.887 738.555 492.42C737.728 491.953 737.075 491.313 736.595 490.5C736.115 489.673 735.875 488.74 735.875 487.7C735.875 486.647 736.115 485.713 736.595 484.9C737.075 484.087 737.728 483.453 738.555 483C739.382 482.533 740.328 482.3 741.395 482.3C742.448 482.3 743.388 482.533 744.215 483C745.055 483.453 745.708 484.087 746.175 484.9C746.655 485.7 746.895 486.633 746.895 487.7C746.895 488.753 746.655 489.687 746.175 490.5C745.708 491.313 745.055 491.953 744.215 492.42C743.388 492.887 742.448 493.12 741.395 493.12ZM741.395 491.44C742.075 491.44 742.682 491.287 743.215 490.98C743.762 490.673 744.188 490.24 744.495 489.68C744.802 489.107 744.955 488.447 744.955 487.7C744.955 486.94 744.802 486.287 744.495 485.74C744.188 485.18 743.762 484.747 743.215 484.44C742.682 484.133 742.075 483.98 741.395 483.98C740.715 483.98 740.108 484.133 739.575 484.44C739.042 484.747 738.615 485.18 738.295 485.74C737.975 486.287 737.815 486.94 737.815 487.7C737.815 488.447 737.975 489.107 738.295 489.68C738.615 490.24 739.042 490.673 739.575 490.98C740.108 491.287 740.715 491.44 741.395 491.44ZM762.81 482.3C763.664 482.3 764.417 482.467 765.07 482.8C765.724 483.133 766.23 483.64 766.59 484.32C766.964 485 767.15 485.86 767.15 486.9V493H765.23V487.12C765.23 486.093 764.99 485.32 764.51 484.8C764.03 484.28 763.357 484.02 762.49 484.02C761.85 484.02 761.29 484.153 760.81 484.42C760.33 484.687 759.957 485.08 759.69 485.6C759.437 486.12 759.31 486.767 759.31 487.54V493H757.39V487.12C757.39 486.093 757.15 485.32 756.67 484.8C756.204 484.28 755.53 484.02 754.65 484.02C754.024 484.02 753.47 484.153 752.99 484.42C752.51 484.687 752.137 485.08 751.87 485.6C751.604 486.12 751.47 486.767 751.47 487.54V493H749.55V482.4H751.39V485.22L751.09 484.5C751.424 483.807 751.937 483.267 752.63 482.88C753.324 482.493 754.13 482.3 755.05 482.3C756.064 482.3 756.937 482.553 757.67 483.06C758.404 483.553 758.884 484.307 759.11 485.32L758.33 485C758.65 484.187 759.21 483.533 760.01 483.04C760.81 482.547 761.744 482.3 762.81 482.3ZM775.403 493.12C774.27 493.12 773.27 492.887 772.403 492.42C771.55 491.953 770.883 491.313 770.403 490.5C769.937 489.687 769.703 488.753 769.703 487.7C769.703 486.647 769.93 485.713 770.383 484.9C770.85 484.087 771.483 483.453 772.283 483C773.097 482.533 774.01 482.3 775.023 482.3C776.05 482.3 776.957 482.527 777.743 482.98C778.53 483.433 779.143 484.073 779.583 484.9C780.037 485.713 780.263 486.667 780.263 487.76C780.263 487.84 780.257 487.933 780.243 488.04C780.243 488.147 780.237 488.247 780.223 488.34H771.203V486.96H779.223L778.443 487.44C778.457 486.76 778.317 486.153 778.023 485.62C777.73 485.087 777.323 484.673 776.803 484.38C776.297 484.073 775.703 483.92 775.023 483.92C774.357 483.92 773.763 484.073 773.243 484.38C772.723 484.673 772.317 485.093 772.023 485.64C771.73 486.173 771.583 486.787 771.583 487.48V487.8C771.583 488.507 771.743 489.14 772.063 489.7C772.397 490.247 772.857 490.673 773.443 490.98C774.03 491.287 774.703 491.44 775.463 491.44C776.09 491.44 776.657 491.333 777.163 491.12C777.683 490.907 778.137 490.587 778.523 490.16L779.583 491.4C779.103 491.96 778.503 492.387 777.783 492.68C777.077 492.973 776.283 493.12 775.403 493.12Z" fill="black"/>
</g>
<g filter="url(#filter3_d_1_27451)">
<rect x="372" y="458" width="146" height="56" rx="28" fill="white" shape-rendering="crispEdges"/>
<path d="M412.164 482.612C413.555 482.612 414.687 481.477 414.687 480.082C414.548 476.726 409.779 476.727 409.641 480.082C409.641 481.477 410.773 482.612 412.164 482.612Z" fill="#464EB8"/>
<path d="M413.83 483.29H409.327H409.318C409.317 483.29 409.317 483.29 409.316 483.29C409.046 483.29 405.523 483.29 404.387 483.29V482.407C404.575 482.44 404.772 482.463 404.979 482.471C405.001 482.472 405.023 482.47 405.046 482.47C405.132 482.468 405.217 482.464 405.301 482.457C405.33 482.454 405.358 482.452 405.387 482.448C405.483 482.438 405.579 482.424 405.673 482.405C405.679 482.404 405.685 482.403 405.691 482.402C406.137 482.311 406.557 482.133 406.931 481.881C407.276 481.648 407.576 481.353 407.817 481.014C407.879 480.932 407.936 480.846 407.989 480.759C407.994 480.75 408 480.742 408.005 480.733C408.046 480.665 408.082 480.593 408.117 480.521C408.132 480.49 408.148 480.459 408.162 480.427C408.199 480.344 408.233 480.26 408.263 480.174C408.266 480.167 408.269 480.16 408.271 480.153C408.614 479.143 408.457 477.956 407.869 477.068C407.713 476.84 407.529 476.634 407.325 476.45C407.282 476.413 407.242 476.375 407.198 476.34C407.026 476.199 406.841 476.074 406.645 475.968C406.546 475.915 406.445 475.866 406.342 475.822C406.237 475.776 406.129 475.738 406.018 475.704C405.955 475.685 405.889 475.67 405.824 475.654C405.767 475.64 405.71 475.625 405.652 475.614C405.604 475.605 405.555 475.6 405.507 475.592C405.422 475.58 405.338 475.569 405.252 475.563C405.223 475.561 405.193 475.56 405.164 475.559C405.077 475.555 404.99 475.555 404.903 475.557C404.404 475.586 403.96 475.691 403.572 475.855C403.493 475.891 403.413 475.926 403.338 475.968C402.56 476.392 401.965 477.113 401.69 477.958C401.5 478.589 401.483 479.27 401.645 479.909C401.647 479.915 401.649 479.921 401.65 479.927C401.658 479.955 401.666 479.982 401.674 480.01C401.683 480.043 401.694 480.076 401.704 480.108C401.714 480.135 401.723 480.161 401.733 480.187H394.106C393.423 480.187 392.867 480.743 392.867 481.426V490.467C392.867 491.151 393.423 491.706 394.106 491.706H398.935C398.942 491.735 398.95 491.762 398.956 491.79C399.621 494.406 401.947 496.256 404.696 496.322C406.977 496.267 408.936 494.949 409.917 493.06C409.932 493.066 409.947 493.069 409.961 493.074C412.405 493.999 415.182 492.06 415.132 489.443V484.589C415.133 483.873 414.548 483.29 413.83 483.29Z" fill="#464EB8"/>
<path d="M410.588 484.615C410.604 483.902 410.039 483.308 409.328 483.29C409.325 483.29 404.184 483.29 404.184 483.29C403.995 483.29 403.841 483.444 403.841 483.634V490.617C403.841 490.939 403.58 491.201 403.258 491.201H399.249C399.146 491.201 399.048 491.247 398.983 491.327C398.918 491.407 398.892 491.512 398.913 491.614C399.481 494.388 401.853 496.375 404.697 496.444C408.023 496.362 410.665 493.585 410.588 490.26V484.615Z" fill="#7B83EB"/>
<path d="M404.982 482.471C405.005 482.471 405.027 482.47 405.049 482.469C405.135 482.468 405.221 482.464 405.305 482.457C405.334 482.454 405.362 482.452 405.39 482.448C405.487 482.437 405.583 482.423 405.677 482.405C405.683 482.404 405.689 482.403 405.695 482.402C406.14 482.311 406.561 482.133 406.935 481.881C407.28 481.648 407.58 481.352 407.821 481.013C407.884 480.931 407.94 480.846 407.994 480.759C407.999 480.75 408.004 480.742 408.009 480.733C408.05 480.664 408.086 480.593 408.121 480.521C408.136 480.49 408.152 480.459 408.167 480.427C408.204 480.344 408.238 480.26 408.268 480.174C408.27 480.167 408.273 480.16 408.275 480.153C408.618 479.143 408.461 477.955 407.873 477.067C407.718 476.84 407.533 476.634 407.329 476.45C407.286 476.413 407.246 476.374 407.202 476.34C407.03 476.199 406.845 476.074 406.649 475.968C406.55 475.914 406.449 475.866 406.346 475.822C406.242 475.776 406.133 475.738 406.022 475.704C405.959 475.684 405.893 475.67 405.828 475.654C405.771 475.64 405.714 475.625 405.656 475.614C405.608 475.605 405.559 475.599 405.511 475.592C405.426 475.58 405.342 475.569 405.256 475.563C405.227 475.561 405.198 475.56 405.168 475.559C405.081 475.555 404.994 475.555 404.907 475.557C404.408 475.586 403.965 475.691 403.577 475.855C403.498 475.891 403.417 475.926 403.343 475.968C402.565 476.392 401.969 477.113 401.695 477.958C401.504 478.589 401.488 479.271 401.65 479.909C401.652 479.915 401.653 479.922 401.655 479.928C401.662 479.955 401.67 479.983 401.678 480.01C401.687 480.043 401.698 480.076 401.709 480.109C401.723 480.15 401.738 480.19 401.754 480.231H401.747C402.173 481.425 403.251 482.398 404.982 482.471Z" fill="#7B83EB"/>
<path d="M403.148 480.188H394.106C393.423 480.188 392.867 480.743 392.867 481.426V490.468C392.867 491.151 393.423 491.707 394.106 491.707H403.148C403.831 491.707 404.386 491.151 404.386 490.468V481.426C404.387 480.743 403.831 480.188 403.148 480.188Z" fill="#464EB8"/>
<path d="M400.907 482.704H396.28C396.095 482.704 395.945 482.854 395.945 483.039V483.883C395.945 484.068 396.095 484.218 396.28 484.218H397.773V488.916C397.773 489.101 397.923 489.251 398.108 489.251H399.1C399.285 489.251 399.435 489.101 399.435 488.916V484.218H400.907C401.092 484.218 401.242 484.068 401.242 483.883V483.039C401.242 482.854 401.092 482.704 400.907 482.704Z" fill="white"/>
<path d="M432.88 493V480.74H428.08V479H439.66V480.74H434.86V493H432.88ZM445.185 493.12C444.051 493.12 443.051 492.887 442.185 492.42C441.331 491.953 440.665 491.313 440.185 490.5C439.718 489.687 439.485 488.753 439.485 487.7C439.485 486.647 439.711 485.713 440.165 484.9C440.631 484.087 441.265 483.453 442.065 483C442.878 482.533 443.791 482.3 444.805 482.3C445.831 482.3 446.738 482.527 447.525 482.98C448.311 483.433 448.925 484.073 449.365 484.9C449.818 485.713 450.045 486.667 450.045 487.76C450.045 487.84 450.038 487.933 450.025 488.04C450.025 488.147 450.018 488.247 450.005 488.34H440.985V486.96H449.005L448.225 487.44C448.238 486.76 448.098 486.153 447.805 485.62C447.511 485.087 447.105 484.673 446.585 484.38C446.078 484.073 445.485 483.92 444.805 483.92C444.138 483.92 443.545 484.073 443.025 484.38C442.505 484.673 442.098 485.093 441.805 485.64C441.511 486.173 441.365 486.787 441.365 487.48V487.8C441.365 488.507 441.525 489.14 441.845 489.7C442.178 490.247 442.638 490.673 443.225 490.98C443.811 491.287 444.485 491.44 445.245 491.44C445.871 491.44 446.438 491.333 446.945 491.12C447.465 490.907 447.918 490.587 448.305 490.16L449.365 491.4C448.885 491.96 448.285 492.387 447.565 492.68C446.858 492.973 446.065 493.12 445.185 493.12ZM458.998 493V490.76L458.898 490.34V486.52C458.898 485.707 458.658 485.08 458.178 484.64C457.711 484.187 457.004 483.96 456.058 483.96C455.431 483.96 454.818 484.067 454.218 484.28C453.618 484.48 453.111 484.753 452.698 485.1L451.898 483.66C452.444 483.22 453.098 482.887 453.858 482.66C454.631 482.42 455.438 482.3 456.278 482.3C457.731 482.3 458.851 482.653 459.638 483.36C460.424 484.067 460.818 485.147 460.818 486.6V493H458.998ZM455.518 493.12C454.731 493.12 454.038 492.987 453.438 492.72C452.851 492.453 452.398 492.087 452.078 491.62C451.758 491.14 451.598 490.6 451.598 490C451.598 489.427 451.731 488.907 451.998 488.44C452.278 487.973 452.724 487.6 453.338 487.32C453.964 487.04 454.804 486.9 455.858 486.9H459.218V488.28H455.938C454.978 488.28 454.331 488.44 453.998 488.76C453.664 489.08 453.498 489.467 453.498 489.92C453.498 490.44 453.704 490.86 454.118 491.18C454.531 491.487 455.104 491.64 455.838 491.64C456.558 491.64 457.184 491.48 457.718 491.16C458.264 490.84 458.658 490.373 458.898 489.76L459.278 491.08C459.024 491.707 458.578 492.207 457.938 492.58C457.298 492.94 456.491 493.12 455.518 493.12ZM477.631 482.3C478.484 482.3 479.237 482.467 479.891 482.8C480.544 483.133 481.051 483.64 481.411 484.32C481.784 485 481.971 485.86 481.971 486.9V493H480.051V487.12C480.051 486.093 479.811 485.32 479.331 484.8C478.851 484.28 478.177 484.02 477.311 484.02C476.671 484.02 476.111 484.153 475.631 484.42C475.151 484.687 474.777 485.08 474.511 485.6C474.257 486.12 474.131 486.767 474.131 487.54V493H472.211V487.12C472.211 486.093 471.971 485.32 471.491 484.8C471.024 484.28 470.351 484.02 469.471 484.02C468.844 484.02 468.291 484.153 467.811 484.42C467.331 484.687 466.957 485.08 466.691 485.6C466.424 486.12 466.291 486.767 466.291 487.54V493H464.371V482.4H466.211V485.22L465.911 484.5C466.244 483.807 466.757 483.267 467.451 482.88C468.144 482.493 468.951 482.3 469.871 482.3C470.884 482.3 471.757 482.553 472.491 483.06C473.224 483.553 473.704 484.307 473.931 485.32L473.151 485C473.471 484.187 474.031 483.533 474.831 483.04C475.631 482.547 476.564 482.3 477.631 482.3ZM488.544 493.12C487.664 493.12 486.824 493 486.024 492.76C485.237 492.52 484.617 492.227 484.164 491.88L484.964 490.36C485.417 490.667 485.977 490.927 486.644 491.14C487.31 491.353 487.99 491.46 488.684 491.46C489.577 491.46 490.217 491.333 490.604 491.08C491.004 490.827 491.204 490.473 491.204 490.02C491.204 489.687 491.084 489.427 490.844 489.24C490.604 489.053 490.284 488.913 489.884 488.82C489.497 488.727 489.064 488.647 488.584 488.58C488.104 488.5 487.624 488.407 487.144 488.3C486.664 488.18 486.224 488.02 485.824 487.82C485.424 487.607 485.104 487.32 484.864 486.96C484.624 486.587 484.504 486.093 484.504 485.48C484.504 484.84 484.684 484.28 485.044 483.8C485.404 483.32 485.91 482.953 486.564 482.7C487.23 482.433 488.017 482.3 488.924 482.3C489.617 482.3 490.317 482.387 491.024 482.56C491.744 482.72 492.33 482.953 492.784 483.26L491.964 484.78C491.484 484.46 490.984 484.24 490.464 484.12C489.944 484 489.424 483.94 488.904 483.94C488.064 483.94 487.437 484.08 487.024 484.36C486.61 484.627 486.404 484.973 486.404 485.4C486.404 485.76 486.524 486.04 486.764 486.24C487.017 486.427 487.337 486.573 487.724 486.68C488.124 486.787 488.564 486.88 489.044 486.96C489.524 487.027 490.004 487.12 490.484 487.24C490.964 487.347 491.397 487.5 491.784 487.7C492.184 487.9 492.504 488.18 492.744 488.54C492.997 488.9 493.124 489.38 493.124 489.98C493.124 490.62 492.937 491.173 492.564 491.64C492.19 492.107 491.664 492.473 490.984 492.74C490.304 492.993 489.49 493.12 488.544 493.12Z" fill="black"/>
</g>
<rect x="924" y="72" width="80" height="80" rx="20" fill="white"/>
<rect x="947.332" y="96" width="33.3333" height="40" rx="5.33333" fill="#91A8DD"/>
<rect x="945.332" y="93.334" width="37.3333" height="40" rx="6.66667" fill="#B5CEFF"/>
<rect x="943.336" y="88" width="41.3333" height="41.3333" rx="8" fill="#E9F2FF"/>
<rect x="962.668" y="99.334" width="2.66667" height="18.6667" rx="1.33333" fill="#91A8DD"/>
<rect x="973.336" y="107.332" width="2.66667" height="18.6667" rx="1.33333" transform="rotate(90 973.336 107.332)" fill="#91A8DD"/>
<rect x="152" y="72" width="80" height="80" rx="20" fill="white"/>
<g clip-path="url(#clip5_1_27451)">
<path d="M211.266 95.7985L204.076 88.6075C203.687 88.2186 203.159 88 202.609 88C201.998 88 184.757 88 183.84 88C183.044 88 182.398 88.6453 182.398 89.441V94.7068H192.524C193.073 94.7068 193.601 94.9254 193.99 95.3143L200.698 102.022C201.087 102.411 201.306 102.939 201.306 103.489V129.776H210.433C211.229 129.776 211.874 129.131 211.874 128.334C211.874 126.46 211.874 99.1694 211.874 97.2648C211.874 96.7147 211.655 96.1874 211.266 95.7985Z" fill="#8BCAFF"/>
<path d="M203.595 102.023L196.888 95.3146C196.498 94.9257 195.971 94.707 195.421 94.707C195.273 94.707 194.152 94.707 192.523 94.707C193.073 94.707 193.601 94.9257 193.99 95.3146L200.698 102.023C201.087 102.412 201.306 102.939 201.306 103.489V129.776H204.203C204.203 121.377 204.203 104.951 204.203 103.489C204.203 102.939 203.984 102.412 203.595 102.023Z" fill="#60B8FF"/>
<path d="M186.737 88C185.16 88 184.054 88 183.84 88C183.044 88 182.398 88.6453 182.398 89.441V94.7068H185.296V89.441C185.296 88.6453 185.941 88 186.737 88Z" fill="#60B8FF"/>
<path d="M205.52 101.596H200.27L200.696 102.022C201.085 102.411 201.303 102.939 201.303 103.489V103.732H205.52C206.11 103.732 206.588 103.254 206.588 102.664C206.588 102.074 206.11 101.596 205.52 101.596Z" fill="#22A7FF"/>
<path d="M205.522 106.417H201.305V108.553H205.522C206.111 108.553 206.589 108.075 206.589 107.485C206.589 106.895 206.111 106.417 205.522 106.417Z" fill="#22A7FF"/>
<path d="M205.522 111.237H201.305V113.373H205.522C206.111 113.373 206.589 112.895 206.589 112.305C206.589 111.716 206.111 111.237 205.522 111.237Z" fill="#22A7FF"/>
<path d="M205.522 116.059H201.305V118.195H205.522C206.111 118.195 206.589 117.716 206.589 117.127C206.589 116.537 206.111 116.059 205.522 116.059Z" fill="#22A7FF"/>
<path d="M205.522 120.879H201.305V123.015H205.522C206.111 123.015 206.589 122.537 206.589 121.947C206.589 121.357 206.111 120.879 205.522 120.879Z" fill="#22A7FF"/>
<path d="M202.606 88C203.156 88 203.684 88.2186 204.073 88.6075L211.264 95.7985C211.652 96.1874 211.871 96.7147 211.871 97.2648V97.3047H203.71C203.079 97.3047 202.566 96.7924 202.566 96.1606V88H202.606Z" fill="#22A7FF"/>
<path d="M205.468 96.1606V89.9988L204.077 88.6075C203.688 88.2186 203.16 88 202.61 88C202.601 88 202.588 88 202.57 88V96.1606C202.57 96.7924 203.083 97.3047 203.714 97.3047H206.611C205.98 97.3047 205.468 96.7924 205.468 96.1606Z" fill="#0094FD"/>
<path d="M206.224 101.859C206.036 102.023 205.791 102.122 205.523 102.122H200.789C201.12 102.5 201.306 102.984 201.306 103.489V103.732H205.523C206.113 103.732 206.591 103.254 206.591 102.664C206.591 102.343 206.448 102.055 206.224 101.859Z" fill="#0094FD"/>
<path d="M206.222 106.68C206.034 106.843 205.79 106.943 205.522 106.943H201.305V108.552H205.522C206.111 108.552 206.589 108.074 206.589 107.485C206.589 107.163 206.447 106.875 206.222 106.68Z" fill="#0094FD"/>
<path d="M206.222 111.501C206.034 111.664 205.79 111.764 205.522 111.764H201.305V113.374H205.522C206.111 113.374 206.589 112.896 206.589 112.306C206.589 111.984 206.447 111.697 206.222 111.501Z" fill="#0094FD"/>
<path d="M206.222 116.321C206.034 116.485 205.79 116.584 205.522 116.584H201.305V118.194H205.522C206.111 118.194 206.589 117.716 206.589 117.126C206.589 116.805 206.447 116.517 206.222 116.321Z" fill="#0094FD"/>
<path d="M206.222 121.143C206.034 121.306 205.79 121.406 205.522 121.406H201.305V123.015H205.522C206.111 123.015 206.589 122.537 206.589 121.948C206.589 121.626 206.447 121.339 206.222 121.143Z" fill="#0094FD"/>
<path d="M173.754 136H200.347C201.143 136 201.788 135.354 201.788 134.558C201.788 132.684 201.788 105.393 201.788 103.488C201.788 102.938 201.569 102.411 201.181 102.022L193.99 94.8308C193.601 94.4419 193.073 94.2236 192.523 94.2236C191.912 94.2236 174.671 94.2236 173.754 94.2236C172.958 94.2236 172.312 94.8689 172.312 95.6647V134.558C172.312 135.354 172.958 136 173.754 136Z" fill="#D9EDFF"/>
<path d="M175.21 134.558V95.6647C175.21 94.8689 175.855 94.2236 176.651 94.2236C175.074 94.2236 173.968 94.2236 173.754 94.2236C172.958 94.2236 172.312 94.8689 172.312 95.6647V134.558C172.312 135.354 172.958 136 173.754 136H176.651C175.855 136 175.21 135.354 175.21 134.558Z" fill="#B4DBFF"/>
<path d="M192.524 94.2236C193.074 94.2236 193.602 94.4423 193.991 94.8308L201.182 102.022C201.57 102.411 201.789 102.938 201.789 103.488V103.528H193.628C192.997 103.528 192.484 103.016 192.484 102.384V94.2236H192.524Z" fill="#B4DBFF"/>
<path d="M195.382 102.384V96.222L193.991 94.8308C193.602 94.4419 193.074 94.2236 192.524 94.2236C192.515 94.2236 192.502 94.2236 192.484 94.2236V102.384C192.484 103.016 192.996 103.528 193.628 103.528H196.526C195.894 103.528 195.382 103.016 195.382 102.384Z" fill="#8BCAFF"/>
<path d="M195.438 109.956H178.666C178.076 109.956 177.598 109.478 177.598 108.888C177.598 108.299 178.076 107.82 178.666 107.82H195.438C196.028 107.82 196.506 108.299 196.506 108.888C196.506 109.478 196.028 109.956 195.438 109.956Z" fill="#B4DBFF"/>
<path d="M195.438 114.777H178.666C178.076 114.777 177.598 114.298 177.598 113.708C177.598 113.119 178.076 112.641 178.666 112.641H195.438C196.028 112.641 196.506 113.119 196.506 113.708C196.506 114.298 196.028 114.777 195.438 114.777Z" fill="#B4DBFF"/>
<path d="M195.438 119.598H178.666C178.076 119.598 177.598 119.12 177.598 118.53C177.598 117.94 178.076 117.462 178.666 117.462H195.438C196.028 117.462 196.506 117.94 196.506 118.53C196.506 119.12 196.028 119.598 195.438 119.598Z" fill="#B4DBFF"/>
<path d="M195.438 124.418H178.666C178.076 124.418 177.598 123.94 177.598 123.35C177.598 122.76 178.076 122.282 178.666 122.282H195.438C196.028 122.282 196.506 122.76 196.506 123.35C196.506 123.94 196.028 124.418 195.438 124.418Z" fill="#B4DBFF"/>
<path d="M195.438 129.24H178.666C178.076 129.24 177.598 128.761 177.598 128.171C177.598 127.582 178.076 127.104 178.666 127.104H195.438C196.028 127.104 196.506 127.582 196.506 128.171C196.506 128.761 196.028 129.24 195.438 129.24Z" fill="#B4DBFF"/>
<path d="M196.139 108.083C195.951 108.247 195.706 108.346 195.438 108.346H178.666C178.397 108.346 178.152 108.247 177.965 108.083C177.74 108.279 177.598 108.566 177.598 108.888C177.598 109.478 178.076 109.956 178.666 109.956H195.438C196.028 109.956 196.506 109.478 196.506 108.888C196.506 108.566 196.363 108.279 196.139 108.083Z" fill="#8BCAFF"/>
<path d="M196.139 112.904C195.951 113.068 195.706 113.167 195.438 113.167H178.666C178.397 113.167 178.152 113.068 177.965 112.904C177.74 113.1 177.598 113.388 177.598 113.709C177.598 114.299 178.076 114.777 178.666 114.777H195.438C196.028 114.777 196.506 114.299 196.506 113.709C196.506 113.388 196.363 113.1 196.139 112.904Z" fill="#8BCAFF"/>
<path d="M196.139 117.725C195.951 117.888 195.706 117.988 195.438 117.988H178.666C178.397 117.988 178.152 117.888 177.965 117.725C177.74 117.92 177.598 118.208 177.598 118.529C177.598 119.119 178.076 119.597 178.666 119.597H195.438C196.028 119.597 196.506 119.119 196.506 118.529C196.506 118.208 196.363 117.92 196.139 117.725Z" fill="#8BCAFF"/>
<path d="M196.139 122.546C195.951 122.709 195.706 122.809 195.438 122.809H178.666C178.397 122.809 178.152 122.709 177.965 122.546C177.74 122.741 177.598 123.029 177.598 123.35C177.598 123.94 178.076 124.419 178.666 124.419H195.438C196.028 124.419 196.506 123.94 196.506 123.35C196.506 123.029 196.363 122.741 196.139 122.546Z" fill="#8BCAFF"/>
<path d="M196.139 127.366C195.951 127.53 195.706 127.629 195.438 127.629H178.666C178.397 127.629 178.152 127.53 177.965 127.366C177.74 127.562 177.598 127.849 177.598 128.171C177.598 128.761 178.076 129.239 178.666 129.239H195.438C196.028 129.239 196.506 128.761 196.506 128.171C196.506 127.849 196.363 127.562 196.139 127.366Z" fill="#8BCAFF"/>
</g>
<ellipse cx="578" cy="338.992" rx="6" ry="2.992" stroke="#C1773A" stroke-width="3"/>
<ellipse cx="578" cy="337.992" rx="6" ry="2.992" stroke="#C1773A" stroke-width="3"/>
<rect x="731" y="72" width="80" height="80" rx="20" fill="white"/>
<path d="M794.361 93.1248V109.424C794.361 111.421 792.744 113.038 790.746 113.038H790.514C790.062 113.038 789.695 113.405 789.695 113.864V116.715C789.695 117.449 788.812 117.817 788.29 117.301L784.21 113.278C784.055 113.122 783.85 113.038 783.631 113.038H767.071C765.074 113.038 763.457 111.421 763.457 109.424V93.1318C763.457 91.1341 765.074 89.5107 767.078 89.5107H790.746C792.744 89.5107 794.361 91.1271 794.361 93.1248Z" fill="#CCE7FF"/>
<path d="M784.999 101.541V121.155C784.999 123.559 783.054 125.504 780.65 125.504H760.714C760.448 125.504 760.198 125.608 760.012 125.786L755.099 130.635C754.477 131.256 753.412 130.812 753.412 129.933V126.496C753.412 125.947 752.968 125.504 752.42 125.504H752.145C749.741 125.504 747.797 123.559 747.797 121.155V101.533C747.797 99.1289 749.741 97.1846 752.145 97.1846H780.642C783.046 97.1846 784.999 99.1289 784.999 101.541Z" fill="#488FF7"/>
<path d="M774.571 107.461V115.918C774.571 117.188 773.533 118.226 772.262 118.226H759.578C758.307 118.226 757.27 117.188 757.27 115.918V107.461C757.27 106.198 758.307 105.167 759.578 105.167H772.262C773.533 105.167 774.571 106.198 774.571 107.461Z" fill="#D9EDFF"/>
<path d="M778.522 108.909V114.478C778.522 115.085 777.873 115.459 777.351 115.17L774.562 113.61V109.777L777.351 108.217C777.873 107.927 778.522 108.302 778.522 108.909Z" fill="#D9EDFF"/>
<path d="M768.238 112.887L765.218 114.821C764.456 115.316 763.441 114.76 763.441 113.854V109.988C763.441 109.082 764.456 108.526 765.218 109.022L768.238 110.954C768.938 111.401 768.938 112.44 768.238 112.887Z" fill="#488FF7"/>
<path d="M395.373 19L401.713 5H403.693L410.053 19H407.953L402.293 6.12H403.093L397.433 19H395.373ZM398.073 15.5L398.613 13.9H406.493L407.073 15.5H398.073ZM416.126 19.12C415.219 19.12 414.419 18.9533 413.726 18.62C413.046 18.2867 412.512 17.78 412.126 17.1C411.752 16.4067 411.566 15.54 411.566 14.5V8.4H413.486V14.28C413.486 15.32 413.732 16.1 414.226 16.62C414.732 17.14 415.439 17.4 416.346 17.4C417.012 17.4 417.592 17.2667 418.086 17C418.579 16.72 418.959 16.32 419.226 15.8C419.492 15.2667 419.626 14.6267 419.626 13.88V8.4H421.546V19H419.726V16.14L420.026 16.9C419.679 17.6067 419.159 18.1533 418.466 18.54C417.772 18.9267 416.992 19.12 416.126 19.12ZM428.841 19.12C427.774 19.12 426.948 18.8333 426.361 18.26C425.774 17.6867 425.481 16.8667 425.481 15.8V6.08H427.401V15.72C427.401 16.2933 427.541 16.7333 427.821 17.04C428.114 17.3467 428.528 17.5 429.061 17.5C429.661 17.5 430.161 17.3333 430.561 17L431.161 18.38C430.868 18.6333 430.514 18.82 430.101 18.94C429.701 19.06 429.281 19.12 428.841 19.12ZM423.681 9.98V8.4H430.441V9.98H423.681ZM437.671 19.12C436.604 19.12 435.657 18.8867 434.831 18.42C434.004 17.9533 433.351 17.3133 432.871 16.5C432.391 15.6733 432.151 14.74 432.151 13.7C432.151 12.6467 432.391 11.7133 432.871 10.9C433.351 10.0867 434.004 9.45333 434.831 9C435.657 8.53333 436.604 8.3 437.671 8.3C438.724 8.3 439.664 8.53333 440.491 9C441.331 9.45333 441.984 10.0867 442.451 10.9C442.931 11.7 443.171 12.6333 443.171 13.7C443.171 14.7533 442.931 15.6867 442.451 16.5C441.984 17.3133 441.331 17.9533 440.491 18.42C439.664 18.8867 438.724 19.12 437.671 19.12ZM437.671 17.44C438.351 17.44 438.957 17.2867 439.491 16.98C440.037 16.6733 440.464 16.24 440.771 15.68C441.077 15.1067 441.231 14.4467 441.231 13.7C441.231 12.94 441.077 12.2867 440.771 11.74C440.464 11.18 440.037 10.7467 439.491 10.44C438.957 10.1333 438.351 9.98 437.671 9.98C436.991 9.98 436.384 10.1333 435.851 10.44C435.317 10.7467 434.891 11.18 434.571 11.74C434.251 12.2867 434.091 12.94 434.091 13.7C434.091 14.4467 434.251 15.1067 434.571 15.68C434.891 16.24 435.317 16.6733 435.851 16.98C436.384 17.2867 436.991 17.44 437.671 17.44ZM459.086 8.3C459.939 8.3 460.693 8.46667 461.346 8.8C461.999 9.13333 462.506 9.64 462.866 10.32C463.239 11 463.426 11.86 463.426 12.9V19H461.506V13.12C461.506 12.0933 461.266 11.32 460.786 10.8C460.306 10.28 459.633 10.02 458.766 10.02C458.126 10.02 457.566 10.1533 457.086 10.42C456.606 10.6867 456.233 11.08 455.966 11.6C455.713 12.12 455.586 12.7667 455.586 13.54V19H453.666V13.12C453.666 12.0933 453.426 11.32 452.946 10.8C452.479 10.28 451.806 10.02 450.926 10.02C450.299 10.02 449.746 10.1533 449.266 10.42C448.786 10.6867 448.413 11.08 448.146 11.6C447.879 12.12 447.746 12.7667 447.746 13.54V19H445.826V8.4H447.666V11.22L447.366 10.5C447.699 9.80667 448.213 9.26667 448.906 8.88C449.599 8.49333 450.406 8.3 451.326 8.3C452.339 8.3 453.213 8.55333 453.946 9.06C454.679 9.55333 455.159 10.3067 455.386 11.32L454.606 11C454.926 10.1867 455.486 9.53333 456.286 9.04C457.086 8.54667 458.019 8.3 459.086 8.3ZM473.539 19V16.76L473.439 16.34V12.52C473.439 11.7067 473.199 11.08 472.719 10.64C472.252 10.1867 471.545 9.96 470.599 9.96C469.972 9.96 469.359 10.0667 468.759 10.28C468.159 10.48 467.652 10.7533 467.239 11.1L466.439 9.66C466.985 9.22 467.639 8.88667 468.399 8.66C469.172 8.42 469.979 8.3 470.819 8.3C472.272 8.3 473.392 8.65333 474.179 9.36C474.965 10.0667 475.359 11.1467 475.359 12.6V19H473.539ZM470.059 19.12C469.272 19.12 468.579 18.9867 467.979 18.72C467.392 18.4533 466.939 18.0867 466.619 17.62C466.299 17.14 466.139 16.6 466.139 16C466.139 15.4267 466.272 14.9067 466.539 14.44C466.819 13.9733 467.265 13.6 467.879 13.32C468.505 13.04 469.345 12.9 470.399 12.9H473.759V14.28H470.479C469.519 14.28 468.872 14.44 468.539 14.76C468.205 15.08 468.039 15.4667 468.039 15.92C468.039 16.44 468.245 16.86 468.659 17.18C469.072 17.4867 469.645 17.64 470.379 17.64C471.099 17.64 471.725 17.48 472.259 17.16C472.805 16.84 473.199 16.3733 473.439 15.76L473.819 17.08C473.565 17.7067 473.119 18.2067 472.479 18.58C471.839 18.94 471.032 19.12 470.059 19.12ZM482.552 19.12C481.485 19.12 480.658 18.8333 480.072 18.26C479.485 17.6867 479.192 16.8667 479.192 15.8V6.08H481.112V15.72C481.112 16.2933 481.252 16.7333 481.532 17.04C481.825 17.3467 482.238 17.5 482.772 17.5C483.372 17.5 483.872 17.3333 484.272 17L484.872 18.38C484.578 18.6333 484.225 18.82 483.812 18.94C483.412 19.06 482.992 19.12 482.552 19.12ZM477.392 9.98V8.4H484.152V9.98H477.392ZM491.561 19.12C490.428 19.12 489.428 18.8867 488.561 18.42C487.708 17.9533 487.041 17.3133 486.561 16.5C486.095 15.6867 485.861 14.7533 485.861 13.7C485.861 12.6467 486.088 11.7133 486.541 10.9C487.008 10.0867 487.641 9.45333 488.441 9C489.255 8.53333 490.168 8.3 491.181 8.3C492.208 8.3 493.115 8.52667 493.901 8.98C494.688 9.43333 495.301 10.0733 495.741 10.9C496.195 11.7133 496.421 12.6667 496.421 13.76C496.421 13.84 496.415 13.9333 496.401 14.04C496.401 14.1467 496.395 14.2467 496.381 14.34H487.361V12.96H495.381L494.601 13.44C494.615 12.76 494.475 12.1533 494.181 11.62C493.888 11.0867 493.481 10.6733 492.961 10.38C492.455 10.0733 491.861 9.92 491.181 9.92C490.515 9.92 489.921 10.0733 489.401 10.38C488.881 10.6733 488.475 11.0933 488.181 11.64C487.888 12.1733 487.741 12.7867 487.741 13.48V13.8C487.741 14.5067 487.901 15.14 488.221 15.7C488.555 16.2467 489.015 16.6733 489.601 16.98C490.188 17.2867 490.861 17.44 491.621 17.44C492.248 17.44 492.815 17.3333 493.321 17.12C493.841 16.9067 494.295 16.5867 494.681 16.16L495.741 17.4C495.261 17.96 494.661 18.3867 493.941 18.68C493.235 18.9733 492.441 19.12 491.561 19.12ZM508.839 19.12C507.812 19.12 506.892 18.8933 506.079 18.44C505.279 17.9867 504.645 17.3533 504.179 16.54C503.712 15.7267 503.479 14.78 503.479 13.7C503.479 12.62 503.712 11.68 504.179 10.88C504.645 10.0667 505.279 9.43333 506.079 8.98C506.892 8.52667 507.812 8.3 508.839 8.3C509.732 8.3 510.539 8.5 511.259 8.9C511.979 9.3 512.552 9.9 512.979 10.7C513.419 11.5 513.639 12.5 513.639 13.7C513.639 14.9 513.425 15.9 512.999 16.7C512.585 17.5 512.019 18.1067 511.299 18.52C510.579 18.92 509.759 19.12 508.839 19.12ZM508.999 17.44C509.665 17.44 510.265 17.2867 510.799 16.98C511.345 16.6733 511.772 16.24 512.079 15.68C512.399 15.1067 512.559 14.4467 512.559 13.7C512.559 12.94 512.399 12.2867 512.079 11.74C511.772 11.18 511.345 10.7467 510.799 10.44C510.265 10.1333 509.665 9.98 508.999 9.98C508.319 9.98 507.712 10.1333 507.179 10.44C506.645 10.7467 506.219 11.18 505.899 11.74C505.579 12.2867 505.419 12.94 505.419 13.7C505.419 14.4467 505.579 15.1067 505.899 15.68C506.219 16.24 506.645 16.6733 507.179 16.98C507.712 17.2867 508.319 17.44 508.999 17.44ZM512.619 19V16.14L512.739 13.68L512.539 11.22V4.16H514.459V19H512.619ZM522.631 19.12C521.565 19.12 520.618 18.8867 519.791 18.42C518.965 17.9533 518.311 17.3133 517.831 16.5C517.351 15.6733 517.111 14.74 517.111 13.7C517.111 12.6467 517.351 11.7133 517.831 10.9C518.311 10.0867 518.965 9.45333 519.791 9C520.618 8.53333 521.565 8.3 522.631 8.3C523.685 8.3 524.625 8.53333 525.451 9C526.291 9.45333 526.945 10.0867 527.411 10.9C527.891 11.7 528.131 12.6333 528.131 13.7C528.131 14.7533 527.891 15.6867 527.411 16.5C526.945 17.3133 526.291 17.9533 525.451 18.42C524.625 18.8867 523.685 19.12 522.631 19.12ZM522.631 17.44C523.311 17.44 523.918 17.2867 524.451 16.98C524.998 16.6733 525.425 16.24 525.731 15.68C526.038 15.1067 526.191 14.4467 526.191 13.7C526.191 12.94 526.038 12.2867 525.731 11.74C525.425 11.18 524.998 10.7467 524.451 10.44C523.918 10.1333 523.311 9.98 522.631 9.98C521.951 9.98 521.345 10.1333 520.811 10.44C520.278 10.7467 519.851 11.18 519.531 11.74C519.211 12.2867 519.051 12.94 519.051 13.7C519.051 14.4467 519.211 15.1067 519.531 15.68C519.851 16.24 520.278 16.6733 520.811 16.98C521.345 17.2867 521.951 17.44 522.631 17.44ZM535.407 19.12C534.327 19.12 533.36 18.8867 532.507 18.42C531.667 17.9533 531.007 17.3133 530.527 16.5C530.047 15.6867 529.807 14.7533 529.807 13.7C529.807 12.6467 530.047 11.7133 530.527 10.9C531.007 10.0867 531.667 9.45333 532.507 9C533.36 8.53333 534.327 8.3 535.407 8.3C536.367 8.3 537.22 8.49333 537.967 8.88C538.727 9.25333 539.313 9.81333 539.727 10.56L538.267 11.5C537.92 10.98 537.493 10.6 536.987 10.36C536.493 10.1067 535.96 9.98 535.387 9.98C534.693 9.98 534.073 10.1333 533.527 10.44C532.98 10.7467 532.547 11.18 532.227 11.74C531.907 12.2867 531.747 12.94 531.747 13.7C531.747 14.46 531.907 15.12 532.227 15.68C532.547 16.24 532.98 16.6733 533.527 16.98C534.073 17.2867 534.693 17.44 535.387 17.44C535.96 17.44 536.493 17.32 536.987 17.08C537.493 16.8267 537.92 16.44 538.267 15.92L539.727 16.84C539.313 17.5733 538.727 18.14 537.967 18.54C537.22 18.9267 536.367 19.12 535.407 19.12ZM546.673 19.12C545.766 19.12 544.966 18.9533 544.273 18.62C543.593 18.2867 543.059 17.78 542.673 17.1C542.299 16.4067 542.113 15.54 542.113 14.5V8.4H544.033V14.28C544.033 15.32 544.279 16.1 544.773 16.62C545.279 17.14 545.986 17.4 546.893 17.4C547.559 17.4 548.139 17.2667 548.633 17C549.126 16.72 549.506 16.32 549.773 15.8C550.039 15.2667 550.173 14.6267 550.173 13.88V8.4H552.093V19H550.273V16.14L550.573 16.9C550.226 17.6067 549.706 18.1533 549.013 18.54C548.319 18.9267 547.539 19.12 546.673 19.12ZM569.008 8.3C569.861 8.3 570.614 8.46667 571.268 8.8C571.921 9.13333 572.428 9.64 572.788 10.32C573.161 11 573.348 11.86 573.348 12.9V19H571.428V13.12C571.428 12.0933 571.188 11.32 570.708 10.8C570.228 10.28 569.554 10.02 568.688 10.02C568.048 10.02 567.488 10.1533 567.008 10.42C566.528 10.6867 566.154 11.08 565.888 11.6C565.634 12.12 565.508 12.7667 565.508 13.54V19H563.588V13.12C563.588 12.0933 563.348 11.32 562.868 10.8C562.401 10.28 561.728 10.02 560.848 10.02C560.221 10.02 559.668 10.1533 559.188 10.42C558.708 10.6867 558.334 11.08 558.068 11.6C557.801 12.12 557.668 12.7667 557.668 13.54V19H555.748V8.4H557.588V11.22L557.288 10.5C557.621 9.80667 558.134 9.26667 558.828 8.88C559.521 8.49333 560.328 8.3 561.248 8.3C562.261 8.3 563.134 8.55333 563.868 9.06C564.601 9.55333 565.081 10.3067 565.308 11.32L564.528 11C564.848 10.1867 565.408 9.53333 566.208 9.04C567.008 8.54667 567.941 8.3 569.008 8.3ZM581.601 19.12C580.467 19.12 579.467 18.8867 578.601 18.42C577.747 17.9533 577.081 17.3133 576.601 16.5C576.134 15.6867 575.901 14.7533 575.901 13.7C575.901 12.6467 576.127 11.7133 576.581 10.9C577.047 10.0867 577.681 9.45333 578.481 9C579.294 8.53333 580.207 8.3 581.221 8.3C582.247 8.3 583.154 8.52667 583.941 8.98C584.727 9.43333 585.341 10.0733 585.781 10.9C586.234 11.7133 586.461 12.6667 586.461 13.76C586.461 13.84 586.454 13.9333 586.441 14.04C586.441 14.1467 586.434 14.2467 586.421 14.34H577.401V12.96H585.421L584.641 13.44C584.654 12.76 584.514 12.1533 584.221 11.62C583.927 11.0867 583.521 10.6733 583.001 10.38C582.494 10.0733 581.901 9.92 581.221 9.92C580.554 9.92 579.961 10.0733 579.441 10.38C578.921 10.6733 578.514 11.0933 578.221 11.64C577.927 12.1733 577.781 12.7867 577.781 13.48V13.8C577.781 14.5067 577.941 15.14 578.261 15.7C578.594 16.2467 579.054 16.6733 579.641 16.98C580.227 17.2867 580.901 17.44 581.661 17.44C582.287 17.44 582.854 17.3333 583.361 17.12C583.881 16.9067 584.334 16.5867 584.721 16.16L585.781 17.4C585.301 17.96 584.701 18.3867 583.981 18.68C583.274 18.9733 582.481 19.12 581.601 19.12ZM594.787 8.3C595.653 8.3 596.413 8.46667 597.067 8.8C597.733 9.13333 598.253 9.64 598.627 10.32C599 11 599.187 11.86 599.187 12.9V19H597.267V13.12C597.267 12.0933 597.013 11.32 596.507 10.8C596.013 10.28 595.313 10.02 594.407 10.02C593.727 10.02 593.133 10.1533 592.627 10.42C592.12 10.6867 591.727 11.08 591.447 11.6C591.18 12.12 591.047 12.7667 591.047 13.54V19H589.127V8.4H590.967V11.26L590.667 10.5C591.013 9.80667 591.547 9.26667 592.267 8.88C592.987 8.49333 593.827 8.3 594.787 8.3ZM606.38 19.12C605.313 19.12 604.487 18.8333 603.9 18.26C603.313 17.6867 603.02 16.8667 603.02 15.8V6.08H604.94V15.72C604.94 16.2933 605.08 16.7333 605.36 17.04C605.653 17.3467 606.067 17.5 606.6 17.5C607.2 17.5 607.7 17.3333 608.1 17L608.7 18.38C608.407 18.6333 608.053 18.82 607.64 18.94C607.24 19.06 606.82 19.12 606.38 19.12ZM601.22 9.98V8.4H607.98V9.98H601.22ZM617.601 19V16.76L617.501 16.34V12.52C617.501 11.7067 617.261 11.08 616.781 10.64C616.315 10.1867 615.608 9.96 614.661 9.96C614.035 9.96 613.421 10.0667 612.821 10.28C612.221 10.48 611.715 10.7533 611.301 11.1L610.501 9.66C611.048 9.22 611.701 8.88667 612.461 8.66C613.235 8.42 614.041 8.3 614.881 8.3C616.335 8.3 617.455 8.65333 618.241 9.36C619.028 10.0667 619.421 11.1467 619.421 12.6V19H617.601ZM614.121 19.12C613.335 19.12 612.641 18.9867 612.041 18.72C611.455 18.4533 611.001 18.0867 610.681 17.62C610.361 17.14 610.201 16.6 610.201 16C610.201 15.4267 610.335 14.9067 610.601 14.44C610.881 13.9733 611.328 13.6 611.941 13.32C612.568 13.04 613.408 12.9 614.461 12.9H617.821V14.28H614.541C613.581 14.28 612.935 14.44 612.601 14.76C612.268 15.08 612.101 15.4667 612.101 15.92C612.101 16.44 612.308 16.86 612.721 17.18C613.135 17.4867 613.708 17.64 614.441 17.64C615.161 17.64 615.788 17.48 616.321 17.16C616.868 16.84 617.261 16.3733 617.501 15.76L617.881 17.08C617.628 17.7067 617.181 18.2067 616.541 18.58C615.901 18.94 615.095 19.12 614.121 19.12ZM626.614 19.12C625.548 19.12 624.721 18.8333 624.134 18.26C623.548 17.6867 623.254 16.8667 623.254 15.8V6.08H625.174V15.72C625.174 16.2933 625.314 16.7333 625.594 17.04C625.888 17.3467 626.301 17.5 626.834 17.5C627.434 17.5 627.934 17.3333 628.334 17L628.934 18.38C628.641 18.6333 628.288 18.82 627.874 18.94C627.474 19.06 627.054 19.12 626.614 19.12ZM621.454 9.98V8.4H628.214V9.98H621.454ZM631.256 19V8.4H633.176V19H631.256ZM632.216 6.36C631.842 6.36 631.529 6.24 631.276 6C631.036 5.76 630.916 5.46667 630.916 5.12C630.916 4.76 631.036 4.46 631.276 4.22C631.529 3.98 631.842 3.86 632.216 3.86C632.589 3.86 632.896 3.98 633.136 4.22C633.389 4.44667 633.516 4.73333 633.516 5.08C633.516 5.44 633.396 5.74667 633.156 6C632.916 6.24 632.602 6.36 632.216 6.36ZM641.381 19.12C640.315 19.12 639.368 18.8867 638.541 18.42C637.715 17.9533 637.061 17.3133 636.581 16.5C636.101 15.6733 635.861 14.74 635.861 13.7C635.861 12.6467 636.101 11.7133 636.581 10.9C637.061 10.0867 637.715 9.45333 638.541 9C639.368 8.53333 640.315 8.3 641.381 8.3C642.435 8.3 643.375 8.53333 644.201 9C645.041 9.45333 645.695 10.0867 646.161 10.9C646.641 11.7 646.881 12.6333 646.881 13.7C646.881 14.7533 646.641 15.6867 646.161 16.5C645.695 17.3133 645.041 17.9533 644.201 18.42C643.375 18.8867 642.435 19.12 641.381 19.12ZM641.381 17.44C642.061 17.44 642.668 17.2867 643.201 16.98C643.748 16.6733 644.175 16.24 644.481 15.68C644.788 15.1067 644.941 14.4467 644.941 13.7C644.941 12.94 644.788 12.2867 644.481 11.74C644.175 11.18 643.748 10.7467 643.201 10.44C642.668 10.1333 642.061 9.98 641.381 9.98C640.701 9.98 640.095 10.1333 639.561 10.44C639.028 10.7467 638.601 11.18 638.281 11.74C637.961 12.2867 637.801 12.94 637.801 13.7C637.801 14.4467 637.961 15.1067 638.281 15.68C638.601 16.24 639.028 16.6733 639.561 16.98C640.095 17.2867 640.701 17.44 641.381 17.44ZM655.197 8.3C656.063 8.3 656.823 8.46667 657.477 8.8C658.143 9.13333 658.663 9.64 659.037 10.32C659.41 11 659.597 11.86 659.597 12.9V19H657.677V13.12C657.677 12.0933 657.423 11.32 656.917 10.8C656.423 10.28 655.723 10.02 654.817 10.02C654.137 10.02 653.543 10.1533 653.037 10.42C652.53 10.6867 652.137 11.08 651.857 11.6C651.59 12.12 651.457 12.7667 651.457 13.54V19H649.537V8.4H651.377V11.26L651.077 10.5C651.423 9.80667 651.957 9.26667 652.677 8.88C653.397 8.49333 654.237 8.3 655.197 8.3ZM670.761 19L666.821 8.4H668.641L672.141 18H671.281L674.921 8.4H676.541L680.101 18H679.261L682.841 8.4H684.561L680.601 19H678.761L675.421 10.24H675.981L672.601 19H670.761ZM686.509 19V8.4H688.429V19H686.509ZM687.469 6.36C687.096 6.36 686.783 6.24 686.529 6C686.289 5.76 686.169 5.46667 686.169 5.12C686.169 4.76 686.289 4.46 686.529 4.22C686.783 3.98 687.096 3.86 687.469 3.86C687.843 3.86 688.149 3.98 688.389 4.22C688.643 4.44667 688.769 4.73333 688.769 5.08C688.769 5.44 688.649 5.74667 688.409 6C688.169 6.24 687.856 6.36 687.469 6.36ZM695.735 19.12C694.669 19.12 693.842 18.8333 693.255 18.26C692.669 17.6867 692.375 16.8667 692.375 15.8V6.08H694.295V15.72C694.295 16.2933 694.435 16.7333 694.715 17.04C695.009 17.3467 695.422 17.5 695.955 17.5C696.555 17.5 697.055 17.3333 697.455 17L698.055 18.38C697.762 18.6333 697.409 18.82 696.995 18.94C696.595 19.06 696.175 19.12 695.735 19.12ZM690.575 9.98V8.4H697.335V9.98H690.575ZM706.037 8.3C706.903 8.3 707.663 8.46667 708.317 8.8C708.983 9.13333 709.503 9.64 709.877 10.32C710.25 11 710.437 11.86 710.437 12.9V19H708.517V13.12C708.517 12.0933 708.263 11.32 707.757 10.8C707.263 10.28 706.563 10.02 705.657 10.02C704.977 10.02 704.383 10.1533 703.877 10.42C703.37 10.6867 702.977 11.08 702.697 11.6C702.43 12.12 702.297 12.7667 702.297 13.54V19H700.377V4.16H702.297V11.26L701.917 10.5C702.263 9.80667 702.797 9.26667 703.517 8.88C704.237 8.49333 705.077 8.3 706.037 8.3ZM721.461 11.04H728.661V12.74H721.461V11.04ZM721.641 17.26H729.801V19H719.641V5H729.521V6.74H721.641V17.26ZM734.319 16.44L734.359 13.98L740.459 8.4H742.779L738.099 13L737.059 13.88L734.319 16.44ZM732.759 19V4.16H734.679V19H732.759ZM740.859 19L736.699 13.84L737.939 12.3L743.219 19H740.859ZM751.468 19V16.76L751.368 16.34V12.52C751.368 11.7067 751.128 11.08 750.648 10.64C750.182 10.1867 749.475 9.96 748.528 9.96C747.902 9.96 747.288 10.0667 746.688 10.28C746.088 10.48 745.582 10.7533 745.168 11.1L744.368 9.66C744.915 9.22 745.568 8.88667 746.328 8.66C747.102 8.42 747.908 8.3 748.748 8.3C750.202 8.3 751.322 8.65333 752.108 9.36C752.895 10.0667 753.288 11.1467 753.288 12.6V19H751.468ZM747.988 19.12C747.202 19.12 746.508 18.9867 745.908 18.72C745.322 18.4533 744.868 18.0867 744.548 17.62C744.228 17.14 744.068 16.6 744.068 16C744.068 15.4267 744.202 14.9067 744.468 14.44C744.748 13.9733 745.195 13.6 745.808 13.32C746.435 13.04 747.275 12.9 748.328 12.9H751.688V14.28H748.408C747.448 14.28 746.802 14.44 746.468 14.76C746.135 15.08 745.968 15.4667 745.968 15.92C745.968 16.44 746.175 16.86 746.588 17.18C747.002 17.4867 747.575 17.64 748.308 17.64C749.028 17.64 749.655 17.48 750.188 17.16C750.735 16.84 751.128 16.3733 751.368 15.76L751.748 17.08C751.495 17.7067 751.048 18.2067 750.408 18.58C749.768 18.94 748.962 19.12 747.988 19.12ZM756.841 19V8.4H758.761V19H756.841ZM757.801 6.36C757.428 6.36 757.115 6.24 756.861 6C756.621 5.76 756.501 5.46667 756.501 5.12C756.501 4.76 756.621 4.46 756.861 4.22C757.115 3.98 757.428 3.86 757.801 3.86C758.175 3.86 758.481 3.98 758.721 4.22C758.975 4.44667 759.101 4.73333 759.101 5.08C759.101 5.44 758.981 5.74667 758.741 6C758.501 6.24 758.188 6.36 757.801 6.36Z" fill="black"/>
<g filter="url(#filter4_d_1_27451)">
<rect x="905" y="458" width="129" height="56" rx="28" fill="white" shape-rendering="crispEdges"/>
<path d="M930.8 493.16C929.853 493.16 929.013 493.007 928.28 492.7C927.547 492.393 926.967 491.967 926.54 491.42C926.113 490.873 925.9 490.24 925.9 489.52C925.9 488.893 926.04 488.32 926.32 487.8C926.6 487.28 927.047 486.78 927.66 486.3C928.273 485.807 929.08 485.3 930.08 484.78C930.893 484.353 931.527 483.98 931.98 483.66C932.447 483.34 932.773 483.04 932.96 482.76C933.16 482.467 933.26 482.153 933.26 481.82C933.26 481.367 933.1 481 932.78 480.72C932.46 480.427 932 480.28 931.4 480.28C930.773 480.28 930.28 480.44 929.92 480.76C929.573 481.067 929.4 481.473 929.4 481.98C929.4 482.233 929.44 482.48 929.52 482.72C929.613 482.947 929.773 483.207 930 483.5C930.24 483.78 930.58 484.14 931.02 484.58L938.42 491.94L937.34 493.22L929.48 485.4C929.013 484.933 928.647 484.52 928.38 484.16C928.113 483.787 927.92 483.427 927.8 483.08C927.68 482.733 927.62 482.38 927.62 482.02C927.62 481.393 927.773 480.847 928.08 480.38C928.4 479.9 928.84 479.533 929.4 479.28C929.973 479.013 930.64 478.88 931.4 478.88C932.107 478.88 932.72 479 933.24 479.24C933.76 479.467 934.16 479.8 934.44 480.24C934.733 480.667 934.88 481.187 934.88 481.8C934.88 482.333 934.747 482.827 934.48 483.28C934.227 483.733 933.813 484.173 933.24 484.6C932.667 485.027 931.893 485.487 930.92 485.98C930.12 486.393 929.493 486.78 929.04 487.14C928.587 487.487 928.26 487.833 928.06 488.18C927.873 488.527 927.78 488.907 927.78 489.32C927.78 489.76 927.907 490.153 928.16 490.5C928.427 490.833 928.793 491.093 929.26 491.28C929.74 491.467 930.293 491.56 930.92 491.56C931.813 491.56 932.62 491.367 933.34 490.98C934.06 490.593 934.66 490.013 935.14 489.24C935.633 488.467 935.993 487.507 936.22 486.36L937.76 486.86C937.493 488.207 937.033 489.347 936.38 490.28C935.74 491.213 934.947 491.927 934 492.42C933.053 492.913 931.987 493.16 930.8 493.16ZM952.502 493.16C951.435 493.16 950.442 492.98 949.522 492.62C948.615 492.26 947.829 491.76 947.162 491.12C946.495 490.467 945.975 489.707 945.602 488.84C945.229 487.973 945.042 487.027 945.042 486C945.042 484.973 945.229 484.027 945.602 483.16C945.975 482.293 946.495 481.54 947.162 480.9C947.829 480.247 948.615 479.74 949.522 479.38C950.429 479.02 951.422 478.84 952.502 478.84C953.569 478.84 954.549 479.02 955.442 479.38C956.349 479.727 957.135 480.227 957.802 480.88C958.482 481.52 959.002 482.273 959.362 483.14C959.735 484.007 959.922 484.96 959.922 486C959.922 487.04 959.735 487.993 959.362 488.86C959.002 489.727 958.482 490.487 957.802 491.14C957.135 491.78 956.349 492.28 955.442 492.64C954.549 492.987 953.569 493.16 952.502 493.16ZM952.502 491.38C953.275 491.38 953.989 491.247 954.642 490.98C955.309 490.713 955.882 490.34 956.362 489.86C956.855 489.367 957.235 488.793 957.502 488.14C957.782 487.487 957.922 486.773 957.922 486C957.922 485.227 957.782 484.513 957.502 483.86C957.235 483.207 956.855 482.64 956.362 482.16C955.882 481.667 955.309 481.287 954.642 481.02C953.989 480.753 953.275 480.62 952.502 480.62C951.715 480.62 950.989 480.753 950.322 481.02C949.669 481.287 949.095 481.667 948.602 482.16C948.109 482.64 947.722 483.207 947.442 483.86C947.175 484.513 947.042 485.227 947.042 486C947.042 486.773 947.175 487.487 947.442 488.14C947.722 488.793 948.109 489.367 948.602 489.86C949.095 490.34 949.669 490.713 950.322 490.98C950.989 491.247 951.715 491.38 952.502 491.38ZM966.437 493.12C965.37 493.12 964.543 492.833 963.957 492.26C963.37 491.687 963.077 490.867 963.077 489.8V480.08H964.997V489.72C964.997 490.293 965.137 490.733 965.417 491.04C965.71 491.347 966.123 491.5 966.657 491.5C967.257 491.5 967.757 491.333 968.157 491L968.757 492.38C968.463 492.633 968.11 492.82 967.697 492.94C967.297 493.06 966.877 493.12 966.437 493.12ZM961.277 483.98V482.4H968.037V483.98H961.277ZM976.738 482.3C977.604 482.3 978.364 482.467 979.018 482.8C979.684 483.133 980.204 483.64 980.578 484.32C980.951 485 981.138 485.86 981.138 486.9V493H979.218V487.12C979.218 486.093 978.964 485.32 978.458 484.8C977.964 484.28 977.264 484.02 976.358 484.02C975.678 484.02 975.084 484.153 974.578 484.42C974.071 484.687 973.678 485.08 973.398 485.6C973.131 486.12 972.998 486.767 972.998 487.54V493H971.078V478.16H972.998V485.26L972.618 484.5C972.964 483.807 973.498 483.267 974.218 482.88C974.938 482.493 975.778 482.3 976.738 482.3ZM989.411 493.12C988.278 493.12 987.278 492.887 986.411 492.42C985.558 491.953 984.891 491.313 984.411 490.5C983.944 489.687 983.711 488.753 983.711 487.7C983.711 486.647 983.938 485.713 984.391 484.9C984.858 484.087 985.491 483.453 986.291 483C987.104 482.533 988.018 482.3 989.031 482.3C990.058 482.3 990.964 482.527 991.751 482.98C992.538 483.433 993.151 484.073 993.591 484.9C994.044 485.713 994.271 486.667 994.271 487.76C994.271 487.84 994.264 487.933 994.251 488.04C994.251 488.147 994.244 488.247 994.231 488.34H985.211V486.96H993.231L992.451 487.44C992.464 486.76 992.324 486.153 992.031 485.62C991.738 485.087 991.331 484.673 990.811 484.38C990.304 484.073 989.711 483.92 989.031 483.92C988.364 483.92 987.771 484.073 987.251 484.38C986.731 484.673 986.324 485.093 986.031 485.64C985.738 486.173 985.591 486.787 985.591 487.48V487.8C985.591 488.507 985.751 489.14 986.071 489.7C986.404 490.247 986.864 490.673 987.451 490.98C988.038 491.287 988.711 491.44 989.471 491.44C990.098 491.44 990.664 491.333 991.171 491.12C991.691 490.907 992.144 490.587 992.531 490.16L993.591 491.4C993.111 491.96 992.511 492.387 991.791 492.68C991.084 492.973 990.291 493.12 989.411 493.12ZM996.937 493V482.4H998.777V485.28L998.597 484.56C998.891 483.827 999.384 483.267 1000.08 482.88C1000.77 482.493 1001.62 482.3 1002.64 482.3V484.16C1002.56 484.147 1002.48 484.14 1002.4 484.14C1002.33 484.14 1002.26 484.14 1002.2 484.14C1001.17 484.14 1000.36 484.447 999.757 485.06C999.157 485.673 998.857 486.56 998.857 487.72V493H996.937ZM1008.16 493.12C1007.28 493.12 1006.44 493 1005.64 492.76C1004.85 492.52 1004.23 492.227 1003.78 491.88L1004.58 490.36C1005.03 490.667 1005.59 490.927 1006.26 491.14C1006.93 491.353 1007.61 491.46 1008.3 491.46C1009.19 491.46 1009.83 491.333 1010.22 491.08C1010.62 490.827 1010.82 490.473 1010.82 490.02C1010.82 489.687 1010.7 489.427 1010.46 489.24C1010.22 489.053 1009.9 488.913 1009.5 488.82C1009.11 488.727 1008.68 488.647 1008.2 488.58C1007.72 488.5 1007.24 488.407 1006.76 488.3C1006.28 488.18 1005.84 488.02 1005.44 487.82C1005.04 487.607 1004.72 487.32 1004.48 486.96C1004.24 486.587 1004.12 486.093 1004.12 485.48C1004.12 484.84 1004.3 484.28 1004.66 483.8C1005.02 483.32 1005.53 482.953 1006.18 482.7C1006.85 482.433 1007.63 482.3 1008.54 482.3C1009.23 482.3 1009.93 482.387 1010.64 482.56C1011.36 482.72 1011.95 482.953 1012.4 483.26L1011.58 484.78C1011.1 484.46 1010.6 484.24 1010.08 484.12C1009.56 484 1009.04 483.94 1008.52 483.94C1007.68 483.94 1007.05 484.08 1006.64 484.36C1006.23 484.627 1006.02 484.973 1006.02 485.4C1006.02 485.76 1006.14 486.04 1006.38 486.24C1006.63 486.427 1006.95 486.573 1007.34 486.68C1007.74 486.787 1008.18 486.88 1008.66 486.96C1009.14 487.027 1009.62 487.12 1010.1 487.24C1010.58 487.347 1011.01 487.5 1011.4 487.7C1011.8 487.9 1012.12 488.18 1012.36 488.54C1012.61 488.9 1012.74 489.38 1012.74 489.98C1012.74 490.62 1012.55 491.173 1012.18 491.64C1011.81 492.107 1011.28 492.473 1010.6 492.74C1009.92 492.993 1009.11 493.12 1008.16 493.12Z" fill="black"/>
</g>
<g filter="url(#filter5_d_1_27451)">
<rect x="518" y="253" width="120" height="120" rx="60" fill="white"/>
<rect x="519" y="254" width="118" height="118" rx="59" stroke="#C87A3D" stroke-width="2"/>
<path d="M587.899 322.158C586.351 320.626 584.531 319.529 582.591 318.865L587.893 313.621C593.361 308.218 593.361 299.457 587.893 294.054C582.428 288.649 573.566 288.649 568.1 294.054C562.633 299.457 562.633 308.218 568.1 313.621C569.607 315.113 571.374 316.192 573.256 316.859L568.85 321.473C568.596 321.692 568.349 321.919 568.108 322.158C567.309 322.947 566.626 323.808 566.064 324.719L570.073 326.506L573.376 327.977L573.877 328.201C573.933 328.141 573.988 328.083 574.045 328.026C576.231 325.866 579.776 325.866 581.963 328.026C583.205 329.254 583.74 330.917 583.57 332.518L591.385 336C592.854 331.262 591.691 325.9 587.901 322.154L587.899 322.158ZM574.037 307.751C571.851 305.591 571.851 302.086 574.037 299.924C576.222 297.76 579.767 297.76 581.954 299.924C584.142 302.084 584.142 305.589 581.954 307.751L577.997 311.894V309.372C576.563 309.372 575.13 308.832 574.038 307.751H574.037Z" fill="#C87A3C"/>
</g>
<defs>
<filter id="filter0_d_1_27451" x="365" y="573" width="426" height="220" filterUnits="userSpaceOnUse" color-interpolation-filters="sRGB">
<feFlood flood-opacity="0" result="BackgroundImageFix"/>
<feColorMatrix in="SourceAlpha" type="matrix" values="0 0 0 0 0 0 0 0 0 0 0 0 0 0 0 0 0 0 127 0" result="hardAlpha"/>
<feMorphology radius="8" operator="dilate" in="SourceAlpha" result="effect1_dropShadow_1_27451"/>
<feOffset dy="9"/>
<feGaussianBlur stdDeviation="23"/>
<feComposite in2="hardAlpha" operator="out"/>
<feColorMatrix type="matrix" values="0 0 0 0 0.784314 0 0 0 0 0.478431 0 0 0 0 0.235294 0 0 0 0.4 0"/>
<feBlend mode="normal" in2="BackgroundImageFix" result="effect1_dropShadow_1_27451"/>
<feBlend mode="normal" in="SourceGraphic" in2="effect1_dropShadow_1_27451" result="shape"/>
</filter>
<filter id="filter1_d_1_27451" x="76.5" y="413" width="242" height="164" filterUnits="userSpaceOnUse" color-interpolation-filters="sRGB">
<feFlood flood-opacity="0" result="BackgroundImageFix"/>
<feColorMatrix in="SourceAlpha" type="matrix" values="0 0 0 0 0 0 0 0 0 0 0 0 0 0 0 0 0 0 127 0" result="hardAlpha"/>
<feMorphology radius="8" operator="dilate" in="SourceAlpha" result="effect1_dropShadow_1_27451"/>
<feOffset dy="9"/>
<feGaussianBlur stdDeviation="23"/>
<feComposite in2="hardAlpha" operator="out"/>
<feColorMatrix type="matrix" values="0 0 0 0 0.784314 0 0 0 0 0.478431 0 0 0 0 0.235294 0 0 0 0.4 0"/>
<feBlend mode="normal" in2="BackgroundImageFix" result="effect1_dropShadow_1_27451"/>
<feBlend mode="normal" in="SourceGraphic" in2="effect1_dropShadow_1_27451" result="shape"/>
</filter>
<filter id="filter2_d_1_27451" x="589" y="413" width="271" height="164" filterUnits="userSpaceOnUse" color-interpolation-filters="sRGB">
<feFlood flood-opacity="0" result="BackgroundImageFix"/>
<feColorMatrix in="SourceAlpha" type="matrix" values="0 0 0 0 0 0 0 0 0 0 0 0 0 0 0 0 0 0 127 0" result="hardAlpha"/>
<feMorphology radius="8" operator="dilate" in="SourceAlpha" result="effect1_dropShadow_1_27451"/>
<feOffset dy="9"/>
<feGaussianBlur stdDeviation="23"/>
<feComposite in2="hardAlpha" operator="out"/>
<feColorMatrix type="matrix" values="0 0 0 0 0.784314 0 0 0 0 0.478431 0 0 0 0 0.235294 0 0 0 0.4 0"/>
<feBlend mode="normal" in2="BackgroundImageFix" result="effect1_dropShadow_1_27451"/>
<feBlend mode="normal" in="SourceGraphic" in2="effect1_dropShadow_1_27451" result="shape"/>
</filter>
<filter id="filter3_d_1_27451" x="318" y="413" width="254" height="164" filterUnits="userSpaceOnUse" color-interpolation-filters="sRGB">
<feFlood flood-opacity="0" result="BackgroundImageFix"/>
<feColorMatrix in="SourceAlpha" type="matrix" values="0 0 0 0 0 0 0 0 0 0 0 0 0 0 0 0 0 0 127 0" result="hardAlpha"/>
<feMorphology radius="8" operator="dilate" in="SourceAlpha" result="effect1_dropShadow_1_27451"/>
<feOffset dy="9"/>
<feGaussianBlur stdDeviation="23"/>
<feComposite in2="hardAlpha" operator="out"/>
<feColorMatrix type="matrix" values="0 0 0 0 0.784314 0 0 0 0 0.478431 0 0 0 0 0.235294 0 0 0 0.4 0"/>
<feBlend mode="normal" in2="BackgroundImageFix" result="effect1_dropShadow_1_27451"/>
<feBlend mode="normal" in="SourceGraphic" in2="effect1_dropShadow_1_27451" result="shape"/>
</filter>
<filter id="filter4_d_1_27451" x="851" y="413" width="237" height="164" filterUnits="userSpaceOnUse" color-interpolation-filters="sRGB">
<feFlood flood-opacity="0" result="BackgroundImageFix"/>
<feColorMatrix in="SourceAlpha" type="matrix" values="0 0 0 0 0 0 0 0 0 0 0 0 0 0 0 0 0 0 127 0" result="hardAlpha"/>
<feMorphology radius="8" operator="dilate" in="SourceAlpha" result="effect1_dropShadow_1_27451"/>
<feOffset dy="9"/>
<feGaussianBlur stdDeviation="23"/>
<feComposite in2="hardAlpha" operator="out"/>
<feColorMatrix type="matrix" values="0 0 0 0 0.784314 0 0 0 0 0.478431 0 0 0 0 0.235294 0 0 0 0.4 0"/>
<feBlend mode="normal" in2="BackgroundImageFix" result="effect1_dropShadow_1_27451"/>
<feBlend mode="normal" in="SourceGraphic" in2="effect1_dropShadow_1_27451" result="shape"/>
</filter>
<filter id="filter5_d_1_27451" x="464" y="208" width="228" height="228" filterUnits="userSpaceOnUse" color-interpolation-filters="sRGB">
<feFlood flood-opacity="0" result="BackgroundImageFix"/>
<feColorMatrix in="SourceAlpha" type="matrix" values="0 0 0 0 0 0 0 0 0 0 0 0 0 0 0 0 0 0 127 0" result="hardAlpha"/>
<feMorphology radius="8" operator="dilate" in="SourceAlpha" result="effect1_dropShadow_1_27451"/>
<feOffset dy="9"/>
<feGaussianBlur stdDeviation="23"/>
<feComposite in2="hardAlpha" operator="out"/>
<feColorMatrix type="matrix" values="0 0 0 0 0.784314 0 0 0 0 0.478431 0 0 0 0 0.235294 0 0 0 0.4 0"/>
<feBlend mode="normal" in2="BackgroundImageFix" result="effect1_dropShadow_1_27451"/>
<feBlend mode="normal" in="SourceGraphic" in2="effect1_dropShadow_1_27451" result="shape"/>
</filter>
<clipPath id="clip0_1_27451">
<rect width="72" height="72" fill="white" transform="translate(439 638)"/>
</clipPath>
<clipPath id="clip1_1_27451">
<rect width="48" height="48" fill="white" transform="translate(361 88)"/>
</clipPath>
<clipPath id="clip2_1_27451">
<rect width="48" height="48" fill="white" transform="translate(554 88)"/>
</clipPath>
<clipPath id="clip3_1_27451">
<rect width="24" height="24" fill="white" transform="translate(150.5 474)"/>
</clipPath>
<clipPath id="clip4_1_27451">
<rect width="24" height="24" fill="white" transform="translate(663 474)"/>
</clipPath>
<clipPath id="clip5_1_27451">
<rect width="48" height="48" fill="white" transform="translate(168 88)"/>
</clipPath>
</defs>
</svg>
