<svg width="28" height="28" viewBox="0 0 28 28" fill="none" xmlns="http://www.w3.org/2000/svg">
<circle cx="14" cy="14" r="14" fill="white"/>
<path d="M19.6083 8.50833L18.5416 9.34166L14 12.7167L9.45829 9.30833L8.39163 8.475C8.14034 8.26712 7.83358 8.13753 7.50937 8.10229C7.18515 8.06705 6.85772 8.1277 6.56763 8.27673C6.27755 8.42577 6.03757 8.65663 5.87741 8.94073C5.71725 9.22482 5.64397 9.54966 5.66663 9.875V19.5333C5.66663 19.8339 5.78603 20.1222 5.99857 20.3347C6.21111 20.5473 6.49938 20.6667 6.79996 20.6667H9.45829V14.2333L14 17.6417L18.5416 14.2333V20.6667H21.2C21.5005 20.6667 21.7888 20.5473 22.0013 20.3347C22.2139 20.1222 22.3333 19.8339 22.3333 19.5333V9.875C22.3489 9.55247 22.2706 9.23233 22.1077 8.95352C21.9448 8.6747 21.7044 8.4492 21.4158 8.30444C21.1271 8.15968 20.8026 8.10188 20.4818 8.13808C20.1609 8.17427 19.8574 8.3029 19.6083 8.50833Z" fill="#2A2A2A"/>
</svg>
