<svg width="1440" height="800" viewBox="0 0 1440 800" fill="none" xmlns="http://www.w3.org/2000/svg">
<path d="M338.939 458.061C339.525 458.646 340.475 458.646 341.061 458.061L350.607 448.515C351.192 447.929 351.192 446.979 350.607 446.393C350.021 445.808 349.071 445.808 348.485 446.393L340 454.879L331.515 446.393C330.929 445.808 329.979 445.808 329.393 446.393C328.808 446.979 328.808 447.929 329.393 448.515L338.939 458.061ZM341.5 457V450.78H338.5V457H341.5ZM341.5 438.34V425.9H338.5V438.34H341.5ZM341.5 413.46V407.24H338.5V413.46H341.5ZM341.5 407.24C341.5 405.859 342.619 404.74 344 404.74V401.74C340.962 401.74 338.5 404.202 338.5 407.24H341.5ZM344 404.74H349.822V401.74H344V404.74ZM361.466 404.74H373.11V401.74H361.466V404.74ZM384.754 404.74H396.397V401.74H384.754V404.74ZM408.041 404.74H419.685V401.74H408.041V404.74ZM431.329 404.74H442.973V401.74H431.329V404.74ZM454.617 404.74H466.261V401.74H454.617V404.74ZM477.905 404.74H489.549V401.74H477.905V404.74ZM501.192 404.74H512.836V401.74H501.192V404.74ZM524.48 404.74H536.124V401.74H524.48V404.74ZM547.768 404.74H559.412V401.74H547.768V404.74ZM571.056 404.74H582.7V401.74H571.056V404.74ZM594.344 404.74H605.987V401.74H594.344V404.74ZM617.631 404.74H629.275V401.74H617.631V404.74ZM640.919 404.74H652.563V401.74H640.919V404.74ZM664.207 404.74H675.851V401.74H664.207V404.74ZM687.495 404.74H699.139V401.74H687.495V404.74ZM710.782 404.74H716.604V401.74H710.782V404.74ZM716.604 404.74C719.642 404.74 722.104 402.278 722.104 399.24H719.104C719.104 400.621 717.985 401.74 716.604 401.74V404.74ZM722.104 399.24V393.356H719.104V399.24H722.104ZM722.104 381.588V369.82H719.104V381.588H722.104ZM722.104 358.052V352.168H719.104V358.052H722.104Z" fill="#C1773A"/>
<ellipse cx="720.604" cy="348.584" rx="8.39568" ry="3.584" stroke="#C1773A" stroke-width="3"/>
<path d="M1109.94 457.463C1110.53 458.049 1111.47 458.049 1112.06 457.463L1121.61 447.917C1122.19 447.332 1122.19 446.382 1121.61 445.796C1121.02 445.21 1120.07 445.21 1119.49 445.796L1111 454.281L1102.51 445.796C1101.93 445.21 1100.98 445.21 1100.39 445.796C1099.81 446.382 1099.81 447.332 1100.39 447.917L1109.94 457.463ZM718.438 352.168V358.015H721.438V352.168H718.438ZM718.438 369.708V381.401H721.438V369.708H718.438ZM718.438 393.095V398.941H721.438V393.095H718.438ZM718.438 398.941C718.438 401.979 720.901 404.441 723.938 404.441V401.441C722.558 401.441 721.438 400.322 721.438 398.941H718.438ZM723.938 404.441H729.924V401.441H723.938V404.441ZM741.894 404.441H753.865V401.441H741.894V404.441ZM765.836 404.441H777.806V401.441H765.836V404.441ZM789.777 404.441H801.748V401.441H789.777V404.441ZM813.719 404.441H825.689V401.441H813.719V404.441ZM837.66 404.441H849.631V401.441H837.66V404.441ZM861.601 404.441H873.572V401.441H861.601V404.441ZM885.543 404.441H897.513V401.441H885.543V404.441ZM909.484 404.441H921.455V401.441H909.484V404.441ZM933.425 404.441H945.396V401.441H933.425V404.441ZM957.367 404.441H969.337V401.441H957.367V404.441ZM981.308 404.441H993.279V401.441H981.308V404.441ZM1005.25 404.441H1017.22V401.441H1005.25V404.441ZM1029.19 404.441H1041.16V401.441H1029.19V404.441ZM1053.13 404.441H1065.1V401.441H1053.13V404.441ZM1077.07 404.441H1089.04V401.441H1077.07V404.441ZM1101.01 404.441H1107V401.441H1101.01V404.441ZM1107 404.441C1108.38 404.441 1109.5 405.561 1109.5 406.941H1112.5C1112.5 403.904 1110.04 401.441 1107 401.441V404.441ZM1109.5 406.941V413.124H1112.5V406.941H1109.5ZM1109.5 425.489V437.855H1112.5V425.489H1109.5ZM1109.5 450.22V456.403H1112.5V450.22H1109.5Z" fill="#C1773A"/>
<ellipse cx="719.939" cy="348.584" rx="8.93855" ry="3.584" stroke="#C1773A" stroke-width="3"/>
<path d="M585.939 458.061C586.525 458.646 587.475 458.646 588.061 458.061L597.607 448.515C598.192 447.929 598.192 446.979 597.607 446.393C597.021 445.808 596.071 445.808 595.485 446.393L587 454.879L578.515 446.393C577.929 445.808 576.979 445.808 576.393 446.393C575.808 446.979 575.808 447.929 576.393 448.515L585.939 458.061ZM588.5 457V450.78H585.5V457H588.5ZM588.5 438.34V425.9H585.5V438.34H588.5ZM588.5 413.46V407.24H585.5V413.46H588.5ZM588.5 407.24C588.5 405.859 589.619 404.74 591 404.74V401.74C587.962 401.74 585.5 404.202 585.5 407.24H588.5ZM591 404.74H597.253V401.74H591V404.74ZM609.76 404.74H622.266V401.74H609.76V404.74ZM634.773 404.74H647.279V401.74H634.773V404.74ZM659.786 404.74H672.292V401.74H659.786V404.74ZM684.799 404.74H697.305V401.74H684.799V404.74ZM709.812 404.74H716.065V401.74H709.812V404.74ZM716.065 404.74C719.102 404.74 721.565 402.278 721.565 399.24H718.565C718.565 400.621 717.445 401.74 716.065 401.74V404.74ZM721.565 399.24V393.356H718.565V399.24H721.565ZM721.565 381.588V369.82H718.565V381.588H721.565ZM721.565 358.052V352.168H718.565V358.052H721.565Z" fill="#C1773A"/>
<ellipse cx="720.065" cy="348.584" rx="2.93525" ry="3.584" stroke="#C1773A" stroke-width="3"/>
<path d="M865.939 457.463C866.525 458.049 867.475 458.049 868.061 457.463L877.607 447.917C878.192 447.332 878.192 446.382 877.607 445.796C877.021 445.21 876.071 445.21 875.485 445.796L867 454.281L858.515 445.796C857.929 445.21 856.979 445.21 856.393 445.796C855.808 446.382 855.808 447.332 856.393 447.917L865.939 457.463ZM718.852 352.168V358.015H721.852V352.168H718.852ZM718.852 369.708V381.401H721.852V369.708H718.852ZM718.852 393.095V398.941H721.852V393.095H718.852ZM718.852 398.941C718.852 401.979 721.314 404.441 724.352 404.441V401.441C722.971 401.441 721.852 400.322 721.852 398.941H718.852ZM724.352 404.441H730.129V401.441H724.352V404.441ZM741.683 404.441H753.237V401.441H741.683V404.441ZM764.791 404.441H776.345V401.441H764.791V404.441ZM787.899 404.441H799.453V401.441H787.899V404.441ZM811.007 404.441H822.561V401.441H811.007V404.441ZM834.115 404.441H845.669V401.441H834.115V404.441ZM857.223 404.441H863V401.441H857.223V404.441ZM863 404.441C864.381 404.441 865.5 405.561 865.5 406.941H868.5C868.5 403.904 866.038 401.441 863 401.441V404.441ZM865.5 406.941V413.124H868.5V406.941H865.5ZM865.5 425.489V437.855H868.5V425.489H865.5ZM865.5 450.22V456.403H868.5V450.22H865.5Z" fill="#C1773A"/>
<ellipse cx="720.352" cy="348.584" rx="3.35196" ry="3.584" stroke="#C1773A" stroke-width="3"/>
<path d="M718.939 614.061C719.525 614.646 720.475 614.646 721.061 614.061L730.607 604.515C731.192 603.929 731.192 602.979 730.607 602.393C730.021 601.808 729.071 601.808 728.485 602.393L720 610.879L711.515 602.393C710.929 601.808 709.979 601.808 709.393 602.393C708.808 602.979 708.808 603.929 709.393 604.515L718.939 614.061ZM340.5 512V517.53H343.5V512H340.5ZM340.5 528.59V539.649H343.5V528.59H340.5ZM340.5 550.709V556.239H343.5V550.709H340.5ZM340.5 556.239C340.5 559.276 342.962 561.739 346 561.739V558.739C344.619 558.739 343.5 557.62 343.5 556.239H340.5ZM346 561.739H352.167V558.739H346V561.739ZM364.5 561.739H376.833V558.739H364.5V561.739ZM389.167 561.739H401.5V558.739H389.167V561.739ZM413.833 561.739H426.167V558.739H413.833V561.739ZM438.5 561.739H450.833V558.739H438.5V561.739ZM463.167 561.739H475.5V558.739H463.167V561.739ZM487.833 561.739H500.167V558.739H487.833V561.739ZM512.5 561.739H524.833V558.739H512.5V561.739ZM537.167 561.739H549.5V558.739H537.167V561.739ZM561.833 561.739H574.167V558.739H561.833V561.739ZM586.5 561.739H598.833V558.739H586.5V561.739ZM611.167 561.739H623.5V558.739H611.167V561.739ZM635.833 561.739H648.167V558.739H635.833V561.739ZM660.5 561.739H672.833V558.739H660.5V561.739ZM685.167 561.739H697.5V558.739H685.167V561.739ZM709.833 561.739H716V558.739H709.833V561.739ZM716 561.739C717.381 561.739 718.5 562.858 718.5 564.239H721.5C721.5 561.201 719.038 558.739 716 558.739V561.739ZM718.5 564.239V570.334H721.5V564.239H718.5ZM718.5 582.524V594.715H721.5V582.524H718.5ZM718.5 606.905V613H721.5V606.905H718.5Z" fill="#C1773A"/>
<circle cx="342" cy="506" r="6" stroke="#C1773A" stroke-width="3"/>
<path d="M718.939 614.061C719.525 614.646 720.475 614.646 721.061 614.061L730.607 604.515C731.192 603.929 731.192 602.979 730.607 602.393C730.021 601.808 729.071 601.808 728.485 602.393L720 610.879L711.515 602.393C710.929 601.808 709.979 601.808 709.393 602.393C708.808 602.979 708.808 603.929 709.393 604.515L718.939 614.061ZM584.5 512V517.53H587.5V512H584.5ZM584.5 528.59V539.649H587.5V528.59H584.5ZM584.5 550.709V556.239H587.5V550.709H584.5ZM584.5 556.239C584.5 559.276 586.962 561.739 590 561.739V558.739C588.619 558.739 587.5 557.62 587.5 556.239H584.5ZM590 561.739H596.3V558.739H590V561.739ZM608.9 561.739H621.5V558.739H608.9V561.739ZM634.1 561.739H646.7V558.739H634.1V561.739ZM659.3 561.739H671.9V558.739H659.3V561.739ZM684.5 561.739H697.1V558.739H684.5V561.739ZM709.7 561.739H716V558.739H709.7V561.739ZM716 561.739C717.381 561.739 718.5 562.858 718.5 564.239H721.5C721.5 561.201 719.038 558.739 716 558.739V561.739ZM718.5 564.239V570.334H721.5V564.239H718.5ZM718.5 582.524V594.715H721.5V582.524H718.5ZM718.5 606.905V613H721.5V606.905H718.5Z" fill="#C1773A"/>
<circle cx="586" cy="506" r="6" stroke="#C1773A" stroke-width="3"/>
<path d="M718.939 614.061C719.525 614.646 720.475 614.646 721.061 614.061L730.607 604.515C731.192 603.929 731.192 602.979 730.607 602.393C730.021 601.808 729.071 601.808 728.485 602.393L720 610.879L711.515 602.393C710.929 601.808 709.979 601.808 709.393 602.393C708.808 602.979 708.808 603.929 709.393 604.515L718.939 614.061ZM721.5 613V606.905H718.5V613H721.5ZM721.5 594.715V582.524H718.5V594.715H721.5ZM721.5 570.334V564.239H718.5V570.334H721.5ZM721.5 564.239C721.5 562.858 722.619 561.739 724 561.739V558.739C720.962 558.739 718.5 561.201 718.5 564.239H721.5ZM724 561.739H729.958V558.739H724V561.739ZM741.875 561.739H753.792V558.739H741.875V561.739ZM765.708 561.739H777.625V558.739H765.708V561.739ZM789.542 561.739H801.458V558.739H789.542V561.739ZM813.375 561.739H825.292V558.739H813.375V561.739ZM837.208 561.739H849.125V558.739H837.208V561.739ZM861.042 561.739H867V558.739H861.042V561.739ZM867 561.739C870.038 561.739 872.5 559.276 872.5 556.239H869.5C869.5 557.62 868.381 558.739 867 558.739V561.739ZM872.5 556.239V550.709H869.5V556.239H872.5ZM872.5 539.649V528.59H869.5V539.649H872.5ZM872.5 517.53V512H869.5V517.53H872.5Z" fill="#C1773A"/>
<circle cx="871" cy="506" r="6" stroke="#C1773A" stroke-width="3"/>
<path d="M718.939 613.561C719.525 614.146 720.475 614.146 721.061 613.561L730.607 604.015C731.192 603.429 731.192 602.479 730.607 601.893C730.021 601.308 729.071 601.308 728.485 601.893L720 610.379L711.515 601.893C710.929 601.308 709.979 601.308 709.393 601.893C708.808 602.479 708.808 603.429 709.393 604.015L718.939 613.561ZM721.5 612.5V606.438H718.5V612.5H721.5ZM721.5 594.312V582.188H718.5V594.312H721.5ZM721.5 570.062V564H718.5V570.062H721.5ZM721.5 564C721.5 562.619 722.619 561.5 724 561.5V558.5C720.962 558.5 718.5 560.962 718.5 564H721.5ZM724 561.5H730.029V558.5H724V561.5ZM742.088 561.5H754.147V558.5H742.088V561.5ZM766.205 561.5H778.264V558.5H766.205V561.5ZM790.323 561.5H802.381V558.5H790.323V561.5ZM814.44 561.5H826.499V558.5H814.44V561.5ZM838.557 561.5H850.616V558.5H838.557V561.5ZM862.675 561.5H874.733V558.5H862.675V561.5ZM886.792 561.5H898.851V558.5H886.792V561.5ZM910.909 561.5H922.968V558.5H910.909V561.5ZM935.027 561.5H947.085V558.5H935.027V561.5ZM959.144 561.5H971.203V558.5H959.144V561.5ZM983.261 561.5H995.32V558.5H983.261V561.5ZM1007.38 561.5H1019.44V558.5H1007.38V561.5ZM1031.5 561.5H1043.55V558.5H1031.5V561.5ZM1055.61 561.5H1067.67V558.5H1055.61V561.5ZM1079.73 561.5H1091.79V558.5H1079.73V561.5ZM1103.85 561.5H1109.88V558.5H1103.85V561.5ZM1109.88 561.5C1112.92 561.5 1115.38 559.038 1115.38 556H1112.38C1112.38 557.381 1111.26 558.5 1109.88 558.5V561.5ZM1115.38 556V550.5H1112.38V556H1115.38ZM1115.38 539.5V528.5H1112.38V539.5H1115.38ZM1115.38 517.5V512H1112.38V517.5H1115.38Z" fill="#C1773A"/>
<ellipse cx="1113.88" cy="506" rx="6.12245" ry="6" stroke="#C1773A" stroke-width="3"/>
<path d="M718.939 251.561C719.525 252.146 720.475 252.146 721.061 251.561L730.607 242.015C731.192 241.429 731.192 240.479 730.607 239.893C730.021 239.308 729.071 239.308 728.485 239.893L720 248.379L711.515 239.893C710.929 239.308 709.979 239.308 709.393 239.893C708.808 240.479 708.808 241.429 709.393 242.015L718.939 251.561ZM525.5 150V155.5H528.5V150H525.5ZM525.5 166.5V177.5H528.5V166.5H525.5ZM525.5 188.5V194H528.5V188.5H525.5ZM525.5 194C525.5 197.038 527.962 199.5 531 199.5V196.5C529.619 196.5 528.5 195.381 528.5 194H525.5ZM531 199.5H536.781V196.5H531V199.5ZM548.344 199.5H559.906V196.5H548.344V199.5ZM571.469 199.5H583.031V196.5H571.469V199.5ZM594.594 199.5H606.156V196.5H594.594V199.5ZM617.719 199.5H629.281V196.5H617.719V199.5ZM640.844 199.5H652.406V196.5H640.844V199.5ZM663.969 199.5H675.531V196.5H663.969V199.5ZM687.094 199.5H698.656V196.5H687.094V199.5ZM710.219 199.5H716V196.5H710.219V199.5ZM716 199.5C717.381 199.5 718.5 200.619 718.5 202H721.5C721.5 198.962 719.038 196.5 716 196.5V199.5ZM718.5 202V208.062H721.5V202H718.5ZM718.5 220.188V232.312H721.5V220.188H718.5ZM718.5 244.438V250.5H721.5V244.438H718.5Z" fill="#C1773A"/>
<circle cx="527" cy="144" r="6" stroke="#C1773A" stroke-width="3"/>
<g filter="url(#filter0_d_867_38157)">
<rect x="561" y="618" width="318" height="112" rx="20" fill="white"/>
<g clip-path="url(#clip0_867_38157)">
<path d="M645.406 638.844H588.594C584.866 638.844 581.844 641.866 581.844 645.594V702.406C581.844 706.134 584.866 709.156 588.594 709.156H645.406C649.134 709.156 652.156 706.134 652.156 702.406V645.594C652.156 641.866 649.134 638.844 645.406 638.844Z" fill="#E0F1FF"/>
<path d="M604.625 638.844H606.312V709.156H604.625V638.844Z" fill="#E0E0E0"/>
<path d="M628.25 638.844H629.938V709.156H628.25V638.844Z" fill="#E0E0E0"/>
<path d="M604.625 638.844H606.312V709.156H604.625V638.844Z" fill="#A8D6FF"/>
<path d="M628.25 638.844H629.938V709.156H628.25V638.844Z" fill="#A8D6FF"/>
<path d="M652.156 645.594V655.719H581.844V645.594C581.844 643.804 582.555 642.087 583.821 640.821C585.087 639.555 586.804 638.844 588.594 638.844H645.406C647.196 638.844 648.913 639.555 650.179 640.821C651.445 642.087 652.156 643.804 652.156 645.594Z" fill="#99CFFF"/>
<path d="M595.906 642.781H590.844C589.912 642.781 589.156 643.537 589.156 644.469V649.531C589.156 650.463 589.912 651.219 590.844 651.219H595.906C596.838 651.219 597.594 650.463 597.594 649.531V644.469C597.594 643.537 596.838 642.781 595.906 642.781Z" fill="#33A3FF"/>
<path d="M640.625 651.219C642.955 651.219 644.844 649.33 644.844 647C644.844 644.67 642.955 642.781 640.625 642.781C638.295 642.781 636.406 644.67 636.406 647C636.406 649.33 638.295 651.219 640.625 651.219Z" fill="#33A3FF"/>
<path d="M620.798 651.22H613.163C613.042 651.22 612.923 651.188 612.817 651.128C612.712 651.067 612.625 650.98 612.563 650.876C612.502 650.771 612.47 650.652 612.469 650.53C612.468 650.409 612.499 650.29 612.559 650.184L616.376 643.425C616.437 643.318 616.525 643.229 616.631 643.167C616.737 643.105 616.858 643.072 616.981 643.072C617.104 643.072 617.224 643.105 617.331 643.167C617.437 643.229 617.525 643.318 617.585 643.425L621.403 650.184C621.462 650.29 621.493 650.409 621.492 650.53C621.492 650.652 621.459 650.771 621.398 650.876C621.337 650.98 621.249 651.067 621.144 651.128C621.039 651.188 620.919 651.22 620.798 651.22Z" fill="#33A3FF"/>
<path d="M600.969 665.562V671.538C600.969 671.765 600.923 671.99 600.834 672.199C600.745 672.408 600.615 672.597 600.451 672.754L595.552 677.466C595.238 677.769 594.819 677.938 594.382 677.938H588.031C587.584 677.938 587.154 677.76 586.838 677.443C586.522 677.127 586.344 676.698 586.344 676.25V665.562C586.344 665.115 586.522 664.686 586.838 664.369C587.154 664.053 587.584 663.875 588.031 663.875H599.281C599.729 663.875 600.158 664.053 600.474 664.369C600.791 664.686 600.969 665.115 600.969 665.562Z" fill="#FFC107"/>
<path d="M596.75 672.256C596.302 672.256 595.873 672.434 595.557 672.75C595.24 673.067 595.062 673.496 595.062 673.943V677.789C595.244 677.711 595.409 677.602 595.552 677.466L597.144 675.936L600.452 672.754C600.598 672.61 600.715 672.442 600.8 672.256H596.75Z" fill="#FFAD1D"/>
<path d="M593.656 669.5C594.511 669.5 595.203 668.807 595.203 667.953C595.203 667.099 594.511 666.406 593.656 666.406C592.802 666.406 592.109 667.099 592.109 667.953C592.109 668.807 592.802 669.5 593.656 669.5Z" fill="white"/>
<path d="M624.312 665.562V671.538C624.313 671.765 624.267 671.99 624.178 672.199C624.089 672.408 623.959 672.597 623.795 672.754L618.896 677.466C618.582 677.769 618.162 677.938 617.726 677.938H611.375C610.927 677.938 610.498 677.76 610.182 677.443C609.865 677.127 609.688 676.698 609.688 676.25V665.562C609.688 665.115 609.865 664.686 610.182 664.369C610.498 664.053 610.927 663.875 611.375 663.875H622.625C623.073 663.875 623.502 664.053 623.818 664.369C624.135 664.686 624.312 665.115 624.312 665.562Z" fill="#E91E63"/>
<path d="M620.094 672.256C619.646 672.256 619.217 672.434 618.901 672.75C618.584 673.067 618.406 673.496 618.406 673.943V677.789C618.587 677.711 618.753 677.602 618.896 677.466L620.487 675.936L623.796 672.754C623.941 672.61 624.059 672.442 624.144 672.256H620.094Z" fill="#C2185B"/>
<path d="M617 669.5C617.854 669.5 618.547 668.807 618.547 667.953C618.547 667.099 617.854 666.406 617 666.406C616.146 666.406 615.453 667.099 615.453 667.953C615.453 668.807 616.146 669.5 617 669.5Z" fill="white"/>
<path d="M624.312 689.469V695.444C624.313 695.671 624.267 695.896 624.178 696.105C624.089 696.314 623.959 696.503 623.795 696.66L618.896 701.372C618.582 701.675 618.162 701.844 617.726 701.844H611.375C610.927 701.844 610.498 701.666 610.182 701.349C609.865 701.033 609.688 700.604 609.688 700.156V689.469C609.688 689.021 609.865 688.592 610.182 688.276C610.498 687.959 610.927 687.781 611.375 687.781H622.625C623.073 687.781 623.502 687.959 623.818 688.276C624.135 688.592 624.312 689.021 624.312 689.469Z" fill="#E91E63"/>
<path d="M620.094 696.162C619.646 696.162 619.217 696.34 618.901 696.656C618.584 696.973 618.406 697.402 618.406 697.85V701.695C618.587 701.617 618.753 701.508 618.896 701.372L620.486 699.843L623.795 696.66C623.941 696.517 624.06 696.348 624.146 696.162H620.094Z" fill="#C2185B"/>
<path d="M617 693.406C617.854 693.406 618.547 692.714 618.547 691.859C618.547 691.005 617.854 690.312 617 690.312C616.146 690.312 615.453 691.005 615.453 691.859C615.453 692.714 616.146 693.406 617 693.406Z" fill="white"/>
<path d="M647.938 689.469V695.444C647.938 695.671 647.892 695.896 647.803 696.105C647.714 696.314 647.584 696.503 647.42 696.66L642.521 701.372C642.207 701.675 641.787 701.844 641.351 701.844H635C634.552 701.844 634.123 701.666 633.807 701.349C633.49 701.033 633.312 700.604 633.312 700.156V689.469C633.312 689.021 633.49 688.592 633.807 688.276C634.123 687.959 634.552 687.781 635 687.781H646.25C646.698 687.781 647.127 687.959 647.443 688.276C647.76 688.592 647.938 689.021 647.938 689.469Z" fill="#00BCD4"/>
<path d="M643.719 696.162C643.271 696.162 642.842 696.34 642.526 696.656C642.209 696.973 642.031 697.402 642.031 697.85V701.695C642.212 701.617 642.378 701.508 642.521 701.372L644.111 699.843L647.42 696.66C647.566 696.517 647.685 696.348 647.771 696.162H643.719Z" fill="#0097A7"/>
<path d="M640.625 693.406C641.479 693.406 642.172 692.714 642.172 691.859C642.172 691.005 641.479 690.312 640.625 690.312C639.771 690.312 639.078 691.005 639.078 691.859C639.078 692.714 639.771 693.406 640.625 693.406Z" fill="white"/>
<path d="M604.625 638.844H606.312V655.719H604.625V638.844Z" fill="#37474F"/>
<path d="M628.25 638.844H629.938V655.719H628.25V638.844Z" fill="#37474F"/>
<path d="M604.625 638.844H606.312V655.719H604.625V638.844Z" fill="#66B7FF"/>
<path d="M628.25 638.844H629.938V655.719H628.25V638.844Z" fill="#66B7FF"/>
</g>
<rect x="688" y="638" width="70" height="72" rx="6" fill="#E0F1FF"/>
<rect x="723.801" y="649.199" width="20" height="4" rx="2" fill="#8BCAFF"/>
<rect x="723.801" y="657.199" width="20" height="4" rx="2" fill="#8BCAFF"/>
<path d="M708.661 654.865V648.996C704.525 648.996 701.191 652.427 701.349 656.598C701.493 660.391 704.583 663.481 708.376 663.625C712.547 663.783 715.978 660.449 715.978 656.313H710.11C709.309 656.313 708.661 655.665 708.661 654.865Z" fill="#E49542"/>
<path d="M708.66 648.996V654.865C708.66 655.665 709.309 656.313 710.109 656.313H715.977C715.977 652.272 712.701 648.996 708.66 648.996Z" fill="#C8EA73"/>
<path d="M701.93 698.303V701.247C701.93 701.727 702.319 702.117 702.799 702.117H708.085C708.565 702.117 708.954 701.727 708.954 701.247V698.303C708.954 697.823 708.565 697.434 708.085 697.434H702.799C702.319 697.434 701.93 697.823 701.93 698.303Z" fill="#4073C8"/>
<path d="M713.637 691.279V701.248C713.637 701.728 714.026 702.117 714.506 702.117H719.792C720.272 702.117 720.661 701.728 720.661 701.248V691.279C720.661 690.799 720.272 690.41 719.792 690.41H714.506C714.026 690.41 713.637 690.799 713.637 691.279Z" fill="#E49542"/>
<path d="M714.505 702.117H719.791C720.272 702.117 720.661 701.728 720.661 701.248V698.719C718.398 699.87 716.131 700.911 713.871 701.841C714.03 702.01 714.255 702.117 714.505 702.117Z" fill="#E28424"/>
<path d="M725.344 682.498V701.248C725.344 701.728 725.733 702.117 726.213 702.117H731.499C731.979 702.117 732.368 701.728 732.368 701.248V682.498C732.368 682.018 731.979 681.629 731.499 681.629H726.213C725.733 681.629 725.344 682.018 725.344 682.498Z" fill="#DD5790"/>
<path d="M732.368 691.699C731.73 692.143 731.087 692.584 730.432 693.017C728.748 694.132 727.05 695.183 725.344 696.172V701.248C725.344 701.728 725.733 702.117 726.213 702.117H731.499C731.979 702.117 732.368 701.728 732.368 701.248V691.699Z" fill="#DA387D"/>
<path d="M737.051 676.645V701.248C737.051 701.728 737.44 702.117 737.92 702.117H743.206C743.686 702.117 744.075 701.728 744.075 701.248V676.645C744.075 676.164 743.686 675.775 743.206 675.775H737.92C737.44 675.775 737.051 676.164 737.051 676.645Z" fill="#C8EA73"/>
<path d="M744.075 682.143C741.888 684.239 739.544 686.279 737.051 688.239V701.247C737.051 701.727 737.44 702.116 737.92 702.116H743.206C743.686 702.116 744.075 701.727 744.075 701.247V682.143Z" fill="#B7E445"/>
<rect x="703" y="670" width="20" height="4" rx="2" fill="#8BCAFF"/>
<rect x="703" y="678" width="10.4" height="4" rx="2" fill="#8BCAFF"/>
<path fill-rule="evenodd" clip-rule="evenodd" d="M804.402 638C801.751 638 799.602 640.149 799.602 642.8V705.2C799.602 707.851 801.751 710 804.402 710H847.602C850.253 710 852.402 707.851 852.402 705.2V654.8L835.602 638H804.402Z" fill="#D9EDFF"/>
<rect x="810.401" y="662" width="31.2" height="3.6" rx="1.8" fill="#8BCAFF"/>
<rect x="810.401" y="672.8" width="31.2" height="3.6" rx="1.8" fill="#8BCAFF"/>
<rect x="810.401" y="683.6" width="31.2" height="3.6" rx="1.8" fill="#8BCAFF"/>
<rect x="810.401" y="694.4" width="31.2" height="3.6" rx="1.8" fill="#8BCAFF"/>
<path d="M835.602 638L852.402 654.8H841.602C838.288 654.8 835.602 652.114 835.602 648.8V638Z" fill="#B4DBFF"/>
</g>
<rect x="487" y="72" width="80" height="80" rx="20" fill="white"/>
<g clip-path="url(#clip1_867_38157)">
<path d="M506.615 127.268L508.726 130.929C509.164 131.699 509.795 132.305 510.537 132.746L518.107 127.379L518.12 119.674L510.566 116.271L503 119.647C502.999 120.499 503.217 121.352 503.655 122.122L506.615 127.268Z" fill="#0066DD"/>
<path d="M527.027 104.294L527.422 94.257L519.491 91.1948C518.748 91.6334 518.114 92.237 517.673 93.006L503.664 117.173C503.223 117.942 503.002 118.794 503 119.646L518.12 119.673L527.027 104.294Z" fill="#00AD3C"/>
<path d="M527.028 104.294L534.293 100.386L534.611 91.222C533.87 90.7808 533.018 90.5593 532.138 90.5577L521.966 90.5396C521.086 90.538 520.234 90.7839 519.491 91.195L527.028 104.294Z" fill="#00831E"/>
<path d="M535.879 119.706L518.12 119.674L510.537 132.746C511.278 133.187 512.13 133.409 513.01 133.41L540.941 133.46C541.821 133.462 542.673 133.216 543.416 132.805L543.446 124.024L535.879 119.706Z" fill="#0084FF"/>
<path d="M543.416 132.805C544.159 132.366 544.793 131.762 545.234 130.993L546.117 129.483L550.336 122.205C550.777 121.436 550.998 120.585 551 119.732L542.26 115.134L535.907 119.705L543.416 132.805Z" fill="#FF4131"/>
<path d="M543.383 105.148L536.422 93.0394C535.984 92.2688 535.352 91.6629 534.611 91.2217L527.027 104.294L535.88 119.705L550.972 119.732C550.974 118.88 550.755 118.027 550.317 117.257L543.383 105.148Z" fill="#FFBA00"/>
</g>
<rect x="680" y="72" width="80" height="80" rx="20" fill="white"/>
<g clip-path="url(#clip2_867_38157)">
<path d="M697.6 126.4V132.8C697.6 134.567 699.033 136 700.8 136H739.2C740.967 136 742.4 134.567 742.4 132.8V126.4H697.6Z" fill="#B5DBFF"/>
<path d="M740.179 126.4V132.8C740.179 134.567 738.746 136 736.979 136H739.2C740.968 136 742.4 134.567 742.4 132.8V126.4H740.179Z" fill="#97D0FF"/>
<path d="M697.6 100.8V129.6C697.6 131.367 699.033 132.8 700.8 132.8H739.2C740.967 132.8 742.4 131.367 742.4 129.6V100.8H697.6Z" fill="#EDF5FF"/>
<path d="M740.178 100.8V129.6C740.178 131.367 738.746 132.8 736.979 132.8H739.2C740.967 132.8 742.4 131.367 742.4 129.6V100.8H740.178Z" fill="#D5E8FE"/>
<path d="M742.4 102.4V94.4001C742.4 92.6328 740.967 91.2002 739.2 91.2002H700.8C699.033 91.2002 697.6 92.6329 697.6 94.4001V102.4H742.4Z" fill="#FF435B"/>
<path d="M707.2 95.1245H705.6C705.2 95.1245 704.875 94.8002 704.875 94.4001C704.875 94.0001 705.2 93.6758 705.6 93.6758H707.2C707.6 93.6758 707.924 94.0001 707.924 94.4001C707.924 94.8002 707.6 95.1245 707.2 95.1245Z" fill="#E3374E"/>
<path d="M712 95.1245H710.4C710 95.1245 709.676 94.8002 709.676 94.4001C709.676 94.0001 710 93.6758 710.4 93.6758H712C712.4 93.6758 712.724 94.0001 712.724 94.4001C712.724 94.8002 712.4 95.1245 712 95.1245Z" fill="#E3374E"/>
<path d="M729.6 95.1245H728C727.6 95.1245 727.276 94.8002 727.276 94.4001C727.276 94.0001 727.6 93.6758 728 93.6758H729.6C730 93.6758 730.325 94.0001 730.325 94.4001C730.325 94.8002 730 95.1245 729.6 95.1245Z" fill="#E3374E"/>
<path d="M734.4 95.1245H732.8C732.4 95.1245 732.076 94.8002 732.076 94.4001C732.076 94.0001 732.4 93.6758 732.8 93.6758H734.4C734.8 93.6758 735.124 94.0001 735.124 94.4001C735.124 94.8002 734.8 95.1245 734.4 95.1245Z" fill="#E3374E"/>
<path d="M707.2 94.4C707.2 95.2836 707.917 96.0001 708.8 96.0001C709.684 96.0001 710.4 95.2837 710.4 94.4V89.6C710.4 88.7163 709.684 88 708.8 88C707.917 88 707.2 88.7163 707.2 89.6L707.2 94.4Z" fill="#596C76"/>
<path d="M729.6 94.4C729.6 95.2836 730.316 96.0001 731.2 96.0001C732.084 96.0001 732.8 95.2837 732.8 94.4V89.6C732.8 88.7163 732.084 88 731.2 88C730.316 88 729.6 88.7163 729.6 89.6V94.4Z" fill="#596C76"/>
<path d="M739.2 91.2002H736.979C738.746 91.2002 740.178 92.6329 740.178 94.4001V102.4H742.4V94.4002C742.4 92.6329 740.967 91.2002 739.2 91.2002Z" fill="#E3374E"/>
<path d="M697.6 98.4761H742.4V99.9248H697.6V98.4761Z" fill="#E3374E"/>
<path d="M716.473 117.6C717.657 116.504 718.4 114.937 718.4 113.2C718.4 109.892 715.708 107.2 712.4 107.2C709.091 107.2 706.4 109.892 706.4 113.2C706.4 114.084 707.116 114.8 708 114.8C708.884 114.8 709.6 114.084 709.6 113.2C709.6 111.656 710.856 110.4 712.4 110.4C713.944 110.4 715.2 111.656 715.2 113.2C715.2 114.744 713.944 116 712.4 116C711.516 116 710.8 116.717 710.8 117.6C710.8 118.484 711.516 119.2 712.4 119.2C713.944 119.2 715.2 120.456 715.2 122C715.2 123.544 713.944 124.8 712.4 124.8C710.856 124.8 709.6 123.544 709.6 122C709.6 121.117 708.884 120.4 708 120.4C707.116 120.4 706.4 121.117 706.4 122C706.4 125.309 709.091 128 712.4 128C715.708 128 718.4 125.309 718.4 122C718.4 120.263 717.657 118.697 716.473 117.6Z" fill="#596C76"/>
<path d="M727.6 128C724.292 128 721.6 125.309 721.6 122V113.2C721.6 109.892 724.292 107.2 727.6 107.2C730.909 107.2 733.6 109.892 733.6 113.2V122C733.6 125.309 730.908 128 727.6 128ZM727.6 110.4C726.056 110.4 724.8 111.656 724.8 113.2V122C724.8 123.544 726.056 124.8 727.6 124.8C729.144 124.8 730.4 123.544 730.4 122V113.2C730.4 111.656 729.144 110.4 727.6 110.4Z" fill="#596C76"/>
</g>
<path d="M718.939 251.561C719.525 252.146 720.475 252.146 721.061 251.561L730.607 242.015C731.192 241.429 731.192 240.479 730.607 239.893C730.021 239.308 729.071 239.308 728.485 239.893L720 248.379L711.515 239.893C710.929 239.308 709.979 239.308 709.393 239.893C708.808 240.479 708.808 241.429 709.393 242.015L718.939 251.561ZM721.5 250.5V244.438H718.5V250.5H721.5ZM721.5 232.312V220.188H718.5V232.312H721.5ZM721.5 208.062V202H718.5V208.062H721.5ZM721.5 202C721.5 200.619 722.619 199.5 724 199.5V196.5C720.962 196.5 718.5 198.962 718.5 202H721.5ZM724 199.5H729.781V196.5H724V199.5ZM741.344 199.5H752.906V196.5H741.344V199.5ZM764.469 199.5H776.031V196.5H764.469V199.5ZM787.594 199.5H799.156V196.5H787.594V199.5ZM810.719 199.5H822.281V196.5H810.719V199.5ZM833.844 199.5H845.406V196.5H833.844V199.5ZM856.969 199.5H868.531V196.5H856.969V199.5ZM880.094 199.5H891.656V196.5H880.094V199.5ZM903.219 199.5H909V196.5H903.219V199.5ZM909 199.5C912.038 199.5 914.5 197.038 914.5 194H911.5C911.5 195.381 910.381 196.5 909 196.5V199.5ZM914.5 194V188.5H911.5V194H914.5ZM914.5 177.5V166.5H911.5V177.5H914.5ZM914.5 155.5V150H911.5V155.5H914.5Z" fill="#C1773A"/>
<circle cx="913" cy="144" r="6" stroke="#C1773A" stroke-width="3"/>
<circle cx="720" cy="144" r="6" stroke="#C1773A" stroke-width="3"/>
<path d="M718.939 251.561C719.525 252.146 720.475 252.146 721.061 251.561L730.607 242.015C731.192 241.429 731.192 240.479 730.607 239.893C730.021 239.308 729.071 239.308 728.485 239.893L720 248.379L711.515 239.893C710.929 239.308 709.979 239.308 709.393 239.893C708.808 240.479 708.808 241.429 709.393 242.015L718.939 251.561ZM718.5 150V156.281H721.5V150H718.5ZM718.5 168.844V181.406H721.5V168.844H718.5ZM718.5 193.969V206.531H721.5V193.969H718.5ZM718.5 219.094V231.656H721.5V219.094H718.5ZM718.5 244.219V250.5H721.5V244.219H718.5Z" fill="#C1773A"/>
<path d="M718.939 251.561C719.525 252.146 720.475 252.146 721.061 251.561L730.607 242.015C731.192 241.429 731.192 240.479 730.607 239.893C730.021 239.308 729.071 239.308 728.485 239.893L720 248.379L711.515 239.893C710.929 239.308 709.979 239.308 709.393 239.893C708.808 240.479 708.808 241.429 709.393 242.015L718.939 251.561ZM332.5 150V155.5H335.5V150H332.5ZM332.5 166.5V177.5H335.5V166.5H332.5ZM332.5 188.5V194H335.5V188.5H332.5ZM332.5 194C332.5 197.038 334.962 199.5 338 199.5V196.5C336.619 196.5 335.5 195.381 335.5 194H332.5ZM338 199.5H343.906V196.5H338V199.5ZM355.719 199.5H367.531V196.5H355.719V199.5ZM379.344 199.5H391.156V196.5H379.344V199.5ZM402.969 199.5H414.781V196.5H402.969V199.5ZM426.594 199.5H438.406V196.5H426.594V199.5ZM450.219 199.5H462.031V196.5H450.219V199.5ZM473.844 199.5H485.656V196.5H473.844V199.5ZM497.469 199.5H509.281V196.5H497.469V199.5ZM521.094 199.5H532.906V196.5H521.094V199.5ZM544.719 199.5H556.531V196.5H544.719V199.5ZM568.344 199.5H580.156V196.5H568.344V199.5ZM591.969 199.5H603.781V196.5H591.969V199.5ZM615.594 199.5H627.406V196.5H615.594V199.5ZM639.219 199.5H651.031V196.5H639.219V199.5ZM662.844 199.5H674.656V196.5H662.844V199.5ZM686.469 199.5H698.281V196.5H686.469V199.5ZM710.094 199.5H716V196.5H710.094V199.5ZM716 199.5C717.381 199.5 718.5 200.619 718.5 202H721.5C721.5 198.962 719.038 196.5 716 196.5V199.5ZM718.5 202V208.062H721.5V202H718.5ZM718.5 220.188V232.312H721.5V220.188H718.5ZM718.5 244.438V250.5H721.5V244.438H718.5Z" fill="#C1773A"/>
<circle cx="334" cy="144" r="6" stroke="#C1773A" stroke-width="3"/>
<path d="M718.939 251.561C719.525 252.146 720.475 252.146 721.061 251.561L730.607 242.015C731.192 241.429 731.192 240.479 730.607 239.893C730.021 239.308 729.071 239.308 728.485 239.893L720 248.379L711.515 239.893C710.929 239.308 709.979 239.308 709.393 239.893C708.808 240.479 708.808 241.429 709.393 242.015L718.939 251.561ZM721.5 250.5V244.438H718.5V250.5H721.5ZM721.5 232.312V220.188H718.5V232.312H721.5ZM721.5 208.062V202H718.5V208.062H721.5ZM721.5 202C721.5 200.619 722.619 199.5 724 199.5V196.5C720.962 196.5 718.5 198.962 718.5 202H721.5ZM724 199.5H729.906V196.5H724V199.5ZM741.719 199.5H753.531V196.5H741.719V199.5ZM765.344 199.5H777.156V196.5H765.344V199.5ZM788.969 199.5H800.781V196.5H788.969V199.5ZM812.594 199.5H824.406V196.5H812.594V199.5ZM836.219 199.5H848.031V196.5H836.219V199.5ZM859.844 199.5H871.656V196.5H859.844V199.5ZM883.469 199.5H895.281V196.5H883.469V199.5ZM907.094 199.5H918.906V196.5H907.094V199.5ZM930.719 199.5H942.531V196.5H930.719V199.5ZM954.344 199.5H966.156V196.5H954.344V199.5ZM977.969 199.5H989.781V196.5H977.969V199.5ZM1001.59 199.5H1013.41V196.5H1001.59V199.5ZM1025.22 199.5H1037.03V196.5H1025.22V199.5ZM1048.84 199.5H1060.66V196.5H1048.84V199.5ZM1072.47 199.5H1084.28V196.5H1072.47V199.5ZM1096.09 199.5H1102V196.5H1096.09V199.5ZM1102 199.5C1105.04 199.5 1107.5 197.038 1107.5 194H1104.5C1104.5 195.381 1103.38 196.5 1102 196.5V199.5ZM1107.5 194V188.5H1104.5V194H1107.5ZM1107.5 177.5V166.5H1104.5V177.5H1107.5ZM1107.5 155.5V150H1104.5V155.5H1107.5Z" fill="#C1773A"/>
<circle cx="1106" cy="144" r="6" stroke="#C1773A" stroke-width="3"/>
<g filter="url(#filter1_d_867_38157)">
<rect x="272.5" y="458" width="134" height="56" rx="28" fill="white" shape-rendering="crispEdges"/>
<g clip-path="url(#clip3_867_38157)">
<path d="M301.343 486.65C299.951 486.65 298.822 487.779 298.822 489.171V495.477C298.822 496.869 299.951 497.998 301.343 497.998C302.735 497.998 303.864 496.869 303.864 495.477V489.171C303.863 487.779 302.734 486.65 301.343 486.65Z" fill="#E91E63"/>
<path d="M292.518 489.172C292.518 490.565 293.648 491.695 295.041 491.695C296.434 491.695 297.564 490.565 297.564 489.172V486.649H295.043C295.042 486.649 295.042 486.649 295.041 486.649C293.648 486.649 292.518 487.779 292.518 489.172Z" fill="#E91E63"/>
<path d="M301.345 473.999C301.344 473.999 301.343 473.999 301.342 473.999C299.949 473.999 298.819 475.129 298.819 476.522C298.819 477.915 299.949 479.045 301.342 479.045H303.863V476.522C303.863 476.521 303.863 476.519 303.863 476.517C303.862 475.126 302.735 473.999 301.345 473.999Z" fill="#00BCD4"/>
<path d="M295.026 485.37H301.344C302.737 485.37 303.867 484.24 303.867 482.847C303.867 481.454 302.737 480.324 301.344 480.324H295.026C293.633 480.324 292.503 481.454 292.503 482.847C292.503 484.24 293.633 485.37 295.026 485.37Z" fill="#00BCD4"/>
<path d="M313.958 480.324C312.567 480.324 311.44 481.451 311.44 482.842V482.847V485.37H313.961C315.354 485.37 316.484 484.24 316.484 482.847C316.484 481.454 315.354 480.324 313.961 480.324C313.96 480.324 313.959 480.324 313.958 480.324Z" fill="#4CAF50"/>
<path d="M305.142 476.522V482.847C305.142 484.239 306.271 485.368 307.663 485.368C309.055 485.368 310.184 484.239 310.184 482.847V476.522C310.184 475.13 309.055 474.001 307.663 474.001C306.271 474.001 305.142 475.13 305.142 476.522Z" fill="#4CAF50"/>
<path d="M310.184 495.476C310.184 494.084 309.055 492.955 307.663 492.955H305.142V495.478C305.143 496.869 306.271 497.997 307.663 497.997C309.055 497.997 310.184 496.868 310.184 495.476Z" fill="#FF9800"/>
<path d="M313.98 486.649H307.662C306.269 486.649 305.139 487.779 305.139 489.172C305.139 490.565 306.269 491.695 307.662 491.695H313.98C315.373 491.695 316.503 490.565 316.503 489.172C316.503 487.779 315.373 486.649 313.98 486.649Z" fill="#FF9800"/>
</g>
<path d="M334.68 493.16C333.613 493.16 332.593 493 331.62 492.68C330.647 492.347 329.88 491.92 329.32 491.4L330.06 489.84C330.593 490.307 331.273 490.693 332.1 491C332.927 491.307 333.787 491.46 334.68 491.46C335.493 491.46 336.153 491.367 336.66 491.18C337.167 490.993 337.54 490.74 337.78 490.42C338.02 490.087 338.14 489.713 338.14 489.3C338.14 488.82 337.98 488.433 337.66 488.14C337.353 487.847 336.947 487.613 336.44 487.44C335.947 487.253 335.4 487.093 334.8 486.96C334.2 486.827 333.593 486.673 332.98 486.5C332.38 486.313 331.827 486.08 331.32 485.8C330.827 485.52 330.427 485.147 330.12 484.68C329.813 484.2 329.66 483.587 329.66 482.84C329.66 482.12 329.847 481.46 330.22 480.86C330.607 480.247 331.193 479.76 331.98 479.4C332.78 479.027 333.793 478.84 335.02 478.84C335.833 478.84 336.64 478.947 337.44 479.16C338.24 479.373 338.933 479.68 339.52 480.08L338.86 481.68C338.26 481.28 337.627 480.993 336.96 480.82C336.293 480.633 335.647 480.54 335.02 480.54C334.233 480.54 333.587 480.64 333.08 480.84C332.573 481.04 332.2 481.307 331.96 481.64C331.733 481.973 331.62 482.347 331.62 482.76C331.62 483.253 331.773 483.647 332.08 483.94C332.4 484.233 332.807 484.467 333.3 484.64C333.807 484.813 334.36 484.973 334.96 485.12C335.56 485.253 336.16 485.407 336.76 485.58C337.373 485.753 337.927 485.98 338.42 486.26C338.927 486.54 339.333 486.913 339.64 487.38C339.947 487.847 340.1 488.447 340.1 489.18C340.1 489.887 339.907 490.547 339.52 491.16C339.133 491.76 338.533 492.247 337.72 492.62C336.92 492.98 335.907 493.16 334.68 493.16ZM342.742 493V478.16H344.662V493H342.742ZM354.908 493V490.76L354.808 490.34V486.52C354.808 485.707 354.568 485.08 354.088 484.64C353.621 484.187 352.914 483.96 351.968 483.96C351.341 483.96 350.728 484.067 350.128 484.28C349.528 484.48 349.021 484.753 348.608 485.1L347.808 483.66C348.354 483.22 349.008 482.887 349.768 482.66C350.541 482.42 351.348 482.3 352.188 482.3C353.641 482.3 354.761 482.653 355.548 483.36C356.334 484.067 356.728 485.147 356.728 486.6V493H354.908ZM351.428 493.12C350.641 493.12 349.948 492.987 349.348 492.72C348.761 492.453 348.308 492.087 347.988 491.62C347.668 491.14 347.508 490.6 347.508 490C347.508 489.427 347.641 488.907 347.908 488.44C348.188 487.973 348.634 487.6 349.248 487.32C349.874 487.04 350.714 486.9 351.768 486.9H355.128V488.28H351.848C350.888 488.28 350.241 488.44 349.908 488.76C349.574 489.08 349.408 489.467 349.408 489.92C349.408 490.44 349.614 490.86 350.028 491.18C350.441 491.487 351.014 491.64 351.748 491.64C352.468 491.64 353.094 491.48 353.628 491.16C354.174 490.84 354.568 490.373 354.808 489.76L355.188 491.08C354.934 491.707 354.488 492.207 353.848 492.58C353.208 492.94 352.401 493.12 351.428 493.12ZM364.901 493.12C363.821 493.12 362.854 492.887 362.001 492.42C361.161 491.953 360.501 491.313 360.021 490.5C359.541 489.687 359.301 488.753 359.301 487.7C359.301 486.647 359.541 485.713 360.021 484.9C360.501 484.087 361.161 483.453 362.001 483C362.854 482.533 363.821 482.3 364.901 482.3C365.861 482.3 366.714 482.493 367.461 482.88C368.221 483.253 368.808 483.813 369.221 484.56L367.761 485.5C367.414 484.98 366.988 484.6 366.481 484.36C365.988 484.107 365.454 483.98 364.881 483.98C364.188 483.98 363.568 484.133 363.021 484.44C362.474 484.747 362.041 485.18 361.721 485.74C361.401 486.287 361.241 486.94 361.241 487.7C361.241 488.46 361.401 489.12 361.721 489.68C362.041 490.24 362.474 490.673 363.021 490.98C363.568 491.287 364.188 491.44 364.881 491.44C365.454 491.44 365.988 491.32 366.481 491.08C366.988 490.827 367.414 490.44 367.761 489.92L369.221 490.84C368.808 491.573 368.221 492.14 367.461 492.54C366.714 492.927 365.861 493.12 364.901 493.12ZM373.13 490.44L373.17 487.98L379.27 482.4H381.59L376.91 487L375.87 487.88L373.13 490.44ZM371.57 493V478.16H373.49V493H371.57ZM379.67 493L375.51 487.84L376.75 486.3L382.03 493H379.67Z" fill="black"/>
</g>
<ellipse cx="720.212" cy="337.992" rx="6.21229" ry="2.992" stroke="#C1773A" stroke-width="3"/>
<g filter="url(#filter2_d_867_38157)">
<rect x="785" y="458" width="163" height="56" rx="28" fill="white" shape-rendering="crispEdges"/>
<g clip-path="url(#clip4_867_38157)">
<path d="M807.897 478.181C813.476 471.69 823.82 472.971 827.685 480.554C824.963 480.556 820.701 480.553 818.393 480.554C816.719 480.554 815.637 480.517 814.467 481.133C813.092 481.858 812.052 483.2 811.691 484.778L807.897 478.181Z" fill="#F44336"/>
<path d="M813.008 486.001C813.008 488.201 814.798 489.991 816.997 489.991C819.196 489.991 820.985 488.201 820.985 486.001C820.985 483.8 819.196 482.011 816.997 482.011C814.796 482.009 813.008 483.8 813.008 486.001Z" fill="#2196F3"/>
<path d="M818.543 491.224C816.305 491.888 813.685 491.152 812.251 488.674C811.156 486.784 808.261 481.742 806.947 479.449C802.339 486.511 806.309 496.133 814.673 497.776L818.543 491.224Z" fill="#4CAF50"/>
<path d="M820.7 482.009C822.565 483.743 822.971 486.551 821.708 488.728C820.757 490.369 817.72 495.494 816.248 497.975C824.865 498.506 831.147 490.061 828.309 482.008L820.7 482.009Z" fill="#FFC107"/>
</g>
<path d="M849.36 493.16C848.293 493.16 847.307 492.987 846.4 492.64C845.507 492.28 844.727 491.78 844.06 491.14C843.407 490.487 842.893 489.727 842.52 488.86C842.147 487.993 841.96 487.04 841.96 486C841.96 484.96 842.147 484.007 842.52 483.14C842.893 482.273 843.413 481.52 844.08 480.88C844.747 480.227 845.527 479.727 846.42 479.38C847.327 479.02 848.313 478.84 849.38 478.84C850.46 478.84 851.453 479.027 852.36 479.4C853.28 479.76 854.06 480.3 854.7 481.02L853.4 482.28C852.867 481.72 852.267 481.307 851.6 481.04C850.933 480.76 850.22 480.62 849.46 480.62C848.673 480.62 847.94 480.753 847.26 481.02C846.593 481.287 846.013 481.66 845.52 482.14C845.027 482.62 844.64 483.193 844.36 483.86C844.093 484.513 843.96 485.227 843.96 486C843.96 486.773 844.093 487.493 844.36 488.16C844.64 488.813 845.027 489.38 845.52 489.86C846.013 490.34 846.593 490.713 847.26 490.98C847.94 491.247 848.673 491.38 849.46 491.38C850.22 491.38 850.933 491.247 851.6 490.98C852.267 490.7 852.867 490.273 853.4 489.7L854.7 490.96C854.06 491.68 853.28 492.227 852.36 492.6C851.453 492.973 850.453 493.16 849.36 493.16ZM862.933 482.3C863.8 482.3 864.56 482.467 865.213 482.8C865.88 483.133 866.4 483.64 866.773 484.32C867.146 485 867.333 485.86 867.333 486.9V493H865.413V487.12C865.413 486.093 865.16 485.32 864.653 484.8C864.16 484.28 863.46 484.02 862.553 484.02C861.873 484.02 861.28 484.153 860.773 484.42C860.266 484.687 859.873 485.08 859.593 485.6C859.326 486.12 859.193 486.767 859.193 487.54V493H857.273V478.16H859.193V485.26L858.813 484.5C859.16 483.807 859.693 483.267 860.413 482.88C861.133 482.493 861.973 482.3 862.933 482.3ZM870.886 493V482.4H872.726V485.28L872.546 484.56C872.84 483.827 873.333 483.267 874.026 482.88C874.72 482.493 875.573 482.3 876.586 482.3V484.16C876.506 484.147 876.426 484.14 876.346 484.14C876.28 484.14 876.213 484.14 876.146 484.14C875.12 484.14 874.306 484.447 873.706 485.06C873.106 485.673 872.806 486.56 872.806 487.72V493H870.886ZM883.395 493.12C882.328 493.12 881.382 492.887 880.555 492.42C879.728 491.953 879.075 491.313 878.595 490.5C878.115 489.673 877.875 488.74 877.875 487.7C877.875 486.647 878.115 485.713 878.595 484.9C879.075 484.087 879.728 483.453 880.555 483C881.382 482.533 882.328 482.3 883.395 482.3C884.448 482.3 885.388 482.533 886.215 483C887.055 483.453 887.708 484.087 888.175 484.9C888.655 485.7 888.895 486.633 888.895 487.7C888.895 488.753 888.655 489.687 888.175 490.5C887.708 491.313 887.055 491.953 886.215 492.42C885.388 492.887 884.448 493.12 883.395 493.12ZM883.395 491.44C884.075 491.44 884.682 491.287 885.215 490.98C885.762 490.673 886.188 490.24 886.495 489.68C886.802 489.107 886.955 488.447 886.955 487.7C886.955 486.94 886.802 486.287 886.495 485.74C886.188 485.18 885.762 484.747 885.215 484.44C884.682 484.133 884.075 483.98 883.395 483.98C882.715 483.98 882.108 484.133 881.575 484.44C881.042 484.747 880.615 485.18 880.295 485.74C879.975 486.287 879.815 486.94 879.815 487.7C879.815 488.447 879.975 489.107 880.295 489.68C880.615 490.24 881.042 490.673 881.575 490.98C882.108 491.287 882.715 491.44 883.395 491.44ZM904.81 482.3C905.664 482.3 906.417 482.467 907.07 482.8C907.724 483.133 908.23 483.64 908.59 484.32C908.964 485 909.15 485.86 909.15 486.9V493H907.23V487.12C907.23 486.093 906.99 485.32 906.51 484.8C906.03 484.28 905.357 484.02 904.49 484.02C903.85 484.02 903.29 484.153 902.81 484.42C902.33 484.687 901.957 485.08 901.69 485.6C901.437 486.12 901.31 486.767 901.31 487.54V493H899.39V487.12C899.39 486.093 899.15 485.32 898.67 484.8C898.204 484.28 897.53 484.02 896.65 484.02C896.024 484.02 895.47 484.153 894.99 484.42C894.51 484.687 894.137 485.08 893.87 485.6C893.604 486.12 893.47 486.767 893.47 487.54V493H891.55V482.4H893.39V485.22L893.09 484.5C893.424 483.807 893.937 483.267 894.63 482.88C895.324 482.493 896.13 482.3 897.05 482.3C898.064 482.3 898.937 482.553 899.67 483.06C900.404 483.553 900.884 484.307 901.11 485.32L900.33 485C900.65 484.187 901.21 483.533 902.01 483.04C902.81 482.547 903.744 482.3 904.81 482.3ZM917.403 493.12C916.27 493.12 915.27 492.887 914.403 492.42C913.55 491.953 912.883 491.313 912.403 490.5C911.937 489.687 911.703 488.753 911.703 487.7C911.703 486.647 911.93 485.713 912.383 484.9C912.85 484.087 913.483 483.453 914.283 483C915.097 482.533 916.01 482.3 917.023 482.3C918.05 482.3 918.957 482.527 919.743 482.98C920.53 483.433 921.143 484.073 921.583 484.9C922.037 485.713 922.263 486.667 922.263 487.76C922.263 487.84 922.257 487.933 922.243 488.04C922.243 488.147 922.237 488.247 922.223 488.34H913.203V486.96H921.223L920.443 487.44C920.457 486.76 920.317 486.153 920.023 485.62C919.73 485.087 919.323 484.673 918.803 484.38C918.297 484.073 917.703 483.92 917.023 483.92C916.357 483.92 915.763 484.073 915.243 484.38C914.723 484.673 914.317 485.093 914.023 485.64C913.73 486.173 913.583 486.787 913.583 487.48V487.8C913.583 488.507 913.743 489.14 914.063 489.7C914.397 490.247 914.857 490.673 915.443 490.98C916.03 491.287 916.703 491.44 917.463 491.44C918.09 491.44 918.657 491.333 919.163 491.12C919.683 490.907 920.137 490.587 920.523 490.16L921.583 491.4C921.103 491.96 920.503 492.387 919.783 492.68C919.077 492.973 918.283 493.12 917.403 493.12Z" fill="black"/>
</g>
<g filter="url(#filter3_d_867_38157)">
<rect x="514" y="458" width="146" height="56" rx="28" fill="white" shape-rendering="crispEdges"/>
<path d="M554.166 482.612C555.557 482.612 556.689 481.477 556.689 480.082C556.55 476.726 551.781 476.727 551.643 480.082C551.643 481.477 552.775 482.612 554.166 482.612Z" fill="#464EB8"/>
<path d="M555.83 483.29H551.327H551.318C551.317 483.29 551.317 483.29 551.316 483.29C551.046 483.29 547.523 483.29 546.387 483.29V482.407C546.575 482.44 546.772 482.463 546.979 482.471C547.001 482.472 547.023 482.47 547.046 482.47C547.132 482.468 547.217 482.464 547.301 482.457C547.33 482.454 547.358 482.452 547.387 482.448C547.483 482.438 547.579 482.424 547.673 482.405C547.679 482.404 547.685 482.403 547.691 482.402C548.137 482.311 548.557 482.133 548.931 481.881C549.276 481.648 549.576 481.353 549.817 481.014C549.879 480.932 549.936 480.846 549.989 480.759C549.994 480.75 550 480.742 550.005 480.733C550.046 480.665 550.082 480.593 550.117 480.521C550.132 480.49 550.148 480.459 550.162 480.427C550.199 480.344 550.233 480.26 550.263 480.174C550.266 480.167 550.269 480.16 550.271 480.153C550.614 479.143 550.457 477.956 549.869 477.068C549.713 476.84 549.529 476.634 549.325 476.45C549.282 476.413 549.242 476.375 549.198 476.34C549.026 476.199 548.841 476.074 548.645 475.968C548.546 475.915 548.445 475.866 548.342 475.822C548.237 475.776 548.129 475.738 548.018 475.704C547.955 475.685 547.889 475.67 547.824 475.654C547.767 475.64 547.71 475.625 547.652 475.614C547.604 475.605 547.555 475.6 547.507 475.592C547.422 475.58 547.338 475.569 547.252 475.563C547.223 475.561 547.193 475.56 547.164 475.559C547.077 475.555 546.99 475.555 546.903 475.557C546.404 475.586 545.96 475.691 545.572 475.855C545.493 475.891 545.413 475.926 545.338 475.968C544.56 476.392 543.965 477.113 543.69 477.958C543.5 478.589 543.483 479.27 543.645 479.909C543.647 479.915 543.649 479.921 543.65 479.927C543.658 479.955 543.666 479.982 543.674 480.01C543.683 480.043 543.694 480.076 543.704 480.108C543.714 480.135 543.723 480.161 543.733 480.187H536.106C535.423 480.187 534.867 480.743 534.867 481.426V490.467C534.867 491.151 535.423 491.706 536.106 491.706H540.935C540.942 491.735 540.95 491.762 540.956 491.79C541.621 494.406 543.947 496.256 546.696 496.322C548.977 496.267 550.936 494.949 551.917 493.06C551.932 493.066 551.947 493.069 551.961 493.074C554.405 493.999 557.182 492.06 557.132 489.443V484.589C557.133 483.873 556.548 483.29 555.83 483.29Z" fill="#464EB8"/>
<path d="M552.587 484.615C552.603 483.902 552.038 483.308 551.327 483.29C551.324 483.29 546.183 483.29 546.183 483.29C545.994 483.29 545.84 483.444 545.84 483.634V490.617C545.84 490.939 545.579 491.201 545.257 491.201H541.248C541.145 491.201 541.047 491.247 540.982 491.327C540.917 491.407 540.891 491.512 540.912 491.614C541.48 494.388 543.852 496.375 546.696 496.444C550.022 496.362 552.664 493.585 552.587 490.26V484.615Z" fill="#7B83EB"/>
<path d="M546.98 482.471C547.002 482.471 547.024 482.47 547.046 482.469C547.132 482.468 547.218 482.464 547.302 482.457C547.331 482.454 547.359 482.452 547.388 482.448C547.484 482.437 547.58 482.423 547.674 482.405C547.68 482.404 547.686 482.403 547.692 482.402C548.138 482.311 548.558 482.133 548.932 481.881C549.278 481.648 549.577 481.352 549.818 481.013C549.881 480.931 549.938 480.846 549.991 480.759C549.996 480.75 550.001 480.742 550.006 480.733C550.047 480.664 550.083 480.593 550.118 480.521C550.133 480.49 550.149 480.459 550.164 480.427C550.201 480.344 550.235 480.26 550.265 480.174C550.267 480.167 550.27 480.16 550.272 480.153C550.615 479.143 550.458 477.955 549.87 477.067C549.715 476.84 549.53 476.634 549.326 476.45C549.284 476.413 549.243 476.374 549.199 476.34C549.027 476.199 548.842 476.074 548.646 475.968C548.547 475.914 548.446 475.866 548.343 475.822C548.239 475.776 548.13 475.738 548.019 475.704C547.956 475.684 547.89 475.67 547.826 475.654C547.768 475.64 547.712 475.625 547.653 475.614C547.605 475.605 547.556 475.599 547.508 475.592C547.423 475.58 547.339 475.569 547.253 475.563C547.224 475.561 547.195 475.56 547.165 475.559C547.078 475.555 546.991 475.555 546.904 475.557C546.405 475.586 545.962 475.691 545.574 475.855C545.495 475.891 545.414 475.926 545.34 475.968C544.562 476.392 543.966 477.113 543.692 477.958C543.501 478.589 543.485 479.271 543.647 479.909C543.649 479.915 543.65 479.922 543.652 479.928C543.659 479.955 543.667 479.983 543.675 480.01C543.684 480.043 543.695 480.076 543.706 480.109C543.72 480.15 543.735 480.19 543.751 480.231H543.744C544.17 481.425 545.248 482.398 546.98 482.471Z" fill="#7B83EB"/>
<path d="M545.148 480.188H536.106C535.423 480.188 534.867 480.743 534.867 481.426V490.468C534.867 491.151 535.423 491.707 536.106 491.707H545.148C545.831 491.707 546.386 491.151 546.386 490.468V481.426C546.387 480.743 545.831 480.188 545.148 480.188Z" fill="#464EB8"/>
<path d="M542.905 482.704H538.278C538.093 482.704 537.943 482.854 537.943 483.039V483.883C537.943 484.068 538.093 484.218 538.278 484.218H539.771V488.916C539.771 489.101 539.921 489.251 540.106 489.251H541.098C541.283 489.251 541.433 489.101 541.433 488.916V484.218H542.905C543.09 484.218 543.24 484.068 543.24 483.883V483.039C543.24 482.854 543.09 482.704 542.905 482.704Z" fill="white"/>
<path d="M574.88 493V480.74H570.08V479H581.66V480.74H576.86V493H574.88ZM587.185 493.12C586.051 493.12 585.051 492.887 584.185 492.42C583.331 491.953 582.665 491.313 582.185 490.5C581.718 489.687 581.485 488.753 581.485 487.7C581.485 486.647 581.711 485.713 582.165 484.9C582.631 484.087 583.265 483.453 584.065 483C584.878 482.533 585.791 482.3 586.805 482.3C587.831 482.3 588.738 482.527 589.525 482.98C590.311 483.433 590.925 484.073 591.365 484.9C591.818 485.713 592.045 486.667 592.045 487.76C592.045 487.84 592.038 487.933 592.025 488.04C592.025 488.147 592.018 488.247 592.005 488.34H582.985V486.96H591.005L590.225 487.44C590.238 486.76 590.098 486.153 589.805 485.62C589.511 485.087 589.105 484.673 588.585 484.38C588.078 484.073 587.485 483.92 586.805 483.92C586.138 483.92 585.545 484.073 585.025 484.38C584.505 484.673 584.098 485.093 583.805 485.64C583.511 486.173 583.365 486.787 583.365 487.48V487.8C583.365 488.507 583.525 489.14 583.845 489.7C584.178 490.247 584.638 490.673 585.225 490.98C585.811 491.287 586.485 491.44 587.245 491.44C587.871 491.44 588.438 491.333 588.945 491.12C589.465 490.907 589.918 490.587 590.305 490.16L591.365 491.4C590.885 491.96 590.285 492.387 589.565 492.68C588.858 492.973 588.065 493.12 587.185 493.12ZM600.998 493V490.76L600.898 490.34V486.52C600.898 485.707 600.658 485.08 600.178 484.64C599.711 484.187 599.004 483.96 598.058 483.96C597.431 483.96 596.818 484.067 596.218 484.28C595.618 484.48 595.111 484.753 594.698 485.1L593.898 483.66C594.444 483.22 595.098 482.887 595.858 482.66C596.631 482.42 597.438 482.3 598.278 482.3C599.731 482.3 600.851 482.653 601.638 483.36C602.424 484.067 602.818 485.147 602.818 486.6V493H600.998ZM597.518 493.12C596.731 493.12 596.038 492.987 595.438 492.72C594.851 492.453 594.398 492.087 594.078 491.62C593.758 491.14 593.598 490.6 593.598 490C593.598 489.427 593.731 488.907 593.998 488.44C594.278 487.973 594.724 487.6 595.338 487.32C595.964 487.04 596.804 486.9 597.858 486.9H601.218V488.28H597.938C596.978 488.28 596.331 488.44 595.998 488.76C595.664 489.08 595.498 489.467 595.498 489.92C595.498 490.44 595.704 490.86 596.118 491.18C596.531 491.487 597.104 491.64 597.838 491.64C598.558 491.64 599.184 491.48 599.718 491.16C600.264 490.84 600.658 490.373 600.898 489.76L601.278 491.08C601.024 491.707 600.578 492.207 599.938 492.58C599.298 492.94 598.491 493.12 597.518 493.12ZM619.631 482.3C620.484 482.3 621.237 482.467 621.891 482.8C622.544 483.133 623.051 483.64 623.411 484.32C623.784 485 623.971 485.86 623.971 486.9V493H622.051V487.12C622.051 486.093 621.811 485.32 621.331 484.8C620.851 484.28 620.177 484.02 619.311 484.02C618.671 484.02 618.111 484.153 617.631 484.42C617.151 484.687 616.777 485.08 616.511 485.6C616.257 486.12 616.131 486.767 616.131 487.54V493H614.211V487.12C614.211 486.093 613.971 485.32 613.491 484.8C613.024 484.28 612.351 484.02 611.471 484.02C610.844 484.02 610.291 484.153 609.811 484.42C609.331 484.687 608.957 485.08 608.691 485.6C608.424 486.12 608.291 486.767 608.291 487.54V493H606.371V482.4H608.211V485.22L607.911 484.5C608.244 483.807 608.757 483.267 609.451 482.88C610.144 482.493 610.951 482.3 611.871 482.3C612.884 482.3 613.757 482.553 614.491 483.06C615.224 483.553 615.704 484.307 615.931 485.32L615.151 485C615.471 484.187 616.031 483.533 616.831 483.04C617.631 482.547 618.564 482.3 619.631 482.3ZM630.544 493.12C629.664 493.12 628.824 493 628.024 492.76C627.237 492.52 626.617 492.227 626.164 491.88L626.964 490.36C627.417 490.667 627.977 490.927 628.644 491.14C629.31 491.353 629.99 491.46 630.684 491.46C631.577 491.46 632.217 491.333 632.604 491.08C633.004 490.827 633.204 490.473 633.204 490.02C633.204 489.687 633.084 489.427 632.844 489.24C632.604 489.053 632.284 488.913 631.884 488.82C631.497 488.727 631.064 488.647 630.584 488.58C630.104 488.5 629.624 488.407 629.144 488.3C628.664 488.18 628.224 488.02 627.824 487.82C627.424 487.607 627.104 487.32 626.864 486.96C626.624 486.587 626.504 486.093 626.504 485.48C626.504 484.84 626.684 484.28 627.044 483.8C627.404 483.32 627.91 482.953 628.564 482.7C629.23 482.433 630.017 482.3 630.924 482.3C631.617 482.3 632.317 482.387 633.024 482.56C633.744 482.72 634.33 482.953 634.784 483.26L633.964 484.78C633.484 484.46 632.984 484.24 632.464 484.12C631.944 484 631.424 483.94 630.904 483.94C630.064 483.94 629.437 484.08 629.024 484.36C628.61 484.627 628.404 484.973 628.404 485.4C628.404 485.76 628.524 486.04 628.764 486.24C629.017 486.427 629.337 486.573 629.724 486.68C630.124 486.787 630.564 486.88 631.044 486.96C631.524 487.027 632.004 487.12 632.484 487.24C632.964 487.347 633.397 487.5 633.784 487.7C634.184 487.9 634.504 488.18 634.744 488.54C634.997 488.9 635.124 489.38 635.124 489.98C635.124 490.62 634.937 491.173 634.564 491.64C634.19 492.107 633.664 492.473 632.984 492.74C632.304 492.993 631.49 493.12 630.544 493.12Z" fill="black"/>
</g>
<rect x="1066" y="72" width="80" height="80" rx="20" fill="white"/>
<rect x="1089.33" y="96" width="33.3333" height="40" rx="5.33333" fill="#91A8DD"/>
<rect x="1087.33" y="93.334" width="37.3333" height="40" rx="6.66667" fill="#B5CEFF"/>
<rect x="1085.34" y="88" width="41.3333" height="41.3333" rx="8" fill="#E9F2FF"/>
<rect x="1104.67" y="99.334" width="2.66667" height="18.6667" rx="1.33333" fill="#91A8DD"/>
<rect x="1115.34" y="107.332" width="2.66667" height="18.6667" rx="1.33333" transform="rotate(90 1115.34 107.332)" fill="#91A8DD"/>
<rect x="294" y="72" width="80" height="80" rx="20" fill="white"/>
<g clip-path="url(#clip5_867_38157)">
<path d="M353.266 95.7985L346.075 88.6075C345.686 88.2186 345.158 88 344.608 88C343.998 88 326.756 88 325.839 88C325.043 88 324.398 88.6453 324.398 89.441V94.7068H334.523C335.073 94.7068 335.601 94.9254 335.99 95.3143L342.698 102.022C343.087 102.411 343.305 102.939 343.305 103.489V129.776H352.432C353.228 129.776 353.874 129.131 353.874 128.334C353.874 126.46 353.874 99.1694 353.874 97.2648C353.874 96.7147 353.655 96.1874 353.266 95.7985Z" fill="#8BCAFF"/>
<path d="M345.595 102.022L338.887 95.3141C338.498 94.9252 337.97 94.7065 337.42 94.7065C337.272 94.7065 336.151 94.7065 334.523 94.7065C335.073 94.7065 335.601 94.9252 335.99 95.3141L342.698 102.022C343.086 102.411 343.305 102.939 343.305 103.489V129.776H346.203C346.203 121.377 346.203 104.951 346.203 103.489C346.203 102.939 345.984 102.411 345.595 102.022Z" fill="#60B8FF"/>
<path d="M328.736 88C327.16 88 326.054 88 325.839 88C325.043 88 324.398 88.6453 324.398 89.441V94.7068H327.295V89.441C327.295 88.6453 327.941 88 328.736 88Z" fill="#60B8FF"/>
<path d="M347.522 101.596H342.271L342.698 102.022C343.087 102.411 343.305 102.939 343.305 103.489V103.732H347.522C348.112 103.732 348.59 103.254 348.59 102.664C348.59 102.074 348.112 101.596 347.522 101.596Z" fill="#22A7FF"/>
<path d="M347.522 106.417H343.305V108.553H347.522C348.112 108.553 348.59 108.075 348.59 107.485C348.59 106.895 348.112 106.417 347.522 106.417Z" fill="#22A7FF"/>
<path d="M347.522 111.237H343.305V113.373H347.522C348.112 113.373 348.59 112.895 348.59 112.305C348.59 111.716 348.112 111.237 347.522 111.237Z" fill="#22A7FF"/>
<path d="M347.522 116.059H343.305V118.195H347.522C348.112 118.195 348.59 117.716 348.59 117.127C348.59 116.537 348.112 116.059 347.522 116.059Z" fill="#22A7FF"/>
<path d="M347.522 120.879H343.305V123.015H347.522C348.112 123.015 348.59 122.537 348.59 121.947C348.59 121.357 348.112 120.879 347.522 120.879Z" fill="#22A7FF"/>
<path d="M344.608 88C345.158 88 345.686 88.2186 346.075 88.6075L353.266 95.7985C353.655 96.1874 353.874 96.7147 353.874 97.2648V97.3047H345.713C345.081 97.3047 344.569 96.7924 344.569 96.1606V88H344.608Z" fill="#22A7FF"/>
<path d="M347.466 96.1606V89.9988L346.075 88.6075C345.686 88.2186 345.158 88 344.608 88C344.6 88 344.586 88 344.569 88V96.1606C344.569 96.7924 345.081 97.3047 345.713 97.3047H348.61C347.979 97.3047 347.466 96.7924 347.466 96.1606Z" fill="#0094FD"/>
<path d="M348.223 101.859C348.035 102.023 347.79 102.122 347.522 102.122H342.788C343.119 102.5 343.305 102.984 343.305 103.489V103.732H347.522C348.112 103.732 348.59 103.254 348.59 102.664C348.59 102.343 348.447 102.055 348.223 101.859Z" fill="#0094FD"/>
<path d="M348.223 106.68C348.035 106.844 347.79 106.943 347.522 106.943H343.305V108.553H347.522C348.112 108.553 348.59 108.075 348.59 107.485C348.59 107.164 348.447 106.876 348.223 106.68Z" fill="#0094FD"/>
<path d="M348.223 111.501C348.035 111.664 347.79 111.764 347.522 111.764H343.305V113.374H347.522C348.112 113.374 348.59 112.896 348.59 112.306C348.59 111.984 348.447 111.697 348.223 111.501Z" fill="#0094FD"/>
<path d="M348.223 116.322C348.035 116.485 347.79 116.585 347.522 116.585H343.305V118.195H347.522C348.112 118.195 348.59 117.716 348.59 117.127C348.59 116.805 348.447 116.518 348.223 116.322Z" fill="#0094FD"/>
<path d="M348.223 121.143C348.035 121.306 347.79 121.406 347.522 121.406H343.305V123.015H347.522C348.112 123.015 348.59 122.537 348.59 121.948C348.59 121.626 348.447 121.339 348.223 121.143Z" fill="#0094FD"/>
<path d="M315.754 136H342.347C343.143 136 343.788 135.355 343.788 134.559C343.788 132.684 343.788 105.394 343.788 103.489C343.788 102.939 343.569 102.411 343.181 102.023L335.99 94.8313C335.601 94.4424 335.073 94.2241 334.523 94.2241C333.912 94.2241 316.671 94.2241 315.754 94.2241C314.958 94.2241 314.312 94.8694 314.312 95.6652V134.559C314.312 135.355 314.958 136 315.754 136Z" fill="#D9EDFF"/>
<path d="M317.21 134.559V95.6652C317.21 94.8694 317.855 94.2241 318.651 94.2241C317.074 94.2241 315.968 94.2241 315.754 94.2241C314.958 94.2241 314.312 94.8694 314.312 95.6652V134.559C314.312 135.355 314.958 136 315.754 136H318.651C317.855 136 317.21 135.355 317.21 134.559Z" fill="#B4DBFF"/>
<path d="M334.523 94.2241C335.073 94.2241 335.601 94.4427 335.99 94.8313L343.181 102.023C343.569 102.411 343.788 102.939 343.788 103.489V103.528H335.627C334.996 103.528 334.483 103.016 334.483 102.384V94.2241H334.523Z" fill="#B4DBFF"/>
<path d="M337.381 102.384V96.2225L335.99 94.8313C335.601 94.4424 335.073 94.2241 334.523 94.2241C334.514 94.2241 334.501 94.2241 334.483 94.2241V102.384C334.483 103.016 334.995 103.528 335.627 103.528H338.525C337.893 103.528 337.381 103.016 337.381 102.384Z" fill="#8BCAFF"/>
<path d="M337.436 109.956H320.664C320.074 109.956 319.596 109.478 319.596 108.888C319.596 108.298 320.074 107.82 320.664 107.82H337.437C338.026 107.82 338.504 108.298 338.504 108.888C338.504 109.478 338.026 109.956 337.436 109.956Z" fill="#B4DBFF"/>
<path d="M337.436 114.777H320.664C320.074 114.777 319.596 114.298 319.596 113.708C319.596 113.119 320.074 112.641 320.664 112.641H337.437C338.026 112.641 338.504 113.119 338.504 113.708C338.504 114.298 338.026 114.777 337.436 114.777Z" fill="#B4DBFF"/>
<path d="M337.436 119.597H320.664C320.074 119.597 319.596 119.119 319.596 118.529C319.596 117.94 320.074 117.461 320.664 117.461H337.437C338.026 117.461 338.504 117.94 338.504 118.529C338.504 119.119 338.026 119.597 337.436 119.597Z" fill="#B4DBFF"/>
<path d="M337.436 124.418H320.664C320.074 124.418 319.596 123.94 319.596 123.35C319.596 122.76 320.074 122.282 320.664 122.282H337.437C338.026 122.282 338.504 122.76 338.504 123.35C338.504 123.94 338.026 124.418 337.436 124.418Z" fill="#B4DBFF"/>
<path d="M337.436 129.24H320.664C320.074 129.24 319.596 128.761 319.596 128.171C319.596 127.582 320.074 127.104 320.664 127.104H337.437C338.026 127.104 338.504 127.582 338.504 128.171C338.504 128.761 338.026 129.24 337.436 129.24Z" fill="#B4DBFF"/>
<path d="M338.137 108.083C337.949 108.247 337.705 108.346 337.436 108.346H320.664C320.396 108.346 320.151 108.247 319.964 108.083C319.739 108.279 319.596 108.566 319.596 108.888C319.596 109.478 320.074 109.956 320.664 109.956H337.437C338.026 109.956 338.504 109.478 338.504 108.888C338.504 108.566 338.362 108.279 338.137 108.083Z" fill="#8BCAFF"/>
<path d="M338.137 112.904C337.949 113.068 337.705 113.167 337.436 113.167H320.664C320.396 113.167 320.151 113.068 319.964 112.904C319.739 113.1 319.596 113.388 319.596 113.709C319.596 114.299 320.074 114.777 320.664 114.777H337.437C338.026 114.777 338.504 114.299 338.504 113.709C338.504 113.388 338.362 113.1 338.137 112.904Z" fill="#8BCAFF"/>
<path d="M338.137 117.725C337.949 117.888 337.705 117.988 337.436 117.988H320.664C320.396 117.988 320.151 117.888 319.964 117.725C319.739 117.921 319.596 118.208 319.596 118.53C319.596 119.12 320.074 119.598 320.664 119.598H337.437C338.026 119.598 338.504 119.12 338.504 118.53C338.504 118.208 338.362 117.921 338.137 117.725Z" fill="#8BCAFF"/>
<path d="M338.137 122.546C337.949 122.709 337.705 122.809 337.436 122.809H320.664C320.396 122.809 320.151 122.709 319.964 122.546C319.739 122.741 319.596 123.029 319.596 123.35C319.596 123.94 320.074 124.419 320.664 124.419H337.437C338.026 124.419 338.504 123.94 338.504 123.35C338.504 123.029 338.362 122.741 338.137 122.546Z" fill="#8BCAFF"/>
<path d="M338.137 127.367C337.949 127.53 337.705 127.63 337.436 127.63H320.664C320.396 127.63 320.151 127.53 319.964 127.367C319.739 127.562 319.596 127.85 319.596 128.171C319.596 128.761 320.074 129.24 320.664 129.24H337.437C338.026 129.24 338.504 128.761 338.504 128.171C338.504 127.85 338.362 127.562 338.137 127.367Z" fill="#8BCAFF"/>
</g>
<ellipse cx="720" cy="338.992" rx="6" ry="2.992" stroke="#C1773A" stroke-width="3"/>
<ellipse cx="720" cy="337.992" rx="6" ry="2.992" stroke="#C1773A" stroke-width="3"/>
<rect x="873" y="72" width="80" height="80" rx="20" fill="white"/>
<path d="M936.361 93.1253V109.424C936.361 111.422 934.744 113.038 932.746 113.038H932.514C932.062 113.038 931.695 113.405 931.695 113.864V116.716C931.695 117.45 930.812 117.817 930.29 117.302L926.21 113.278C926.055 113.123 925.85 113.038 925.631 113.038H909.071C907.074 113.038 905.457 111.422 905.457 109.424V93.1323C905.457 91.1346 907.074 89.5112 909.078 89.5112H932.746C934.744 89.5112 936.361 91.1276 936.361 93.1253Z" fill="#CCE7FF"/>
<path d="M926.999 101.542V121.155C926.999 123.56 925.054 125.504 922.65 125.504H902.714C902.448 125.504 902.198 125.609 902.012 125.786L897.099 130.635C896.477 131.257 895.412 130.813 895.412 129.933V126.497C895.412 125.948 894.968 125.504 894.42 125.504H894.145C891.741 125.504 889.797 123.56 889.797 121.155V101.534C889.797 99.1294 891.741 97.1851 894.145 97.1851H922.642C925.046 97.1851 926.999 99.1294 926.999 101.542Z" fill="#488FF7"/>
<path d="M916.571 107.462V115.918C916.571 117.189 915.533 118.226 914.262 118.226H901.578C900.307 118.226 899.27 117.189 899.27 115.918V107.462C899.27 106.198 900.307 105.167 901.578 105.167H914.262C915.533 105.167 916.571 106.198 916.571 107.462Z" fill="#D9EDFF"/>
<path d="M920.523 108.909V114.478C920.523 115.085 919.874 115.459 919.352 115.17L916.563 113.61V109.777L919.352 108.217C919.874 107.927 920.523 108.302 920.523 108.909Z" fill="#D9EDFF"/>
<path d="M910.239 112.888L907.219 114.821C906.457 115.316 905.442 114.761 905.442 113.854V109.989C905.442 109.082 906.457 108.527 907.219 109.022L910.239 110.955C910.939 111.402 910.939 112.441 910.239 112.888Z" fill="#488FF7"/>
<g filter="url(#filter4_d_867_38157)">
<rect x="1047" y="458" width="129" height="56" rx="28" fill="white" shape-rendering="crispEdges"/>
<path d="M1072.8 493.16C1071.85 493.16 1071.01 493.007 1070.28 492.7C1069.55 492.393 1068.97 491.967 1068.54 491.42C1068.11 490.873 1067.9 490.24 1067.9 489.52C1067.9 488.893 1068.04 488.32 1068.32 487.8C1068.6 487.28 1069.05 486.78 1069.66 486.3C1070.27 485.807 1071.08 485.3 1072.08 484.78C1072.89 484.353 1073.53 483.98 1073.98 483.66C1074.45 483.34 1074.77 483.04 1074.96 482.76C1075.16 482.467 1075.26 482.153 1075.26 481.82C1075.26 481.367 1075.1 481 1074.78 480.72C1074.46 480.427 1074 480.28 1073.4 480.28C1072.77 480.28 1072.28 480.44 1071.92 480.76C1071.57 481.067 1071.4 481.473 1071.4 481.98C1071.4 482.233 1071.44 482.48 1071.52 482.72C1071.61 482.947 1071.77 483.207 1072 483.5C1072.24 483.78 1072.58 484.14 1073.02 484.58L1080.42 491.94L1079.34 493.22L1071.48 485.4C1071.01 484.933 1070.65 484.52 1070.38 484.16C1070.11 483.787 1069.92 483.427 1069.8 483.08C1069.68 482.733 1069.62 482.38 1069.62 482.02C1069.62 481.393 1069.77 480.847 1070.08 480.38C1070.4 479.9 1070.84 479.533 1071.4 479.28C1071.97 479.013 1072.64 478.88 1073.4 478.88C1074.11 478.88 1074.72 479 1075.24 479.24C1075.76 479.467 1076.16 479.8 1076.44 480.24C1076.73 480.667 1076.88 481.187 1076.88 481.8C1076.88 482.333 1076.75 482.827 1076.48 483.28C1076.23 483.733 1075.81 484.173 1075.24 484.6C1074.67 485.027 1073.89 485.487 1072.92 485.98C1072.12 486.393 1071.49 486.78 1071.04 487.14C1070.59 487.487 1070.26 487.833 1070.06 488.18C1069.87 488.527 1069.78 488.907 1069.78 489.32C1069.78 489.76 1069.91 490.153 1070.16 490.5C1070.43 490.833 1070.79 491.093 1071.26 491.28C1071.74 491.467 1072.29 491.56 1072.92 491.56C1073.81 491.56 1074.62 491.367 1075.34 490.98C1076.06 490.593 1076.66 490.013 1077.14 489.24C1077.63 488.467 1077.99 487.507 1078.22 486.36L1079.76 486.86C1079.49 488.207 1079.03 489.347 1078.38 490.28C1077.74 491.213 1076.95 491.927 1076 492.42C1075.05 492.913 1073.99 493.16 1072.8 493.16ZM1094.5 493.16C1093.44 493.16 1092.44 492.98 1091.52 492.62C1090.62 492.26 1089.83 491.76 1089.16 491.12C1088.5 490.467 1087.98 489.707 1087.6 488.84C1087.23 487.973 1087.04 487.027 1087.04 486C1087.04 484.973 1087.23 484.027 1087.6 483.16C1087.98 482.293 1088.5 481.54 1089.16 480.9C1089.83 480.247 1090.62 479.74 1091.52 479.38C1092.43 479.02 1093.42 478.84 1094.5 478.84C1095.57 478.84 1096.55 479.02 1097.44 479.38C1098.35 479.727 1099.14 480.227 1099.8 480.88C1100.48 481.52 1101 482.273 1101.36 483.14C1101.74 484.007 1101.92 484.96 1101.92 486C1101.92 487.04 1101.74 487.993 1101.36 488.86C1101 489.727 1100.48 490.487 1099.8 491.14C1099.14 491.78 1098.35 492.28 1097.44 492.64C1096.55 492.987 1095.57 493.16 1094.5 493.16ZM1094.5 491.38C1095.28 491.38 1095.99 491.247 1096.64 490.98C1097.31 490.713 1097.88 490.34 1098.36 489.86C1098.86 489.367 1099.24 488.793 1099.5 488.14C1099.78 487.487 1099.92 486.773 1099.92 486C1099.92 485.227 1099.78 484.513 1099.5 483.86C1099.24 483.207 1098.86 482.64 1098.36 482.16C1097.88 481.667 1097.31 481.287 1096.64 481.02C1095.99 480.753 1095.28 480.62 1094.5 480.62C1093.72 480.62 1092.99 480.753 1092.32 481.02C1091.67 481.287 1091.1 481.667 1090.6 482.16C1090.11 482.64 1089.72 483.207 1089.44 483.86C1089.18 484.513 1089.04 485.227 1089.04 486C1089.04 486.773 1089.18 487.487 1089.44 488.14C1089.72 488.793 1090.11 489.367 1090.6 489.86C1091.1 490.34 1091.67 490.713 1092.32 490.98C1092.99 491.247 1093.72 491.38 1094.5 491.38ZM1108.44 493.12C1107.37 493.12 1106.54 492.833 1105.96 492.26C1105.37 491.687 1105.08 490.867 1105.08 489.8V480.08H1107V489.72C1107 490.293 1107.14 490.733 1107.42 491.04C1107.71 491.347 1108.12 491.5 1108.66 491.5C1109.26 491.5 1109.76 491.333 1110.16 491L1110.76 492.38C1110.46 492.633 1110.11 492.82 1109.7 492.94C1109.3 493.06 1108.88 493.12 1108.44 493.12ZM1103.28 483.98V482.4H1110.04V483.98H1103.28ZM1118.74 482.3C1119.6 482.3 1120.36 482.467 1121.02 482.8C1121.68 483.133 1122.2 483.64 1122.58 484.32C1122.95 485 1123.14 485.86 1123.14 486.9V493H1121.22V487.12C1121.22 486.093 1120.96 485.32 1120.46 484.8C1119.96 484.28 1119.26 484.02 1118.36 484.02C1117.68 484.02 1117.08 484.153 1116.58 484.42C1116.07 484.687 1115.68 485.08 1115.4 485.6C1115.13 486.12 1115 486.767 1115 487.54V493H1113.08V478.16H1115V485.26L1114.62 484.5C1114.96 483.807 1115.5 483.267 1116.22 482.88C1116.94 482.493 1117.78 482.3 1118.74 482.3ZM1131.41 493.12C1130.28 493.12 1129.28 492.887 1128.41 492.42C1127.56 491.953 1126.89 491.313 1126.41 490.5C1125.94 489.687 1125.71 488.753 1125.71 487.7C1125.71 486.647 1125.94 485.713 1126.39 484.9C1126.86 484.087 1127.49 483.453 1128.29 483C1129.1 482.533 1130.02 482.3 1131.03 482.3C1132.06 482.3 1132.96 482.527 1133.75 482.98C1134.54 483.433 1135.15 484.073 1135.59 484.9C1136.04 485.713 1136.27 486.667 1136.27 487.76C1136.27 487.84 1136.26 487.933 1136.25 488.04C1136.25 488.147 1136.24 488.247 1136.23 488.34H1127.21V486.96H1135.23L1134.45 487.44C1134.46 486.76 1134.32 486.153 1134.03 485.62C1133.74 485.087 1133.33 484.673 1132.81 484.38C1132.3 484.073 1131.71 483.92 1131.03 483.92C1130.36 483.92 1129.77 484.073 1129.25 484.38C1128.73 484.673 1128.32 485.093 1128.03 485.64C1127.74 486.173 1127.59 486.787 1127.59 487.48V487.8C1127.59 488.507 1127.75 489.14 1128.07 489.7C1128.4 490.247 1128.86 490.673 1129.45 490.98C1130.04 491.287 1130.71 491.44 1131.47 491.44C1132.1 491.44 1132.66 491.333 1133.17 491.12C1133.69 490.907 1134.14 490.587 1134.53 490.16L1135.59 491.4C1135.11 491.96 1134.51 492.387 1133.79 492.68C1133.08 492.973 1132.29 493.12 1131.41 493.12ZM1138.94 493V482.4H1140.78V485.28L1140.6 484.56C1140.89 483.827 1141.38 483.267 1142.08 482.88C1142.77 482.493 1143.62 482.3 1144.64 482.3V484.16C1144.56 484.147 1144.48 484.14 1144.4 484.14C1144.33 484.14 1144.26 484.14 1144.2 484.14C1143.17 484.14 1142.36 484.447 1141.76 485.06C1141.16 485.673 1140.86 486.56 1140.86 487.72V493H1138.94ZM1150.16 493.12C1149.28 493.12 1148.44 493 1147.64 492.76C1146.85 492.52 1146.23 492.227 1145.78 491.88L1146.58 490.36C1147.03 490.667 1147.59 490.927 1148.26 491.14C1148.93 491.353 1149.61 491.46 1150.3 491.46C1151.19 491.46 1151.83 491.333 1152.22 491.08C1152.62 490.827 1152.82 490.473 1152.82 490.02C1152.82 489.687 1152.7 489.427 1152.46 489.24C1152.22 489.053 1151.9 488.913 1151.5 488.82C1151.11 488.727 1150.68 488.647 1150.2 488.58C1149.72 488.5 1149.24 488.407 1148.76 488.3C1148.28 488.18 1147.84 488.02 1147.44 487.82C1147.04 487.607 1146.72 487.32 1146.48 486.96C1146.24 486.587 1146.12 486.093 1146.12 485.48C1146.12 484.84 1146.3 484.28 1146.66 483.8C1147.02 483.32 1147.53 482.953 1148.18 482.7C1148.85 482.433 1149.63 482.3 1150.54 482.3C1151.23 482.3 1151.93 482.387 1152.64 482.56C1153.36 482.72 1153.95 482.953 1154.4 483.26L1153.58 484.78C1153.1 484.46 1152.6 484.24 1152.08 484.12C1151.56 484 1151.04 483.94 1150.52 483.94C1149.68 483.94 1149.05 484.08 1148.64 484.36C1148.23 484.627 1148.02 484.973 1148.02 485.4C1148.02 485.76 1148.14 486.04 1148.38 486.24C1148.63 486.427 1148.95 486.573 1149.34 486.68C1149.74 486.787 1150.18 486.88 1150.66 486.96C1151.14 487.027 1151.62 487.12 1152.1 487.24C1152.58 487.347 1153.01 487.5 1153.4 487.7C1153.8 487.9 1154.12 488.18 1154.36 488.54C1154.61 488.9 1154.74 489.38 1154.74 489.98C1154.74 490.62 1154.55 491.173 1154.18 491.64C1153.81 492.107 1153.28 492.473 1152.6 492.74C1151.92 492.993 1151.11 493.12 1150.16 493.12Z" fill="black"/>
</g>
<g filter="url(#filter5_d_867_38157)">
<rect x="660" y="253" width="120" height="120" rx="60" fill="white"/>
<rect x="661" y="254" width="118" height="118" rx="59" stroke="#C87A3D" stroke-width="2"/>
<path d="M729.899 322.158C728.351 320.626 726.531 319.529 724.591 318.865L729.893 313.621C735.361 308.218 735.361 299.457 729.893 294.054C724.428 288.649 715.566 288.649 710.1 294.054C704.633 299.457 704.633 308.218 710.1 313.621C711.607 315.113 713.374 316.192 715.256 316.859L710.85 321.473C710.596 321.692 710.349 321.919 710.108 322.158C709.309 322.947 708.626 323.808 708.064 324.719L712.073 326.506L715.376 327.977L715.877 328.201C715.933 328.141 715.988 328.083 716.045 328.026C718.231 325.866 721.776 325.866 723.963 328.026C725.205 329.254 725.74 330.917 725.57 332.518L733.385 336C734.854 331.262 733.691 325.9 729.901 322.154L729.899 322.158ZM716.037 307.751C713.851 305.591 713.851 302.086 716.037 299.924C718.222 297.76 721.767 297.76 723.954 299.924C726.142 302.084 726.142 305.589 723.954 307.751L719.997 311.894V309.372C718.563 309.372 717.13 308.832 716.038 307.751H716.037Z" fill="#C87A3C"/>
</g>
<defs>
<filter id="filter0_d_867_38157" x="507" y="573" width="426" height="220" filterUnits="userSpaceOnUse" color-interpolation-filters="sRGB">
<feFlood flood-opacity="0" result="BackgroundImageFix"/>
<feColorMatrix in="SourceAlpha" type="matrix" values="0 0 0 0 0 0 0 0 0 0 0 0 0 0 0 0 0 0 127 0" result="hardAlpha"/>
<feMorphology radius="8" operator="dilate" in="SourceAlpha" result="effect1_dropShadow_867_38157"/>
<feOffset dy="9"/>
<feGaussianBlur stdDeviation="23"/>
<feComposite in2="hardAlpha" operator="out"/>
<feColorMatrix type="matrix" values="0 0 0 0 0.784314 0 0 0 0 0.478431 0 0 0 0 0.235294 0 0 0 0.4 0"/>
<feBlend mode="normal" in2="BackgroundImageFix" result="effect1_dropShadow_867_38157"/>
<feBlend mode="normal" in="SourceGraphic" in2="effect1_dropShadow_867_38157" result="shape"/>
</filter>
<filter id="filter1_d_867_38157" x="218.5" y="413" width="242" height="164" filterUnits="userSpaceOnUse" color-interpolation-filters="sRGB">
<feFlood flood-opacity="0" result="BackgroundImageFix"/>
<feColorMatrix in="SourceAlpha" type="matrix" values="0 0 0 0 0 0 0 0 0 0 0 0 0 0 0 0 0 0 127 0" result="hardAlpha"/>
<feMorphology radius="8" operator="dilate" in="SourceAlpha" result="effect1_dropShadow_867_38157"/>
<feOffset dy="9"/>
<feGaussianBlur stdDeviation="23"/>
<feComposite in2="hardAlpha" operator="out"/>
<feColorMatrix type="matrix" values="0 0 0 0 0.784314 0 0 0 0 0.478431 0 0 0 0 0.235294 0 0 0 0.4 0"/>
<feBlend mode="normal" in2="BackgroundImageFix" result="effect1_dropShadow_867_38157"/>
<feBlend mode="normal" in="SourceGraphic" in2="effect1_dropShadow_867_38157" result="shape"/>
</filter>
<filter id="filter2_d_867_38157" x="731" y="413" width="271" height="164" filterUnits="userSpaceOnUse" color-interpolation-filters="sRGB">
<feFlood flood-opacity="0" result="BackgroundImageFix"/>
<feColorMatrix in="SourceAlpha" type="matrix" values="0 0 0 0 0 0 0 0 0 0 0 0 0 0 0 0 0 0 127 0" result="hardAlpha"/>
<feMorphology radius="8" operator="dilate" in="SourceAlpha" result="effect1_dropShadow_867_38157"/>
<feOffset dy="9"/>
<feGaussianBlur stdDeviation="23"/>
<feComposite in2="hardAlpha" operator="out"/>
<feColorMatrix type="matrix" values="0 0 0 0 0.784314 0 0 0 0 0.478431 0 0 0 0 0.235294 0 0 0 0.4 0"/>
<feBlend mode="normal" in2="BackgroundImageFix" result="effect1_dropShadow_867_38157"/>
<feBlend mode="normal" in="SourceGraphic" in2="effect1_dropShadow_867_38157" result="shape"/>
</filter>
<filter id="filter3_d_867_38157" x="460" y="413" width="254" height="164" filterUnits="userSpaceOnUse" color-interpolation-filters="sRGB">
<feFlood flood-opacity="0" result="BackgroundImageFix"/>
<feColorMatrix in="SourceAlpha" type="matrix" values="0 0 0 0 0 0 0 0 0 0 0 0 0 0 0 0 0 0 127 0" result="hardAlpha"/>
<feMorphology radius="8" operator="dilate" in="SourceAlpha" result="effect1_dropShadow_867_38157"/>
<feOffset dy="9"/>
<feGaussianBlur stdDeviation="23"/>
<feComposite in2="hardAlpha" operator="out"/>
<feColorMatrix type="matrix" values="0 0 0 0 0.784314 0 0 0 0 0.478431 0 0 0 0 0.235294 0 0 0 0.4 0"/>
<feBlend mode="normal" in2="BackgroundImageFix" result="effect1_dropShadow_867_38157"/>
<feBlend mode="normal" in="SourceGraphic" in2="effect1_dropShadow_867_38157" result="shape"/>
</filter>
<filter id="filter4_d_867_38157" x="993" y="413" width="237" height="164" filterUnits="userSpaceOnUse" color-interpolation-filters="sRGB">
<feFlood flood-opacity="0" result="BackgroundImageFix"/>
<feColorMatrix in="SourceAlpha" type="matrix" values="0 0 0 0 0 0 0 0 0 0 0 0 0 0 0 0 0 0 127 0" result="hardAlpha"/>
<feMorphology radius="8" operator="dilate" in="SourceAlpha" result="effect1_dropShadow_867_38157"/>
<feOffset dy="9"/>
<feGaussianBlur stdDeviation="23"/>
<feComposite in2="hardAlpha" operator="out"/>
<feColorMatrix type="matrix" values="0 0 0 0 0.784314 0 0 0 0 0.478431 0 0 0 0 0.235294 0 0 0 0.4 0"/>
<feBlend mode="normal" in2="BackgroundImageFix" result="effect1_dropShadow_867_38157"/>
<feBlend mode="normal" in="SourceGraphic" in2="effect1_dropShadow_867_38157" result="shape"/>
</filter>
<filter id="filter5_d_867_38157" x="606" y="208" width="228" height="228" filterUnits="userSpaceOnUse" color-interpolation-filters="sRGB">
<feFlood flood-opacity="0" result="BackgroundImageFix"/>
<feColorMatrix in="SourceAlpha" type="matrix" values="0 0 0 0 0 0 0 0 0 0 0 0 0 0 0 0 0 0 127 0" result="hardAlpha"/>
<feMorphology radius="8" operator="dilate" in="SourceAlpha" result="effect1_dropShadow_867_38157"/>
<feOffset dy="9"/>
<feGaussianBlur stdDeviation="23"/>
<feComposite in2="hardAlpha" operator="out"/>
<feColorMatrix type="matrix" values="0 0 0 0 0.784314 0 0 0 0 0.478431 0 0 0 0 0.235294 0 0 0 0.4 0"/>
<feBlend mode="normal" in2="BackgroundImageFix" result="effect1_dropShadow_867_38157"/>
<feBlend mode="normal" in="SourceGraphic" in2="effect1_dropShadow_867_38157" result="shape"/>
</filter>
<clipPath id="clip0_867_38157">
<rect width="72" height="72" fill="white" transform="translate(581 638)"/>
</clipPath>
<clipPath id="clip1_867_38157">
<rect width="48" height="48" fill="white" transform="translate(503 88)"/>
</clipPath>
<clipPath id="clip2_867_38157">
<rect width="48" height="48" fill="white" transform="translate(696 88)"/>
</clipPath>
<clipPath id="clip3_867_38157">
<rect width="24" height="24" fill="white" transform="translate(292.5 474)"/>
</clipPath>
<clipPath id="clip4_867_38157">
<rect width="24" height="24" fill="white" transform="translate(805 474)"/>
</clipPath>
<clipPath id="clip5_867_38157">
<rect width="48" height="48" fill="white" transform="translate(310 88)"/>
</clipPath>
</defs>
</svg>
