<svg width="113" height="112" viewBox="0 0 113 112" fill="none" xmlns="http://www.w3.org/2000/svg">
<g clip-path="url(#clip0_21_11277)">
<path d="M107.688 58.4062C107.688 75.7317 99.4664 91.1369 86.7124 100.934C86.3832 101.187 85.8565 100.962 85.5211 101.207C84.1441 102.215 82.717 103.159 81.2443 104.034C80.7867 104.306 80.5194 105.046 80.053 105.304C72.3624 109.571 63.5118 112 54.0938 112C49.2119 112 44.4823 111.347 39.9879 110.124C39.4618 109.981 39.0348 108.635 38.515 108.477C37.257 108.092 36.0184 107.663 34.8015 107.191C34.3393 107.011 33.7846 108.021 33.3287 107.829C26.6387 105.015 20.6397 100.882 15.6574 95.7554C15.3116 95.3997 16.8667 93.7186 16.5307 93.3533C10.8036 87.1255 6.53181 79.5382 4.25484 71.1305C4.08684 70.5099 2.03366 71.2053 1.88753 70.576C0.979937 66.666 0.5 62.5923 0.5 58.4062C0.5 28.8072 24.4947 4.8125 54.0938 4.8125C83.6928 4.8125 107.688 28.8072 107.688 58.4062Z" fill="#00D1FC"/>
<path d="M104.16 58.4062C104.16 82.5687 84.5726 102.156 60.4102 102.156C36.2477 102.156 16.6602 82.5687 16.6602 58.4062C16.6602 34.2438 36.2477 14.6562 60.4102 14.6562C84.5726 14.6562 104.16 34.2438 104.16 58.4062Z" fill="#64DCFC"/>
<path d="M33.3281 78.085H39.9873V110.124C37.7033 109.502 35.48 108.734 33.3281 107.829V78.085ZM80.0525 105.304C82.3843 104.011 84.6095 102.548 86.7117 100.934V78.085H80.0525V105.304Z" fill="#004B94"/>
<path d="M42.6677 47.7442V80.4838H13.9023V47.7442C13.9023 45.7334 14.9327 44.1033 16.2036 44.1033H33.3282V28.7637H39.9874V44.1033H40.3665C41.6374 44.1033 42.6677 45.7334 42.6677 47.7442Z" fill="#005AAF"/>
<path d="M45.2582 100.764H28.0601C26.2213 100.764 24.7305 99.2735 24.7305 97.4347C24.7305 95.5959 26.2213 94.1051 28.0601 94.1051H45.2582C47.097 94.1051 48.5878 95.5959 48.5878 97.4347C48.5878 99.2735 47.0972 100.764 45.2582 100.764ZM48.5878 18.3306C48.5878 16.4918 47.097 15.001 45.2582 15.001H28.0601C26.2213 15.001 24.7305 16.4918 24.7305 18.3306C24.7305 20.1694 26.2213 21.6602 28.0601 21.6602H45.2582C47.0972 21.6599 48.5878 20.1694 48.5878 18.3306Z" fill="#002C5D"/>
<path d="M38.3933 22.8033V34.4541C38.3933 36.7666 36.5187 38.6412 34.2062 38.6412H24.0269C21.7145 38.6412 19.8398 36.7666 19.8398 34.4541V22.8033C19.8398 20.4909 21.7145 18.6162 24.0269 18.6162H34.2062C36.5187 18.6164 38.3933 20.4909 38.3933 22.8033Z" fill="#004B94"/>
<path d="M49.102 38.642H32.0898C29.6735 38.642 27.7148 36.6833 27.7148 34.267V22.9922C27.7148 20.5759 29.6735 18.6172 32.0898 18.6172H49.102C51.5183 18.6172 53.477 20.5759 53.477 22.9922V34.267C53.477 36.6833 51.5181 38.642 49.102 38.642Z" fill="#005AAF"/>
<path d="M59.4136 47.7434V80.4831H25.6172V47.7434C25.6172 45.7327 26.8278 44.1025 28.3209 44.1025H56.7099C58.2031 44.1025 59.4136 45.7327 59.4136 47.7434Z" fill="#0573CF"/>
<path d="M22.4785 82.6092V64.3265C22.4785 63.2036 23.4942 62.2934 24.7472 62.2934H48.5682C49.8212 62.2934 50.8368 63.2036 50.8368 64.3265V82.6092H22.4785ZM48.568 49.6201H24.7472C23.4942 49.6201 22.4785 50.5303 22.4785 51.6532V52.1633C22.4785 55.632 25.2903 58.4438 28.759 58.4438H44.5563C48.025 58.4438 50.8368 55.632 50.8368 52.1633V51.6532C50.8366 50.5303 49.821 49.6201 48.568 49.6201Z" fill="#004B94"/>
<path d="M17.008 73.754C17.008 76.1462 15.0686 78.0857 12.6763 78.0857H4.83087C4.62 78.0857 5.45453 77.497 5.25175 77.4677C4.9105 76.6015 5.73562 76.1627 5.43878 75.275C5.37512 75.0842 3.12594 75.028 3.06425 74.8362C2.61516 73.4403 2.22184 72.0195 1.88672 70.5762C2.65956 69.86 3.69403 69.4219 4.83066 69.4219H12.6759C15.0686 69.4221 17.008 71.3615 17.008 73.754ZM72.3914 73.754C72.3914 71.3615 70.4519 69.4223 68.0597 69.4223H60.2144C57.822 69.4223 55.8827 71.3617 55.8827 73.754C55.8827 76.1465 57.8222 78.0857 60.2144 78.0857H68.0597C70.4519 78.0857 72.3914 76.1462 72.3914 73.754Z" fill="#005AAF"/>
<path d="M34.3633 88.5949C34.3633 92.5495 31.1575 95.7553 27.2031 95.7553H15.6575C13.3521 93.3831 11.2643 90.7986 9.42685 88.0336C9.25229 87.7711 10.3653 87.4767 10.1953 87.2107C10.0162 86.9307 9.83985 86.6489 9.66572 86.3654C10.5937 83.4869 12.0094 81.4346 15.1966 81.4346H27.2031C31.1575 81.4346 34.3633 84.6404 34.3633 88.5949Z" fill="#004B94"/>
<path d="M65.1185 88.5949C65.1185 92.5495 61.9127 95.7553 57.9584 95.7553H27.3789C23.4243 95.7553 20.2188 92.5495 20.2188 88.5949C20.2188 84.6404 23.4245 81.4346 27.3789 81.4346H57.9582C61.9127 81.4346 65.1185 84.6404 65.1185 88.5949Z" fill="#005AAF"/>
<path d="M65.6 73.805C65.6 76.2257 63.6376 78.1878 61.2169 78.1878H30.0013C27.5806 78.1878 25.6182 76.2254 25.6182 73.805C25.6182 71.3845 27.5806 69.4219 30.0013 69.4219H61.2169C63.6376 69.4219 65.6 71.3843 65.6 73.805ZM15.4238 69.4219H14.3147C11.894 69.4219 9.93164 71.3843 9.93164 73.805C9.93164 76.2257 11.894 78.1878 14.3147 78.1878H15.4238C17.8445 78.1878 19.8069 76.2254 19.8069 73.805C19.8069 71.3845 17.8445 69.4219 15.4238 69.4219Z" fill="white"/>
<path d="M40.2775 76.9296V85.9406C40.2775 87.0969 39.3402 88.034 38.1841 88.034H9.42809C6.73856 83.9873 4.58431 79.5544 3.06641 74.8359H38.1843C39.3402 74.8362 40.2775 75.7733 40.2775 76.9296Z" fill="#FFB509"/>
<path d="M27.7148 85.8465V77.0234C27.7148 75.8153 28.6942 74.8359 29.9023 74.8359H105.499C106.707 74.8359 107.687 75.8153 107.687 77.0234V85.8465C107.687 87.0547 106.707 88.034 105.499 88.034H29.9023C28.6942 88.034 27.7148 87.0547 27.7148 85.8465Z" fill="#FFC143"/>
</g>
<defs>
<clipPath id="clip0_21_11277">
<rect width="112" height="112" fill="white" transform="translate(0.5)"/>
</clipPath>
</defs>
</svg>
