<svg width="76" height="76" viewBox="0 0 76 76" fill="none" xmlns="http://www.w3.org/2000/svg">
<rect width="76" height="76" fill="#E7E7E7"/>
<g id="Ekai Final Website">
<path d="M-2082 -1362C-2082 -1363.1 -2081.1 -1364 -2080 -1364H3521C3522.1 -1364 3523 -1363.1 3523 -1362V6545C3523 6546.1 3522.1 6547 3521 6547H-2080C-2081.1 6547 -2082 6546.1 -2082 6545V-1362Z" fill="#939393"/>
<path d="M-2080 -1363H3521V-1365H-2080V-1363ZM3522 -1362V6545H3524V-1362H3522ZM3521 6546H-2080V6548H3521V6546ZM-2081 6545V-1362H-2083V6545H-2081ZM-2080 6546C-2080.55 6546 -2081 6545.55 -2081 6545H-2083C-2083 6546.66 -2081.66 6548 -2080 6548V6546ZM3522 6545C3522 6545.55 3521.55 6546 3521 6546V6548C3522.66 6548 3524 6546.66 3524 6545H3522ZM3521 -1363C3521.55 -1363 3522 -1362.55 3522 -1362H3524C3524 -1363.66 3522.66 -1365 3521 -1365V-1363ZM-2080 -1365C-2081.66 -1365 -2083 -1363.66 -2083 -1362H-2081C-2081 -1362.55 -2080.55 -1363 -2080 -1363V-1365Z" fill="black" fill-opacity="0.1"/>
<g id="Desktop - 71">
<rect width="1440" height="6116" transform="translate(-975 -361)" fill="white"/>
<g id="Frame 75" clip-path="url(#clip0_750_67139)">
<g id="Frame 490">
<g id="Frame 86">
<rect x="-247" y="-122" width="570" height="320" rx="32" fill="#FAF6EF"/>
<g id="Group 18">
<circle id="Ellipse 30" cx="38" cy="38" r="38" fill="#C87A3D"/>
<path id="Polygon 3" d="M46.7334 32.8048C50.7334 35.1142 50.7334 40.8877 46.7334 43.1971L38.1334 48.1623C34.1334 50.4717 29.1334 47.5849 29.1334 42.9661L29.1334 33.0357C29.1334 28.4169 34.1334 25.5301 38.1334 27.8395L46.7334 32.8048Z" fill="white"/>
</g>
</g>
</g>
</g>
</g>
</g>
<defs>
<clipPath id="clip0_750_67139">
<rect width="1440" height="5620" fill="white" transform="translate(-975 -361)"/>
</clipPath>
</defs>
</svg>
