<svg width="113" height="112" viewBox="0 0 113 112" fill="none" xmlns="http://www.w3.org/2000/svg">
<g clip-path="url(#clip0_21_10590)">
<path d="M105.602 82.941C109.997 74.9475 112.5 65.7665 112.5 56C112.5 25.072 87.428 0 56.5 0C25.572 0 0.5 25.072 0.5 56C0.5 65.7665 3.0025 74.9475 7.39762 82.941H105.602Z" fill="#FFBB16"/>
<path d="M82.1611 60.0955C76.9593 57.4086 71.2825 55.5131 65.2894 54.5684L65.2892 54.5705L20.1562 83.0019C28.6637 98.4743 41.7655 92.0724 49.8301 111.607C52.0174 111.866 54.2434 112 56.5005 112C69.9956 112 82.3749 107.226 92.043 99.275C97.5353 94.758 96.1909 82.931 96.188 82.9258L82.1611 60.0955Z" fill="#3D72A3"/>
<path d="M7.39844 82.9408C15.9065 98.4143 31.5145 109.43 49.8355 111.603L57.6788 103.76C59.3485 102.09 59.3485 99.3829 57.6788 97.713L46.9703 87.0045C45.3006 85.3348 42.5933 85.3348 40.9234 87.0045L38.9667 88.9612C37.297 90.631 34.5897 90.631 32.9198 88.9612L30.701 86.7425C29.0313 85.0727 29.0313 82.3655 30.701 80.6956L41.2758 70.1207C42.0777 69.3188 43.1652 68.8684 44.2992 68.8684H61.0136C63.375 68.8684 65.2893 66.9541 65.2893 64.5927V54.5702C62.4259 54.1187 59.4909 53.8818 56.5006 53.8818C35.3394 53.8818 16.9217 65.6211 7.39844 82.9408Z" fill="#21BF4A"/>
<path d="M96.0996 70.2835C91.8919 66.0758 87.18 62.6812 82.1602 60.0928V72.0774C82.1602 74.4681 83.1098 76.7609 84.8003 78.4514L89.6359 83.287C91.396 85.0471 91.396 87.9009 89.6359 89.661L89.2092 90.0878C87.4491 91.8478 87.4491 94.7016 89.2092 96.4617L92.0321 99.2847C97.5317 94.7651 102.153 89.2174 105.606 82.936C103.114 78.3969 99.9459 74.1297 96.0996 70.2835Z" fill="#21BF4A"/>
<path d="M61.9709 54.1481C60.171 53.9728 58.3466 53.8818 56.5008 53.8818C35.3394 53.8818 16.9217 65.6208 7.39844 82.9408C9.30747 86.4128 11.575 89.6595 14.1495 92.633C20.8844 71.8119 39.479 56.3277 61.9709 54.1481Z" fill="#17AA3D"/>
<path d="M56.5 35C64.9569 35 71.8125 28.1444 71.8125 19.6875C71.8125 11.2306 64.9569 4.375 56.5 4.375C48.0431 4.375 41.1875 11.2306 41.1875 19.6875C41.1875 28.1444 48.0431 35 56.5 35Z" fill="#2B2B2B"/>
<path d="M56.5 31.7188C63.1447 31.7188 68.5312 26.3322 68.5312 19.6875C68.5312 13.0428 63.1447 7.65625 56.5 7.65625C49.8553 7.65625 44.4688 13.0428 44.4688 19.6875C44.4688 26.3322 49.8553 31.7188 56.5 31.7188Z" fill="#E6E6E6"/>
<path d="M61.9688 21.3281H56.5C55.5939 21.3281 54.8594 20.5938 54.8594 19.6875V12.0312C54.8594 11.125 55.5939 10.3906 56.5 10.3906C57.4063 10.3906 58.1406 11.125 58.1406 12.0312V18.0469H61.9688C62.875 18.0469 63.6094 18.7812 63.6094 19.6875C63.6094 20.5938 62.875 21.3281 61.9688 21.3281Z" fill="#F73E3E"/>
<path d="M87.125 50.3125C95.5819 50.3125 102.438 43.4569 102.438 35C102.438 26.5431 95.5819 19.6875 87.125 19.6875C78.6681 19.6875 71.8125 26.5431 71.8125 35C71.8125 43.4569 78.6681 50.3125 87.125 50.3125Z" fill="#2B2B2B"/>
<path d="M87.125 47.0312C93.7697 47.0312 99.1562 41.6447 99.1562 35C99.1562 28.3553 93.7697 22.9688 87.125 22.9688C80.4803 22.9688 75.0938 28.3553 75.0938 35C75.0938 41.6447 80.4803 47.0312 87.125 47.0312Z" fill="#E6E6E6"/>
<path d="M87.1248 36.6406C86.8747 36.6406 86.6236 36.5835 86.3915 36.4676C85.8355 36.1896 85.4844 35.6215 85.4844 35V27.3438C85.4844 26.4375 86.2187 25.7031 87.125 25.7031C88.0313 25.7031 88.7656 26.4375 88.7656 27.3438V31.7174L90.5121 30.4067C91.2368 29.8622 92.2656 30.0092 92.809 30.7339C93.353 31.4587 93.2063 32.487 92.4818 33.0308L88.1098 36.3121C87.8204 36.5295 87.4737 36.6406 87.1248 36.6406Z" fill="#F73E3E"/>
<path d="M25.875 50.3125C34.3319 50.3125 41.1875 43.4569 41.1875 35C41.1875 26.5431 34.3319 19.6875 25.875 19.6875C17.4181 19.6875 10.5625 26.5431 10.5625 35C10.5625 43.4569 17.4181 50.3125 25.875 50.3125Z" fill="#2B2B2B"/>
<path d="M25.875 47.0312C32.5197 47.0312 37.9062 41.6447 37.9062 35C37.9062 28.3553 32.5197 22.9688 25.875 22.9688C19.2303 22.9688 13.8438 28.3553 13.8438 35C13.8438 41.6447 19.2303 47.0312 25.875 47.0312Z" fill="#E6E6E6"/>
<path d="M29.5102 40.7221C29.0585 40.7221 28.6085 40.5366 28.2843 40.1723L24.6498 36.0909C24.3823 35.7906 24.2344 35.4023 24.2344 35V27.3438C24.2344 26.4375 24.9689 25.7031 25.875 25.7031C26.7811 25.7031 27.5156 26.4375 27.5156 27.3438V34.3755L30.7348 37.9905C31.3374 38.6671 31.2772 39.7042 30.6007 40.3067C30.2881 40.5851 29.8982 40.7221 29.5102 40.7221Z" fill="#F73E3E"/>
</g>
<defs>
<clipPath id="clip0_21_10590">
<rect width="112" height="112" fill="white" transform="translate(0.5)"/>
</clipPath>
</defs>
</svg>
