<svg width="126" height="120" viewBox="0 0 126 120" fill="none" xmlns="http://www.w3.org/2000/svg">
<path d="M115.379 64.5829C115.313 64.2374 114.997 62.7207 114.509 62.7207C113.979 62.7245 113.697 64.2374 113.64 64.5838C113.183 64.668 111.777 64.9674 111.777 65.4534C111.777 65.9856 113.292 66.266 113.64 66.3234C113.696 66.6718 113.972 68.186 114.51 68.186C115.065 68.186 115.327 66.6725 115.381 66.3234C115.729 66.266 117.243 65.9856 117.243 65.4534C117.243 64.9233 115.725 64.6406 115.379 64.5829Z" fill="#F59F00"/>
<path d="M24.8024 89.0664C24.2722 89.0699 23.9903 90.5836 23.9328 90.9295C23.5868 90.9929 22.0703 91.3007 22.0703 91.7989C22.0703 92.3284 23.5851 92.6111 23.9328 92.6691C23.989 93.0173 24.2645 94.5316 24.8029 94.5316C25.358 94.5316 25.6202 93.0187 25.6733 92.6691C26.0216 92.6111 27.5356 92.3284 27.5356 91.7989C27.5356 91.2661 26.0185 90.9857 25.6723 90.9286C25.6066 90.5836 25.2894 89.0664 24.8024 89.0664Z" fill="#F59F00"/>
<path d="M49.9947 15.13C49.9288 14.7844 49.6119 13.2676 49.1247 13.2676C48.5945 13.2712 48.3127 14.7847 48.2551 15.1306C47.9093 15.1944 46.3926 15.5029 46.3926 16.0002C46.3926 16.5311 47.9074 16.8128 48.2551 16.8703C48.3114 17.2186 48.5868 18.7328 49.1252 18.7328C49.6802 18.7328 49.9425 17.2195 49.9958 16.8703C50.3441 16.8126 51.858 16.531 51.858 16.0002C51.858 15.4689 50.3408 15.1872 49.9947 15.13Z" fill="#F59F00"/>
<path d="M39.0704 11.1134L39.0604 11.1036C39 10.786 38.5397 8.48828 37.8654 8.48828C37.1237 8.49332 36.7226 10.7855 36.6705 11.1043L36.6607 11.1141C36.3431 11.1725 34.0449 11.6192 34.0449 12.309C34.0449 13.052 36.3418 13.4524 36.6613 13.5043L36.6704 13.5134C36.7212 13.8332 37.1117 16.1298 37.8659 16.1298C38.6437 16.1298 39.0138 13.8342 39.0617 13.5133L39.0705 13.5045C39.3898 13.4523 41.6868 13.0513 41.6868 12.309C41.6868 11.5671 39.3894 11.1656 39.0704 11.1134Z" fill="#F59F00"/>
<path d="M111.67 27.6423C107.704 25.2889 103.059 24.6203 98.5912 25.7608C96.9544 26.1785 95.3933 26.8302 93.9507 27.6986L89.4595 10.0965C88.9723 8.18729 87.023 7.03063 85.1135 7.51751L69.8119 11.4216C69.8024 11.424 69.7942 11.4301 69.7892 11.4385C69.7842 11.447 69.7828 11.4571 69.7852 11.4665C72.1287 20.6512 66.5629 30.0301 57.3783 32.3736C48.1933 34.717 38.8146 29.1515 36.4712 19.9667C36.4687 19.9572 36.4627 19.949 36.4543 19.9441C36.4458 19.9391 36.4356 19.9379 36.4263 19.9401L21.1247 23.8443C19.2155 24.3314 18.0585 26.281 18.5455 28.1903L23.0368 45.7924C21.3547 45.723 19.672 45.8972 18.0353 46.3149C8.81117 48.6685 3.22151 58.0877 5.57505 67.3119C7.92882 76.536 17.3478 82.1249 26.5718 79.772C28.2087 79.3544 29.7696 78.7025 31.2123 77.8343L35.7036 95.4365C35.9385 96.3575 36.5213 97.1337 37.3446 97.6224C38.1678 98.1107 39.1284 98.2506 40.0495 98.0152L56.023 93.9397C55.9522 95.6219 56.1279 97.3045 56.5455 98.9414C56.7897 99.8979 57.133 100.865 57.5657 101.814C57.5683 101.82 57.5721 101.825 57.5771 101.828C60.395 103.958 63.9726 105.168 67.6507 105.239C67.7631 105.241 67.8747 105.242 67.9867 105.242C71.5912 105.242 75.0312 104.132 77.7048 102.1C81.5477 99.2686 83.8075 93.437 83.3284 87.5896C83.1121 84.9482 85.0405 82.6113 87.7186 82.2694C92.1387 81.7049 95.7496 78.6987 96.9175 74.6111C98.0249 70.8134 98.0642 66.7157 97.0308 62.7608C96.6458 61.2871 96.95 59.7396 97.8656 58.5151C98.7716 57.3035 100.152 56.5819 101.652 56.5354C105.15 56.4266 108.917 55.3011 112.259 53.3662C114.511 52.1054 116.412 50.1832 117.756 47.8074C119.036 45.5466 119.8 42.9131 119.966 40.1845C119.875 39.5067 119.747 38.846 119.588 38.2211C118.448 33.7527 115.636 29.9958 111.67 27.6423Z" fill="#ED7230"/>
<path d="M119.927 40.1504C119.908 40.1511 119.893 40.1661 119.892 40.185C119.543 45.9043 116.676 50.8077 112.222 53.3017C108.89 55.2309 105.135 56.3529 101.649 56.4612C100.126 56.5085 98.725 57.2409 97.8054 58.4706C96.8763 59.7132 96.5675 61.2837 96.9583 62.779C97.9883 66.7212 97.9494 70.8054 96.8455 74.5904C95.6857 78.6497 92.0991 81.6352 87.7083 82.1959C84.9908 82.5428 83.0342 84.9145 83.2539 87.5951C83.731 93.4182 81.483 99.2232 77.6595 102.041C72.0615 106.295 63.442 106.175 57.6099 101.762C57.5966 101.751 57.5779 101.751 57.5646 101.762C57.5515 101.773 57.5471 101.791 57.5541 101.806C58.615 104.151 60.2237 106.265 62.2063 107.919L62.2319 107.941C62.4009 108.082 62.5786 108.223 62.7753 108.373L62.7907 108.385C62.8118 108.402 62.8327 108.418 62.8537 108.434C63.0185 108.559 63.1912 108.684 63.3822 108.817C63.4199 108.844 63.4579 108.87 63.496 108.897C63.6637 109.012 63.8391 109.128 64.0173 109.241L64.1579 109.329C64.3359 109.44 64.5108 109.545 64.6776 109.641C64.7176 109.664 64.7576 109.686 64.7976 109.708L64.8361 109.73C65.0265 109.837 65.1981 109.929 65.3606 110.014C65.3955 110.032 65.4308 110.049 65.4661 110.066L65.5267 110.096C65.6722 110.17 65.8647 110.265 66.0629 110.357C66.0943 110.372 66.1261 110.385 66.1578 110.399L66.2234 110.428C66.4306 110.521 66.6052 110.597 66.783 110.67C66.8049 110.679 66.827 110.687 66.849 110.695L66.8954 110.713C67.513 110.96 68.1564 111.174 68.808 111.349C68.8352 111.356 68.8624 111.364 68.8893 111.371C68.9229 111.381 68.9564 111.391 68.9901 111.399C69.1081 111.43 69.2272 111.457 69.3463 111.484L69.5469 111.53C69.6237 111.548 69.7006 111.566 69.7779 111.582C69.8866 111.604 69.9961 111.624 70.1059 111.644L70.2523 111.671C70.36 111.69 70.4677 111.71 70.5759 111.727C70.6937 111.746 70.8122 111.762 70.9304 111.778L70.9852 111.785C71.1181 111.803 71.2506 111.82 71.384 111.835C71.5155 111.85 71.6479 111.861 71.7816 111.873C71.9209 111.885 72.0602 111.896 72.2001 111.905C72.3302 111.913 72.4606 111.919 72.5913 111.924C72.7355 111.93 72.8797 111.934 73.0247 111.936C73.1128 111.937 73.2012 111.938 73.2898 111.938C73.3294 111.938 73.3691 111.938 73.4086 111.937C73.5578 111.936 73.7069 111.932 73.8563 111.927C73.9818 111.923 74.1072 111.918 74.2328 111.911C74.3955 111.902 74.5578 111.889 74.6951 111.877L74.7247 111.875C74.8368 111.865 74.949 111.856 75.0616 111.844C75.222 111.827 75.3852 111.806 75.543 111.784L75.6347 111.772C75.721 111.761 75.8074 111.75 75.8938 111.737C76.0563 111.712 76.2215 111.681 76.3811 111.651L76.4078 111.646C76.447 111.639 76.4862 111.632 76.5256 111.625C76.5928 111.613 76.66 111.601 76.7272 111.587C76.9269 111.546 77.1251 111.499 77.3276 111.45C77.3619 111.442 77.3964 111.434 77.4309 111.427C77.4746 111.417 77.5182 111.407 77.5619 111.396C77.8421 111.324 78.118 111.246 78.3818 111.165C78.3819 111.165 78.3928 111.161 78.3929 111.161L78.4571 111.14C78.7115 111.06 78.9601 110.976 79.1961 110.89C79.2492 110.871 79.3013 110.85 79.3534 110.829C79.3843 110.817 79.4154 110.805 79.4465 110.793C79.6165 110.728 79.7924 110.661 79.9669 110.587C80.0575 110.549 80.1467 110.509 80.2361 110.469L80.359 110.414C80.4741 110.363 80.5894 110.311 80.7027 110.257C80.8553 110.184 81.004 110.109 81.1432 110.038L81.2134 110.002C81.2773 109.969 81.3411 109.937 81.4043 109.903C81.5789 109.809 81.7531 109.712 81.9219 109.614L81.9704 109.586C82.0031 109.567 82.0357 109.548 82.068 109.529C82.2839 109.401 82.4781 109.28 82.6619 109.16L82.6912 109.141C85.0192 107.62 86.9722 105.521 88.339 103.071C89.7118 100.61 90.4705 97.8345 90.5331 95.0447C90.5336 95.0147 90.5347 94.9847 90.5357 94.955C90.5371 94.9117 90.5386 94.8685 90.539 94.8252C90.5401 94.7061 90.5378 94.5866 90.5355 94.4669L90.5323 94.2939C90.5306 94.1883 90.5288 94.083 90.5247 93.9772C90.5208 93.8785 90.5143 93.7796 90.5079 93.6806L90.5026 93.5958C90.493 93.4472 90.4827 93.2892 90.4684 93.1302C90.4588 93.0261 90.4473 92.9216 90.4356 92.8173L90.4315 92.7806C90.4104 92.5911 90.3911 92.4356 90.3708 92.2909C90.3542 92.1735 90.3358 92.0561 90.317 91.9387C90.3112 91.9032 90.306 91.8677 90.3008 91.8323C90.2938 91.7832 90.2866 91.7342 90.278 91.6854C90.2705 91.6427 90.2617 91.6012 90.253 91.5593C90.2462 91.5276 90.2395 91.4956 90.2334 91.4636C90.2092 91.3369 90.1841 91.2109 90.1572 91.0857C90.1254 90.9363 90.0906 90.7834 90.0505 90.6181C90.0173 90.4814 89.9841 90.3447 89.9479 90.2094C89.9254 90.125 89.9023 90.041 89.8786 89.957C89.8347 89.8024 89.7858 89.6397 89.7288 89.4595L89.7054 89.3851C89.6906 89.3372 89.6756 89.2891 89.6599 89.2418C89.5755 88.9865 89.4959 88.7606 89.4165 88.5515L89.406 88.5247C89.3268 88.3167 89.2406 88.1041 89.1426 87.8757C89.1229 87.8292 89.1024 87.7834 89.0818 87.7372L89.0496 87.6654C88.9775 87.5027 88.9089 87.3535 88.8399 87.2097C88.8033 87.1332 88.7663 87.0574 88.7287 86.9815C88.6565 86.8363 88.5792 86.6867 88.499 86.5367L88.4626 86.4683C88.4398 86.425 88.417 86.3817 88.3934 86.3391C88.2761 86.126 88.168 85.9373 88.0637 85.7639L104.037 81.6884C105.947 81.2013 107.103 79.2519 106.616 77.3424L102.125 59.7403C102.317 59.7483 102.51 59.7533 102.699 59.7549C103.752 59.764 104.816 59.6761 105.857 59.492C106.281 59.417 106.708 59.3246 107.127 59.2178C107.394 59.1496 107.672 59.0711 107.953 58.9847C108.009 58.9672 108.065 58.9484 108.121 58.9293C108.155 58.9175 108.19 58.9057 108.229 58.8931C108.403 58.8361 108.584 58.7775 108.758 58.7143C108.829 58.6885 108.899 58.6611 108.969 58.6337L109.11 58.579C109.252 58.5242 109.399 58.4675 109.542 58.4078C109.626 58.3728 109.708 58.336 109.791 58.2991L109.873 58.2623C110.006 58.2033 110.157 58.1365 110.303 58.0668C110.402 58.0199 110.499 57.9708 110.596 57.9219L110.638 57.9006C110.774 57.8323 110.909 57.7637 111.042 57.6923C111.154 57.632 111.265 57.5695 111.375 57.507C111.503 57.4346 111.63 57.3614 111.756 57.2857C111.867 57.219 111.977 57.1508 112.086 57.0815C112.207 57.0052 112.326 56.9276 112.445 56.8486C112.555 56.7755 112.663 56.7015 112.771 56.626C112.884 56.5463 112.996 56.4651 113.107 56.3829C113.216 56.303 113.323 56.2228 113.429 56.1406C113.535 56.0585 113.639 55.9746 113.742 55.8904L113.76 55.8762C113.861 55.7938 113.962 55.7115 114.061 55.6271C114.146 55.5545 114.229 55.4804 114.312 55.4062L114.393 55.3334C114.485 55.2518 114.576 55.1702 114.665 55.0863C114.73 55.0254 114.794 54.963 114.857 54.9007L114.986 54.7745C115.072 54.6904 115.158 54.6061 115.242 54.5195C115.288 54.4724 115.332 54.4242 115.377 54.3759L115.5 54.2433C115.596 54.1409 115.695 54.0352 115.79 53.9281C115.801 53.9155 115.812 53.9028 115.822 53.89C115.831 53.8792 115.84 53.8683 115.85 53.8577C116.315 53.3245 116.752 52.7567 117.149 52.1698L117.176 52.1322C117.187 52.1163 117.198 52.1006 117.208 52.0846C117.325 51.9103 117.436 51.732 117.539 51.5653C117.553 51.544 117.566 51.523 117.579 51.502C117.597 51.474 117.615 51.446 117.632 51.4176C117.744 51.2311 117.85 51.0444 117.929 50.9024L117.963 50.8411C117.983 50.8056 118.004 50.7702 118.023 50.7342C118.105 50.584 118.189 50.4224 118.295 50.2109L118.326 50.1494C118.345 50.1115 118.364 50.0738 118.382 50.0358C118.462 49.8712 118.544 49.6951 118.632 49.4977L118.647 49.4639C118.668 49.4174 118.688 49.3711 118.708 49.3243C118.785 49.146 118.861 48.9634 118.938 48.766C118.959 48.7115 118.98 48.6571 119.001 48.6026C119.075 48.406 119.146 48.2097 119.211 48.0191C119.227 47.9704 119.243 47.9217 119.259 47.8729C119.331 47.6554 119.393 47.4545 119.449 47.2589C119.457 47.232 119.465 47.2047 119.472 47.1776L119.482 47.1407C119.549 46.9031 119.605 46.6887 119.654 46.4852L119.669 46.4169C120.15 44.3664 120.249 42.2688 119.966 40.1824C119.963 40.1635 119.95 40.1504 119.927 40.1504Z" fill="#E66420"/>
<path d="M31.0011 24.8156C30.8108 24.8567 30.596 24.9011 30.3619 24.9494C27.8423 25.4701 23.1521 26.4391 22.5259 28.7969C22.3017 29.6405 22.5692 30.5096 22.8279 31.35L22.8307 31.3592C24.1665 35.6992 25.4542 40.0562 26.526 45.629L26.5506 45.7567C26.733 46.6967 27.0384 48.2703 26.3663 48.8927C25.8441 49.3763 25.0761 49.4659 24.3985 49.5452C21.7558 49.8544 18.6829 50.346 15.93 51.6492C13.0003 53.0362 10.8432 55.1852 9.85625 57.7001C9.39778 58.8686 9.29363 59.9151 9.54671 60.8105C9.81367 61.7551 10.6728 62.739 11.7984 62.7918C11.8328 62.7932 11.867 62.7941 11.901 62.7941C13.1533 62.7941 14.1082 61.7199 14.9534 60.7689C15.0333 60.6792 15.1123 60.5901 15.1909 60.5029C16.8114 58.7035 18.9987 57.2552 21.5166 56.3145C23.3325 55.636 25.2794 55.4 27.1624 55.1718C27.9898 55.0715 28.8454 54.9678 29.6788 54.8277C31.7368 54.4823 33.2813 52.9202 33.9165 50.5422C34.6004 47.9821 34.1617 45.603 33.6099 43.1887C33.5231 42.8095 33.4224 42.4026 33.3159 41.9716C32.566 38.9405 31.5392 34.7895 33.4902 32.3684C33.7197 32.0835 33.993 31.8273 34.2572 31.5793C34.5821 31.2746 34.9181 30.9595 35.1778 30.5872C36.0133 29.3892 36.0075 27.9159 35.1624 26.6464C34.212 25.2189 32.539 24.4826 31.0011 24.8156Z" fill="#F5A268"/>
</svg>
