<svg width="626" height="413" viewBox="0 0 626 413" fill="none" xmlns="http://www.w3.org/2000/svg">
<path d="M335.669 139.539C311.115 136.058 287.844 126.46 267.763 111.908C237.769 90.1715 175.001 53.1845 115.125 71.6085C32.5368 97.0205 32.1678 170.534 53.6798 210.467C75.1918 250.4 227.743 367.337 425.513 348.73C602.488 332.081 636.976 141.492 542.589 107.004C460.723 77.0915 432.794 153.307 335.669 139.539Z" fill="#E8D9CC"/>
<path d="M104.411 269.138C104.411 269.138 94.035 261.302 87.498 269.48C80.961 277.658 95.361 290.707 104.928 289.99C114.495 289.272 115.913 275.414 104.411 269.138Z" fill="#E8D9CC"/>
<path d="M128.084 288.022C128.084 288.022 120.265 282.937 115.998 289.117C111.731 295.298 122.692 303.911 129.502 302.917C136.312 301.922 136.629 291.934 128.084 288.022Z" fill="#E8D9CC"/>
<path d="M269.327 85.9345C269.327 85.9345 259.485 80.1535 254.613 87.9465C249.741 95.7395 263.62 105.661 271.89 104.066C280.16 102.471 279.993 90.2415 269.327 85.9345Z" fill="#E8D9CC"/>
<path d="M625.781 203.969C625.781 203.969 627.922 185.971 613.482 183.848C599.043 181.725 593.453 208.232 601.04 219.246C608.628 230.259 626.308 222.226 625.781 203.969Z" fill="#E8D9CC"/>
<path d="M104.238 404.962C104.238 408.914 193.459 412.117 303.518 412.117C413.577 412.117 502.797 408.913 502.797 404.962C502.797 401.01 413.576 397.807 303.518 397.807C193.459 397.806 104.238 401.01 104.238 404.962Z" fill="#E8D9CC"/>
<path d="M274.955 136.131C273.983 134.958 274.499 132.365 274.168 130.382C273.731 127.767 273.883 123.71 274.57 121.445C275.6 118.043 279.185 108.193 281.848 106.919C284.511 105.646 282.078 114.382 281.614 116.183C281.15 117.985 281.503 119.377 281.503 119.377C281.503 119.377 288.637 99.7671 290.863 98.9931C293.088 98.2191 290.147 109.785 289.4 112.639C289.4 112.639 295.597 98.1611 297.164 98.1161C300.309 98.0251 293.893 114.299 293.893 114.299C293.893 114.299 299.726 102.385 301.656 103.4C303.7 104.475 297.419 117.22 297.419 117.22C297.419 117.22 302.356 110.008 304.421 110.124C306.486 110.24 297.287 126.181 295.578 128.461C293.869 130.742 289.769 137.267 287.065 139.828C285.226 141.571 278.033 139.844 274.955 136.131Z" fill="#ECB3A3"/>
<path d="M296.675 122.284C296.879 122.077 296.901 121.746 296.716 121.512C292.389 116.032 285.486 115.683 285.195 115.671C284.872 115.657 284.6 115.908 284.586 116.231C284.573 116.554 284.823 116.826 285.146 116.84C285.212 116.843 291.811 117.188 295.798 122.237C295.998 122.49 296.366 122.534 296.62 122.334C296.64 122.318 296.658 122.302 296.675 122.284Z" fill="#DF826F"/>
<path d="M286.223 132.697C286.385 132.532 286.44 132.279 286.343 132.053C283.558 125.645 287.269 121.613 287.307 121.573C287.529 121.338 287.519 120.968 287.284 120.746C287.052 120.526 286.688 120.534 286.465 120.761C286.462 120.764 286.46 120.766 286.457 120.77C286.281 120.956 282.181 125.41 285.27 132.52C285.399 132.817 285.743 132.952 286.04 132.823C286.11 132.793 286.172 132.749 286.223 132.697Z" fill="#DF826F"/>
<path d="M221.473 141.493L226.166 146.589C227.745 148.311 229.338 150.022 230.939 151.714C234.13 155.106 237.347 158.442 240.587 161.628C242.212 163.211 243.833 164.771 245.466 166.237C247.087 167.717 248.729 169.105 250.312 170.349C251.104 170.967 251.886 171.542 252.628 172.043C253.365 172.547 254.067 172.981 254.638 173.286C254.786 173.37 254.902 173.418 255.033 173.49L255.194 173.563C255.247 173.589 255.302 173.617 255.336 173.628C255.375 173.644 255.414 173.661 255.452 173.679C255.484 173.693 255.498 173.694 255.52 173.705L255.55 173.721L255.438 173.69L255.302 173.658C255.12 173.622 254.929 173.58 254.741 173.562C254.36 173.514 253.986 173.503 253.642 173.532C253.307 173.551 253.007 173.607 252.765 173.668C252.286 173.787 252.029 173.933 251.938 173.99C251.847 174.05 251.895 174.045 252.011 173.97C252.128 173.898 252.314 173.751 252.531 173.567C252.968 173.193 253.514 172.633 254.07 171.98C255.189 170.668 256.376 169.013 257.511 167.251C258.645 165.479 259.771 163.591 260.848 161.636C261.934 159.685 262.989 157.67 264.021 155.624C266.086 151.528 268.062 147.303 269.991 143.031C270.475 141.963 270.954 140.892 271.426 139.816L272.841 136.586L275.601 130.167L290.587 134.924L290.36 135.878L290.133 136.793L289.672 138.607C289.358 139.811 289.025 141.007 288.692 142.202L288.185 143.993L287.651 145.776C287.292 146.964 286.925 148.151 286.551 149.337C285.044 154.078 283.377 158.788 281.484 163.489C279.574 168.191 277.484 172.874 274.825 177.611C273.479 179.982 272.017 182.371 270.124 184.828C269.174 186.058 268.121 187.31 266.809 188.598C266.151 189.243 265.427 189.891 264.582 190.545C263.737 191.198 262.775 191.857 261.617 192.479C260.46 193.097 259.072 193.688 257.418 194.08C256.588 194.275 255.689 194.413 254.753 194.471C253.807 194.523 252.828 194.495 251.85 194.364C251.365 194.295 250.873 194.213 250.401 194.097L250.045 194.009L249.714 193.921L249.313 193.801C249.049 193.72 248.773 193.636 248.521 193.55L247.789 193.286C247.539 193.196 247.316 193.105 247.092 193.013L246.42 192.733C246.008 192.544 245.569 192.352 245.183 192.157C243.6 191.377 242.231 190.568 240.955 189.746C239.684 188.919 238.511 188.08 237.388 187.233C235.142 185.544 233.113 183.798 231.159 182.041C229.215 180.273 227.36 178.487 225.569 176.665C221.986 173.032 218.636 169.297 215.423 165.477C213.822 163.562 212.257 161.627 210.719 159.67C209.957 158.685 209.2 157.697 208.447 156.701L207.332 155.188L206.774 154.421L206.199 153.611L221.473 141.493Z" fill="#ECB3A3"/>
<path d="M216.346 126.617C216.346 126.617 221.596 127.617 228.096 140.117C234.596 152.617 241.096 160.117 241.096 160.117L228.096 184.117L221.596 176.117C221.596 176.117 195.346 139.367 216.346 126.617Z" fill="#24443B"/>
<path d="M245.719 349.993C245.48 349.993 245.236 349.953 244.998 349.867L160.748 319.492C159.644 319.094 159.072 317.876 159.47 316.772C159.868 315.668 161.086 315.095 162.19 315.494L246.44 345.869C247.544 346.267 248.116 347.485 247.718 348.589C247.406 349.455 246.589 349.993 245.719 349.993Z" fill="#DB8B58"/>
<path d="M157.969 349.993C157.1 349.993 156.284 349.456 155.971 348.591C155.572 347.487 156.142 346.269 157.246 345.869L242.496 314.994C243.599 314.595 244.818 315.165 245.218 316.269C245.617 317.373 245.047 318.59 243.943 318.99L158.693 349.865C158.454 349.952 158.209 349.993 157.969 349.993Z" fill="#DB8B58"/>
<path d="M253.212 404.278C251.418 404.278 249.857 402.95 249.612 401.123L234.394 287.501H170.715L155.735 401.116C155.473 403.107 153.646 404.509 151.654 404.246C149.663 403.984 148.261 402.156 148.524 400.165L163.92 283.389C164.159 281.58 165.701 280.228 167.526 280.228H237.576C239.398 280.228 240.939 281.576 241.18 283.382L256.82 400.158C257.087 402.149 255.689 403.979 253.698 404.245C253.535 404.267 253.372 404.278 253.212 404.278Z" fill="#ECA667"/>
<path d="M217.289 283.864H171.794C157.381 283.864 141.946 275.976 139.733 261.734C136.774 242.689 136.042 224.245 136.868 207.32C137.802 188.178 146.943 170.37 161.991 158.502C161.991 158.502 171.079 198.106 159.651 252.767C164.015 273.537 217.289 283.864 217.289 283.864Z" fill="#ECA667"/>
<path d="M300.163 241.01C295.123 236.048 214.845 215.753 188.439 223.127C185.413 228.95 222.07 252.908 231.53 266.554C266.242 272.227 285.615 283.903 285.615 283.903C285.615 283.903 297.923 312.346 305.236 322.785C312.55 333.224 326.486 362.198 326.486 362.198L346.082 352.888C346.082 352.888 313.887 254.519 300.163 241.01Z" fill="#0E191E"/>
<path d="M321.693 350.964C321.412 350.964 321.144 350.8 321.025 350.525C320.866 350.156 321.035 349.728 321.404 349.569L341.074 341.058C341.443 340.898 341.871 341.068 342.03 341.436C342.19 341.805 342.02 342.233 341.651 342.392L321.982 350.903C321.888 350.944 321.79 350.964 321.693 350.964Z" fill="#243434"/>
<path d="M326.488 348.889C326.209 348.889 325.943 348.728 325.822 348.456C325.763 348.324 324.22 344.968 312.928 326.472C300.626 306.322 288.286 277.288 288.163 276.997C288.006 276.627 288.179 276.2 288.549 276.044C288.918 275.887 289.346 276.06 289.502 276.43C289.625 276.72 301.924 305.657 314.169 325.714C325.586 344.414 327.093 347.735 327.152 347.867C327.315 348.234 327.149 348.664 326.782 348.827C326.687 348.869 326.587 348.889 326.488 348.889Z" fill="#243434"/>
<path d="M355.32 372.884L341.783 378.877L333.785 367.475L329.188 360.917L344.34 353.717L348.47 360.93L355.32 372.884Z" fill="#ECB3A3"/>
<path d="M355.32 372.884L341.782 378.877L336.755 371.709L333.785 367.475L348.469 360.93L350.934 365.232L355.32 372.884Z" fill="#406F5D"/>
<path d="M350.934 365.232L336.755 371.709L333.785 367.475L348.469 360.93L350.934 365.232Z" fill="#24443B"/>
<path d="M398.197 379.479L346.992 402.144C346.304 401.622 345.662 400.731 345.06 399.599C342.823 395.409 341.142 387.886 339.89 383.226C339.747 382.681 339.607 382.176 339.472 381.721C339.242 380.951 339.032 380.319 338.837 379.873C337.262 376.316 340.679 375.533 340.679 375.533C348.109 378.318 350.604 368.103 355.137 369.085C355.137 369.085 355.297 369.118 355.657 369.21C356.02 369.3 356.582 369.45 357.392 369.683C358.595 370.028 360.342 370.555 362.767 371.348C368.447 373.208 376.432 372.56 383.407 372.418C384.267 372.401 385.08 372.403 385.842 372.431C386.432 372.448 386.994 372.478 387.53 372.518C393.555 372.975 396.207 374.788 397.36 376.448C398.459 378.035 398.197 379.479 398.197 379.479Z" fill="#F48464"/>
<path d="M387.529 372.519C386.586 374.169 384.419 377.522 382.016 378.264C381.544 378.409 380.646 378.472 379.464 378.472C376.414 378.475 371.481 378.052 367.184 377.534C363.769 377.121 360.609 376.636 358.282 376.164C354.472 375.389 353.642 374.842 353.315 374.362C352.305 372.889 353.93 370.817 355.657 369.212C356.02 369.302 356.582 369.452 357.392 369.685C355.472 371.332 354.215 372.952 354.542 373.498C355.059 373.976 358.95 375.045 367.64 376.078C374.272 376.866 380.392 377.196 381.575 376.833C383.135 376.351 384.797 374.128 385.842 372.433C386.431 372.449 386.994 372.479 387.529 372.519Z" fill="#B85144"/>
<path d="M398.198 379.48L346.991 402.146C346.304 401.623 345.662 400.733 345.059 399.6L397.36 376.45C398.458 378.034 398.198 379.48 398.198 379.48Z" fill="#B85144"/>
<path d="M352.214 399.833L350.693 400.506C351.443 398.1 351.686 394.81 349.816 391.088C347.329 386.137 342.784 384.071 339.888 383.227C339.745 382.681 339.605 382.175 339.469 381.721C342.512 382.452 348.027 384.56 351.008 390.487C352.794 394.043 352.801 397.28 352.214 399.833Z" fill="#B85144"/>
<path d="M363.234 374.756C362.855 374.923 362.397 374.819 362.132 374.477C361.819 374.075 361.892 373.495 362.295 373.182L365.142 370.972C365.544 370.659 366.124 370.732 366.437 371.135C366.75 371.537 366.677 372.117 366.274 372.43L363.427 374.64C363.366 374.687 363.301 374.726 363.234 374.756Z" fill="#B85144"/>
<path d="M358.878 373.498C358.499 373.666 358.041 373.561 357.776 373.219C357.463 372.817 357.536 372.237 357.939 371.924L360.786 369.714C361.188 369.401 361.768 369.474 362.081 369.877C362.394 370.28 362.321 370.859 361.918 371.172L359.071 373.382C359.01 373.43 358.945 373.468 358.878 373.498Z" fill="#B85144"/>
<path d="M367.257 375.198C366.878 375.366 366.42 375.261 366.155 374.919C365.842 374.517 365.915 373.937 366.318 373.624L369.165 371.414C369.567 371.101 370.147 371.174 370.46 371.577C370.773 371.979 370.7 372.56 370.297 372.872L367.45 375.082C367.389 375.13 367.324 375.168 367.257 375.198Z" fill="#B85144"/>
<path d="M371.245 375.57C370.866 375.737 370.408 375.633 370.143 375.291C369.83 374.889 369.903 374.309 370.306 373.996L373.153 371.786C373.555 371.473 374.135 371.547 374.448 371.949C374.761 372.351 374.688 372.931 374.285 373.244L371.438 375.454C371.377 375.501 371.312 375.54 371.245 375.57Z" fill="#B85144"/>
<path d="M375.464 375.679C375.085 375.847 374.627 375.742 374.362 375.4C374.05 374.998 374.122 374.418 374.525 374.105L377.372 371.895C377.775 371.582 378.354 371.655 378.667 372.058C378.979 372.46 378.906 373.04 378.504 373.353L375.657 375.563C375.596 375.61 375.532 375.649 375.464 375.679Z" fill="#B85144"/>
<path d="M379.874 375.414C379.495 375.582 379.037 375.477 378.772 375.135C378.46 374.733 378.533 374.153 378.935 373.84L381.782 371.63C382.184 371.317 382.764 371.39 383.077 371.793C383.389 372.195 383.316 372.775 382.914 373.088L380.067 375.298C380.006 375.346 379.941 375.384 379.874 375.414Z" fill="#B85144"/>
<path d="M183.315 262.262C159.432 237.307 156.167 199.755 156.897 181.382C156.987 179.09 156.927 176.607 156.767 174.012C156.532 170.192 156.085 166.117 155.6 162.017C153.775 146.607 151.402 130.812 157.722 126.537C163.392 122.697 168.99 123.189 173.687 121.67C176.6 120.725 179.662 120.343 182.717 120.552L200.502 121.777C200.502 121.777 213.39 122.902 216.494 124.837C219.602 126.772 221.852 136.194 227.839 144.517C233.829 152.84 235.669 161.51 231.356 171.5C227.606 180.19 228.134 176.965 228.631 190.7C228.708 192.85 228.838 195.045 229.006 197.255C229.044 197.755 229.083 198.252 229.126 198.752C230.338 213.37 233.101 228.377 233.764 235.682C235.06 249.972 192.365 271.722 183.315 262.262Z" fill="#406F5D"/>
<path d="M197.815 138.153C197.665 138.153 197.514 138.151 197.361 138.148C192.961 138.053 189.157 136.637 188.998 136.577C188.675 136.455 188.512 136.095 188.634 135.772C188.756 135.449 189.117 135.286 189.439 135.407C189.586 135.462 204.164 140.812 208.138 130.762C208.265 130.441 208.628 130.283 208.949 130.41C209.27 130.537 209.427 130.9 209.301 131.221C207.504 135.763 203.538 138.153 197.815 138.153Z" fill="#24443B"/>
<path d="M190.719 190.617C190.547 190.617 190.376 190.546 190.252 190.408C190.022 190.15 190.045 189.755 190.303 189.525C197.51 183.104 205.673 180.413 211.251 179.285C217.296 178.064 221.584 178.355 221.764 178.368C222.108 178.393 222.367 178.692 222.342 179.036C222.317 179.38 222.019 179.64 221.674 179.614C221.504 179.601 204.517 178.535 191.135 190.457C191.016 190.565 190.867 190.617 190.719 190.617Z" fill="#24443B"/>
<path d="M189.605 147.784L191.708 160.096C191.708 160.096 210.313 157.875 222.69 157.517L219.779 146.148C219.779 146.148 201.861 145.992 189.605 147.784Z" fill="#24443B"/>
<path d="M186.605 262.867C186.828 263.044 187.152 263.05 187.383 262.864C187.652 262.648 187.695 262.255 187.479 261.986C171.502 242.078 165.495 215.891 163.27 197.429C160.856 177.403 162.247 161.914 162.261 161.76C162.293 161.417 162.04 161.113 161.697 161.081C161.354 161.049 161.049 161.301 161.017 161.645C161.002 161.801 159.6 177.423 162.03 197.58C163.458 209.423 165.909 220.498 169.316 230.497C173.581 243.013 179.364 253.871 186.505 262.77C186.535 262.805 186.568 262.838 186.605 262.867Z" fill="#24443B"/>
<path d="M194.752 231.269C194.757 231.273 194.761 231.276 194.766 231.28C195.042 231.486 195.434 231.43 195.64 231.153C203.45 220.696 213.046 215.273 219.72 212.566C226.943 209.635 232.363 209.171 232.416 209.167C232.76 209.139 233.016 208.838 232.988 208.495C232.96 208.152 232.659 207.895 232.315 207.923C232.087 207.941 226.649 208.407 219.25 211.409C212.429 214.177 202.622 219.719 194.639 230.406C194.437 230.677 194.488 231.06 194.752 231.269Z" fill="#24443B"/>
<path d="M197.386 210.997C197.567 211.14 197.82 211.177 198.042 211.072C198.176 211.008 211.545 204.724 222.905 205.387C223.249 205.407 223.544 205.145 223.564 204.8C223.584 204.455 223.321 204.16 222.977 204.141C211.293 203.459 198.062 209.679 197.505 209.944C197.194 210.092 197.061 210.464 197.209 210.776C197.253 210.866 197.314 210.94 197.386 210.997Z" fill="#24443B"/>
<path d="M186.833 59.6843C186.833 59.6843 180.344 41.6173 164.844 50.8673C152.555 58.2013 160.339 76.5473 170.844 75.1173C181.349 73.6873 186.833 59.6843 186.833 59.6843Z" fill="#243434"/>
<path d="M184.459 60.2612C184.459 60.2612 166.475 64.7432 168.089 83.7352C169.703 102.727 171.282 102.639 166.064 108.473C161.324 113.773 162.093 118.117 162.093 118.117C162.093 118.117 174.033 121.494 194.593 119.117C209.059 117.444 215.843 119.617 215.843 119.617C215.843 119.617 220.098 86.3772 217.447 76.4692C214.796 66.5602 184.459 60.2612 184.459 60.2612Z" fill="#243434"/>
<path d="M192.572 107.994C192.572 107.994 180.11 108.552 173.914 97.2991C168.015 86.5851 169.083 80.0571 170.959 73.0791C172.372 67.8241 178.849 59.6491 190.543 59.2871C202.351 58.9221 212.133 62.7261 215.556 71.6991C221.961 88.4921 212.943 112.933 192.572 107.994Z" fill="#243434"/>
<path d="M212.84 90.317C212.84 90.317 216.003 86.337 217.979 90.158C219.955 93.979 218.77 101.874 213.734 100.744L212.84 90.317Z" fill="#DF826F"/>
<path d="M219.044 102.265C218.591 102.889 218.065 103.46 217.469 103.958C215.198 105.855 211.892 106.701 207.46 105.412C207.46 105.412 200.976 99.7962 206.143 86.4952C206.143 86.4952 212.713 83.2492 217.539 86.6372C218.071 87.0082 218.583 87.4622 219.061 88.0112C219.355 88.3442 219.636 88.7162 219.9 89.1232C222.039 92.4082 221.896 98.3732 219.044 102.265Z" fill="#F48464"/>
<path d="M219.044 102.265C218.591 102.889 218.065 103.46 217.469 103.958C219.495 95.9702 218.236 89.3062 217.539 86.6362C218.071 87.0072 218.583 87.4612 219.061 88.0102C219.681 91.0642 220.25 96.1802 219.044 102.265Z" fill="#B85144"/>
<path d="M205.165 110.48L205.847 123.397C205.847 123.397 199.542 131.591 182.262 122.142C183.717 116.634 185.952 109.484 184.536 105.421C184.536 105.421 185.789 105.822 187.835 106.954C188.235 107.175 188.712 107.309 189.194 107.495C193.458 109.13 199.852 111.058 205.165 110.48Z" fill="#ECB3A3"/>
<path d="M206.777 122.64C206.663 122.315 206.306 122.143 205.981 122.256C205.655 122.369 205.484 122.726 205.597 123.051C205.618 123.111 207.718 129.16 209.139 135.846C210.986 144.535 210.882 150.33 208.837 152.605C207.898 153.65 206.533 153.945 204.663 153.509C195.094 151.277 185.313 126.195 183.117 120.244C183.016 119.971 182.74 119.805 182.451 119.845C182.447 119.846 182.443 119.846 182.438 119.847C182.046 119.901 181.804 120.303 181.94 120.675C183.876 125.972 191.5 145.668 200.169 152.531C201.553 153.626 202.962 154.394 204.38 154.725C206.701 155.267 208.512 154.834 209.766 153.44C215.291 147.293 207.127 123.644 206.777 122.64Z" fill="white"/>
<path d="M205.164 110.48L205.526 115.481C200.919 114.604 192.611 112.363 187.836 106.953C188.259 107.127 188.713 107.308 189.195 107.494C193.457 109.13 199.851 111.058 205.164 110.48Z" fill="#243434"/>
<path d="M216.127 90.203C216.158 91.311 216.182 92.355 216.196 93.339C216.306 100.737 215.922 104.805 214.202 106.7C205.503 116.273 185.212 105.793 184.559 105.455C184.551 105.447 184.542 105.444 184.542 105.444C184.332 104.618 184.141 103.796 183.967 102.985C182.483 96.11 182.204 89.688 182.718 83.564C182.183 77.139 185.829 71.026 191.813 68.632C198.018 66.154 203.729 68.738 207.141 69.674C212.292 71.089 215.705 77.585 216.026 86.981C216.064 88.109 216.097 89.184 216.127 90.203Z" fill="#ECB3A3"/>
<path d="M207.794 98.9632C209.146 98.8812 210.554 98.4122 211.913 97.3122C212.112 97.1512 212.142 96.8602 211.982 96.6612C211.821 96.4622 211.53 96.4322 211.331 96.5932C206.469 100.529 200.763 95.2362 200.706 95.1822C200.52 95.0072 200.227 95.0152 200.052 95.2012C199.877 95.3872 199.885 95.6802 200.071 95.8552C200.118 95.8992 203.693 99.2122 207.794 98.9632Z" fill="#243434"/>
<path d="M201.377 78.8818C201.377 78.8818 203.248 79.0088 202.646 80.7388C202.043 82.4688 198.244 80.6998 195.664 83.9328C195.664 83.9328 194.398 79.8668 201.377 78.8818Z" fill="#243434"/>
<path d="M201.19 92.2339C201.217 93.1039 199.447 93.8649 197.236 93.9339C195.025 94.0019 193.211 93.3529 193.184 92.4819C193.157 91.6119 194.927 90.8509 197.138 90.7829C199.349 90.7139 201.163 91.3639 201.19 92.2339Z" fill="#DF826F"/>
<g opacity="0.8">
<path d="M216.126 90.2031C216.157 91.3111 216.181 92.3551 216.195 93.3391C214.162 93.3271 212.557 92.7011 212.532 91.8831C212.506 91.0601 214.086 90.3351 216.126 90.2031Z" fill="#DF826F"/>
</g>
<path d="M201.607 87.1825C201.644 88.3775 201.132 89.3635 200.463 89.3835C199.794 89.4045 199.222 88.4525 199.185 87.2575C199.148 86.0625 199.66 85.0765 200.329 85.0555C200.998 85.0355 201.57 85.9875 201.607 87.1825Z" fill="#243434"/>
<path d="M213.432 86.8163C213.469 88.0113 212.957 88.9963 212.288 89.0173C211.619 89.0383 211.048 88.0863 211.01 86.8913C210.973 85.6963 211.485 84.7103 212.154 84.6893C212.823 84.6693 213.394 85.6213 213.432 86.8163Z" fill="#243434"/>
<path d="M208.411 91.7791C208.984 91.7611 209.369 91.6541 209.401 91.6441C209.533 91.6061 209.643 91.5141 209.705 91.3901C209.766 91.2671 209.773 91.1231 209.724 90.9951L207.743 85.8391C207.646 85.5851 207.361 85.4591 207.107 85.5561C206.853 85.6531 206.727 85.9381 206.824 86.1911L208.587 90.7811C208.094 90.8211 207.328 90.7931 206.56 90.4101C206.317 90.2891 206.021 90.3871 205.9 90.6311C205.778 90.8741 205.877 91.1691 206.12 91.2911C206.966 91.7131 207.797 91.7981 208.411 91.7791Z" fill="#243434"/>
<path d="M188.299 100.486C188.246 100.621 186.787 104.314 184.561 105.454C184.559 105.454 184.559 105.456 184.557 105.456C184.549 105.448 184.545 105.444 184.545 105.444C184.334 104.618 184.144 103.797 183.969 102.985C184.052 102.97 186.322 102.502 188.299 100.486Z" fill="#243434"/>
<path d="M185.851 92.2538C185.851 92.2538 180.874 85.9828 177.529 91.1348C174.773 95.3808 180.562 106.043 186.157 102.155L185.851 92.2538Z" fill="#ECB3A3"/>
<path d="M185.443 100.244C185.461 100.243 185.479 100.242 185.497 100.239C185.766 100.201 185.953 99.9519 185.916 99.6829C185.15 94.2419 180.498 92.4939 180.3 92.4229C180.045 92.3299 179.762 92.4619 179.67 92.7169C179.577 92.9719 179.709 93.2539 179.964 93.3469C180.139 93.4109 184.261 94.9789 184.942 99.8199C184.977 100.071 185.196 100.252 185.443 100.244Z" fill="#243434"/>
<path d="M180.763 97.4053C180.872 97.4023 180.98 97.3623 181.069 97.2863C181.486 96.9263 182.756 96.0343 183.61 96.2253C183.876 96.2843 184.138 96.1173 184.197 95.8523C184.256 95.5873 184.089 95.3243 183.824 95.2653C182.334 94.9333 180.615 96.3763 180.424 96.5423C180.219 96.7203 180.196 97.0303 180.374 97.2363C180.477 97.3523 180.621 97.4103 180.763 97.4053Z" fill="#243434"/>
<path d="M181.541 77.2032C181.541 77.2032 188.267 82.9662 190.975 81.4062C193.683 79.8462 189.066 74.5752 189.066 74.5752C189.066 74.5752 198.921 79.5252 202.589 77.7192C206.258 75.9132 199.443 71.5962 199.443 71.5962C199.443 71.5962 207.043 77.9492 211.243 77.4292C215.443 76.9092 211.067 71.7292 211.067 71.7292C211.067 71.7292 215.149 79.0582 217.67 78.3392C220.191 77.6202 216.449 67.0352 207.913 63.6572C199.376 60.2782 177.956 61.5972 181.541 77.2032Z" fill="#243434"/>
<path d="M187.323 79.2921C187.323 79.2921 189.897 92.8711 186.461 93.0391C183.025 93.2071 179.399 88.0021 181.539 77.2031L187.323 79.2921Z" fill="#243434"/>
<path d="M209.828 78.6201C209.828 78.6201 207.969 78.8621 208.676 80.5511C209.384 82.2401 213.068 80.2401 215.842 83.3071C215.842 83.3071 216.854 79.1721 209.828 78.6201Z" fill="#243434"/>
<path d="M222.426 86.7033L216.035 87.1244L216.062 88.0124C216.066 88.0124 216.07 88.0123 216.075 88.0113L222.485 87.5883C222.73 87.5723 222.915 87.3603 222.899 87.1163C222.883 86.8723 222.681 86.6783 222.426 86.7033Z" fill="white"/>
<path d="M205.777 85.4535C205.708 85.1555 205.62 84.8665 205.514 84.5835C204.949 83.0605 203.906 81.7735 202.569 80.9035C201.346 80.1035 199.884 79.6515 198.321 79.6865C198.294 79.6855 198.271 79.6845 198.245 79.6865C194.686 79.7975 191.775 82.3805 191.115 85.7335C191.056 86.0245 191.015 86.3175 190.996 86.6175C190.973 86.8805 190.968 87.1485 190.976 87.4175C191.037 89.4105 191.874 91.1985 193.184 92.5025C193.63 92.9465 194.134 93.3345 194.677 93.6505C195.857 94.3505 197.241 94.7315 198.708 94.6865C201.18 94.6095 203.335 93.3415 204.646 91.4535C205.53 90.1785 206.028 88.6205 205.977 86.9545C205.976 86.9485 205.977 86.9395 205.976 86.9345C205.958 86.4265 205.892 85.9305 205.777 85.4535ZM198.682 93.7985C198.644 93.7995 198.609 93.8005 198.571 93.7995C196.643 93.8275 194.886 93.0205 193.653 91.7085C192.589 90.5745 191.919 89.0665 191.865 87.3925C191.855 87.0475 191.872 86.7065 191.914 86.3725C191.919 86.3515 191.921 86.3305 191.922 86.3095C192.266 83.7305 194.103 81.6005 196.556 80.8575C197.1 80.6915 197.675 80.5935 198.271 80.5765C199.554 80.5365 200.763 80.8655 201.799 81.4725C203.704 82.5825 205.015 84.6215 205.089 86.9855C205.202 90.6275 202.329 93.6875 198.682 93.7985Z" fill="white"/>
<path d="M218.04 79.3654C217.817 79.3084 217.594 79.2624 217.364 79.2244C217.094 79.1824 216.819 79.1554 216.54 79.1444C216.347 79.1344 216.156 79.1324 215.96 79.1374C215.6 79.1474 215.246 79.1864 214.905 79.2454C214.487 79.3164 214.081 79.4244 213.69 79.5634C212.606 79.9474 211.638 80.5734 210.848 81.3744C209.979 82.2554 209.328 83.3494 208.982 84.5654C208.889 84.8744 208.82 85.1934 208.77 85.5174C208.768 85.5354 208.765 85.5504 208.765 85.5684C208.702 85.9924 208.677 86.4284 208.691 86.8704C208.781 89.8274 210.582 92.3364 213.111 93.4804C213.932 93.8524 214.831 94.0794 215.775 94.1314C215.917 94.1394 216.062 94.1444 216.206 94.1404C216.277 94.1444 216.35 94.1424 216.423 94.1404C217.162 94.1164 217.875 93.9884 218.543 93.7634C218.651 93.7304 218.759 93.6924 218.863 93.6524C219.153 93.5404 219.437 93.4134 219.709 93.2674C220.221 92.9964 220.696 92.6664 221.127 92.2904C222.757 90.8584 223.765 88.7404 223.692 86.4094C223.587 82.9914 221.198 80.1714 218.04 79.3654ZM222.803 86.4334C222.808 86.5794 222.809 86.7234 222.801 86.8654C222.796 87.0724 222.78 87.2754 222.751 87.4774C222.566 88.9534 221.887 90.2854 220.882 91.2974C220.513 91.6704 220.099 91.9964 219.65 92.2774C219.368 92.4484 219.074 92.6024 218.767 92.7314C218.677 92.7694 218.59 92.8034 218.499 92.8354C217.841 93.0824 217.134 93.2264 216.395 93.2504C216.328 93.2514 216.26 93.2524 216.193 93.2534C216.152 93.2524 216.11 93.2514 216.07 93.2534C214.972 93.2314 213.936 92.9424 213.025 92.4404C212.891 92.3694 212.758 92.2914 212.63 92.2074C210.855 91.0724 209.65 89.1074 209.58 86.8424C209.565 86.3344 209.608 85.8344 209.701 85.3554C210.01 83.7944 210.871 82.4244 212.074 81.4654C212.818 80.8704 213.695 80.4314 214.656 80.2004C214.811 80.1654 214.967 80.1354 215.129 80.1074C215.408 80.0624 215.694 80.0344 215.986 80.0254C216.197 80.0204 216.405 80.0214 216.611 80.0354C216.9 80.0534 217.18 80.0914 217.458 80.1464C217.677 80.1864 217.897 80.2414 218.109 80.3064C220.749 81.1104 222.713 83.5254 222.803 86.4334Z" fill="white"/>
<path d="M182.201 89.2544C182.148 89.2564 182.094 89.2484 182.041 89.2304C181.809 89.1504 181.687 88.8964 181.767 88.6654C183.583 83.4384 191.53 85.8404 191.61 85.8654C191.844 85.9384 191.975 86.1874 191.902 86.4214C191.829 86.6544 191.581 86.7864 191.346 86.7134C191.274 86.6904 184.141 84.5394 182.606 88.9564C182.545 89.1354 182.38 89.2494 182.201 89.2544Z" fill="white"/>
<path d="M209.151 85.6922C209.037 85.6962 208.921 85.6552 208.831 85.5702C207.561 84.3592 205.729 85.4772 205.711 85.4882C205.503 85.6172 205.229 85.5542 205.099 85.3462C204.969 85.1382 205.033 84.8642 205.241 84.7342C206.078 84.2132 208.033 83.5832 209.443 84.9272C209.621 85.0962 209.628 85.3772 209.458 85.5552C209.376 85.6432 209.264 85.6892 209.151 85.6922Z" fill="white"/>
<path d="M186.496 104.518C183.057 106.131 180.151 106.197 177.813 105.322C177.44 105.181 177.081 105.016 176.735 104.831C171.642 102.082 169.778 94.6001 171.685 90.3541C172.357 88.8521 173.266 87.7531 174.29 86.9631C174.6 86.7171 174.92 86.5051 175.25 86.3181C179.444 83.9261 184.87 85.6241 184.87 85.6241C192.845 98.6171 186.496 104.518 186.496 104.518Z" fill="#F48464"/>
<path d="M200.484 108.051C189.464 108.051 183.41 101.35 183.129 101.03C182.901 100.771 182.925 100.376 183.184 100.148C183.443 99.92 183.838 99.944 184.066 100.203C184.158 100.306 191.54 108.42 204.506 106.498C204.849 106.449 205.165 106.684 205.216 107.025C205.267 107.366 205.031 107.684 204.689 107.735C203.216 107.953 201.813 108.051 200.484 108.051Z" fill="white"/>
<path d="M206.094 108.867C207.198 108.867 208.094 107.972 208.094 106.867C208.094 105.763 207.198 104.867 206.094 104.867C204.989 104.867 204.094 105.763 204.094 106.867C204.094 107.972 204.989 108.867 206.094 108.867Z" fill="#243434"/>
<path d="M177.812 105.322C177.439 105.181 177.08 105.016 176.734 104.831C178.53 96.5679 176.046 90.1829 174.289 86.9629C174.599 86.7169 174.919 86.5049 175.249 86.3179C177.119 89.7259 179.795 96.5419 177.812 105.322Z" fill="#B85144"/>
<path d="M213.778 67.6672C212.915 65.7682 211.808 63.9982 210.39 62.5182C207.411 59.4082 203.398 57.9502 198.466 58.1862C193.134 58.4432 188.861 60.3772 185.766 63.9422C184.801 65.0542 183.989 66.2762 183.31 67.5582C182.362 69.3472 181.669 71.2482 181.163 73.1262C179.415 79.6522 179.95 85.8822 179.958 85.9722L178.513 86.1072C178.459 85.5152 177.258 71.5202 184.671 62.9902C188.038 59.1172 192.656 57.0122 198.395 56.7372C203.769 56.4792 208.156 58.0902 211.442 61.5192C214.108 64.3052 215.747 67.9572 216.741 71.6342C215.99 70.3032 215 68.9282 213.778 67.6672Z" fill="white"/>
<path d="M217.671 78.337C217.769 78.309 217.855 78.266 217.933 78.21C218.437 83.049 218.109 86.872 218.08 87.199L216.636 87.065C216.645 86.986 216.977 83.08 216.441 78.167C216.874 78.372 217.29 78.446 217.671 78.337Z" fill="white"/>
<path d="M287.166 355.66H266.846C266.846 355.66 262.143 333.105 260.566 320.457C258.986 307.81 258.168 277.824 258.168 277.824C258.168 277.824 241.973 283.084 208.076 281.101C132.966 276.714 161.446 221.531 161.446 221.531C163.983 225.036 183.018 229.866 193.643 231.541C226.253 234.671 251.043 240.209 268.016 247.531C272.103 249.293 275.736 251.159 278.918 253.121C283.011 255.643 285.571 263.296 287.113 273.361C291.751 303.614 287.166 355.66 287.166 355.66Z" fill="#243434"/>
<path d="M269.364 344.791C269.025 344.791 268.721 344.553 268.652 344.207C265.722 329.697 264.737 311.638 263.946 297.127C263.29 285.094 262.671 273.729 261.125 272.364C259.873 271.258 254.675 272.121 248.094 273.214C235.003 275.387 215.22 278.671 193.404 273.595C181.521 270.83 172.785 265.058 167.439 256.438C158.219 241.573 162.422 223.144 162.466 222.96C162.558 222.569 162.951 222.326 163.341 222.419C163.732 222.511 163.974 222.903 163.882 223.294C163.84 223.473 159.778 241.338 168.682 255.681C173.818 263.954 182.246 269.505 193.734 272.178C215.269 277.188 234.879 273.933 247.856 271.778C255.628 270.488 260.318 269.709 262.089 271.274C264.002 272.964 264.54 281.274 265.399 297.048C266.187 311.512 267.169 329.513 270.078 343.919C270.158 344.313 269.903 344.696 269.509 344.776C269.46 344.786 269.412 344.791 269.364 344.791Z" fill="#404F51"/>
<path d="M287.556 345.174C287.551 345.174 287.546 345.174 287.54 345.174L264.943 344.689C264.541 344.681 264.223 344.348 264.231 343.946C264.24 343.544 264.568 343.217 264.974 343.235L287.571 343.72C287.973 343.728 288.291 344.061 288.283 344.463C288.274 344.858 287.95 345.174 287.556 345.174Z" fill="#404F51"/>
<path d="M286.606 381.695H272.263L269.501 364.867L267.988 355.66H285.808L286.091 364.867L286.606 381.695Z" fill="#ECB3A3"/>
<path d="M286.605 381.695H272.262L270.205 369.167L269.5 364.867H286.09L286.228 369.324L286.605 381.695Z" fill="#406F5D"/>
<path d="M286.228 369.324L270.205 369.167L269.5 364.867H286.09L286.228 369.324Z" fill="#24443B"/>
<path d="M322.001 404.347H267.751C267.349 403.614 267.129 402.574 267.039 401.334C266.699 396.744 268.161 389.421 268.879 384.804C268.966 384.264 269.042 383.761 269.099 383.307C269.199 382.535 269.262 381.892 269.262 381.419C269.262 377.652 272.597 378.297 272.597 378.297C278.087 383.682 284.302 375.609 287.932 378.257C287.932 378.257 288.079 378.364 288.412 378.624C288.717 378.864 289.179 379.236 289.822 379.776C290.747 380.548 292.044 381.671 293.802 383.251C298.107 387.126 305.432 389.683 311.669 392.291C312.464 392.624 313.202 392.956 313.887 393.286C314.407 393.536 314.897 393.788 315.359 394.038C320.457 396.791 322.079 399.421 322.447 401.333C322.798 403.169 322.001 404.347 322.001 404.347Z" fill="#F48464"/>
<path d="M315.359 394.039C313.962 395.152 310.854 397.377 308.362 397.377C308.252 397.377 308.142 397.374 308.034 397.364C306.274 397.217 299.809 394.039 294.549 391.149C291.534 389.491 288.782 387.861 286.802 386.554C283.555 384.414 282.992 383.597 282.864 383.029C282.389 380.889 285.929 379.396 288.412 378.624C288.717 378.864 289.179 379.236 289.822 379.776C286.739 380.616 284.207 381.934 284.324 382.684C284.627 383.319 287.837 385.766 295.514 389.969C301.372 393.174 306.927 395.766 308.159 395.869C309.829 396.004 312.284 394.484 313.887 393.287C314.407 393.537 314.897 393.789 315.359 394.039Z" fill="#B85144"/>
<path d="M322.001 404.347H267.753C267.349 403.614 267.13 402.574 267.039 401.334H322.447C322.799 403.168 322.001 404.347 322.001 404.347Z" fill="#B85144"/>
<path d="M273.287 404.347H271.675C273.283 402.51 274.788 399.69 274.591 395.661C274.33 390.301 271.113 386.687 268.879 384.805C268.966 384.266 269.04 383.762 269.099 383.307C271.508 385.148 275.567 389.178 275.883 395.597C276.07 399.445 274.807 402.316 273.287 404.347Z" fill="#B85144"/>
<path d="M292.882 386.452C292.481 386.452 292.116 386.18 292.015 385.773C291.896 385.294 292.188 384.809 292.667 384.69L296.056 383.849C296.535 383.729 297.02 384.022 297.139 384.501C297.258 384.98 296.966 385.465 296.487 385.584L293.098 386.425C293.026 386.443 292.953 386.452 292.882 386.452Z" fill="#B85144"/>
<path d="M289.515 383.63C289.114 383.63 288.749 383.358 288.648 382.951C288.529 382.472 288.821 381.987 289.3 381.868L292.689 381.027C293.168 380.907 293.653 381.2 293.772 381.679C293.891 382.158 293.599 382.643 293.12 382.762L289.731 383.603C289.658 383.622 289.586 383.63 289.515 383.63Z" fill="#B85144"/>
<path d="M296.269 388.422C295.868 388.422 295.503 388.15 295.402 387.743C295.283 387.264 295.575 386.779 296.054 386.66L299.443 385.819C299.922 385.699 300.407 385.992 300.526 386.471C300.645 386.95 300.353 387.435 299.874 387.554L296.485 388.395C296.413 388.413 296.34 388.422 296.269 388.422Z" fill="#B85144"/>
<path d="M299.659 390.315C299.258 390.315 298.893 390.043 298.792 389.636C298.673 389.157 298.965 388.672 299.444 388.553L302.833 387.712C303.312 387.592 303.797 387.885 303.916 388.364C304.035 388.843 303.743 389.328 303.264 389.447L299.875 390.288C299.802 390.307 299.73 390.315 299.659 390.315Z" fill="#B85144"/>
<path d="M303.355 392.066C302.954 392.066 302.589 391.794 302.488 391.387C302.369 390.908 302.661 390.423 303.14 390.304L306.529 389.463C307.008 389.344 307.493 389.636 307.612 390.115C307.731 390.594 307.439 391.079 306.96 391.198L303.571 392.039C303.498 392.058 303.426 392.066 303.355 392.066Z" fill="#B85144"/>
<path d="M307.362 393.56C306.961 393.56 306.596 393.288 306.495 392.881C306.376 392.402 306.668 391.917 307.147 391.798L310.536 390.957C311.015 390.837 311.5 391.13 311.619 391.609C311.738 392.088 311.446 392.573 310.967 392.692L307.578 393.533C307.505 393.551 307.433 393.56 307.362 393.56Z" fill="#B85144"/>
<path d="M263.051 200.342C263.051 200.342 278.968 194.472 285.818 196.85L286.427 208.589C286.427 208.589 276.706 208.977 274.397 210.459C272.088 211.941 272.468 216.672 263.08 217.978L263.051 200.342Z" fill="#ECB3A3"/>
<path d="M263.126 200.378L260.958 200.301L258.736 200.209L254.278 200.012C251.305 199.867 248.333 199.694 245.368 199.492C239.438 199.107 233.531 198.614 227.705 197.985C221.895 197.335 216.128 196.565 210.708 195.465C208.011 194.91 205.388 194.287 203.096 193.55C201.956 193.183 200.901 192.788 200.071 192.403C199.671 192.218 199.328 192.035 199.081 191.888L199.044 191.838C198.646 191.328 198.251 190.82 197.874 190.3C197.104 189.268 196.374 188.203 195.667 187.125C194.959 186.045 194.289 184.937 193.639 183.82C193.004 182.692 192.377 181.558 191.802 180.393C191.214 179.233 190.652 178.06 190.129 176.863C189.599 175.671 189.102 174.461 188.636 173.231C188.566 173.049 188.496 172.863 188.428 172.678C188.301 172.346 188.181 172.013 188.061 171.678C187.873 171.158 187.693 170.636 187.521 170.111C187.453 169.911 187.388 169.711 187.323 169.511C186.913 168.256 186.521 166.993 186.171 165.713C185.371 162.846 184.716 159.921 184.206 156.958C181.756 148.991 178.849 139.573 177.053 133.858L157.821 131.728L157.768 132.246L157.733 132.633L157.678 133.356C157.646 133.826 157.618 134.279 157.593 134.726C157.545 135.624 157.513 136.501 157.493 137.371C157.458 139.111 157.471 140.823 157.518 142.531C157.616 145.943 157.863 149.326 158.245 152.696C159.055 159.428 160.418 166.111 162.412 172.671C162.71 173.653 163.022 174.631 163.352 175.606C163.547 176.196 163.752 176.784 163.962 177.368C164.76 179.6 165.64 181.808 166.6 183.988C167.757 186.621 169.032 189.211 170.422 191.748C171.257 193.275 172.157 194.77 173.077 196.253C174.009 197.73 174.975 199.188 175.992 200.613C177.007 202.036 178.057 203.438 179.157 204.801C179.699 205.489 180.264 206.159 180.832 206.829L181.042 207.079L181.162 207.222L181.417 207.512C181.765 207.91 182.097 208.244 182.437 208.582C183.107 209.227 183.757 209.764 184.387 210.244C185.634 211.176 186.8 211.874 187.882 212.444C188.97 213.014 189.995 213.477 190.982 213.879C192.952 214.676 194.782 215.254 196.557 215.749C200.097 216.719 203.429 217.364 206.717 217.879C213.272 218.891 219.605 219.447 225.905 219.809C232.198 220.174 238.435 220.329 244.655 220.359C247.765 220.364 250.867 220.339 253.973 220.287C255.525 220.26 257.078 220.227 258.633 220.182L260.973 220.1L263.363 220.002L263.126 200.378ZM198.716 191.615C198.749 191.627 198.816 191.675 198.944 191.788C198.959 191.803 198.974 191.815 198.989 191.828C198.778 191.698 198.683 191.606 198.716 191.615Z" fill="#ECB3A3"/>
<path d="M251.348 219.617H245.348V198.367C247.67 198.211 249.811 198.236 251.348 198.867V219.617Z" fill="#F48464"/>
<path d="M191.063 200.995C190.844 201.069 190.593 201.038 190.393 200.888C190.072 200.647 190.006 200.191 190.247 199.87C193.226 195.896 197.69 191.747 197.879 191.572C198.174 191.3 198.634 191.317 198.907 191.612C199.18 191.907 199.162 192.367 198.868 192.64C198.823 192.682 194.311 196.876 191.412 200.743C191.32 200.865 191.198 200.95 191.063 200.995Z" fill="#DF826F"/>
<path d="M191.721 195.707C191.371 195.825 190.981 195.661 190.826 195.317C190.661 194.951 190.823 194.52 191.189 194.355C191.341 194.286 194.949 192.662 197.835 191.71C198.217 191.584 198.628 191.792 198.753 192.174C198.879 192.556 198.663 192.96 198.289 193.092C195.479 194.018 191.824 195.664 191.788 195.681C191.767 195.691 191.744 195.699 191.721 195.707Z" fill="#DF826F"/>
<path d="M188.626 171.342C188.438 171.454 188.251 171.564 188.061 171.674C180.829 175.862 172.671 177.412 163.963 177.364C163.768 177.364 163.576 177.361 163.381 177.359C163.381 177.359 154.588 156.609 153.351 142.219C153.211 140.567 153.221 139.079 153.351 137.739C154.186 129.139 163.218 123.709 171.131 127.176C173.596 128.256 175.893 130.161 176.941 133.494C176.978 133.611 177.016 133.732 177.053 133.854C178.848 139.569 181.756 148.986 184.206 156.954C186.641 164.864 188.626 171.342 188.626 171.342Z" fill="#406F5D"/>
<path d="M188.595 171.992C188.36 171.992 188.134 171.859 188.028 171.631C182.966 160.789 181.156 154.017 179.224 138.695C179.181 138.353 179.423 138.04 179.766 137.997C180.109 137.955 180.421 138.197 180.464 138.539C182.376 153.706 184.164 160.402 189.16 171.103C189.306 171.416 189.171 171.788 188.858 171.934C188.774 171.973 188.684 171.992 188.595 171.992Z" fill="#24443B"/>
<path d="M180.864 145.743C180.781 145.743 180.697 145.726 180.616 145.692C180.299 145.555 180.153 145.187 180.29 144.87L182.395 139.995C182.532 139.678 182.899 139.532 183.217 139.669C183.534 139.806 183.68 140.174 183.543 140.491L181.438 145.366C181.336 145.602 181.106 145.743 180.864 145.743Z" fill="#24443B"/>
<path d="M341.652 216.088H230.775C230.528 216.088 230.328 215.888 230.328 215.641C230.328 212.199 233.118 209.409 236.56 209.409H341.652C341.899 209.409 342.099 209.609 342.099 209.856V215.641C342.1 215.888 341.899 216.088 341.652 216.088Z" fill="#404F51"/>
<path d="M378.673 154.824L364.834 213.356C364.465 214.916 363.073 216.017 361.469 216.017H276.217C273.986 216.017 272.339 213.935 272.852 211.765L286.691 153.233C287.06 151.673 288.452 150.572 290.056 150.572H375.308C377.539 150.572 379.187 152.654 378.673 154.824Z" fill="#243434"/>
<path d="M362.719 210.117H286.469C286.124 210.117 285.844 209.837 285.844 209.492C285.844 209.147 286.124 208.867 286.469 208.867H362.719C363.064 208.867 363.344 209.147 363.344 209.492C363.344 209.837 363.064 210.117 362.719 210.117Z" fill="#404F51"/>
<path d="M313.623 166.742C312.76 171.367 308.311 175.117 303.685 175.117C299.059 175.117 296.01 171.367 296.872 166.742C297.735 162.116 302.184 158.367 306.81 158.367C311.436 158.367 314.486 162.117 313.623 166.742Z" fill="#ECA667"/>
<path d="M304.162 165.14C303.989 166.065 303.523 166.815 303.121 166.815C302.719 166.815 302.533 166.065 302.705 165.14C302.878 164.215 303.344 163.465 303.746 163.465C304.148 163.465 304.334 164.215 304.162 165.14Z" fill="#243434"/>
<path d="M308.533 165.14C308.36 166.065 307.894 166.815 307.492 166.815C307.09 166.815 306.904 166.065 307.076 165.14C307.249 164.215 307.715 163.465 308.117 163.465C308.519 163.465 308.705 164.215 308.533 165.14Z" fill="#243434"/>
<path d="M304.561 170.82C300.959 170.82 300.807 167.22 300.805 167.183C300.799 166.986 300.96 166.793 301.164 166.75C301.369 166.707 301.539 166.832 301.545 167.028C301.55 167.159 301.69 170.092 304.696 170.092C307.705 170.092 308.939 167.153 308.99 167.028C309.07 166.832 309.288 166.708 309.475 166.751C309.663 166.794 309.751 166.987 309.672 167.184C309.66 167.22 308.163 170.82 304.561 170.82Z" fill="#243434"/>
<path d="M293.329 186.11C293.42 190.442 300.76 195.867 300.76 195.867C300.76 195.867 309.284 190.442 310.32 186.11C311.443 181.414 306.08 179.973 302.108 183.514C298.908 179.974 293.229 181.414 293.329 186.11Z" fill="#F48464"/>
<path d="M293.433 150.572L278.699 216.016H276.217C273.986 216.016 272.339 213.934 272.852 211.764L286.691 153.232C287.06 151.672 288.452 150.571 290.056 150.571H293.433V150.572Z" fill="#404F51"/>
<path d="M336.547 185.584C336.118 189.163 332.868 192.064 329.289 192.064C325.71 192.064 323.157 189.163 323.586 185.584C324.016 182.005 327.265 179.104 330.844 179.104C334.423 179.104 336.977 182.005 336.547 185.584Z" fill="#404F51"/>
<path d="M461.348 220.722V225.226C461.348 227.819 459.161 229.919 456.46 229.919H116.468C113.77 229.919 111.582 227.819 111.582 225.226V220.722C111.582 218.132 113.769 216.032 116.468 216.032H456.46C459.16 216.032 461.348 218.132 461.348 220.722Z" fill="#74441C"/>
<path d="M443.736 241.498H138.942C133.425 241.498 128.953 237.026 128.953 231.509V229.866H453.724V231.509C453.724 237.026 449.252 241.498 443.736 241.498Z" fill="#4A2401"/>
<path d="M447.494 298.927H139.789V306.902H447.494V298.927Z" fill="#4A2401"/>
<path d="M125.031 405.767L164.65 241.498H150.736L111.117 405.767H125.031Z" fill="#74441C"/>
<path d="M460.346 405.767L420.727 241.498H434.641L474.26 405.767H460.346Z" fill="#74441C"/>
<path d="M461.347 222.975H111.582V225.036H461.347V222.975Z" fill="#4A2401"/>
<path d="M142.898 205.18V196.148C142.898 192.837 145.591 190.144 148.902 190.144H156.55C159.861 190.144 162.554 192.837 162.554 196.148V205.18C162.554 208.491 159.861 211.184 156.55 211.184H148.902C145.592 211.184 142.898 208.49 142.898 205.18ZM148.902 193.226C147.291 193.226 145.981 194.536 145.981 196.147V205.179C145.981 206.79 147.291 208.1 148.902 208.1H156.55C158.161 208.1 159.471 206.789 159.471 205.179V196.147C159.471 194.536 158.161 193.226 156.55 193.226H148.902Z" fill="#E8D9CC"/>
<path d="M149.801 216.297C157.276 216.724 164.751 216.724 172.226 216.297V185.601C164.751 185.081 157.276 185.081 149.801 185.601V216.297Z" fill="white"/>
<g opacity="0.5">
<path d="M159.509 182.431C159.509 182.431 167.501 179.212 162.699 170.559C157.898 161.906 152.365 155.156 157.547 148.366C157.547 148.366 151.335 150.246 150.839 159.907C150.343 169.568 162.358 176.22 159.509 182.431Z" fill="white"/>
</g>
<path d="M99.3305 61.8675C113.331 61.8675 124.68 50.5179 124.68 36.5175C124.68 22.5171 113.331 11.1675 99.3305 11.1675C85.3301 11.1675 73.9805 22.5171 73.9805 36.5175C73.9805 50.5179 85.3301 61.8675 99.3305 61.8675Z" fill="#E8D9CC"/>
<path d="M109.197 56.5687C122.094 51.1211 128.133 36.2498 122.686 23.3526C117.238 10.4554 102.367 4.41629 89.4696 9.86385C76.5724 15.3114 70.5333 30.1828 75.9809 43.08C81.4284 55.9771 96.2998 62.0163 109.197 56.5687Z" fill="#ECA667"/>
<path d="M99.387 53.8275C110.769 53.7979 119.971 44.547 119.941 33.1649C119.912 21.7829 110.661 12.5799 99.2799 12.6095C87.8984 12.6391 78.6959 21.89 78.7255 33.2721C78.7551 44.6541 88.0056 53.8571 99.387 53.8275Z" fill="white"/>
<path d="M119.941 33.2174C119.941 33.7664 119.919 34.3094 119.877 34.8464C119.044 24.2404 110.146 15.8644 99.3317 15.8644C88.5157 15.8644 79.6207 24.2404 78.7867 34.8464C78.7447 34.3104 78.7227 33.7664 78.7227 33.2174C78.7227 21.8524 87.9667 12.6094 99.3317 12.6094C110.696 12.6094 119.941 21.8524 119.941 33.2174Z" fill="#E8D9CC"/>
<path d="M99.3328 35.3615C99.1738 35.3615 99.0188 35.2875 98.9188 35.1535L88.8088 21.5425C88.6388 21.3135 88.6868 20.9905 88.9158 20.8205C89.1438 20.6505 89.4668 20.6985 89.6368 20.9275L99.5018 34.2085L110.713 29.2875C110.973 29.1725 111.278 29.2915 111.393 29.5525C111.507 29.8135 111.389 30.1175 111.128 30.2315L99.5398 35.3185C99.4728 35.3475 99.4028 35.3615 99.3328 35.3615Z" fill="#4A2401"/>
<path d="M108.44 405.068C108.44 407.528 84.165 409.522 54.22 409.522C24.275 409.522 0 407.528 0 405.068C0 402.608 24.275 400.614 54.22 400.614C84.165 400.614 108.44 402.608 108.44 405.068Z" fill="#E8D9CC"/>
<path d="M86.9987 367.09H19.4167C18.9857 367.09 18.6367 366.741 18.6367 366.31V362.393C18.6367 361.962 18.9857 361.613 19.4167 361.613H86.9987C87.4287 361.613 87.7787 361.962 87.7787 362.393V366.31C87.7787 366.741 87.4287 367.09 86.9987 367.09Z" fill="#4A2401"/>
<path d="M21.6754 300.934H84.8774C85.9284 300.934 86.7794 301.786 86.7794 302.836V310.601C86.7794 311.652 85.9274 312.503 84.8774 312.503H21.6754C20.6244 312.503 19.7734 311.651 19.7734 310.601V302.836C19.7734 301.785 20.6244 300.934 21.6754 300.934Z" fill="#74441C"/>
<path d="M52.7441 240.198C52.7441 240.198 18.5521 164.754 52.2571 158.889C78.0161 154.407 75.1641 206.368 52.7441 240.198Z" fill="#406F5D"/>
<path d="M52.1753 288.748C52.1733 288.748 52.1713 288.748 52.1693 288.748C51.8583 288.745 51.6103 288.49 51.6133 288.18C51.8843 262.398 53.7753 190.043 53.7953 189.315C53.8033 189.004 54.0583 188.758 54.3723 188.768C54.6823 188.776 54.9273 189.034 54.9193 189.345C54.9003 190.073 53.0083 262.419 52.7383 288.193C52.7343 288.5 52.4833 288.748 52.1753 288.748Z" fill="#24443B"/>
<path d="M44.9469 260.277C44.9469 260.277 -6.51109 211.444 12.0389 192.207C32.4959 170.994 48.1219 225.551 44.9469 260.277Z" fill="#406F5D"/>
<path d="M50.4454 284.343C50.1544 284.343 49.9084 284.119 49.8854 283.825C48.2604 263.147 27.6614 217.856 27.4534 217.401C27.3244 217.119 27.4484 216.785 27.7314 216.656C28.0134 216.527 28.3474 216.652 28.4764 216.934C28.6854 217.391 49.3654 262.861 51.0064 283.737C51.0304 284.047 50.7994 284.317 50.4904 284.341C50.4744 284.342 50.4594 284.343 50.4454 284.343Z" fill="#24443B"/>
<path d="M60.827 258.988C60.827 258.988 114.595 212.711 97.001 192.597C77.598 170.415 59.342 224.15 60.827 258.988Z" fill="#406F5D"/>
<path d="M54.1916 282.76C54.1676 282.76 54.1436 282.759 54.1196 282.755C53.8116 282.716 53.5936 282.434 53.6336 282.126C56.2856 261.355 79.1496 216.942 79.3806 216.496C79.5236 216.22 79.8626 216.113 80.1386 216.255C80.4146 216.398 80.5226 216.737 80.3796 217.013C80.1496 217.457 57.3766 261.694 54.7486 282.269C54.7126 282.553 54.4706 282.76 54.1916 282.76Z" fill="#24443B"/>
<path d="M82.2123 270.187L81.4173 272.296L80.9153 273.633L79.4733 277.461L78.9693 278.798L77.4883 282.73L76.9863 284.065L70.6333 300.933H35.9263L29.5733 284.065L29.0713 282.73L27.5903 278.798L27.0863 277.461L25.6443 273.633L25.1423 272.296L24.3473 270.187C23.8023 268.741 24.8703 267.198 26.4153 267.198H80.1453C81.6883 267.198 82.7563 268.741 82.2123 270.187Z" fill="#F48464"/>
<path d="M81.4156 272.296L80.9136 273.633H25.6426L25.1406 272.296H81.4156Z" fill="#B85144"/>
<path d="M79.4729 277.461L78.9689 278.798H27.5899L27.0859 277.461H79.4729Z" fill="#B85144"/>
<path d="M77.4863 282.729L76.9843 284.064H29.5723L29.0703 282.729H77.4863Z" fill="#B85144"/>
<path d="M43.9803 312.503L42.0553 318.708L15.2644 405.068H10.0273L27.0183 320.471L28.6193 312.503H43.9803Z" fill="#74441C"/>
<path d="M28.6205 312.503H43.9815L42.0565 318.708L27.0195 320.471L28.6205 312.503Z" fill="#4A2401"/>
<path d="M96.6835 405.068H91.4465L63.8625 316.152L62.7305 312.503H78.0895L78.4775 314.437H78.4795L96.6835 405.068Z" fill="#74441C"/>
<path d="M78.4775 314.437L63.8625 316.152L62.7305 312.503H78.0895L78.4775 314.437Z" fill="#4A2401"/>
<path d="M85.7407 355.183H20.6737C19.5487 355.183 18.6367 354.271 18.6367 353.146V351.744C18.6367 350.619 19.5487 349.707 20.6737 349.707H85.7407C86.8657 349.707 87.7777 350.619 87.7777 351.744V353.146C87.7787 354.271 86.8667 355.183 85.7407 355.183Z" fill="#74441C"/>
<path d="M582.59 405.069C582.59 407.529 566.528 409.523 546.715 409.523C526.902 409.523 510.84 407.529 510.84 405.069C510.84 402.609 526.902 400.615 546.715 400.615C566.528 400.615 582.59 402.609 582.59 405.069Z" fill="#E8D9CC"/>
<path d="M552.756 327.273C551.987 327.273 551.358 326.657 551.344 325.885C551.074 311.178 562.862 304.807 563.364 304.543C564.055 304.18 564.91 304.445 565.273 305.136C565.636 305.826 565.372 306.679 564.683 307.044C564.656 307.059 561.931 308.526 559.287 311.587C555.792 315.633 554.071 320.426 554.17 325.834C554.184 326.615 553.563 327.259 552.783 327.273C552.773 327.273 552.765 327.273 552.756 327.273Z" fill="#406F5D"/>
<path d="M548.193 290.755C548.193 290.755 531.781 259.801 590.657 238.099C593.693 236.98 596.764 239.664 596.037 242.817C592.323 258.932 580.136 296.609 548.193 290.755Z" fill="#24443B"/>
<path d="M532.044 324.473C531.977 324.473 531.908 324.468 531.84 324.458C531.067 324.346 530.532 323.629 530.644 322.857C534.723 294.698 555.706 281.602 558.085 280.202C558.755 279.803 559.632 280.016 560.031 280.687C560.431 281.358 560.219 282.221 559.549 282.62L559.519 282.637C558.526 283.221 553.29 286.457 547.662 292.774C539.893 301.497 535.108 311.754 533.441 323.262C533.339 323.966 532.735 324.473 532.044 324.473Z" fill="#24443B"/>
<path d="M540.695 324.474C540.673 324.474 540.65 324.474 540.627 324.473C539.847 324.436 539.245 323.774 539.282 322.995C539.85 310.945 532.203 299.953 532.126 299.843C531.676 299.205 531.829 298.323 532.467 297.873C533.104 297.424 533.986 297.576 534.437 298.214C534.775 298.694 542.721 310.119 542.107 323.128C542.07 323.884 541.445 324.474 540.695 324.474Z" fill="#24443B"/>
<path d="M544.754 326.541C544.741 326.541 544.729 326.541 544.716 326.54C543.936 326.519 543.32 325.871 543.34 325.09L544.544 279.259C544.565 278.479 545.21 277.864 545.994 277.883C546.774 277.904 547.39 278.552 547.37 279.333L546.166 325.164C546.146 325.932 545.517 326.541 544.754 326.541Z" fill="#406F5D"/>
<path d="M534.924 300.624C534.924 300.624 501.535 311.237 490.709 249.43C490.151 246.242 493.34 243.701 496.313 244.98C511.504 251.515 546.395 270.242 534.924 300.624Z" fill="#24443B"/>
<path d="M556.552 312.521C556.552 312.521 586.567 330.593 611.441 272.986C612.724 270.015 610.211 266.803 607.023 267.357C590.73 270.188 552.445 280.306 556.552 312.521Z" fill="#406F5D"/>
<path d="M551.052 295.112C548.728 299.92 541.713 299.391 540.117 294.295C532.998 271.561 521.068 223.372 545.769 217.842C573.483 211.638 564.197 267.919 551.052 295.112Z" fill="#406F5D"/>
<path d="M545.358 298.195C545.347 298.195 545.337 298.195 545.326 298.194C544.901 298.177 544.57 297.818 544.587 297.393L547.196 232.966C547.213 232.541 547.576 232.208 547.997 232.227C548.423 232.244 548.753 232.603 548.736 233.028L546.127 297.455C546.111 297.87 545.769 298.195 545.358 298.195Z" fill="#24443B"/>
<path d="M557.381 312.615C557.158 312.615 556.936 312.518 556.784 312.331C556.514 312.002 556.563 311.516 556.892 311.246L592.57 282.048C592.9 281.778 593.386 281.827 593.655 282.156C593.925 282.486 593.876 282.971 593.547 283.241L557.869 312.439C557.726 312.557 557.553 312.615 557.381 312.615Z" fill="#24443B"/>
<path d="M583.125 321.447L581.132 330.567L580.56 333.192L580.485 333.542L579.348 338.742L579.11 339.834L578.775 341.367L578.46 342.812L569.92 381.817L569.345 384.442L568.13 389.992L567.555 392.617L564.872 404.867H528.452L525.77 392.617L525.192 389.992L523.978 384.442L523.403 381.817L514.858 342.812L514.543 341.367L514.207 339.834L513.97 338.742L512.832 333.542L512.757 333.192L512.185 330.567L510.195 321.447H583.125Z" fill="#ECA667"/>
<path d="M581.135 330.567L580.562 333.192H512.76L512.188 330.567H581.135Z" fill="#DB8B58"/>
<path d="M579.347 338.743L579.109 339.835L578.774 341.368H514.542L514.206 339.835L513.969 338.743H579.347Z" fill="#DB8B58"/>
<path d="M569.919 381.817L569.344 384.442H523.977L523.402 381.817H569.919Z" fill="#DB8B58"/>
<path d="M568.129 389.993L567.554 392.618H525.769L525.191 389.993H568.129Z" fill="#DB8B58"/>
<path d="M295.449 52.3202V74.0492C295.449 76.9212 293.119 79.2522 290.246 79.2522H250.793L238.882 83.5252C237.659 83.9652 236.488 82.7622 236.957 81.5522L241.463 69.9162V52.3202C241.463 49.4482 243.793 47.1172 246.668 47.1172H290.246C293.119 47.1172 295.449 49.4472 295.449 52.3202Z" fill="#5EA7FF"/>
<path d="M261.174 63.8021C261.174 65.8811 259.489 67.5661 257.411 67.5661C255.333 67.5661 253.648 65.8811 253.648 63.8021C253.648 61.7241 255.333 60.0391 257.411 60.0391C259.49 60.0391 261.174 61.7231 261.174 63.8021Z" fill="#4A72E8"/>
<path d="M273.09 63.8021C273.09 65.8811 271.405 67.5661 269.326 67.5661C267.247 67.5661 265.562 65.8811 265.562 63.8021C265.562 61.7241 267.248 60.0391 269.326 60.0391C271.405 60.0391 273.09 61.7231 273.09 63.8021Z" fill="#4A72E8"/>
<path d="M285.001 63.8021C285.001 65.8811 283.316 67.5661 281.237 67.5661C279.158 67.5661 277.473 65.8811 277.473 63.8021C277.473 61.7241 279.158 60.0391 281.237 60.0391C283.316 60.0391 285.001 61.7231 285.001 63.8021Z" fill="#4A72E8"/>
<path d="M119.855 90.0513H66.2891V143.616H119.855V90.0513Z" fill="#D1B9AE"/>
<path d="M119.855 87.1172H66.2891V140.682H119.855V87.1172Z" fill="#74441C"/>
<path d="M116.037 90.9341H70.1055V136.866H116.037V90.9341Z" fill="#E8D9CC"/>
<path d="M115.276 91.6973H70.8711V136.102H115.276V91.6973Z" fill="white"/>
<path d="M110.489 97.1323H75.6289V130.667H110.489V97.1323Z" fill="#F48464"/>
<path d="M93.0567 123.632C99.0186 123.632 103.852 118.799 103.852 112.837C103.852 106.875 99.0186 102.042 93.0567 102.042C87.0948 102.042 82.2617 106.875 82.2617 112.837C82.2617 118.799 87.0948 123.632 93.0567 123.632Z" fill="white"/>
<path d="M90.6523 113.286C90.6523 113.286 98.9333 105.004 110.486 105.562L110.488 130.667L90.6523 113.286Z" fill="#24443B"/>
<path d="M75.6289 108.158C75.6289 108.158 85.9079 106.129 95.1379 113.9C104.368 121.671 110.49 130.668 110.49 130.668H75.6299L75.6289 108.158Z" fill="#406F5D"/>
<g clip-path="url(#clip0_1_31306)">
<circle cx="532.84" cy="83.8672" r="78" fill="white"/>
<path d="M505.262 87.0862C522.022 90.0834 538.592 95.0068 556.439 87.0862C556.499 83.3871 557.017 79.0848 558.263 74.0439C560.725 64.0724 564.192 35.6544 543.571 30.8901C522.949 26.1259 505.813 38.6029 508.866 57.7894C510.2 66.1755 507.803 77.1504 505.262 87.0862Z" fill="#171612"/>
<path d="M495.275 104.942L494.089 108.013L492.902 111.134L490.529 117.381C488.943 121.542 487.355 125.694 485.746 129.808C484.936 131.863 484.133 133.914 483.301 135.939C482.485 137.971 481.64 139.979 480.79 141.959C479.946 143.941 479.059 145.879 478.177 147.756C477.293 149.625 476.358 151.427 475.459 152.997C475.013 153.771 474.559 154.483 474.197 154.992L474.068 155.176C474.024 155.239 473.994 155.272 473.957 155.323C473.879 155.435 473.839 155.477 473.798 155.54L473.79 155.552L473.786 155.558L473.823 155.524C473.874 155.475 473.927 155.427 473.98 155.382C474.094 155.289 474.187 155.21 474.288 155.135C474.395 155.058 474.481 154.995 474.573 154.936C474.67 154.874 474.751 154.824 474.831 154.778C475.155 154.594 475.394 154.502 475.559 154.45C475.876 154.354 475.916 154.394 475.821 154.428C475.723 154.467 475.5 154.514 475.211 154.546C474.634 154.613 473.827 154.646 472.963 154.619C471.217 154.564 469.217 154.354 467.188 154.062C465.15 153.766 463.054 153.403 460.94 152.991C456.708 152.165 452.398 151.196 448.075 150.175C445.913 149.667 443.739 149.155 441.571 148.616L435.077 147.056L434.995 147.035C431.956 146.305 428.9 148.175 428.169 151.213C427.561 153.744 428.763 156.286 430.937 157.487C431.486 157.789 431.985 158.06 432.509 158.336L434.062 159.15L437.19 160.712C439.289 161.716 441.4 162.703 443.537 163.643C447.818 165.513 452.177 167.25 456.714 168.775C458.985 169.535 461.299 170.25 463.705 170.877C466.119 171.5 468.601 172.063 471.376 172.418C472.773 172.59 474.237 172.733 475.928 172.712C476.772 172.701 477.681 172.652 478.705 172.513C479.729 172.37 480.879 172.147 482.255 171.643C482.948 171.384 483.701 171.048 484.509 170.568C484.71 170.449 484.911 170.325 485.124 170.179C485.332 170.038 485.536 169.896 485.751 169.727C485.963 169.563 486.169 169.4 486.384 169.207L486.699 168.922L486.875 168.755C487.229 168.412 487.592 168.054 487.882 167.735C488.031 167.572 488.197 167.4 488.332 167.243L488.742 166.769C489.809 165.514 490.648 164.357 491.426 163.223C492.969 160.967 494.221 158.79 495.419 156.629C496.612 154.473 497.687 152.32 498.734 150.179C499.778 148.035 500.751 145.887 501.709 143.744C502.646 141.593 503.571 139.448 504.446 137.292C506.212 132.985 507.856 128.659 509.398 124.303C510.158 122.122 510.934 119.949 511.639 117.749C511.996 116.651 512.357 115.554 512.7 114.448L513.209 112.784C513.381 112.223 513.539 111.682 513.713 111.08C515.2 105.924 512.225 100.539 507.064 99.0509C502.193 97.6473 497.118 100.219 495.313 104.848L495.275 104.942Z" fill="#EAAD8F"/>
<path d="M474.657 154.196C476.444 155.417 477.934 156.971 479.08 158.807C479.394 159.311 478.64 159.848 478.325 159.342C477.217 157.568 475.79 156.084 474.063 154.905C473.571 154.569 474.17 153.864 474.657 154.196Z" fill="#C6695D"/>
<path d="M475.739 155.169C476.872 155.101 478.004 155.034 479.135 154.966C479.728 154.93 479.812 155.852 479.216 155.887C478.084 155.955 476.951 156.023 475.82 156.09C475.227 156.126 475.144 155.205 475.739 155.169Z" fill="#C6695D"/>
<path d="M480.922 224.926C480.922 224.926 511.858 226.509 549.67 203.136C549.67 203.136 542.119 189.308 543.459 174.653C543.64 172.682 544.107 170.469 544.796 168.088C548.561 155.097 558.928 137.124 565.145 126.171C567.537 121.954 569.618 118.857 569.861 117.318C570.811 111.268 571.22 103.972 558.151 99.3393C545.084 94.7128 543.108 89.4688 543.108 89.4688L519.744 92.1905C519.744 92.1905 513.325 96.2054 508.26 96.5273C503.194 96.8491 499.236 96.7327 497.738 102.448C496.907 105.618 497.389 109.118 497.576 112.146C497.727 114.584 497.684 116.718 496.618 118.134C495.352 119.814 493.028 121.864 491.166 124.623C490.962 124.924 490.762 125.237 490.573 125.559C489.58 127.224 488.797 129.129 488.501 131.341C488.462 131.636 488.432 131.94 488.414 132.247C488.375 132.792 488.365 133.355 488.393 133.936C488.465 135.51 488.756 137.076 489.188 138.635C489.27 138.942 489.36 139.246 489.453 139.553C491.193 145.215 494.5 150.771 495.163 156.268C495.477 158.869 495.212 162.45 494.598 166.412C493.489 173.57 491.248 181.986 489.254 188.174C481.446 212.423 480.922 224.926 480.922 224.926Z" fill="#C04D3A"/>
<path d="M490.578 125.559C511.381 124.397 532.324 127.648 551.812 135.101C552.357 135.309 552.592 134.436 552.053 134.231C532.686 126.819 511.854 123.551 491.171 124.623C490.966 124.924 490.767 125.238 490.578 125.559Z" fill="#DF7668"/>
<path d="M488.418 132.247C509.062 131.483 529.767 134.414 549.404 140.922C549.958 141.102 550.193 140.232 549.642 140.049C529.964 133.532 509.2 130.582 488.505 131.341C488.467 131.637 488.436 131.941 488.418 132.247Z" fill="#DF7668"/>
<path d="M489.191 138.635C489.273 138.942 489.364 139.246 489.456 139.553C490.373 139.574 491.291 139.598 492.21 139.619C497.983 139.755 503.718 139.619 509.478 140.215C521.95 141.507 534.106 144.773 546.248 147.774C546.815 147.913 547.053 147.042 546.489 146.901C541.004 145.546 535.532 144.147 530.023 142.894C520.517 140.731 510.849 138.982 501.078 138.774C497.116 138.689 493.153 138.725 489.191 138.635Z" fill="#DF7668"/>
<path d="M501.558 160.732C507.001 167.949 516.735 171.802 525.638 170.865C526.241 170.802 526.247 169.85 525.638 169.915C517.097 170.815 507.625 167.208 502.38 160.253C502.015 159.77 501.188 160.242 501.558 160.732Z" fill="#DF7668"/>
<path d="M512.297 104.297C511.751 106.08 512.65 107.9 514.227 108.84C516.457 110.171 519.499 109.849 521.967 109.678C527.855 109.271 533.587 107.752 538.943 105.287C539.498 105.032 539.015 104.212 538.463 104.466C534.284 106.39 529.855 107.724 525.297 108.377C523.07 108.696 520.792 108.878 518.541 108.838C516.18 108.795 512.224 107.784 513.213 104.55C513.392 103.963 512.475 103.714 512.297 104.297Z" fill="#DF7668"/>
<path d="M555.965 127.697C545.299 145.193 537.903 164.57 534.208 184.723C534.099 185.32 535.015 185.576 535.126 184.976C538.806 164.897 546.159 145.609 556.786 128.176C557.105 127.653 556.283 127.174 555.965 127.697Z" fill="#7E231A"/>
<path d="M514.578 57.883C514.578 57.883 512.115 57.807 511.277 60.86C510.439 63.9131 511.389 69.2865 514.611 69.0241C517.835 68.7605 514.578 57.883 514.578 57.883Z" fill="#C6695D"/>
<path d="M513.048 74.1983C510.672 74.0285 508.876 71.9587 509.046 69.5848C509.216 67.2098 511.286 65.4155 513.663 65.5853C516.039 65.7552 517.835 67.825 517.665 70.1988C517.496 72.5726 515.425 74.3669 513.048 74.1983ZM513.574 66.8429C511.892 66.723 510.426 67.9924 510.307 69.6739C510.187 71.3542 511.457 72.8184 513.139 72.9383C514.82 73.0583 516.286 71.7888 516.406 70.1073C516.525 68.427 515.255 66.9628 513.574 66.8429Z" fill="#E59F3F"/>
<path d="M545.092 94.7124C545.092 94.7124 539.895 102.22 530.632 102.464C518.864 102.774 518.129 97.636 518.129 97.636C518.803 96.1243 519.28 94.6043 519.613 92.9525C519.739 92.3279 519.846 91.6819 519.933 91.0109C520.174 89.1822 520.284 87.1658 520.318 84.8252C520.326 84.2778 520.33 83.7078 520.33 83.12L520.331 83.0511C528.568 82.094 535.543 79.3093 540.725 73.9264L542.012 73.3516L542.88 72.9609L542.974 73.4454L542.646 74.9156C541.082 81.8268 541.98 87.8083 545.092 94.7124Z" fill="#EAAD8F"/>
<path d="M534.446 79.4316C532.303 83.0559 527.582 89.3568 519.93 91.0121C520.171 89.1834 520.281 87.167 520.315 84.8265C520.323 84.279 520.327 83.709 520.327 83.1212C520.482 83.158 520.643 83.1901 520.803 83.2198C525.136 84.019 530.144 82.3256 534.446 79.4316Z" fill="#171612"/>
<path d="M553.976 62.5634C553.74 66.9358 549.748 72.0919 544.016 71.9423H543.986C543.984 71.9423 543.984 71.9423 543.984 71.9423L543.863 71.9399C543.757 72.1858 543.637 72.4268 543.511 72.6738C543.458 72.7795 543.4 72.8876 543.345 72.9933C543.34 73.0028 543.334 73.0134 543.327 73.0229C539.363 80.2596 528.535 84.0608 522.799 83.9076C520.751 83.8518 519.4 83.3174 518.965 83.1986C512.964 81.5551 512.269 73.2949 513.558 67.0783C513.748 66.1758 513.977 65.3196 514.236 64.5299C514.254 64.4753 514.273 64.4219 514.291 64.3673C514.291 64.3673 512.727 55.4907 512.456 51.6408C511.936 44.1786 516.596 36.8766 532.941 36.2698C549.29 35.663 552.644 45.9622 553.5 51.376C553.645 52.2785 553.179 57.5819 552.243 58.3918C553.743 59.2598 554.055 61.0945 553.976 62.5634Z" fill="#EAAD8F"/>
<path d="M543.659 68.502C543.9 68.4759 544.109 68.3037 544.169 68.0567C545.178 63.9859 550.186 62.4683 550.237 62.4529C550.55 62.3602 550.73 62.0325 550.637 61.7202C550.546 61.4067 550.218 61.2273 549.904 61.3188C549.671 61.3865 544.195 63.0347 543.021 67.7728C542.943 68.0899 543.137 68.4105 543.454 68.4889C543.522 68.5044 543.592 68.5091 543.659 68.502Z" fill="#C6695D"/>
<path d="M548.914 66.4817C548.988 66.4734 549.062 66.452 549.132 66.414C549.419 66.2584 549.526 65.8998 549.371 65.6136C549.328 65.5352 548.304 63.6922 545.9 63.6602C545.574 63.6578 545.304 63.9167 545.301 64.2432C545.296 64.5698 545.558 64.8382 545.884 64.8429C547.601 64.8655 548.323 66.1622 548.33 66.1753C548.449 66.3926 548.683 66.5066 548.914 66.4817Z" fill="#C6695D"/>
<g opacity="0.5">
<path d="M516.955 66.0018C516.907 66.6514 515.452 67.0895 513.559 67.0777C513.749 66.1752 513.978 65.319 514.237 64.5293C515.857 64.825 516.999 65.4104 516.955 66.0018Z" fill="#C6695D"/>
</g>
<g opacity="0.5">
<path d="M527.056 66.6304C527.002 67.3703 528.804 68.1029 531.079 68.2656C533.354 68.4283 535.242 67.9604 535.295 67.2206C535.349 66.4808 533.547 65.7481 531.272 65.5854C528.996 65.4216 527.109 65.8894 527.056 66.6304Z" fill="#C6695D"/>
</g>
<path d="M544.016 71.9429H543.986C543.984 71.9429 543.984 71.9429 543.984 71.9429L543.863 71.9406C543.757 72.1864 543.637 72.4275 543.512 72.6745C543.459 72.7801 543.402 72.8882 543.346 72.9939C543.341 73.0034 543.335 73.0141 543.328 73.0236C542.683 72.8846 541.876 72.5973 541.165 72.0308C540.748 71.6971 540.363 71.2673 540.066 70.7044C539.912 70.417 540.021 70.0596 540.311 69.9076C540.599 69.7508 540.957 69.8601 541.112 70.1498C541.445 70.7721 541.942 71.1841 542.453 71.4573C542.8 71.6413 543.153 71.7601 543.468 71.8349C543.671 71.8883 543.859 71.9204 544.016 71.9429Z" fill="#C6695D"/>
<path d="M542.575 71.7267C542.971 71.8764 543.438 71.9524 543.817 71.9951C543.815 72.0165 543.81 72.0367 543.809 72.0581C543.689 73.7384 544.959 75.2037 546.641 75.3225C548.323 75.4424 549.789 74.173 549.909 72.4915C550.017 70.9763 548.993 69.6391 547.558 69.3031C547.219 68.8435 547.233 68.4184 547.648 68.0312C549.78 68.4255 551.326 70.3706 551.169 72.5818C550.999 74.9568 548.928 76.7511 546.552 76.5813C544.176 76.4114 542.38 74.3428 542.55 71.9678C542.555 71.8871 542.566 71.8075 542.575 71.7267Z" fill="#E59F3F"/>
<path d="M526.441 69.7344C526.441 69.7344 525.807 74.824 521.494 74.786C517.18 74.748 517.012 70.5051 517.012 70.5051L526.441 69.7344Z" fill="white"/>
<path d="M522.221 76.7726C523.068 76.6597 523.557 76.1052 523.586 76.0719C523.725 75.9104 523.707 75.6658 523.544 75.5257C523.382 75.3867 523.139 75.4034 523 75.5649C522.969 75.5993 522.337 76.2833 521.274 75.895C521.074 75.8214 520.85 75.9247 520.778 76.1254C520.704 76.3261 520.807 76.5493 521.008 76.6229C521.468 76.7916 521.874 76.8189 522.221 76.7726Z" fill="#C6695D"/>
<path d="M525.187 62.4687C525.445 62.4877 525.695 62.3368 525.791 62.0827C526.004 61.5282 526.662 60.3608 527.337 60.2967C528.31 60.2065 529.311 61.1399 529.32 61.1494C529.559 61.3785 529.939 61.3714 530.169 61.1327C530.398 60.894 530.391 60.514 530.152 60.2848C530.096 60.2302 528.751 58.9584 527.224 59.1033C525.626 59.2541 524.762 61.4118 524.668 61.6576C524.551 61.9675 524.706 62.3131 525.016 62.4307C525.073 62.452 525.13 62.4651 525.187 62.4687Z" fill="#171612"/>
<path d="M518.83 62.4167C518.887 62.4203 518.945 62.4167 519.003 62.4036C519.326 62.3312 519.53 62.0106 519.457 61.6876C519.411 61.4798 518.965 59.6486 517.671 59.3375C516.472 59.049 515.304 59.8541 515.176 59.9467C514.906 60.1403 514.845 60.5143 515.039 60.7839C515.232 61.0523 515.606 61.114 515.876 60.9216C516.106 60.759 516.824 60.3683 517.391 60.5036C517.817 60.607 518.186 61.4964 518.287 61.95C518.346 62.2148 518.572 62.3989 518.83 62.4167Z" fill="#171612"/>
<path d="M549.42 41.9745C546.113 38.1757 541.407 35.0205 535.541 35.049C527.312 35.0906 519.574 37.5523 515.143 41.7643C513.007 43.789 511.638 46.2151 511.345 48.9772C510.445 57.4738 512.37 55.9086 512.37 55.9086C512.37 55.9086 512.332 55.7091 512.683 53.9125H512.687C512.896 52.8295 513.248 51.1658 513.837 48.6186C515.245 42.5421 534.826 42.8782 533.348 46.7685C533.348 46.7685 533.259 47.2589 533.275 48.0225C533.288 48.8395 533.424 49.97 533.916 51.1361C534.071 51.1681 534.22 51.2026 534.359 51.2346C536.299 51.6966 537.881 52.3438 539.174 53.0943C539.174 53.0943 539.177 53.0978 539.18 53.1002C539.341 53.2296 542.185 55.5465 541.596 58.6316C540.993 61.8093 539.592 65.924 541.811 65.2495C544.029 64.5715 544.895 62.0124 544.895 62.0124C544.895 62.0124 544.895 62.0124 544.899 62.0088C546.13 60.642 547.638 59.2883 549.803 58.6993C550.83 53.124 551.34 47.4038 549.42 41.9745Z" fill="#171612"/>
<path d="M547.027 33.3191C547.027 33.3191 549.366 17.2308 559.61 17.8329C569.854 18.435 566.78 30.1116 566.78 30.1116C566.78 30.1116 572.983 27.2177 570.761 34.661C568.54 42.1042 554.244 39.8586 554.244 39.8586L547.027 33.3191Z" fill="#171612"/>
<path d="M547.964 29.7441C547.964 29.7441 556.375 32.6571 558.549 40.2678C558.549 40.2678 557.213 41.7343 554.275 41.9279C554.275 41.9279 553.411 36.881 547.024 33.3185C547.024 33.3185 546.277 30.8806 547.964 29.7441Z" fill="#E59F3F"/>
<path d="M550.37 45.6741C544.627 43.3549 534.984 47.1775 533.277 48.0241C533.29 48.8411 533.426 49.9716 533.918 51.1378C534.073 51.1698 534.222 51.2043 534.361 51.2363C536.302 51.6983 537.883 52.3455 539.176 53.096C539.176 53.096 539.18 53.0995 539.182 53.1019C539.344 53.2313 542.187 55.5481 541.598 58.6333C540.995 61.811 537.672 79.7708 539.807 80.6756C545.395 83.0447 545.775 62.0378 545.775 62.0378C547.007 60.671 547.64 59.2899 549.804 58.6998C552.257 54.2977 551.701 49.9384 550.37 45.6741Z" fill="#171612"/>
<path d="M549.078 45.2657C549.078 45.2657 552.341 50.5489 549.808 58.7011C549.808 58.7011 552.674 58.1417 553.989 58.7011C555.305 59.2604 556.968 54.4296 555.858 49.8364C554.749 45.2431 548.647 39.3828 548.647 39.3828C548.647 39.3828 547.949 43.7172 549.078 45.2657Z" fill="#171612"/>
<path d="M520.67 68.2632C520.579 68.262 520.487 68.2347 520.405 68.1813L518.246 66.7575C518.099 66.6613 518.015 66.4938 518.024 66.3181C518.034 66.1423 518.135 65.9844 518.29 65.9036C520.102 64.962 521.249 63.423 521.898 61.0622C521.97 60.7986 522.243 60.6418 522.509 60.7155C522.773 60.7879 522.928 61.061 522.856 61.3246C522.215 63.6545 521.127 65.2766 519.458 66.368L520.952 67.3524C521.18 67.5032 521.243 67.8108 521.094 68.04C520.996 68.1872 520.833 68.2656 520.67 68.2632Z" fill="#C6695D"/>
<path d="M522.594 62.4188C522.594 59.158 525.248 56.5039 528.511 56.5039C531.774 56.5039 534.429 59.1568 534.429 62.4188C534.429 65.6797 531.774 68.3326 528.511 68.3326C525.248 68.3326 522.594 65.6797 522.594 62.4188ZM523.523 62.4188C523.523 65.1667 525.761 67.404 528.51 67.404C531.26 67.404 533.499 65.1679 533.499 62.4188C533.499 59.6698 531.261 57.4349 528.51 57.4349C525.761 57.4337 523.523 59.6698 523.523 62.4188Z" fill="white"/>
<path d="M508.559 62.4188C508.559 59.158 511.213 56.5039 514.477 56.5039C517.74 56.5039 520.396 59.1568 520.396 62.4188C520.396 65.6797 517.742 68.3326 514.477 68.3326C511.213 68.3326 508.559 65.6797 508.559 62.4188ZM509.489 62.4188C509.489 65.1667 511.727 67.404 514.477 67.404C517.228 67.404 519.465 65.1679 519.465 62.4188C519.465 59.6698 517.227 57.4349 514.477 57.4349C511.727 57.4337 509.489 59.6698 509.489 62.4188Z" fill="white"/>
<path d="M546.448 61.2536L546.977 60.5886C546.747 60.4092 540.753 55.9716 533.113 58.8394L533.44 59.7098C540.6 57.0237 546.396 61.2132 546.448 61.2536Z" fill="white"/>
<path d="M522.801 62.3436L523.36 61.6003C522.693 61.0968 521.057 60.4519 519.637 61.6109L520.225 62.3318C521.429 61.3497 522.745 62.3032 522.801 62.3436Z" fill="white"/>
<path d="M526.263 54.3364C524.946 54.4801 524.383 52.6846 525.56 52.0778C526.174 51.7607 526.977 51.5992 528 51.8284C532.436 52.8259 533.967 56.8195 533.967 56.8195C533.967 56.8195 529.929 54.5276 527.614 54.3234C527.078 54.2771 526.636 54.2961 526.263 54.3364Z" fill="#171612"/>
<path d="M519.226 54.4442C520.537 54.6283 521.156 52.8506 519.999 52.2082C519.394 51.8721 518.597 51.6857 517.568 51.884C513.103 52.7449 512.766 55.9167 512.766 55.9167C512.766 55.9167 515.557 54.5226 517.876 54.3896C518.412 54.3587 518.854 54.392 519.226 54.4442Z" fill="#171612"/>
<path d="M570.274 112.22L570.853 115.496C571.036 116.57 571.219 117.641 571.384 118.714C571.719 120.86 572.045 123.004 572.342 125.157C572.926 129.463 573.465 133.784 573.869 138.157C574.281 142.53 574.614 146.939 574.723 151.485C574.78 153.76 574.79 156.07 574.699 158.472C574.601 160.89 574.432 163.349 573.886 166.241C573.745 166.97 573.574 167.732 573.343 168.561C573.107 169.395 572.828 170.275 572.376 171.313C572.16 171.817 571.877 172.389 571.54 172.978C571.195 173.575 570.759 174.238 570.184 174.932C569.609 175.626 568.868 176.38 567.881 177.089C567.387 177.441 566.843 177.775 566.245 178.07L566.022 178.178L565.863 178.249L565.546 178.384C565.328 178.477 565.135 178.546 564.929 178.621C563.314 179.184 561.991 179.344 560.869 179.409C559.736 179.47 558.79 179.415 557.916 179.328C556.185 179.146 554.765 178.824 553.434 178.471C550.796 177.749 548.541 176.866 546.357 175.944C544.185 175.017 542.124 174.033 540.109 173.017C538.096 172 536.136 170.949 534.205 169.875C532.271 168.804 530.382 167.683 528.54 166.495C526.697 165.311 524.897 164.068 523.144 162.753C522.267 162.098 521.405 161.421 520.553 160.723C520.126 160.376 519.708 160.014 519.288 159.652C519.078 159.471 518.869 159.289 518.662 159.099L518.024 158.515C515.505 156.21 515.332 152.301 517.638 149.783C519.318 147.95 521.849 147.361 524.074 148.066L524.413 148.176C524.872 148.322 525.387 148.504 525.868 148.686C526.357 148.869 526.851 149.048 527.337 149.24C528.311 149.618 529.279 150.007 530.241 150.406C532.165 151.201 534.065 152.027 535.947 152.864C537.83 153.699 539.692 154.551 541.541 155.396C543.393 156.234 545.244 157.038 547.087 157.785C548.928 158.531 550.762 159.223 552.548 159.814C554.324 160.403 556.088 160.896 557.574 161.168C558.304 161.306 558.973 161.377 559.356 161.369C559.537 161.364 559.654 161.34 559.579 161.324C559.514 161.316 559.246 161.296 558.628 161.497C558.546 161.523 558.478 161.552 558.381 161.587L558.245 161.643L558.043 161.736C557.682 161.911 557.363 162.104 557.084 162.303C556.526 162.702 556.163 163.077 555.92 163.358C555.676 163.64 555.535 163.861 555.447 163.994C555.361 164.119 555.316 164.215 555.297 164.228C555.255 164.289 555.284 164.152 555.312 163.961C555.343 163.763 555.381 163.486 555.413 163.17C555.48 162.534 555.524 161.747 555.54 160.916C555.557 160.079 555.558 159.191 555.532 158.274C555.483 156.441 555.356 154.513 555.182 152.557C554.82 148.642 554.312 144.615 553.716 140.577C553.107 136.537 552.45 132.468 551.715 128.404C551.353 126.371 550.987 124.336 550.598 122.307L550.021 119.268L549.434 116.296L549.399 116.123C548.262 110.371 552.005 104.789 557.759 103.653C563.513 102.516 569.1 106.257 570.237 112.007C570.245 112.061 570.265 112.167 570.274 112.22Z" fill="#EAAD8F"/>
<path d="M555.921 161.364C557.659 162.007 559.066 163.221 559.986 164.825C560.29 165.356 561.112 164.877 560.807 164.345C559.759 162.519 558.146 161.178 556.173 160.448C555.599 160.234 555.35 161.152 555.921 161.364Z" fill="#C6695D"/>
<path d="M507.595 119.377L468.754 126.754L478.346 177.195L517.187 169.819L507.595 119.377Z" fill="#5F5F75"/>
<path d="M509.38 119.039L470.539 126.416L480.132 176.857L518.972 169.481L509.38 119.039Z" fill="#171612"/>
<path d="M526.432 156.748C524.37 159.948 520.04 160.686 516.77 158.734C515.044 157.705 513.056 156.733 511.311 156.427C507.12 155.693 501.965 155.989 499.953 155.02C496.985 153.59 500.294 152.294 500.727 152.191C503.495 151.526 507.476 151.266 507.476 151.266C507.476 151.266 500.365 149.963 497.587 150.594C494.81 151.224 492.794 149.64 495.05 147.571C497.305 145.502 505.439 145.307 507.707 145.863C507.707 145.863 503.527 143.928 499.738 144.659C495.948 145.389 494.494 145.142 493.016 144.635C491.538 144.128 492.849 141.277 498.165 140.393C503.48 139.51 505.74 140.504 508.233 141.333C508.233 141.333 506.606 139.956 503.51 138.325C500.413 136.693 496.101 137.886 494.864 136.199C493.598 134.472 498.626 133.317 501.683 133.919C504.741 134.521 507.016 134.7 510.339 136.897C513.661 139.093 516.761 141.308 518.436 143.101C520.109 144.894 526.897 150.485 527.275 153.998C527.373 154.897 527.016 155.84 526.432 156.748Z" fill="#EAAD8F"/>
<path d="M523.189 147.957C523.189 147.957 520.23 141.079 518.201 139.569C516.173 138.058 513.918 134.7 512.789 135.974C511.661 137.248 514.547 141.302 514.547 141.302L523.189 147.957Z" fill="#EAAD8F"/>
<path d="M548.956 214.395C546.357 211.797 543.302 209.937 540.046 208.812L548.947 199.921C558.124 190.759 558.124 175.903 548.947 166.741C539.772 157.576 524.897 157.576 515.723 166.741C506.546 175.903 506.546 190.759 515.723 199.921C518.252 202.45 521.217 204.28 524.377 205.41L516.981 213.234C516.555 213.606 516.14 213.99 515.735 214.395C514.395 215.733 513.247 217.194 512.304 218.739L519.033 221.769L524.578 224.262L525.419 224.643C525.513 224.541 525.606 224.442 525.702 224.346C529.37 220.683 535.321 220.683 538.991 224.346C541.076 226.428 541.974 229.248 541.689 231.963L554.807 237.867C557.274 229.833 555.321 220.74 548.959 214.389L548.956 214.395ZM525.687 189.967C522.019 186.304 522.019 180.361 525.687 176.695C529.355 173.026 535.306 173.026 538.976 176.695C542.65 180.358 542.65 186.301 538.976 189.967L532.335 196.993V192.715C529.928 192.715 527.522 191.8 525.69 189.967H525.687Z" fill="#C87A3C"/>
</g>
<defs>
<clipPath id="clip0_1_31306">
<rect x="453.84" y="4.86719" width="158" height="156" rx="78" fill="white"/>
</clipPath>
</defs>
</svg>
