 <svg
                  width="141"
                  height="144"
                  viewBox="0 0 141 144"
                  fill="none"
                  xmlns="http://www.w3.org/2000/svg"
                >
                  <path
                    d="M52.2617 70.0862C69.0225 73.0834 85.592 78.0068 103.439 70.0862C103.499 66.3871 104.017 62.0848 105.263 57.0439C107.725 47.0724 111.192 18.6544 90.5708 13.8901C69.9494 9.12587 52.8131 21.6029 55.8658 40.7894C57.2003 49.1755 54.8035 60.1504 52.2617 70.0862Z"
                    fill="#171612"
                  />
                  <path
                    d="M42.2753 87.9421L41.0893 91.013L39.9023 94.1337L37.5292 100.381C35.9429 104.542 34.3553 108.694 32.7464 112.808C31.936 114.863 31.1327 116.914 30.3009 118.939C29.4845 120.971 28.6397 122.979 27.79 124.959C26.9464 126.941 26.0587 128.879 25.177 130.756C24.2929 132.625 23.3577 134.427 22.4594 135.997C22.0126 136.771 21.5587 137.483 21.1974 137.992L21.0679 138.176C21.024 138.239 20.9942 138.272 20.9574 138.323C20.879 138.435 20.8386 138.477 20.7982 138.54L20.7899 138.552L20.7863 138.558L20.8231 138.524C20.8742 138.475 20.9265 138.427 20.98 138.382C21.0941 138.289 21.1868 138.21 21.2878 138.135C21.3947 138.058 21.4814 137.995 21.5729 137.936C21.6704 137.874 21.7512 137.824 21.8308 137.778C22.1552 137.594 22.394 137.502 22.5592 137.45C22.8765 137.354 22.9157 137.394 22.8206 137.428C22.7232 137.467 22.4998 137.514 22.211 137.546C21.6335 137.613 20.8267 137.646 19.9628 137.619C18.2172 137.564 16.2174 137.354 14.1878 137.062C12.1499 136.766 10.0537 136.403 7.93977 135.991C3.70829 135.165 -0.601645 134.196 -4.92462 133.175C-7.0873 132.667 -9.26067 132.155 -11.4293 131.616L-17.9233 130.056L-18.0053 130.035C-21.0437 129.305 -24.1 131.175 -24.8307 134.213C-25.4391 136.744 -24.2366 139.286 -22.0633 140.487C-21.5143 140.789 -21.0152 141.06 -20.4912 141.336L-18.9381 142.15L-15.8105 143.712C-13.7108 144.716 -11.6004 145.703 -9.46268 146.643C-5.18248 148.513 -0.822641 150.25 3.71423 151.775C5.98504 152.535 8.29863 153.25 10.7049 153.877C13.1195 154.5 15.6006 155.063 18.3765 155.418C19.7727 155.59 21.2366 155.733 22.9276 155.712C23.7724 155.701 24.6815 155.652 25.7046 155.513C26.7289 155.37 27.8792 155.147 29.2552 154.643C29.948 154.384 30.7013 154.048 31.5094 153.568C31.7102 153.449 31.911 153.325 32.1237 153.179C32.3317 153.038 32.5361 152.896 32.7512 152.727C32.9627 152.563 33.1694 152.4 33.3845 152.207L33.6994 151.922L33.8753 151.755C34.2294 151.412 34.5918 151.054 34.8817 150.735C35.0314 150.572 35.1966 150.4 35.3321 150.243L35.742 149.769C36.8091 148.514 37.6481 147.357 38.4264 146.223C39.9688 143.967 41.2212 141.79 42.419 139.629C43.6121 137.473 44.6874 135.32 45.7343 133.179C46.7776 131.035 47.7508 128.887 48.7086 126.744C49.6461 124.593 50.5706 122.448 51.4464 120.292C53.2122 115.985 54.8556 111.659 56.398 107.303C57.1585 105.122 57.9345 102.949 58.6391 100.749C58.9956 99.6509 59.3568 98.5536 59.7002 97.448L60.2088 95.7844C60.3811 95.2227 60.5392 94.6824 60.7127 94.0803C62.2004 88.9242 59.2249 83.5389 54.0642 82.0509C49.1934 80.6473 44.1183 83.2194 42.3133 87.8483L42.2753 87.9421Z"
                    fill="#EAAD8F"
                  />
                  <path
                    d="M21.6567 137.196C23.4439 138.417 24.934 139.971 26.0795 141.807C26.3944 142.311 25.6399 142.848 25.325 142.342C24.2175 140.568 22.7903 139.084 21.0626 137.905C20.5706 137.569 21.1695 136.864 21.6567 137.196Z"
                    fill="#C6695D"
                  />
                  <path
                    d="M22.7394 138.169C23.8718 138.101 25.0042 138.034 26.1355 137.966C26.7284 137.93 26.8116 138.852 26.2163 138.887C25.0838 138.955 23.9514 139.023 22.8201 139.09C22.2272 139.126 22.144 138.205 22.7394 138.169Z"
                    fill="#C6695D"
                  />
                  <path
                    d="M27.9219 207.926C27.9219 207.926 58.8577 209.509 96.6701 186.136C96.6701 186.136 89.1186 172.308 90.4589 157.653C90.6396 155.682 91.1066 153.469 91.7958 151.088C95.5614 138.097 105.928 120.124 112.145 109.171C114.537 104.954 116.618 101.857 116.861 100.318C117.811 94.2677 118.22 86.9717 105.151 82.3393C92.0845 77.7128 90.1083 72.4688 90.1083 72.4688L66.7443 75.1905C66.7443 75.1905 60.3252 79.2054 55.2596 79.5273C50.1939 79.8491 46.2357 79.7327 44.7385 85.4481C43.9067 88.6176 44.3891 92.1183 44.5757 95.1464C44.7266 97.5844 44.6838 99.7183 43.6179 101.134C42.3524 102.814 40.0281 104.864 38.1661 107.623C37.9617 107.924 37.762 108.237 37.5731 108.559C36.5797 110.224 35.7967 112.129 35.5008 114.341C35.4616 114.636 35.4319 114.94 35.414 115.247C35.3748 115.792 35.3653 116.355 35.3926 116.936C35.4651 118.51 35.7563 120.076 36.1876 121.635C36.2696 121.942 36.3599 122.246 36.4526 122.553C38.1934 128.215 41.5004 133.771 42.1635 139.268C42.4772 141.869 42.2122 145.45 41.5978 149.412C40.4892 156.57 38.2481 164.986 36.2541 171.174C28.4459 195.423 27.9219 207.926 27.9219 207.926Z"
                    fill="#C04D3A"
                  />
                  <path
                    d="M37.5781 108.559C58.3814 107.397 79.3238 110.648 98.8116 118.101C99.357 118.309 99.5923 117.436 99.0528 117.231C79.6862 109.819 58.8544 106.551 38.1711 107.623C37.9655 107.924 37.7671 108.238 37.5781 108.559Z"
                    fill="#DF7668"
                  />
                  <path
                    d="M35.418 115.247C56.062 114.483 76.7667 117.414 96.4043 123.922C96.958 124.102 97.1933 123.232 96.642 123.049C76.964 116.532 56.1999 113.582 35.5047 114.341C35.4667 114.637 35.4358 114.941 35.418 115.247Z"
                    fill="#DF7668"
                  />
                  <path
                    d="M36.1914 121.635C36.2734 121.942 36.3637 122.246 36.4564 122.553C37.3726 122.574 38.2911 122.598 39.2096 122.619C44.9835 122.755 50.7182 122.619 56.4778 123.215C68.9501 124.507 81.1062 127.773 93.2481 130.774C93.8149 130.913 94.0525 130.042 93.4893 129.901C88.0042 128.546 82.5321 127.147 77.0232 125.894C67.517 123.731 57.8491 121.982 48.0778 121.774C44.1161 121.689 40.1531 121.725 36.1914 121.635Z"
                    fill="#DF7668"
                  />
                  <path
                    d="M48.5578 143.732C54.0013 150.949 63.7346 154.802 72.6384 153.865C73.2409 153.802 73.2468 152.85 72.6384 152.915C64.097 153.815 54.6252 150.208 49.3801 143.253C49.0153 142.77 48.1883 143.242 48.5578 143.732Z"
                    fill="#DF7668"
                  />
                  <path
                    d="M59.2968 87.2967C58.7514 89.0803 59.6498 90.8995 61.2266 91.84C63.4571 93.1712 66.499 92.8494 68.9671 92.6784C74.8551 92.2711 80.5873 90.7523 85.9429 88.287C86.4979 88.0317 86.0154 87.2124 85.4629 87.4665C81.2837 89.3902 76.8549 90.7238 72.2967 91.3769C70.0698 91.6964 67.7919 91.878 65.5413 91.8377C63.1802 91.7949 59.2244 90.7843 60.213 87.5496C60.3924 86.963 59.4751 86.7136 59.2968 87.2967Z"
                    fill="#DF7668"
                  />
                  <path
                    d="M102.965 110.697C92.2985 128.193 84.9026 147.57 81.2083 167.723C81.0989 168.32 82.0151 168.576 82.1257 167.976C85.8058 147.897 93.1588 128.609 103.786 111.176C104.105 110.653 103.283 110.174 102.965 110.697Z"
                    fill="#7E231A"
                  />
                  <path
                    d="M61.5779 40.883C61.5779 40.883 59.1146 40.807 58.2768 43.86C57.4391 46.9131 58.3886 52.2865 61.6112 52.0241C64.835 51.7605 61.5779 40.883 61.5779 40.883Z"
                    fill="#C6695D"
                  />
                  <path
                    d="M60.0484 57.1983C57.6718 57.0285 55.8764 54.9587 56.0463 52.5848C56.2162 50.2098 58.2862 48.4155 60.6628 48.5853C63.0394 48.7552 64.8348 50.825 64.6649 53.1988C64.4962 55.5726 62.425 57.3669 60.0484 57.1983ZM60.5737 49.8429C58.8922 49.723 57.4259 50.9924 57.307 52.6739C57.187 54.3542 58.4573 55.8184 60.1387 55.9383C61.8201 56.0583 63.2865 54.7888 63.4065 53.1073C63.5253 51.427 62.2551 49.9628 60.5737 49.8429Z"
                    fill="#E59F3F"
                  />
                  <path
                    d="M92.0922 77.7124C92.0922 77.7124 86.8948 85.2198 77.6321 85.4644C65.8645 85.7743 65.1289 80.636 65.1289 80.636C65.8027 79.1243 66.2804 77.6043 66.6131 75.9525C66.7391 75.3279 66.846 74.6819 66.9327 74.0109C67.174 72.1822 67.2844 70.1658 67.3177 67.8252C67.326 67.2778 67.3296 66.7078 67.3296 66.12L67.3308 66.0511C75.568 65.094 82.5432 62.3093 87.7253 56.9264L89.0122 56.3516L89.8797 55.9609L89.9736 56.4454L89.6456 57.9156C88.0818 64.8268 88.9801 70.8083 92.0922 77.7124Z"
                    fill="#EAAD8F"
                  />
                  <path
                    d="M81.4458 62.4316C79.3033 66.0559 74.5822 72.3568 66.9297 74.0121C67.1709 72.1834 67.2814 70.167 67.3147 67.8265C67.323 67.279 67.3266 66.709 67.3266 66.1212C67.4822 66.158 67.6426 66.1901 67.8031 66.2198C72.1355 67.019 77.1442 65.3256 81.4458 62.4316Z"
                    fill="#171612"
                  />
                  <path
                    d="M100.976 45.5634C100.74 49.9358 96.7483 55.0919 91.016 54.9423H90.9863C90.984 54.9423 90.9839 54.9423 90.9839 54.9423L90.8627 54.9399C90.757 55.1858 90.6369 55.4268 90.511 55.6738C90.4575 55.7795 90.4005 55.8876 90.3446 55.9933C90.3399 56.0028 90.334 56.0134 90.3268 56.0229C86.3627 63.2596 75.535 67.0608 69.7992 66.9076C67.7506 66.8518 66.3995 66.3174 65.9646 66.1986C59.9638 64.5551 59.2686 56.2949 60.5579 50.0783C60.7481 49.1758 60.9774 48.3196 61.2364 47.5299C61.2543 47.4753 61.2733 47.4219 61.2911 47.3673C61.2911 47.3673 59.7273 38.4907 59.4564 34.6408C58.9359 27.1786 63.5963 19.8766 79.9412 19.2698C96.2896 18.663 99.6441 28.9622 100.5 34.376C100.645 35.2785 100.179 40.5819 99.2425 41.3918C100.743 42.2598 101.055 44.0945 100.976 45.5634Z"
                    fill="#EAAD8F"
                  />
                  <path
                    d="M90.6595 51.502C90.8995 51.4759 91.1086 51.3037 91.1692 51.0567C92.1781 46.9859 97.1855 45.4683 97.2366 45.4529C97.5503 45.3602 97.7298 45.0325 97.6371 44.7202C97.5456 44.4067 97.2176 44.2273 96.9039 44.3188C96.671 44.3865 91.1954 46.0347 90.0213 50.7728C89.9429 51.0899 90.1366 51.4105 90.4539 51.4889C90.5216 51.5044 90.5918 51.5091 90.6595 51.502Z"
                    fill="#C6695D"
                  />
                  <path
                    d="M95.9144 49.4817C95.9881 49.4734 96.0618 49.452 96.1319 49.414C96.4194 49.2584 96.5264 48.8998 96.3707 48.6136C96.3279 48.5352 95.3037 46.6922 92.8998 46.6602C92.5742 46.6578 92.3044 46.9167 92.3008 47.2432C92.2961 47.5698 92.5575 47.8382 92.8843 47.8429C94.6014 47.8655 95.3227 49.1622 95.3298 49.1753C95.4486 49.3926 95.6827 49.5066 95.9144 49.4817Z"
                    fill="#C6695D"
                  />
                  <g opacity="0.5">
                    <path
                      d="M63.9547 49.0018C63.9072 49.6514 62.4515 50.0895 60.5586 50.0777C60.7487 49.1752 60.978 48.319 61.2371 47.5293C62.8567 47.825 63.9987 48.4104 63.9547 49.0018Z"
                      fill="#C6695D"
                    />
                  </g>
                  <g opacity="0.5">
                    <path
                      d="M74.0558 49.6304C74.0024 50.3703 75.8039 51.1029 78.0794 51.2656C80.3538 51.4283 82.242 50.9604 82.2954 50.2206C82.3489 49.4808 80.5475 48.7481 78.2719 48.5854C75.9964 48.4216 74.1093 48.8894 74.0558 49.6304Z"
                      fill="#C6695D"
                    />
                  </g>
                  <path
                    d="M91.016 54.9429H90.9864C90.984 54.9429 90.984 54.9429 90.984 54.9429L90.8628 54.9406C90.757 55.1864 90.6369 55.4275 90.5122 55.6745C90.4587 55.7801 90.4017 55.8882 90.3459 55.9939C90.3411 56.0034 90.3352 56.0141 90.328 56.0236C89.6828 55.8846 88.8759 55.5973 88.1653 55.0308C87.7482 54.6971 87.3633 54.2673 87.0662 53.7044C86.9117 53.417 87.021 53.0596 87.311 52.9076C87.5985 52.7508 87.9574 52.8601 88.1119 53.1498C88.4446 53.7721 88.9425 54.1841 89.4534 54.4573C89.8004 54.6413 90.1533 54.7601 90.4682 54.8349C90.6714 54.8883 90.8592 54.9204 91.016 54.9429Z"
                    fill="#C6695D"
                  />
                  <path
                    d="M89.5751 54.7267C89.9708 54.8764 90.4378 54.9524 90.8169 54.9951C90.8145 55.0165 90.8097 55.0367 90.8085 55.0581C90.6885 56.7384 91.9588 58.2037 93.6415 58.3225C95.3229 58.4424 96.7892 57.173 96.9092 55.4915C97.0174 53.9763 95.9931 52.6391 94.5576 52.3031C94.219 51.8435 94.2332 51.4184 94.6479 51.0312C96.7797 51.4255 98.3257 53.3706 98.1688 55.5818C97.9989 57.9568 95.9277 59.7511 93.5523 59.5813C91.1757 59.4114 89.3803 57.3428 89.5502 54.9678C89.5549 54.8871 89.5656 54.8075 89.5751 54.7267Z"
                    fill="#E59F3F"
                  />
                  <path
                    d="M73.4408 52.7344C73.4408 52.7344 72.8074 57.824 68.494 57.786C64.1805 57.748 64.0117 53.5051 64.0117 53.5051L73.4408 52.7344Z"
                    fill="white"
                  />
                  <path
                    d="M69.2215 59.7726C70.0675 59.6597 70.5571 59.1052 70.5856 59.0719C70.7247 58.9104 70.7068 58.6658 70.544 58.5257C70.3824 58.3867 70.1388 58.4034 69.9998 58.5649C69.9689 58.5993 69.3367 59.2833 68.2744 58.895C68.0736 58.8214 67.8502 58.9247 67.7777 59.1254C67.704 59.3261 67.8074 59.5493 68.0082 59.6229C68.4681 59.7916 68.8745 59.8189 69.2215 59.7726Z"
                    fill="#C6695D"
                  />
                  <path
                    d="M72.1874 45.4687C72.4453 45.4877 72.6948 45.3368 72.7911 45.0827C73.0038 44.5282 73.6621 43.3608 74.3371 43.2967C75.3103 43.2065 76.3108 44.1399 76.3203 44.1494C76.5592 44.3785 76.9394 44.3714 77.1688 44.1327C77.3981 43.894 77.391 43.514 77.1521 43.2848C77.0963 43.2302 75.7511 41.9584 74.2242 42.1033C72.6259 42.2541 71.762 44.4118 71.6682 44.6576C71.5505 44.9675 71.7062 45.3131 72.0164 45.4307C72.0734 45.452 72.1304 45.4651 72.1874 45.4687Z"
                    fill="#171612"
                  />
                  <path
                    d="M65.8297 45.4167C65.8867 45.4203 65.945 45.4167 66.0032 45.4036C66.3264 45.3312 66.5296 45.0106 66.4571 44.6876C66.4108 44.4798 65.9651 42.6486 64.6711 42.3375C63.4721 42.049 62.304 42.8541 62.1757 42.9467C61.906 43.1403 61.8454 43.5143 62.0391 43.7839C62.2316 44.0523 62.6059 44.114 62.8756 43.9216C63.1061 43.759 63.8239 43.3683 64.3907 43.5036C64.8173 43.607 65.1856 44.4964 65.2866 44.95C65.346 45.2148 65.5718 45.3989 65.8297 45.4167Z"
                    fill="#171612"
                  />
                  <path
                    d="M96.4204 24.9745C93.1134 21.1757 88.4067 18.0205 82.5413 18.049C74.3124 18.0906 66.5744 20.5523 62.1432 24.7643C60.0067 26.789 58.6378 29.2151 58.3454 31.9772C57.4447 40.4738 59.3697 38.9086 59.3697 38.9086C59.3697 38.9086 59.3318 38.7091 59.6835 36.9125H59.687C59.8962 35.8295 60.2479 34.1658 60.8373 31.6186C62.2454 25.5421 81.8259 25.8782 80.3477 29.7685C80.3477 29.7685 80.2586 30.2589 80.2752 31.0225C80.2883 31.8395 80.4238 32.97 80.9157 34.1361C81.0714 34.1681 81.2199 34.2026 81.3589 34.2346C83.2994 34.6966 84.881 35.3438 86.1739 36.0943C86.1739 36.0943 86.1775 36.0978 86.1798 36.1002C86.3414 36.2296 89.185 38.5465 88.5956 41.6316C87.9932 44.8093 86.5921 48.924 88.8107 48.2495C91.0292 47.5715 91.8955 45.0124 91.8955 45.0124C91.8955 45.0124 91.8955 45.0124 91.899 45.0088C93.1301 43.642 94.638 42.2883 96.8031 41.6993C97.8298 36.124 98.3395 30.4038 96.4204 24.9745Z"
                    fill="#171612"
                  />
                  <path
                    d="M94.0273 16.3191C94.0273 16.3191 96.3659 0.23083 106.61 0.832892C116.854 1.43495 113.78 13.1116 113.78 13.1116C113.78 13.1116 119.983 10.2177 117.761 17.661C115.54 25.1042 101.244 22.8586 101.244 22.8586L94.0273 16.3191Z"
                    fill="#171612"
                  />
                  <path
                    d="M94.9642 12.7441C94.9642 12.7441 103.375 15.6571 105.549 23.2678C105.549 23.2678 104.213 24.7343 101.275 24.9279C101.275 24.9279 100.411 19.881 94.0243 16.3185C94.0243 16.3185 93.2768 13.8806 94.9642 12.7441Z"
                    fill="#E59F3F"
                  />
                  <path
                    d="M97.3697 28.6741C91.6267 26.3549 81.9837 30.1775 80.2773 31.0241C80.2904 31.8411 80.4259 32.9716 80.9178 34.1378C81.0735 34.1698 81.222 34.2043 81.361 34.2363C83.3015 34.6983 84.8831 35.3455 86.176 36.096C86.176 36.096 86.1795 36.0995 86.1819 36.1019C86.3435 36.2313 89.1871 38.5481 88.5977 41.6333C87.9953 44.811 84.6716 62.7708 86.807 63.6756C92.3955 66.0447 92.7746 45.0378 92.7746 45.0378C94.0068 43.671 94.6402 42.2899 96.804 41.6998C99.2566 37.2977 98.7005 32.9384 97.3697 28.6741Z"
                    fill="#171612"
                  />
                  <path
                    d="M96.078 28.2657C96.078 28.2657 99.3411 33.5489 96.8077 41.7011C96.8077 41.7011 99.6738 41.1417 100.989 41.7011C102.305 42.2604 103.968 37.4296 102.858 32.8364C101.749 28.2431 95.6467 22.3828 95.6467 22.3828C95.6467 22.3828 94.9492 26.7172 96.078 28.2657Z"
                    fill="#171612"
                  />
                  <path
                    d="M67.6705 51.2632C67.579 51.262 67.4874 51.2347 67.4054 51.1813L65.2463 49.7575C65.099 49.6613 65.0147 49.4938 65.0242 49.3181C65.0337 49.1423 65.1347 48.9844 65.2903 48.9036C67.1025 47.962 68.2491 46.423 68.8979 44.0622C68.9704 43.7986 69.2426 43.6418 69.5087 43.7155C69.7725 43.7879 69.9282 44.061 69.8557 44.3246C69.2152 46.6545 68.1267 48.2766 66.4584 49.368L67.9521 50.3524C68.1802 50.5032 68.2432 50.8108 68.0935 51.04C67.9961 51.1872 67.8333 51.2656 67.6705 51.2632Z"
                    fill="#C6695D"
                  />
                  <path
                    d="M69.5938 45.4188C69.5938 42.158 72.2484 39.5039 75.5114 39.5039C78.7744 39.5039 81.4291 42.1568 81.4291 45.4188C81.4291 48.6797 78.7744 51.3326 75.5114 51.3326C72.2484 51.3326 69.5938 48.6797 69.5938 45.4188ZM70.523 45.4188C70.523 48.1667 72.7605 50.404 75.5102 50.404C78.2599 50.404 80.4986 48.1679 80.4986 45.4188C80.4986 42.6698 78.2611 40.4349 75.5102 40.4349C72.7605 40.4337 70.523 42.6698 70.523 45.4188Z"
                    fill="white"
                  />
                  <path
                    d="M55.5586 45.4188C55.5586 42.158 58.2132 39.5039 61.4775 39.5039C64.7405 39.5039 67.3963 42.1568 67.3963 45.4188C67.3963 48.6797 64.7417 51.3326 61.4775 51.3326C58.2132 51.3326 55.5586 48.6797 55.5586 45.4188ZM56.489 45.4188C56.489 48.1667 58.7266 50.404 61.4775 50.404C64.2283 50.404 66.4646 48.1679 66.4646 45.4188C66.4646 42.6698 64.2272 40.4349 61.4775 40.4349C58.7266 40.4337 56.489 42.6698 56.489 45.4188Z"
                    fill="white"
                  />
                  <path
                    d="M93.4483 44.2536L93.9771 43.5886C93.7465 43.4092 87.7528 38.9716 80.1133 41.8394L80.4401 42.7098C87.5995 40.0237 93.396 44.2132 93.4483 44.2536Z"
                    fill="white"
                  />
                  <path
                    d="M69.8011 45.3436L70.3596 44.6003C69.693 44.0968 68.0567 43.4519 66.6367 44.6109L67.2249 45.3318C68.4286 44.3497 69.7452 45.3032 69.8011 45.3436Z"
                    fill="white"
                  />
                  <path
                    d="M73.263 37.3364C71.9464 37.4801 71.3832 35.6846 72.5596 35.0778C73.1739 34.7607 73.9772 34.5992 75.0003 34.8284C79.4361 35.8259 80.9666 39.8195 80.9666 39.8195C80.9666 39.8195 76.9289 37.5276 74.6141 37.3234C74.0782 37.2771 73.6361 37.2961 73.263 37.3364Z"
                    fill="#171612"
                  />
                  <path
                    d="M66.2263 37.4442C67.537 37.6283 68.1561 35.8506 66.9988 35.2082C66.3939 34.8721 65.5966 34.6857 64.5675 34.884C60.1031 35.7449 59.7656 38.9167 59.7656 38.9167C59.7656 38.9167 62.5569 37.5226 64.8765 37.3896C65.4124 37.3587 65.8544 37.392 66.2263 37.4442Z"
                    fill="#171612"
                  />
                  <path
                    d="M117.274 95.2204L117.853 98.4956C118.036 99.5702 118.219 100.641 118.384 101.714C118.719 103.86 119.045 106.004 119.342 108.157C119.926 112.463 120.465 116.784 120.869 121.157C121.281 125.53 121.614 129.939 121.723 134.485C121.78 136.76 121.79 139.07 121.699 141.472C121.601 143.89 121.432 146.349 120.886 149.241C120.745 149.97 120.574 150.732 120.343 151.561C120.107 152.395 119.828 153.275 119.376 154.313C119.16 154.817 118.877 155.389 118.54 155.978C118.195 156.575 117.759 157.238 117.184 157.932C116.609 158.626 115.868 159.38 114.881 160.089C114.387 160.441 113.843 160.775 113.245 161.07L113.022 161.178L112.863 161.249L112.546 161.384C112.328 161.477 112.135 161.546 111.929 161.621C110.314 162.184 108.991 162.344 107.869 162.409C106.736 162.47 105.79 162.415 104.916 162.328C103.185 162.146 101.765 161.824 100.434 161.471C97.7957 160.749 95.5415 159.866 93.3574 158.944C91.1852 158.017 89.1235 157.033 87.1094 156.017C85.0965 155 83.1358 153.949 81.2048 152.875C79.2715 151.804 77.3822 150.683 75.5403 149.495C73.6973 148.311 71.897 147.068 70.1443 145.753C69.2673 145.098 68.4046 144.421 67.5526 143.723C67.126 143.376 66.7078 143.014 66.2883 142.652C66.078 142.471 65.8688 142.289 65.662 142.099L65.024 141.515C62.5048 139.21 62.3325 135.301 64.6377 132.783C66.318 130.95 68.849 130.361 71.0735 131.066L71.4134 131.176C71.8721 131.322 72.3866 131.504 72.8678 131.686C73.3574 131.869 73.8506 132.048 74.3366 132.24C75.311 132.618 76.2794 133.007 77.2407 133.406C79.1645 134.201 81.0646 135.027 82.9469 135.864C84.8303 136.699 86.6923 137.551 88.5413 138.396C90.3927 139.234 92.244 140.038 94.087 140.785C95.9277 141.531 97.7624 142.223 99.5484 142.814C101.324 143.403 103.088 143.896 104.574 144.168C105.304 144.306 105.973 144.377 106.356 144.369C106.537 144.364 106.654 144.34 106.579 144.324C106.514 144.316 106.246 144.296 105.628 144.497C105.546 144.523 105.478 144.552 105.381 144.587L105.245 144.643L105.043 144.736C104.682 144.911 104.363 145.104 104.084 145.303C103.526 145.702 103.163 146.077 102.92 146.358C102.676 146.64 102.535 146.861 102.447 146.994C102.361 147.119 102.316 147.215 102.297 147.228C102.255 147.289 102.284 147.152 102.312 146.961C102.343 146.763 102.381 146.486 102.413 146.17C102.48 145.534 102.524 144.747 102.54 143.916C102.557 143.079 102.558 142.191 102.532 141.274C102.483 139.441 102.356 137.513 102.182 135.557C101.82 131.642 101.312 127.615 100.716 123.577C100.107 119.537 99.4498 115.468 98.7154 111.404C98.353 109.371 97.987 107.336 97.5984 105.307L97.0209 102.268L96.4339 99.2959L96.3994 99.1226C95.2622 93.3715 99.0054 87.789 104.759 86.6526C110.513 85.5162 116.1 89.2568 117.237 95.0067C117.245 95.0613 117.265 95.167 117.274 95.2204Z"
                    fill="#EAAD8F"
                  />
                  <path
                    d="M102.921 144.364C104.659 145.007 106.066 146.221 106.986 147.825C107.29 148.356 108.112 147.877 107.807 147.345C106.759 145.519 105.146 144.178 103.173 143.448C102.599 143.234 102.35 144.152 102.921 144.364Z"
                    fill="#C6695D"
                  />
                  <path
                    d="M54.5947 102.377L15.7539 109.754L25.3464 160.195L64.1871 152.819L54.5947 102.377Z"
                    fill="#5F5F75"
                  />
                  <path
                    d="M56.3799 102.039L17.5391 109.416L27.1315 159.857L65.9723 152.481L56.3799 102.039Z"
                    fill="#171612"
                  />
                  <path
                    d="M73.4315 139.748C71.3698 142.948 67.0398 143.686 63.7696 141.734C62.0442 140.705 60.0562 139.733 58.3106 139.427C54.1195 138.693 48.9648 138.989 46.953 138.02C43.9847 136.59 47.2941 135.294 47.7266 135.191C50.4953 134.526 54.476 134.266 54.476 134.266C54.476 134.266 47.3653 132.963 44.5871 133.594C41.8101 134.224 39.7936 132.64 42.0501 130.571C44.3055 128.502 52.4393 128.307 54.7065 128.863C54.7065 128.863 50.5273 126.928 46.7379 127.659C42.9485 128.389 41.494 128.142 40.0158 127.635C38.5376 127.128 39.8495 124.277 45.1646 123.393C50.4798 122.51 52.7399 123.504 55.2329 124.333C55.2329 124.333 53.6062 122.956 50.5095 121.325C47.4129 119.693 43.1006 120.886 41.8636 119.199C40.5981 117.472 45.6257 116.317 48.6832 116.919C51.7406 117.521 54.0162 117.7 57.3386 119.897C60.6611 122.093 63.7613 124.308 65.4355 126.101C67.1087 127.894 73.8974 133.485 74.2752 136.998C74.3727 137.897 74.0162 138.84 73.4315 139.748Z"
                    fill="#EAAD8F"
                  />
                  <path
                    d="M70.1885 130.957C70.1885 130.957 67.2298 124.079 65.2013 122.569C63.1729 121.058 60.9176 117.7 59.7887 118.974C58.661 120.248 61.5474 124.302 61.5474 124.302L70.1885 130.957Z"
                    fill="#EAAD8F"
                  />
                </svg>